<svg xmlns="http://www.w3.org/2000/svg" viewBox="0 0 841.88976 595.27559"><title>Amoled</title><path d="M817.91058,545.8956v.07a2.09021,2.09021,0,0,1-.01.25,49.3534,49.3534,0,0,1-6.6,24.37c-.0501.08-.09.16-.14.2399a2.11262,2.11262,0,0,1-.1601.25,49.36008,49.36008,0,0,1-42.4699,24.20006h-543.56v-98.76H768.76048a49.02034,49.02034,0,0,1,42.43,24.49l.06.11.0501.09c.03.05.06.11.0899.16A49.30181,49.30181,0,0,1,817.91058,545.8956Z" fill="#ced1d2"/><path d="M811.39048,521.3656H224.97059v-.25H811.25048l.0501.09C811.33058,521.2556,811.36058,521.3156,811.39048,521.3656Z" fill="#fff"/><path d="M817.91058,545.9656a2.09021,2.09021,0,0,1-.01.25h-592.93v-.25Z" fill="#fff"/><path d="M811.16058,570.8255a2.11262,2.11262,0,0,1-.1601.25H224.97059v-.25Z" fill="#fff"/><path d="M178.1362,496.5129H73.3585A49.37874,49.37874,0,0,0,30.595,521.2026h0a49.37886,49.37886,0,0,0,0,49.3789h0a49.37869,49.37869,0,0,0,42.7635,24.68967h151.611V496.5129Z" fill="#292c31"/><text transform="translate(36.08497 550.82764)" font-size="16.95848" fill="#fff" font-family="DINCond-Bold" font-weight="700">• ELECTRICAL COLOR LEGEND •</text><path d="M646.33048,43a21.50121,21.50121,0,1,0-.4512-43H195.9007a21.50121,21.50121,0,1,0-.451,43Z" fill="#292c31"/><circle cx="234.44081" cy="534.34354" r="6.21332" fill="#ffce00"/><circle cx="234.44081" cy="508.79656" r="6.21332" fill="red"/><circle cx="234.44081" cy="559.21998" r="6.21332" fill="#ffb000"/><circle cx="234.44081" cy="582.39753" r="6.21332" fill="#ff9100"/><text transform="translate(241.85195 512.04663)" font-size="8" fill="#231f20" font-family="DINCond-Bold" font-weight="700">VBAT</text><text transform="translate(241.85195 537.38685)" font-size="8" fill="#231f20" font-family="DINCond-Bold" font-weight="700">LCD_ELAVDD_7P3</text><text transform="translate(241.85195 562.52884)" font-size="8" fill="#231f20" font-family="DINCond-Bold" font-weight="700">LCD_ELVDD_4P6</text><text transform="translate(241.85195 586.78864)" font-size="8" fill="#231f20" font-family="DINCond-Bold" font-weight="700">LCD_ELVSS_-4P4</text><circle cx="311.65257" cy="534.34354" r="6.21332" fill="#0dff00"/><circle cx="72.18163" cy="352.26018" r="0.99213" fill="#c8c8c8"/><circle cx="72.18163" cy="357.35191" r="0.99213" fill="#c8c8c8"/><circle cx="72.18163" cy="362.44363" r="0.99213" fill="#c8c8c8"/><circle cx="72.18163" cy="359.89777" r="0.99213" fill="#c8c8c8"/><circle cx="72.18163" cy="354.80605" r="0.99213" fill="#c8c8c8"/><circle cx="81.82391" cy="352.26018" r="0.99213" fill="#c8c8c8"/><circle cx="81.82391" cy="357.35191" r="0.99213" fill="#c8c8c8"/><circle cx="81.82391" cy="362.44363" r="0.99213" fill="#c8c8c8"/><circle cx="81.82391" cy="359.89777" r="0.99213" fill="#c8c8c8"/><circle cx="81.82391" cy="354.80605" r="0.99213" fill="#c8c8c8"/><circle cx="76.90797" cy="352.26018" r="0.99213" fill="#c8c8c8"/><circle cx="76.90797" cy="357.35191" r="0.99213" fill="#c8c8c8"/><circle cx="76.90797" cy="362.44363" r="0.99213" fill="#c8c8c8"/><circle cx="76.90797" cy="359.89777" r="0.99213" fill="#c8c8c8"/><circle cx="76.90797" cy="354.80605" r="0.99213" fill="#c8c8c8"/><circle cx="79.36594" cy="352.26018" r="0.99213" fill="#c8c8c8"/><circle cx="79.36594" cy="357.35191" r="0.99213" fill="#c8c8c8"/><circle cx="79.36594" cy="362.44363" r="0.99213" fill="#c8c8c8"/><circle cx="79.36594" cy="359.89777" r="0.99213" fill="#c8c8c8"/><circle cx="79.36594" cy="354.80605" r="0.99213" fill="#c8c8c8"/><circle cx="74.5448" cy="352.26018" r="0.99213" fill="#c8c8c8"/><circle cx="74.5448" cy="357.35191" r="0.99213" fill="#c8c8c8"/><circle cx="74.5448" cy="362.44363" r="0.99213" fill="#c8c8c8"/><circle cx="74.5448" cy="359.89777" r="0.99213" fill="#c8c8c8"/><circle cx="74.5448" cy="354.80605" r="0.99213" fill="#c8c8c8"/><circle cx="311.65257" cy="508.79656" r="6.21332" fill="#00ff42"/><text transform="translate(319.06371 512.04663)" font-size="8" fill="#231f20" font-family="DINCond-Bold" font-weight="700">EL_ON1</text><text transform="translate(319.06371 537.38685)" font-size="8" fill="#231f20" font-family="DINCond-Bold" font-weight="700">EL_ON2</text><text transform="translate(340.72559 25.99414)" font-size="16" fill="#fff" font-family="DINCond-Bold" font-weight="700"><tspan xml:space="preserve">SAMSUNG SM-A515  &gt; </tspan><tspan x="119.96439" y="0" font-size="14" letter-spacing="-0.00007em">AMOLED</tspan></text><path d="M81.824,361.68367a.76.76,0,1,1-.76.761.76063.76063,0,0,1,.76-.761" fill="#ffce00" fill-rule="evenodd"/><path d="M79.36591,361.68367a.76.76,0,1,1-.75993.76.7598.7598,0,0,1,.75993-.76" fill="red" fill-rule="evenodd"/><path d="M74.54483,361.68367a.76.76,0,1,1-.76.76.75975.75975,0,0,1,.76-.76" fill="red" fill-rule="evenodd"/><path d="M81.824,351.5038a.76.76,0,1,1-.76.76.75973.75973,0,0,1,.76-.76" fill="red" fill-rule="evenodd"/><path d="M81.824,354.04609a.76.76,0,1,1-.76.76.75974.75974,0,0,1,.76-.76" fill="red" fill-rule="evenodd"/><path d="M85.21675,370.27954a.75943.75943,0,1,1-.75993.76.7598.7598,0,0,1,.75993-.76" fill="#ffce00" fill-rule="evenodd"/><path d="M80.39458,370.27954a.75943.75943,0,1,1-.7589.76.75979.75979,0,0,1,.7589-.76" fill="#ffce00" fill-rule="evenodd"/><path d="M75.96707,370.27954a.75943.75943,0,1,1-.761.76.7598.7598,0,0,1,.761-.76" fill="#ffce00" fill-rule="evenodd"/><path d="M74.8273,374.12154a.76.76,0,1,1-.761.76.7598.7598,0,0,1,.761-.76" fill="#ffce00" fill-rule="evenodd"/><path d="M79.36591,351.5038a.76.76,0,1,1-.75993.76.75979.75979,0,0,1,.75993-.76" fill="#ffb000" fill-rule="evenodd"/><path d="M79.36591,354.04609a.76.76,0,1,1-.75993.76.7598.7598,0,0,1,.75993-.76" fill="#ffb000" fill-rule="evenodd"/><path d="M74.54483,351.5038a.76.76,0,1,1-.76.76.75974.75974,0,0,1,.76-.76" fill="#ff9100" fill-rule="evenodd"/><path d="M74.54483,354.04609a.76.76,0,1,1-.76.76.75975.75975,0,0,1,.76-.76" fill="#ff9100" fill-rule="evenodd"/><path d="M72.1816,351.5038a.76.76,0,1,1-.75993.76.75979.75979,0,0,1,.75993-.76" fill="#ff9100" fill-rule="evenodd"/><path d="M76.90794,351.5038a.76.76,0,1,1-.75993.76.75979.75979,0,0,1,.75993-.76" fill="#ffb000" fill-rule="evenodd"/><path d="M76.90794,354.04609a.76.76,0,1,1-.75993.76.7598.7598,0,0,1,.75993-.76" fill="#0dff00" fill-rule="evenodd"/><path d="M76.90794,356.592a.76.76,0,1,1-.75993.76.7598.7598,0,0,1,.75993-.76" fill="#00ff42" fill-rule="evenodd"/><path d="M88.04456,356.198a.76.76,0,1,1-.761.76.75886.75886,0,0,1,.761-.76" fill="red" fill-rule="evenodd"/><path d="M100.64056,356.198a.76.76,0,1,1-.75995.76.75887.75887,0,0,1,.75995-.76" fill="red" fill-rule="evenodd"/><path d="M103.68988,365.81388a.76.76,0,1,1-.76.76.75974.75974,0,0,1,.76-.76" fill="red" fill-rule="evenodd"/><path d="M197.33853,406.44566a.75943.75943,0,1,1-.76.76.75972.75972,0,0,1,.76-.76" fill="#0dff00" fill-rule="evenodd"/><path d="M157.97847,390.953a.76.76,0,1,1-.76.76.75979.75979,0,0,1,.76-.76" fill="#00ff42" fill-rule="evenodd"/><path d="M168.96262,406.23677a.76.76,0,1,1-.76.76.75978.75978,0,0,1,.76-.76" fill="#ff9100" fill-rule="evenodd"/><path d="M166.82235,406.23677a.76.76,0,1,1-.76.76.75974.75974,0,0,1,.76-.76" fill="#ff9100" fill-rule="evenodd"/><path d="M72.15578,346.698a.75943.75943,0,1,1-.76.7589.75884.75884,0,0,1,.76-.7589" fill="#ff9100" fill-rule="evenodd"/><path d="M67.18559,346.698a.75943.75943,0,1,1-.75891.76.76066.76066,0,0,1,.75891-.76" fill="#ff9100" fill-rule="evenodd"/><path d="M61.47853,346.698a.75943.75943,0,1,1-.76.76.75974.75974,0,0,1,.76-.76" fill="#ff9100" fill-rule="evenodd"/><path d="M56.1158,346.698a.75943.75943,0,1,1-.76.76.75974.75974,0,0,1,.76-.76" fill="#ff9100" fill-rule="evenodd"/><path d="M51.3692,346.905a.75943.75943,0,1,1-.76.76.75974.75974,0,0,1,.76-.76" fill="#ff9100" fill-rule="evenodd"/><path d="M50.23315,352.13576a.76.76,0,1,1-.7589.76.76066.76066,0,0,1,.7589-.76" fill="#ff9100" fill-rule="evenodd"/><path d="M51.3692,342.503a.75944.75944,0,1,1-.76.76.75974.75974,0,0,1,.76-.76" fill="#ff9100" fill-rule="evenodd"/><path d="M76.90794,347.15067a.76.76,0,1,1-.75993.761.76069.76069,0,0,1,.75993-.761" fill="#ffb000" fill-rule="evenodd"/><path d="M82.5839,347.15067a.76.76,0,1,1-.76.761.76064.76064,0,0,1,.76-.761" fill="#ffb000" fill-rule="evenodd"/><path d="M87.85275,347.15067a.76.76,0,1,1-.7589.761.76156.76156,0,0,1,.7589-.761" fill="#ffb000" fill-rule="evenodd"/><path d="M92.88057,347.15067a.76.76,0,1,1-.75993.761.76069.76069,0,0,1,.75993-.761" fill="#ffb000" fill-rule="evenodd"/><path d="M96.65921,347.15067a.76.76,0,1,1-.76.761.76063.76063,0,0,1,.76-.761" fill="#ffb000" fill-rule="evenodd"/><path d="M103.55264,345.51444a.76.76,0,1,1-.7589.76.75975.75975,0,0,1,.7589-.76" fill="#ffb000" fill-rule="evenodd"/><path d="M160.4005,406.23677a.76.76,0,1,1-.75893.76.75978.75978,0,0,1,.75893-.76" fill="#ffb000" fill-rule="evenodd"/><path d="M162.56595,406.23677a.76.76,0,1,1-.76.76.75978.75978,0,0,1,.76-.76" fill="#ffb000" fill-rule="evenodd"/><polyline points="81.824 362.444 85.29 362.444 85.29 371.04 74.827 371.04 74.827 420.541 173.201 420.541 173.201 407.206" fill="none" stroke="#ffce00" stroke-linejoin="round" stroke-width="0.4"/><polyline points="79.366 354.806 79.366 352.264 76.908 352.264 76.908 347.912 98.837 347.911 100.298 347.911 103.526 347.911 103.526 346.274 142.135 346.274 142.135 412.893 162.615 412.893 162.615 406.997 162.615 412.893 160.381 412.893 160.4 406.997" fill="none" stroke="#ffb000" stroke-linejoin="round" stroke-width="0.4"/><path d="M100.25533,347.15067a.76.76,0,1,1-.75992.761.76069.76069,0,0,1,.75992-.761" fill="#ffb000" fill-rule="evenodd"/><polyline points="74.545 354.806 74.545 352.264 72.182 352.264 72.182 347.457 56.116 347.457 56.116 343.152 51.369 343.152 51.369 352.896 50.234 352.896 50.234 416.764 169.004 416.764 169.004 406.997 169.004 416.764 166.822 416.764 166.822 406.997" fill="none" stroke="#ff9100" stroke-linejoin="round" stroke-width="0.4"/><path d="M50.23315,355.22723a.76.76,0,1,1-.7589.76.76067.76067,0,0,1,.7589-.76" fill="#ff9100" fill-rule="evenodd"/><polyline points="76.908 357.352 76.908 369.045 72.147 369.045 72.147 412.873 138.91 412.873 138.91 385.512 157.95 385.512 157.95 391.713" fill="none" stroke="#00ff42" stroke-linejoin="round" stroke-width="0.4"/><polyline points="76.908 354.806 74.687 357.287 70.288 357.287 70.288 424.203 197.367 424.203 197.367 407.206" fill="none" stroke="#0dff00" stroke-linejoin="round" stroke-width="0.4"/><path d="M104.8466,361.2083a.76.76,0,1,1-.76.76.75975.75975,0,0,1,.76-.76" fill="red" fill-rule="evenodd"/><path d="M104.8466,356.198a.76.76,0,1,1-.76.76.75974.75974,0,0,1,.76-.76" fill="red" fill-rule="evenodd"/><path d="M104.8466,350.04062a.76.76,0,1,1-.76.75892.75953.75953,0,0,1,.76-.75892" fill="red" fill-rule="evenodd"/><path d="M173.21062,406.44566a.75943.75943,0,1,1-.76.76.75975.75975,0,0,1,.76-.76" fill="#ffce00" fill-rule="evenodd"/><polyline points="81.824 352.264 81.824 356.958 104.847 356.958 104.858 366.574 79.366 366.574 79.366 362.444 79.366 366.574 74.545 366.574 74.545 362.444 74.545 366.574 104.858 366.574 104.856 350.801" fill="none" stroke="red" stroke-linejoin="round" stroke-width="0.4"/><rect x="196.67166" y="409.03425" width="1.33361" height="10.38992" rx="0.6633" fill="#0dff00"/><text transform="translate(197.70262 415.65576) rotate(-90)" font-size="1.0999" fill="#231f20" font-family="DINCond-Bold" font-weight="700">EL_ON2</text><rect x="172.53439" y="408.74277" width="1.33361" height="10.38992" rx="0.6633" fill="#ffce00"/><text transform="translate(173.56535 417.29004) rotate(-90)" font-size="1.0999" fill="#231f20" font-family="DINCond-Bold" font-weight="700">LCD_ELAVDD_7P3</text><rect x="159.18652" y="411.56893" width="1.33361" height="10.38992" rx="0.6633" transform="translate(576.61721 256.91056) rotate(90)" fill="#ff9100"/><text transform="translate(156.62859 417.12804)" font-size="1.0999" fill="#231f20" font-family="DINCond-Bold" font-weight="700">LCD_ELVSS_-4P4</text><rect x="152.69528" y="407.67779" width="1.33361" height="10.38992" rx="0.6633" transform="translate(566.23484 259.51066) rotate(90)" fill="#ffb000"/><text transform="translate(150.26627 413.23691)" font-size="1.0999" fill="#231f20" font-family="DINCond-Bold" font-weight="700">LCD_ELVDD_4P6</text><rect x="150.72898" y="380.29913" width="1.33361" height="10.38992" rx="0.6633" transform="translate(536.88988 234.09831) rotate(90)" fill="#00ff42"/><text transform="translate(149.96842 385.85825)" font-size="1.0999" fill="#231f20" font-family="DINCond-Bold" font-weight="700">EL_ON1</text><rect x="74.15998" y="376.42565" width="1.33361" height="10.38992" rx="0.6633" fill="#ffce00"/><text transform="translate(75.19095 384.97363) rotate(-90)" font-size="1.0999" fill="#231f20" font-family="DINCond-Bold" font-weight="700">LCD_ELAVDD_7P3</text><rect x="71.51482" y="370.11027" width="1.33361" height="10.38992" rx="0.6633" fill="#00ff42"/><text transform="translate(72.54581 376.73291) rotate(-90)" font-size="1.0999" fill="#231f20" font-family="DINCond-Bold" font-weight="700">EL_ON1</text><rect x="69.62159" y="364.49158" width="1.33361" height="10.38992" rx="0.6633" fill="#0dff00"/><text transform="translate(70.65259 371.11377) rotate(-90)" font-size="1.0999" fill="#231f20" font-family="DINCond-Bold" font-weight="700">EL_ON2</text><rect x="49.5674" y="357.71788" width="1.33361" height="10.38992" rx="0.6633" fill="#ff9100"/><text transform="translate(50.59836 366.13867) rotate(-90)" font-size="1.0999" fill="#231f20" font-family="DINCond-Bold" font-weight="700">LCD_ELVSS_-4P4</text><rect x="110.95091" y="341.07944" width="1.33361" height="10.38992" rx="0.6633" transform="translate(457.89212 234.65668) rotate(90)" fill="#ffb000"/><text transform="translate(108.52087 346.63856)" font-size="1.0999" fill="#231f20" font-family="DINCond-Bold" font-weight="700">LCD_ELVDD_4P6</text><rect x="93.82653" y="351.76296" width="1.33361" height="10.38992" rx="0.6633" transform="translate(451.45126 262.46458) rotate(90)" fill="red"/><text transform="translate(92.57665 357.32209)" font-size="1.0999" fill="#fff" font-family="DINCond-Bold" font-weight="700">VPH_PWR</text><rect x="93.82653" y="361.37888" width="1.33361" height="10.38992" rx="0.6633" transform="translate(461.06718 272.0805) rotate(90)" fill="red"/><text transform="translate(92.57665 366.93801)" font-size="1.0999" fill="#fff" font-family="DINCond-Bold" font-weight="700">VPH_PWR</text></svg>