<svg xmlns="http://www.w3.org/2000/svg" viewBox="0 0 841.88976 595.27559"><title>Input Output Voltage_decrypted</title><path d="M259.23993,277.09528a.95681.95681,0,1,1,.9568.95785.95767.95767,0,0,1-.9568-.95785" fill="red" fill-rule="evenodd"/><line x1="266.27217" y1="277.09528" x2="260.19673" y2="277.09528" fill="none" stroke="red" stroke-linecap="round" stroke-linejoin="round" stroke-width="0.5669"/><rect x="264.79153" y="275.73875" width="19.36984" height="2.71408" rx="1.35704" fill="red"/><text transform="translate(267.45572 277.81468)" font-size="2.17128" fill="#fefefe" font-family="DINCond-Bold" font-weight="700">VLDO23_PMIC_1P2</text><path d="M235.01377,300.73177a.95681.95681,0,1,1,.95785-.95681.95769.95769,0,0,1-.95785.95681" fill="red" fill-rule="evenodd"/><line x1="235.01375" y1="304.25254" x2="235.01375" y2="299.77494" fill="none" stroke="red" stroke-linecap="round" stroke-linejoin="round" stroke-width="0.5669"/><path d="M210.18129,294.2427a.95681.95681,0,1,1-.95785.9568.95768.95768,0,0,1,.95785-.9568" fill="red" fill-rule="evenodd"/><polyline points="210.181 295.2 210.181 285.29 203.703 285.29" fill="none" stroke="red" stroke-linecap="round" stroke-linejoin="round" stroke-width="0.5669"/><path d="M220.21976,292.32908a.95681.95681,0,1,1-.95786.95681.95769.95769,0,0,1,.95786-.95681" fill="red" fill-rule="evenodd"/><polyline points="220.22 293.286 220.22 281.483 203.951 281.483" fill="none" stroke="red" stroke-linecap="round" stroke-linejoin="round" stroke-width="0.5669"/><path d="M225.80767,292.32908a.95681.95681,0,1,1-.95785.95681.95769.95769,0,0,1,.95785-.95681" fill="red" fill-rule="evenodd"/><polyline points="225.808 293.286 225.808 277.496 204.346 277.496" fill="none" stroke="red" stroke-linecap="round" stroke-linejoin="round" stroke-width="0.5669"/><rect x="225.38643" y="303.60586" width="19.36984" height="2.71408" rx="1.35704" fill="red"/><text transform="translate(227.93674 305.68179)" font-size="2.17128" fill="#fefefe" font-family="DINCond-Bold" font-weight="700">BUCK5_PMIC_0P75</text><path d="M235.914,373.90984a.95681.95681,0,1,1,.95786-.9568.95768.95768,0,0,1-.95786.9568" fill="red" fill-rule="evenodd"/><line x1="235.91402" y1="377.43062" x2="235.91402" y2="372.95302" fill="none" stroke="red" stroke-linecap="round" stroke-linejoin="round" stroke-width="0.5669"/><rect x="226.2291" y="376.78393" width="19.36984" height="2.71408" rx="1.35704" fill="red"/><text transform="translate(228.77933 378.85986)" font-size="2.17128" fill="#fefefe" font-family="DINCond-Bold" font-weight="700">BUCK4_PMIC_0P75</text><path d="M263.12251,375.82345a.95681.95681,0,1,1,.95785-.9568.95767.95767,0,0,1-.95785.9568" fill="red" fill-rule="evenodd"/><line x1="263.12249" y1="379.34423" x2="263.12249" y2="374.86663" fill="none" stroke="red" stroke-linecap="round" stroke-linejoin="round" stroke-width="0.5669"/><rect x="253.43756" y="378.6976" width="19.36984" height="2.71408" rx="1.35704" fill="red"/><text transform="translate(255.98779 380.77341)" font-size="2.17128" fill="#fefefe" font-family="DINCond-Bold" font-weight="700">VLDO2_PMIC_2P8</text><path d="M183.86109,295.03939a.95681.95681,0,1,1,.9568.95785.95768.95768,0,0,1-.9568-.95785" fill="red" fill-rule="evenodd"/><line x1="180.34031" y1="295.03936" x2="184.81791" y2="295.03936" fill="none" stroke="red" stroke-linecap="round" stroke-linejoin="round" stroke-width="0.5669"/><rect x="162.48401" y="293.68286" width="19.36984" height="2.71408" rx="1.35704" fill="red"/><text transform="translate(165.03418 295.75879)" font-size="2.17128" fill="#fefefe" font-family="DINCond-Bold" font-weight="700">BUCK1_PMIC_0P75</text><path d="M160.916,318.76236a.95681.95681,0,1,1,.95681.95785.95768.95768,0,0,1-.95681-.95785" fill="red" fill-rule="evenodd"/><line x1="157.39525" y1="318.76233" x2="161.87286" y2="318.76233" fill="none" stroke="red" stroke-linecap="round" stroke-linejoin="round" stroke-width="0.5669"/><rect x="139.48147" y="317.40529" width="19.36984" height="2.71408" rx="1.35704" fill="red"/><text transform="translate(141.71008 319.48122)" font-size="2.17128" fill="#fefefe" font-family="DINCond-Bold" font-weight="700">VLDO43_PMIC_0P75</text><path d="M168.714,320.1194a.95681.95681,0,1,1,.9568.95785.95767.95767,0,0,1-.9568-.95785" fill="red" fill-rule="evenodd"/><polyline points="157.395 315.466 169.671 315.466 169.671 320.12" fill="none" stroke="red" stroke-linecap="round" stroke-linejoin="round" stroke-width="0.5669"/><rect x="139.48147" y="314.10859" width="19.36984" height="2.71408" rx="1.35704" fill="red"/><text transform="translate(142.14563 316.18452)" font-size="2.17128" fill="#fefefe" font-family="DINCond-Bold" font-weight="700">VLDO31_PMIC_3P3</text><path d="M170.6457,316.42245a.95681.95681,0,1,1,.9568.95785.95768.95768,0,0,1-.9568-.95785" fill="red" fill-rule="evenodd"/><polyline points="157.395 312.169 171.603 312.169 171.603 316.423" fill="none" stroke="red" stroke-linecap="round" stroke-linejoin="round" stroke-width="0.5669"/><rect x="139.48147" y="310.81188" width="19.36984" height="2.71408" rx="1.35704" fill="red"/><text transform="translate(142.14563 312.88782)" font-size="2.17128" fill="#fefefe" font-family="DINCond-Bold" font-weight="700">VLDO35_PMIC_3P0</text><path d="M176.512,319.48124a.95681.95681,0,1,1,.95681.95786.95769.95769,0,0,1-.95681-.95786" fill="red" fill-rule="evenodd"/><polyline points="157.395 308.868 177.469 308.868 177.469 319.482" fill="none" stroke="red" stroke-linecap="round" stroke-linejoin="round" stroke-width="0.5669"/><rect x="139.48147" y="307.51109" width="19.36984" height="2.71408" rx="1.35704" fill="red"/><text transform="translate(142.14563 309.58702)" font-size="2.17128" fill="#fefefe" font-family="DINCond-Bold" font-weight="700">VLDO14_PMIC_3P0</text><path d="M168.714,333.90429a.95681.95681,0,1,1,.9568.95785.95767.95767,0,0,1-.9568-.95785" fill="red" fill-rule="evenodd"/><line x1="157.39525" y1="333.90481" x2="169.67083" y2="333.90481" fill="none" stroke="red" stroke-linecap="round" stroke-linejoin="round" stroke-width="0.5669"/><path d="M179.16162,329.50958a.95681.95681,0,1,1,.9568.95785.95767.95767,0,0,1-.9568-.95785" fill="red" fill-rule="evenodd"/><polyline points="137.423 331.575 180.118 331.575 180.118 329.51" fill="none" stroke="red" stroke-linecap="round" stroke-linejoin="round" stroke-width="0.5669"/><rect x="139.48147" y="332.54776" width="19.36984" height="2.71408" rx="1.35704" fill="red"/><text transform="translate(142.14563 334.6237)" font-size="2.17128" fill="#fefefe" font-family="DINCond-Bold" font-weight="700">VLDO40_PMIC_3P3</text><path d="M168.714,338.2048a.95681.95681,0,1,1,.9568.95786.95768.95768,0,0,1-.9568-.95786" fill="red" fill-rule="evenodd"/><line x1="157.39525" y1="338.20532" x2="169.67083" y2="338.20532" fill="none" stroke="red" stroke-linecap="round" stroke-linejoin="round" stroke-width="0.5669"/><rect x="139.48147" y="336.84828" width="19.36984" height="2.71408" rx="1.35704" fill="red"/><text transform="translate(142.14563 338.92421)" font-size="2.17128" fill="#fefefe" font-family="DINCond-Bold" font-weight="700">VLDO30_PMIC_1P8</text><path d="M174.37341,345.10988a.95681.95681,0,1,1,.95681.95785.95769.95769,0,0,1-.95681-.95785" fill="red" fill-rule="evenodd"/><polyline points="157.63 347.138 175.33 347.138 175.33 345.11" fill="none" stroke="red" stroke-linecap="round" stroke-linejoin="round" stroke-width="0.5669"/><rect x="139.48147" y="345.78082" width="19.36984" height="2.71408" rx="1.35704" fill="red"/><text transform="translate(142.58069 347.85675)" font-size="2.17128" fill="#fefefe" font-family="DINCond-Bold" font-weight="700">VLDO3_PMIC_1P8</text><path d="M178.96382,345.10988a.95681.95681,0,1,1,.9568.95785.95768.95768,0,0,1-.9568-.95785" fill="red" fill-rule="evenodd"/><polyline points="157.63 350.369 179.921 350.369 179.921 345.11" fill="none" stroke="red" stroke-linecap="round" stroke-linejoin="round" stroke-width="0.5669"/><rect x="139.48147" y="349.01199" width="19.36984" height="2.71408" rx="1.35704" fill="red"/><text transform="translate(142.58069 351.08792)" font-size="2.17128" fill="#fefefe" font-family="DINCond-Bold" font-weight="700">VLDO7_PMIC_1P8</text><path d="M180.64514,342.06338a.95681.95681,0,1,1,.9568.95785.95767.95767,0,0,1-.9568-.95785" fill="red" fill-rule="evenodd"/><polyline points="157.63 353.67 181.602 353.67 181.602 342.063" fill="none" stroke="red" stroke-linecap="round" stroke-linejoin="round" stroke-width="0.5669"/><rect x="139.48147" y="352.31339" width="19.36984" height="2.71408" rx="1.35704" fill="red"/><text transform="translate(142.14563 354.38932)" font-size="2.17128" fill="#fefefe" font-family="DINCond-Bold" font-weight="700">VLDO33_PMIC_1P8</text><path d="M178.42617,338.67776a.95681.95681,0,1,1,.9568.95785.95767.95767,0,0,1-.9568-.95785" fill="red" fill-rule="evenodd"/><polyline points="157.63 342.989 179.383 342.989 179.383 338.678" fill="none" stroke="red" stroke-linecap="round" stroke-linejoin="round" stroke-width="0.5669"/><rect x="139.48147" y="341.63197" width="19.36984" height="2.71408" rx="1.35704" fill="red"/><text transform="translate(142.14563 343.7079)" font-size="2.17128" fill="#fefefe" font-family="DINCond-Bold" font-weight="700">VLDO42_PMIC_1P8</text><path d="M171.98011,334.49131a.95681.95681,0,1,1,.9568.95785.95767.95767,0,0,1-.9568-.95785" fill="red" fill-rule="evenodd"/><path d="M175.25037,334.62318a.95681.95681,0,1,1,.95681.95785.95768.95768,0,0,1-.95681-.95785" fill="red" fill-rule="evenodd"/><rect x="119.08194" y="330.21794" width="19.36984" height="2.71408" rx="1.35704" fill="red"/><text transform="translate(121.31067 332.29388)" font-size="2.17128" fill="#fefefe" font-family="DINCond-Bold" font-weight="700">VLDO34_PMIC_2P95</text><polyline points="137.423 336.026 172.937 336.026 172.937 334.492" fill="none" stroke="red" stroke-linecap="round" stroke-linejoin="round" stroke-width="0.5669"/><rect x="119.08194" y="334.66849" width="19.36984" height="2.71408" rx="1.35704" fill="red"/><text transform="translate(121.74622 336.74443)" font-size="2.17128" fill="#fefefe" font-family="DINCond-Bold" font-weight="700">VLDO39_PMIC_1P8</text><polyline points="137.423 340.707 176.207 340.707 176.207 334.623" fill="none" stroke="red" stroke-linecap="round" stroke-linejoin="round" stroke-width="0.5669"/><rect x="119.08194" y="339.34981" width="19.36984" height="2.71408" rx="1.35704" fill="red"/><text transform="translate(121.74622 341.42575)" font-size="2.17128" fill="#fefefe" font-family="DINCond-Bold" font-weight="700">VLDO44_PMIC_1P2</text><path d="M168.714,329.50958a.95681.95681,0,1,1,.9568.95785.95767.95767,0,0,1-.9568-.95785" fill="red" fill-rule="evenodd"/><line x1="157.39525" y1="329.51009" x2="169.67083" y2="329.51009" fill="none" stroke="red" stroke-linecap="round" stroke-linejoin="round" stroke-width="0.5669"/><rect x="139.48147" y="328.15305" width="19.36984" height="2.71408" rx="1.35704" fill="red"/><text transform="translate(142.14563 330.22898)" font-size="2.17128" fill="#fefefe" font-family="DINCond-Bold" font-weight="700">VLDO27_PMIC_1P1</text><path d="M169.20177,324.6924a.95681.95681,0,1,1,.95681.95785.95768.95768,0,0,1-.95681-.95785" fill="red" fill-rule="evenodd"/><polyline points="157.395 326.329 170.159 326.329 170.159 324.693" fill="none" stroke="red" stroke-linecap="round" stroke-linejoin="round" stroke-width="0.5669"/><rect x="139.48147" y="324.97173" width="19.36984" height="2.71408" rx="1.35704" fill="red"/><text transform="translate(142.14563 327.04766)" font-size="2.17128" fill="#fefefe" font-family="DINCond-Bold" font-weight="700">VLDO19_PMIC_3P0</text><path d="M177.23591,322.40629a.95681.95681,0,1,1,.95681.95785.95768.95768,0,0,1-.95681-.95785" fill="red" fill-rule="evenodd"/><line x1="157.63041" y1="322.40681" x2="178.19272" y2="322.40681" fill="none" stroke="red" stroke-linecap="round" stroke-linejoin="round" stroke-width="0.5669"/><rect x="139.48147" y="321.06516" width="19.36984" height="2.71408" rx="1.35704" fill="red"/><text transform="translate(142.14594 323.14109)" font-size="2.17128" fill="#fefefe" font-family="DINCond-Bold" font-weight="700">VLDO38_PMIC_3P0</text><path d="M259.23993,293.43911a.95681.95681,0,1,1,.9568.95785.95768.95768,0,0,1-.9568-.95785" fill="red" fill-rule="evenodd"/><line x1="266.27217" y1="293.43911" x2="260.19673" y2="293.43911" fill="none" stroke="red" stroke-linecap="round" stroke-linejoin="round" stroke-width="0.5669"/><rect x="263.654" y="292.08207" width="19.36984" height="2.71408" rx="1.35704" fill="red"/><text transform="translate(266.31854 294.158)" font-size="2.17128" fill="#fefefe" font-family="DINCond-Bold" font-weight="700">VLDO22_PMIC_1P2</text><path d="M252.58059,293.03889a.95681.95681,0,1,1,.9568.95785.95768.95768,0,0,1-.9568-.95785" fill="red" fill-rule="evenodd"/><polyline points="266.272 289.631 253.537 289.631 253.537 293.039" fill="none" stroke="red" stroke-linecap="round" stroke-linejoin="round" stroke-width="0.5669"/><rect x="263.654" y="288.27438" width="19.36984" height="2.71408" rx="1.35704" fill="red"/><text transform="translate(266.31854 290.35031)" font-size="2.17128" fill="#fefefe" font-family="DINCond-Bold" font-weight="700">VLDO26_PMIC_1P1</text><path d="M249.67949,293.03889a.95681.95681,0,1,1,.9568.95785.95768.95768,0,0,1-.9568-.95785" fill="red" fill-rule="evenodd"/><polyline points="266.272 285.644 250.636 285.644 250.636 293.039" fill="none" stroke="red" stroke-linecap="round" stroke-linejoin="round" stroke-width="0.5669"/><rect x="263.654" y="284.28718" width="19.36984" height="2.71408" rx="1.35704" fill="red"/><text transform="translate(266.31854 286.3631)" font-size="2.17128" fill="#fefefe" font-family="DINCond-Bold" font-weight="700">VLDO9_PMIC_0P75</text><rect x="185.94729" y="283.93335" width="19.36984" height="2.71408" rx="1.35704" fill="red"/><text transform="translate(188.93295 286.00928)" font-size="2.17128" fill="#fefefe" font-family="DINCond-Bold" font-weight="700">BUCK8_PMIC_1P3</text><path d="M179.38349,305.27577a.95681.95681,0,1,1-.95786.95681.95769.95769,0,0,1,.95786-.95681" fill="red" fill-rule="evenodd"/><polyline points="179.384 306.233 179.384 301.019 158.06 301.019" fill="none" stroke="red" stroke-linecap="round" stroke-linejoin="round" stroke-width="0.5669"/><rect x="139.48147" y="299.66205" width="19.36984" height="2.71408" rx="1.35704" fill="red"/><text transform="translate(142.14563 301.73797)" font-size="2.17128" fill="#fefefe" font-family="DINCond-Bold" font-weight="700">VLDO21_PMIC_1P0</text><path d="M176.04393,305.99466a.95681.95681,0,1,1-.95785.9568.95767.95767,0,0,1,.95785-.9568" fill="red" fill-rule="evenodd"/><polyline points="176.044 306.951 176.044 304.43 157.63 304.43" fill="none" stroke="red" stroke-linecap="round" stroke-linejoin="round" stroke-width="0.5669"/><rect x="139.48147" y="303.09813" width="19.36984" height="2.71408" rx="1.35704" fill="red"/><text transform="translate(142.14581 305.17406)" font-size="2.17128" fill="#fefefe" font-family="DINCond-Bold" font-weight="700">VLDO18_PMIC_3P0</text><path d="M185.80419,317.40583a.95681.95681,0,1,1-.95785.95681.95768.95768,0,0,1,.95785-.95681" fill="red" fill-rule="evenodd"/><polyline points="185.804 318.363 185.804 308.868 195.758 308.868" fill="none" stroke="red" stroke-linecap="round" stroke-linejoin="round" stroke-width="0.5669"/><rect x="194.2657" y="307.51109" width="19.36984" height="2.71408" rx="1.35704" fill="red"/><text transform="translate(196.92999 309.58702)" font-size="2.17128" fill="#fefefe" font-family="DINCond-Bold" font-weight="700">VLDO5_PMIC_0P85</text><path d="M187.98,333.75748a.95681.95681,0,1,1-.95786.95681.95768.95768,0,0,1,.95786-.95681" fill="red" fill-rule="evenodd"/><polyline points="187.98 334.714 187.98 312.258 197.934 312.258" fill="none" stroke="red" stroke-linecap="round" stroke-linejoin="round" stroke-width="0.5669"/><rect x="194.2657" y="310.90131" width="19.36984" height="2.71408" rx="1.35704" fill="red"/><text transform="translate(196.92999 312.97724)" font-size="2.17128" fill="#fefefe" font-family="DINCond-Bold" font-weight="700">VLDO25_PMIC_2P8</text><path d="M182.296,333.75748a.95681.95681,0,1,1-.95785.95681.95767.95767,0,0,1,.95785-.95681" fill="red" fill-rule="evenodd"/><polyline points="182.296 334.714 182.296 305.276 196.137 305.276" fill="none" stroke="red" stroke-linecap="round" stroke-linejoin="round" stroke-width="0.5669"/><rect x="194.2657" y="303.91873" width="19.36984" height="2.71408" rx="1.35704" fill="red"/><text transform="translate(196.93002 305.99466)" font-size="2.17128" fill="#fefefe" font-family="DINCond-Bold" font-weight="700">VLDO41_PMIC_3P0</text><rect x="185.94729" y="280.12566" width="19.36984" height="2.71408" rx="1.35704" fill="red"/><text transform="translate(188.61166 282.20159)" font-size="2.17128" fill="#fefefe" font-family="DINCond-Bold" font-weight="700">VLDO17_PMIC_1P2</text><rect x="185.94729" y="276.13846" width="19.36984" height="2.71408" rx="1.35704" fill="red"/><text transform="translate(189.04672 278.21438)" font-size="2.17128" fill="#fefefe" font-family="DINCond-Bold" font-weight="700">VLDO6_PMIC_1P2</text><path d="M187.02323,346.78181a.95681.95681,0,1,1,.9568.95785.95767.95767,0,0,1-.9568-.95785" fill="red" fill-rule="evenodd"/><polyline points="187.98 346.782 184.286 346.782 184.286 357.082 191.984 357.082" fill="none" stroke="red" stroke-linecap="round" stroke-linejoin="round" stroke-width="0.5669"/><path d="M187.979,351.50971a.95681.95681,0,1,1,.95785-.95681.95769.95769,0,0,1-.95785.95681" fill="red" fill-rule="evenodd"/><polyline points="187.979 350.553 187.979 353.67 191.984 353.67" fill="none" stroke="red" stroke-linecap="round" stroke-linejoin="round" stroke-width="0.5669"/><rect x="190.78131" y="352.31329" width="19.36984" height="2.71408" rx="1.35704" fill="red"/><text transform="translate(193.44556 354.38922)" font-size="2.17128" fill="#fefefe" font-family="DINCond-Bold" font-weight="700">VLDO20_PMIC_1P8</text><rect x="190.78131" y="355.72538" width="19.36984" height="2.71408" rx="1.35704" fill="red"/><text transform="translate(193.44556 357.80131)" font-size="2.17128" fill="#fefefe" font-family="DINCond-Bold" font-weight="700">VLDO24_PMIC_1P8</text><path d="M173.53722,365.38946a.95681.95681,0,1,1,.9568.95785.95768.95768,0,0,1-.9568-.95785" fill="red" fill-rule="evenodd"/><line x1="170.01644" y1="365.38943" x2="174.49404" y2="365.38943" fill="none" stroke="red" stroke-linecap="round" stroke-linejoin="round" stroke-width="0.5669"/><rect x="151.94244" y="364.03293" width="19.36984" height="2.71408" rx="1.35704" fill="red"/><text transform="translate(154.92801 366.10886)" font-size="2.17128" fill="#fefefe" font-family="DINCond-Bold" font-weight="700">BUCK7_PMIC_1P1</text><path d="M208.19523,364.03241a.95681.95681,0,1,1,.9568.95786.95768.95768,0,0,1-.9568-.95786" fill="red" fill-rule="evenodd"/><line x1="204.67445" y1="364.03239" x2="209.15205" y2="364.03239" fill="none" stroke="red" stroke-linecap="round" stroke-linejoin="round" stroke-width="0.5669"/><rect x="186.97872" y="362.67589" width="19.36984" height="2.71408" rx="1.35704" fill="red"/><text transform="translate(189.20776 364.75181)" font-size="2.17128" fill="#fefefe" font-family="DINCond-Bold" font-weight="700">VLDO10_PMIC_0P75</text><path d="M192.05631,372.285a.95681.95681,0,1,1,.9568.95785.95767.95767,0,0,1-.9568-.95785" fill="red" fill-rule="evenodd"/><line x1="188.53553" y1="372.28494" x2="193.01313" y2="372.28494" fill="none" stroke="red" stroke-linecap="round" stroke-linejoin="round" stroke-width="0.5669"/><rect x="170.63643" y="370.92843" width="19.36984" height="2.71408" rx="1.35704" fill="red"/><text transform="translate(173.62207 373.00436)" font-size="2.17128" fill="#fefefe" font-family="DINCond-Bold" font-weight="700">BUCK9_PMIC_2P0</text><path d="M199.50934,371.88525a.95681.95681,0,1,1,.95681.95786.95769.95769,0,0,1-.95681-.95786" fill="red" fill-rule="evenodd"/><polyline points="188.536 376.043 200.466 376.043 200.466 371.886" fill="none" stroke="red" stroke-linecap="round" stroke-linejoin="round" stroke-width="0.5669"/><rect x="170.63643" y="374.68667" width="19.36984" height="2.71408" rx="1.35704" fill="red"/><text transform="translate(173.30078 376.7626)" font-size="2.17128" fill="#fefefe" font-family="DINCond-Bold" font-weight="700">VLDO13_PMIC_1P8</text><path d="M202.76084,370.92792a.95681.95681,0,1,1,.95681.95785.95767.95767,0,0,1-.95681-.95785" fill="red" fill-rule="evenodd"/><polyline points="188.536 379.604 203.718 379.604 203.718 370.928" fill="none" stroke="red" stroke-linecap="round" stroke-linejoin="round" stroke-width="0.5669"/><rect x="170.63643" y="378.24711" width="19.36984" height="2.71408" rx="1.35704" fill="red"/><text transform="translate(173.30078 380.32304)" font-size="2.17128" fill="#fefefe" font-family="DINCond-Bold" font-weight="700">VLDO8_PMIC_0P75</text><path d="M207.23842,369.97058a.95681.95681,0,1,1,.95681.95785.95768.95768,0,0,1-.95681-.95785" fill="red" fill-rule="evenodd"/><polyline points="188.536 383.362 208.195 383.362 208.195 369.971" fill="none" stroke="red" stroke-linecap="round" stroke-linejoin="round" stroke-width="0.5669"/><rect x="170.63643" y="382.00536" width="19.36984" height="2.71408" rx="1.35704" fill="red"/><text transform="translate(172.86523 384.08129)" font-size="2.17128" fill="#fefefe" font-family="DINCond-Bold" font-weight="700">VLDO36_PMIC_0P75</text><path d="M252.04868,332.29439a.95681.95681,0,1,1-.9568-.95786.95768.95768,0,0,1,.9568.95786" fill="red" fill-rule="evenodd"/><line x1="255.56946" y1="332.29441" x2="251.09186" y2="332.29441" fill="none" stroke="red" stroke-linecap="round" stroke-linejoin="round" stroke-width="0.5669"/><rect x="254.29983" y="330.93683" width="19.36984" height="2.71408" rx="1.35704" fill="red"/><text transform="translate(256.84976 333.01276)" font-size="2.17128" fill="#fefefe" font-family="DINCond-Bold" font-weight="700">BUCK2_PMIC_0P75</text><path d="M298.07066,338.907a.95681.95681,0,1,1-.9568-.95785.95767.95767,0,0,1,.9568.95785" fill="red" fill-rule="evenodd"/><line x1="301.59144" y1="338.90703" x2="297.11384" y2="338.90703" fill="none" stroke="red" stroke-linecap="round" stroke-linejoin="round" stroke-width="0.5669"/><rect x="300.26449" y="337.54945" width="19.36984" height="2.71408" rx="1.35704" fill="red"/><text transform="translate(302.92905 339.62538)" font-size="2.17128" fill="#fefefe" font-family="DINCond-Bold" font-weight="700">VLDO15_PMIC_0P8</text><path d="M298.46627,346.28747a.95681.95681,0,1,1-.95681-.95785.95768.95768,0,0,1,.95681.95785" fill="red" fill-rule="evenodd"/><line x1="301.98704" y1="346.2875" x2="297.50944" y2="346.2875" fill="none" stroke="red" stroke-linecap="round" stroke-linejoin="round" stroke-width="0.5669"/><rect x="300.66029" y="344.92992" width="19.36984" height="2.71408" rx="1.35704" fill="red"/><text transform="translate(303.32446 347.00585)" font-size="2.17128" fill="#fefefe" font-family="DINCond-Bold" font-weight="700">VLDO16_PMIC_1P8</text><path d="M307.12011,355.73253a.95681.95681,0,1,1-.9568-.95785.95768.95768,0,0,1,.9568.95785" fill="red" fill-rule="evenodd"/><line x1="310.64089" y1="355.73255" x2="306.16329" y2="355.73255" fill="none" stroke="red" stroke-linecap="round" stroke-linejoin="round" stroke-width="0.5669"/><rect x="309.31411" y="354.37497" width="19.36984" height="2.71408" rx="1.35704" fill="red"/><text transform="translate(311.9783 356.45091)" font-size="2.17128" fill="#fefefe" font-family="DINCond-Bold" font-weight="700">VLDO1_PMIC_0P75</text><path d="M285.67429,381.49586a.95681.95681,0,1,1-.95681-.95786.95768.95768,0,0,1,.95681.95786" fill="red" fill-rule="evenodd"/><line x1="289.19507" y1="381.49588" x2="284.71747" y2="381.49588" fill="none" stroke="red" stroke-linecap="round" stroke-linejoin="round" stroke-width="0.5669"/><rect x="287.8683" y="380.1383" width="19.36984" height="2.71408" rx="1.35704" fill="red"/><text transform="translate(290.53247 382.21424)" font-size="2.17128" fill="#fefefe" font-family="DINCond-Bold" font-weight="700">VLDO32_PMIC_3P3</text><path d="M249.17825,348.0516a.95681.95681,0,1,1,.9568.95785.95768.95768,0,0,1-.9568-.95785" fill="red" fill-rule="evenodd"/><line x1="245.65747" y1="348.05158" x2="250.13507" y2="348.05158" fill="none" stroke="red" stroke-linecap="round" stroke-linejoin="round" stroke-width="0.5669"/><rect x="227.93668" y="346.69507" width="19.36984" height="2.71408" rx="1.35704" fill="red"/><text transform="translate(230.48672 348.77101)" font-size="2.17128" fill="#fefefe" font-family="DINCond-Bold" font-weight="700">BUCK6_PMIC_0P75</text><path d="M243.04638,365.43518a.95681.95681,0,1,1,.9568.95786.95768.95768,0,0,1-.9568-.95786" fill="red" fill-rule="evenodd"/><line x1="239.5256" y1="365.43516" x2="244.0032" y2="365.43516" fill="none" stroke="red" stroke-linecap="round" stroke-linejoin="round" stroke-width="0.5669"/><rect x="221.80483" y="364.07866" width="19.36984" height="2.71408" rx="1.35704" fill="red"/><text transform="translate(224.35483 366.15459)" font-size="2.17128" fill="#fefefe" font-family="DINCond-Bold" font-weight="700">BUCK3_PMIC_0P75</text><path d="M244.9255,352.754a.95681.95681,0,1,1,.95681.95785.95768.95768,0,0,1-.95681-.95785" fill="red" fill-rule="evenodd"/><line x1="241.40472" y1="352.75394" x2="245.88232" y2="352.75394" fill="none" stroke="red" stroke-linecap="round" stroke-linejoin="round" stroke-width="0.5669"/><rect x="223.84448" y="351.39744" width="19.36984" height="2.71408" rx="1.35704" fill="red"/><text transform="translate(226.07343 353.47337)" font-size="2.17128" fill="#fefefe" font-family="DINCond-Bold" font-weight="700">VLDO12_PMIC_0P85</text><path d="M248.22144,355.02686a.95681.95681,0,1,1,.95681.95785.95769.95769,0,0,1-.95681-.95785" fill="red" fill-rule="evenodd"/><polyline points="241.405 358.342 249.178 358.342 249.178 355.027" fill="none" stroke="red" stroke-linecap="round" stroke-linejoin="round" stroke-width="0.5669"/><rect x="223.84448" y="356.98535" width="19.36984" height="2.71408" rx="1.35704" fill="red"/><text transform="translate(226.07343 359.06129)" font-size="2.17128" fill="#fefefe" font-family="DINCond-Bold" font-weight="700">VLDO11_PMIC_0P75</text><path d="M109.56328,201.759a.95681.95681,0,1,1-.95681-.95785.95768.95768,0,0,1,.95681.95785" fill="red" fill-rule="evenodd"/><line x1="113.08406" y1="201.759" x2="108.60645" y2="201.759" fill="none" stroke="red" stroke-linecap="round" stroke-linejoin="round" stroke-width="0.5669"/><rect x="111.75713" y="200.40143" width="19.36984" height="2.71408" rx="1.35704" fill="red"/><text transform="translate(114.42163 202.47736)" font-size="2.17128" fill="#fefefe" font-family="DINCond-Bold" font-weight="700">VLDO29_PMIC_1P8</text><path d="M104.1833,201.758a.95681.95681,0,1,1,.95681.95785.95768.95768,0,0,1-.95681-.95785" fill="red" fill-rule="evenodd"/><line x1="100.66252" y1="201.75793" x2="105.14013" y2="201.75793" fill="none" stroke="red" stroke-linecap="round" stroke-linejoin="round" stroke-width="0.5669"/><rect x="82.61978" y="200.40143" width="19.36984" height="2.71408" rx="1.35704" transform="translate(184.60941 403.51694) rotate(180)" fill="red"/><text transform="translate(85.28406 202.4776)" font-size="2.17128" fill="#fefefe" font-family="DINCond-Bold" font-weight="700">VLDO28_PMIC_1P2</text><path d="M742.25188,374.96722a.95681.95681,0,1,1-.9568-.95785.95768.95768,0,0,1,.9568.95785" fill="red" fill-rule="evenodd"/><line x1="745.77266" y1="374.96725" x2="741.29506" y2="374.96725" fill="none" stroke="red" stroke-linecap="round" stroke-linejoin="round" stroke-width="0.5669"/><rect x="744.52178" y="373.60967" width="19.36984" height="2.71408" rx="1.35704" fill="red"/><text transform="translate(750.40678 375.6856)" font-size="2.17128" fill="#fefefe" font-family="DINCond-Bold" font-weight="700">VBAT_SYS</text><path d="M717.0321,349.41616a.95681.95681,0,1,1-.95681-.95786.95768.95768,0,0,1,.95681.95786" fill="red" fill-rule="evenodd"/><line x1="720.55288" y1="349.41618" x2="716.07528" y2="349.41618" fill="none" stroke="red" stroke-linecap="round" stroke-linejoin="round" stroke-width="0.5669"/><rect x="719.31591" y="348.0586" width="19.36984" height="2.71408" rx="1.35704" fill="red"/><text transform="translate(723.64666 350.13454)" font-size="2.17128" fill="#fefefe" font-family="DINCond-Bold" font-weight="700">VBUS_5V_OVP</text><path d="M650.76836,324.68963a.95681.95681,0,1,1-.9568-.95786.95768.95768,0,0,1,.9568.95786" fill="red" fill-rule="evenodd"/><line x1="654.28914" y1="324.68965" x2="649.81154" y2="324.68965" fill="none" stroke="red" stroke-linecap="round" stroke-linejoin="round" stroke-width="0.5669"/><rect x="652.81061" y="323.33207" width="19.36984" height="2.71408" rx="1.35704" fill="red"/><text transform="translate(655.91019 325.40801)" font-size="2.17128" fill="#fefefe" font-family="DINCond-Bold" font-weight="700">VLDO4_PMIC_0P6</text><path d="M737.99913,375.68612a.95681.95681,0,1,1-.9568-.95786.95768.95768,0,0,1,.9568.95786" fill="red" fill-rule="evenodd"/><polyline points="745.773 370.879 737.042 370.879 737.042 375.686" fill="none" stroke="red" stroke-linecap="round" stroke-linejoin="round" stroke-width="0.5669"/><rect x="744.52178" y="369.52176" width="19.36984" height="2.71408" rx="1.35704" fill="red"/><text transform="translate(749.99126 371.59769)" font-size="2.17128" fill="#fefefe" font-family="DINCond-Bold" font-weight="700">V_BATTERY</text><path d="M693.878,250.73213a.95681.95681,0,1,1,.95785-.95681.95769.95769,0,0,1-.95785.95681" fill="red" fill-rule="evenodd"/><polyline points="693.878 249.776 693.878 256.352 689.555 256.352" fill="none" stroke="red" stroke-linecap="round" stroke-linejoin="round" stroke-width="0.5669"/><rect x="671.73034" y="254.99427" width="19.36984" height="2.71408" rx="1.35704" fill="red"/><text transform="translate(674.39481 257.0702)" font-size="2.17128" fill="#fefefe" font-family="DINCond-Bold" font-weight="700">VLDO37_PMIC_3P3</text><path d="M646.33048,43a21.50121,21.50121,0,1,0-.4512-43H195.9007a21.50121,21.50121,0,1,0-.451,43Z" fill="#292c31"/><text transform="translate(305.30811 25.99414)" font-size="16" fill="#fff" font-family="DINCond-Bold" font-weight="700">SAMSUNG SM-A515 &gt; <tspan x="117.09989" y="0" font-size="14" letter-spacing="0.00007em">INPUT OUTPUT VOLTAGE</tspan></text></svg>