<svg xmlns="http://www.w3.org/2000/svg" viewBox="0 0 841.88976 595.27559"><title>Network_decrypted</title><path d="M817.91058,545.8956v.07a2.09021,2.09021,0,0,1-.01.25,49.3534,49.3534,0,0,1-6.6,24.37c-.0501.08-.09.16-.14.2399a2.11262,2.11262,0,0,1-.1601.25,49.36008,49.36008,0,0,1-42.4699,24.20006h-543.56v-98.76H768.76048a49.02034,49.02034,0,0,1,42.43,24.49l.06.11.0501.09c.03.05.06.11.0899.16A49.30181,49.30181,0,0,1,817.91058,545.8956Z" fill="#ced1d2"/><path d="M811.39048,521.3656H224.97059v-.25H811.25048l.0501.09C811.33058,521.2556,811.36058,521.3156,811.39048,521.3656Z" fill="#fff"/><path d="M817.91058,545.9656a2.09021,2.09021,0,0,1-.01.25h-592.93v-.25Z" fill="#fff"/><path d="M811.16058,570.8255a2.11262,2.11262,0,0,1-.1601.25H224.97059v-.25Z" fill="#fff"/><path d="M178.1362,496.5129H73.3585A49.37874,49.37874,0,0,0,30.595,521.2026h0a49.37886,49.37886,0,0,0,0,49.3789h0a49.37869,49.37869,0,0,0,42.7635,24.68967h151.611V496.5129Z" fill="#292c31"/><text transform="translate(36.08497 550.82764)" font-size="16.95848" fill="#fff" font-family="DINCond-Bold" font-weight="700">• ELECTRICAL COLOR LEGEND •</text><path d="M646.33048,43a21.50121,21.50121,0,1,0-.4512-43H195.9007a21.50121,21.50121,0,1,0-.451,43Z" fill="#292c31"/><text transform="translate(337.74023 25.99414)" font-size="16" fill="#fff" font-family="DINCond-Bold" font-weight="700">SAMSUNG SM-A515 &gt; <tspan x="117.10038" y="0" font-size="14">NETWORK</tspan></text><rect x="288.88005" y="247.07527" width="2.35822" height="1.59024" fill="#c8c8c8"/><rect x="288.88005" y="249.41016" width="2.35822" height="1.59024" fill="#c8c8c8"/><rect x="288.88005" y="252.05827" width="2.35822" height="1.59024" fill="#c8c8c8"/><rect x="288.88005" y="254.4208" width="2.35822" height="1.59024" fill="#c8c8c8"/><rect x="288.88005" y="256.9391" width="2.35822" height="1.59024" fill="#c8c8c8"/><rect x="288.88005" y="259.35355" width="2.35822" height="1.59024" fill="#c8c8c8"/><rect x="288.88005" y="261.94973" width="2.35822" height="1.59024" fill="#c8c8c8"/><rect x="288.88005" y="264.54592" width="2.35822" height="1.59024" fill="#c8c8c8"/><rect x="288.88005" y="266.96037" width="2.35822" height="1.59024" fill="#c8c8c8"/><rect x="288.88005" y="269.45271" width="2.35822" height="1.59024" fill="#c8c8c8"/><rect x="288.88005" y="271.97101" width="2.35822" height="1.59024" fill="#c8c8c8"/><rect x="288.88005" y="274.48931" width="2.35822" height="1.59024" fill="#c8c8c8"/><rect x="288.88005" y="276.90376" width="2.35822" height="1.59024" fill="#c8c8c8"/><rect x="288.88005" y="279.57783" width="2.35822" height="1.59024" fill="#c8c8c8"/><rect x="288.88005" y="281.86247" width="2.35822" height="1.59024" fill="#c8c8c8"/><rect x="311.82458" y="247.04763" width="2.35822" height="1.59024" fill="#c8c8c8"/><rect x="311.82458" y="249.41016" width="2.35822" height="1.59024" fill="#c8c8c8"/><rect x="311.82458" y="252.05827" width="2.35822" height="1.59024" fill="#c8c8c8"/><rect x="311.82458" y="254.4208" width="2.35822" height="1.59024" fill="#c8c8c8"/><rect x="311.82458" y="256.9391" width="2.35822" height="1.59024" fill="#c8c8c8"/><rect x="311.82458" y="259.35355" width="2.35822" height="1.59024" fill="#c8c8c8"/><rect x="311.82458" y="261.94973" width="2.35822" height="1.59024" fill="#c8c8c8"/><rect x="311.82458" y="264.54592" width="2.35822" height="1.59024" fill="#c8c8c8"/><rect x="311.82458" y="266.96037" width="2.35822" height="1.59024" fill="#c8c8c8"/><rect x="311.82458" y="269.45271" width="2.35822" height="1.59024" fill="#c8c8c8"/><rect x="311.82458" y="271.97101" width="2.35822" height="1.59024" fill="#c8c8c8"/><rect x="311.82458" y="274.48931" width="2.35822" height="1.59024" fill="#c8c8c8"/><rect x="311.82458" y="276.90376" width="2.35822" height="1.59024" fill="#c8c8c8"/><rect x="311.82458" y="279.57783" width="2.35822" height="1.59024" fill="#c8c8c8"/><rect x="311.82458" y="281.86247" width="2.35822" height="1.59024" fill="#c8c8c8"/><rect x="289.26404" y="284.04124" width="1.59024" height="2.35822" fill="#c8c8c8"/><rect x="291.93983" y="284.04124" width="1.59024" height="2.35822" fill="#c8c8c8"/><rect x="294.61573" y="284.04124" width="1.59024" height="2.35822" fill="#c8c8c8"/><rect x="297.13424" y="284.04124" width="1.59024" height="2.35822" fill="#c8c8c8"/><rect x="299.65274" y="284.04124" width="1.59024" height="2.35822" fill="#c8c8c8"/><rect x="302.01385" y="284.04124" width="1.59024" height="2.35822" fill="#c8c8c8"/><rect x="304.52423" y="284.04124" width="1.59024" height="2.35822" fill="#c8c8c8"/><rect x="307.02463" y="284.04124" width="1.59024" height="2.35822" fill="#c8c8c8"/><rect x="309.5855" y="284.04124" width="1.59024" height="2.35822" fill="#c8c8c8"/><rect x="312.20857" y="284.04124" width="1.59024" height="2.35822" fill="#c8c8c8"/><rect x="289.26404" y="243.97241" width="1.59024" height="2.35822" fill="#c8c8c8"/><rect x="291.93983" y="243.97241" width="1.59024" height="2.35822" fill="#c8c8c8"/><rect x="294.61573" y="243.97241" width="1.59024" height="2.35822" fill="#c8c8c8"/><rect x="297.13424" y="243.97241" width="1.59024" height="2.35822" fill="#c8c8c8"/><rect x="299.65274" y="243.97241" width="1.59024" height="2.35822" fill="#c8c8c8"/><rect x="302.01385" y="243.97241" width="1.59024" height="2.35822" fill="#c8c8c8"/><rect x="304.52423" y="243.97241" width="1.59024" height="2.35822" fill="#c8c8c8"/><rect x="307.02463" y="243.97241" width="1.59024" height="2.35822" fill="#c8c8c8"/><rect x="309.5855" y="243.97241" width="1.59024" height="2.35822" fill="#c8c8c8"/><rect x="312.20857" y="243.97241" width="1.59024" height="2.35822" fill="#c8c8c8"/><rect x="357.36096" y="308.18881" width="3.2879" height="1.49139" fill="#c8c8c8"/><rect x="357.36096" y="305.20617" width="3.2879" height="1.49103" fill="#c8c8c8"/><rect x="357.36096" y="302.22277" width="3.2879" height="1.49142" fill="#c8c8c8"/><rect x="357.36096" y="299.24081" width="3.2879" height="1.49139" fill="#c8c8c8"/><rect x="357.36096" y="296.25781" width="3.2879" height="1.49139" fill="#c8c8c8"/><rect x="357.36096" y="293.27441" width="3.2879" height="1.49179" fill="#c8c8c8"/><rect x="357.36096" y="289.81799" width="3.2879" height="1.96521" fill="#c8c8c8"/><rect x="357.36096" y="286.8352" width="3.2879" height="1.491" fill="#c8c8c8"/><rect x="357.36096" y="283.85141" width="3.28827" height="1.49179" fill="#c8c8c8"/><rect x="357.36096" y="280.8692" width="3.28827" height="1.49103" fill="#c8c8c8"/><rect x="357.36096" y="277.88641" width="3.28827" height="1.49179" fill="#c8c8c8"/><rect x="357.36096" y="274.90319" width="3.28827" height="1.491" fill="#c8c8c8"/><rect x="357.36096" y="271.92077" width="3.28827" height="1.49142" fill="#c8c8c8"/><rect x="357.36096" y="268.46359" width="3.28827" height="1.96561" fill="#c8c8c8"/><rect x="354.008" y="267.80725" width="1.44727" height="3.12695" fill="#c8c8c8"/><rect x="351.11493" y="267.80725" width="1.44611" height="3.12695" fill="#c8c8c8"/><rect x="348.22095" y="267.80725" width="1.44727" height="3.12695" fill="#c8c8c8"/><rect x="345.32898" y="267.80725" width="1.44611" height="3.12695" fill="#c8c8c8"/><rect x="342.435" y="267.80725" width="1.44604" height="3.12695" fill="#c8c8c8"/><rect x="339.54193" y="267.80725" width="1.44653" height="3.12695" fill="#c8c8c8"/><polyline points="340.988 310.336 340.988 307.209 339.542 307.209 339.542 310.336" fill="#c8c8c8"/><rect x="342.435" y="307.20846" width="1.44604" height="3.12773" fill="#c8c8c8"/><rect x="345.328" y="307.20846" width="1.44647" height="3.12773" fill="#c8c8c8"/><rect x="348.22095" y="307.20846" width="1.4469" height="3.12773" fill="#c8c8c8"/><rect x="351.11493" y="307.20846" width="1.44611" height="3.12773" fill="#c8c8c8"/><rect x="354.008" y="307.20846" width="1.44727" height="3.12773" fill="#c8c8c8"/><rect x="334.80798" y="308.18881" width="3.2879" height="1.49139" fill="#c8c8c8"/><rect x="334.80798" y="305.20617" width="3.2879" height="1.49103" fill="#c8c8c8"/><rect x="334.80798" y="302.22277" width="3.2879" height="1.49142" fill="#c8c8c8"/><rect x="334.80798" y="299.24081" width="3.2879" height="1.49139" fill="#c8c8c8"/><rect x="334.80798" y="296.25781" width="3.2879" height="1.49139" fill="#c8c8c8"/><rect x="334.80798" y="293.27441" width="3.2879" height="1.49179" fill="#c8c8c8"/><rect x="334.80798" y="289.81799" width="3.2879" height="1.96521" fill="#c8c8c8"/><rect x="334.80798" y="286.8352" width="3.2879" height="1.491" fill="#c8c8c8"/><rect x="334.80798" y="283.85141" width="3.28827" height="1.49179" fill="#c8c8c8"/><rect x="334.80798" y="280.8692" width="3.28827" height="1.49103" fill="#c8c8c8"/><rect x="334.80798" y="277.88641" width="3.28827" height="1.49179" fill="#c8c8c8"/><rect x="334.80798" y="274.90319" width="3.28827" height="1.491" fill="#c8c8c8"/><rect x="334.80798" y="271.92077" width="3.28827" height="1.49142" fill="#c8c8c8"/><rect x="334.80798" y="268.46359" width="3.28827" height="1.96561" fill="#c8c8c8"/><circle cx="234.44081" cy="534.34354" r="6.21332" fill="#00ff97"/><circle cx="234.44081" cy="508.79656" r="6.21332" fill="#00e1ff"/><circle cx="234.44081" cy="559.21998" r="6.21332" fill="#00ffe6"/><circle cx="234.44081" cy="582.39753" r="6.21332" fill="#daff00"/><text transform="translate(241.85195 512.04663)" font-size="8" fill="#231f20" font-family="DINCond-Bold" font-weight="700">TX_PA_OUT_GSMLB</text><text transform="translate(241.85195 537.38685)" font-size="8" fill="#231f20" font-family="DINCond-Bold" font-weight="700">TX_PA_OUT_GSMHB</text><text transform="translate(241.85195 562.52884)" font-size="8" fill="#231f20" font-family="DINCond-Bold" font-weight="700">TX_PA_OUT_B1</text><text transform="translate(241.85195 586.78864)" font-size="8" fill="#231f20" font-family="DINCond-Bold" font-weight="700">TX_TR_OUT_B1_2_3_4_66</text><circle cx="333.18126" cy="534.34354" r="6.21332" fill="#7dff00"/><circle cx="333.18126" cy="508.79656" r="6.21332" fill="#00ff42"/><circle cx="333.18126" cy="559.21998" r="6.21332" fill="#c10c0c"/><circle cx="333.18126" cy="582.39753" r="6.21332" fill="#ff5f5f"/><text transform="translate(340.5924 512.04663)" font-size="8" fill="#231f20" font-family="DINCond-Bold" font-weight="700">PRX_ANT_LB</text><text transform="translate(340.5924 537.38685)" font-size="8" fill="#231f20" font-family="DINCond-Bold" font-weight="700">PRX_TR_IN_B1</text><text transform="translate(340.5924 562.52884)" font-size="8" fill="#231f20" font-family="DINCond-Bold" font-weight="700">VBATT_SYS</text><text transform="translate(340.5924 586.78864)" font-size="8" fill="#231f20" font-family="DINCond-Bold" font-weight="700">VLDO20_PMIC_1P8</text><circle cx="411.92009" cy="534.34354" r="6.21332" fill="#ff0043"/><circle cx="411.92009" cy="508.79656" r="6.21332" fill="red"/><circle cx="492.49118" cy="509.35414" r="6.21332" fill="#ff2952"/><circle cx="492.49118" cy="532.53169" r="6.21332" fill="#ef2966"/><text transform="translate(419.33122 512.04663)" font-size="8" fill="#231f20" font-family="DINCond-Bold" font-weight="700">VLDO23_PMIC_1P2</text><text transform="translate(419.33122 537.38685)" font-size="8" fill="#231f20" font-family="DINCond-Bold" font-weight="700">VLDO24_PMIC_1P8</text><text transform="translate(499.9023 512.663)" font-size="8" fill="#231f20" font-family="DINCond-Bold" font-weight="700">VFR_FEM_2P8/VLDO25_PMIC_2P8</text><text transform="translate(499.9023 536.92279)" font-size="8" fill="#231f20" font-family="DINCond-Bold" font-weight="700">VDD_1P8_CP/VFR_MIPI_1P8/VLD03_PMIC_1P8</text><circle cx="411.32106" cy="582.67102" r="6.21332" fill="#e52991"/><circle cx="411.32106" cy="558.12922" r="6.21332" fill="#ff0080"/><text transform="translate(418.73218 561.3793)" font-size="8" fill="#231f20" font-family="DINCond-Bold" font-weight="700">VLDO26_PMIC_1P1</text><text transform="translate(418.73218 585.71433)" font-size="8" fill="#231f20" font-family="DINCond-Bold" font-weight="700">VLDO22_PMIC_1P2</text><path d="M192.01278,349.52923a.9145.9145,0,1,1-.914.914.91353.91353,0,0,1,.914-.914" fill="#c8c8c8"/><path d="M192.01278,346.96922a.914.914,0,1,1-.914.914.91352.91352,0,0,1,.914-.914" fill="#c8c8c8"/><path d="M192.01278,344.40823a.914.914,0,1,1-.914.913.91331.91331,0,0,1,.914-.913" fill="#c8c8c8"/><path d="M192.01278,341.84622a.91451.91451,0,1,1-.914.915.91374.91374,0,0,1,.914-.915" fill="#c8c8c8"/><path d="M192.01278,339.28523a.914.914,0,1,1-.914.914.91351.91351,0,0,1,.914-.914" fill="#c8c8c8"/><path d="M192.01278,336.72423a.91451.91451,0,1,1-.914.914.91352.91352,0,0,1,.914-.914" fill="#c8c8c8"/><path d="M192.01278,334.16225a.9145.9145,0,1,1-.914.915.91434.91434,0,0,1,.914-.915" fill="#c8c8c8"/><path d="M192.01278,331.60223a.914.914,0,1,1-.914.914.91352.91352,0,0,1,.914-.914" fill="#c8c8c8"/><path d="M192.01278,329.04024a.91449.91449,0,1,1-.914.915.91372.91372,0,0,1,.914-.915" fill="#c8c8c8"/><path d="M192.01278,326.48024a.914.914,0,1,1-.914.914.91351.91351,0,0,1,.914-.914" fill="#c8c8c8"/><path d="M194.57381,349.52923a.9145.9145,0,1,1-.915.914.91374.91374,0,0,1,.915-.914" fill="#c8c8c8"/><path d="M194.57381,346.96922a.914.914,0,1,1-.915.914.91373.91373,0,0,1,.915-.914" fill="#c8c8c8"/><path d="M194.57381,344.40823a.914.914,0,1,1-.915.913.91352.91352,0,0,1,.915-.913" fill="#c8c8c8"/><path d="M194.57381,341.84622a.91451.91451,0,1,1-.915.915.91395.91395,0,0,1,.915-.915" fill="#c8c8c8"/><path d="M194.57381,339.28523a.914.914,0,1,1-.915.914.91372.91372,0,0,1,.915-.914" fill="#c8c8c8"/><path d="M194.57381,336.72423a.91451.91451,0,1,1-.915.914.91373.91373,0,0,1,.915-.914" fill="#c8c8c8"/><path d="M194.57381,334.16225a.9145.9145,0,1,1-.915.915.91455.91455,0,0,1,.915-.915" fill="#c8c8c8"/><path d="M194.57381,331.60223a.914.914,0,1,1-.915.914.91373.91373,0,0,1,.915-.914" fill="#c8c8c8"/><path d="M194.57381,329.04024a.91449.91449,0,1,1-.915.915.91393.91393,0,0,1,.915-.915" fill="#c8c8c8"/><path d="M194.57381,326.48024a.914.914,0,1,1-.915.914.91372.91372,0,0,1,.915-.914" fill="#c8c8c8"/><path d="M192.01278,323.91824a.91449.91449,0,1,1-.914.914.9135.9135,0,0,1,.914-.914" fill="#c8c8c8"/><path d="M194.57381,323.91824a.91449.91449,0,1,1-.915.914.91371.91371,0,0,1,.915-.914" fill="#c8c8c8"/><path d="M192.01278,321.35724a.9145.9145,0,1,1-.914.915.91437.91437,0,0,1,.914-.915" fill="#c8c8c8"/><path d="M194.57381,321.35724a.9145.9145,0,1,1-.915.915.91457.91457,0,0,1,.915-.915" fill="#c8c8c8"/><path d="M192.01278,318.79622a.914.914,0,1,1-.914.914.91352.91352,0,0,1,.914-.914" fill="#c8c8c8"/><path d="M194.57381,318.79622a.914.914,0,1,1-.915.914.91373.91373,0,0,1,.915-.914" fill="#c8c8c8"/><path d="M192.01278,316.23524a.914.914,0,1,1-.914.914.91288.91288,0,0,1,.914-.914" fill="#c8c8c8"/><path d="M194.57381,316.23524a.914.914,0,1,1-.915.914.91309.91309,0,0,1,.915-.914" fill="#c8c8c8"/><path d="M197.13381,349.52923a.9145.9145,0,1,1-.914.914.914.914,0,0,1,.914-.914" fill="#c8c8c8"/><path d="M197.13381,346.96922a.914.914,0,1,1-.914.914.91395.91395,0,0,1,.914-.914" fill="#c8c8c8"/><path d="M197.13381,344.40823a.914.914,0,1,1-.914.913.91373.91373,0,0,1,.914-.913" fill="#c8c8c8"/><path d="M197.13381,341.84622a.91451.91451,0,1,1-.914.915.91416.91416,0,0,1,.914-.915" fill="#c8c8c8"/><path d="M197.13381,339.28523a.914.914,0,1,1-.914.914.91394.91394,0,0,1,.914-.914" fill="#c8c8c8"/><path d="M197.13381,336.72423a.91451.91451,0,1,1-.914.914.91395.91395,0,0,1,.914-.914" fill="#c8c8c8"/><path d="M197.13381,334.16225a.9145.9145,0,1,1-.914.915.91477.91477,0,0,1,.914-.915" fill="#c8c8c8"/><path d="M197.13381,331.60223a.914.914,0,1,1-.914.914.91395.91395,0,0,1,.914-.914" fill="#c8c8c8"/><path d="M197.13381,329.04024a.91449.91449,0,1,1-.914.915.91414.91414,0,0,1,.914-.915" fill="#c8c8c8"/><path d="M197.13381,326.48024a.914.914,0,1,1-.914.914.91393.91393,0,0,1,.914-.914" fill="#c8c8c8"/><path d="M197.13381,323.91824a.91449.91449,0,1,1-.914.914.91392.91392,0,0,1,.914-.914" fill="#c8c8c8"/><path d="M197.13381,321.35724a.9145.9145,0,1,1-.914.915.91479.91479,0,0,1,.914-.915" fill="#c8c8c8"/><path d="M197.13381,318.79622a.914.914,0,1,1-.914.914.91395.91395,0,0,1,.914-.914" fill="#c8c8c8"/><path d="M197.13381,316.23524a.914.914,0,1,1-.914.914.91331.91331,0,0,1,.914-.914" fill="#c8c8c8"/><path d="M199.69582,349.52923a.9145.9145,0,1,1-.914.914.91378.91378,0,0,1,.914-.914" fill="#c8c8c8"/><path d="M199.69582,346.96922a.914.914,0,1,1-.914.914.91377.91377,0,0,1,.914-.914" fill="#c8c8c8"/><path d="M199.69582,344.40823a.914.914,0,1,1-.914.913.91355.91355,0,0,1,.914-.913" fill="#c8c8c8"/><path d="M199.69582,341.84622a.91451.91451,0,1,1-.914.915.914.914,0,0,1,.914-.915" fill="#c8c8c8"/><path d="M199.69582,339.28523a.914.914,0,1,1-.914.914.91376.91376,0,0,1,.914-.914" fill="#c8c8c8"/><path d="M199.69582,336.72423a.91451.91451,0,1,1-.914.914.91377.91377,0,0,1,.914-.914" fill="#c8c8c8"/><path d="M199.69582,334.16225a.9145.9145,0,1,1-.914.915.91459.91459,0,0,1,.914-.915" fill="#c8c8c8"/><path d="M199.69582,331.60223a.914.914,0,1,1-.914.914.91377.91377,0,0,1,.914-.914" fill="#c8c8c8"/><path d="M199.69582,329.04024a.91449.91449,0,1,1-.914.915.914.914,0,0,1,.914-.915" fill="#c8c8c8"/><path d="M199.69582,326.48024a.914.914,0,1,1-.914.914.91376.91376,0,0,1,.914-.914" fill="#c8c8c8"/><path d="M199.69582,323.91824a.91449.91449,0,1,1-.914.914.91375.91375,0,0,1,.914-.914" fill="#c8c8c8"/><path d="M199.69582,321.35724a.9145.9145,0,1,1-.914.915.91461.91461,0,0,1,.914-.915" fill="#c8c8c8"/><path d="M199.69582,318.79622a.914.914,0,1,1-.914.914.91377.91377,0,0,1,.914-.914" fill="#c8c8c8"/><path d="M199.69582,316.23524a.914.914,0,1,1-.914.914.91313.91313,0,0,1,.914-.914" fill="#c8c8c8"/><path d="M202.2568,349.52923a.9145.9145,0,1,1-.914.914.91395.91395,0,0,1,.914-.914" fill="#c8c8c8"/><path d="M202.2568,346.96922a.914.914,0,1,1-.914.914.91394.91394,0,0,1,.914-.914" fill="#c8c8c8"/><path d="M202.2568,344.40823a.914.914,0,1,1-.914.913.91372.91372,0,0,1,.914-.913" fill="#c8c8c8"/><path d="M202.2568,341.84622a.91451.91451,0,1,1-.914.915.91415.91415,0,0,1,.914-.915" fill="#c8c8c8"/><path d="M202.2568,339.28523a.914.914,0,1,1-.914.914.91393.91393,0,0,1,.914-.914" fill="#c8c8c8"/><path d="M202.2568,336.72423a.91451.91451,0,1,1-.914.914.91394.91394,0,0,1,.914-.914" fill="#c8c8c8"/><path d="M202.2568,334.16225a.9145.9145,0,1,1-.914.915.91476.91476,0,0,1,.914-.915" fill="#c8c8c8"/><path d="M202.2568,331.60223a.914.914,0,1,1-.914.914.91394.91394,0,0,1,.914-.914" fill="#c8c8c8"/><path d="M202.2568,329.04024a.91449.91449,0,1,1-.914.915.91414.91414,0,0,1,.914-.915" fill="#c8c8c8"/><path d="M202.2568,326.48024a.914.914,0,1,1-.914.914.91393.91393,0,0,1,.914-.914" fill="#c8c8c8"/><path d="M202.2568,323.91824a.91449.91449,0,1,1-.914.914.91392.91392,0,0,1,.914-.914" fill="#c8c8c8"/><path d="M202.2568,321.35724a.9145.9145,0,1,1-.914.915.91478.91478,0,0,1,.914-.915" fill="#c8c8c8"/><path d="M202.2568,318.79622a.914.914,0,1,1-.914.914.91394.91394,0,0,1,.914-.914" fill="#c8c8c8"/><path d="M202.2568,316.23524a.914.914,0,1,1-.914.914.9133.9133,0,0,1,.914-.914" fill="#c8c8c8"/><path d="M204.81777,349.52923a.9145.9145,0,1,1-.91394.914.91459.91459,0,0,1,.91394-.914" fill="#c8c8c8"/><path d="M204.81777,346.96922a.914.914,0,1,1-.91394.914.91458.91458,0,0,1,.91394-.914" fill="#c8c8c8"/><path d="M204.81777,344.40823a.914.914,0,1,1-.91394.913.91437.91437,0,0,1,.91394-.913" fill="#c8c8c8"/><path d="M204.81777,341.84622a.91451.91451,0,1,1-.91394.915.9148.9148,0,0,1,.91394-.915" fill="#c8c8c8"/><path d="M204.81777,334.16225a.9145.9145,0,1,1-.91394.915.9154.9154,0,0,1,.91394-.915" fill="#c8c8c8"/><path d="M204.81777,321.35724a.9145.9145,0,1,1-.91394.915.91542.91542,0,0,1,.91394-.915" fill="#c8c8c8"/><path d="M204.81777,318.79622a.914.914,0,1,1-.91394.914.91458.91458,0,0,1,.91394-.914" fill="#c8c8c8"/><path d="M204.81777,316.23524a.914.914,0,1,1-.91394.914.91394.91394,0,0,1,.91394-.914" fill="#c8c8c8"/><path d="M207.37978,349.52923a.9145.9145,0,1,1-.914.914.9137.9137,0,0,1,.914-.914" fill="#c8c8c8"/><path d="M207.37978,346.96922a.914.914,0,1,1-.914.914.91369.91369,0,0,1,.914-.914" fill="#c8c8c8"/><path d="M207.37978,344.40823a.914.914,0,1,1-.914.913.91348.91348,0,0,1,.914-.913" fill="#c8c8c8"/><path d="M207.37978,341.84622a.91451.91451,0,1,1-.914.915.91391.91391,0,0,1,.914-.915" fill="#c8c8c8"/><path d="M207.37978,339.28523a.914.914,0,1,1-.914.914.91368.91368,0,0,1,.914-.914" fill="#c8c8c8"/><path d="M207.37978,336.72423a.91451.91451,0,1,1-.914.914.91369.91369,0,0,1,.914-.914" fill="#c8c8c8"/><path d="M207.37978,331.60223a.914.914,0,1,1-.914.914.91369.91369,0,0,1,.914-.914" fill="#c8c8c8"/><path d="M207.37978,329.04024a.91449.91449,0,1,1-.914.915.91389.91389,0,0,1,.914-.915" fill="#c8c8c8"/><path d="M207.37978,326.48024a.914.914,0,1,1-.914.914.91368.91368,0,0,1,.914-.914" fill="#c8c8c8"/><path d="M207.37978,323.91824a.91449.91449,0,1,1-.914.914.91367.91367,0,0,1,.914-.914" fill="#c8c8c8"/><path d="M207.37978,321.35724a.9145.9145,0,1,1-.914.915.91454.91454,0,0,1,.914-.915" fill="#c8c8c8"/><path d="M207.37978,318.79622a.914.914,0,1,1-.914.914.91369.91369,0,0,1,.914-.914" fill="#c8c8c8"/><path d="M207.37978,316.23524a.914.914,0,1,1-.914.914.913.913,0,0,1,.914-.914" fill="#c8c8c8"/><path d="M209.94076,349.52923a.9145.9145,0,1,1-.915.914.91376.91376,0,0,1,.915-.914" fill="#c8c8c8"/><path d="M209.94076,346.96922a.914.914,0,1,1-.915.914.91375.91375,0,0,1,.915-.914" fill="#c8c8c8"/><path d="M209.94076,344.40823a.914.914,0,1,1-.915.913.91354.91354,0,0,1,.915-.913" fill="#c8c8c8"/><path d="M209.94076,341.84622a.91451.91451,0,1,1-.915.915.914.914,0,0,1,.915-.915" fill="#c8c8c8"/><path d="M209.94076,339.28523a.914.914,0,1,1-.915.914.91374.91374,0,0,1,.915-.914" fill="#c8c8c8"/><path d="M209.94076,336.72423a.91451.91451,0,1,1-.915.914.91375.91375,0,0,1,.915-.914" fill="#c8c8c8"/><path d="M209.94076,334.16225a.9145.9145,0,1,1-.915.915.91457.91457,0,0,1,.915-.915" fill="#c8c8c8"/><path d="M209.94076,331.60223a.914.914,0,1,1-.915.914.91375.91375,0,0,1,.915-.914" fill="#c8c8c8"/><path d="M209.94076,329.04024a.91449.91449,0,1,1-.915.915.91395.91395,0,0,1,.915-.915" fill="#c8c8c8"/><path d="M209.94076,326.48024a.914.914,0,1,1-.915.914.91374.91374,0,0,1,.915-.914" fill="#c8c8c8"/><path d="M209.94076,323.91824a.91449.91449,0,1,1-.915.914.91373.91373,0,0,1,.915-.914" fill="#c8c8c8"/><path d="M209.94076,321.35724a.9145.9145,0,1,1-.915.915.91459.91459,0,0,1,.915-.915" fill="#c8c8c8"/><path d="M209.94076,318.79622a.914.914,0,1,1-.915.914.91375.91375,0,0,1,.915-.914" fill="#c8c8c8"/><path d="M209.94076,316.23524a.914.914,0,1,1-.915.914.91311.91311,0,0,1,.915-.914" fill="#c8c8c8"/><path d="M212.50179,349.52923a.9145.9145,0,1,1-.914.914.91374.91374,0,0,1,.914-.914" fill="#c8c8c8"/><path d="M212.50179,346.96922a.914.914,0,1,1-.914.914.91373.91373,0,0,1,.914-.914" fill="#c8c8c8"/><path d="M212.50179,344.40823a.914.914,0,1,1-.914.913.91352.91352,0,0,1,.914-.913" fill="#c8c8c8"/><path d="M212.50179,341.84622a.91451.91451,0,1,1-.914.915.91395.91395,0,0,1,.914-.915" fill="#c8c8c8"/><path d="M212.50179,339.28523a.914.914,0,1,1-.914.914.91372.91372,0,0,1,.914-.914" fill="#c8c8c8"/><path d="M212.50179,336.72423a.91451.91451,0,1,1-.914.914.91373.91373,0,0,1,.914-.914" fill="#c8c8c8"/><path d="M212.50179,334.16225a.9145.9145,0,1,1-.914.915.91455.91455,0,0,1,.914-.915" fill="#c8c8c8"/><path d="M212.50179,331.60223a.914.914,0,1,1-.914.914.91373.91373,0,0,1,.914-.914" fill="#c8c8c8"/><path d="M212.50179,329.04024a.91449.91449,0,1,1-.914.915.91393.91393,0,0,1,.914-.915" fill="#c8c8c8"/><path d="M212.50179,326.48024a.914.914,0,1,1-.914.914.91372.91372,0,0,1,.914-.914" fill="#c8c8c8"/><path d="M212.50179,323.91824a.91449.91449,0,1,1-.914.914.91371.91371,0,0,1,.914-.914" fill="#c8c8c8"/><path d="M212.50179,321.35724a.9145.9145,0,1,1-.914.915.91457.91457,0,0,1,.914-.915" fill="#c8c8c8"/><path d="M212.50179,318.79622a.914.914,0,1,1-.914.914.91373.91373,0,0,1,.914-.914" fill="#c8c8c8"/><path d="M212.50179,316.23524a.914.914,0,1,1-.914.914.91309.91309,0,0,1,.914-.914" fill="#c8c8c8"/><path d="M215.06283,349.52923a.9145.9145,0,1,1-.915.914.91378.91378,0,0,1,.915-.914" fill="#c8c8c8"/><path d="M215.06283,346.96922a.914.914,0,1,1-.915.914.91378.91378,0,0,1,.915-.914" fill="#c8c8c8"/><path d="M215.06283,344.40823a.914.914,0,1,1-.915.913.91356.91356,0,0,1,.915-.913" fill="#c8c8c8"/><path d="M215.06283,341.84622a.91451.91451,0,1,1-.915.915.914.914,0,0,1,.915-.915" fill="#c8c8c8"/><path d="M215.06283,339.28523a.914.914,0,1,1-.915.914.91377.91377,0,0,1,.915-.914" fill="#c8c8c8"/><path d="M215.06283,336.72423a.91451.91451,0,1,1-.915.914.91378.91378,0,0,1,.915-.914" fill="#c8c8c8"/><path d="M215.06283,334.16225a.9145.9145,0,1,1-.915.915.9146.9146,0,0,1,.915-.915" fill="#c8c8c8"/><path d="M215.06283,329.04024a.91449.91449,0,1,1-.915.915.914.914,0,0,1,.915-.915" fill="#c8c8c8"/><path d="M215.06283,326.48024a.914.914,0,1,1-.915.914.91376.91376,0,0,1,.915-.914" fill="#c8c8c8"/><path d="M215.06283,321.35724a.9145.9145,0,1,1-.915.915.91462.91462,0,0,1,.915-.915" fill="#c8c8c8"/><path d="M215.06283,318.79622a.914.914,0,1,1-.915.914.91378.91378,0,0,1,.915-.914" fill="#c8c8c8"/><path d="M215.06283,316.23524a.914.914,0,1,1-.915.914.91313.91313,0,0,1,.915-.914" fill="#c8c8c8"/><path d="M217.6238,349.52923a.9145.9145,0,1,1-.914.914.914.914,0,0,1,.914-.914" fill="#c8c8c8"/><path d="M217.6238,346.96922a.914.914,0,1,1-.914.914.91395.91395,0,0,1,.914-.914" fill="#c8c8c8"/><path d="M217.6238,344.40823a.914.914,0,1,1-.914.913.91373.91373,0,0,1,.914-.913" fill="#c8c8c8"/><path d="M217.6238,341.84622a.91451.91451,0,1,1-.914.915.91416.91416,0,0,1,.914-.915" fill="#c8c8c8"/><path d="M217.6238,339.28523a.914.914,0,1,1-.914.914.91394.91394,0,0,1,.914-.914" fill="#c8c8c8"/><path d="M217.6238,336.72423a.91451.91451,0,1,1-.914.914.91395.91395,0,0,1,.914-.914" fill="#c8c8c8"/><path d="M217.6238,334.16225a.9145.9145,0,1,1-.914.915.91477.91477,0,0,1,.914-.915" fill="#c8c8c8"/><path d="M217.6238,331.60223a.914.914,0,1,1-.914.914.91395.91395,0,0,1,.914-.914" fill="#c8c8c8"/><path d="M217.6238,329.04024a.91449.91449,0,1,1-.914.915.91414.91414,0,0,1,.914-.915" fill="#c8c8c8"/><path d="M217.6238,326.48024a.914.914,0,1,1-.914.914.91393.91393,0,0,1,.914-.914" fill="#c8c8c8"/><path d="M217.6238,323.91824a.91449.91449,0,1,1-.914.914.91392.91392,0,0,1,.914-.914" fill="#c8c8c8"/><path d="M217.6238,321.35724a.9145.9145,0,1,1-.914.915.91479.91479,0,0,1,.914-.915" fill="#c8c8c8"/><path d="M217.6238,318.79622a.914.914,0,1,1-.914.914.91395.91395,0,0,1,.914-.914" fill="#c8c8c8"/><path d="M217.6238,316.23524a.914.914,0,1,1-.914.914.91331.91331,0,0,1,.914-.914" fill="#c8c8c8"/><path d="M220.18484,349.52923a.9145.9145,0,1,1-.914.914.91373.91373,0,0,1,.914-.914" fill="#c8c8c8"/><path d="M220.18484,346.96922a.914.914,0,1,1-.914.914.91373.91373,0,0,1,.914-.914" fill="#c8c8c8"/><path d="M220.18484,344.40823a.914.914,0,1,1-.914.913.91351.91351,0,0,1,.914-.913" fill="#c8c8c8"/><path d="M220.18484,341.84622a.91451.91451,0,1,1-.914.915.91394.91394,0,0,1,.914-.915" fill="#c8c8c8"/><path d="M220.18484,339.28523a.914.914,0,1,1-.914.914.91372.91372,0,0,1,.914-.914" fill="#c8c8c8"/><path d="M220.18484,336.72423a.91451.91451,0,1,1-.914.914.91372.91372,0,0,1,.914-.914" fill="#c8c8c8"/><path d="M220.18484,334.16225a.9145.9145,0,1,1-.914.915.91454.91454,0,0,1,.914-.915" fill="#c8c8c8"/><path d="M220.18484,331.60223a.914.914,0,1,1-.914.914.91373.91373,0,0,1,.914-.914" fill="#c8c8c8"/><path d="M220.18484,329.04024a.91449.91449,0,1,1-.914.915.91392.91392,0,0,1,.914-.915" fill="#c8c8c8"/><path d="M220.18484,326.48024a.914.914,0,1,1-.914.914.91371.91371,0,0,1,.914-.914" fill="#c8c8c8"/><path d="M220.18484,323.91824a.91449.91449,0,1,1-.914.914.9137.9137,0,0,1,.914-.914" fill="#c8c8c8"/><path d="M220.18484,321.35724a.9145.9145,0,1,1-.914.915.91457.91457,0,0,1,.914-.915" fill="#c8c8c8"/><path d="M220.18484,318.79622a.914.914,0,1,1-.914.914.91372.91372,0,0,1,.914-.914" fill="#c8c8c8"/><path d="M220.18484,316.23524a.914.914,0,1,1-.914.914.91308.91308,0,0,1,.914-.914" fill="#c8c8c8"/><path d="M711.91842,361.72375a.9185.9185,0,1,1-.919.918.918.918,0,0,1,.919-.918" fill="#c8c8c8"/><path d="M726.43643,380.65075a.9185.9185,0,1,1,.918.92.918.918,0,0,1-.918-.92" fill="#c8c8c8"/><path d="M729.00842,380.65075a.919.919,0,1,1,.92.92.91843.91843,0,0,1-.92-.92" fill="#c8c8c8"/><path d="M723.86343,380.65075a.91851.91851,0,1,1,.919.92.91821.91821,0,0,1-.919-.92" fill="#c8c8c8"/><path d="M721.29141,380.65075a.9185.9185,0,1,1,.918.92.918.918,0,0,1-.918-.92" fill="#c8c8c8"/><path d="M718.71743,380.65075a.91849.91849,0,1,1,.919.92.91819.91819,0,0,1-.919-.92" fill="#c8c8c8"/><path d="M716.14444,380.65075a.919.919,0,1,1,.919.92.91819.91819,0,0,1-.919-.92" fill="#c8c8c8"/><path d="M713.57241,380.65075a.91851.91851,0,1,1,.918.92.918.918,0,0,1-.918-.92" fill="#c8c8c8"/><path d="M710.99942,380.65075a.9185.9185,0,1,1,.919.92.91822.91822,0,0,1-.919-.92" fill="#c8c8c8"/><path d="M708.42642,380.65075a.9185.9185,0,1,1,.918.92.918.918,0,0,1-.918-.92" fill="#c8c8c8"/><path d="M731.58242,380.65075a.91851.91851,0,1,1,.919.92.91822.91822,0,0,1-.919-.92" fill="#c8c8c8"/><path d="M729.00842,378.07875a.919.919,0,1,1,.92.918.91863.91863,0,0,1-.92-.918" fill="#c8c8c8"/><path d="M726.43643,378.07875a.9185.9185,0,1,1,.918.918.9182.9182,0,0,1-.918-.918" fill="#c8c8c8"/><path d="M723.86343,378.07875a.91851.91851,0,1,1,.919.918.91842.91842,0,0,1-.919-.918" fill="#c8c8c8"/><path d="M721.29141,378.07875a.9185.9185,0,1,1,.918.918.91821.91821,0,0,1-.918-.918" fill="#c8c8c8"/><path d="M718.71743,378.07875a.91849.91849,0,1,1,.919.918.9184.9184,0,0,1-.919-.918" fill="#c8c8c8"/><path d="M716.14444,378.07875a.919.919,0,1,1,.919.918.9184.9184,0,0,1-.919-.918" fill="#c8c8c8"/><path d="M713.57241,378.07875a.91851.91851,0,1,1,.918.918.91821.91821,0,0,1-.918-.918" fill="#c8c8c8"/><path d="M710.99942,378.07875a.9185.9185,0,1,1,.919.918.91842.91842,0,0,1-.919-.918" fill="#c8c8c8"/><path d="M731.58242,378.07875a.91851.91851,0,1,1,.919.918.91842.91842,0,0,1-.919-.918" fill="#c8c8c8"/><path d="M729.00842,375.50575a.919.919,0,1,1,.92.919.91843.91843,0,0,1-.92-.919" fill="#c8c8c8"/><path d="M723.86343,375.50575a.91851.91851,0,1,1,.919.919.91822.91822,0,0,1-.919-.919" fill="#c8c8c8"/><path d="M726.43643,375.50575a.9185.9185,0,1,1,.918.919.918.918,0,0,1-.918-.919" fill="#c8c8c8"/><path d="M721.29141,375.50575a.9185.9185,0,1,1,.918.919.918.918,0,0,1-.918-.919" fill="#c8c8c8"/><path d="M718.71743,375.50575a.91849.91849,0,1,1,.919.919.9182.9182,0,0,1-.919-.919" fill="#c8c8c8"/><path d="M716.14444,375.50575a.919.919,0,1,1,.919.919.9182.9182,0,0,1-.919-.919" fill="#c8c8c8"/><path d="M713.57241,375.50575a.91851.91851,0,1,1,.918.919.918.918,0,0,1-.918-.919" fill="#c8c8c8"/><path d="M710.99942,375.50575a.9185.9185,0,1,1,.919.919.91822.91822,0,0,1-.919-.919" fill="#c8c8c8"/><path d="M731.58242,375.50575a.91851.91851,0,1,1,.919.919.91823.91823,0,0,1-.919-.919" fill="#c8c8c8"/><path d="M729.00842,372.93376a.919.919,0,1,1,.92.918.91865.91865,0,0,1-.92-.918" fill="#c8c8c8"/><path d="M726.43643,372.93376a.9185.9185,0,1,1,.918.918.91822.91822,0,0,1-.918-.918" fill="#c8c8c8"/><path d="M723.86343,372.93376a.91851.91851,0,1,1,.919.918.91843.91843,0,0,1-.919-.918" fill="#c8c8c8"/><path d="M721.29141,372.93376a.9185.9185,0,1,1,.918.918.91823.91823,0,0,1-.918-.918" fill="#c8c8c8"/><path d="M718.71743,372.93376a.91849.91849,0,1,1,.919.918.91842.91842,0,0,1-.919-.918" fill="#c8c8c8"/><path d="M718.71743,370.35975a.91849.91849,0,1,1,.919.92.919.919,0,0,1-.919-.92" fill="#c8c8c8"/><path d="M716.14444,372.93376a.919.919,0,1,1,.919.918.91841.91841,0,0,1-.919-.918" fill="#c8c8c8"/><path d="M710.99942,372.93376a.9185.9185,0,1,1,.919.918.91844.91844,0,0,1-.919-.918" fill="#c8c8c8"/><path d="M731.58242,372.93376a.91851.91851,0,1,1,.919.918.91844.91844,0,0,1-.919-.918" fill="#c8c8c8"/><path d="M729.00842,370.35975a.919.919,0,1,1,.92.92.91928.91928,0,0,1-.92-.92" fill="#c8c8c8"/><path d="M726.43643,370.35975a.9185.9185,0,1,1,.918.92.91885.91885,0,0,1-.918-.92" fill="#c8c8c8"/><path d="M723.86343,370.35975a.91851.91851,0,1,1,.919.92.91907.91907,0,0,1-.919-.92" fill="#c8c8c8"/><path d="M721.29141,370.35975a.9185.9185,0,1,1,.918.92.91886.91886,0,0,1-.918-.92" fill="#c8c8c8"/><path d="M716.14444,370.35975a.919.919,0,1,1,.919.92.919.919,0,0,1-.919-.92" fill="#c8c8c8"/><path d="M713.57241,370.35975a.91851.91851,0,1,1,.918.92.91886.91886,0,0,1-.918-.92" fill="#c8c8c8"/><path d="M713.57241,372.93376a.91851.91851,0,1,1,.918.918.91823.91823,0,0,1-.918-.918" fill="#c8c8c8"/><path d="M710.99942,370.35975a.9185.9185,0,1,1,.919.92.91907.91907,0,0,1-.919-.92" fill="#c8c8c8"/><path d="M731.58242,370.35975a.91851.91851,0,1,1,.919.92.91907.91907,0,0,1-.919-.92" fill="#c8c8c8"/><path d="M729.00842,367.78675a.919.919,0,1,1,.92.919.91843.91843,0,0,1-.92-.919" fill="#c8c8c8"/><path d="M726.43643,367.78675a.9185.9185,0,1,1,.918.919.918.918,0,0,1-.918-.919" fill="#c8c8c8"/><path d="M723.86343,367.78675a.91851.91851,0,1,1,.919.919.91821.91821,0,0,1-.919-.919" fill="#c8c8c8"/><path d="M721.29141,367.78675a.9185.9185,0,1,1,.918.919.918.918,0,0,1-.918-.919" fill="#c8c8c8"/><path d="M726.43643,365.21475a.9185.9185,0,1,1,.918.918.9182.9182,0,0,1-.918-.918" fill="#c8c8c8"/><path d="M723.86343,365.21475a.91851.91851,0,1,1,.919.918.91842.91842,0,0,1-.919-.918" fill="#c8c8c8"/><path d="M721.29141,365.21475a.9185.9185,0,1,1,.918.918.91821.91821,0,0,1-.918-.918" fill="#c8c8c8"/><path d="M718.71743,367.78675a.91849.91849,0,1,1,.919.919.91819.91819,0,0,1-.919-.919" fill="#c8c8c8"/><path d="M716.14444,367.78675a.919.919,0,1,1,.919.919.91819.91819,0,0,1-.919-.919" fill="#c8c8c8"/><path d="M710.99942,367.78675a.9185.9185,0,1,1,.919.919.91822.91822,0,0,1-.919-.919" fill="#c8c8c8"/><path d="M713.57241,367.78675a.91851.91851,0,1,1,.918.919.918.918,0,0,1-.918-.919" fill="#c8c8c8"/><path d="M731.58242,367.78675a.91851.91851,0,1,1,.919.919.91822.91822,0,0,1-.919-.919" fill="#c8c8c8"/><path d="M729.00842,365.21475a.919.919,0,1,1,.92.918.91863.91863,0,0,1-.92-.918" fill="#c8c8c8"/><path d="M729.00842,362.64175a.919.919,0,1,1,.92.919.91843.91843,0,0,1-.92-.919" fill="#c8c8c8"/><path d="M718.71743,365.21475a.91849.91849,0,1,1,.919.918.9184.9184,0,0,1-.919-.918" fill="#c8c8c8"/><path d="M716.14444,365.21475a.919.919,0,1,1,.919.918.9184.9184,0,0,1-.919-.918" fill="#c8c8c8"/><path d="M713.57241,365.21475a.91851.91851,0,1,1,.918.918.91821.91821,0,0,1-.918-.918" fill="#c8c8c8"/><path d="M710.99942,365.21475a.9185.9185,0,1,1,.919.918.91842.91842,0,0,1-.919-.918" fill="#c8c8c8"/><path d="M709.34442,361.72375a.9185.9185,0,1,1-.918.918.9182.9182,0,0,1,.918-.918" fill="#c8c8c8"/><path d="M708.42642,378.07875a.9185.9185,0,1,1,.918.918.91821.91821,0,0,1-.918-.918" fill="#c8c8c8"/><path d="M708.42642,375.50575a.9185.9185,0,1,1,.918.919.918.918,0,0,1-.918-.919" fill="#c8c8c8"/><path d="M708.42642,372.93376a.9185.9185,0,1,1,.918.918.91823.91823,0,0,1-.918-.918" fill="#c8c8c8"/><path d="M708.42642,370.35975a.9185.9185,0,1,1,.918.92.91886.91886,0,0,1-.918-.92" fill="#c8c8c8"/><path d="M708.42642,367.78675a.9185.9185,0,1,1,.918.919.918.918,0,0,1-.918-.919" fill="#c8c8c8"/><path d="M708.42642,365.21475a.9185.9185,0,1,1,.918.918.91821.91821,0,0,1-.918-.918" fill="#c8c8c8"/><path d="M731.58242,365.21475a.91851.91851,0,1,1,.919.918.91842.91842,0,0,1-.919-.918" fill="#c8c8c8"/><path d="M731.58242,362.64175a.91851.91851,0,1,1,.919.919.91822.91822,0,0,1-.919-.919" fill="#c8c8c8"/><path d="M731.58242,360.06875a.91851.91851,0,1,1,.919.918.91822.91822,0,0,1-.919-.918" fill="#c8c8c8"/><path d="M731.58242,357.49575a.91851.91851,0,1,1,.919.919.91906.91906,0,0,1-.919-.919" fill="#c8c8c8"/><path d="M726.43643,362.64175a.9185.9185,0,1,1,.918.919.918.918,0,0,1-.918-.919" fill="#c8c8c8"/><path d="M723.86343,362.64175a.91851.91851,0,1,1,.919.919.91821.91821,0,0,1-.919-.919" fill="#c8c8c8"/><path d="M721.29141,362.64175a.9185.9185,0,1,1,.918.919.918.918,0,0,1-.918-.919" fill="#c8c8c8"/><path d="M718.71743,362.64175a.91849.91849,0,1,1,.919.919.91819.91819,0,0,1-.919-.919" fill="#c8c8c8"/><path d="M716.14444,362.64175a.919.919,0,1,1,.919.919.91819.91819,0,0,1-.919-.919" fill="#c8c8c8"/><path d="M713.57241,362.64175a.91851.91851,0,1,1,.918.919.918.918,0,0,1-.918-.919" fill="#c8c8c8"/><path d="M711.91842,359.15075a.918.918,0,1,1-.919.918.918.918,0,0,1,.919-.918" fill="#c8c8c8"/><path d="M729.00842,360.06875a.919.919,0,1,1,.92.918.91843.91843,0,0,1-.92-.918" fill="#c8c8c8"/><path d="M709.34442,359.15075a.918.918,0,1,1-.918.918.9182.9182,0,0,1,.918-.918" fill="#c8c8c8"/><path d="M726.43643,360.06875a.9185.9185,0,1,1,.918.918.918.918,0,0,1-.918-.918" fill="#c8c8c8"/><path d="M723.86343,360.06875a.91851.91851,0,1,1,.919.918.91821.91821,0,0,1-.919-.918" fill="#c8c8c8"/><path d="M721.29141,360.06875a.9185.9185,0,1,1,.918.918.918.918,0,0,1-.918-.918" fill="#c8c8c8"/><path d="M718.71743,360.06875a.91849.91849,0,1,1,.919.918.91819.91819,0,0,1-.919-.918" fill="#c8c8c8"/><path d="M716.14444,360.06875a.919.919,0,1,1,.919.918.91819.91819,0,0,1-.919-.918" fill="#c8c8c8"/><path d="M713.57241,360.06875a.91851.91851,0,1,1,.918.918.918.918,0,0,1-.918-.918" fill="#c8c8c8"/><path d="M711.91842,356.57676a.919.919,0,1,1-.919.919.91883.91883,0,0,1,.919-.919" fill="#c8c8c8"/><path d="M729.00842,357.49575a.919.919,0,1,1,.92.919.91927.91927,0,0,1-.92-.919" fill="#c8c8c8"/><path d="M709.34442,356.57676a.919.919,0,1,1-.918.919.919.919,0,0,1,.918-.919" fill="#c8c8c8"/><path d="M726.43643,357.49575a.9185.9185,0,1,1,.918.919.91884.91884,0,0,1-.918-.919" fill="#c8c8c8"/><path d="M723.86343,357.49575a.91851.91851,0,1,1,.919.919.91906.91906,0,0,1-.919-.919" fill="#c8c8c8"/><path d="M721.29141,357.49575a.9185.9185,0,1,1,.918.919.91885.91885,0,0,1-.918-.919" fill="#c8c8c8"/><path d="M718.71743,357.49575a.91849.91849,0,1,1,.919.919.919.919,0,0,1-.919-.919" fill="#c8c8c8"/><path d="M716.14444,357.49575a.919.919,0,1,1,.919.919.919.919,0,0,1-.919-.919" fill="#c8c8c8"/><path d="M713.57241,357.49575a.91851.91851,0,1,1,.918.919.91885.91885,0,0,1-.918-.919" fill="#c8c8c8"/><path d="M255.94819,246.10037a.897.897,0,1,1-.897-.897.89726.89726,0,0,1,.897.897" fill="#c8c8c8"/><path d="M259.53925,246.10037a.89752.89752,0,1,1-.898-.897.89818.89818,0,0,1,.898.897" fill="#c8c8c8"/><path d="M252.35822,246.10037a.89752.89752,0,1,1-.897-.897.89794.89794,0,0,1,.897.897" fill="#c8c8c8"/><path d="M245.17719,246.10037a.89749.89749,0,1,1-.897-.897.89792.89792,0,0,1,.897.897" fill="#c8c8c8"/><path d="M241.58619,246.10037a.89749.89749,0,1,1-.897-.897.89726.89726,0,0,1,.897.897" fill="#c8c8c8"/><path d="M237.99622,246.10037a.89749.89749,0,1,1-.898-.897.89818.89818,0,0,1,.898.897" fill="#c8c8c8"/><path d="M254.15424,244.30535a.898.898,0,1,1-.898-.897.898.898,0,0,1,.898.897" fill="#c8c8c8"/><path d="M257.74421,244.30535a.898.898,0,1,1-.898-.897.89793.89793,0,0,1,.898.897" fill="#c8c8c8"/><path d="M246.97224,244.30535a.89753.89753,0,1,1-.897-.897.89772.89772,0,0,1,.897.897" fill="#c8c8c8"/><path d="M250.56318,244.30535a.89746.89746,0,1,1-.89795-.897.89792.89792,0,0,1,.89795.897" fill="#c8c8c8"/><path d="M243.38221,244.30535a.898.898,0,1,1-.898-.897.898.898,0,0,1,.898.897" fill="#c8c8c8"/><path d="M239.79121,244.30535a.8975.8975,0,1,1-.897-.897.89709.89709,0,0,1,.897.897" fill="#c8c8c8"/><path d="M254.15424,251.48736a.898.898,0,1,1-.898-.898.89711.89711,0,0,1,.898.898" fill="#c8c8c8"/><path d="M257.74421,251.48736a.898.898,0,1,1-.898-.898.89707.89707,0,0,1,.898.898" fill="#c8c8c8"/><path d="M246.97224,251.48736a.89753.89753,0,1,1-.897-.898.89687.89687,0,0,1,.897.898" fill="#c8c8c8"/><path d="M250.56318,251.48736a.89746.89746,0,1,1-.89795-.898.89706.89706,0,0,1,.89795.898" fill="#c8c8c8"/><path d="M243.38221,251.48736a.898.898,0,1,1-.898-.898.89711.89711,0,0,1,.898.898" fill="#c8c8c8"/><path d="M239.79121,251.48736a.8975.8975,0,1,1-.897-.898.89623.89623,0,0,1,.897.898" fill="#c8c8c8"/><path d="M255.94819,253.28234a.897.897,0,1,1-.897-.898.897.897,0,0,1,.897.898" fill="#c8c8c8"/><path d="M259.53925,253.28234a.89752.89752,0,1,1-.898-.898.898.898,0,0,1,.898.898" fill="#c8c8c8"/><path d="M248.76826,253.28234a.898.898,0,1,1-.898-.898.898.898,0,0,1,.898.898" fill="#c8c8c8"/><path d="M252.35822,253.28234a.89752.89752,0,1,1-.897-.898.89772.89772,0,0,1,.897.898" fill="#c8c8c8"/><path d="M245.17719,253.28234a.89749.89749,0,1,1-.897-.898.89771.89771,0,0,1,.897.898" fill="#c8c8c8"/><path d="M241.58619,253.28234a.89749.89749,0,1,1-.897-.898.897.897,0,0,1,.897.898" fill="#c8c8c8"/><path d="M237.99622,253.28234a.89749.89749,0,1,1-.898-.898.898.898,0,0,1,.898.898" fill="#c8c8c8"/><path d="M254.15424,255.07736a.898.898,0,1,1-.898-.897.898.898,0,0,1,.898.897" fill="#c8c8c8"/><path d="M257.74421,255.07736a.898.898,0,1,1-.898-.897.89794.89794,0,0,1,.898.897" fill="#c8c8c8"/><path d="M246.97224,255.07736a.89753.89753,0,1,1-.897-.897.89773.89773,0,0,1,.897.897" fill="#c8c8c8"/><path d="M250.56318,255.07736a.89746.89746,0,1,1-.89795-.897.89792.89792,0,0,1,.89795.897" fill="#c8c8c8"/><path d="M239.79121,255.07736a.8975.8975,0,1,1-.897-.897.8971.8971,0,0,1,.897.897" fill="#c8c8c8"/><path d="M255.94819,256.87338a.897.897,0,1,1-.897-.898.897.897,0,0,1,.897.898" fill="#c8c8c8"/><path d="M259.53925,256.87338a.89752.89752,0,1,1-.898-.898.89795.89795,0,0,1,.898.898" fill="#c8c8c8"/><path d="M248.76826,256.87338a.898.898,0,1,1-.898-.898.89795.89795,0,0,1,.898.898" fill="#c8c8c8"/><path d="M252.35822,256.87338a.89752.89752,0,1,1-.897-.898.8977.8977,0,0,1,.897.898" fill="#c8c8c8"/><path d="M245.17719,256.87338a.89749.89749,0,1,1-.897-.898.89769.89769,0,0,1,.897.898" fill="#c8c8c8"/><path d="M241.58619,256.87338a.89749.89749,0,1,1-.897-.898.897.897,0,0,1,.897.898" fill="#c8c8c8"/><path d="M237.99622,256.87338a.89749.89749,0,1,1-.898-.898.89795.89795,0,0,1,.898.898" fill="#c8c8c8"/><path d="M254.15424,258.66836a.898.898,0,1,1-.898-.897.898.898,0,0,1,.898.897" fill="#c8c8c8"/><path d="M257.74421,258.66836a.898.898,0,1,1-.898-.897.89794.89794,0,0,1,.898.897" fill="#c8c8c8"/><path d="M246.97224,258.66836a.89753.89753,0,1,1-.897-.897.89773.89773,0,0,1,.897.897" fill="#c8c8c8"/><path d="M250.56318,258.66836a.89746.89746,0,1,1-.89795-.897.89792.89792,0,0,1,.89795.897" fill="#c8c8c8"/><path d="M243.38221,258.66836a.898.898,0,1,1-.898-.897.898.898,0,0,1,.898.897" fill="#c8c8c8"/><path d="M239.79121,258.66836a.8975.8975,0,1,1-.897-.897.8971.8971,0,0,1,.897.897" fill="#c8c8c8"/><path d="M255.94819,260.46435a.897.897,0,1,1-.897-.898.89619.89619,0,0,1,.897.898" fill="#c8c8c8"/><path d="M259.53925,260.46435a.89752.89752,0,1,1-.898-.898.89711.89711,0,0,1,.898.898" fill="#c8c8c8"/><path d="M248.76826,260.46435a.898.898,0,1,1-.898-.898.89711.89711,0,0,1,.898.898" fill="#c8c8c8"/><path d="M252.35822,260.46435a.89752.89752,0,1,1-.897-.898.89686.89686,0,0,1,.897.898" fill="#c8c8c8"/><path d="M245.17719,260.46435a.89749.89749,0,1,1-.897-.898.89685.89685,0,0,1,.897.898" fill="#c8c8c8"/><path d="M241.58619,260.46435a.89749.89749,0,1,1-.897-.898.89619.89619,0,0,1,.897.898" fill="#c8c8c8"/><path d="M237.99622,260.46435a.89749.89749,0,1,1-.898-.898.89711.89711,0,0,1,.898.898" fill="#c8c8c8"/><path d="M254.15424,262.25936a.898.898,0,1,1-.898-.898.89794.89794,0,0,1,.898.898" fill="#c8c8c8"/><path d="M257.74421,262.25936a.898.898,0,1,1-.898-.898.8979.8979,0,0,1,.898.898" fill="#c8c8c8"/><path d="M246.97224,262.25936a.89753.89753,0,1,1-.897-.898.8977.8977,0,0,1,.897.898" fill="#c8c8c8"/><path d="M250.56318,262.25936a.89746.89746,0,1,1-.89795-.898.89789.89789,0,0,1,.89795.898" fill="#c8c8c8"/><path d="M243.38221,262.25936a.898.898,0,1,1-.898-.898.89794.89794,0,0,1,.898.898" fill="#c8c8c8"/><path d="M239.79121,262.25936a.8975.8975,0,1,1-.897-.898.89706.89706,0,0,1,.897.898" fill="#c8c8c8"/><path d="M255.94819,264.05435a.897.897,0,1,1-.897-.897.897.897,0,0,1,.897.897" fill="#c8c8c8"/><path d="M259.53925,264.05435a.89752.89752,0,1,1-.898-.897.898.898,0,0,1,.898.897" fill="#c8c8c8"/><path d="M248.76826,264.05435a.898.898,0,1,1-.898-.897.898.898,0,0,1,.898.897" fill="#c8c8c8"/><path d="M252.35822,264.05435a.89752.89752,0,1,1-.897-.897.89771.89771,0,0,1,.897.897" fill="#c8c8c8"/><path d="M245.17719,264.05435a.89749.89749,0,1,1-.897-.897.8977.8977,0,0,1,.897.897" fill="#c8c8c8"/><path d="M241.58619,264.05435a.89749.89749,0,1,1-.897-.897.897.897,0,0,1,.897.897" fill="#c8c8c8"/><path d="M237.99622,264.05435a.89749.89749,0,1,1-.898-.897.898.898,0,0,1,.898.897" fill="#c8c8c8"/><path d="M258.16523,265.78036a.968.968,0,1,1-.968-.968.96882.96882,0,0,1,.968.968" fill="#c8c8c8"/><path d="M246.97224,265.85037a.89753.89753,0,1,1-.897-.898.89773.89773,0,0,1,.897.898" fill="#c8c8c8"/><path d="M250.56318,265.85037a.89746.89746,0,1,1-.89795-.898.89792.89792,0,0,1,.89795.898" fill="#c8c8c8"/><path d="M243.38221,265.85037a.898.898,0,1,1-.898-.898.898.898,0,0,1,.898.898" fill="#c8c8c8"/><path d="M239.8592,265.85037a.89749.89749,0,1,1-.897-.898.89771.89771,0,0,1,.897.898" fill="#c8c8c8"/><polygon points="238.256 243.335 236.303 243.335 236.303 245.289 235.623 245.289 235.623 242.656 238.256 242.656 238.256 243.335" fill="#c8c8c8"/><path d="M254.15424,247.89636a.898.898,0,1,1-.898-.897.89711.89711,0,0,1,.898.897" fill="#c8c8c8"/><path d="M257.74421,247.89636a.898.898,0,1,1-.898-.897.89707.89707,0,0,1,.898.897" fill="#c8c8c8"/><path d="M246.97224,247.89636a.89753.89753,0,1,1-.897-.897.89687.89687,0,0,1,.897.897" fill="#c8c8c8"/><path d="M250.56318,247.89636a.89746.89746,0,1,1-.89795-.897.89706.89706,0,0,1,.89795.897" fill="#c8c8c8"/><path d="M243.38221,247.89636a.898.898,0,1,1-.898-.897.89711.89711,0,0,1,.898.897" fill="#c8c8c8"/><path d="M239.79121,247.89636a.8975.8975,0,1,1-.897-.897.89623.89623,0,0,1,.897.897" fill="#c8c8c8"/><path d="M255.94819,249.69238a.897.897,0,1,1-.897-.899.89681.89681,0,0,1,.897.899" fill="#c8c8c8"/><path d="M259.53925,249.69238a.89752.89752,0,1,1-.898-.899.89773.89773,0,0,1,.898.899" fill="#c8c8c8"/><path d="M248.76826,249.69238a.898.898,0,1,1-.898-.899.89773.89773,0,0,1,.898.899" fill="#c8c8c8"/><path d="M252.35822,249.69238a.89752.89752,0,1,1-.897-.899.89749.89749,0,0,1,.897.899" fill="#c8c8c8"/><path d="M245.17719,249.69238a.89749.89749,0,1,1-.897-.899.89747.89747,0,0,1,.897.899" fill="#c8c8c8"/><path d="M241.58619,249.69238a.89749.89749,0,1,1-.897-.899.89681.89681,0,0,1,.897.899" fill="#c8c8c8"/><path d="M237.99622,249.69238a.89749.89749,0,1,1-.898-.899.89773.89773,0,0,1,.898.899" fill="#c8c8c8"/><path d="M237.99622,264.05535a.89749.89749,0,1,1-.898-.898.89774.89774,0,0,1,.898.898" fill="#c8c8c8"/><path d="M254.15424,265.85037a.898.898,0,1,1-.898-.898.898.898,0,0,1,.898.898" fill="#c8c8c8"/><path d="M243.38221,255.07736a.89749.89749,0,1,1-.898-.897.898.898,0,0,1,.898.897" fill="#c8c8c8"/><path d="M248.76826,246.10037a.89753.89753,0,1,1-.898-.897.89818.89818,0,0,1,.898.897" fill="#c8c8c8"/><path d="M263.13019,246.10037a.898.898,0,1,1-.898-.897.89814.89814,0,0,1,.898.897" fill="#c8c8c8"/><path d="M266.72022,246.10037a.89749.89749,0,1,1-.897-.897.89794.89794,0,0,1,.897.897" fill="#c8c8c8"/><path d="M261.33417,244.30535a.89746.89746,0,1,1-.897-.897.8977.8977,0,0,1,.897.897" fill="#c8c8c8"/><path d="M264.92524,244.30535a.89753.89753,0,1,1-.898-.897.898.898,0,0,1,.898.897" fill="#c8c8c8"/><path d="M261.33417,251.48736a.89746.89746,0,1,1-.897-.898.89685.89685,0,0,1,.897.898" fill="#c8c8c8"/><path d="M264.92524,251.48736a.89753.89753,0,1,1-.898-.898.89711.89711,0,0,1,.898.898" fill="#c8c8c8"/><path d="M263.13019,253.28234a.898.898,0,1,1-.898-.898.89792.89792,0,0,1,.898.898" fill="#c8c8c8"/><path d="M266.72022,253.28234a.89749.89749,0,1,1-.897-.898.89772.89772,0,0,1,.897.898" fill="#c8c8c8"/><path d="M261.33417,255.07736a.89746.89746,0,1,1-.897-.897.89771.89771,0,0,1,.897.897" fill="#c8c8c8"/><path d="M264.92524,255.07736a.89753.89753,0,1,1-.898-.897.898.898,0,0,1,.898.897" fill="#c8c8c8"/><path d="M263.13019,256.87338a.898.898,0,1,1-.898-.898.8979.8979,0,0,1,.898.898" fill="#c8c8c8"/><path d="M266.72022,256.87338a.89749.89749,0,1,1-.897-.898.8977.8977,0,0,1,.897.898" fill="#c8c8c8"/><path d="M261.33417,258.66836a.89746.89746,0,1,1-.897-.897.89771.89771,0,0,1,.897.897" fill="#c8c8c8"/><path d="M264.92524,258.66836a.89753.89753,0,1,1-.898-.897.898.898,0,0,1,.898.897" fill="#c8c8c8"/><path d="M263.13019,260.46435a.898.898,0,1,1-.898-.898.89707.89707,0,0,1,.898.898" fill="#c8c8c8"/><path d="M266.72022,260.46435a.89749.89749,0,1,1-.897-.898.89686.89686,0,0,1,.897.898" fill="#c8c8c8"/><path d="M261.33417,262.25936a.89746.89746,0,1,1-.897-.898.89768.89768,0,0,1,.897.898" fill="#c8c8c8"/><path d="M264.92524,262.25936a.89753.89753,0,1,1-.898-.898.89794.89794,0,0,1,.898.898" fill="#c8c8c8"/><path d="M263.13019,264.05435a.898.898,0,1,1-.898-.897.89791.89791,0,0,1,.898.897" fill="#c8c8c8"/><path d="M266.72022,264.05435a.89749.89749,0,1,1-.897-.897.89771.89771,0,0,1,.897.897" fill="#c8c8c8"/><path d="M265.3462,265.78036a.968.968,0,1,1-.968-.968.96878.96878,0,0,1,.968.968" fill="#c8c8c8"/><path d="M261.33417,247.89636a.89746.89746,0,1,1-.897-.897.89685.89685,0,0,1,.897.897" fill="#c8c8c8"/><path d="M264.92524,247.89636a.89753.89753,0,1,1-.898-.897.89711.89711,0,0,1,.898.897" fill="#c8c8c8"/><path d="M263.13019,249.69238a.898.898,0,1,1-.898-.899.89769.89769,0,0,1,.898.899" fill="#c8c8c8"/><path d="M266.72022,249.69238a.89749.89749,0,1,1-.897-.899.89749.89749,0,0,1,.897.899" fill="#c8c8c8"/><path d="M261.33417,265.85037a.89746.89746,0,1,1-.897-.898.89771.89771,0,0,1,.897.898" fill="#c8c8c8"/><path d="M385.99435,324.15586a.87037.87037,0,0,0-.8531-.85309.8491.8491,0,0,0-.853.85309.86945.86945,0,0,0,.853.852.89279.89279,0,0,0,.8531-.852" fill="#00ff42"/><path d="M383.24921,314.093a.87032.87032,0,0,0-.853-.85309.85.85,0,0,0-.8541.85309.87038.87038,0,0,0,.8541.85206.89273.89273,0,0,0,.853-.85206" fill="#00ff42"/><path d="M383.24921,310.632a.87033.87033,0,0,0-.853-.85309.85.85,0,0,0-.8541.85309.87128.87128,0,0,0,.8541.85307.89367.89367,0,0,0,.853-.85307" fill="#00ff42"/><path d="M383.24921,308.06663a.86962.86962,0,0,0-.853-.85308.84935.84935,0,0,0-.8541.85308.87038.87038,0,0,0,.8541.85205.89273.89273,0,0,0,.853-.85205" fill="#00ff42"/><path d="M361.89455,254.28636a.871.871,0,0,0-.8531-.85308.85.85,0,0,0-.8541.85308.87126.87126,0,0,0,.8541.85307.89445.89445,0,0,0,.8531-.85307" fill="#00ff42"/><path d="M358.85117,254.28636a.87031.87031,0,0,0-.853-.85308.85.85,0,0,0-.8541.85308.87126.87126,0,0,0,.8541.85307.89366.89366,0,0,0,.853-.85307" fill="#00ff42"/><path d="M356.28584,254.28636a.87031.87031,0,0,0-.853-.85308.84976.84976,0,0,0-.85311.85308.87107.87107,0,0,0,.85311.85307.89366.89366,0,0,0,.853-.85307" fill="#00ff42"/><path d="M353.43005,254.28636a.87031.87031,0,0,0-.853-.85308.85.85,0,0,0-.8541.85308.87126.87126,0,0,0,.8541.85307.89366.89366,0,0,0,.853-.85307" fill="#00ff42"/><path d="M350.23043,254.28636a.87037.87037,0,0,0-.85311-.85308.84992.84992,0,0,0-.854.85308.8712.8712,0,0,0,.854.85307.89372.89372,0,0,0,.85311-.85307" fill="#00ff42"/><polyline points="382.395 310.632 382.396 321.359 385.141 321.36 385.141 324.155" fill="none" stroke="#00ff42" stroke-linejoin="round" stroke-width="0.4"/><polyline points="382.395 308.066 382.395 254.286 349.377 254.286" fill="none" stroke="#00ff42" stroke-linejoin="round" stroke-width="0.4"/><path d="M344.28707,247.966a.86969.86969,0,0,0-.85311-.85308.84846.84846,0,0,0-.853.85308.86946.86946,0,0,0,.853.85208.89282.89282,0,0,0,.85311-.85208" fill="#00ff42"/><path d="M341.72409,249.2355a.871.871,0,0,0-.8531-.85307.85.85,0,0,0-.8541.85307.87041.87041,0,0,0,.8541.85209.89356.89356,0,0,0,.8531-.85209" fill="#00ff42"/><path d="M341.72409,246.25986a.871.871,0,0,0-.8531-.853.85.85,0,0,0-.8541.853.87127.87127,0,0,0,.8541.8531.89446.89446,0,0,0,.8531-.8531" fill="#00ff42"/><path d="M338.8988,246.25986a.87037.87037,0,0,0-.85311-.853.85.85,0,0,0-.8541.853.87127.87127,0,0,0,.8541.8531.89373.89373,0,0,0,.85311-.8531" fill="#00ff42"/><path d="M336.12432,246.25986a.87037.87037,0,0,0-.85311-.853.85.85,0,0,0-.85409.853.87126.87126,0,0,0,.85409.8531.89373.89373,0,0,0,.85311-.8531" fill="#00ff42"/><polyline points="343.434 247.966 342.152 248.004 342.173 249.274 340.87 249.236 340.87 246.26 335.053 246.26" fill="none" stroke="#00ff42" stroke-linejoin="round" stroke-width="0.4"/><path d="M327.38268,249.92288a.8695.8695,0,0,0-.85211-.85307.8493.8493,0,0,0-.8541.85307.86966.86966,0,0,0,.8541.85206.8919.8919,0,0,0,.85211-.85206" fill="#00ff42"/><path d="M324.495,249.92288a.87037.87037,0,0,0-.85316-.85307.84908.84908,0,0,0-.853.85307.86945.86945,0,0,0,.853.85206.89281.89281,0,0,0,.85316-.85206" fill="#00ff42"/><path d="M321.65794,249.92288a.8703.8703,0,0,0-.853-.85307.84913.84913,0,0,0-.85311.85307.86951.86951,0,0,0,.85311.85206.89274.89274,0,0,0,.853-.85206" fill="#00ff42"/><path d="M321.65794,246.85993a.8703.8703,0,0,0-.853-.85307.84913.84913,0,0,0-.85311.85307.87039.87039,0,0,0,.85311.85308.89367.89367,0,0,0,.853-.85308" fill="#00ff42"/><path d="M321.65794,244.38907a.86963.86963,0,0,0-.853-.85311.84852.84852,0,0,0-.85311.85311.86952.86952,0,0,0,.85311.852.89275.89275,0,0,0,.853-.852" fill="#00ff42"/><path d="M306.173,245.152a.87035.87035,0,0,0-.8531-.85307.85.85,0,0,0-.8541.85307.87039.87039,0,0,0,.8541.85206.8928.8928,0,0,0,.8531-.85206" fill="#00ff42"/><polyline points="326.53 249.923 320.805 249.923 320.805 240.891 305.319 240.891 305.319 245.152" fill="none" stroke="#00ff42" stroke-linejoin="round" stroke-width="0.4"/><path d="M313.85726,247.84275a.87039.87039,0,0,0-.85311-.85308.84994.84994,0,0,0-.854.85308.87118.87118,0,0,0,.854.85307.8937.8937,0,0,0,.85311-.85307" fill="#00ff97"/><path d="M313.85726,250.20528a.87037.87037,0,0,0-.85311-.85308.84992.84992,0,0,0-.854.85308.8712.8712,0,0,0,.854.85307.89372.89372,0,0,0,.85311-.85307" fill="#00e1ff"/><path d="M330.47034,256.2441a.87038.87038,0,0,0-.8531-.8531.84994.84994,0,0,0-.854.8531.87035.87035,0,0,0,.854.85206.89282.89282,0,0,0,.8531-.85206" fill="#00e1ff"/><path d="M335.51135,256.00752a.86966.86966,0,0,0-.853-.8531.84912.84912,0,0,0-.85311.8531.86949.86949,0,0,0,.85311.85206.892.892,0,0,0,.853-.85206" fill="#00ff97"/><path d="M330.47034,259.82818a.87038.87038,0,0,0-.8531-.8531.84994.84994,0,0,0-.854.8531.87035.87035,0,0,0,.854.85206.89282.89282,0,0,0,.8531-.85206" fill="#00e1ff"/><path d="M333.05158,259.82818a.86966.86966,0,0,0-.853-.8531.84912.84912,0,0,0-.85311.8531.86949.86949,0,0,0,.85311.85206.892.892,0,0,0,.853-.85206" fill="#00e1ff"/><path d="M333.05158,262.34078a.86963.86963,0,0,0-.853-.85308.8491.8491,0,0,0-.85311.85308.87034.87034,0,0,0,.85311.85307.89292.89292,0,0,0,.853-.85307" fill="#00e1ff"/><path d="M335.51135,259.29694a.86944.86944,0,0,0-.853-.85206.84888.84888,0,0,0-.85311.85206.86965.86965,0,0,0,.85311.85307.89216.89216,0,0,0,.853-.85307" fill="#00ff97"/><path d="M338.49818,259.29694a.87016.87016,0,0,0-.8531-.85206.84976.84976,0,0,0-.8541.85206.87057.87057,0,0,0,.8541.85307.893.893,0,0,0,.8531-.85307" fill="#00ff97"/><path d="M338.49818,262.21772a.87035.87035,0,0,0-.8531-.85307.85.85,0,0,0-.8541.85307.87127.87127,0,0,0,.8541.85308.89372.89372,0,0,0,.8531-.85308" fill="#00ff97"/><path d="M337.30569,269.37072a.87032.87032,0,0,0-.85305-.85307.85.85,0,0,0-.85409.85307.87124.87124,0,0,0,.85409.85308.89364.89364,0,0,0,.85305-.85308" fill="#00ff97"/><path d="M337.30569,272.667a.87032.87032,0,0,0-.85305-.85307.85.85,0,0,0-.85409.85307.8704.8704,0,0,0,.85409.85208.89276.89276,0,0,0,.85305-.85208" fill="#00e1ff"/><polyline points="313.004 247.843 317.171 247.843 317.185 254.013 334.658 254.015 334.658 259.297 337.645 259.297 337.645 262.341 336.452 262.341 336.452 269.371" fill="none" stroke="#00ff97" stroke-linejoin="round" stroke-width="0.4"/><polyline points="313.004 250.205 315.521 250.205 315.542 256.244 329.617 256.244 329.617 259.828 332.199 259.828 332.199 272.666 336.283 272.666" fill="none" stroke="#00e1ff" stroke-linejoin="round" stroke-width="0.4"/><path d="M313.85726,265.34155a.87036.87036,0,0,0-.85311-.85307.84991.84991,0,0,0-.854.85307.87032.87032,0,0,0,.854.85205.8928.8928,0,0,0,.85311-.85205" fill="#00ffe6"/><path d="M326.08862,278.91621a.87013.87013,0,0,0-.853-.852.84911.84911,0,0,0-.8541.852.86987.86987,0,0,0,.8541.85311.89293.89293,0,0,0,.853-.85311" fill="#00ffe6"/><path d="M329.0612,278.91621a.87014.87014,0,0,0-.853-.852.84977.84977,0,0,0-.85409.852.87059.87059,0,0,0,.85409.85311.89294.89294,0,0,0,.853-.85311" fill="#00ffe6"/><path d="M331.64882,278.91621a.86927.86927,0,0,0-.85205-.852.8491.8491,0,0,0-.854.852.86986.86986,0,0,0,.854.85311.892.892,0,0,0,.85205-.85311" fill="#00ffe6"/><path d="M331.64882,281.24346a.86968.86968,0,0,0-.85205-.85413.84955.84955,0,0,0-.854.85413.87033.87033,0,0,0,.854.852.89259.89259,0,0,0,.85205-.852" fill="#00ffe6"/><path d="M337.30551,284.59781a.86963.86963,0,0,0-.85305-.85307.84935.84935,0,0,0-.8541.85307.87039.87039,0,0,0,.8541.85206.89275.89275,0,0,0,.85305-.85206" fill="#00ffe6"/><polyline points="313.004 265.341 318.444 265.341 318.444 278.917 330.796 278.917 330.796 284.598 336.452 284.597" fill="none" stroke="#00ffe6" stroke-linejoin="round" stroke-width="0.4"/><path d="M290.91276,260.14868a.8704.8704,0,0,0-.8531-.8531.85.85,0,0,0-.8541.8531.87127.87127,0,0,0,.8541.85308.89372.89372,0,0,0,.8531-.85308" fill="#7dff00"/><path d="M280.32929,235.77919a.87041.87041,0,0,0-.85317-.85311.85.85,0,0,0-.854.85311.87035.87035,0,0,0,.854.852.89283.89283,0,0,0,.85317-.852" fill="#7dff00"/><path d="M278.0262,235.77919a.87039.87039,0,0,0-.8531-.85311.85.85,0,0,0-.8541.85311.87035.87035,0,0,0,.8541.852.89281.89281,0,0,0,.8531-.852" fill="#7dff00"/><path d="M275.36033,235.77919a.8704.8704,0,0,0-.85311-.85311.85.85,0,0,0-.85409.85311.87035.87035,0,0,0,.85409.852.89282.89282,0,0,0,.85311-.852" fill="#7dff00"/><path d="M275.36033,238.8259a.8704.8704,0,0,0-.85311-.85311.85.85,0,0,0-.85409.85311.87123.87123,0,0,0,.85409.85307.89375.89375,0,0,0,.85311-.85307" fill="#7dff00"/><path d="M272.51654,238.8259a.87041.87041,0,0,0-.85317-.85311.85.85,0,0,0-.854.85311.87122.87122,0,0,0,.854.85307.89376.89376,0,0,0,.85317-.85307" fill="#7dff00"/><polyline points="290.059 260.149 284.42 260.149 284.42 235.779 279.476 235.779" fill="none" stroke="#7dff00" stroke-linejoin="round" stroke-width="0.4"/><polyline points="277.172 235.779 274.506 235.779 274.506 238.826 271.663 238.826 271.663 244.306 264.028 244.306" fill="none" stroke="#7dff00" stroke-linejoin="round" stroke-width="0.4"/><path d="M264.88132,244.30584a.87038.87038,0,0,0-.85311-.85307.85.85,0,0,0-.8541.85307.8713.8713,0,0,0,.8541.85311.89376.89376,0,0,0,.85311-.85311" fill="#7dff00"/><path d="M298.78293,285.22033a.87033.87033,0,0,0-.853-.85307.85.85,0,0,0-.85409.85307.87129.87129,0,0,0,.85409.85311.89371.89371,0,0,0,.853-.85311" fill="#ff2952"/><path d="M301.243,285.22033a.86965.86965,0,0,0-.853-.85307.84911.84911,0,0,0-.85311.85307.87038.87038,0,0,0,.85311.85311.893.893,0,0,0,.853-.85311" fill="#ef2966"/><path d="M296.38967,290.02549a.8703.8703,0,0,0-.853-.85307.85.85,0,0,0-.85416.85307.87128.87128,0,0,0,.85416.85308.89367.89367,0,0,0,.853-.85308" fill="#ff2952"/><path d="M299.2443,290.02549a.86944.86944,0,0,0-.85205-.85307.84931.84931,0,0,0-.8541.85307.87055.87055,0,0,0,.8541.85308.89277.89277,0,0,0,.85205-.85308" fill="#ef2966"/><path d="M195.4264,342.76071a.87016.87016,0,0,0-.85211-.85306.8493.8493,0,0,0-.8541.85306.87053.87053,0,0,0,.8541.85309.89356.89356,0,0,0,.85211-.85309" fill="#ef2966"/><path d="M175.85271,345.5635a.87032.87032,0,0,0-.85311-.85306.85.85,0,0,0-.8541.85306.87126.87126,0,0,0,.8541.85307.89367.89367,0,0,0,.85311-.85307" fill="#ef2966"/><path d="M192.8654,335.07726a.86972.86972,0,0,0-.85317-.85309.8491.8491,0,0,0-.853.85309.86945.86945,0,0,0,.853.852.89208.89208,0,0,0,.85317-.852" fill="#ff2952"/><path d="M188.58086,334.88764a.87037.87037,0,0,0-.8531-.85309.84909.84909,0,0,0-.853.85309.86946.86946,0,0,0,.853.85205.8928.8928,0,0,0,.8531-.85205" fill="#ff2952"/><path d="M359.85848,299.98651a.87031.87031,0,0,0-.853-.85308.84932.84932,0,0,0-.8541.85308.87054.87054,0,0,0,.8541.85307.89366.89366,0,0,0,.853-.85307" fill="#daff00"/><path d="M364.5143,298.41058a.87031.87031,0,0,0-.853-.853.84913.84913,0,0,0-.8531.853.86947.86947,0,0,0,.8531.85205.89272.89272,0,0,0,.853-.85205" fill="#daff00"/><path d="M367.89356,298.41058a.87035.87035,0,0,0-.853-.853.84909.84909,0,0,0-.8531.853.86943.86943,0,0,0,.8531.85205.89276.89276,0,0,0,.853-.85205" fill="#daff00"/><path d="M367.89356,295.59746a.87036.87036,0,0,0-.853-.85308.84909.84909,0,0,0-.8531.85308.86945.86945,0,0,0,.8531.852.89279.89279,0,0,0,.853-.852" fill="#daff00"/><path d="M370.29093,295.59746a.86971.86971,0,0,0-.85317-.85308.84908.84908,0,0,0-.853.85308.86944.86944,0,0,0,.853.852.89206.89206,0,0,0,.85317-.852" fill="#daff00"/><path d="M373.56473,295.59746a.86945.86945,0,0,0-.852-.85308.84936.84936,0,0,0-.85416.85308.8697.8697,0,0,0,.85416.852.89183.89183,0,0,0,.852-.852" fill="#daff00"/><path d="M373.56473,298.03789a.86876.86876,0,0,0-.852-.85311.84874.84874,0,0,0-.85416.85311.86972.86972,0,0,0,.85416.85205.89185.89185,0,0,0,.852-.85205" fill="#daff00"/><path d="M264.88132,262.25935a.87037.87037,0,0,0-.85311-.85308.85.85,0,0,0-.8541.85308.87057.87057,0,0,0,.8541.85307.893.893,0,0,0,.85311-.85307" fill="#daff00"/><polyline points="359.005 299.987 363.661 299.987 363.661 298.41 367.04 298.41 367.04 295.597 372.941 295.597" fill="none" stroke="#daff00" stroke-linejoin="round" stroke-width="0.4"/><polyline points="372.712 298.037 372.712 326.636 264.028 326.636 264.028 262.341" fill="none" stroke="#daff00" stroke-linejoin="round" stroke-width="0.4"/><path d="M359.85848,281.61471a.8703.8703,0,0,0-.853-.85307.85.85,0,0,0-.8541.85307.87127.87127,0,0,0,.8541.85308.89367.89367,0,0,0,.853-.85308" fill="#c10c0c"/><path d="M364.36869,282.36074a.86965.86965,0,0,0-.8531-.85308.84843.84843,0,0,0-.853.85308.86944.86944,0,0,0,.853.852.89279.89279,0,0,0,.8531-.852" fill="#c10c0c"/><path d="M742.34932,380.43651a.86947.86947,0,0,0-.85209-.85308.85.85,0,0,0-.85406.85308.87035.87035,0,0,0,.85406.85206.89185.89185,0,0,0,.85209-.85206" fill="#c10c0c"/><path d="M742.34932,375.10476a.86947.86947,0,0,0-.85209-.85307.85.85,0,0,0-.85406.85307.87036.87036,0,0,0,.85406.85207.89186.89186,0,0,0,.85209-.85207" fill="#c10c0c"/><path d="M742.34932,367.70939a.86947.86947,0,0,0-.85209-.85308.85.85,0,0,0-.85406.85308.87125.87125,0,0,0,.85406.85309.89279.89279,0,0,0,.85209-.85309" fill="#c10c0c"/><path d="M742.34932,356.7524a.86946.86946,0,0,0-.85209-.85307.84994.84994,0,0,0-.85406.85307.87125.87125,0,0,0,.85406.85309.89279.89279,0,0,0,.85209-.85309" fill="#c10c0c"/><path d="M744.95323,351.95006a.87034.87034,0,0,0-.85307-.85308.8491.8491,0,0,0-.85308.85308.87035.87035,0,0,0,.85308.85309.8937.8937,0,0,0,.85307-.85309" fill="#c10c0c"/><path d="M739.87743,351.95006a.87037.87037,0,0,0-.85308-.85308.84912.84912,0,0,0-.8531.85308.87037.87037,0,0,0,.8531.85309.89373.89373,0,0,0,.85308-.85309" fill="#c10c0c"/><path d="M739.87743,348.53105a.87037.87037,0,0,0-.85308-.85307.84912.84912,0,0,0-.8531.85307.87033.87033,0,0,0,.8531.85306.89369.89369,0,0,0,.85308-.85306" fill="#c10c0c"/><path d="M730.781,357.508a.87055.87055,0,0,0-.85307-.85411.85019.85019,0,0,0-.8541.85411.87106.87106,0,0,0,.8541.85206.89354.89354,0,0,0,.85307-.85206" fill="#c10c0c"/><path d="M733.354,370.36075a.87034.87034,0,0,0-.85307-.85307.84909.84909,0,0,0-.85308.85307.86946.86946,0,0,0,.85308.85207.89278.89278,0,0,0,.85307-.85207" fill="#c10c0c"/><path d="M742.34932,351.95006a.86947.86947,0,0,0-.85209-.85308.85.85,0,0,0-.85406.85308.87124.87124,0,0,0,.85406.85309.89278.89278,0,0,0,.85209-.85309" fill="#c10c0c"/><polyline points="741.497 367.709 735.186 367.709 735.176 370.36 732.172 370.36" fill="none" stroke="#c10c0c" stroke-linejoin="round" stroke-width="0.4"/><polyline points="359.005 281.615 361.695 281.615 361.695 282.361 398.484 282.361 398.607 387.111 741.496 387.111 741.496 355.012 744.1 355.012 744.1 351.95 739.024 351.95 739.024 348.531 729.927 348.531 729.927 357.507" fill="none" stroke="#c10c0c" stroke-linejoin="round" stroke-width="0.4"/><path d="M359.85867,294.0208a.87031.87031,0,0,0-.853-.85307.85.85,0,0,0-.85409.85307.8704.8704,0,0,0,.85409.85209.89278.89278,0,0,0,.853-.85209" fill="#ef2966"/><path d="M364.5143,292.04007a.86948.86948,0,0,0-.85311-.85205.84823.84823,0,0,0-.853.85205.86964.86964,0,0,0,.853.8531.893.893,0,0,0,.85311-.8531" fill="#ef2966"/><polyline points="297.929 285.065 297.929 287.303 295.536 287.324 295.536 297.056 187.728 297.056 187.728 334.887 190.04 334.887 190.04 335.077 192.012 335.077" fill="none" stroke="#ff2952" stroke-linejoin="round" stroke-width="0.4"/><polyline points="175.031 342.761 174.999 359.73 242.919 359.481 242.839 273.199 245.412 273.199 245.412 268.618 246.075 268.608 246.075 262.33 246.075 268.608 245.412 268.618 245.412 273.199 242.839 273.199 242.919 359.481 376.462 359.73 376.462 292.041 363.681 292.041 363.645 294.02 359.005 294.02" fill="none" stroke="#ef2966" stroke-linejoin="round" stroke-width="0.4"/><polyline points="300.39 285.065 300.39 290.025 298.391 290.025 298.391 300.611 174.999 300.611 174.999 342.761 194.834 342.761" fill="none" stroke="#ef2966" stroke-linejoin="round" stroke-width="0.4"/><path d="M248.71023,246.10089a.8568.8568,0,0,0-.84-.839.83587.83587,0,0,0-.84.839.85631.85631,0,0,0,.84.84.87922.87922,0,0,0,.84-.84" fill="red"/><path d="M248.76826,238.40148a.85611.85611,0,0,0-.84-.839.83524.83524,0,0,0-.84.839.85631.85631,0,0,0,.84.84.87922.87922,0,0,0,.84-.84" fill="red"/><path d="M248.76826,234.12679a.85609.85609,0,0,0-.84-.839.83522.83522,0,0,0-.84.839.8563.8563,0,0,0,.84.84.87922.87922,0,0,0,.84-.84" fill="red"/><path d="M248.76826,229.28418a.857.857,0,0,0-.84-.84.83609.83609,0,0,0-.84.84.85609.85609,0,0,0,.84.839.879.879,0,0,0,.84-.839" fill="red"/><path d="M244.617,229.28418a.857.857,0,0,0-.84-.84.837.837,0,0,0-.841.84.857.857,0,0,0,.841.839.87906.87906,0,0,0,.84-.839" fill="red"/><polyline points="247.871 246.171 247.871 229.284 233.66 229.284 233.74 330.391 209.94 330.391 209.94 327.789" fill="none" stroke="red" stroke-linejoin="round" stroke-width="0.4"/><path d="M210.78031,327.39426a.85616.85616,0,0,0-.839-.84.83632.83632,0,0,0-.841.84.85718.85718,0,0,0,.841.84.87907.87907,0,0,0,.839-.84" fill="red"/><path d="M234.581,293.74a.85634.85634,0,0,0-.84-.84.83629.83629,0,0,0-.841.84.8579.8579,0,0,0,.841.84.88.88,0,0,0,.84-.84" fill="red"/><path d="M243.3247,247.89637a.857.857,0,0,0-.84-.84.8369.8369,0,0,0-.841.84.85786.85786,0,0,0,.841.84.88.88,0,0,0,.84-.84" fill="#e52991"/><path d="M210.78031,342.76071a.85612.85612,0,0,0-.839-.84.83628.83628,0,0,0-.841.84.85719.85719,0,0,0,.841.84.87909.87909,0,0,0,.839-.84" fill="#e52991"/><path d="M260.629,293.74a.85634.85634,0,0,0-.84-.84.83546.83546,0,0,0-.84.84.857.857,0,0,0,.84.84.88.88,0,0,0,.84-.84" fill="#e52991"/><path d="M260.54948,273.19934a.857.857,0,0,0-.84-.84.83608.83608,0,0,0-.84.84.857.857,0,0,0,.84.84.88.88,0,0,0,.84-.84" fill="#e52991"/><path d="M263.41022,273.19934a.85634.85634,0,0,0-.84-.84.83607.83607,0,0,0-.84.84.857.857,0,0,0,.84.84.87927.87927,0,0,0,.84-.84" fill="#e52991"/><path d="M266.57919,273.19934a.857.857,0,0,0-.84-.84.8369.8369,0,0,0-.841.84.85786.85786,0,0,0,.841.84.88.88,0,0,0,.84-.84" fill="#e52991"/><polyline points="242.484 247.967 242.484 240.912 270.768 240.912 270.768 273.199 259.709 273.199 259.789 343.4 210.172 342.766" fill="none" stroke="#e52991" stroke-linejoin="round" stroke-width="0.4"/><path d="M237.93923,256.87338a.857.857,0,0,0-.84-.84.837.837,0,0,0-.841.84.85792.85792,0,0,0,.841.84.88.88,0,0,0,.84-.84" fill="#ff0080"/><path d="M233.00246,256.87338a.857.857,0,0,0-.84-.84.837.837,0,0,0-.841.84.85792.85792,0,0,0,.841.84.88.88,0,0,0,.84-.84" fill="#ff0080"/><path d="M230.04747,256.87338a.85634.85634,0,0,0-.84-.84.8361.8361,0,0,0-.84.84.857.857,0,0,0,.84.84.87927.87927,0,0,0,.84-.84" fill="#ff0080"/><path d="M227.31509,256.257a.857.857,0,0,0-.84-.84.837.837,0,0,0-.841.84.85793.85793,0,0,0,.841.84.88.88,0,0,0,.84-.84" fill="#ff0080"/><path d="M224.6401,256.257a.85615.85615,0,0,0-.839-.84.83632.83632,0,0,0-.841.84.85722.85722,0,0,0,.841.84.8791.8791,0,0,0,.839-.84" fill="#ff0080"/><polyline points="237.099 256.873 227.636 256.873 227.614 256.257 203.69 256.257 203.77 288.899 253.675 288.899 253.634 327.394 212.733 327.394" fill="none" stroke="#ff0080" stroke-linejoin="round" stroke-width="0.4"/><path d="M213.34231,327.39426a.85706.85706,0,0,0-.84006-.84.837.837,0,0,0-.841.84.85787.85787,0,0,0,.841.84.88.88,0,0,0,.84006-.84" fill="#ff0080"/><path d="M254.515,292.9a.85616.85616,0,0,0-.839-.84.83632.83632,0,0,0-.841.84.85719.85719,0,0,0,.841.84.87908.87908,0,0,0,.839-.84" fill="#ff0080"/><path d="M239.73421,258.66838a.85615.85615,0,0,0-.84-.839.83547.83547,0,0,0-.841.839.85653.85653,0,0,0,.841.84.87927.87927,0,0,0,.84-.84" fill="#ff5f5f"/><path d="M231.72847,262.68449a.8563.8563,0,0,0-.84-.84.83632.83632,0,0,0-.841.84.857.857,0,0,0,.841.839.87906.87906,0,0,0,.84-.839" fill="#ff5f5f"/><path d="M228.704,262.68449a.85564.85564,0,0,0-.84-.84.83632.83632,0,0,0-.841.84.857.857,0,0,0,.841.839.87833.87833,0,0,0,.84-.839" fill="#ff5f5f"/><polyline points="238.894 258.739 238.894 262.684 227.864 262.684 227.864 267.407 226.182 267.407" fill="none" stroke="#ff5f5f" stroke-linejoin="round" stroke-width="0.4"/><path d="M227.023,267.40733a.857.857,0,0,0-.84-.84.8369.8369,0,0,0-.841.84.85786.85786,0,0,0,.841.84.88.88,0,0,0,.84-.84" fill="#ff5f5f"/><path d="M223.966,267.40733a.857.857,0,0,0-.84-.84.83674.83674,0,0,0-.84.84.85771.85771,0,0,0,.84.84.88.88,0,0,0,.84-.84" fill="#ff5f5f"/><path d="M219.43866,267.40684a.8561.8561,0,0,0-.84-.839.83612.83612,0,0,0-.841.839.85791.85791,0,0,0,.841.84.88.88,0,0,0,.84-.84" fill="#ff5f5f"/><polyline points="223.126 267.408 218.598 267.407 218.598 262.684 177.051 262.684 177.131 350.506 187.706 350.506 187.706 348.295 197.06 348.295 197.06 345.322" fill="none" stroke="#ff5f5f" stroke-linejoin="round" stroke-width="0.4"/><path d="M219.43866,262.684a.857.857,0,0,0-.84-.84.837.837,0,0,0-.841.84.85794.85794,0,0,0,.841.84.88.88,0,0,0,.84-.84" fill="#ff5f5f"/><path d="M197.9748,345.32223a.857.857,0,0,0-.84-.84.83692.83692,0,0,0-.841.84.85788.85788,0,0,0,.841.84.88.88,0,0,0,.84-.84" fill="#ff5f5f"/><path d="M188.546,350.506a.85612.85612,0,0,0-.84-.839.83609.83609,0,0,0-.841.839.8572.8572,0,0,0,.841.84.87924.87924,0,0,0,.84-.84" fill="#ff5f5f"/><path d="M246.9152,262.25935a.857.857,0,0,0-.84-.84.83692.83692,0,0,0-.841.84.85719.85719,0,0,0,.841.84.87922.87922,0,0,0,.84-.84" fill="#ef2966"/><path d="M246.25349,270.16532a.85613.85613,0,0,0-.84-.839.8361.8361,0,0,0-.841.839.85724.85724,0,0,0,.841.84.87928.87928,0,0,0,.84-.84" fill="#ef2966"/><path d="M246.25349,273.19934a.857.857,0,0,0-.84-.84.83694.83694,0,0,0-.841.84.85789.85789,0,0,0,.841.84.88.88,0,0,0,.84-.84" fill="#ef2966"/><path d="M243.60548,273.19934a.857.857,0,0,0-.84-.84.8369.8369,0,0,0-.841.84.85786.85786,0,0,0,.841.84.88.88,0,0,0,.84-.84" fill="#ef2966"/><path d="M254.09673,258.66838a.8561.8561,0,0,0-.84-.839.83611.83611,0,0,0-.841.839.85723.85723,0,0,0,.841.84.87922.87922,0,0,0,.84-.84" fill="#ff0043"/><path d="M257.74421,270.72866a.85637.85637,0,0,0-.84006-.84.83612.83612,0,0,0-.84.84.857.857,0,0,0,.84.84.8793.8793,0,0,0,.84006-.84" fill="#ff0043"/><path d="M257.74421,272.88363a.85637.85637,0,0,0-.84006-.84.83611.83611,0,0,0-.84.84.85615.85615,0,0,0,.84.839.87836.87836,0,0,0,.84006-.839" fill="#ff0043"/><path d="M254.6652,272.88363a.857.857,0,0,0-.84006-.84.83691.83691,0,0,0-.84094.84.857.857,0,0,0,.84094.839.87912.87912,0,0,0,.84006-.839" fill="#ff0043"/><path d="M251.56919,272.88363a.857.857,0,0,0-.84-.84.83692.83692,0,0,0-.841.84.857.857,0,0,0,.841.839.87911.87911,0,0,0,.84-.839" fill="#ff0043"/><polyline points="253.256 258.669 256.846 258.669 256.846 272.884 248.322 272.923 248.402 364.699 182.59 364.699 182.59 346.574 189.015 346.574 189.015 345.322 192.012 345.322" fill="none" stroke="#ff0043" stroke-linejoin="round" stroke-width="0.4"/><path d="M192.85279,345.32223a.857.857,0,0,0-.84-.84.83692.83692,0,0,0-.841.84.85788.85788,0,0,0,.841.84.88.88,0,0,0,.84-.84" fill="#ff0043"/><path d="M188.201,346.57484a.857.857,0,0,0-.84-.84.83692.83692,0,0,0-.841.84.857.857,0,0,0,.841.839.8791.8791,0,0,0,.84-.839" fill="#ff0043"/><rect x="253.67748" y="235.71713" width="1.33361" height="10.38992" rx="0.6633" transform="translate(495.25638 -13.4322) rotate(90)" fill="#e52991"/><text transform="translate(250.79387 241.27616)" font-size="1.0999" fill="#fff" font-family="DINCond-Bold" font-weight="700">VLDO22_PMIC_1P2</text><rect x="283.71787" y="237.09105" width="1.33361" height="10.38992" rx="0.6633" fill="#7dff00"/><text transform="translate(284.74874 245.14893) rotate(-90)" font-size="1.0999" fill="#231f20" font-family="DINCond-Bold" font-weight="700">PRX_TR_IN_B1</text><rect x="312.92374" y="235.69578" width="1.33361" height="10.38992" rx="0.6633" transform="translate(554.48129 -72.6998) rotate(90)" fill="#00ff42"/><text transform="translate(311.12164 241.25481)" font-size="1.0999" fill="#231f20" font-family="DINCond-Bold" font-weight="700">PRX_ANT_LB</text><rect x="320.99114" y="251.11485" width="1.33361" height="10.38992" rx="0.6633" transform="translate(577.96775 -65.34813) rotate(90)" fill="#00e1ff"/><text transform="translate(317.92584 256.67388)" font-size="1.0999" fill="#231f20" font-family="DINCond-Bold" font-weight="700">TX_PA_OUT_GSMLB</text><rect x="325.33302" y="248.76503" width="1.33361" height="10.38992" rx="0.6633" transform="translate(579.95982 -72.03984) rotate(90)" fill="#00ff97"/><text transform="translate(322.21256 254.32406)" font-size="1.0999" fill="#231f20" font-family="DINCond-Bold" font-weight="700">TX_PA_OUT_GSMHB</text><rect x="367.38368" y="249.12909" width="1.33361" height="10.38992" rx="0.6633" transform="translate(622.37454 -113.72643) rotate(90)" fill="#00ff42"/><text transform="translate(365.58157 254.68812)" font-size="1.0999" fill="#231f20" font-family="DINCond-Bold" font-weight="700">PRX_ANT_LB</text><rect x="381.7308" y="295.53724" width="1.33361" height="10.38992" rx="0.6633" fill="#00ff42"/><text transform="translate(382.76167 303.20166) rotate(-90)" font-size="1.0999" fill="#231f20" font-family="DINCond-Bold" font-weight="700">PRX_ANT_LB</text><rect x="372.04485" y="300.24203" width="1.33361" height="10.38992" rx="0.6633" fill="#daff00"/><text transform="translate(373.07572 310.43262) rotate(-90)" font-size="1.0999" fill="#231f20" font-family="DINCond-Bold" font-weight="700">TX_TR_OUT_B1_2_3_4_66</text><rect x="263.36091" y="275.17799" width="1.33361" height="10.38992" rx="0.6633" fill="#daff00"/><text transform="translate(264.39178 285.36914) rotate(-90)" font-size="1.0999" fill="#231f20" font-family="DINCond-Bold" font-weight="700">TX_TR_OUT_B1_2_3_4_66</text><rect x="317.90044" y="266.77605" width="1.33361" height="10.38992" rx="0.6633" fill="#00ffe6"/><text transform="translate(318.93132 274.89258) rotate(-90)" font-size="1.0999" fill="#231f20" font-family="DINCond-Bold" font-weight="700">TX_PA_OUT_B1</text><rect x="375.79522" y="293.49126" width="1.33361" height="10.38992" rx="0.6633" fill="#ef2966"/><text transform="translate(376.82609 302.06299) rotate(-90)" font-size="1.0999" fill="#fff" font-family="DINCond-Bold" font-weight="700">VFR_MIPI_IO_1P8</text><rect x="174.3323" y="331.55864" width="1.33361" height="10.38992" rx="0.6633" fill="#ef2966"/><text transform="translate(175.36316 340.08301) rotate(-90)" font-size="1.0999" fill="#fff" font-family="DINCond-Bold" font-weight="700">VLDO3_PMIC_1P8</text><rect x="174.3323" y="347.41383" width="1.33361" height="10.38992" rx="0.6633" fill="#ef2966"/><text transform="translate(175.36316 355.93848) rotate(-90)" font-size="1.0999" fill="#fff" font-family="DINCond-Bold" font-weight="700">VLDO3_PMIC_1P8</text><rect x="235.76268" y="354.21379" width="1.33361" height="10.38992" rx="0.6633" transform="translate(595.83823 122.97926) rotate(90)" fill="#ef2966"/><text transform="translate(233.98029 359.7728)" font-size="1.0999" fill="#fff" font-family="DINCond-Bold" font-weight="700">VDD_1P8_CP</text><rect x="216.42072" y="295.40761" width="1.33361" height="10.38992" rx="0.6633" transform="translate(517.6901 83.51505) rotate(90)" fill="#ef2966"/><text transform="translate(214.63834 300.96664)" font-size="1.0999" fill="#fff" font-family="DINCond-Bold" font-weight="700">VDD_1P8_CP</text><rect x="286.52385" y="295.34233" width="1.33361" height="10.38992" rx="0.6633" transform="translate(587.72794 13.34663) rotate(90)" fill="#ef2966"/><text transform="translate(283.81419 300.90135)" font-size="1.0999" fill="#fff" font-family="DINCond-Bold" font-weight="700">VFR_MIPI_IO_1P8</text><rect x="187.06095" y="322.61137" width="1.33361" height="10.38992" rx="0.6633" fill="#ff2952"/><text transform="translate(188.09181 331.35596) rotate(-90)" font-size="1.0999" fill="#fff" font-family="DINCond-Bold" font-weight="700">VLDO25_PMIC_2P8</text><rect x="215.97343" y="291.77603" width="1.33361" height="10.38992" rx="0.6633" transform="translate(513.61122 80.33075) rotate(90)" fill="#ff2952"/><text transform="translate(213.97053 297.33504)" font-size="1.0999" fill="#fff" font-family="DINCond-Bold" font-weight="700">VFR_FEM_2P8</text><rect x="285.59496" y="291.77603" width="1.33361" height="10.38992" rx="0.6633" transform="translate(583.23276 10.70921) rotate(90)" fill="#ff2952"/><text transform="translate(283.5918 297.33504)" font-size="1.0999" fill="#fff" font-family="DINCond-Bold" font-weight="700">VFR_FEM_2P8</text><rect x="176.38466" y="331.55797" width="1.33361" height="10.38992" rx="0.6633" fill="#ff5f5f"/><text transform="translate(177.41553 340.30225) rotate(-90)" font-size="1.0999" fill="#fff" font-family="DINCond-Bold" font-weight="700">VLDO20_PMIC_1P8</text><rect x="210.59888" y="257.48903" width="1.33361" height="10.38992" rx="0.6633" transform="translate(473.94968 51.4183) rotate(90)" fill="#ff5f5f"/><text transform="translate(207.71656 263.04804)" font-size="1.0999" fill="#fff" font-family="DINCond-Bold" font-weight="700">VLDO20_PMIC_1P8</text><rect x="215.79385" y="251.06207" width="1.33361" height="10.38992" rx="0.6633" transform="translate(472.71768 39.79637) rotate(90)" fill="#ff0080"/><text transform="translate(212.91153 256.62108)" font-size="1.0999" fill="#fff" font-family="DINCond-Bold" font-weight="700">VLDO26_PMIC_1P1</text><rect x="233.00246" y="229.85536" width="1.33361" height="10.38992" rx="0.6633" fill="red"/><text transform="translate(234.03333 238.6001) rotate(-90)" font-size="1.0999" fill="#fff" font-family="DINCond-Bold" font-weight="700">VLDO23_PMIC_1P2</text><rect x="233.0737" y="277.54514" width="1.33361" height="10.38992" rx="0.6633" fill="red"/><text transform="translate(234.10457 286.28955) rotate(-90)" font-size="1.0999" fill="#fff" font-family="DINCond-Bold" font-weight="700">VLDO23_PMIC_1P2</text><rect x="242.09818" y="277.54514" width="1.33361" height="10.38992" rx="0.6633" fill="#ef2966"/><text transform="translate(243.12904 286.06934) rotate(-90)" font-size="1.0999" fill="#fff" font-family="DINCond-Bold" font-weight="700">VLDO3_PMIC_1P2</text><rect x="247.5678" y="277.54514" width="1.33361" height="10.38992" rx="0.6633" fill="#ff0043"/><text transform="translate(248.59867 286.28955) rotate(-90)" font-size="1.0999" fill="#fff" font-family="DINCond-Bold" font-weight="700">VLDO24_PMIC_1P8</text><rect x="253.00819" y="301.76042" width="1.33361" height="10.38992" rx="0.6633" fill="#ff0080"/><text transform="translate(254.03905 310.50439) rotate(-90)" font-size="1.0999" fill="#fff" font-family="DINCond-Bold" font-weight="700">VLDO26_PMIC_1P1</text><rect x="259.12219" y="277.54514" width="1.33361" height="10.38992" rx="0.6633" fill="#e52991"/><text transform="translate(260.15306 286.28955) rotate(-90)" font-size="1.0999" fill="#fff" font-family="DINCond-Bold" font-weight="700">VLDO22_PMIC_1P2</text><rect x="734.15863" y="381.91587" width="1.33361" height="10.38992" rx="0.6633" transform="translate(1121.93627 -347.71461) rotate(90)" fill="#c10c0c"/><text transform="translate(732.68921 387.4749)" font-size="1.0999" fill="#fff" font-family="DINCond-Bold" font-weight="700">VBATT_SYS</text><rect x="369.62412" y="277.16526" width="1.33361" height="10.38992" rx="0.6633" transform="translate(652.65115 -87.93071) rotate(90)" fill="#c10c0c"/><text transform="translate(368.15469 282.72429)" font-size="1.0999" fill="#fff" font-family="DINCond-Bold" font-weight="700">VBATT_SYS</text></svg>