<svg xmlns="http://www.w3.org/2000/svg" viewBox="0 0 841.89001 595.276"><title>Diode Voltage Drop</title><path d="M646.38546,42.5799a21.29,21.29,0,0,0,0-42.5799H195.50466a21.29,21.29,0,1,0,0,42.5799Z" fill="#292c31"/><text transform="translate(309.30786 26.58655)" font-size="16" fill="#fff" font-family="DINCond-Bold" font-weight="700">SAMSUNG SM-G532F &gt; <tspan x="123.13281" y="0" font-size="14">DIODE </tspan><tspan x="154.11328" y="0" font-size="14" letter-spacing="0.003em">V</tspan><tspan x="160.27344" y="0" font-size="14">O</tspan><tspan x="166.74121" y="0" font-size="14" letter-spacing="-0.05001em">L</tspan><tspan x="171.40332" y="0" font-size="14" letter-spacing="-0.05197em">T</tspan><tspan x="176.17773" y="0" font-size="14" letter-spacing="-0.00398em">A</tspan><tspan x="182.67383" y="0" font-size="14" letter-spacing="-0.00007em">GE D</tspan><tspan x="203.70117" y="0" font-size="14" letter-spacing="-0.00105em">R</tspan><tspan x="210.37891" y="0" font-size="14">OP</tspan></text><rect x="0.00013" y="0.00021" width="841.88976" height="595.27559" fill="none"/><path d="M553.29169,102.04213a.39425.39425,0,1,1-.39424.39425.394.394,0,0,1,.39424-.39425" fill="#fde100"/><line x1="553.29169" y1="102.43638" x2="557.86947" y2="102.43638" fill="none" stroke="#fde100" stroke-miterlimit="10" stroke-width="0.25"/><rect x="556.07421" y="101.93372" width="3.59041" height="1.00532" rx="0.50266" fill="#fde100"/><text transform="translate(556.98273 102.64567)" font-size="0.71808" font-family="Quartz-Regular, Quartz">0.406</text><path d="M553.29169,103.31387a.39425.39425,0,1,1-.39424.39425.394.394,0,0,1,.39424-.39425"/><line x1="553.29169" y1="103.70812" x2="557.86947" y2="103.70812" fill="none" stroke="#000" stroke-miterlimit="10" stroke-width="0.25"/><rect x="556.07421" y="103.20546" width="3.59041" height="1.00532" rx="0.50266"/><text transform="translate(556.98273 103.91741)" font-size="0.71808" fill="#fff" font-family="Quartz-Regular, Quartz">0.000</text><path d="M553.29169,104.5a.39425.39425,0,1,1-.39424.39424.39394.39394,0,0,1,.39424-.39424" fill="#fde100"/><line x1="553.29169" y1="104.89426" x2="557.86947" y2="104.89426" fill="none" stroke="#fde100" stroke-miterlimit="10" stroke-width="0.25"/><rect x="556.07421" y="104.3916" width="3.59041" height="1.00532" rx="0.50266" fill="#fde100"/><text transform="translate(556.98273 105.10355)" font-size="0.71808" font-family="Quartz-Regular, Quartz">0.564</text><path d="M553.29169,105.75953a.39425.39425,0,1,1-.39424.39425.39395.39395,0,0,1,.39424-.39425" fill="#fde100"/><line x1="553.29169" y1="106.15378" x2="557.86947" y2="106.15378" fill="none" stroke="#fde100" stroke-miterlimit="10" stroke-width="0.25"/><rect x="556.07421" y="105.65111" width="3.59041" height="1.00532" rx="0.50266" fill="#fde100"/><text transform="translate(556.98273 106.36306)" font-size="0.71808" font-family="Quartz-Regular, Quartz">0.564</text><path d="M553.29169,107.019a.39425.39425,0,1,1-.39424.39425.39395.39395,0,0,1,.39424-.39425"/><line x1="553.29169" y1="107.41329" x2="557.86947" y2="107.41329" fill="none" stroke="#000" stroke-miterlimit="10" stroke-width="0.25"/><rect x="556.07421" y="106.91063" width="3.59041" height="1.00532" rx="0.50266"/><text transform="translate(556.98273 107.62258)" font-size="0.71808" fill="#fff" font-family="Quartz-Regular, Quartz">0.000</text><path d="M553.29169,108.27855a.39425.39425,0,1,1-.39424.39425.39395.39395,0,0,1,.39424-.39425" fill="#fde100"/><line x1="553.29169" y1="108.6728" x2="557.86947" y2="108.6728" fill="none" stroke="#fde100" stroke-miterlimit="10" stroke-width="0.25"/><rect x="556.07421" y="108.17014" width="3.59041" height="1.00532" rx="0.50266" fill="#fde100"/><text transform="translate(556.98273 108.88209)" font-size="0.71808" font-family="Quartz-Regular, Quartz">0.564</text><path d="M553.29169,109.55029a.39425.39425,0,1,1-.39424.39425.39395.39395,0,0,1,.39424-.39425" fill="#fde100"/><line x1="553.29169" y1="109.94454" x2="557.86947" y2="109.94454" fill="none" stroke="#fde100" stroke-miterlimit="10" stroke-width="0.25"/><rect x="556.07421" y="109.44188" width="3.59041" height="1.00532" rx="0.50266" fill="#fde100"/><text transform="translate(556.98273 110.15383)" font-size="0.71808" font-family="Quartz-Regular, Quartz">0.565</text><path d="M553.29169,110.73643a.39425.39425,0,1,1-.39424.39425.39395.39395,0,0,1,.39424-.39425"/><line x1="553.29169" y1="111.13068" x2="557.86947" y2="111.13068" fill="none" stroke="#000" stroke-miterlimit="10" stroke-width="0.25"/><rect x="556.07421" y="110.62802" width="3.59041" height="1.00532" rx="0.50266"/><text transform="translate(556.98273 111.33997)" font-size="0.71808" fill="#fff" font-family="Quartz-Regular, Quartz">0.000</text><path d="M553.29169,111.99594a.39425.39425,0,1,1-.39424.39425.394.394,0,0,1,.39424-.39425" fill="#fde100"/><line x1="553.29169" y1="112.39019" x2="557.86947" y2="112.39019" fill="none" stroke="#fde100" stroke-miterlimit="10" stroke-width="0.25"/><rect x="556.07421" y="111.88753" width="3.59041" height="1.00532" rx="0.50266" fill="#fde100"/><text transform="translate(556.98322 112.59948)" font-size="0.71808" font-family="Quartz-Regular, Quartz">0.567</text><path d="M553.29169,113.25545a.39425.39425,0,1,1-.39424.39425.394.394,0,0,1,.39424-.39425" fill="#fde100"/><line x1="553.29169" y1="113.6497" x2="557.86947" y2="113.6497" fill="none" stroke="#fde100" stroke-miterlimit="10" stroke-width="0.25"/><rect x="556.07421" y="113.14704" width="3.59041" height="1.00532" rx="0.50266" fill="#fde100"/><text transform="translate(556.98273 113.85899)" font-size="0.71808" font-family="Quartz-Regular, Quartz">0.568</text><path d="M553.29169,114.515a.39425.39425,0,1,1-.39424.39425.394.394,0,0,1,.39424-.39425"/><line x1="553.29169" y1="114.90921" x2="557.86947" y2="114.90921" fill="none" stroke="#000" stroke-miterlimit="10" stroke-width="0.25"/><rect x="556.07421" y="114.40655" width="3.59041" height="1.00532" rx="0.50266"/><text transform="translate(556.98273 115.1185)" font-size="0.71808" fill="#fff" font-family="Quartz-Regular, Quartz">0.000</text><path d="M553.29169,115.7867a.39425.39425,0,1,1-.39424.39425.394.394,0,0,1,.39424-.39425" fill="#fde100"/><line x1="553.29169" y1="116.18095" x2="557.86947" y2="116.18095" fill="none" stroke="#fde100" stroke-miterlimit="10" stroke-width="0.25"/><rect x="556.07421" y="115.67829" width="3.59041" height="1.00532" rx="0.50266" fill="#fde100"/><text transform="translate(556.98273 116.39024)" font-size="0.71808" font-family="Quartz-Regular, Quartz">0.566</text><path d="M553.29169,116.97284a.39425.39425,0,1,1-.39424.39425.394.394,0,0,1,.39424-.39425" fill="#fde100"/><line x1="553.29169" y1="117.36709" x2="557.86947" y2="117.36709" fill="none" stroke="#fde100" stroke-miterlimit="10" stroke-width="0.25"/><rect x="556.07421" y="116.86443" width="3.59041" height="1.00532" rx="0.50266" fill="#fde100"/><text transform="translate(556.98273 117.57638)" font-size="0.71808" font-family="Quartz-Regular, Quartz">0.565</text><path d="M553.29169,118.23235a.39425.39425,0,1,1-.39424.39425.394.394,0,0,1,.39424-.39425"/><line x1="553.29169" y1="118.6266" x2="557.86947" y2="118.6266" fill="none" stroke="#000" stroke-miterlimit="10" stroke-width="0.25"/><rect x="556.07421" y="118.12394" width="3.59041" height="1.00532" rx="0.50266"/><text transform="translate(556.98273 118.83589)" font-size="0.71808" fill="#fff" font-family="Quartz-Regular, Quartz">0.000</text><path d="M553.29169,119.49186a.39425.39425,0,1,1-.39424.39425.394.394,0,0,1,.39424-.39425" fill="#fde100"/><line x1="553.29169" y1="119.88611" x2="557.86947" y2="119.88611" fill="none" stroke="#fde100" stroke-miterlimit="10" stroke-width="0.25"/><rect x="556.07421" y="119.38345" width="3.59041" height="1.00532" rx="0.50266" fill="#fde100"/><text transform="translate(556.98273 120.0954)" font-size="0.71808" font-family="Quartz-Regular, Quartz">0.565</text><path d="M553.29169,120.643a.39425.39425,0,1,1-.39424.39425.394.394,0,0,1,.39424-.39425" fill="#fde100"/><line x1="553.29169" y1="121.03721" x2="557.86947" y2="121.03721" fill="none" stroke="#fde100" stroke-miterlimit="10" stroke-width="0.25"/><rect x="556.07421" y="120.53455" width="3.59041" height="1.00532" rx="0.50266" fill="#fde100"/><text transform="translate(556.98273 121.2465)" font-size="0.71808" font-family="Quartz-Regular, Quartz">0.565</text><path d="M553.29169,121.90247a.39425.39425,0,1,1-.39424.39425.394.394,0,0,1,.39424-.39425"/><line x1="553.29169" y1="122.29672" x2="557.86947" y2="122.29672" fill="none" stroke="#000" stroke-miterlimit="10" stroke-width="0.25"/><rect x="556.07421" y="121.79406" width="3.59041" height="1.00532" rx="0.50266"/><text transform="translate(556.98273 122.50601)" font-size="0.71808" fill="#fff" font-family="Quartz-Regular, Quartz">0.000</text><path d="M547.313,102.04213a.39425.39425,0,1,1-.39425.39425.394.394,0,0,1,.39425-.39425" fill="#fde100"/><line x1="547.31296" y1="102.43638" x2="543.87772" y2="102.43638" fill="none" stroke="#fde100" stroke-miterlimit="10" stroke-width="0.25"/><rect x="540.99727" y="101.93372" width="3.59041" height="1.00532" rx="0.50266" fill="#fde100"/><text transform="translate(541.9066 102.64567)" font-size="0.71808" font-family="Quartz-Regular, Quartz">0.406</text><path d="M547.313,103.31387a.39425.39425,0,1,1-.39425.39425.394.394,0,0,1,.39425-.39425"/><line x1="547.31296" y1="103.70812" x2="543.87772" y2="103.70812" fill="none" stroke="#000" stroke-miterlimit="10" stroke-width="0.25"/><rect x="540.99727" y="103.20546" width="3.59041" height="1.00532" rx="0.50266"/><text transform="translate(541.9066 103.91741)" font-size="0.71808" fill="#fff" font-family="Quartz-Regular, Quartz">0.000</text><path d="M547.313,104.5a.39425.39425,0,1,1-.39425.39424A.39395.39395,0,0,1,547.313,104.5" fill="#fde100"/><line x1="547.31296" y1="104.89426" x2="543.87772" y2="104.89426" fill="none" stroke="#fde100" stroke-miterlimit="10" stroke-width="0.25"/><rect x="540.99727" y="104.3916" width="3.59041" height="1.00532" rx="0.50266" fill="#fde100"/><text transform="translate(541.9066 105.10355)" font-size="0.71808" font-family="Quartz-Regular, Quartz">0.406</text><path d="M547.313,105.75953a.39425.39425,0,1,1-.39425.39425.394.394,0,0,1,.39425-.39425" fill="#fde100"/><line x1="547.31296" y1="106.15378" x2="543.87772" y2="106.15378" fill="none" stroke="#fde100" stroke-miterlimit="10" stroke-width="0.25"/><rect x="540.99727" y="105.65111" width="3.59041" height="1.00532" rx="0.50266" fill="#fde100"/><text transform="translate(541.9066 106.36306)" font-size="0.71808" font-family="Quartz-Regular, Quartz">0.406</text><path d="M547.313,107.019a.39425.39425,0,1,1-.39425.39425.394.394,0,0,1,.39425-.39425" fill="#fde100"/><line x1="547.31296" y1="107.41329" x2="543.87772" y2="107.41329" fill="none" stroke="#fde100" stroke-miterlimit="10" stroke-width="0.25"/><rect x="540.99727" y="106.91063" width="3.59041" height="1.00532" rx="0.50266" fill="#fde100"/><text transform="translate(541.90611 107.62258)" font-size="0.71808" font-family="Quartz-Regular, Quartz">0.766</text><path d="M547.313,108.27855a.39425.39425,0,1,1-.39425.39425.394.394,0,0,1,.39425-.39425" fill="#fde100"/><line x1="547.31296" y1="108.6728" x2="543.87772" y2="108.6728" fill="none" stroke="#fde100" stroke-miterlimit="10" stroke-width="0.25"/><rect x="540.99727" y="108.17014" width="3.59041" height="1.00532" rx="0.50266" fill="#fde100"/><text transform="translate(541.9066 108.88209)" font-size="0.71808" font-family="Quartz-Regular, Quartz">0.318</text><path d="M547.313,109.55029a.39425.39425,0,1,1-.39425.39425.394.394,0,0,1,.39425-.39425" fill="#fde100"/><line x1="547.31296" y1="109.94454" x2="543.87772" y2="109.94454" fill="none" stroke="#fde100" stroke-miterlimit="10" stroke-width="0.25"/><rect x="540.99727" y="109.44188" width="3.59041" height="1.00532" rx="0.50266" fill="#fde100"/><text transform="translate(541.9066 110.15383)" font-size="0.71808" font-family="Quartz-Regular, Quartz">0.549</text><path d="M547.313,110.73643a.39425.39425,0,1,1-.39425.39425.394.394,0,0,1,.39425-.39425" fill="#fde100"/><line x1="547.31296" y1="111.13068" x2="543.87772" y2="111.13068" fill="none" stroke="#fde100" stroke-miterlimit="10" stroke-width="0.25"/><rect x="540.99727" y="110.62802" width="3.59041" height="1.00532" rx="0.50266" fill="#fde100"/><text transform="translate(541.9066 111.33997)" font-size="0.71808" font-family="Quartz-Regular, Quartz">0.516</text><path d="M547.313,111.99594a.39425.39425,0,1,1-.39425.39425.394.394,0,0,1,.39425-.39425" fill="#fde100"/><line x1="547.31296" y1="112.39019" x2="543.87772" y2="112.39019" fill="none" stroke="#fde100" stroke-miterlimit="10" stroke-width="0.25"/><rect x="540.99727" y="111.88753" width="3.59041" height="1.00532" rx="0.50266" fill="#fde100"/><text transform="translate(541.9066 112.59948)" font-size="0.71808" font-family="Quartz-Regular, Quartz">0.419</text><path d="M547.313,113.25545a.39425.39425,0,1,1-.39425.39425.394.394,0,0,1,.39425-.39425" fill="#fde100"/><line x1="547.31296" y1="113.6497" x2="543.87772" y2="113.6497" fill="none" stroke="#fde100" stroke-miterlimit="10" stroke-width="0.25"/><rect x="540.99727" y="113.14704" width="3.59041" height="1.00532" rx="0.50266" fill="#fde100"/><text transform="translate(541.9066 113.85899)" font-size="0.71808" font-family="Quartz-Regular, Quartz">0.418</text><path d="M547.313,114.515a.39425.39425,0,1,1-.39425.39425.394.394,0,0,1,.39425-.39425" fill="#fde100"/><line x1="547.31296" y1="114.90921" x2="543.87772" y2="114.90921" fill="none" stroke="#fde100" stroke-miterlimit="10" stroke-width="0.25"/><rect x="540.99727" y="114.40655" width="3.59041" height="1.00532" rx="0.50266" fill="#fde100"/><text transform="translate(541.9066 115.1185)" font-size="0.71808" font-family="Quartz-Regular, Quartz">0.406</text><path d="M547.313,115.7867a.39425.39425,0,1,1-.39425.39425.394.394,0,0,1,.39425-.39425" fill="#fde100"/><line x1="547.31296" y1="116.18095" x2="543.87772" y2="116.18095" fill="none" stroke="#fde100" stroke-miterlimit="10" stroke-width="0.25"/><rect x="540.99727" y="115.67829" width="3.59041" height="1.00532" rx="0.50266" fill="#fde100"/><text transform="translate(541.9066 116.39024)" font-size="0.71808" font-family="Quartz-Regular, Quartz">0.406</text><path d="M547.313,116.97284a.39425.39425,0,1,1-.39425.39425.394.394,0,0,1,.39425-.39425"/><line x1="547.31296" y1="117.36709" x2="543.87772" y2="117.36709" fill="none" stroke="#000" stroke-miterlimit="10" stroke-width="0.25"/><rect x="540.99727" y="116.86443" width="3.59041" height="1.00532" rx="0.50266"/><text transform="translate(541.9066 117.57638)" font-size="0.71808" fill="#fff" font-family="Quartz-Regular, Quartz">0.000</text><path d="M547.313,118.23235a.39425.39425,0,1,1-.39425.39425.394.394,0,0,1,.39425-.39425" fill="#fde100"/><line x1="547.31296" y1="118.6266" x2="543.87772" y2="118.6266" fill="none" stroke="#fde100" stroke-miterlimit="10" stroke-width="0.25"/><rect x="540.99727" y="118.12394" width="3.59041" height="1.00532" rx="0.50266" fill="#fde100"/><text transform="translate(541.9066 118.83589)" font-size="0.71808" font-family="Quartz-Regular, Quartz">0.322</text><path d="M547.313,119.49186a.39425.39425,0,1,1-.39425.39425.394.394,0,0,1,.39425-.39425"/><line x1="547.31296" y1="119.88611" x2="543.87772" y2="119.88611" fill="none" stroke="#000" stroke-miterlimit="10" stroke-width="0.25"/><rect x="540.99727" y="119.38345" width="3.59041" height="1.00532" rx="0.50266"/><text transform="translate(541.9066 120.0954)" font-size="0.71808" fill="#fff" font-family="Quartz-Regular, Quartz">0.000</text><path d="M547.313,120.643a.39425.39425,0,1,1-.39425.39425.394.394,0,0,1,.39425-.39425"/><line x1="547.31296" y1="121.03721" x2="543.87772" y2="121.03721" fill="none" stroke="#000" stroke-miterlimit="10" stroke-width="0.25"/><rect x="540.99727" y="120.53455" width="3.59041" height="1.00532" rx="0.50266"/><text transform="translate(541.9066 121.2465)" font-size="0.71808" fill="#fff" font-family="Quartz-Regular, Quartz">0.000</text><path d="M547.313,121.90247a.39425.39425,0,1,1-.39425.39425.394.394,0,0,1,.39425-.39425"/><line x1="547.31296" y1="122.29672" x2="543.87772" y2="122.29672" fill="none" stroke="#000" stroke-miterlimit="10" stroke-width="0.25"/><rect x="540.99727" y="121.79406" width="3.59041" height="1.00532" rx="0.50266"/><text transform="translate(541.9066 122.50601)" font-size="0.71808" fill="#fff" font-family="Quartz-Regular, Quartz">0.000</text><path d="M255.16136,92.94671a.39425.39425,0,1,1-.39424.39425.394.394,0,0,1,.39424-.39425"/><line x1="255.16136" y1="93.34096" x2="259.73913" y2="93.34096" fill="none" stroke="#000" stroke-miterlimit="10" stroke-width="0.25"/><rect x="257.92156" y="92.8383" width="3.59041" height="1.00532" rx="0.50266"/><text transform="translate(258.83044 93.55025)" font-size="0.71808" fill="#fff" font-family="Quartz-Regular, Quartz">0.000</text><path d="M249.38942,92.94671a.39425.39425,0,1,1-.39424.39425.394.394,0,0,1,.39424-.39425"/><line x1="249.38942" y1="93.34096" x2="245.95419" y2="93.34096" fill="none" stroke="#000" stroke-miterlimit="10" stroke-width="0.25"/><rect x="243.07397" y="92.8383" width="3.59041" height="1.00532" rx="0.50266"/><text transform="translate(243.98279 93.55025)" font-size="0.71808" fill="#fff" font-family="Quartz-Regular, Quartz">0.000</text><path d="M255.16136,94.1399a.39425.39425,0,1,1-.39424.39425.394.394,0,0,1,.39424-.39425"/><line x1="255.16136" y1="94.53415" x2="259.73913" y2="94.53415" fill="none" stroke="#000" stroke-miterlimit="10" stroke-width="0.25"/><rect x="257.92156" y="94.03149" width="3.59041" height="1.00532" rx="0.50266"/><text transform="translate(258.83044 94.74344)" font-size="0.71808" fill="#fff" font-family="Quartz-Regular, Quartz">0.000</text><path d="M249.38942,94.1399a.39425.39425,0,1,1-.39424.39425.394.394,0,0,1,.39424-.39425" fill="#fde100"/><line x1="249.38942" y1="94.53415" x2="245.95419" y2="94.53415" fill="none" stroke="#fde100" stroke-miterlimit="10" stroke-width="0.25"/><rect x="243.07397" y="94.03149" width="3.59041" height="1.00532" rx="0.50266" fill="#fde100"/><text transform="translate(243.98279 94.74344)" font-size="0.71808" font-family="Quartz-Regular, Quartz">0.323</text><path d="M255.16136,95.2323a.39425.39425,0,1,1-.39424.39424.39394.39394,0,0,1,.39424-.39424"/><line x1="255.16136" y1="95.62654" x2="259.73913" y2="95.62654" fill="none" stroke="#000" stroke-miterlimit="10" stroke-width="0.25"/><rect x="257.92156" y="95.12388" width="3.59041" height="1.00532" rx="0.50266"/><text transform="translate(258.83044 95.83583)" font-size="0.71808" fill="#fff" font-family="Quartz-Regular, Quartz">0.000</text><path d="M249.38942,95.2323a.39425.39425,0,1,1-.39424.39424.39394.39394,0,0,1,.39424-.39424"/><line x1="249.38942" y1="95.62654" x2="245.95419" y2="95.62654" fill="none" stroke="#000" stroke-miterlimit="10" stroke-width="0.25"/><rect x="243.07397" y="95.12388" width="3.59041" height="1.00532" rx="0.50266"/><text transform="translate(243.98279 95.83583)" font-size="0.71808" fill="#fff" font-family="Quartz-Regular, Quartz">0.000</text><path d="M255.16136,96.32469a.39425.39425,0,1,1-.39424.39425.39395.39395,0,0,1,.39424-.39425" fill="#fde100"/><line x1="255.16136" y1="96.71894" x2="259.73913" y2="96.71894" fill="none" stroke="#fde100" stroke-miterlimit="10" stroke-width="0.25"/><rect x="257.92156" y="96.21628" width="3.59041" height="1.00532" rx="0.50266" fill="#fde100"/><text transform="translate(258.83044 96.92822)" font-size="0.71808" font-family="Quartz-Regular, Quartz">0.406</text><path d="M249.38942,96.32469a.39425.39425,0,1,1-.39424.39425.39395.39395,0,0,1,.39424-.39425" fill="#fde100"/><line x1="249.38942" y1="96.71894" x2="245.95419" y2="96.71894" fill="none" stroke="#fde100" stroke-miterlimit="10" stroke-width="0.25"/><rect x="243.07397" y="96.21628" width="3.59041" height="1.00532" rx="0.50266" fill="#fde100"/><text transform="translate(243.98279 96.92822)" font-size="0.71808" font-family="Quartz-Regular, Quartz">0.567</text><path d="M255.16136,97.41708a.39425.39425,0,1,1-.39424.39425.39395.39395,0,0,1,.39424-.39425" fill="#fde100"/><line x1="255.16136" y1="97.81133" x2="259.73913" y2="97.81133" fill="none" stroke="#fde100" stroke-miterlimit="10" stroke-width="0.25"/><rect x="257.92156" y="97.30867" width="3.59041" height="1.00532" rx="0.50266" fill="#fde100"/><text transform="translate(258.83044 98.02062)" font-size="0.71808" font-family="Quartz-Regular, Quartz">0.406</text><path d="M249.38942,97.41708a.39425.39425,0,1,1-.39424.39425.39395.39395,0,0,1,.39424-.39425" fill="#fde100"/><line x1="249.38942" y1="97.81133" x2="245.95419" y2="97.81133" fill="none" stroke="#fde100" stroke-miterlimit="10" stroke-width="0.25"/><rect x="243.07397" y="97.30867" width="3.59041" height="1.00532" rx="0.50266" fill="#fde100"/><text transform="translate(243.98279 98.02062)" font-size="0.71808" font-family="Quartz-Regular, Quartz">0.567</text><path d="M255.16136,98.50947a.39425.39425,0,1,1-.39424.39425.394.394,0,0,1,.39424-.39425"/><line x1="255.16136" y1="98.90372" x2="259.73913" y2="98.90372" fill="none" stroke="#000" stroke-miterlimit="10" stroke-width="0.25"/><rect x="257.92156" y="98.40106" width="3.59041" height="1.00532" rx="0.50266"/><text transform="translate(258.83044 99.11301)" font-size="0.71808" fill="#fff" font-family="Quartz-Regular, Quartz">0.000</text><path d="M249.38942,98.50947a.39425.39425,0,1,1-.39424.39425.394.394,0,0,1,.39424-.39425"/><line x1="249.38942" y1="98.90372" x2="245.95419" y2="98.90372" fill="none" stroke="#000" stroke-miterlimit="10" stroke-width="0.25"/><rect x="243.07397" y="98.40106" width="3.59041" height="1.00532" rx="0.50266"/><text transform="translate(243.98279 99.11301)" font-size="0.71808" fill="#fff" font-family="Quartz-Regular, Quartz">0.000</text><path d="M255.16136,99.60186a.39425.39425,0,1,1-.39424.39425.394.394,0,0,1,.39424-.39425" fill="#fde100"/><line x1="255.16136" y1="99.99611" x2="259.73913" y2="99.99611" fill="none" stroke="#fde100" stroke-miterlimit="10" stroke-width="0.25"/><rect x="257.92156" y="99.49345" width="3.59041" height="1.00532" rx="0.50266" fill="#fde100"/><text transform="translate(259.36218 100.2054)" font-size="0.71808" font-family="Quartz-Regular, Quartz">OL</text><path d="M249.38942,99.60186a.39425.39425,0,1,1-.39424.39425.394.394,0,0,1,.39424-.39425" fill="#fde100"/><line x1="249.38942" y1="99.99611" x2="245.95419" y2="99.99611" fill="none" stroke="#fde100" stroke-miterlimit="10" stroke-width="0.25"/><rect x="243.07397" y="99.49345" width="3.59041" height="1.00532" rx="0.50266" fill="#fde100"/><text transform="translate(243.98279 100.2054)" font-size="0.71808" font-family="Quartz-Regular, Quartz">0.568</text><path d="M255.16136,100.69425a.39425.39425,0,1,1-.39424.39426.394.394,0,0,1,.39424-.39426" fill="#fde100"/><line x1="255.16136" y1="101.08851" x2="259.73913" y2="101.08851" fill="none" stroke="#fde100" stroke-miterlimit="10" stroke-width="0.25"/><rect x="257.92156" y="100.58584" width="3.59041" height="1.00532" rx="0.50266" fill="#fde100"/><text transform="translate(258.83044 101.29779)" font-size="0.71808" font-family="Quartz-Regular, Quartz">0.765</text><path d="M249.38942,100.69425a.39425.39425,0,1,1-.39424.39426.394.394,0,0,1,.39424-.39426" fill="#fde100"/><line x1="249.38942" y1="101.08851" x2="245.95419" y2="101.08851" fill="none" stroke="#fde100" stroke-miterlimit="10" stroke-width="0.25"/><rect x="243.07397" y="100.58584" width="3.59041" height="1.00532" rx="0.50266" fill="#fde100"/><text transform="translate(243.98279 101.29779)" font-size="0.71808" font-family="Quartz-Regular, Quartz">0.568</text><path d="M255.16136,101.69957a.39425.39425,0,1,1-.39424.39425.394.394,0,0,1,.39424-.39425" fill="#fde100"/><line x1="255.16136" y1="102.09382" x2="259.73913" y2="102.09382" fill="none" stroke="#fde100" stroke-miterlimit="10" stroke-width="0.25"/><rect x="257.92156" y="101.59116" width="3.59041" height="1.00532" rx="0.50266" fill="#fde100"/><text transform="translate(258.83044 102.30311)" font-size="0.71808" font-family="Quartz-Regular, Quartz">0.320</text><path d="M249.38942,101.69957a.39425.39425,0,1,1-.39424.39425.394.394,0,0,1,.39424-.39425"/><line x1="249.38942" y1="102.09382" x2="245.95419" y2="102.09382" fill="none" stroke="#000" stroke-miterlimit="10" stroke-width="0.25"/><rect x="243.07397" y="101.59116" width="3.59041" height="1.00532" rx="0.50266"/><text transform="translate(243.98279 102.30311)" font-size="0.71808" fill="#fff" font-family="Quartz-Regular, Quartz">0.000</text><path d="M255.16136,102.75409a.39425.39425,0,1,1-.39424.39424.39394.39394,0,0,1,.39424-.39424" fill="#fde100"/><line x1="255.16136" y1="103.14833" x2="259.73913" y2="103.14833" fill="none" stroke="#fde100" stroke-miterlimit="10" stroke-width="0.25"/><rect x="257.92156" y="102.64567" width="3.59041" height="1.00532" rx="0.50266" fill="#fde100"/><text transform="translate(258.83044 103.35762)" font-size="0.71808" font-family="Quartz-Regular, Quartz">0.516</text><path d="M249.38942,102.75409a.39425.39425,0,1,1-.39424.39424.39394.39394,0,0,1,.39424-.39424" fill="#fde100"/><line x1="249.38942" y1="103.14833" x2="245.95419" y2="103.14833" fill="none" stroke="#fde100" stroke-miterlimit="10" stroke-width="0.25"/><rect x="243.07397" y="102.64567" width="3.59041" height="1.00532" rx="0.50266" fill="#fde100"/><text transform="translate(243.98279 103.35762)" font-size="0.71808" font-family="Quartz-Regular, Quartz">0.569</text><path d="M255.16136,103.88175a.39425.39425,0,1,1-.39424.39425.394.394,0,0,1,.39424-.39425" fill="#fde100"/><line x1="255.16136" y1="104.276" x2="259.73913" y2="104.276" fill="none" stroke="#fde100" stroke-miterlimit="10" stroke-width="0.25"/><rect x="257.92156" y="103.77334" width="3.59041" height="1.00532" rx="0.50266" fill="#fde100"/><text transform="translate(258.83044 104.48529)" font-size="0.71808" font-family="Quartz-Regular, Quartz">0.418</text><path d="M249.38942,103.88175a.39425.39425,0,1,1-.39424.39425.394.394,0,0,1,.39424-.39425" fill="#fde100"/><line x1="249.38942" y1="104.276" x2="245.95419" y2="104.276" fill="none" stroke="#fde100" stroke-miterlimit="10" stroke-width="0.25"/><rect x="243.07397" y="103.77334" width="3.59041" height="1.00532" rx="0.50266" fill="#fde100"/><text transform="translate(243.98279 104.48529)" font-size="0.71808" font-family="Quartz-Regular, Quartz">0.568</text><path d="M255.16136,105.00942a.39425.39425,0,1,1-.39424.39425.39395.39395,0,0,1,.39424-.39425" fill="#fde100"/><line x1="255.16136" y1="105.40367" x2="259.73913" y2="105.40367" fill="none" stroke="#fde100" stroke-miterlimit="10" stroke-width="0.25"/><rect x="257.92156" y="104.90101" width="3.59041" height="1.00532" rx="0.50266" fill="#fde100"/><text transform="translate(258.83044 105.61296)" font-size="0.71808" font-family="Quartz-Regular, Quartz">0.549</text><path d="M249.38942,105.00942a.39425.39425,0,1,1-.39424.39425.39395.39395,0,0,1,.39424-.39425"/><line x1="249.38942" y1="105.40367" x2="245.95419" y2="105.40367" fill="none" stroke="#000" stroke-miterlimit="10" stroke-width="0.25"/><rect x="243.07397" y="104.90101" width="3.59041" height="1.00532" rx="0.50266"/><text transform="translate(243.98279 105.61296)" font-size="0.71808" fill="#fff" font-family="Quartz-Regular, Quartz">0.000</text><path d="M241.08614,146.89259a.39425.39425,0,1,1-.39424.39425.394.394,0,0,1,.39424-.39425"/><line x1="241.08614" y1="147.28684" x2="245.66391" y2="147.28684" fill="none" stroke="#000" stroke-miterlimit="10" stroke-width="0.25"/><rect x="243.8371" y="146.78418" width="3.59041" height="1.00532" rx="0.50266"/><text transform="translate(244.74619 147.49625)" font-size="0.71808" fill="#fff" font-family="Quartz-Regular, Quartz">0.000</text><path d="M234.61257,146.89259a.39425.39425,0,1,1-.39424.39425.394.394,0,0,1,.39424-.39425" fill="#fde100"/><line x1="234.61257" y1="147.28684" x2="231.17734" y2="147.28684" fill="none" stroke="#fde100" stroke-miterlimit="10" stroke-width="0.25"/><rect x="228.20844" y="146.78418" width="3.59041" height="1.00532" rx="0.50266" fill="#fde100"/><text transform="translate(229.11719 147.49625)" font-size="0.71808" font-family="Quartz-Regular, Quartz">0.418</text><path d="M241.08614,148.20105a.39425.39425,0,1,1-.39424.39424.39394.39394,0,0,1,.39424-.39424" fill="#fde100"/><line x1="241.08614" y1="148.59529" x2="245.66391" y2="148.59529" fill="none" stroke="#fde100" stroke-miterlimit="10" stroke-width="0.25"/><rect x="243.8371" y="148.09263" width="3.59041" height="1.00532" rx="0.50266" fill="#fde100"/><text transform="translate(244.74619 148.80471)" font-size="0.71808" font-family="Quartz-Regular, Quartz">0.903</text><path d="M234.61257,148.20105a.39425.39425,0,1,1-.39424.39424.39394.39394,0,0,1,.39424-.39424" fill="#fde100"/><line x1="234.61257" y1="148.59529" x2="231.17734" y2="148.59529" fill="none" stroke="#fde100" stroke-miterlimit="10" stroke-width="0.25"/><rect x="228.20844" y="148.09263" width="3.59041" height="1.00532" rx="0.50266" fill="#fde100"/><text transform="translate(229.11719 148.80471)" font-size="0.71808" font-family="Quartz-Regular, Quartz">0.319</text><path d="M241.08614,149.5095a.39425.39425,0,1,1-.39424.39425.394.394,0,0,1,.39424-.39425" fill="#fde100"/><line x1="241.08614" y1="149.90375" x2="245.66391" y2="149.90375" fill="none" stroke="#fde100" stroke-miterlimit="10" stroke-width="0.25"/><rect x="243.8371" y="149.40109" width="3.59041" height="1.00532" rx="0.50266" fill="#fde100"/><text transform="translate(244.74619 150.11317)" font-size="0.71808" font-family="Quartz-Regular, Quartz">0.241</text><path d="M234.61257,149.5095a.39425.39425,0,1,1-.39424.39425.394.394,0,0,1,.39424-.39425" fill="#fde100"/><line x1="234.61257" y1="149.90375" x2="231.17734" y2="149.90375" fill="none" stroke="#fde100" stroke-miterlimit="10" stroke-width="0.25"/><rect x="228.20844" y="149.40109" width="3.59041" height="1.00532" rx="0.50266" fill="#fde100"/><text transform="translate(229.11719 150.11317)" font-size="0.71808" font-family="Quartz-Regular, Quartz">0.434</text><path d="M241.08614,150.70787a.39425.39425,0,1,1-.39424.39425.394.394,0,0,1,.39424-.39425" fill="#fde100"/><line x1="241.08614" y1="151.10212" x2="245.66391" y2="151.10212" fill="none" stroke="#fde100" stroke-miterlimit="10" stroke-width="0.25"/><rect x="243.8371" y="150.59946" width="3.59041" height="1.00532" rx="0.50266" fill="#fde100"/><text transform="translate(244.74619 151.31153)" font-size="0.71808" font-family="Quartz-Regular, Quartz">0.447</text><path d="M234.61257,150.70787a.39425.39425,0,1,1-.39424.39425.394.394,0,0,1,.39424-.39425" fill="#fde100"/><line x1="234.61257" y1="151.10212" x2="231.17734" y2="151.10212" fill="none" stroke="#fde100" stroke-miterlimit="10" stroke-width="0.25"/><rect x="228.20844" y="150.59946" width="3.59041" height="1.00532" rx="0.50266" fill="#fde100"/><text transform="translate(229.11719 151.31153)" font-size="0.71808" font-family="Quartz-Regular, Quartz">0.433</text><path d="M241.08614,151.99591a.39425.39425,0,1,1-.39424.39425.394.394,0,0,1,.39424-.39425" fill="#fde100"/><line x1="241.08614" y1="152.39016" x2="245.66391" y2="152.39016" fill="none" stroke="#fde100" stroke-miterlimit="10" stroke-width="0.25"/><rect x="243.8371" y="151.8875" width="3.59041" height="1.00532" rx="0.50266" fill="#fde100"/><text transform="translate(245.27792 152.59958)" font-size="0.71808" font-family="Quartz-Regular, Quartz">OL</text><path d="M234.61257,151.99591a.39425.39425,0,1,1-.39424.39425.394.394,0,0,1,.39424-.39425" fill="#fde100"/><line x1="234.61257" y1="152.39016" x2="231.17734" y2="152.39016" fill="none" stroke="#fde100" stroke-miterlimit="10" stroke-width="0.25"/><rect x="228.20844" y="151.8875" width="3.59041" height="1.00532" rx="0.50266" fill="#fde100"/><text transform="translate(229.64941 152.59958)" font-size="0.71808" font-family="Quartz-Regular, Quartz">OL</text><path d="M241.08614,153.16983a.39425.39425,0,1,1-.39424.39425.39395.39395,0,0,1,.39424-.39425"/><line x1="241.08614" y1="153.56408" x2="245.66391" y2="153.56408" fill="none" stroke="#000" stroke-miterlimit="10" stroke-width="0.25"/><rect x="243.8371" y="153.06142" width="3.59041" height="1.00532" rx="0.50266"/><text transform="translate(244.74619 153.77349)" font-size="0.71808" fill="#fff" font-family="Quartz-Regular, Quartz">0.000</text><path d="M234.61257,153.16983a.39425.39425,0,1,1-.39424.39425.39395.39395,0,0,1,.39424-.39425" fill="#fde100"/><line x1="234.61257" y1="153.56408" x2="231.17734" y2="153.56408" fill="none" stroke="#fde100" stroke-miterlimit="10" stroke-width="0.25"/><rect x="228.20844" y="153.06142" width="3.59041" height="1.00532" rx="0.50266" fill="#fde100"/><text transform="translate(229.11719 153.77349)" font-size="0.71808" font-family="Quartz-Regular, Quartz">0.311</text><path d="M241.08614,154.42526a.39425.39425,0,1,1-.39424.39425.394.394,0,0,1,.39424-.39425" fill="#fde100"/><line x1="241.08614" y1="154.81951" x2="245.66391" y2="154.81951" fill="none" stroke="#fde100" stroke-miterlimit="10" stroke-width="0.25"/><rect x="243.8371" y="154.31685" width="3.59041" height="1.00532" rx="0.50266" fill="#fde100"/><text transform="translate(244.74619 155.02893)" font-size="0.71808" font-family="Quartz-Regular, Quartz">0.329</text><path d="M234.61257,154.42526a.39425.39425,0,1,1-.39424.39425.394.394,0,0,1,.39424-.39425" fill="#fde100"/><line x1="234.61257" y1="154.81951" x2="231.17734" y2="154.81951" fill="none" stroke="#fde100" stroke-miterlimit="10" stroke-width="0.25"/><rect x="228.20844" y="154.31685" width="3.59041" height="1.00532" rx="0.50266" fill="#fde100"/><text transform="translate(229.64941 155.02893)" font-size="0.71808" font-family="Quartz-Regular, Quartz">OL</text><path d="M241.08614,155.6807a.39425.39425,0,1,1-.39424.39425.39395.39395,0,0,1,.39424-.39425" fill="#fde100"/><line x1="241.08614" y1="156.07495" x2="245.66391" y2="156.07495" fill="none" stroke="#fde100" stroke-miterlimit="10" stroke-width="0.25"/><rect x="243.8371" y="155.57229" width="3.59041" height="1.00532" rx="0.50266" fill="#fde100"/><text transform="translate(244.74619 156.28436)" font-size="0.71808" font-family="Quartz-Regular, Quartz">0.329</text><path d="M234.61257,155.6807a.39425.39425,0,1,1-.39424.39425.39395.39395,0,0,1,.39424-.39425" fill="#fde100"/><line x1="234.61257" y1="156.07495" x2="231.17734" y2="156.07495" fill="none" stroke="#fde100" stroke-miterlimit="10" stroke-width="0.25"/><rect x="228.20844" y="155.57229" width="3.59041" height="1.00532" rx="0.50266" fill="#fde100"/><text transform="translate(229.64941 156.28436)" font-size="0.71808" font-family="Quartz-Regular, Quartz">OL</text><path d="M241.08614,156.93613a.39425.39425,0,1,1-.39424.39425.394.394,0,0,1,.39424-.39425"/><line x1="241.08614" y1="157.33038" x2="245.66391" y2="157.33038" fill="none" stroke="#000" stroke-miterlimit="10" stroke-width="0.25"/><rect x="243.8371" y="156.82772" width="3.59041" height="1.00532" rx="0.50266"/><text transform="translate(244.74619 157.5398)" font-size="0.71808" fill="#fff" font-family="Quartz-Regular, Quartz">0.000</text><path d="M234.61257,156.93613a.39425.39425,0,1,1-.39424.39425.394.394,0,0,1,.39424-.39425" fill="#fde100"/><line x1="234.61257" y1="157.33038" x2="231.17734" y2="157.33038" fill="none" stroke="#fde100" stroke-miterlimit="10" stroke-width="0.25"/><rect x="228.20844" y="156.82772" width="3.59041" height="1.00532" rx="0.50266" fill="#fde100"/><text transform="translate(228.93994 157.5398)" font-size="0.71808" font-family="Quartz-Regular, Quartz">0.432 </text><path d="M241.08614,158.19157a.39425.39425,0,1,1-.39424.39425.39395.39395,0,0,1,.39424-.39425" fill="#fde100"/><line x1="241.08614" y1="158.58582" x2="245.66391" y2="158.58582" fill="none" stroke="#fde100" stroke-miterlimit="10" stroke-width="0.25"/><rect x="243.8371" y="158.08315" width="3.59041" height="1.00532" rx="0.50266" fill="#fde100"/><text transform="translate(244.74619 158.79523)" font-size="0.71808" font-family="Quartz-Regular, Quartz">0.328</text><path d="M234.61257,158.19157a.39425.39425,0,1,1-.39424.39425.39395.39395,0,0,1,.39424-.39425" fill="#fde100"/><line x1="234.61257" y1="158.58582" x2="231.17734" y2="158.58582" fill="none" stroke="#fde100" stroke-miterlimit="10" stroke-width="0.25"/><rect x="228.20844" y="158.08315" width="3.59041" height="1.00532" rx="0.50266" fill="#fde100"/><text transform="translate(229.11719 158.79523)" font-size="0.71808" font-family="Quartz-Regular, Quartz">0.432</text><path d="M241.08614,159.34914a.39425.39425,0,1,1-.39424.39425.394.394,0,0,1,.39424-.39425" fill="#fde100"/><line x1="241.08614" y1="159.74339" x2="245.66391" y2="159.74339" fill="none" stroke="#fde100" stroke-miterlimit="10" stroke-width="0.25"/><rect x="243.8371" y="159.24073" width="3.59041" height="1.00532" rx="0.50266" fill="#fde100"/><text transform="translate(244.74619 159.95281)" font-size="0.71808" font-family="Quartz-Regular, Quartz">0.329</text><path d="M234.61257,159.34914a.39425.39425,0,1,1-.39424.39425.394.394,0,0,1,.39424-.39425" fill="#fde100"/><line x1="234.61257" y1="159.74339" x2="231.17734" y2="159.74339" fill="none" stroke="#fde100" stroke-miterlimit="10" stroke-width="0.25"/><rect x="228.20844" y="159.24073" width="3.59041" height="1.00532" rx="0.50266" fill="#fde100"/><text transform="translate(229.64941 159.95281)" font-size="0.71808" font-family="Quartz-Regular, Quartz">OL</text><path d="M241.08614,160.572a.39425.39425,0,1,1-.39424.39425.394.394,0,0,1,.39424-.39425"/><line x1="241.08614" y1="160.96622" x2="245.66391" y2="160.96622" fill="none" stroke="#000" stroke-miterlimit="10" stroke-width="0.25"/><rect x="243.8371" y="160.46356" width="3.59041" height="1.00532" rx="0.50266"/><text transform="translate(244.74619 161.17564)" font-size="0.71808" fill="#fff" font-family="Quartz-Regular, Quartz">0.000</text><path d="M234.61257,160.572a.39425.39425,0,1,1-.39424.39425.394.394,0,0,1,.39424-.39425" fill="#fde100"/><line x1="234.61257" y1="160.96622" x2="231.17734" y2="160.96622" fill="none" stroke="#fde100" stroke-miterlimit="10" stroke-width="0.25"/><rect x="228.20844" y="160.46356" width="3.59041" height="1.00532" rx="0.50266" fill="#fde100"/><text transform="translate(229.11719 161.17564)" font-size="0.71808" font-family="Quartz-Regular, Quartz">0.525</text><path d="M241.08614,161.7948a.39425.39425,0,1,1-.39424.39424.39394.39394,0,0,1,.39424-.39424" fill="#fde100"/><line x1="241.08614" y1="162.18904" x2="245.66391" y2="162.18904" fill="none" stroke="#fde100" stroke-miterlimit="10" stroke-width="0.25"/><rect x="243.8371" y="161.68638" width="3.59041" height="1.00532" rx="0.50266" fill="#fde100"/><text transform="translate(244.74619 162.39847)" font-size="0.71808" font-family="Quartz-Regular, Quartz">0.328</text><path d="M234.61257,161.7948a.39425.39425,0,1,1-.39424.39424.39394.39394,0,0,1,.39424-.39424" fill="#fde100"/><line x1="234.61257" y1="162.18904" x2="231.17734" y2="162.18904" fill="none" stroke="#fde100" stroke-miterlimit="10" stroke-width="0.25"/><rect x="228.20844" y="161.68638" width="3.59041" height="1.00532" rx="0.50266" fill="#fde100"/><text transform="translate(229.11719 162.39847)" font-size="0.71808" font-family="Quartz-Regular, Quartz">0.525</text><path d="M241.08614,163.01762a.39425.39425,0,1,1-.39424.39425.394.394,0,0,1,.39424-.39425" fill="#fde100"/><line x1="241.08614" y1="163.41187" x2="245.66391" y2="163.41187" fill="none" stroke="#fde100" stroke-miterlimit="10" stroke-width="0.25"/><rect x="243.8371" y="162.90921" width="3.59041" height="1.00532" rx="0.50266" fill="#fde100"/><text transform="translate(244.74619 163.62129)" font-size="0.71808" font-family="Quartz-Regular, Quartz">0.329</text><path d="M234.61257,163.01762a.39425.39425,0,1,1-.39424.39425.394.394,0,0,1,.39424-.39425" fill="#fde100"/><line x1="234.61257" y1="163.41187" x2="231.17734" y2="163.41187" fill="none" stroke="#fde100" stroke-miterlimit="10" stroke-width="0.25"/><rect x="228.20844" y="162.90921" width="3.59041" height="1.00532" rx="0.50266" fill="#fde100"/><text transform="translate(229.11719 163.62129)" font-size="0.71808" font-family="Quartz-Regular, Quartz">0.525</text><path d="M241.08614,164.322a.39425.39425,0,1,1-.39424.39425.394.394,0,0,1,.39424-.39425"/><line x1="241.08614" y1="164.71622" x2="245.66391" y2="164.71622" fill="none" stroke="#000" stroke-miterlimit="10" stroke-width="0.25"/><rect x="243.8371" y="164.21356" width="3.59041" height="1.00532" rx="0.50266"/><text transform="translate(244.74619 164.92564)" font-size="0.71808" fill="#fff" font-family="Quartz-Regular, Quartz">0.000</text><path d="M234.61257,164.322a.39425.39425,0,1,1-.39424.39425.394.394,0,0,1,.39424-.39425" fill="#fde100"/><line x1="234.61257" y1="164.71622" x2="231.17734" y2="164.71622" fill="none" stroke="#fde100" stroke-miterlimit="10" stroke-width="0.25"/><rect x="228.20844" y="164.21356" width="3.59041" height="1.00532" rx="0.50266" fill="#fde100"/><text transform="translate(229.11719 164.92564)" font-size="0.71808" font-family="Quartz-Regular, Quartz">0.525</text><path d="M241.08614,165.52849a.39425.39425,0,1,1-.39424.39425.394.394,0,0,1,.39424-.39425" fill="#fde100"/><line x1="241.08614" y1="165.92274" x2="245.66391" y2="165.92274" fill="none" stroke="#fde100" stroke-miterlimit="10" stroke-width="0.25"/><rect x="243.8371" y="165.42008" width="3.59041" height="1.00532" rx="0.50266" fill="#fde100"/><text transform="translate(245.27792 166.13216)" font-size="0.71808" font-family="Quartz-Regular, Quartz">OL</text><path d="M234.61257,165.52849a.39425.39425,0,1,1-.39424.39425.394.394,0,0,1,.39424-.39425" fill="#fde100"/><line x1="234.61257" y1="165.92274" x2="231.17734" y2="165.92274" fill="none" stroke="#fde100" stroke-miterlimit="10" stroke-width="0.25"/><rect x="228.20844" y="165.42008" width="3.59041" height="1.00532" rx="0.50266" fill="#fde100"/><text transform="translate(229.64941 166.13216)" font-size="0.71808" font-family="Quartz-Regular, Quartz">OL</text><path d="M241.08614,166.735a.39425.39425,0,1,1-.39424.39425.394.394,0,0,1,.39424-.39425"/><line x1="241.08614" y1="167.12926" x2="245.66391" y2="167.12926" fill="none" stroke="#000" stroke-miterlimit="10" stroke-width="0.25"/><rect x="243.8371" y="166.6266" width="3.59041" height="1.00532" rx="0.50266"/><text transform="translate(244.74619 167.33868)" font-size="0.71808" fill="#fff" font-family="Quartz-Regular, Quartz">0.000</text><path d="M234.61257,166.735a.39425.39425,0,1,1-.39424.39425.394.394,0,0,1,.39424-.39425" fill="#fde100"/><line x1="234.61257" y1="167.12926" x2="231.17734" y2="167.12926" fill="none" stroke="#fde100" stroke-miterlimit="10" stroke-width="0.25"/><rect x="228.20844" y="166.6266" width="3.59041" height="1.00532" rx="0.50266" fill="#fde100"/><text transform="translate(229.64941 167.33868)" font-size="0.71808" font-family="Quartz-Regular, Quartz">OL</text><path d="M330.77174,194.449a.46634.46634,0,1,1-.46633.46634.466.466,0,0,1,.46633-.46634"/><line x1="330.77174" y1="194.91536" x2="330.77174" y2="189.90108" fill="none" stroke="#000" stroke-miterlimit="10" stroke-width="0.25"/><rect x="328.64827" y="188.91944" width="4.24694" height="1.18915" rx="0.59458"/><text transform="translate(329.72482 189.76131)" font-size="0.84939" fill="#fff" font-family="Quartz-Regular, Quartz">0.000</text><path d="M315.038,194.449a.46634.46634,0,1,1-.46633.46634.466.466,0,0,1,.46633-.46634" fill="#fde100"/><line x1="315.03804" y1="194.91536" x2="315.03804" y2="189.90108" fill="none" stroke="#fde100" stroke-miterlimit="10" stroke-width="0.25"/><rect x="312.91457" y="188.91944" width="4.24694" height="1.18915" rx="0.59458" fill="#fde100"/><text transform="translate(313.99123 189.76131)" font-size="0.84939" font-family="Quartz-Regular, Quartz">0.441</text><path d="M331.24469,220.89933a.46634.46634,0,1,1-.46633.46634.466.466,0,0,1,.46633-.46634" fill="#fde100"/><line x1="331.24469" y1="221.36567" x2="331.24469" y2="229.02492" fill="none" stroke="#fde100" stroke-miterlimit="10" stroke-width="0.25"/><rect x="329.12121" y="228.04327" width="4.24694" height="1.18915" rx="0.59458" fill="#fde100"/><text transform="translate(330.19776 228.88515)" font-size="0.84939" font-family="Quartz-Regular, Quartz">0.410</text><path d="M323.2744,220.89933a.46634.46634,0,1,1-.46633.46634.466.466,0,0,1,.46633-.46634" fill="#fde100"/><line x1="323.2744" y1="221.36567" x2="323.2744" y2="229.02492" fill="none" stroke="#fde100" stroke-miterlimit="10" stroke-width="0.25"/><rect x="321.15093" y="228.04327" width="4.24694" height="1.18915" rx="0.59458" fill="#fde100"/><text transform="translate(322.22766 228.88515)" font-size="0.84939" font-family="Quartz-Regular, Quartz">0.442</text><path d="M315.352,220.89933a.46634.46634,0,1,1-.46633.46634.466.466,0,0,1,.46633-.46634" fill="#fde100"/><line x1="315.35202" y1="221.36567" x2="315.35202" y2="229.02492" fill="none" stroke="#fde100" stroke-miterlimit="10" stroke-width="0.25"/><rect x="313.22855" y="228.04327" width="4.24694" height="1.18915" rx="0.59458" fill="#fde100"/><text transform="translate(314.30521 228.88515)" font-size="0.84939" font-family="Quartz-Regular, Quartz">0.440</text><path d="M592.913,208.89131a.46634.46634,0,1,1-.46633.46634.466.466,0,0,1,.46633-.46634" fill="#fde100"/><line x1="592.91304" y1="209.35765" x2="592.91304" y2="204.34337" fill="none" stroke="#fde100" stroke-miterlimit="10" stroke-width="0.25"/><rect x="590.78957" y="203.36172" width="4.24694" height="1.18915" rx="0.59458" fill="#fde100"/><text transform="translate(591.86612 204.2036)" font-size="0.84939" font-family="Quartz-Regular, Quartz">0.339</text><path d="M584.94022,208.89131a.46634.46634,0,1,1-.46633.46634.466.466,0,0,1,.46633-.46634" fill="#fde100"/><line x1="584.94022" y1="209.35765" x2="584.94022" y2="204.34337" fill="none" stroke="#fde100" stroke-miterlimit="10" stroke-width="0.25"/><rect x="582.81675" y="203.36172" width="4.24694" height="1.18915" rx="0.59458" fill="#fde100"/><text transform="translate(583.89346 204.2036)" font-size="0.84939" font-family="Quartz-Regular, Quartz">0.471</text><path d="M577.17935,208.89131a.46634.46634,0,1,1-.46633.46634.466.466,0,0,1,.46633-.46634" fill="#fde100"/><line x1="577.17935" y1="209.35765" x2="577.17935" y2="204.34337" fill="none" stroke="#fde100" stroke-miterlimit="10" stroke-width="0.25"/><rect x="575.05588" y="203.36172" width="4.24694" height="1.18915" rx="0.59458" fill="#fde100"/><text transform="translate(576.76404 204.22838)" font-size="0.84939" font-family="Quartz-Regular, Quartz">OL</text><path d="M569.58152,208.89131a.46634.46634,0,1,1-.46633.46634.466.466,0,0,1,.46633-.46634"/><line x1="569.58152" y1="209.35765" x2="569.58152" y2="204.34337" fill="none" stroke="#000" stroke-miterlimit="10" stroke-width="0.25"/><rect x="567.45805" y="203.36172" width="4.24694" height="1.18915" rx="0.59458"/><text transform="translate(568.53471 204.2036)" font-size="0.84939" fill="#fff" font-family="Quartz-Regular, Quartz">0.000</text><path d="M431.40881,195.5444a.46634.46634,0,1,1-.46634-.46633.466.466,0,0,1,.46634.46633" fill="#fde100"/><line x1="430.94247" y1="195.5444" x2="435.95676" y2="195.5444" fill="none" stroke="#fde100" stroke-miterlimit="10" stroke-width="0.25"/><rect x="434.22035" y="194.94983" width="4.24694" height="1.18915" rx="0.59458" fill="#fde100"/><text transform="translate(435.29702 195.79232)" font-size="0.84939" font-family="Quartz-Regular, Quartz">0.619</text><path d="M431.40881,191.41125a.46634.46634,0,1,1-.46634-.46633.466.466,0,0,1,.46634.46633"/><line x1="430.94247" y1="191.41125" x2="435.95676" y2="191.41125" fill="none" stroke="#000" stroke-miterlimit="10" stroke-width="0.25"/><rect x="434.22035" y="190.81668" width="4.24694" height="1.18915" rx="0.59458"/><text transform="translate(435.29702 191.65917)" font-size="0.84939" fill="#fff" font-family="Quartz-Regular, Quartz">0.000</text><path d="M431.40881,187.08245a.46634.46634,0,1,1-.46634-.46633.466.466,0,0,1,.46634.46633"/><line x1="430.94247" y1="187.08245" x2="435.95676" y2="187.08245" fill="none" stroke="#000" stroke-miterlimit="10" stroke-width="0.25"/><rect x="434.22035" y="186.48787" width="4.24694" height="1.18915" rx="0.59458"/><text transform="translate(435.29702 187.33037)" font-size="0.84939" fill="#fff" font-family="Quartz-Regular, Quartz">0.000</text><path d="M431.40881,153.40969a.46634.46634,0,1,1-.46634-.46633.466.466,0,0,1,.46634.46633" fill="#fde100"/><line x1="430.94247" y1="153.40969" x2="435.95676" y2="153.40969" fill="none" stroke="#fde100" stroke-miterlimit="10" stroke-width="0.25"/><rect x="434.22035" y="152.81511" width="4.24694" height="1.18915" rx="0.59458" fill="#fde100"/><text transform="translate(435.29702 153.65761)" font-size="0.84939" font-family="Quartz-Regular, Quartz">0.530</text><path d="M431.40881,149.15425a.46634.46634,0,1,1-.46634-.46633.466.466,0,0,1,.46634.46633"/><line x1="430.94247" y1="149.15425" x2="435.95676" y2="149.15425" fill="none" stroke="#000" stroke-miterlimit="10" stroke-width="0.25"/><rect x="434.22035" y="148.55968" width="4.24694" height="1.18915" rx="0.59458"/><text transform="translate(435.29702 149.40217)" font-size="0.84939" fill="#fff" font-family="Quartz-Regular, Quartz">0.000</text><path d="M431.40881,144.89882a.46634.46634,0,1,1-.46634-.46633.466.466,0,0,1,.46634.46633"/><line x1="430.94247" y1="144.89882" x2="435.95676" y2="144.89882" fill="none" stroke="#000" stroke-miterlimit="10" stroke-width="0.25"/><rect x="434.22035" y="144.30424" width="4.24694" height="1.18915" rx="0.59458"/><text transform="translate(435.29702 145.14674)" font-size="0.84939" fill="#fff" font-family="Quartz-Regular, Quartz">0.000</text><path d="M386.92549,212.81767a.46634.46634,0,1,1,.46634.46633.466.466,0,0,1-.46634-.46633" fill="#fde100"/><line x1="387.39183" y1="212.81767" x2="382.37755" y2="212.81767" fill="none" stroke="#fde100" stroke-miterlimit="10" stroke-width="0.25"/><rect x="378.62413" y="214.80643" width="4.24694" height="1.18915" rx="0.59458" fill="#fde100"/><text transform="translate(379.7008 215.6483)" font-size="0.84939" font-family="Quartz-Regular, Quartz">0.410</text><path d="M387.15866,215.401a.46634.46634,0,1,1,.46634.46633.466.466,0,0,1-.46634-.46633" fill="#fde100"/><line x1="387.625" y1="215.401" x2="382.61072" y2="215.401" fill="none" stroke="#fde100" stroke-miterlimit="10" stroke-width="0.25"/><rect x="378.62413" y="212.22309" width="4.24694" height="1.18915" rx="0.59458" fill="#fde100"/><text transform="translate(379.70079 213.06497)" font-size="0.84939" font-family="Quartz-Regular, Quartz">0.439</text><path d="M345.91539,210.026a.46634.46634,0,1,1-.46634-.46633.466.466,0,0,1,.46634.46633" fill="#fde100"/><line x1="345.44905" y1="210.026" x2="350.46334" y2="210.026" fill="none" stroke="#fde100" stroke-miterlimit="10" stroke-width="0.25"/><rect x="350.24503" y="212.22309" width="4.24694" height="1.18915" rx="0.59458" fill="#fde100"/><text transform="translate(351.3217 213.06497)" font-size="0.84939" font-family="Quartz-Regular, Quartz">0.439</text><path d="M345.91539,212.81767a.46634.46634,0,1,1-.46634-.46633.466.466,0,0,1,.46634.46633" fill="#fde100"/><line x1="345.44905" y1="212.81767" x2="350.46334" y2="212.81767" fill="none" stroke="#fde100" stroke-miterlimit="10" stroke-width="0.25"/><rect x="350.07712" y="209.43143" width="4.24694" height="1.18915" rx="0.59458" fill="#fde100"/><text transform="translate(351.15379 210.2733)" font-size="0.84939" font-family="Quartz-Regular, Quartz">0.441</text><path d="M612.24348,195.05144a.46634.46634,0,1,1,.46634.46633.466.466,0,0,1-.46634-.46633" fill="#fde100"/><line x1="612.70982" y1="195.05144" x2="607.69554" y2="195.05144" fill="none" stroke="#fde100" stroke-miterlimit="10" stroke-width="0.25"/><rect x="605.185" y="194.45686" width="4.24694" height="1.18915" rx="0.59458" fill="#fde100"/><text transform="translate(606.26212 195.29876)" font-size="0.84939" font-family="Quartz-Regular, Quartz">0.602</text><path d="M612.24348,199.32318a.46634.46634,0,1,1,.46634.46633.466.466,0,0,1-.46634-.46633"/><line x1="612.70982" y1="199.32318" x2="607.69554" y2="199.32318" fill="none" stroke="#000" stroke-miterlimit="10" stroke-width="0.25"/><rect x="605.185" y="198.7286" width="4.24694" height="1.18915" rx="0.59458"/><text transform="translate(606.26212 199.5705)" font-size="0.84939" fill="#fff" font-family="Quartz-Regular, Quartz">0.000</text><path d="M612.24348,203.51339a.46634.46634,0,1,1,.46634.46633.466.466,0,0,1-.46634-.46633"/><line x1="612.70982" y1="203.51339" x2="607.69554" y2="203.51339" fill="none" stroke="#000" stroke-miterlimit="10" stroke-width="0.25"/><rect x="605.185" y="202.91882" width="4.24694" height="1.18915" rx="0.59458"/><text transform="translate(606.26212 203.76072)" font-size="0.84939" fill="#fff" font-family="Quartz-Regular, Quartz">0.000</text><path d="M355.51138,64.33308a.3034.3034,0,1,1,.30339.30339.30316.30316,0,0,1-.30339-.30339"/><line x1="355.81477" y1="64.33308" x2="355.81477" y2="61.06066" fill="none" stroke="#000" stroke-miterlimit="10" stroke-width="0.25"/><rect x="355.21845" y="60.19119" width="2.52489" height="0.70697" rx="0.35349" transform="translate(61.59928 269.80318) rotate(-45)"/><text transform="translate(356.2108 61.12598) rotate(-45)" font-size="0.50498" fill="#fff" font-family="Quartz-Regular, Quartz">0.000</text><path d="M354.41579,64.33308a.3034.3034,0,1,1,.30339.30339.30316.30316,0,0,1-.30339-.30339" fill="#fde100"/><line x1="354.71918" y1="64.33308" x2="354.71918" y2="61.06066" fill="none" stroke="#fde100" stroke-miterlimit="10" stroke-width="0.25"/><rect x="354.12286" y="60.19119" width="2.52489" height="0.70697" rx="0.35349" transform="translate(61.27839 269.02848) rotate(-45)" fill="#fde100"/><text transform="translate(355.11521 61.12598) rotate(-45)" font-size="0.50498" font-family="Quartz-Regular, Quartz">0.396</text><path d="M353.32007,64.33308a.3034.3034,0,1,1,.3034.30339.30317.30317,0,0,1-.3034-.30339"/><line x1="353.62347" y1="64.33308" x2="353.62347" y2="61.06066" fill="none" stroke="#000" stroke-miterlimit="10" stroke-width="0.25"/><rect x="353.02715" y="60.19119" width="2.52489" height="0.70697" rx="0.35349" transform="translate(60.95747 268.2537) rotate(-45)"/><text transform="translate(354.0195 61.12598) rotate(-45)" font-size="0.50498" fill="#fff" font-family="Quartz-Regular, Quartz">0.000</text><path d="M352.22448,64.33308a.3034.3034,0,1,1,.3034.30339.30317.30317,0,0,1-.3034-.30339" fill="#fde100"/><line x1="352.52788" y1="64.33308" x2="352.52788" y2="61.06066" fill="none" stroke="#fde100" stroke-miterlimit="10" stroke-width="0.25"/><rect x="351.93155" y="60.19119" width="2.52489" height="0.70697" rx="0.35349" transform="translate(60.63657 267.47899) rotate(-45)" fill="#fde100"/><text transform="translate(352.9239 61.12598) rotate(-45)" font-size="0.50498" font-family="Quartz-Regular, Quartz">0.996</text><path d="M351.18407,64.33308a.3034.3034,0,1,1,.3034.30339.30317.30317,0,0,1-.3034-.30339" fill="#fde100"/><line x1="351.48747" y1="64.33308" x2="351.48747" y2="61.06066" fill="none" stroke="#fde100" stroke-miterlimit="10" stroke-width="0.25"/><rect x="350.89114" y="60.19119" width="2.52489" height="0.70697" rx="0.35349" transform="translate(60.33185 266.74332) rotate(-45)" fill="#fde100"/><text transform="translate(351.88349 61.12598) rotate(-45)" font-size="0.50498" font-family="Quartz-Regular, Quartz">0.998</text><path d="M356.14642,69.14878a.3034.3034,0,1,1-.3034-.30339.30317.30317,0,0,1,.3034.30339"/><line x1="355.84302" y1="69.14878" x2="355.84302" y2="72.42121" fill="none" stroke="#000" stroke-miterlimit="10" stroke-width="0.25"/><rect x="355.2734" y="72.5837" width="2.52489" height="0.70697" rx="0.35349" transform="translate(156.00131 -230.7461) rotate(45)"/><text transform="translate(355.95543 72.66669) rotate(45)" font-size="0.50498" fill="#fff" font-family="Quartz-Regular, Quartz">0.000</text><path d="M355.01393,69.14878a.3034.3034,0,1,1-.30339-.30339.30316.30316,0,0,1,.30339.30339"/><line x1="354.71054" y1="69.14878" x2="354.71054" y2="72.42121" fill="none" stroke="#000" stroke-miterlimit="10" stroke-width="0.25"/><rect x="354.14092" y="72.5837" width="2.52489" height="0.70697" rx="0.35349" transform="translate(155.66961 -229.94532) rotate(45)"/><text transform="translate(354.82262 72.66669) rotate(45)" font-size="0.50498" fill="#fff" font-family="Quartz-Regular, Quartz">0.000</text><path d="M353.95511,69.14878a.3034.3034,0,1,1-.30339-.30339.30316.30316,0,0,1,.30339.30339"/><line x1="353.65172" y1="69.14878" x2="353.65172" y2="72.42121" fill="none" stroke="#000" stroke-miterlimit="10" stroke-width="0.25"/><rect x="353.08209" y="72.5837" width="2.52489" height="0.70697" rx="0.35349" transform="translate(155.35949 -229.19662) rotate(45)"/><text transform="translate(353.76402 72.66669) rotate(45)" font-size="0.50498" fill="#fff" font-family="Quartz-Regular, Quartz">0.000</text><path d="M352.80422,69.14878a.3034.3034,0,1,1-.3034-.30339.30317.30317,0,0,1,.3034.30339" fill="#fde100"/><line x1="352.50082" y1="69.14878" x2="352.50082" y2="72.42121" fill="none" stroke="#fde100" stroke-miterlimit="10" stroke-width="0.25"/><rect x="351.9312" y="72.5837" width="2.52489" height="0.70697" rx="0.35349" transform="translate(155.0224 -228.38281) rotate(45)" fill="#fde100"/><text transform="translate(352.90465 72.87622) rotate(45)" font-size="0.50498" font-family="Quartz-Regular, Quartz">OL</text><path d="M351.7546,69.14878a.3034.3034,0,1,1-.3034-.30339.30317.30317,0,0,1,.3034.30339" fill="#fde100"/><line x1="351.4512" y1="69.14878" x2="351.4512" y2="72.42121" fill="none" stroke="#fde100" stroke-miterlimit="10" stroke-width="0.25"/><rect x="350.88158" y="72.5837" width="2.52489" height="0.70697" rx="0.35349" transform="translate(154.71498 -227.64062) rotate(45)" fill="#fde100"/><text transform="translate(351.85484 72.87622) rotate(45)" font-size="0.50498" font-family="Quartz-Regular, Quartz">OL</text><path d="M545.375,75.43466a.46634.46634,0,1,1-.46633.46634.466.466,0,0,1,.46633-.46634" fill="#fde100"/><line x1="545.375" y1="75.901" x2="545.375" y2="70.88672" fill="none" stroke="#fde100" stroke-miterlimit="10" stroke-width="0.25"/><rect x="543.25153" y="69.90507" width="4.24694" height="1.18915" rx="0.59458" fill="#fde100"/><text transform="translate(544.32819 70.74693)" font-size="0.84939" font-family="Quartz-Regular, Quartz">0.994</text><path d="M545.375,61.077a.46634.46634,0,1,1,.46633-.46634.466.466,0,0,1-.46633.46634" fill="#fde100"/><line x1="545.375" y1="60.61068" x2="545.375" y2="65.62497" fill="none" stroke="#fde100" stroke-miterlimit="10" stroke-width="0.25"/><rect x="543.25153" y="65.41746" width="4.24694" height="1.18915" rx="0.59458" fill="#fde100"/><text transform="translate(544.32764 66.2588)" font-size="0.84939" font-family="Quartz-Regular, Quartz">0.992</text><rect x="532.39747" y="53.93779" width="25.0224" height="3.75" rx="1.875" fill="#fde100"/><text transform="translate(543.08673 56.61406)" font-size="2.5" font-family="Quartz-Regular, Quartz">EAR</text><rect x="538.2864" y="95.83583" width="25.0224" height="3.75" rx="1.875" fill="#fde100"/><text transform="translate(544.01031 98.51226)" font-size="2.5" font-family="Quartz-Regular, Quartz">REAR CAMERA</text><rect x="567.45805" y="213.71095" width="25.0224" height="3.75" rx="1.875" fill="#fde100"/><text transform="translate(570.22795 216.38716)" font-size="2.5" font-family="Quartz-Regular, Quartz">BATTERY CONNECTOR</text><rect x="599.41667" y="187.08595" width="22.22305" height="3.75" rx="1.875" fill="#fde100"/><text transform="translate(605.3376 189.76233) scale(0.88813 1)" font-size="2.5" font-family="Quartz-Regular, Quartz">ON/OFF KEY</text><rect x="417.33835" y="169.00002" width="21.3974" height="3.75" rx="1.875" transform="translate(257.16202 598.91207) rotate(-90)" fill="#fde100"/><text transform="translate(428.83829 177.08264) rotate(-90)" font-size="2.5" font-family="Quartz-Regular, Quartz">VOLUME KEY</text><rect x="508.72474" y="465.62755" width="25.23073" height="3.75" rx="1.875" fill="#fde100"/><text transform="translate(511.44696 468.30386)" font-size="2.5" font-family="Quartz-Regular, Quartz">CHARGER CONNECTOR</text><path d="M556.98271,442.20067a.46634.46634,0,1,1,.46633-.46634.466.466,0,0,1-.46633.46634" fill="#fde100"/><line x1="556.98271" y1="441.73433" x2="556.98271" y2="446.74862" fill="none" stroke="#fde100" stroke-miterlimit="10" stroke-width="0.25"/><rect x="554.85924" y="446.35834" width="4.24694" height="1.18915" rx="0.59458" fill="#fde100"/><text transform="translate(555.93591 447.20084)" font-size="0.84939" font-family="Quartz-Regular, Quartz">0.326</text><path d="M518.875,459.67877a.46634.46634,0,1,1-.46633.46634.466.466,0,0,1,.46633-.46634" fill="#fde100"/><line x1="518.875" y1="460.14511" x2="518.875" y2="455.13083" fill="none" stroke="#fde100" stroke-miterlimit="10" stroke-width="0.25"/><path d="M520.41667,459.67877a.46634.46634,0,1,1-.46633.46634.466.466,0,0,1,.46633-.46634" fill="#fde100"/><line x1="520.41667" y1="460.14511" x2="520.41667" y2="455.13083" fill="none" stroke="#fde100" stroke-miterlimit="10" stroke-width="0.25"/><path d="M521.95833,459.67877a.46634.46634,0,1,1-.46633.46634.466.466,0,0,1,.46633-.46634" fill="#fde100"/><line x1="521.95833" y1="460.14511" x2="521.95833" y2="455.13083" fill="none" stroke="#fde100" stroke-miterlimit="10" stroke-width="0.25"/><path d="M524.29167,459.67877a.46634.46634,0,1,1-.46633.46634.466.466,0,0,1,.46633-.46634" fill="#fde100"/><line x1="524.29167" y1="460.14511" x2="524.29167" y2="455.13083" fill="none" stroke="#fde100" stroke-miterlimit="10" stroke-width="0.25"/><path d="M526.5,459.67877a.46634.46634,0,1,1-.46633.46634.466.466,0,0,1,.46633-.46634" fill="#fde100"/><line x1="526.5" y1="460.14511" x2="526.5" y2="455.13083" fill="none" stroke="#fde100" stroke-miterlimit="10" stroke-width="0.25"/><rect x="525.61107" y="453.42047" width="3.82225" height="1.07024" rx="0.53512" transform="translate(-166.4874 505.97503) rotate(-45)" fill="#fde100"/><text transform="translate(527.05251 454.81827) rotate(-45)" font-size="0.76445" font-family="Quartz-Regular, Quartz">0.486</text><rect x="517.98607" y="453.42047" width="3.82225" height="1.07024" rx="0.53512" transform="translate(-168.72072 500.58334) rotate(-45)" fill="#fde100"/><text transform="translate(519.42759 454.81827) rotate(-45)" font-size="0.76445" font-family="Quartz-Regular, Quartz">0.453</text><rect x="519.52773" y="453.42047" width="3.82225" height="1.07024" rx="0.53512" transform="translate(-168.26917 501.67347) rotate(-45)" fill="#fde100"/><text transform="translate(520.96888 454.81827) rotate(-45)" font-size="0.76445" font-family="Quartz-Regular, Quartz">0.582</text><rect x="521.0694" y="453.42047" width="3.82225" height="1.07024" rx="0.53512" transform="translate(-167.81763 502.76359) rotate(-45)" fill="#fde100"/><text transform="translate(522.5105 454.81792) rotate(-45)" font-size="0.76445" font-family="Quartz-Regular, Quartz">0.581</text><rect x="523.40273" y="453.42047" width="3.82225" height="1.07024" rx="0.53512" transform="translate(-167.13421 504.4135) rotate(-45)" fill="#fde100"/><text transform="translate(524.84417 454.81827) rotate(-45)" font-size="0.76445" font-family="Quartz-Regular, Quartz">0.434</text><path d="M548.94247,442.20067a.46634.46634,0,1,1,.46633-.46634.466.466,0,0,1-.46633.46634"/><line x1="548.94247" y1="441.73433" x2="548.94247" y2="446.74862" fill="none" stroke="#000" stroke-miterlimit="10" stroke-width="0.25"/><rect x="546.819" y="446.35834" width="4.24694" height="1.18915" rx="0.59458"/><text transform="translate(547.89568 447.20084)" font-size="0.84939" fill="#fff" font-family="Quartz-Regular, Quartz">0.000</text><path d="M514.20834,459.67877a.46634.46634,0,1,1-.46633.46634.466.466,0,0,1,.46633-.46634"/><line x1="514.20834" y1="460.14511" x2="514.20834" y2="455.13083" fill="none" stroke="#000" stroke-miterlimit="10" stroke-width="0.25"/><path d="M516.75,459.67877a.46634.46634,0,1,1-.46633.46634.466.466,0,0,1,.46633-.46634"/><line x1="516.75" y1="460.14511" x2="516.75" y2="455.13083" fill="none" stroke="#000" stroke-miterlimit="10" stroke-width="0.25"/><rect x="513.3194" y="453.42047" width="3.82225" height="1.07024" rx="0.53512" transform="translate(-170.08755 497.28351) rotate(-45)"/><text transform="translate(514.76095 454.81827) rotate(-45)" font-size="0.76445" fill="#fff" font-family="Quartz-Regular, Quartz">0.000</text><rect x="515.86107" y="453.42047" width="3.82225" height="1.07024" rx="0.53512" transform="translate(-169.34311 499.08074) rotate(-45)"/><text transform="translate(517.30212 454.81827) rotate(-45)" font-size="0.76445" fill="#fff" font-family="Quartz-Regular, Quartz">0.000</text><rect x="544.01031" y="431.29421" width="17.98945" height="3.75" rx="1.875" fill="#fde100"/><text transform="translate(548.02303 433.97052)" font-size="2.5" font-family="Quartz-Regular, Quartz">HOME KEY</text><rect x="343.89274" y="54.73922" width="19.92865" height="3.75" rx="1.875" fill="#fde100"/><text transform="translate(348.47084 57.41525)" font-size="2.5" font-family="Quartz-Regular, Quartz">HANDSFREE</text><rect x="241.38156" y="86.00255" width="21.3974" height="3.75" rx="1.875" fill="#fde100"/><text transform="translate(244.79016 88.67887)" font-size="2.5" font-family="Quartz-Regular, Quartz">FRONT CAMERA</text><rect x="226.7931" y="140.98692" width="21.3974" height="3.75" rx="1.875" fill="#fde100"/><text transform="translate(235.71194 143.66325)" font-size="2.5" font-family="Quartz-Regular, Quartz">LCD</text><rect x="309.91988" y="204.94005" width="21.3974" height="3.75" rx="1.875" fill="#fde100"/><text transform="translate(314.99365 207.61637)" font-size="2.5" font-family="Quartz-Regular, Quartz">SIM CARD 2</text><rect x="354.0195" y="149.43659" width="21.3974" height="3.75" rx="1.875" fill="#fde100"/><text transform="translate(361.21823 152.11283)" font-size="2.5" font-family="Quartz-Regular, Quartz">BUZZER</text><rect x="355.95543" y="204.0338" width="21.3974" height="3.75" rx="1.875" fill="#fde100"/><text transform="translate(361.0289 206.71012)" font-size="2.5" font-family="Quartz-Regular, Quartz">SIM CARD 1</text><path d="M361.15625,157.46109a.46634.46634,0,1,1,.46633-.46634.466.466,0,0,1-.46633.46634" fill="#fde100"/><line x1="361.15625" y1="156.99475" x2="361.15625" y2="162.00904" fill="none" stroke="#fde100" stroke-miterlimit="10" stroke-width="0.25"/><rect x="367.50153" y="161.8039" width="4.24694" height="1.18915" rx="0.59458" fill="#fde100"/><text transform="translate(368.57807 162.64577)" font-size="0.84939" font-family="Quartz-Regular, Quartz">0.487</text><path d="M369.625,157.46109a.46634.46634,0,1,1,.46633-.46634.466.466,0,0,1-.46633.46634" fill="#fde100"/><line x1="369.625" y1="156.99475" x2="369.625" y2="162.00904" fill="none" stroke="#fde100" stroke-miterlimit="10" stroke-width="0.25"/><rect x="359.03278" y="161.8039" width="4.24694" height="1.18915" rx="0.59458" fill="#fde100"/><text transform="translate(360.10949 162.64577)" font-size="0.84939" font-family="Quartz-Regular, Quartz">0.488</text></svg>