<svg xmlns="http://www.w3.org/2000/svg" viewBox="0 0 841.88976 595.27559"><title>Input Output Voltages</title><path d="M646.38533,42.57969a21.29,21.29,0,0,0,0-42.5799H195.50453a21.29,21.29,0,1,0,0,42.5799Z" fill="#292c31"/><text transform="translate(300.62133 26.58634)" font-size="16" fill="#fff" font-family="DINCond-Bold" font-weight="700">SAMSUNG SM-G532F &gt; <tspan x="123.13281" y="0" font-size="14">INPUT OUTPUT </tspan><tspan x="193.98535" y="0" font-size="14" letter-spacing="0.00293em">V</tspan><tspan x="200.14453" y="0" font-size="14" letter-spacing="0.00007em">O</tspan><tspan x="206.61328" y="0" font-size="14" letter-spacing="-0.05001em">L</tspan><tspan x="211.27539" y="0" font-size="14" letter-spacing="-0.05204em">T</tspan><tspan x="216.04883" y="0" font-size="14" letter-spacing="-0.00398em">A</tspan><tspan x="222.54492" y="0" font-size="14">GES</tspan></text><rect width="841.88976" height="595.27559" fill="none"/><path d="M267.358,178.212a.41638.41638,0,0,0-.40923.40773.40667.40667,0,0,0,.40923.4082.41676.41676,0,0,0,.40874-.4082.42746.42746,0,0,0-.40874-.40773" fill="#ff00ca"/><polyline points="267.358 178.62 269.602 178.62 269.602 161.464" fill="none" stroke="#ff00ca" stroke-miterlimit="22.9256" stroke-width="0.27567"/><rect x="264.62314" y="160.22169" width="9.95761" height="3.03118" rx="1.51559" fill="#ff00ca"/><text transform="translate(266.76601 162.65202)" font-size="1.12995" fill="#fff" font-family="DINCond-Bold" font-weight="700">VPH_PWR_PM</text><path d="M255.53305,181.79214a.41685.41685,0,0,0-.40923.4082.40658.40658,0,0,0,.40923.40772.41636.41636,0,0,0,.40876-.40772.42761.42761,0,0,0-.40876-.4082" fill="#ff00ca"/><rect x="248.81803" y="158.09292" width="9.9574" height="3.08986" rx="1.54493" fill="#ff00ca"/><path d="M300.33137,147.1933a.41629.41629,0,0,0-.40876.4077.40658.40658,0,0,0,.40876.4082.41687.41687,0,0,0,.40923-.4082.42755.42755,0,0,0-.40923-.4077" fill="#ff00ca"/><path d="M290.01983,161.43875a.41681.41681,0,0,0-.40972.4077.40667.40667,0,0,0,.40972.40772.41665.41665,0,0,0,.40874-.40772.42783.42783,0,0,0-.40874-.4077" fill="#ff00ca"/><polyline points="290.019 161.846 287.701 161.846 287.701 142.544" fill="none" stroke="#ff00ca" stroke-miterlimit="22.9256" stroke-width="0.27567"/><rect x="282.72202" y="141.00775" width="9.95761" height="3.05175" rx="1.52587" fill="#ff00ca"/><text transform="translate(284.16225 143.45843)" font-size="1.12995" fill="#fff" font-family="DINCond-Bold" font-weight="700">VDD_VPROC_1P15</text><path d="M293.3132,167.99668a.41671.41671,0,0,0-.40923.40769.407.407,0,0,0,.40923.4082.41677.41677,0,0,0,.40874-.4082.42746.42746,0,0,0-.40874-.40769" fill="#ff00ca"/><polyline points="293.313 168.405 293.313 166.548 311.078 166.548" fill="none" stroke="#ff00ca" stroke-miterlimit="22.9256" stroke-width="0.27567"/><rect x="304.68748" y="165.04092" width="9.95761" height="3.0148" rx="1.5074" fill="#ff00ca"/><text transform="translate(306.51003 167.45491)" font-size="1.12995" fill="#fff" font-family="DINCond-Bold" font-weight="700">VDD_VLTE_1P05</text><path d="M294.54152,176.25922a.41675.41675,0,0,0-.40924.40776.407.407,0,0,0,.40924.4082.41719.41719,0,0,0,.40922-.4082.42794.42794,0,0,0-.40922-.40776" fill="#ff00ca"/><line x1="294.54152" y1="176.66745" x2="311.34985" y2="176.66745" fill="none" stroke="#ff00ca" stroke-miterlimit="22.9256" stroke-width="0.27567"/><rect x="305.41207" y="175.12913" width="9.9574" height="3.07614" rx="1.53807" fill="#ff00ca"/><text transform="translate(308.57511 177.6041)" font-size="1.12995" fill="#fff" font-family="DINCond-Bold" font-weight="700">VDD_VPA</text><path d="M273.33532,209.33973a.417.417,0,0,0-.40923.4077.407.407,0,0,0,.40923.4082.41719.41719,0,0,0,.40923-.4082.42827.42827,0,0,0-.40923-.4077" fill="#ff00ca"/><line x1="273.33532" y1="209.74791" x2="273.33532" y2="223.9766" fill="none" stroke="#ff00ca" stroke-miterlimit="22.9256" stroke-width="0.27567"/><rect x="268.35651" y="222.03248" width="9.95761" height="2.98185" rx="1.49093" fill="#ff00ca"/><text transform="translate(269.6012 224.41326)" font-size="1.12995" fill="#fff" font-family="DINCond-Bold" font-weight="700">VDD_VTCXO_0_2P8</text><rect x="284.90205" y="223.33869" width="9.95761" height="3.10806" rx="1.55403" fill="#ff00ca"/><text transform="translate(287.26732 225.84564)" font-size="1.12995" fill="#fff" font-family="DINCond-Bold" font-weight="700">VUSB33_PMU</text><rect x="291.60419" y="212.74456" width="9.95742" height="3.04385" rx="1.52192" fill="#ff00ca"/><text transform="translate(295.08022 215.18714)" font-size="1.12995" fill="#fff" font-family="DINCond-Bold" font-weight="700">VAUD28</text><path d="M289.54447,181.975a.41641.41641,0,0,0-.40923.40773.40689.40689,0,0,0,.40923.40772.4171.4171,0,0,0,.40923-.40772.42757.42757,0,0,0-.40923-.40773" fill="#ff00ca"/><polyline points="289.544 182.383 289.544 181.018 305.204 181.018" fill="none" stroke="#ff00ca" stroke-miterlimit="22.9256" stroke-width="0.27567"/><rect x="295.75412" y="179.47526" width="11.71507" height="3.08512" rx="1.54256" fill="#ff00ca"/><text transform="translate(297.45907 181.95957)" font-size="1.12995" fill="#fff" font-family="DINCond-Bold" font-weight="700">VDD_VRF18_0_1P825</text><path d="M259.31067,189.46007a.4163.4163,0,0,0-.40923.40722.40637.40637,0,0,0,.40923.4082.41643.41643,0,0,0,.40876-.4082.4274.4274,0,0,0-.40876-.40722" fill="#ff00ca"/><polyline points="259.31 189.868 259.31 190.972 240.503 190.972" fill="none" stroke="#ff00ca" stroke-miterlimit="22.9256" stroke-width="0.27567"/><rect x="237.44872" y="189.48186" width="9.95742" height="2.98128" rx="1.49064" fill="#ff00ca"/><text transform="translate(240.79828 191.86185)" font-size="1.12995" fill="#fff" font-family="DINCond-Bold" font-weight="700">VDD_VM</text><path d="M252.29816,183.26185a.41674.41674,0,0,0-.40925.40773.40668.40668,0,0,0,.40925.40817.41684.41684,0,0,0,.40921-.40817.42791.42791,0,0,0-.40921-.40773" fill="#ff00ca"/><line x1="252.29816" y1="183.67005" x2="230.07768" y2="183.67005" fill="none" stroke="#ff00ca" stroke-miterlimit="22.9256" stroke-width="0.27567"/><rect x="228.05843" y="182.15423" width="9.95761" height="3.03115" rx="1.51557" fill="#ff00ca"/><text transform="translate(229.64685 184.58468)" font-size="1.12995" fill="#fff" font-family="DINCond-Bold" font-weight="700">VDD_VSRAM_1P2</text><path d="M252.29816,187.23364a.41676.41676,0,0,0-.40925.40776.407.407,0,0,0,.40925.40814.41714.41714,0,0,0,.40921-.40814.42794.42794,0,0,0-.40921-.40776" fill="#ff00ca"/><polyline points="252.298 187.642 231.061 187.642 231.061 188.806" fill="none" stroke="#ff00ca" stroke-miterlimit="22.9256" stroke-width="0.27567"/><rect x="225.53215" y="188.53797" width="11.05736" height="3.16259" rx="1.5813" fill="#ff00ca"/><text transform="translate(226.91605 191.09928)" font-size="1.12995" fill="#fff" font-family="DINCond-Bold" font-weight="700">VDD_CAM_CORE_1P2</text><path d="M281.05435,202.00936a.41672.41672,0,0,0-.40922.40772.407.407,0,0,0,.40922.40817.41673.41673,0,0,0,.40874-.40817.42745.42745,0,0,0-.40874-.40772" fill="#ff00ca"/><path d="M260.90376,170.26312a.41638.41638,0,0,0-.40923.40767.40669.40669,0,0,0,.40923.40823.41678.41678,0,0,0,.40876-.40823.42746.42746,0,0,0-.40876-.40767" fill="#ff00ca"/><rect x="248.85361" y="148.38951" width="9.9574" height="3.03028" rx="1.51514" fill="#ff00ca"/><text transform="translate(250.9578 150.81826)" font-size="1.12995" fill="#fff" font-family="DINCond-Bold" font-weight="700">VDD_CAM_1P8</text><path d="M260.90376,172.12839a.41639.41639,0,0,0-.40923.40772.40666.40666,0,0,0,.40923.40817.41674.41674,0,0,0,.40876-.40817.42747.42747,0,0,0-.40876-.40772" fill="#ff00ca"/><path d="M254.85294,187.371a.41683.41683,0,0,0-.40972.4077.40707.40707,0,0,0,.40972.4082.41707.41707,0,0,0,.40876-.4082.42785.42785,0,0,0-.40876-.4077" fill="#ff00ca"/><polyline points="254.852 187.779 254.852 186.638 220.782 186.638" fill="none" stroke="#ff00ca" stroke-miterlimit="22.9256" stroke-width="0.27567"/><rect x="219.58895" y="185.11577" width="9.95761" height="3.04459" rx="1.52229" fill="#ff00ca"/><text transform="translate(221.45521 187.55952)" font-size="1.12995" fill="#fff" font-family="DINCond-Bold" font-weight="700">VDD_VIO18_1P8</text><path d="M256.42752,199.0185a.41639.41639,0,0,0-.40923.40773.40623.40623,0,0,0,.40923.40766.41629.41629,0,0,0,.40874-.40766.42747.42747,0,0,0-.40874-.40773" fill="#ff00ca"/><polyline points="256.427 199.426 256.427 200.337 241.188 200.337" fill="none" stroke="#ff00ca" stroke-miterlimit="22.9256" stroke-width="0.27567"/><rect x="239.40302" y="198.83804" width="9.95742" height="2.99746" rx="1.49873" fill="#ff00ca"/><text transform="translate(241.20619 201.23431)" font-size="1.12995" fill="#fff" font-family="DINCond-Bold" font-weight="700">VDD_MMC2_2P9</text><path d="M280.23589,209.04023a.41642.41642,0,0,0-.40924.40773.407.407,0,0,0,.40924.4082.4172.4172,0,0,0,.40924-.4082.42757.42757,0,0,0-.40924-.40773" fill="#ff00ca"/><polyline points="281.054 202.418 281.054 191.865 292.087 191.865" fill="none" stroke="#ff00ca" stroke-miterlimit="22.9256" stroke-width="0.27567"/><rect x="285.46512" y="190.35774" width="12.66507" height="3.01369" rx="1.50684" fill="#ff00ca"/><text transform="translate(286.85674 192.77051)" font-size="1.12995" fill="#fff" font-family="DINCond-Bold" font-weight="700">VDD_CAM_SENSOR_A2P8</text><line x1="280.23589" y1="209.44796" x2="280.23589" y2="227.27665" fill="none" stroke="#ff00ca" stroke-miterlimit="22.9256" stroke-width="0.27567"/><rect x="275.25719" y="226.23578" width="9.9574" height="3.10321" rx="1.55161" fill="#ff00ca"/><text transform="translate(276.84212 228.73833)" font-size="1.12995" fill="#fff" font-family="DINCond-Bold" font-weight="700">VDDF_EMMC_3P0</text><path d="M283.031,202.00936a.41673.41673,0,0,0-.40925.40772.407.407,0,0,0,.40925.40817.41675.41675,0,0,0,.40874-.40817.42748.42748,0,0,0-.40874-.40772" fill="#ff00ca"/><polyline points="282.762 202.418 297.63 202.418 297.63 203.923" fill="none" stroke="#ff00ca" stroke-miterlimit="22.9256" stroke-width="0.27567"/><rect x="292.65093" y="203.39993" width="9.95742" height="3.03108" rx="1.51554" fill="#ff00ca"/><text transform="translate(294.17725 205.83023)" font-size="1.12995" fill="#fff" font-family="DINCond-Bold" font-weight="700">VDD_VEFUSE_1P8</text><path d="M282.95957,205.26814a.41675.41675,0,0,0-.40924.40773.407.407,0,0,0,.40924.4082.41678.41678,0,0,0,.40875-.4082.42751.42751,0,0,0-.40875-.40773" fill="#ff00ca"/><polyline points="282.762 205.676 283.891 205.676 283.891 224.893 286.745 224.893" fill="none" stroke="#ff00ca" stroke-miterlimit="22.9256" stroke-width="0.27567"/><path d="M290.00747,205.26814a.41632.41632,0,0,0-.40874.40773.40658.40658,0,0,0,.40874.4082.41685.41685,0,0,0,.40923-.4082.42756.42756,0,0,0-.40923-.40773" fill="#ff00ca"/><path d="M252.51787,181.51257a.4164.4164,0,0,0-.40925.40772.4067.4067,0,0,0,.40925.4082.41677.41677,0,0,0,.40874-.4082.42747.42747,0,0,0-.40874-.40772" fill="#ff00ca"/><polyline points="255.533 182.2 253.797 182.2 253.797 160.222" fill="none" stroke="#ff00ca" stroke-miterlimit="22.9256" stroke-width="0.27567"/><polyline points="260.904 170.671 260.904 149.905 257.797 149.905" fill="none" stroke="#ff00ca" stroke-miterlimit="22.9256" stroke-width="0.27567"/><polyline points="260.904 172.537 262.291 172.537 262.291 145.391" fill="none" stroke="#ff00ca" stroke-miterlimit="22.9256" stroke-width="0.27567"/><rect x="257.31255" y="143.18358" width="9.9574" height="2.97835" rx="1.48917" fill="#ff00ca"/><text transform="translate(258.67113 145.5612)" font-size="1.12995" fill="#fff" font-family="DINCond-Bold" font-weight="700">VDD_CAM_AF_2P8</text><polyline points="252.517 181.92 237.516 181.92 237.516 179.028" fill="none" stroke="#ff00ca" stroke-miterlimit="22.9256" stroke-width="0.27567"/><rect x="232.53778" y="177.35391" width="9.95742" height="3.05251" rx="1.52625" fill="#ff00ca"/><text transform="translate(234.26087 179.80534)" font-size="1.12995" fill="#fff" font-family="DINCond-Bold" font-weight="700">VDD_VCN18_1P8</text><path d="M287.9504,205.08518a.41639.41639,0,0,0-.40923.40773.40664.40664,0,0,0,.40923.40814.41672.41672,0,0,0,.40874-.40814.42747.42747,0,0,0-.40874-.40773" fill="#ff00ca"/><polyline points="289.723 205.676 290.938 205.676 290.938 214.266 293.331 214.266" fill="none" stroke="#ff00ca" stroke-miterlimit="22.9256" stroke-width="0.27567"/><polyline points="287.777 205.493 288.818 205.493 288.818 219.035 291.527 219.035" fill="none" stroke="#ff00ca" stroke-miterlimit="22.9256" stroke-width="0.27567"/><rect x="289.60078" y="217.55279" width="9.95761" height="2.96498" rx="1.48249" fill="#ff00ca"/><text transform="translate(291.32397 219.91698)" font-size="1.12995" fill="#fff" font-family="DINCond-Bold" font-weight="700">VDD_VCN28_2P8</text><path d="M285.45475,205.90106a.41643.41643,0,0,0-.40925.40776.40658.40658,0,0,0,.40925.40772.41677.41677,0,0,0,.40922-.40772.42759.42759,0,0,0-.40922-.40776" fill="#ff00ca"/><polyline points="285.269 206.309 286.745 206.309 286.745 221.862 301.193 221.862" fill="none" stroke="#ff00ca" stroke-miterlimit="22.9256" stroke-width="0.27567"/><rect x="298.13122" y="220.30312" width="9.95761" height="3.11697" rx="1.55848" fill="#ff00ca"/><text transform="translate(299.85442 222.8194)" font-size="1.12995" fill="#fff" font-family="DINCond-Bold" font-weight="700">VDD_VCN33_3P3</text><path d="M254.71457,195.72914a.41671.41671,0,0,0-.40922.4077.40658.40658,0,0,0,.40922.40772.41677.41677,0,0,0,.40925-.40772.42791.42791,0,0,0-.40925-.4077" fill="#ff00ca"/><polyline points="254.715 196.137 254.715 195.081 235.433 195.081" fill="none" stroke="#ff00ca" stroke-miterlimit="22.9256" stroke-width="0.27567"/><rect x="228.05843" y="193.61161" width="9.95761" height="2.93905" rx="1.46952" fill="#ff00ca"/><text transform="translate(230.02161 195.94943)" font-size="1.12995" fill="#fff" font-family="DINCond-Bold" font-weight="700">VDD_TSP_A3P0</text><path d="M256.69839,201.38078a.41674.41674,0,0,0-.40923.40775.407.407,0,0,0,.40923.4082.41677.41677,0,0,0,.40875-.4082.4275.4275,0,0,0-.40875-.40775" fill="#ff00ca"/><polyline points="256.698 201.789 256.698 203.736 230.078 203.736" fill="none" stroke="#ff00ca" stroke-miterlimit="22.9256" stroke-width="0.27567"/><rect x="225.82591" y="202.16746" width="9.95742" height="3.1377" rx="1.56885" fill="#ff00ca"/><text transform="translate(227.87004 204.70408)" font-size="1.12995" fill="#fff" font-family="DINCond-Bold" font-weight="700">VDD_VIBR_3P3</text><path d="M332.85548,179.38784a.4163.4163,0,0,0-.40923.40722.40669.40669,0,0,0,.40923.4082.41687.41687,0,0,0,.40924-.4082.42748.42748,0,0,0-.40924-.40722" fill="#ff00ca"/><line x1="332.85499" y1="179.79553" x2="340.85066" y2="179.79553" fill="none" stroke="#ff00ca" stroke-miterlimit="22.9256" stroke-width="0.27567"/><rect x="339.4462" y="178.33314" width="9.95761" height="2.9444" rx="1.4722" fill="#ff00ca"/><text transform="translate(341.21217 180.67626)" font-size="1.12995" fill="#fff" font-family="DINCond-Bold" font-weight="700">VDD_VSIM2_1P8</text><path d="M289.652,201.19394a.4163.4163,0,0,0-.40922.40722.40665.40665,0,0,0,.40922.4082.41682.41682,0,0,0,.40924-.4082.42747.42747,0,0,0-.40924-.40722" fill="#ff00ca"/><polyline points="289.652 201.602 289.652 200.627 308.229 200.627 308.229 203.548" fill="none" stroke="#ff00ca" stroke-miterlimit="22.9256" stroke-width="0.27567"/><rect x="303.25061" y="203.09085" width="9.9574" height="3.03109" rx="1.51554" fill="#ff00ca"/><text transform="translate(304.95563 205.52116)" font-size="1.12995" fill="#fff" font-family="DINCond-Bold" font-weight="700">VUXADC_REF_RF</text><path d="M284.45132,199.81111a.41607.41607,0,0,0-.40923.40773.40625.40625,0,0,0,.40923.40769.41631.41631,0,0,0,.40874-.40769.42712.42712,0,0,0-.40874-.40773" fill="#ff00ca"/><polyline points="284.451 200.219 284.451 199.016 311.078 199.016" fill="none" stroke="#ff00ca" stroke-miterlimit="22.9256" stroke-width="0.27567"/><rect x="307.80405" y="197.49822" width="11.27661" height="3.03476" rx="1.51738" fill="#ff00ca"/><text transform="translate(309.41159 199.93182)" font-size="1.12995" fill="#fff" font-family="DINCond-Bold" font-weight="700">VDD_EAR_MICBIAS1 </text><path d="M284.45132,197.95456a.41639.41639,0,0,0-.40923.40772.40668.40668,0,0,0,.40923.4082.41677.41677,0,0,0,.40874-.4082.42747.42747,0,0,0-.40874-.40772" fill="#ff00ca"/><polyline points="284.451 198.363 284.451 197.325 305.381 197.325 305.381 195.127" fill="none" stroke="#ff00ca" stroke-miterlimit="22.9256" stroke-width="0.27567"/><rect x="299.5963" y="193.30171" width="11.56891" height="3.00037" rx="1.50018" fill="#ff00ca"/><text transform="translate(301.1935 195.70091)" font-size="1.12995" fill="#fff" font-family="DINCond-Bold" font-weight="700">VDD_MAIN_MICBIAS0</text><line x1="300.33137" y1="147.6015" x2="316.6184" y2="147.6015" fill="none" stroke="#ff00ca" stroke-miterlimit="22.9256" stroke-width="0.27567"/><rect x="312.39579" y="146.10716" width="9.95761" height="2.98818" rx="1.49409" fill="#ff00ca"/><text transform="translate(313.89239 148.49417)" font-size="1.12995" fill="#fff" font-family="DINCond-Bold" font-weight="700">VDD_CORE1_1P15</text><path d="M548.85358,201.55395a.416.416,0,0,0-.40769.4077.40622.40622,0,0,0,.40769.4082.416.416,0,0,0,.40723-.4082.42669.42669,0,0,0-.40723-.4077" fill="#ff00ca"/><polyline points="548.854 201.962 548.854 200.373 561.825 200.373" fill="none" stroke="#ff00ca" stroke-miterlimit="22.9256" stroke-width="0.27516"/><rect x="552.90502" y="198.82994" width="9.9206" height="3.08526" rx="1.54263" fill="#ff00ca"/><text transform="translate(555.8955 201.31425)" font-size="1.12995" fill="#fff" font-family="DINCond-Bold" font-weight="700">VPH_PWR</text><path d="M393.1312,221.60871a.41511.41511,0,0,0-.40722.40723.4055.4055,0,0,0,.40722.4082.41573.41573,0,0,0,.40772-.4082.42632.42632,0,0,0-.40772-.40723" fill="#ff00ca"/><line x1="393.1312" y1="222.01641" x2="384.20666" y2="222.01641" fill="none" stroke="#ff00ca" stroke-miterlimit="22.9256" stroke-width="0.27516"/><rect x="375.87668" y="220.49693" width="9.92057" height="3.03896" rx="1.51948" fill="#ff00ca"/><text transform="translate(377.63562 222.934)" font-size="1.12995" fill="#fff" font-family="DINCond-Bold" font-weight="700">VDD_VSIM1_1P8</text><text transform="translate(379.6781 221.69828)" font-size="1.12995" fill="#fff" font-family="DINCond-Bold" font-weight="700">C4058</text><text transform="translate(301.94694 221.49518)" font-size="1.12995" fill="#fff" font-family="DINCond-Bold" font-weight="700">C4054</text><text transform="translate(288.71777 224.5224)" font-size="1.12995" fill="#fff" font-family="DINCond-Bold" font-weight="700">C4059</text><text transform="translate(293.4165 218.67518)" font-size="1.12995" fill="#fff" font-family="DINCond-Bold" font-weight="700">C4055</text><text transform="translate(295.41982 213.8639)" font-size="1.12995" fill="#fff" font-family="DINCond-Bold" font-weight="700">C4050</text><text transform="translate(307.06623 204.27209)" font-size="1.12995" fill="#fff" font-family="DINCond-Bold" font-weight="700">C4049</text><text transform="translate(296.46655 204.58115)" font-size="1.12995" fill="#fff" font-family="DINCond-Bold" font-weight="700">C4060</text><text transform="translate(312.27927 198.60858)" font-size="1.12995" fill="#fff" font-family="DINCond-Bold" font-weight="700">C4062</text><text transform="translate(304.21767 194.37767)" font-size="1.12995" fill="#fff" font-family="DINCond-Bold" font-weight="700">C4063</text><text transform="translate(290.63457 191.44629)" font-size="1.12995" fill="#fff" font-family="DINCond-Bold" font-weight="700">C4030</text><text transform="translate(300.44858 180.63535)" font-size="1.12995" fill="#fff" font-family="DINCond-Bold" font-weight="700">C4022</text><text transform="translate(309.22769 176.356)" font-size="1.12995" fill="#fff" font-family="DINCond-Bold" font-weight="700">C4025</text><text transform="translate(343.26198 179.43679)" font-size="1.12995" fill="#fff" font-family="DINCond-Bold" font-weight="700">C4057</text><text transform="translate(308.5032 166.2553)" font-size="1.12995" fill="#fff" font-family="DINCond-Bold" font-weight="700">C3053</text><text transform="translate(316.21173 147.17093)" font-size="1.12995" fill="#fff" font-family="DINCond-Bold" font-weight="700">C3020</text><text transform="translate(286.53774 142.13519)" font-size="1.12995" fill="#fff" font-family="DINCond-Bold" font-weight="700">C3031</text><text transform="translate(261.12817 144.23795)" font-size="1.12995" fill="#fff" font-family="DINCond-Bold" font-weight="700">C4032</text><text transform="translate(252.66923 149.496)" font-size="1.12995" fill="#fff" font-family="DINCond-Bold" font-weight="700">C4031</text><text transform="translate(252.63365 159.25846)" font-size="1.12995" fill="#fff" font-family="DINCond-Bold" font-weight="700">C4024</text><text transform="translate(250.35581 160.5817)" font-size="1.12995" fill="#fff" font-family="DINCond-Bold" font-weight="700">VDD_VSYS22_2P0</text><text transform="translate(268.43886 161.32877)" font-size="1.12995" fill="#fff" font-family="DINCond-Bold" font-weight="700">C4011</text><text transform="translate(236.3534 178.58099)" font-size="1.12995" fill="#fff" font-family="DINCond-Bold" font-weight="700">C4056</text><text transform="translate(231.87415 183.26144)" font-size="1.12995" fill="#fff" font-family="DINCond-Bold" font-weight="700">C4023</text><text transform="translate(223.40467 186.23628)" font-size="1.12995" fill="#fff" font-family="DINCond-Bold" font-weight="700">C4033</text><text transform="translate(229.89774 189.77604)" font-size="1.12995" fill="#fff" font-family="DINCond-Bold" font-weight="700">C4029</text><text transform="translate(241.26435 190.53959)" font-size="1.12995" fill="#fff" font-family="DINCond-Bold" font-weight="700">C4094</text><text transform="translate(231.87415 194.69135)" font-size="1.12995" fill="#fff" font-family="DINCond-Bold" font-weight="700">C4053</text><text transform="translate(243.21864 199.91107)" font-size="1.12995" fill="#fff" font-family="DINCond-Bold" font-weight="700">C4034</text><text transform="translate(229.64152 203.38084)" font-size="1.12995" fill="#fff" font-family="DINCond-Bold" font-weight="700">C4052</text><text transform="translate(272.17225 223.09002)" font-size="1.12995" fill="#fff" font-family="DINCond-Bold" font-weight="700">C4021</text><text transform="translate(279.07284 227.41509)" font-size="1.12995" fill="#fff" font-family="DINCond-Bold" font-weight="700">C4061</text><text transform="translate(556.70654 199.99101)" font-size="1.12995" fill="#fff" font-family="DINCond-Bold" font-weight="700">C4088</text></svg>