<svg xmlns="http://www.w3.org/2000/svg" viewBox="0 0 841.89001 595.276"><title>LCD Light</title><path d="M527.02953,176.60237a.45172.45172,0,1,1-.45225.45225.45111.45111,0,0,1,.45225-.45225" fill="#c2c2c2"/><path d="M527.02953,175.36448a.45174.45174,0,1,1-.45225.45228.45114.45114,0,0,1,.45225-.45228" fill="#c2c2c2"/><path d="M527.02953,174.12555a.45226.45226,0,1,1-.45225.45281.45194.45194,0,0,1,.45225-.45281" fill="#c2c2c2"/><path d="M527.02953,171.64981a.45227.45227,0,1,1-.45225.4528.45191.45191,0,0,1,.45225-.4528" fill="#c2c2c2"/><path d="M527.02953,170.41192a.45227.45227,0,1,1-.45225.4528.45193.45193,0,0,1,.45225-.4528" fill="#c2c2c2"/><path d="M527.02953,167.93621a.45225.45225,0,1,1-.45225.45222.45177.45177,0,0,1,.45225-.45222" fill="#c2c2c2"/><path d="M527.02953,166.69832a.45226.45226,0,1,1-.45225.45229.45182.45182,0,0,1,.45225-.45229" fill="#c2c2c2"/><path d="M527.02953,164.22258a.45227.45227,0,1,1-.45225.45225.45146.45146,0,0,1,.45225-.45225" fill="#c2c2c2"/><path d="M527.02953,162.98469a.45227.45227,0,1,1-.45225.45228.45147.45147,0,0,1,.45225-.45228" fill="#c2c2c2"/><path d="M527.02953,160.509a.452.452,0,1,1-.45225.45222.45146.45146,0,0,1,.45225-.45222" fill="#c2c2c2"/><path d="M527.02953,159.27109a.452.452,0,1,1-.45225.45222.45146.45146,0,0,1,.45225-.45222" fill="#c2c2c2"/><path d="M527.02953,156.79537a.452.452,0,1,1-.45225.45223.45144.45144,0,0,1,.45225-.45223" fill="#c2c2c2"/><path d="M527.02953,155.557a.45225.45225,0,1,1-.45225.45274.45188.45188,0,0,1,.45225-.45274" fill="#c2c2c2"/><path d="M527.02953,153.08119a.45226.45226,0,1,1-.45225.4528.45193.45193,0,0,1,.45225-.4528" fill="#c2c2c2"/><path d="M527.02953,150.60545a.45227.45227,0,1,1-.45225.4528.45193.45193,0,0,1,.45225-.4528" fill="#c2c2c2"/><path d="M527.02953,149.36756a.45227.45227,0,1,1-.45225.45228.45182.45182,0,0,1,.45225-.45228" fill="#c2c2c2"/><path d="M527.02953,148.12973a.45226.45226,0,1,1-.45225.45222.45177.45177,0,0,1,.45225-.45222" fill="#c2c2c2"/><path d="M527.02953,145.654a.45225.45225,0,1,1-.45225.45228.45149.45149,0,0,1,.45225-.45228" fill="#c2c2c2"/><path d="M527.02953,144.4161a.45227.45227,0,1,1-.45225.45225.45146.45146,0,0,1,.45225-.45225" fill="#c2c2c2"/><path d="M527.02953,143.17821a.452.452,0,1,1-.45225.45226.45146.45146,0,0,1,.45225-.45226" fill="#c2c2c2"/><path d="M527.02953,141.94032a.452.452,0,1,1-.45225.45229.45152.45152,0,0,1,.45225-.45229" fill="#c2c2c2"/><path d="M527.02953,140.7025a.452.452,0,1,1-.45225.45222.45146.45146,0,0,1,.45225-.45222" fill="#c2c2c2"/><path d="M527.02953,139.46409a.452.452,0,1,1-.45225.45274.4519.4519,0,0,1,.45225-.45274" fill="#c2c2c2"/><path d="M529.957,177.05407a.452.452,0,1,1-.45225-.45222.45191.45191,0,0,1,.45225.45222" fill="#c2c2c2"/><path d="M531.19487,177.05407a.452.452,0,1,1-.45229-.45222.45195.45195,0,0,1,.45229.45222" fill="#c2c2c2"/><path d="M533.67113,177.05407a.45227.45227,0,1,1-.45277-.45222.45237.45237,0,0,1,.45277.45222" fill="#c2c2c2"/><path d="M534.909,177.05407a.45227.45227,0,1,1-.4528-.45222.45238.45238,0,0,1,.4528.45222" fill="#c2c2c2"/><path d="M537.38473,177.05407a.45224.45224,0,1,1-.45277-.45222.45236.45236,0,0,1,.45277.45222" fill="#c2c2c2"/><path d="M538.62314,177.05407a.45252.45252,0,1,1-.45225-.45222.45224.45224,0,0,1,.45225.45222" fill="#c2c2c2"/><path d="M541.09836,177.05407a.45225.45225,0,1,1-.45225-.45222.45191.45191,0,0,1,.45225.45222" fill="#c2c2c2"/><path d="M542.33625,177.05407a.45227.45227,0,1,1-.45228-.45222.45194.45194,0,0,1,.45228.45222" fill="#c2c2c2"/><path d="M544.812,177.05407a.45227.45227,0,1,1-.45226-.45222.45194.45194,0,0,1,.45226.45222" fill="#c2c2c2"/><path d="M546.04985,177.05407a.45174.45174,0,1,1-.45225-.45222.45191.45191,0,0,1,.45225.45222" fill="#c2c2c2"/><path d="M548.5256,177.05407a.45172.45172,0,1,1-.45226-.45222.45159.45159,0,0,1,.45226.45222" fill="#c2c2c2"/><path d="M551.00238,177.05407a.45226.45226,0,1,1-.45277-.45222.45236.45236,0,0,1,.45277.45222" fill="#c2c2c2"/><path d="M552.24027,177.05407a.45226.45226,0,1,1-.45281-.45222.45239.45239,0,0,1,.45281.45222" fill="#c2c2c2"/><path d="M554.716,177.05407a.45225.45225,0,1,1-.45277-.45222.45237.45237,0,0,1,.45277.45222" fill="#c2c2c2"/><path d="M555.9539,177.05407a.45227.45227,0,1,1-.4528-.45222.45238.45238,0,0,1,.4528.45222" fill="#c2c2c2"/><path d="M558.42965,177.05407a.45226.45226,0,1,1-.45226-.45222.45227.45227,0,0,1,.45226.45222" fill="#c2c2c2"/><path d="M559.6675,177.05407a.45225.45225,0,1,1-.45225-.45222.45224.45224,0,0,1,.45225.45222" fill="#c2c2c2"/><path d="M562.14325,177.05407a.45226.45226,0,1,1-.45226-.45222.45192.45192,0,0,1,.45226.45222" fill="#c2c2c2"/><path d="M563.38113,177.05407a.452.452,0,1,1-.45228-.45222.45194.45194,0,0,1,.45228.45222" fill="#c2c2c2"/><path d="M564.619,177.05407a.452.452,0,1,1-.45225-.45222.45193.45193,0,0,1,.45225.45222" fill="#c2c2c2"/><path d="M528.71909,175.81621a.452.452,0,1,1-.45225-.45225.45192.45192,0,0,1,.45225.45225" fill="#c2c2c2"/><path d="M529.957,175.81621a.452.452,0,1,1-.45225-.45225.45194.45194,0,0,1,.45225.45225" fill="#c2c2c2"/><path d="M531.19487,175.81621a.452.452,0,1,1-.45229-.45225.452.452,0,0,1,.45229.45225" fill="#c2c2c2"/><path d="M532.43327,175.81621a.45227.45227,0,1,1-.4528-.45225.45241.45241,0,0,1,.4528.45225" fill="#c2c2c2"/><path d="M533.67113,175.81621a.45227.45227,0,1,1-.45277-.45225.4524.4524,0,0,1,.45277.45225" fill="#c2c2c2"/><path d="M534.909,175.81621a.45227.45227,0,1,1-.4528-.45225.45241.45241,0,0,1,.4528.45225" fill="#c2c2c2"/><path d="M536.14688,175.81621a.45226.45226,0,1,1-.45278-.45225.45239.45239,0,0,1,.45278.45225" fill="#c2c2c2"/><path d="M537.38473,175.81621a.45224.45224,0,1,1-.45277-.45225.45238.45238,0,0,1,.45277.45225" fill="#c2c2c2"/><path d="M538.62314,175.81621a.45252.45252,0,1,1-.45225-.45225.45227.45227,0,0,1,.45225.45225" fill="#c2c2c2"/><path d="M539.86048,175.81621a.45226.45226,0,1,1-.45226-.45225.45195.45195,0,0,1,.45226.45225" fill="#c2c2c2"/><path d="M541.09836,175.81621a.45225.45225,0,1,1-.45225-.45225.45194.45194,0,0,1,.45225.45225" fill="#c2c2c2"/><path d="M542.33625,175.81621a.45227.45227,0,1,1-.45228-.45225.452.452,0,0,1,.45228.45225" fill="#c2c2c2"/><path d="M543.57411,175.81621a.45227.45227,0,1,1-.45225-.45225.452.452,0,0,1,.45225.45225" fill="#c2c2c2"/><path d="M544.812,175.81621a.45227.45227,0,1,1-.45226-.45225.452.452,0,0,1,.45226.45225" fill="#c2c2c2"/><path d="M546.04985,175.81621a.45174.45174,0,1,1-.45225-.45225.45194.45194,0,0,1,.45225.45225" fill="#c2c2c2"/><path d="M547.28771,175.81621a.45172.45172,0,1,1-.45225-.45225.45159.45159,0,0,1,.45225.45225" fill="#c2c2c2"/><path d="M548.5256,175.81621a.45172.45172,0,1,1-.45226-.45225.45162.45162,0,0,1,.45226.45225" fill="#c2c2c2"/><path d="M549.76345,175.81621a.45172.45172,0,1,1-.45225-.45225.45159.45159,0,0,1,.45225.45225" fill="#c2c2c2"/><path d="M551.00238,175.81621a.45226.45226,0,1,1-.45277-.45225.45238.45238,0,0,1,.45277.45225" fill="#c2c2c2"/><path d="M552.24027,175.81621a.45226.45226,0,1,1-.45281-.45225.45242.45242,0,0,1,.45281.45225" fill="#c2c2c2"/><path d="M553.47816,175.81621a.45227.45227,0,1,1-.45281-.45225.45242.45242,0,0,1,.45281.45225" fill="#c2c2c2"/><path d="M554.716,175.81621a.45225.45225,0,1,1-.45277-.45225.4524.4524,0,0,1,.45277.45225" fill="#c2c2c2"/><path d="M555.9539,175.81621a.45227.45227,0,1,1-.4528-.45225.45241.45241,0,0,1,.4528.45225" fill="#c2c2c2"/><path d="M557.19176,175.81621a.45226.45226,0,1,1-.45226-.45225.45227.45227,0,0,1,.45226.45225" fill="#c2c2c2"/><path d="M558.42965,175.81621a.45226.45226,0,1,1-.45226-.45225.4523.4523,0,0,1,.45226.45225" fill="#c2c2c2"/><path d="M559.6675,175.81621a.45225.45225,0,1,1-.45225-.45225.45227.45227,0,0,1,.45225.45225" fill="#c2c2c2"/><path d="M560.90536,175.81621a.45226.45226,0,1,1-.45226-.45225.45195.45195,0,0,1,.45226.45225" fill="#c2c2c2"/><path d="M562.14325,175.81621a.45226.45226,0,1,1-.45226-.45225.45195.45195,0,0,1,.45226.45225" fill="#c2c2c2"/><path d="M563.38113,175.81621a.452.452,0,1,1-.45228-.45225.452.452,0,0,1,.45228.45225" fill="#c2c2c2"/><path d="M564.619,175.81621a.452.452,0,1,1-.45225-.45225.452.452,0,0,1,.45225.45225" fill="#c2c2c2"/><path d="M528.71909,174.57836a.452.452,0,1,1-.45225-.45281.45193.45193,0,0,1,.45225.45281" fill="#c2c2c2"/><path d="M529.957,174.57836a.452.452,0,1,1-.45225-.45281.452.452,0,0,1,.45225.45281" fill="#c2c2c2"/><path d="M531.19487,174.57836a.452.452,0,1,1-.45229-.45281.452.452,0,0,1,.45229.45281" fill="#c2c2c2"/><path d="M534.909,174.57836a.45227.45227,0,1,1-.4528-.45281.45242.45242,0,0,1,.4528.45281" fill="#c2c2c2"/><path d="M536.14688,174.57836a.45226.45226,0,1,1-.45278-.45281.4524.4524,0,0,1,.45278.45281" fill="#c2c2c2"/><path d="M538.62314,174.57836a.45252.45252,0,1,1-.45225-.45281.45228.45228,0,0,1,.45225.45281" fill="#c2c2c2"/><path d="M539.86048,174.57836a.45226.45226,0,1,1-.45226-.45281.452.452,0,0,1,.45226.45281" fill="#c2c2c2"/><path d="M542.33625,174.57836a.45227.45227,0,1,1-.45228-.45281.452.452,0,0,1,.45228.45281" fill="#c2c2c2"/><path d="M543.57411,174.57836a.45227.45227,0,1,1-.45225-.45281.452.452,0,0,1,.45225.45281" fill="#c2c2c2"/><path d="M544.812,174.57836a.45227.45227,0,1,1-.45226-.45281.452.452,0,0,1,.45226.45281" fill="#c2c2c2"/><path d="M546.04985,174.57836a.45174.45174,0,1,1-.45225-.45281.452.452,0,0,1,.45225.45281" fill="#c2c2c2"/><path d="M547.28771,174.57836a.45172.45172,0,1,1-.45225-.45281.4516.4516,0,0,1,.45225.45281" fill="#c2c2c2"/><path d="M548.5256,174.57836a.45172.45172,0,1,1-.45226-.45281.45163.45163,0,0,1,.45226.45281" fill="#c2c2c2"/><path d="M549.76345,174.57836a.45172.45172,0,1,1-.45225-.45281.4516.4516,0,0,1,.45225.45281" fill="#c2c2c2"/><path d="M552.24027,174.57836a.45226.45226,0,1,1-.45281-.45281.45243.45243,0,0,1,.45281.45281" fill="#c2c2c2"/><path d="M554.716,174.57836a.45225.45225,0,1,1-.45277-.45281.45241.45241,0,0,1,.45277.45281" fill="#c2c2c2"/><path d="M555.9539,174.57836a.45227.45227,0,1,1-.4528-.45281.45242.45242,0,0,1,.4528.45281" fill="#c2c2c2"/><path d="M557.19176,174.57836a.45226.45226,0,1,1-.45226-.45281.45229.45229,0,0,1,.45226.45281" fill="#c2c2c2"/><path d="M558.42965,174.57836a.45226.45226,0,1,1-.45226-.45281.45231.45231,0,0,1,.45226.45281" fill="#c2c2c2"/><path d="M560.90536,174.57836a.45226.45226,0,1,1-.45226-.45281.452.452,0,0,1,.45226.45281" fill="#c2c2c2"/><path d="M562.14325,174.57836a.45226.45226,0,1,1-.45226-.45281.452.452,0,0,1,.45226.45281" fill="#c2c2c2"/><path d="M563.38113,174.57836a.452.452,0,1,1-.45228-.45281.452.452,0,0,1,.45228.45281" fill="#c2c2c2"/><path d="M564.619,174.57836a.452.452,0,1,1-.45225-.45281.452.452,0,0,1,.45225.45281" fill="#c2c2c2"/><path d="M528.71909,173.34047a.452.452,0,1,1-.45225-.4528.452.452,0,0,1,.45225.4528" fill="#c2c2c2"/><path d="M529.957,173.34047a.452.452,0,1,1-.45225-.4528.452.452,0,0,1,.45225.4528" fill="#c2c2c2"/><path d="M531.19487,173.34047a.452.452,0,1,1-.45229-.4528.452.452,0,0,1,.45229.4528" fill="#c2c2c2"/><path d="M533.67113,173.34047a.45227.45227,0,1,1-.45277-.4528.45244.45244,0,0,1,.45277.4528" fill="#c2c2c2"/><path d="M534.909,173.34047a.45227.45227,0,1,1-.4528-.4528.45245.45245,0,0,1,.4528.4528" fill="#c2c2c2"/><path d="M536.14688,173.34047a.45226.45226,0,1,1-.45278-.4528.45243.45243,0,0,1,.45278.4528" fill="#c2c2c2"/><path d="M538.62314,173.34047a.45252.45252,0,1,1-.45225-.4528.45231.45231,0,0,1,.45225.4528" fill="#c2c2c2"/><path d="M539.86048,173.34047a.45226.45226,0,1,1-.45226-.4528.452.452,0,0,1,.45226.4528" fill="#c2c2c2"/><path d="M541.09836,173.34047a.45225.45225,0,1,1-.45225-.4528.452.452,0,0,1,.45225.4528" fill="#c2c2c2"/><path d="M542.33625,173.34047a.45227.45227,0,1,1-.45228-.4528.452.452,0,0,1,.45228.4528" fill="#c2c2c2"/><path d="M543.57411,173.34047a.45227.45227,0,1,1-.45225-.4528.452.452,0,0,1,.45225.4528" fill="#c2c2c2"/><path d="M544.812,173.34047a.45227.45227,0,1,1-.45226-.4528.452.452,0,0,1,.45226.4528" fill="#c2c2c2"/><path d="M546.04985,173.34047a.45174.45174,0,1,1-.45225-.4528.452.452,0,0,1,.45225.4528" fill="#c2c2c2"/><path d="M547.28771,173.34047a.45172.45172,0,1,1-.45225-.4528.45163.45163,0,0,1,.45225.4528" fill="#c2c2c2"/><path d="M548.5256,173.34047a.45172.45172,0,1,1-.45226-.4528.45165.45165,0,0,1,.45226.4528" fill="#c2c2c2"/><path d="M549.76345,173.34047a.45172.45172,0,1,1-.45225-.4528.45163.45163,0,0,1,.45225.4528" fill="#c2c2c2"/><path d="M551.00238,173.34047a.45226.45226,0,1,1-.45277-.4528.45242.45242,0,0,1,.45277.4528" fill="#c2c2c2"/><path d="M552.24027,173.34047a.45226.45226,0,1,1-.45281-.4528.45245.45245,0,0,1,.45281.4528" fill="#c2c2c2"/><path d="M553.47816,173.34047a.45227.45227,0,1,1-.45281-.4528.45245.45245,0,0,1,.45281.4528" fill="#c2c2c2"/><path d="M554.716,173.34047a.45225.45225,0,1,1-.45277-.4528.45244.45244,0,0,1,.45277.4528" fill="#c2c2c2"/><path d="M555.9539,173.34047a.45227.45227,0,1,1-.4528-.4528.45245.45245,0,0,1,.4528.4528" fill="#c2c2c2"/><path d="M557.19176,173.34047a.45226.45226,0,1,1-.45226-.4528.45231.45231,0,0,1,.45226.4528" fill="#c2c2c2"/><path d="M558.42965,173.34047a.45226.45226,0,1,1-.45226-.4528.45234.45234,0,0,1,.45226.4528" fill="#c2c2c2"/><path d="M559.6675,173.34047a.45225.45225,0,1,1-.45225-.4528.45231.45231,0,0,1,.45225.4528" fill="#c2c2c2"/><path d="M560.90536,173.34047a.45226.45226,0,1,1-.45226-.4528.452.452,0,0,1,.45226.4528" fill="#c2c2c2"/><path d="M562.14325,173.34047a.45226.45226,0,1,1-.45226-.4528.452.452,0,0,1,.45226.4528" fill="#c2c2c2"/><path d="M563.38113,173.34047a.452.452,0,1,1-.45228-.4528.452.452,0,0,1,.45228.4528" fill="#c2c2c2"/><path d="M528.71909,172.10261a.452.452,0,1,1-.45225-.4528.45229.45229,0,0,1,.45225.4528" fill="#c2c2c2"/><path d="M529.957,172.10261a.452.452,0,1,1-.45225-.4528.45231.45231,0,0,1,.45225.4528" fill="#c2c2c2"/><path d="M531.19487,172.10261a.452.452,0,1,1-.45229-.4528.45234.45234,0,0,1,.45229.4528" fill="#c2c2c2"/><path d="M532.43327,172.10261a.45227.45227,0,1,1-.4528-.4528.45278.45278,0,0,1,.4528.4528" fill="#c2c2c2"/><path d="M533.67113,172.10261a.45227.45227,0,1,1-.45277-.4528.45277.45277,0,0,1,.45277.4528" fill="#c2c2c2"/><path d="M534.909,172.10261a.45227.45227,0,1,1-.4528-.4528.45278.45278,0,0,1,.4528.4528" fill="#c2c2c2"/><path d="M536.14688,172.10261a.45226.45226,0,1,1-.45278-.4528.45276.45276,0,0,1,.45278.4528" fill="#c2c2c2"/><path d="M537.38473,172.10261a.45224.45224,0,1,1-.45277-.4528.45276.45276,0,0,1,.45277.4528" fill="#c2c2c2"/><path d="M538.62314,172.10261a.45252.45252,0,1,1-.45225-.4528.45264.45264,0,0,1,.45225.4528" fill="#c2c2c2"/><path d="M541.09836,172.10261a.45225.45225,0,1,1-.45225-.4528.45231.45231,0,0,1,.45225.4528" fill="#c2c2c2"/><path d="M549.76345,172.10261a.45172.45172,0,1,1-.45225-.4528.452.452,0,0,1,.45225.4528" fill="#c2c2c2"/><path d="M551.00238,172.10261a.45226.45226,0,1,1-.45277-.4528.45276.45276,0,0,1,.45277.4528" fill="#c2c2c2"/><path d="M552.24027,172.10261a.45226.45226,0,1,1-.45281-.4528.45279.45279,0,0,1,.45281.4528" fill="#c2c2c2"/><path d="M553.47816,172.10261a.45227.45227,0,1,1-.45281-.4528.45279.45279,0,0,1,.45281.4528" fill="#c2c2c2"/><path d="M558.42965,172.10261a.45226.45226,0,1,1-.45226-.4528.45267.45267,0,0,1,.45226.4528" fill="#c2c2c2"/><path d="M559.6675,172.10261a.45225.45225,0,1,1-.45225-.4528.45264.45264,0,0,1,.45225.4528" fill="#c2c2c2"/><path d="M560.90536,172.10261a.45226.45226,0,1,1-.45226-.4528.45232.45232,0,0,1,.45226.4528" fill="#c2c2c2"/><path d="M562.14325,172.10261a.45226.45226,0,1,1-.45226-.4528.45232.45232,0,0,1,.45226.4528" fill="#c2c2c2"/><path d="M563.38113,172.10261a.452.452,0,1,1-.45228-.4528.45234.45234,0,0,1,.45228.4528" fill="#c2c2c2"/><path d="M564.619,172.10261a.452.452,0,1,1-.45225-.4528.45233.45233,0,0,1,.45225.4528" fill="#c2c2c2"/><path d="M528.71909,170.86472a.452.452,0,1,1-.45225-.4528.45225.45225,0,0,1,.45225.4528" fill="#c2c2c2"/><path d="M529.957,170.86472a.452.452,0,1,1-.45225-.4528.45227.45227,0,0,1,.45225.4528" fill="#c2c2c2"/><path d="M531.19487,170.86472a.452.452,0,1,1-.45229-.4528.4523.4523,0,0,1,.45229.4528" fill="#c2c2c2"/><path d="M532.43327,170.86472a.45227.45227,0,1,1-.4528-.4528.45274.45274,0,0,1,.4528.4528" fill="#c2c2c2"/><path d="M560.90536,170.86472a.45226.45226,0,1,1-.45226-.4528.45227.45227,0,0,1,.45226.4528" fill="#c2c2c2"/><path d="M562.14325,170.86472a.45226.45226,0,1,1-.45226-.4528.45227.45227,0,0,1,.45226.4528" fill="#c2c2c2"/><path d="M563.38113,170.86472a.452.452,0,1,1-.45228-.4528.45229.45229,0,0,1,.45228.4528" fill="#c2c2c2"/><path d="M564.619,170.86472a.452.452,0,1,1-.45225-.4528.45229.45229,0,0,1,.45225.4528" fill="#c2c2c2"/><path d="M528.71909,169.62684a.452.452,0,1,1-.45225-.45281.45227.45227,0,0,1,.45225.45281" fill="#c2c2c2"/><path d="M531.19487,169.62684a.452.452,0,1,1-.45229-.45281.45232.45232,0,0,1,.45229.45281" fill="#c2c2c2"/><path d="M532.43327,169.62684a.45227.45227,0,1,1-.4528-.45281.45276.45276,0,0,1,.4528.45281" fill="#c2c2c2"/><path d="M559.6675,169.62684a.45225.45225,0,1,1-.45225-.45281.45262.45262,0,0,1,.45225.45281" fill="#c2c2c2"/><path d="M560.90536,169.62684a.45226.45226,0,1,1-.45226-.45281.4523.4523,0,0,1,.45226.45281" fill="#c2c2c2"/><path d="M563.38113,169.62684a.452.452,0,1,1-.45228-.45281.45231.45231,0,0,1,.45228.45281" fill="#c2c2c2"/><path d="M528.71909,168.38843a.452.452,0,1,1-.45225-.45222.45238.45238,0,0,1,.45225.45222" fill="#c2c2c2"/><path d="M532.43327,168.38843a.45227.45227,0,1,1-.4528-.45222.45287.45287,0,0,1,.4528.45222" fill="#c2c2c2"/><path d="M537.38473,168.38843a.45224.45224,0,1,1-.45277-.45222.45284.45284,0,0,1,.45277.45222" fill="#c2c2c2"/><path d="M538.62314,168.38843a.45252.45252,0,1,1-.45225-.45222.45273.45273,0,0,1,.45225.45222" fill="#c2c2c2"/><path d="M539.86048,168.38843a.45226.45226,0,1,1-.45226-.45222.45241.45241,0,0,1,.45226.45222" fill="#c2c2c2"/><path d="M541.09836,168.38843a.45225.45225,0,1,1-.45225-.45222.4524.4524,0,0,1,.45225.45222" fill="#c2c2c2"/><path d="M542.33625,168.38843a.45227.45227,0,1,1-.45228-.45222.45243.45243,0,0,1,.45228.45222" fill="#c2c2c2"/><path d="M559.6675,168.38843a.45225.45225,0,1,1-.45225-.45222.45273.45273,0,0,1,.45225.45222" fill="#c2c2c2"/><path d="M563.38113,168.38843a.452.452,0,1,1-.45228-.45222.45243.45243,0,0,1,.45228.45222" fill="#c2c2c2"/><path d="M564.619,168.38843a.452.452,0,1,1-.45225-.45222.45242.45242,0,0,1,.45225.45222" fill="#c2c2c2"/><path d="M528.71909,167.15061a.452.452,0,1,1-.45225-.45229.45232.45232,0,0,1,.45225.45229" fill="#c2c2c2"/><path d="M529.957,167.15061a.452.452,0,1,1-.45225-.45229.45234.45234,0,0,1,.45225.45229" fill="#c2c2c2"/><path d="M531.19487,167.15061a.452.452,0,1,1-.45229-.45229.45237.45237,0,0,1,.45229.45229" fill="#c2c2c2"/><path d="M532.43327,167.15061a.45227.45227,0,1,1-.4528-.45229.45281.45281,0,0,1,.4528.45229" fill="#c2c2c2"/><path d="M537.38473,167.15061a.45224.45224,0,1,1-.45277-.45229.45278.45278,0,0,1,.45277.45229" fill="#c2c2c2"/><path d="M538.62314,167.15061a.45252.45252,0,1,1-.45225-.45229.45267.45267,0,0,1,.45225.45229" fill="#c2c2c2"/><path d="M539.86048,167.15061a.45226.45226,0,1,1-.45226-.45229.45235.45235,0,0,1,.45226.45229" fill="#c2c2c2"/><path d="M541.09836,167.15061a.45225.45225,0,1,1-.45225-.45229.45234.45234,0,0,1,.45225.45229" fill="#c2c2c2"/><path d="M542.33625,167.15061a.45227.45227,0,1,1-.45228-.45229.45237.45237,0,0,1,.45228.45229" fill="#c2c2c2"/><path d="M543.57411,167.15061a.45227.45227,0,1,1-.45225-.45229.45237.45237,0,0,1,.45225.45229" fill="#c2c2c2"/><path d="M544.812,167.15061a.45227.45227,0,1,1-.45226-.45229.45237.45237,0,0,1,.45226.45229" fill="#c2c2c2"/><path d="M546.04985,167.15061a.45174.45174,0,1,1-.45225-.45229.45234.45234,0,0,1,.45225.45229" fill="#c2c2c2"/><path d="M549.76345,167.15061a.45172.45172,0,1,1-.45225-.45229.452.452,0,0,1,.45225.45229" fill="#c2c2c2"/><path d="M551.00238,167.15061a.45226.45226,0,1,1-.45277-.45229.45278.45278,0,0,1,.45277.45229" fill="#c2c2c2"/><path d="M552.24027,167.15061a.45226.45226,0,1,1-.45281-.45229.45282.45282,0,0,1,.45281.45229" fill="#c2c2c2"/><path d="M559.6675,167.15061a.45225.45225,0,1,1-.45225-.45229.45267.45267,0,0,1,.45225.45229" fill="#c2c2c2"/><path d="M560.90536,167.15061a.45226.45226,0,1,1-.45226-.45229.45235.45235,0,0,1,.45226.45229" fill="#c2c2c2"/><path d="M562.14325,167.15061a.45226.45226,0,1,1-.45226-.45229.45235.45235,0,0,1,.45226.45229" fill="#c2c2c2"/><path d="M563.38113,167.15061a.452.452,0,1,1-.45228-.45229.45237.45237,0,0,1,.45228.45229" fill="#c2c2c2"/><path d="M564.619,167.15061a.452.452,0,1,1-.45225-.45229.45236.45236,0,0,1,.45225.45229" fill="#c2c2c2"/><path d="M528.71909,165.91272a.452.452,0,1,1-.45225-.45229.45238.45238,0,0,1,.45225.45229" fill="#c2c2c2"/><path d="M529.957,165.91272a.452.452,0,1,1-.45225-.45229.4524.4524,0,0,1,.45225.45229" fill="#c2c2c2"/><path d="M531.19487,165.91272a.452.452,0,1,1-.45229-.45229.45243.45243,0,0,1,.45229.45229" fill="#c2c2c2"/><path d="M532.43327,165.91272a.45227.45227,0,1,1-.4528-.45229.45287.45287,0,0,1,.4528.45229" fill="#c2c2c2"/><path d="M533.67113,165.91272a.45227.45227,0,1,1-.45277-.45229.45286.45286,0,0,1,.45277.45229" fill="#c2c2c2"/><path d="M537.38473,165.91272a.45224.45224,0,1,1-.45277-.45229.45284.45284,0,0,1,.45277.45229" fill="#c2c2c2"/><path d="M538.62314,165.91272a.45252.45252,0,1,1-.45225-.45229.45273.45273,0,0,1,.45225.45229" fill="#c2c2c2"/><path d="M539.86048,165.91272a.45226.45226,0,1,1-.45226-.45229.45241.45241,0,0,1,.45226.45229" fill="#c2c2c2"/><path d="M541.09836,165.91272a.45225.45225,0,1,1-.45225-.45229.4524.4524,0,0,1,.45225.45229" fill="#c2c2c2"/><path d="M542.33625,165.91272a.45227.45227,0,1,1-.45228-.45229.45243.45243,0,0,1,.45228.45229" fill="#c2c2c2"/><path d="M543.57411,165.91272a.45227.45227,0,1,1-.45225-.45229.45243.45243,0,0,1,.45225.45229" fill="#c2c2c2"/><path d="M544.812,165.91272a.45227.45227,0,1,1-.45226-.45229.45243.45243,0,0,1,.45226.45229" fill="#c2c2c2"/><path d="M546.04985,165.91272a.45174.45174,0,1,1-.45225-.45229.4524.4524,0,0,1,.45225.45229" fill="#c2c2c2"/><path d="M549.76345,165.91272a.45172.45172,0,1,1-.45225-.45229.452.452,0,0,1,.45225.45229" fill="#c2c2c2"/><path d="M551.00238,165.91272a.45226.45226,0,1,1-.45277-.45229.45284.45284,0,0,1,.45277.45229" fill="#c2c2c2"/><path d="M552.24027,165.91272a.45226.45226,0,1,1-.45281-.45229.45288.45288,0,0,1,.45281.45229" fill="#c2c2c2"/><path d="M562.14325,165.91272a.45226.45226,0,1,1-.45226-.45229.45241.45241,0,0,1,.45226.45229" fill="#c2c2c2"/><path d="M563.38113,165.91272a.452.452,0,1,1-.45228-.45229.45243.45243,0,0,1,.45228.45229" fill="#c2c2c2"/><path d="M528.71909,164.67483a.452.452,0,1,1-.45225-.45225.45238.45238,0,0,1,.45225.45225" fill="#c2c2c2"/><path d="M531.19487,164.67483a.452.452,0,1,1-.45229-.45225.45243.45243,0,0,1,.45229.45225" fill="#c2c2c2"/><path d="M532.43327,164.67483a.45227.45227,0,1,1-.4528-.45225.45287.45287,0,0,1,.4528.45225" fill="#c2c2c2"/><path d="M533.67113,164.67483a.45227.45227,0,1,1-.45277-.45225.45286.45286,0,0,1,.45277.45225" fill="#c2c2c2"/><path d="M537.38473,164.67483a.45224.45224,0,1,1-.45277-.45225.45284.45284,0,0,1,.45277.45225" fill="#c2c2c2"/><path d="M538.62314,164.67483a.45252.45252,0,1,1-.45225-.45225.45273.45273,0,0,1,.45225.45225" fill="#c2c2c2"/><path d="M539.86048,164.67483a.45226.45226,0,1,1-.45226-.45225.45241.45241,0,0,1,.45226.45225" fill="#c2c2c2"/><path d="M541.09836,164.67483a.45225.45225,0,1,1-.45225-.45225.4524.4524,0,0,1,.45225.45225" fill="#c2c2c2"/><path d="M542.33625,164.67483a.45227.45227,0,1,1-.45228-.45225.45243.45243,0,0,1,.45228.45225" fill="#c2c2c2"/><path d="M543.57411,164.67483a.45227.45227,0,1,1-.45225-.45225.45243.45243,0,0,1,.45225.45225" fill="#c2c2c2"/><path d="M544.812,164.67483a.45227.45227,0,1,1-.45226-.45225.45243.45243,0,0,1,.45226.45225" fill="#c2c2c2"/><path d="M546.04985,164.67483a.45174.45174,0,1,1-.45225-.45225.4524.4524,0,0,1,.45225.45225" fill="#c2c2c2"/><path d="M547.28771,164.67483a.45172.45172,0,1,1-.45225-.45225.452.452,0,0,1,.45225.45225" fill="#c2c2c2"/><path d="M548.5256,164.67483a.45172.45172,0,1,1-.45226-.45225.45208.45208,0,0,1,.45226.45225" fill="#c2c2c2"/><path d="M549.76345,164.67483a.45172.45172,0,1,1-.45225-.45225.452.452,0,0,1,.45225.45225" fill="#c2c2c2"/><path d="M551.00238,164.67483a.45226.45226,0,1,1-.45277-.45225.45284.45284,0,0,1,.45277.45225" fill="#c2c2c2"/><path d="M552.24027,164.67483a.45226.45226,0,1,1-.45281-.45225.45288.45288,0,0,1,.45281.45225" fill="#c2c2c2"/><path d="M560.90536,164.67483a.45226.45226,0,1,1-.45226-.45225.45241.45241,0,0,1,.45226.45225" fill="#c2c2c2"/><path d="M563.38113,164.67483a.452.452,0,1,1-.45228-.45225.45243.45243,0,0,1,.45228.45225" fill="#c2c2c2"/><path d="M564.619,164.67483a.452.452,0,1,1-.45225-.45225.45242.45242,0,0,1,.45225.45225" fill="#c2c2c2"/><path d="M528.71909,163.437a.452.452,0,1,1-.45225-.45228.45236.45236,0,0,1,.45225.45228" fill="#c2c2c2"/><path d="M532.43327,163.437a.45227.45227,0,1,1-.4528-.45228.45284.45284,0,0,1,.4528.45228" fill="#c2c2c2"/><path d="M533.67113,163.437a.45227.45227,0,1,1-.45277-.45228.45284.45284,0,0,1,.45277.45228" fill="#c2c2c2"/><path d="M537.38473,163.437a.45224.45224,0,1,1-.45277-.45228.45282.45282,0,0,1,.45277.45228" fill="#c2c2c2"/><path d="M538.62314,163.437a.45252.45252,0,1,1-.45225-.45228.45271.45271,0,0,1,.45225.45228" fill="#c2c2c2"/><path d="M539.86048,163.437a.45226.45226,0,1,1-.45226-.45228.45238.45238,0,0,1,.45226.45228" fill="#c2c2c2"/><path d="M541.09836,163.437a.45225.45225,0,1,1-.45225-.45228.45237.45237,0,0,1,.45225.45228" fill="#c2c2c2"/><path d="M542.33625,163.437a.45227.45227,0,1,1-.45228-.45228.4524.4524,0,0,1,.45228.45228" fill="#c2c2c2"/><path d="M543.57411,163.437a.45227.45227,0,1,1-.45225-.45228.4524.4524,0,0,1,.45225.45228" fill="#c2c2c2"/><path d="M544.812,163.437a.45227.45227,0,1,1-.45226-.45228.4524.4524,0,0,1,.45226.45228" fill="#c2c2c2"/><path d="M546.04985,163.437a.45174.45174,0,1,1-.45225-.45228.45237.45237,0,0,1,.45225.45228" fill="#c2c2c2"/><path d="M547.28771,163.437a.45172.45172,0,1,1-.45225-.45228.452.452,0,0,1,.45225.45228" fill="#c2c2c2"/><path d="M548.5256,163.437a.45172.45172,0,1,1-.45226-.45228.45205.45205,0,0,1,.45226.45228" fill="#c2c2c2"/><path d="M549.76345,163.437a.45172.45172,0,1,1-.45225-.45228.452.452,0,0,1,.45225.45228" fill="#c2c2c2"/><path d="M551.00238,163.437a.45226.45226,0,1,1-.45277-.45228.45282.45282,0,0,1,.45277.45228" fill="#c2c2c2"/><path d="M552.24027,163.437a.45226.45226,0,1,1-.45281-.45228.45285.45285,0,0,1,.45281.45228" fill="#c2c2c2"/><path d="M558.42965,163.437a.45226.45226,0,1,1-.45226-.45228.45274.45274,0,0,1,.45226.45228" fill="#c2c2c2"/><path d="M559.6675,163.437a.45225.45225,0,1,1-.45225-.45228.45271.45271,0,0,1,.45225.45228" fill="#c2c2c2"/><path d="M560.90536,163.437a.45226.45226,0,1,1-.45226-.45228.45238.45238,0,0,1,.45226.45228" fill="#c2c2c2"/><path d="M563.38113,163.437a.452.452,0,1,1-.45228-.45228.4524.4524,0,0,1,.45228.45228" fill="#c2c2c2"/><path d="M564.619,163.437a.452.452,0,1,1-.45225-.45228.45239.45239,0,0,1,.45225.45228" fill="#c2c2c2"/><path d="M528.71909,162.19908a.452.452,0,1,1-.45225-.45228.45192.45192,0,0,1,.45225.45228" fill="#c2c2c2"/><path d="M529.957,162.19908a.452.452,0,1,1-.45225-.45228.45194.45194,0,0,1,.45225.45228" fill="#c2c2c2"/><path d="M531.19487,162.19908a.452.452,0,1,1-.45229-.45228.452.452,0,0,1,.45229.45228" fill="#c2c2c2"/><path d="M532.43327,162.19908a.45227.45227,0,1,1-.4528-.45228.45241.45241,0,0,1,.4528.45228" fill="#c2c2c2"/><path d="M537.38473,162.19908a.45224.45224,0,1,1-.45277-.45228.45238.45238,0,0,1,.45277.45228" fill="#c2c2c2"/><path d="M538.62314,162.19908a.45252.45252,0,1,1-.45225-.45228.45227.45227,0,0,1,.45225.45228" fill="#c2c2c2"/><path d="M539.86048,162.19908a.45226.45226,0,1,1-.45226-.45228.45195.45195,0,0,1,.45226.45228" fill="#c2c2c2"/><path d="M541.09836,162.19908a.45225.45225,0,1,1-.45225-.45228.45194.45194,0,0,1,.45225.45228" fill="#c2c2c2"/><path d="M542.33625,162.19908a.45227.45227,0,1,1-.45228-.45228.452.452,0,0,1,.45228.45228" fill="#c2c2c2"/><path d="M543.57411,162.19908a.45227.45227,0,1,1-.45225-.45228.452.452,0,0,1,.45225.45228" fill="#c2c2c2"/><path d="M544.812,162.19908a.45227.45227,0,1,1-.45226-.45228.452.452,0,0,1,.45226.45228" fill="#c2c2c2"/><path d="M546.04985,162.19908a.45174.45174,0,1,1-.45225-.45228.45194.45194,0,0,1,.45225.45228" fill="#c2c2c2"/><path d="M547.28771,162.19908a.45172.45172,0,1,1-.45225-.45228.45159.45159,0,0,1,.45225.45228" fill="#c2c2c2"/><path d="M548.5256,162.19908a.45172.45172,0,1,1-.45226-.45228.45162.45162,0,0,1,.45226.45228" fill="#c2c2c2"/><path d="M549.76345,162.19908a.45172.45172,0,1,1-.45225-.45228.45159.45159,0,0,1,.45225.45228" fill="#c2c2c2"/><path d="M551.00238,162.19908a.45226.45226,0,1,1-.45277-.45228.45238.45238,0,0,1,.45277.45228" fill="#c2c2c2"/><path d="M552.24027,162.19908a.45226.45226,0,1,1-.45281-.45228.45242.45242,0,0,1,.45281.45228" fill="#c2c2c2"/><path d="M562.14325,162.19908a.45226.45226,0,1,1-.45226-.45228.45195.45195,0,0,1,.45226.45228" fill="#c2c2c2"/><path d="M563.38113,162.19908a.452.452,0,1,1-.45228-.45228.452.452,0,0,1,.45228.45228" fill="#c2c2c2"/><path d="M528.71909,160.9612a.452.452,0,1,1-.45225-.45222.45194.45194,0,0,1,.45225.45222" fill="#c2c2c2"/><path d="M529.957,160.9612a.452.452,0,1,1-.45225-.45222.452.452,0,0,1,.45225.45222" fill="#c2c2c2"/><path d="M531.19487,160.9612a.452.452,0,1,1-.45229-.45222.452.452,0,0,1,.45229.45222" fill="#c2c2c2"/><path d="M532.43327,160.9612a.45227.45227,0,1,1-.4528-.45222.45243.45243,0,0,1,.4528.45222" fill="#c2c2c2"/><path d="M537.38473,160.9612a.45224.45224,0,1,1-.45277-.45222.4524.4524,0,0,1,.45277.45222" fill="#c2c2c2"/><path d="M538.62314,160.9612a.45252.45252,0,1,1-.45225-.45222.45229.45229,0,0,1,.45225.45222" fill="#c2c2c2"/><path d="M539.86048,160.9612a.45226.45226,0,1,1-.45226-.45222.452.452,0,0,1,.45226.45222" fill="#c2c2c2"/><path d="M541.09836,160.9612a.45225.45225,0,1,1-.45225-.45222.452.452,0,0,1,.45225.45222" fill="#c2c2c2"/><path d="M542.33625,160.9612a.45227.45227,0,1,1-.45228-.45222.452.452,0,0,1,.45228.45222" fill="#c2c2c2"/><path d="M543.57411,160.9612a.45227.45227,0,1,1-.45225-.45222.452.452,0,0,1,.45225.45222" fill="#c2c2c2"/><path d="M544.812,160.9612a.45227.45227,0,1,1-.45226-.45222.452.452,0,0,1,.45226.45222" fill="#c2c2c2"/><path d="M546.04985,160.9612a.45174.45174,0,1,1-.45225-.45222.452.452,0,0,1,.45225.45222" fill="#c2c2c2"/><path d="M547.28771,160.9612a.45172.45172,0,1,1-.45225-.45222.45161.45161,0,0,1,.45225.45222" fill="#c2c2c2"/><path d="M548.5256,160.9612a.45172.45172,0,1,1-.45226-.45222.45163.45163,0,0,1,.45226.45222" fill="#c2c2c2"/><path d="M549.76345,160.9612a.45172.45172,0,1,1-.45225-.45222.45161.45161,0,0,1,.45225.45222" fill="#c2c2c2"/><path d="M551.00238,160.9612a.45226.45226,0,1,1-.45277-.45222.4524.4524,0,0,1,.45277.45222" fill="#c2c2c2"/><path d="M552.24027,160.9612a.45226.45226,0,1,1-.45281-.45222.45243.45243,0,0,1,.45281.45222" fill="#c2c2c2"/><path d="M555.9539,160.9612a.45227.45227,0,1,1-.4528-.45222.45243.45243,0,0,1,.4528.45222" fill="#c2c2c2"/><path d="M557.19176,160.9612a.45226.45226,0,1,1-.45226-.45222.45229.45229,0,0,1,.45226.45222" fill="#c2c2c2"/><path d="M560.90536,160.9612a.45226.45226,0,1,1-.45226-.45222.452.452,0,0,1,.45226.45222" fill="#c2c2c2"/><path d="M562.14325,160.9612a.45226.45226,0,1,1-.45226-.45222.452.452,0,0,1,.45226.45222" fill="#c2c2c2"/><path d="M563.38113,160.9612a.452.452,0,1,1-.45228-.45222.452.452,0,0,1,.45228.45222" fill="#c2c2c2"/><path d="M564.619,160.9612a.452.452,0,1,1-.45225-.45222.452.452,0,0,1,.45225.45222" fill="#c2c2c2"/><path d="M528.71909,159.72331a.452.452,0,1,1-.45225-.45222.4519.4519,0,0,1,.45225.45222" fill="#c2c2c2"/><path d="M532.43327,159.72331a.45227.45227,0,1,1-.4528-.45222.45239.45239,0,0,1,.4528.45222" fill="#c2c2c2"/><path d="M537.38473,159.72331a.45224.45224,0,1,1-.45277-.45222.45236.45236,0,0,1,.45277.45222" fill="#c2c2c2"/><path d="M538.62314,159.72331a.45252.45252,0,1,1-.45225-.45222.45225.45225,0,0,1,.45225.45222" fill="#c2c2c2"/><path d="M539.86048,159.72331a.45226.45226,0,1,1-.45226-.45222.45193.45193,0,0,1,.45226.45222" fill="#c2c2c2"/><path d="M541.09836,159.72331a.45225.45225,0,1,1-.45225-.45222.45192.45192,0,0,1,.45225.45222" fill="#c2c2c2"/><path d="M542.33625,159.72331a.45227.45227,0,1,1-.45228-.45222.45194.45194,0,0,1,.45228.45222" fill="#c2c2c2"/><path d="M543.57411,159.72331a.45227.45227,0,1,1-.45225-.45222.45194.45194,0,0,1,.45225.45222" fill="#c2c2c2"/><path d="M544.812,159.72331a.45227.45227,0,1,1-.45226-.45222.45195.45195,0,0,1,.45226.45222" fill="#c2c2c2"/><path d="M546.04985,159.72331a.45174.45174,0,1,1-.45225-.45222.45192.45192,0,0,1,.45225.45222" fill="#c2c2c2"/><path d="M547.28771,159.72331a.45172.45172,0,1,1-.45225-.45222.45157.45157,0,0,1,.45225.45222" fill="#c2c2c2"/><path d="M548.5256,159.72331a.45172.45172,0,1,1-.45226-.45222.4516.4516,0,0,1,.45226.45222" fill="#c2c2c2"/><path d="M549.76345,159.72331a.45172.45172,0,1,1-.45225-.45222.45157.45157,0,0,1,.45225.45222" fill="#c2c2c2"/><path d="M551.00238,159.72331a.45226.45226,0,1,1-.45277-.45222.45236.45236,0,0,1,.45277.45222" fill="#c2c2c2"/><path d="M552.24027,159.72331a.45226.45226,0,1,1-.45281-.45222.4524.4524,0,0,1,.45281.45222" fill="#c2c2c2"/><path d="M555.9539,159.72331a.45227.45227,0,1,1-.4528-.45222.45239.45239,0,0,1,.4528.45222" fill="#c2c2c2"/><path d="M557.19176,159.72331a.45226.45226,0,1,1-.45226-.45222.45225.45225,0,0,1,.45226.45222" fill="#c2c2c2"/><path d="M558.42965,159.72331a.45226.45226,0,1,1-.45226-.45222.45228.45228,0,0,1,.45226.45222" fill="#c2c2c2"/><path d="M559.6675,159.72331a.45225.45225,0,1,1-.45225-.45222.45225.45225,0,0,1,.45225.45222" fill="#c2c2c2"/><path d="M560.90536,159.72331a.45226.45226,0,1,1-.45226-.45222.45193.45193,0,0,1,.45226.45222" fill="#c2c2c2"/><path d="M563.38113,159.72331a.452.452,0,1,1-.45228-.45222.45194.45194,0,0,1,.45228.45222" fill="#c2c2c2"/><path d="M564.619,159.72331a.452.452,0,1,1-.45225-.45222.45194.45194,0,0,1,.45225.45222" fill="#c2c2c2"/><path d="M528.71909,158.48548a.452.452,0,1,1-.45225-.45228.45145.45145,0,0,1,.45225.45228" fill="#c2c2c2"/><path d="M532.43327,158.48548a.45227.45227,0,1,1-.4528-.45228.45194.45194,0,0,1,.4528.45228" fill="#c2c2c2"/><path d="M537.38473,158.48548a.45224.45224,0,1,1-.45277-.45228.45191.45191,0,0,1,.45277.45228" fill="#c2c2c2"/><path d="M538.62314,158.48548a.45252.45252,0,1,1-.45225-.45228.4518.4518,0,0,1,.45225.45228" fill="#c2c2c2"/><path d="M539.86048,158.48548a.45226.45226,0,1,1-.45226-.45228.45148.45148,0,0,1,.45226.45228" fill="#c2c2c2"/><path d="M541.09836,158.48548a.45225.45225,0,1,1-.45225-.45228.45147.45147,0,0,1,.45225.45228" fill="#c2c2c2"/><path d="M542.33625,158.48548a.45227.45227,0,1,1-.45228-.45228.4515.4515,0,0,1,.45228.45228" fill="#c2c2c2"/><path d="M543.57411,158.48548a.45227.45227,0,1,1-.45225-.45228.4515.4515,0,0,1,.45225.45228" fill="#c2c2c2"/><path d="M544.812,158.48548a.45227.45227,0,1,1-.45226-.45228.4515.4515,0,0,1,.45226.45228" fill="#c2c2c2"/><path d="M546.04985,158.48548a.45174.45174,0,1,1-.45225-.45228.45147.45147,0,0,1,.45225.45228" fill="#c2c2c2"/><path d="M547.28771,158.48548a.45172.45172,0,1,1-.45225-.45228.45112.45112,0,0,1,.45225.45228" fill="#c2c2c2"/><path d="M548.5256,158.48548a.45172.45172,0,1,1-.45226-.45228.45115.45115,0,0,1,.45226.45228" fill="#c2c2c2"/><path d="M549.76345,158.48548a.45172.45172,0,1,1-.45225-.45228.45112.45112,0,0,1,.45225.45228" fill="#c2c2c2"/><path d="M551.00238,158.48548a.45226.45226,0,1,1-.45277-.45228.45191.45191,0,0,1,.45277.45228" fill="#c2c2c2"/><path d="M552.24027,158.48548a.45226.45226,0,1,1-.45281-.45228.45195.45195,0,0,1,.45281.45228" fill="#c2c2c2"/><path d="M555.9539,158.48548a.45227.45227,0,1,1-.4528-.45228.45194.45194,0,0,1,.4528.45228" fill="#c2c2c2"/><path d="M557.19176,158.48548a.45226.45226,0,1,1-.45226-.45228.45181.45181,0,0,1,.45226.45228" fill="#c2c2c2"/><path d="M558.42965,158.48548a.45226.45226,0,1,1-.45226-.45228.45183.45183,0,0,1,.45226.45228" fill="#c2c2c2"/><path d="M563.38113,158.48548a.452.452,0,1,1-.45228-.45228.4515.4515,0,0,1,.45228.45228" fill="#c2c2c2"/><path d="M528.71909,157.24708a.452.452,0,1,1-.45225-.45171.45155.45155,0,0,1,.45225.45171" fill="#c2c2c2"/><path d="M529.957,157.24708a.452.452,0,1,1-.45225-.45171.45157.45157,0,0,1,.45225.45171" fill="#c2c2c2"/><path d="M531.19487,157.24708a.452.452,0,1,1-.45229-.45171.45161.45161,0,0,1,.45229.45171" fill="#c2c2c2"/><path d="M532.43327,157.24708a.45227.45227,0,1,1-.4528-.45171.452.452,0,0,1,.4528.45171" fill="#c2c2c2"/><path d="M537.38473,157.24708a.45224.45224,0,1,1-.45277-.45171.452.452,0,0,1,.45277.45171" fill="#c2c2c2"/><path d="M538.62314,157.24708a.45252.45252,0,1,1-.45225-.45171.45191.45191,0,0,1,.45225.45171" fill="#c2c2c2"/><path d="M539.86048,157.24708a.45226.45226,0,1,1-.45226-.45171.45158.45158,0,0,1,.45226.45171" fill="#c2c2c2"/><path d="M541.09836,157.24708a.45225.45225,0,1,1-.45225-.45171.45157.45157,0,0,1,.45225.45171" fill="#c2c2c2"/><path d="M542.33625,157.24708a.45227.45227,0,1,1-.45228-.45171.4516.4516,0,0,1,.45228.45171" fill="#c2c2c2"/><path d="M543.57411,157.24708a.45227.45227,0,1,1-.45225-.45171.4516.4516,0,0,1,.45225.45171" fill="#c2c2c2"/><path d="M544.812,157.24708a.45227.45227,0,1,1-.45226-.45171.4516.4516,0,0,1,.45226.45171" fill="#c2c2c2"/><path d="M546.04985,157.24708a.45174.45174,0,1,1-.45225-.45171.45157.45157,0,0,1,.45225.45171" fill="#c2c2c2"/><path d="M547.28771,157.24708a.45172.45172,0,1,1-.45225-.45171.45122.45122,0,0,1,.45225.45171" fill="#c2c2c2"/><path d="M548.5256,157.24708a.45172.45172,0,1,1-.45226-.45171.45125.45125,0,0,1,.45226.45171" fill="#c2c2c2"/><path d="M549.76345,157.24708a.45172.45172,0,1,1-.45225-.45171.45122.45122,0,0,1,.45225.45171" fill="#c2c2c2"/><path d="M551.00238,157.24708a.45226.45226,0,1,1-.45277-.45171.452.452,0,0,1,.45277.45171" fill="#c2c2c2"/><path d="M552.24027,157.24708a.45226.45226,0,1,1-.45281-.45171.45205.45205,0,0,1,.45281.45171" fill="#c2c2c2"/><path d="M555.9539,157.24708a.45227.45227,0,1,1-.4528-.45171.452.452,0,0,1,.4528.45171" fill="#c2c2c2"/><path d="M557.19176,157.24708a.45226.45226,0,1,1-.45226-.45171.45191.45191,0,0,1,.45226.45171" fill="#c2c2c2"/><path d="M558.42965,157.24708a.45226.45226,0,1,1-.45226-.45171.45193.45193,0,0,1,.45226.45171" fill="#c2c2c2"/><path d="M559.6675,157.24708a.45225.45225,0,1,1-.45225-.45171.45191.45191,0,0,1,.45225.45171" fill="#c2c2c2"/><path d="M560.90536,157.24708a.45226.45226,0,1,1-.45226-.45171.45158.45158,0,0,1,.45226.45171" fill="#c2c2c2"/><path d="M562.14325,157.24708a.45226.45226,0,1,1-.45226-.45171.45158.45158,0,0,1,.45226.45171" fill="#c2c2c2"/><path d="M563.38113,157.24708a.452.452,0,1,1-.45228-.45171.4516.4516,0,0,1,.45228.45171" fill="#c2c2c2"/><path d="M564.619,157.24708a.452.452,0,1,1-.45225-.45171.45159.45159,0,0,1,.45225.45171" fill="#c2c2c2"/><path d="M528.71909,156.00919a.452.452,0,1,1-.45225-.45222.45161.45161,0,0,1,.45225.45222" fill="#c2c2c2"/><path d="M529.957,156.00919a.452.452,0,1,1-.45225-.45222.45163.45163,0,0,1,.45225.45222" fill="#c2c2c2"/><path d="M531.19487,156.00919a.452.452,0,1,1-.45229-.45222.45166.45166,0,0,1,.45229.45222" fill="#c2c2c2"/><path d="M532.43327,156.00919a.45227.45227,0,1,1-.4528-.45222.45209.45209,0,0,1,.4528.45222" fill="#c2c2c2"/><path d="M534.909,156.00919a.45227.45227,0,1,1-.4528-.45222.45209.45209,0,0,1,.4528.45222" fill="#c2c2c2"/><path d="M537.38473,156.00919a.45224.45224,0,1,1-.45277-.45222.45207.45207,0,0,1,.45277.45222" fill="#c2c2c2"/><path d="M538.62314,156.00919a.45252.45252,0,1,1-.45225-.45222.452.452,0,0,1,.45225.45222" fill="#c2c2c2"/><path d="M539.86048,156.00919a.45226.45226,0,1,1-.45226-.45222.45163.45163,0,0,1,.45226.45222" fill="#c2c2c2"/><path d="M541.09836,156.00919a.45225.45225,0,1,1-.45225-.45222.45163.45163,0,0,1,.45225.45222" fill="#c2c2c2"/><path d="M542.33625,156.00919a.45227.45227,0,1,1-.45228-.45222.45165.45165,0,0,1,.45228.45222" fill="#c2c2c2"/><path d="M543.57411,156.00919a.45227.45227,0,1,1-.45225-.45222.45165.45165,0,0,1,.45225.45222" fill="#c2c2c2"/><path d="M544.812,156.00919a.45227.45227,0,1,1-.45226-.45222.45165.45165,0,0,1,.45226.45222" fill="#c2c2c2"/><path d="M546.04985,156.00919a.45174.45174,0,1,1-.45225-.45222.45163.45163,0,0,1,.45225.45222" fill="#c2c2c2"/><path d="M547.28771,156.00919a.45172.45172,0,1,1-.45225-.45222.45128.45128,0,0,1,.45225.45222" fill="#c2c2c2"/><path d="M548.5256,156.00919a.45172.45172,0,1,1-.45226-.45222.4513.4513,0,0,1,.45226.45222" fill="#c2c2c2"/><path d="M549.76345,156.00919a.45172.45172,0,1,1-.45225-.45222.45128.45128,0,0,1,.45225.45222" fill="#c2c2c2"/><path d="M552.24027,156.00919a.45226.45226,0,1,1-.45281-.45222.4521.4521,0,0,1,.45281.45222" fill="#c2c2c2"/><path d="M555.9539,156.00919a.45227.45227,0,1,1-.4528-.45222.45209.45209,0,0,1,.4528.45222" fill="#c2c2c2"/><path d="M557.19176,156.00919a.45226.45226,0,1,1-.45226-.45222.452.452,0,0,1,.45226.45222" fill="#c2c2c2"/><path d="M560.90536,156.00919a.45226.45226,0,1,1-.45226-.45222.45163.45163,0,0,1,.45226.45222" fill="#c2c2c2"/><path d="M562.14325,156.00919a.45226.45226,0,1,1-.45226-.45222.45163.45163,0,0,1,.45226.45222" fill="#c2c2c2"/><path d="M563.38113,156.00919a.452.452,0,1,1-.45228-.45222.45165.45165,0,0,1,.45228.45222" fill="#c2c2c2"/><path d="M564.619,156.00919a.452.452,0,1,1-.45225-.45222.45164.45164,0,0,1,.45225.45222" fill="#c2c2c2"/><path d="M528.71909,154.77136a.452.452,0,1,1-.45225-.4528.45158.45158,0,0,1,.45225.4528" fill="#c2c2c2"/><path d="M529.957,154.77136a.452.452,0,1,1-.45225-.4528.4516.4516,0,0,1,.45225.4528" fill="#c2c2c2"/><path d="M531.19487,154.77136a.452.452,0,1,1-.45229-.4528.45164.45164,0,0,1,.45229.4528" fill="#c2c2c2"/><path d="M532.43327,154.77136a.45227.45227,0,1,1-.4528-.4528.45207.45207,0,0,1,.4528.4528" fill="#c2c2c2"/><path d="M534.909,154.77136a.45227.45227,0,1,1-.4528-.4528.45207.45207,0,0,1,.4528.4528" fill="#c2c2c2"/><path d="M537.38473,154.77136a.45224.45224,0,1,1-.45277-.4528.452.452,0,0,1,.45277.4528" fill="#c2c2c2"/><path d="M538.62314,154.77136a.45252.45252,0,1,1-.45225-.4528.45193.45193,0,0,1,.45225.4528" fill="#c2c2c2"/><path d="M539.86048,154.77136a.45226.45226,0,1,1-.45226-.4528.45161.45161,0,0,1,.45226.4528" fill="#c2c2c2"/><path d="M541.09836,154.77136a.45225.45225,0,1,1-.45225-.4528.4516.4516,0,0,1,.45225.4528" fill="#c2c2c2"/><path d="M542.33625,154.77136a.45227.45227,0,1,1-.45228-.4528.45163.45163,0,0,1,.45228.4528" fill="#c2c2c2"/><path d="M543.57411,154.77136a.45227.45227,0,1,1-.45225-.4528.45163.45163,0,0,1,.45225.4528" fill="#c2c2c2"/><path d="M544.812,154.77136a.45227.45227,0,1,1-.45226-.4528.45163.45163,0,0,1,.45226.4528" fill="#c2c2c2"/><path d="M546.04985,154.77136a.45174.45174,0,1,1-.45225-.4528.4516.4516,0,0,1,.45225.4528" fill="#c2c2c2"/><path d="M547.28771,154.77136a.45172.45172,0,1,1-.45225-.4528.45125.45125,0,0,1,.45225.4528" fill="#c2c2c2"/><path d="M548.5256,154.77136a.45172.45172,0,1,1-.45226-.4528.45128.45128,0,0,1,.45226.4528" fill="#c2c2c2"/><path d="M549.76345,154.77136a.45172.45172,0,1,1-.45225-.4528.45125.45125,0,0,1,.45225.4528" fill="#c2c2c2"/><path d="M551.00238,154.77136a.45226.45226,0,1,1-.45277-.4528.452.452,0,0,1,.45277.4528" fill="#c2c2c2"/><path d="M552.24027,154.77136a.45226.45226,0,1,1-.45281-.4528.45208.45208,0,0,1,.45281.4528" fill="#c2c2c2"/><path d="M555.9539,154.77136a.45227.45227,0,1,1-.4528-.4528.45207.45207,0,0,1,.4528.4528" fill="#c2c2c2"/><path d="M557.19176,154.77136a.45226.45226,0,1,1-.45226-.4528.45194.45194,0,0,1,.45226.4528" fill="#c2c2c2"/><path d="M563.38113,154.77136a.452.452,0,1,1-.45228-.4528.45163.45163,0,0,1,.45228.4528" fill="#c2c2c2"/><path d="M528.71909,153.53348a.452.452,0,1,1-.45225-.45229.45224.45224,0,0,1,.45225.45229" fill="#c2c2c2"/><path d="M532.43327,153.53348a.45227.45227,0,1,1-.4528-.45229.45273.45273,0,0,1,.4528.45229" fill="#c2c2c2"/><path d="M537.38473,153.53348a.45224.45224,0,1,1-.45277-.45229.4527.4527,0,0,1,.45277.45229" fill="#c2c2c2"/><path d="M538.62314,153.53348a.45252.45252,0,1,1-.45225-.45229.45259.45259,0,0,1,.45225.45229" fill="#c2c2c2"/><path d="M539.86048,153.53348a.45226.45226,0,1,1-.45226-.45229.45227.45227,0,0,1,.45226.45229" fill="#c2c2c2"/><path d="M541.09836,153.53348a.45225.45225,0,1,1-.45225-.45229.45226.45226,0,0,1,.45225.45229" fill="#c2c2c2"/><path d="M542.33625,153.53348a.45227.45227,0,1,1-.45228-.45229.45228.45228,0,0,1,.45228.45229" fill="#c2c2c2"/><path d="M543.57411,153.53348a.45227.45227,0,1,1-.45225-.45229.45228.45228,0,0,1,.45225.45229" fill="#c2c2c2"/><path d="M544.812,153.53348a.45227.45227,0,1,1-.45226-.45229.45229.45229,0,0,1,.45226.45229" fill="#c2c2c2"/><path d="M546.04985,153.53348a.45174.45174,0,1,1-.45225-.45229.45226.45226,0,0,1,.45225.45229" fill="#c2c2c2"/><path d="M547.28771,153.53348a.45172.45172,0,1,1-.45225-.45229.45191.45191,0,0,1,.45225.45229" fill="#c2c2c2"/><path d="M548.5256,153.53348a.45172.45172,0,1,1-.45226-.45229.45193.45193,0,0,1,.45226.45229" fill="#c2c2c2"/><path d="M549.76345,153.53348a.45172.45172,0,1,1-.45225-.45229.45191.45191,0,0,1,.45225.45229" fill="#c2c2c2"/><path d="M551.00238,153.53348a.45226.45226,0,1,1-.45277-.45229.4527.4527,0,0,1,.45277.45229" fill="#c2c2c2"/><path d="M552.24027,153.53348a.45226.45226,0,1,1-.45281-.45229.45274.45274,0,0,1,.45281.45229" fill="#c2c2c2"/><path d="M555.9539,153.53348a.45227.45227,0,1,1-.4528-.45229.45273.45273,0,0,1,.4528.45229" fill="#c2c2c2"/><path d="M557.19176,153.53348a.45226.45226,0,1,1-.45226-.45229.45259.45259,0,0,1,.45226.45229" fill="#c2c2c2"/><path d="M558.42965,153.53348a.45226.45226,0,1,1-.45226-.45229.45262.45262,0,0,1,.45226.45229" fill="#c2c2c2"/><path d="M559.6675,153.53348a.45225.45225,0,1,1-.45225-.45229.45259.45259,0,0,1,.45225.45229" fill="#c2c2c2"/><path d="M560.90536,153.53348a.45226.45226,0,1,1-.45226-.45229.45227.45227,0,0,1,.45226.45229" fill="#c2c2c2"/><path d="M563.38113,153.53348a.452.452,0,1,1-.45228-.45229.45228.45228,0,0,1,.45228.45229" fill="#c2c2c2"/><path d="M564.619,153.53348a.452.452,0,1,1-.45225-.45229.45228.45228,0,0,1,.45225.45229" fill="#c2c2c2"/><path d="M528.71909,152.29559a.452.452,0,1,1-.45225-.45226.45229.45229,0,0,1,.45225.45226" fill="#c2c2c2"/><path d="M531.19487,152.29559a.452.452,0,1,1-.45229-.45226.45234.45234,0,0,1,.45229.45226" fill="#c2c2c2"/><path d="M532.43327,152.29559a.45227.45227,0,1,1-.4528-.45226.45278.45278,0,0,1,.4528.45226" fill="#c2c2c2"/><path d="M534.909,152.29559a.45227.45227,0,1,1-.4528-.45226.45278.45278,0,0,1,.4528.45226" fill="#c2c2c2"/><path d="M537.38473,152.29559a.45224.45224,0,1,1-.45277-.45226.45275.45275,0,0,1,.45277.45226" fill="#c2c2c2"/><path d="M538.62314,152.29559a.45252.45252,0,1,1-.45225-.45226.45264.45264,0,0,1,.45225.45226" fill="#c2c2c2"/><path d="M539.86048,152.29559a.45226.45226,0,1,1-.45226-.45226.45232.45232,0,0,1,.45226.45226" fill="#c2c2c2"/><path d="M541.09836,152.29559a.45225.45225,0,1,1-.45225-.45226.45231.45231,0,0,1,.45225.45226" fill="#c2c2c2"/><path d="M542.33625,152.29559a.45227.45227,0,1,1-.45228-.45226.45233.45233,0,0,1,.45228.45226" fill="#c2c2c2"/><path d="M543.57411,152.29559a.45227.45227,0,1,1-.45225-.45226.45233.45233,0,0,1,.45225.45226" fill="#c2c2c2"/><path d="M544.812,152.29559a.45227.45227,0,1,1-.45226-.45226.45234.45234,0,0,1,.45226.45226" fill="#c2c2c2"/><path d="M546.04985,152.29559a.45174.45174,0,1,1-.45225-.45226.45231.45231,0,0,1,.45225.45226" fill="#c2c2c2"/><path d="M547.28771,152.29559a.45172.45172,0,1,1-.45225-.45226.452.452,0,0,1,.45225.45226" fill="#c2c2c2"/><path d="M548.5256,152.29559a.45172.45172,0,1,1-.45226-.45226.452.452,0,0,1,.45226.45226" fill="#c2c2c2"/><path d="M549.76345,152.29559a.45172.45172,0,1,1-.45225-.45226.452.452,0,0,1,.45225.45226" fill="#c2c2c2"/><path d="M551.00238,152.29559a.45226.45226,0,1,1-.45277-.45226.45275.45275,0,0,1,.45277.45226" fill="#c2c2c2"/><path d="M552.24027,152.29559a.45226.45226,0,1,1-.45281-.45226.45279.45279,0,0,1,.45281.45226" fill="#c2c2c2"/><path d="M560.90536,152.29559a.45226.45226,0,1,1-.45226-.45226.45232.45232,0,0,1,.45226.45226" fill="#c2c2c2"/><path d="M562.14325,152.29559a.45226.45226,0,1,1-.45226-.45226.45232.45232,0,0,1,.45226.45226" fill="#c2c2c2"/><path d="M563.38113,152.29559a.452.452,0,1,1-.45228-.45226.45233.45233,0,0,1,.45228.45226" fill="#c2c2c2"/><path d="M564.619,152.29559a.452.452,0,1,1-.45225-.45226.45233.45233,0,0,1,.45225.45226" fill="#c2c2c2"/><path d="M528.71909,151.0577a.452.452,0,1,1-.45225-.45225.45236.45236,0,0,1,.45225.45225" fill="#c2c2c2"/><path d="M529.957,151.0577a.452.452,0,1,1-.45225-.45225.45238.45238,0,0,1,.45225.45225" fill="#c2c2c2"/><path d="M531.19487,151.0577a.452.452,0,1,1-.45229-.45225.45242.45242,0,0,1,.45229.45225" fill="#c2c2c2"/><path d="M534.909,151.0577a.45227.45227,0,1,1-.4528-.45225.45285.45285,0,0,1,.4528.45225" fill="#c2c2c2"/><path d="M537.38473,151.0577a.45224.45224,0,1,1-.45277-.45225.45283.45283,0,0,1,.45277.45225" fill="#c2c2c2"/><path d="M538.62314,151.0577a.45252.45252,0,1,1-.45225-.45225.45271.45271,0,0,1,.45225.45225" fill="#c2c2c2"/><path d="M539.86048,151.0577a.45226.45226,0,1,1-.45226-.45225.45239.45239,0,0,1,.45226.45225" fill="#c2c2c2"/><path d="M541.09836,151.0577a.45225.45225,0,1,1-.45225-.45225.45238.45238,0,0,1,.45225.45225" fill="#c2c2c2"/><path d="M542.33625,151.0577a.45227.45227,0,1,1-.45228-.45225.45241.45241,0,0,1,.45228.45225" fill="#c2c2c2"/><path d="M543.57411,151.0577a.45227.45227,0,1,1-.45225-.45225.45241.45241,0,0,1,.45225.45225" fill="#c2c2c2"/><path d="M544.812,151.0577a.45227.45227,0,1,1-.45226-.45225.45241.45241,0,0,1,.45226.45225" fill="#c2c2c2"/><path d="M546.04985,151.0577a.45174.45174,0,1,1-.45225-.45225.45238.45238,0,0,1,.45225.45225" fill="#c2c2c2"/><path d="M547.28771,151.0577a.45172.45172,0,1,1-.45225-.45225.452.452,0,0,1,.45225.45225" fill="#c2c2c2"/><path d="M548.5256,151.0577a.45172.45172,0,1,1-.45226-.45225.45206.45206,0,0,1,.45226.45225" fill="#c2c2c2"/><path d="M549.76345,151.0577a.45172.45172,0,1,1-.45225-.45225.452.452,0,0,1,.45225.45225" fill="#c2c2c2"/><path d="M551.00238,151.0577a.45226.45226,0,1,1-.45277-.45225.45283.45283,0,0,1,.45277.45225" fill="#c2c2c2"/><path d="M552.24027,151.0577a.45226.45226,0,1,1-.45281-.45225.45286.45286,0,0,1,.45281.45225" fill="#c2c2c2"/><path d="M555.9539,151.0577a.45227.45227,0,1,1-.4528-.45225.45285.45285,0,0,1,.4528.45225" fill="#c2c2c2"/><path d="M557.19176,151.0577a.45226.45226,0,1,1-.45226-.45225.45272.45272,0,0,1,.45226.45225" fill="#c2c2c2"/><path d="M560.90536,151.0577a.45226.45226,0,1,1-.45226-.45225.45239.45239,0,0,1,.45226.45225" fill="#c2c2c2"/><path d="M562.14325,151.0577a.45226.45226,0,1,1-.45226-.45225.45239.45239,0,0,1,.45226.45225" fill="#c2c2c2"/><path d="M563.38113,151.0577a.452.452,0,1,1-.45228-.45225.45241.45241,0,0,1,.45228.45225" fill="#c2c2c2"/><path d="M528.71909,149.81932a.452.452,0,1,1-.45225-.45228.45236.45236,0,0,1,.45225.45228" fill="#c2c2c2"/><path d="M529.957,149.81932a.452.452,0,1,1-.45225-.45228.45238.45238,0,0,1,.45225.45228" fill="#c2c2c2"/><path d="M531.19487,149.81932a.452.452,0,1,1-.45229-.45228.45241.45241,0,0,1,.45229.45228" fill="#c2c2c2"/><path d="M532.43327,149.81932a.45227.45227,0,1,1-.4528-.45228.45285.45285,0,0,1,.4528.45228" fill="#c2c2c2"/><path d="M537.38473,149.81932a.45224.45224,0,1,1-.45277-.45228.45282.45282,0,0,1,.45277.45228" fill="#c2c2c2"/><path d="M538.62314,149.81932a.45252.45252,0,1,1-.45225-.45228.45271.45271,0,0,1,.45225.45228" fill="#c2c2c2"/><path d="M539.86048,149.81932a.45226.45226,0,1,1-.45226-.45228.45239.45239,0,0,1,.45226.45228" fill="#c2c2c2"/><path d="M541.09836,149.81932a.45225.45225,0,1,1-.45225-.45228.45238.45238,0,0,1,.45225.45228" fill="#c2c2c2"/><path d="M542.33625,149.81932a.45227.45227,0,1,1-.45228-.45228.4524.4524,0,0,1,.45228.45228" fill="#c2c2c2"/><path d="M543.57411,149.81932a.45227.45227,0,1,1-.45225-.45228.4524.4524,0,0,1,.45225.45228" fill="#c2c2c2"/><path d="M544.812,149.81932a.45227.45227,0,1,1-.45226-.45228.4524.4524,0,0,1,.45226.45228" fill="#c2c2c2"/><path d="M546.04985,149.81932a.45174.45174,0,1,1-.45225-.45228.45238.45238,0,0,1,.45225.45228" fill="#c2c2c2"/><path d="M547.28771,149.81932a.45172.45172,0,1,1-.45225-.45228.452.452,0,0,1,.45225.45228" fill="#c2c2c2"/><path d="M548.5256,149.81932a.45172.45172,0,1,1-.45226-.45228.45205.45205,0,0,1,.45226.45228" fill="#c2c2c2"/><path d="M549.76345,149.81932a.45172.45172,0,1,1-.45225-.45228.452.452,0,0,1,.45225.45228" fill="#c2c2c2"/><path d="M551.00238,149.81932a.45226.45226,0,1,1-.45277-.45228.45282.45282,0,0,1,.45277.45228" fill="#c2c2c2"/><path d="M552.24027,149.81932a.45226.45226,0,1,1-.45281-.45228.45285.45285,0,0,1,.45281.45228" fill="#c2c2c2"/><path d="M553.47816,149.81932a.45227.45227,0,1,1-.45281-.45228.45285.45285,0,0,1,.45281.45228" fill="#c2c2c2"/><path d="M555.9539,149.81932a.45227.45227,0,1,1-.4528-.45228.45285.45285,0,0,1,.4528.45228" fill="#c2c2c2"/><path d="M557.19176,149.81932a.45226.45226,0,1,1-.45226-.45228.45271.45271,0,0,1,.45226.45228" fill="#c2c2c2"/><path d="M558.42965,149.81932a.45226.45226,0,1,1-.45226-.45228.45274.45274,0,0,1,.45226.45228" fill="#c2c2c2"/><path d="M559.6675,149.81932a.45225.45225,0,1,1-.45225-.45228.45271.45271,0,0,1,.45225.45228" fill="#c2c2c2"/><path d="M560.90536,149.81932a.45226.45226,0,1,1-.45226-.45228.45239.45239,0,0,1,.45226.45228" fill="#c2c2c2"/><path d="M563.38113,149.81932a.452.452,0,1,1-.45228-.45228.4524.4524,0,0,1,.45228.45228" fill="#c2c2c2"/><path d="M564.619,149.81932a.452.452,0,1,1-.45225-.45228.4524.4524,0,0,1,.45225.45228" fill="#c2c2c2"/><path d="M528.71909,148.58144a.452.452,0,1,1-.45225-.45171.452.452,0,0,1,.45225.45171" fill="#c2c2c2"/><path d="M529.957,148.58144a.452.452,0,1,1-.45225-.45171.45207.45207,0,0,1,.45225.45171" fill="#c2c2c2"/><path d="M531.19487,148.58144a.452.452,0,1,1-.45229-.45171.4521.4521,0,0,1,.45229.45171" fill="#c2c2c2"/><path d="M532.43327,148.58144a.45227.45227,0,1,1-.4528-.45171.45254.45254,0,0,1,.4528.45171" fill="#c2c2c2"/><path d="M537.38473,148.58144a.45224.45224,0,1,1-.45277-.45171.45251.45251,0,0,1,.45277.45171" fill="#c2c2c2"/><path d="M538.62314,148.58144a.45252.45252,0,1,1-.45225-.45171.4524.4524,0,0,1,.45225.45171" fill="#c2c2c2"/><path d="M539.86048,148.58144a.45226.45226,0,1,1-.45226-.45171.45208.45208,0,0,1,.45226.45171" fill="#c2c2c2"/><path d="M541.09836,148.58144a.45225.45225,0,1,1-.45225-.45171.45207.45207,0,0,1,.45225.45171" fill="#c2c2c2"/><path d="M542.33625,148.58144a.45227.45227,0,1,1-.45228-.45171.45209.45209,0,0,1,.45228.45171" fill="#c2c2c2"/><path d="M543.57411,148.58144a.45227.45227,0,1,1-.45225-.45171.45209.45209,0,0,1,.45225.45171" fill="#c2c2c2"/><path d="M544.812,148.58144a.45227.45227,0,1,1-.45226-.45171.4521.4521,0,0,1,.45226.45171" fill="#c2c2c2"/><path d="M546.04985,148.58144a.45174.45174,0,1,1-.45225-.45171.45207.45207,0,0,1,.45225.45171" fill="#c2c2c2"/><path d="M547.28771,148.58144a.45172.45172,0,1,1-.45225-.45171.45172.45172,0,0,1,.45225.45171" fill="#c2c2c2"/><path d="M548.5256,148.58144a.45172.45172,0,1,1-.45226-.45171.45175.45175,0,0,1,.45226.45171" fill="#c2c2c2"/><path d="M549.76345,148.58144a.45172.45172,0,1,1-.45225-.45171.45172.45172,0,0,1,.45225.45171" fill="#c2c2c2"/><path d="M551.00238,148.58144a.45226.45226,0,1,1-.45277-.45171.45251.45251,0,0,1,.45277.45171" fill="#c2c2c2"/><path d="M552.24027,148.58144a.45226.45226,0,1,1-.45281-.45171.45255.45255,0,0,1,.45281.45171" fill="#c2c2c2"/><path d="M553.47816,148.58144a.45227.45227,0,1,1-.45281-.45171.45255.45255,0,0,1,.45281.45171" fill="#c2c2c2"/><path d="M560.90536,148.58144a.45226.45226,0,1,1-.45226-.45171.45208.45208,0,0,1,.45226.45171" fill="#c2c2c2"/><path d="M563.38113,148.58144a.452.452,0,1,1-.45228-.45171.45209.45209,0,0,1,.45228.45171" fill="#c2c2c2"/><path d="M564.619,148.58144a.452.452,0,1,1-.45225-.45171.45209.45209,0,0,1,.45225.45171" fill="#c2c2c2"/><path d="M528.71909,147.34355a.452.452,0,1,1-.45225-.4517.452.452,0,0,1,.45225.4517" fill="#c2c2c2"/><path d="M529.957,147.34355a.452.452,0,1,1-.45225-.4517.45207.45207,0,0,1,.45225.4517" fill="#c2c2c2"/><path d="M531.19487,147.34355a.452.452,0,1,1-.45229-.4517.4521.4521,0,0,1,.45229.4517" fill="#c2c2c2"/><path d="M532.43327,147.34355a.45227.45227,0,1,1-.4528-.4517.45254.45254,0,0,1,.4528.4517" fill="#c2c2c2"/><path d="M537.38473,147.34355a.45224.45224,0,1,1-.45277-.4517.45251.45251,0,0,1,.45277.4517" fill="#c2c2c2"/><path d="M538.62314,147.34355a.45252.45252,0,1,1-.45225-.4517.4524.4524,0,0,1,.45225.4517" fill="#c2c2c2"/><path d="M539.86048,147.34355a.45226.45226,0,1,1-.45226-.4517.45208.45208,0,0,1,.45226.4517" fill="#c2c2c2"/><path d="M541.09836,147.34355a.45225.45225,0,1,1-.45225-.4517.45207.45207,0,0,1,.45225.4517" fill="#c2c2c2"/><path d="M542.33625,147.34355a.45227.45227,0,1,1-.45228-.4517.45209.45209,0,0,1,.45228.4517" fill="#c2c2c2"/><path d="M543.57411,147.34355a.45227.45227,0,1,1-.45225-.4517.45209.45209,0,0,1,.45225.4517" fill="#c2c2c2"/><path d="M544.812,147.34355a.45227.45227,0,1,1-.45226-.4517.4521.4521,0,0,1,.45226.4517" fill="#c2c2c2"/><path d="M546.04985,147.34355a.45174.45174,0,1,1-.45225-.4517.45207.45207,0,0,1,.45225.4517" fill="#c2c2c2"/><path d="M547.28771,147.34355a.45172.45172,0,1,1-.45225-.4517.45172.45172,0,0,1,.45225.4517" fill="#c2c2c2"/><path d="M548.5256,147.34355a.45172.45172,0,1,1-.45226-.4517.45175.45175,0,0,1,.45226.4517" fill="#c2c2c2"/><path d="M549.76345,147.34355a.45172.45172,0,1,1-.45225-.4517.45172.45172,0,0,1,.45225.4517" fill="#c2c2c2"/><path d="M551.00238,147.34355a.45226.45226,0,1,1-.45277-.4517.45251.45251,0,0,1,.45277.4517" fill="#c2c2c2"/><path d="M552.24027,147.34355a.45226.45226,0,1,1-.45281-.4517.45255.45255,0,0,1,.45281.4517" fill="#c2c2c2"/><path d="M553.47816,147.34355a.45227.45227,0,1,1-.45281-.4517.45255.45255,0,0,1,.45281.4517" fill="#c2c2c2"/><path d="M560.90536,147.34355a.45226.45226,0,1,1-.45226-.4517.45208.45208,0,0,1,.45226.4517" fill="#c2c2c2"/><path d="M562.14325,147.34355a.45226.45226,0,1,1-.45226-.4517.45208.45208,0,0,1,.45226.4517" fill="#c2c2c2"/><path d="M563.38113,147.34355a.452.452,0,1,1-.45228-.4517.45209.45209,0,0,1,.45228.4517" fill="#c2c2c2"/><path d="M528.71909,146.10572a.452.452,0,1,1-.45225-.45228.45244.45244,0,0,1,.45225.45228" fill="#c2c2c2"/><path d="M529.957,146.10572a.452.452,0,1,1-.45225-.45228.45246.45246,0,0,1,.45225.45228" fill="#c2c2c2"/><path d="M531.19487,146.10572a.452.452,0,1,1-.45229-.45228.4525.4525,0,0,1,.45229.45228" fill="#c2c2c2"/><path d="M532.43327,146.10572a.45227.45227,0,1,1-.4528-.45228.45293.45293,0,0,1,.4528.45228" fill="#c2c2c2"/><path d="M560.90536,146.10572a.45226.45226,0,1,1-.45226-.45228.45247.45247,0,0,1,.45226.45228" fill="#c2c2c2"/><path d="M562.14325,146.10572a.45226.45226,0,1,1-.45226-.45228.45247.45247,0,0,1,.45226.45228" fill="#c2c2c2"/><path d="M563.38113,146.10572a.452.452,0,1,1-.45228-.45228.45249.45249,0,0,1,.45228.45228" fill="#c2c2c2"/><path d="M564.619,146.10572a.452.452,0,1,1-.45225-.45228.45248.45248,0,0,1,.45225.45228" fill="#c2c2c2"/><path d="M528.71909,144.86784a.452.452,0,1,1-.45225-.45229.45238.45238,0,0,1,.45225.45229" fill="#c2c2c2"/><path d="M529.957,144.86784a.452.452,0,1,1-.45225-.45229.4524.4524,0,0,1,.45225.45229" fill="#c2c2c2"/><path d="M531.19487,144.86784a.452.452,0,1,1-.45229-.45229.45243.45243,0,0,1,.45229.45229" fill="#c2c2c2"/><path d="M532.43327,144.86784a.45227.45227,0,1,1-.4528-.45229.45287.45287,0,0,1,.4528.45229" fill="#c2c2c2"/><path d="M533.67113,144.86784a.45227.45227,0,1,1-.45277-.45229.45286.45286,0,0,1,.45277.45229" fill="#c2c2c2"/><path d="M534.909,144.86784a.45227.45227,0,1,1-.4528-.45229.45287.45287,0,0,1,.4528.45229" fill="#c2c2c2"/><path d="M536.14688,144.86784a.45226.45226,0,1,1-.45278-.45229.45285.45285,0,0,1,.45278.45229" fill="#c2c2c2"/><path d="M538.62314,144.86784a.45252.45252,0,1,1-.45225-.45229.45273.45273,0,0,1,.45225.45229" fill="#c2c2c2"/><path d="M539.86048,144.86784a.45226.45226,0,1,1-.45226-.45229.45241.45241,0,0,1,.45226.45229" fill="#c2c2c2"/><path d="M560.90536,144.86784a.45226.45226,0,1,1-.45226-.45229.45241.45241,0,0,1,.45226.45229" fill="#c2c2c2"/><path d="M563.38113,144.86784a.452.452,0,1,1-.45228-.45229.45243.45243,0,0,1,.45228.45229" fill="#c2c2c2"/><path d="M564.619,144.86784a.452.452,0,1,1-.45225-.45229.45242.45242,0,0,1,.45225.45229" fill="#c2c2c2"/><path d="M528.71909,143.63a.452.452,0,1,1-.45225-.45226.45194.45194,0,0,1,.45225.45226" fill="#c2c2c2"/><path d="M529.957,143.63a.452.452,0,1,1-.45225-.45226.452.452,0,0,1,.45225.45226" fill="#c2c2c2"/><path d="M531.19487,143.63a.452.452,0,1,1-.45229-.45226.452.452,0,0,1,.45229.45226" fill="#c2c2c2"/><path d="M532.43327,143.63a.45227.45227,0,1,1-.4528-.45226.45243.45243,0,0,1,.4528.45226" fill="#c2c2c2"/><path d="M536.14688,143.63a.45226.45226,0,1,1-.45278-.45226.45241.45241,0,0,1,.45278.45226" fill="#c2c2c2"/><path d="M537.38473,143.63a.45224.45224,0,1,1-.45277-.45226.4524.4524,0,0,1,.45277.45226" fill="#c2c2c2"/><path d="M538.62314,143.63a.45252.45252,0,1,1-.45225-.45226.45229.45229,0,0,1,.45225.45226" fill="#c2c2c2"/><path d="M541.09836,143.63a.45225.45225,0,1,1-.45225-.45226.452.452,0,0,1,.45225.45226" fill="#c2c2c2"/><path d="M542.33625,143.63a.45227.45227,0,1,1-.45228-.45226.452.452,0,0,1,.45228.45226" fill="#c2c2c2"/><path d="M543.57411,143.63a.45227.45227,0,1,1-.45225-.45226.452.452,0,0,1,.45225.45226" fill="#c2c2c2"/><path d="M544.812,143.63a.45227.45227,0,1,1-.45226-.45226.452.452,0,0,1,.45226.45226" fill="#c2c2c2"/><path d="M546.04985,143.63a.45174.45174,0,1,1-.45225-.45226.452.452,0,0,1,.45225.45226" fill="#c2c2c2"/><path d="M552.24027,143.63a.45226.45226,0,1,1-.45281-.45226.45243.45243,0,0,1,.45281.45226" fill="#c2c2c2"/><path d="M553.47816,143.63a.45227.45227,0,1,1-.45281-.45226.45243.45243,0,0,1,.45281.45226" fill="#c2c2c2"/><path d="M554.716,143.63a.45225.45225,0,1,1-.45277-.45226.45242.45242,0,0,1,.45277.45226" fill="#c2c2c2"/><path d="M555.9539,143.63a.45227.45227,0,1,1-.4528-.45226.45243.45243,0,0,1,.4528.45226" fill="#c2c2c2"/><path d="M557.19176,143.63a.45226.45226,0,1,1-.45226-.45226.45229.45229,0,0,1,.45226.45226" fill="#c2c2c2"/><path d="M560.90536,143.63a.45226.45226,0,1,1-.45226-.45226.452.452,0,0,1,.45226.45226" fill="#c2c2c2"/><path d="M563.38113,143.63a.452.452,0,1,1-.45228-.45226.452.452,0,0,1,.45228.45226" fill="#c2c2c2"/><path d="M528.71909,142.39206a.452.452,0,1,1-.45225-.45225.45192.45192,0,0,1,.45225.45225" fill="#c2c2c2"/><path d="M529.957,142.39206a.452.452,0,1,1-.45225-.45225.45194.45194,0,0,1,.45225.45225" fill="#c2c2c2"/><path d="M531.19487,142.39206a.452.452,0,1,1-.45229-.45225.452.452,0,0,1,.45229.45225" fill="#c2c2c2"/><path d="M532.43327,142.39206a.45227.45227,0,1,1-.4528-.45225.45241.45241,0,0,1,.4528.45225" fill="#c2c2c2"/><path d="M536.14688,142.39206a.45226.45226,0,1,1-.45278-.45225.45239.45239,0,0,1,.45278.45225" fill="#c2c2c2"/><path d="M537.38473,142.39206a.45224.45224,0,1,1-.45277-.45225.45238.45238,0,0,1,.45277.45225" fill="#c2c2c2"/><path d="M541.09836,142.39206a.45225.45225,0,1,1-.45225-.45225.45194.45194,0,0,1,.45225.45225" fill="#c2c2c2"/><path d="M542.33625,142.39206a.45227.45227,0,1,1-.45228-.45225.452.452,0,0,1,.45228.45225" fill="#c2c2c2"/><path d="M546.04985,142.39206a.45174.45174,0,1,1-.45225-.45225.45194.45194,0,0,1,.45225.45225" fill="#c2c2c2"/><path d="M547.28771,142.39206a.45172.45172,0,1,1-.45225-.45225.45159.45159,0,0,1,.45225.45225" fill="#c2c2c2"/><path d="M548.5256,142.39206a.45172.45172,0,1,1-.45226-.45225.45161.45161,0,0,1,.45226.45225" fill="#c2c2c2"/><path d="M549.76345,142.39206a.45172.45172,0,1,1-.45225-.45225.45159.45159,0,0,1,.45225.45225" fill="#c2c2c2"/><path d="M551.00238,142.39206a.45226.45226,0,1,1-.45277-.45225.45238.45238,0,0,1,.45277.45225" fill="#c2c2c2"/><path d="M552.24027,142.39206a.45226.45226,0,1,1-.45281-.45225.45242.45242,0,0,1,.45281.45225" fill="#c2c2c2"/><path d="M555.9539,142.39206a.45227.45227,0,1,1-.4528-.45225.45241.45241,0,0,1,.4528.45225" fill="#c2c2c2"/><path d="M558.42965,142.39206a.45226.45226,0,1,1-.45226-.45225.4523.4523,0,0,1,.45226.45225" fill="#c2c2c2"/><path d="M559.6675,142.39206a.45225.45225,0,1,1-.45225-.45225.45227.45227,0,0,1,.45225.45225" fill="#c2c2c2"/><path d="M560.90536,142.39206a.45226.45226,0,1,1-.45226-.45225.45195.45195,0,0,1,.45226.45225" fill="#c2c2c2"/><path d="M562.14325,142.39206a.45226.45226,0,1,1-.45226-.45225.45195.45195,0,0,1,.45226.45225" fill="#c2c2c2"/><path d="M563.38113,142.39206a.452.452,0,1,1-.45228-.45225.452.452,0,0,1,.45228.45225" fill="#c2c2c2"/><path d="M564.619,142.39206a.452.452,0,1,1-.45225-.45225.452.452,0,0,1,.45225.45225" fill="#c2c2c2"/><path d="M528.71909,141.1542a.452.452,0,1,1-.45225-.45228.45192.45192,0,0,1,.45225.45228" fill="#c2c2c2"/><path d="M529.957,141.1542a.452.452,0,1,1-.45225-.45228.45194.45194,0,0,1,.45225.45228" fill="#c2c2c2"/><path d="M531.19487,141.1542a.452.452,0,1,1-.45229-.45228.452.452,0,0,1,.45229.45228" fill="#c2c2c2"/><path d="M532.43327,141.1542a.45227.45227,0,1,1-.4528-.45228.45241.45241,0,0,1,.4528.45228" fill="#c2c2c2"/><path d="M533.67113,141.1542a.45227.45227,0,1,1-.45277-.45228.4524.4524,0,0,1,.45277.45228" fill="#c2c2c2"/><path d="M534.909,141.1542a.45227.45227,0,1,1-.4528-.45228.45241.45241,0,0,1,.4528.45228" fill="#c2c2c2"/><path d="M536.14688,141.1542a.45226.45226,0,1,1-.45278-.45228.45239.45239,0,0,1,.45278.45228" fill="#c2c2c2"/><path d="M537.38473,141.1542a.45224.45224,0,1,1-.45277-.45228.45238.45238,0,0,1,.45277.45228" fill="#c2c2c2"/><path d="M538.62314,141.1542a.45252.45252,0,1,1-.45225-.45228.45227.45227,0,0,1,.45225.45228" fill="#c2c2c2"/><path d="M539.86048,141.1542a.45226.45226,0,1,1-.45226-.45228.45195.45195,0,0,1,.45226.45228" fill="#c2c2c2"/><path d="M541.09836,141.1542a.45225.45225,0,1,1-.45225-.45228.45194.45194,0,0,1,.45225.45228" fill="#c2c2c2"/><path d="M542.33625,141.1542a.45227.45227,0,1,1-.45228-.45228.452.452,0,0,1,.45228.45228" fill="#c2c2c2"/><path d="M543.57411,141.1542a.45227.45227,0,1,1-.45225-.45228.452.452,0,0,1,.45225.45228" fill="#c2c2c2"/><path d="M544.812,141.1542a.45227.45227,0,1,1-.45226-.45228.452.452,0,0,1,.45226.45228" fill="#c2c2c2"/><path d="M546.04985,141.1542a.45174.45174,0,1,1-.45225-.45228.45194.45194,0,0,1,.45225.45228" fill="#c2c2c2"/><path d="M547.28771,141.1542a.45172.45172,0,1,1-.45225-.45228.45159.45159,0,0,1,.45225.45228" fill="#c2c2c2"/><path d="M548.5256,141.1542a.45172.45172,0,1,1-.45226-.45228.45162.45162,0,0,1,.45226.45228" fill="#c2c2c2"/><path d="M549.76345,141.1542a.45172.45172,0,1,1-.45225-.45228.45159.45159,0,0,1,.45225.45228" fill="#c2c2c2"/><path d="M551.00238,141.1542a.45226.45226,0,1,1-.45277-.45228.45238.45238,0,0,1,.45277.45228" fill="#c2c2c2"/><path d="M552.24027,141.1542a.45226.45226,0,1,1-.45281-.45228.45242.45242,0,0,1,.45281.45228" fill="#c2c2c2"/><path d="M553.47816,141.1542a.45227.45227,0,1,1-.45281-.45228.45242.45242,0,0,1,.45281.45228" fill="#c2c2c2"/><path d="M554.716,141.1542a.45225.45225,0,1,1-.45277-.45228.4524.4524,0,0,1,.45277.45228" fill="#c2c2c2"/><path d="M555.9539,141.1542a.45227.45227,0,1,1-.4528-.45228.45241.45241,0,0,1,.4528.45228" fill="#c2c2c2"/><path d="M557.19176,141.1542a.45226.45226,0,1,1-.45226-.45228.45227.45227,0,0,1,.45226.45228" fill="#c2c2c2"/><path d="M558.42965,141.1542a.45226.45226,0,1,1-.45226-.45228.4523.4523,0,0,1,.45226.45228" fill="#c2c2c2"/><path d="M559.6675,141.1542a.45225.45225,0,1,1-.45225-.45228.45227.45227,0,0,1,.45225.45228" fill="#c2c2c2"/><path d="M560.90536,141.1542a.45226.45226,0,1,1-.45226-.45228.45195.45195,0,0,1,.45226.45228" fill="#c2c2c2"/><path d="M562.14325,141.1542a.45226.45226,0,1,1-.45226-.45228.45195.45195,0,0,1,.45226.45228" fill="#c2c2c2"/><path d="M563.38113,141.1542a.452.452,0,1,1-.45228-.45228.452.452,0,0,1,.45228.45228" fill="#c2c2c2"/><path d="M564.619,141.1542a.452.452,0,1,1-.45225-.45228.452.452,0,0,1,.45225.45228" fill="#c2c2c2"/><path d="M528.71909,139.91631a.452.452,0,1,1-.45225-.45222.45195.45195,0,0,1,.45225.45222" fill="#c2c2c2"/><path d="M529.957,139.91631a.452.452,0,1,1-.45225-.45222.452.452,0,0,1,.45225.45222" fill="#c2c2c2"/><path d="M531.19487,139.91631a.452.452,0,1,1-.45229-.45222.452.452,0,0,1,.45229.45222" fill="#c2c2c2"/><path d="M533.67113,139.91631a.45227.45227,0,1,1-.45277-.45222.45243.45243,0,0,1,.45277.45222" fill="#c2c2c2"/><path d="M534.909,139.91631a.45227.45227,0,1,1-.4528-.45222.45243.45243,0,0,1,.4528.45222" fill="#c2c2c2"/><path d="M537.38473,139.91631a.45224.45224,0,1,1-.45277-.45222.45241.45241,0,0,1,.45277.45222" fill="#c2c2c2"/><path d="M538.62314,139.91631a.45252.45252,0,1,1-.45225-.45222.4523.4523,0,0,1,.45225.45222" fill="#c2c2c2"/><path d="M541.09836,139.91631a.45225.45225,0,1,1-.45225-.45222.452.452,0,0,1,.45225.45222" fill="#c2c2c2"/><path d="M542.33625,139.91631a.45227.45227,0,1,1-.45228-.45222.452.452,0,0,1,.45228.45222" fill="#c2c2c2"/><path d="M543.57411,139.91631a.45227.45227,0,1,1-.45225-.45222.452.452,0,0,1,.45225.45222" fill="#c2c2c2"/><path d="M546.04985,139.91631a.45174.45174,0,1,1-.45225-.45222.452.452,0,0,1,.45225.45222" fill="#c2c2c2"/><path d="M547.28771,139.91631a.45172.45172,0,1,1-.45225-.45222.45161.45161,0,0,1,.45225.45222" fill="#c2c2c2"/><path d="M549.76345,139.91631a.45172.45172,0,1,1-.45225-.45222.45161.45161,0,0,1,.45225.45222" fill="#c2c2c2"/><path d="M551.00238,139.91631a.45226.45226,0,1,1-.45277-.45222.45241.45241,0,0,1,.45277.45222" fill="#c2c2c2"/><path d="M553.47816,139.91631a.45227.45227,0,1,1-.45281-.45222.45244.45244,0,0,1,.45281.45222" fill="#c2c2c2"/><path d="M555.9539,139.91631a.45227.45227,0,1,1-.4528-.45222.45243.45243,0,0,1,.4528.45222" fill="#c2c2c2"/><path d="M557.19176,139.91631a.45226.45226,0,1,1-.45226-.45222.4523.4523,0,0,1,.45226.45222" fill="#c2c2c2"/><path d="M559.6675,139.91631a.45225.45225,0,1,1-.45225-.45222.4523.4523,0,0,1,.45225.45222" fill="#c2c2c2"/><path d="M560.90536,139.91631a.45226.45226,0,1,1-.45226-.45222.452.452,0,0,1,.45226.45222" fill="#c2c2c2"/><path d="M563.38113,139.91631a.452.452,0,1,1-.45228-.45222.452.452,0,0,1,.45228.45222" fill="#c2c2c2"/><path d="M564.619,139.91631a.452.452,0,1,1-.45225-.45222.452.452,0,0,1,.45225.45222" fill="#c2c2c2"/><polyline points="564.111 138.799 565.284 138.799 565.284 139.972 564.907 139.972 564.907 139.176 564.111 139.176" fill="#c2c2c2"/><path d="M535.307,201.53558a.39987.39987,0,0,0-.392.392.39249.39249,0,1,0,.392-.392" fill="#c2c2c2"/><path d="M536.654,201.53558a.40074.40074,0,0,0-.393.392.39249.39249,0,1,0,.393-.392" fill="#c2c2c2"/><path d="M535.307,200.18958a.39991.39991,0,0,0-.392.392.392.392,0,1,0,.392-.392" fill="#c2c2c2"/><path d="M536.654,200.18958a.40077.40077,0,0,0-.393.392.392.392,0,1,0,.393-.392" fill="#c2c2c2"/><path d="M535.307,210.96356a.399.399,0,0,0-.392.391.392.392,0,1,0,.392-.391" fill="#c2c2c2"/><path d="M536.654,210.96356a.39989.39989,0,0,0-.393.391.392.392,0,1,0,.393-.391" fill="#c2c2c2"/><path d="M535.307,209.61658a.39972.39972,0,0,0-.392.391.392.392,0,1,0,.392-.391" fill="#c2c2c2"/><path d="M536.654,209.61658a.40059.40059,0,0,0-.393.391.392.392,0,1,0,.393-.391" fill="#c2c2c2"/><path d="M535.307,208.26953a.39993.39993,0,0,0-.392.392.392.392,0,1,0,.392-.392" fill="#c2c2c2"/><path d="M536.654,208.26953a.40079.40079,0,0,0-.393.392.392.392,0,1,0,.393-.392" fill="#c2c2c2"/><path d="M535.307,206.92255a.39992.39992,0,0,0-.392.392.39252.39252,0,1,0,.392-.392" fill="#c2c2c2"/><path d="M536.654,206.92255a.40079.40079,0,0,0-.393.392.39252.39252,0,1,0,.393-.392" fill="#c2c2c2"/><path d="M535.307,205.57556a.40011.40011,0,0,0-.392.393.39249.39249,0,1,0,.392-.393" fill="#c2c2c2"/><path d="M536.654,205.57556a.401.401,0,0,0-.393.393.39249.39249,0,1,0,.393-.393" fill="#c2c2c2"/><path d="M538.001,210.96356a.39922.39922,0,0,0-.393.391.392.392,0,1,0,.393-.391" fill="#c2c2c2"/><path d="M539.347,210.96356a.399.399,0,0,0-.392.391.392.392,0,1,0,.392-.391" fill="#c2c2c2"/><path d="M538.001,209.61658a.39992.39992,0,0,0-.393.391.392.392,0,1,0,.393-.391" fill="#c2c2c2"/><path d="M539.347,209.61658a.3997.3997,0,0,0-.392.391.392.392,0,1,0,.392-.391" fill="#c2c2c2"/><path d="M538.001,208.26953a.40012.40012,0,0,0-.393.392.392.392,0,1,0,.393-.392" fill="#c2c2c2"/><path d="M539.347,208.26953a.3999.3999,0,0,0-.392.392.392.392,0,1,0,.392-.392" fill="#c2c2c2"/><path d="M538.001,206.92255a.40011.40011,0,0,0-.393.392.39252.39252,0,1,0,.393-.392" fill="#c2c2c2"/><path d="M539.347,206.92255a.3999.3999,0,0,0-.392.392.39252.39252,0,1,0,.392-.392" fill="#c2c2c2"/><path d="M538.001,205.57556a.40031.40031,0,0,0-.393.393.39249.39249,0,1,0,.393-.393" fill="#c2c2c2"/><path d="M539.347,205.57556a.40009.40009,0,0,0-.392.393.39249.39249,0,1,0,.392-.393" fill="#c2c2c2"/><path d="M538.001,204.22955a.40011.40011,0,0,0-.393.392.392.392,0,1,0,.393-.392" fill="#c2c2c2"/><path d="M539.347,204.22955a.39989.39989,0,0,0-.392.392.392.392,0,1,0,.392-.392" fill="#c2c2c2"/><path d="M540.694,210.96356a.39992.39992,0,0,0-.393.391.392.392,0,1,0,.393-.391" fill="#c2c2c2"/><path d="M540.694,209.61658a.40062.40062,0,0,0-.393.391.392.392,0,1,0,.393-.391" fill="#c2c2c2"/><path d="M540.694,208.26953a.40082.40082,0,0,0-.393.392.392.392,0,1,0,.393-.392" fill="#c2c2c2"/><path d="M540.694,206.92255a.40081.40081,0,0,0-.393.392.39252.39252,0,1,0,.393-.392" fill="#c2c2c2"/><path d="M540.694,205.57556a.401.401,0,0,0-.393.393.39249.39249,0,1,0,.393-.393" fill="#c2c2c2"/><path d="M540.694,204.22955a.40081.40081,0,0,0-.393.392.392.392,0,1,0,.393-.392" fill="#c2c2c2"/><path d="M540.694,202.88257a.40077.40077,0,0,0-.393.392.392.392,0,1,0,.393-.392" fill="#c2c2c2"/><path d="M539.347,202.88257a.39986.39986,0,0,0-.392.392.392.392,0,1,0,.392-.392" fill="#c2c2c2"/><path d="M540.694,200.18958a.4008.4008,0,0,0-.393.392.392.392,0,1,0,.393-.392" fill="#c2c2c2"/><path d="M539.347,200.18958a.39988.39988,0,0,0-.392.392.392.392,0,1,0,.392-.392" fill="#c2c2c2"/><path d="M542.04,209.61658a.39969.39969,0,0,0-.392.391.392.392,0,1,0,.392-.391" fill="#c2c2c2"/><path d="M542.04,208.26953a.3999.3999,0,0,0-.392.392.392.392,0,1,0,.392-.392" fill="#c2c2c2"/><path d="M542.04,206.92255a.39989.39989,0,0,0-.392.392.39252.39252,0,1,0,.392-.392" fill="#c2c2c2"/><path d="M542.04,205.57556a.40008.40008,0,0,0-.392.393.39249.39249,0,1,0,.392-.393" fill="#c2c2c2"/><path d="M542.04,204.22955a.39988.39988,0,0,0-.392.392.392.392,0,1,0,.392-.392" fill="#c2c2c2"/><path d="M542.04,202.88257a.39985.39985,0,0,0-.392.392.392.392,0,1,0,.392-.392" fill="#c2c2c2"/><path d="M542.04,201.53558a.39984.39984,0,0,0-.392.392.39249.39249,0,1,0,.392-.392" fill="#c2c2c2"/><path d="M542.04,200.18958a.39988.39988,0,0,0-.392.392.392.392,0,1,0,.392-.392" fill="#c2c2c2"/><path d="M543.387,210.96356a.399.399,0,0,0-.392.391.392.392,0,1,0,.392-.391" fill="#c2c2c2"/><path d="M543.387,209.61658a.39972.39972,0,0,0-.392.391.392.392,0,1,0,.392-.391" fill="#c2c2c2"/><path d="M543.387,208.26953a.39992.39992,0,0,0-.392.392.392.392,0,1,0,.392-.392" fill="#c2c2c2"/><path d="M543.387,206.92255a.39992.39992,0,0,0-.392.392.39252.39252,0,1,0,.392-.392" fill="#c2c2c2"/><path d="M543.387,205.57556a.40011.40011,0,0,0-.392.393.39249.39249,0,1,0,.392-.393" fill="#c2c2c2"/><path d="M543.387,204.22955a.39991.39991,0,0,0-.392.392.392.392,0,1,0,.392-.392" fill="#c2c2c2"/><path d="M543.387,202.88257a.39987.39987,0,0,0-.392.392.392.392,0,1,0,.392-.392" fill="#c2c2c2"/><path d="M543.387,201.53558a.39987.39987,0,0,0-.392.392.39249.39249,0,1,0,.392-.392" fill="#c2c2c2"/><path d="M543.387,200.18958a.3999.3999,0,0,0-.392.392.392.392,0,1,0,.392-.392" fill="#c2c2c2"/><path d="M544.734,209.61658a.39972.39972,0,0,0-.392.391.392.392,0,1,0,.392-.391" fill="#c2c2c2"/><path d="M544.734,208.26953a.39993.39993,0,0,0-.392.392.392.392,0,1,0,.392-.392" fill="#c2c2c2"/><path d="M544.734,204.22955a.39992.39992,0,0,0-.392.392.392.392,0,1,0,.392-.392" fill="#c2c2c2"/><path d="M544.734,202.88257a.39988.39988,0,0,0-.392.392.392.392,0,1,0,.392-.392" fill="#c2c2c2"/><path d="M544.734,201.53558a.39988.39988,0,0,0-.392.392.39249.39249,0,1,0,.392-.392" fill="#c2c2c2"/><path d="M544.734,200.18958a.39991.39991,0,0,0-.392.392.392.392,0,1,0,.392-.392" fill="#c2c2c2"/><path d="M535.307,202.88257a.39988.39988,0,0,0-.392.392.392.392,0,1,0,.392-.392" fill="#c2c2c2"/><path d="M536.654,202.88257a.40075.40075,0,0,0-.393.392.392.392,0,1,0,.393-.392" fill="#c2c2c2"/><path d="M538.001,202.88257a.40007.40007,0,0,0-.393.392.392.392,0,1,0,.393-.392" fill="#c2c2c2"/><path d="M538.001,200.18958a.4001.4001,0,0,0-.393.392.392.392,0,1,0,.393-.392" fill="#c2c2c2"/><path d="M544.735,206.92255a.40012.40012,0,0,0-.393.392.39252.39252,0,1,0,.393-.392" fill="#c2c2c2"/><path d="M544.735,205.57556a.40031.40031,0,0,0-.393.393.39249.39249,0,1,0,.393-.393" fill="#c2c2c2"/><path d="M542.04,210.96356a.399.399,0,0,0-.392.391.392.392,0,1,0,.392-.391" fill="#c2c2c2"/><path d="M544.735,210.96356a.39923.39923,0,0,0-.393.391.392.392,0,1,0,.393-.391" fill="#c2c2c2"/><polyline points="263.808 134.455 262.133 134.455 262.133 137.489" fill="none" stroke="gold" stroke-miterlimit="22.9256" stroke-width="0.2835"/><path d="M259.62369,149.53137a.4005.4005,0,1,1,.401.4.40159.40159,0,0,1-.401-.4" fill="#aeff00" fill-rule="evenodd"/><path d="M261.78819,150.545a.4005.4005,0,1,1,.401.4.40012.40012,0,0,1-.401-.4" fill="#aeff00" fill-rule="evenodd"/><path d="M264.02018,150.545a.4.4,0,1,1,.4.4.39992.39992,0,0,1-.4-.4" fill="#aeff00" fill-rule="evenodd"/><path d="M272.11209,147.8062a.4.4,0,1,1,.4.4.40072.40072,0,0,1-.4-.4" fill="#e62129" fill-rule="evenodd"/><path d="M264.86288,137.4894a.4.4,0,1,1,.4.4.39926.39926,0,0,1-.4-.4" fill="#e62129" fill-rule="evenodd"/><path d="M263.36206,147.52168a.4.4,0,1,1,.4.401.39989.39989,0,0,1-.4-.401" fill="#aeff00" fill-rule="evenodd"/><path d="M267.4288,143.26a.4005.4005,0,1,1,.4.4.40013.40013,0,0,1-.4-.4" fill="#e62129" fill-rule="evenodd"/><path d="M271.09674,145.06608a.4.4,0,1,1,.4.40094.39985.39985,0,0,1-.4-.40094" fill="#aeff00" fill-rule="evenodd"/><path d="M277.094,143.56608a.4.4,0,1,1,.4.40094.39984.39984,0,0,1-.4-.40094" fill="#e62129" fill-rule="evenodd"/><path d="M277.094,137.90637a.4.4,0,1,1,.4.40106.39988.39988,0,0,1-.4-.40106" fill="#e62129" fill-rule="evenodd"/><path d="M275.94123,147.00432a.4.4,0,1,1,.4.40094.39987.39987,0,0,1-.4-.40094" fill="#e62129" fill-rule="evenodd"/><path d="M263.17686,137.4894a.40051.40051,0,1,1,.4.4.39992.39992,0,0,1-.4-.4" fill="#e62129" fill-rule="evenodd"/><polyline points="234.86 157.254 226.034 157.254 226.034 177.062 251.279 177.062 251.279 149.531 260.024 149.531 260.024 150.545 264.42 150.545 264.42 148.983 263.762 148.983 263.762 147.522" fill="none" stroke="#aeff00" stroke-miterlimit="22.9256" stroke-width="0.2835"/><polyline points="267.829 143.259 272.512 143.259 272.512 147.806 274.049 147.806 274.049 146.883 274.597 146.883" fill="none" stroke="#e62129" stroke-miterlimit="22.9256" stroke-width="0.2835"/><path d="M271.09674,137.90637a.4.4,0,1,1,.4.40106.39989.39989,0,0,1-.4-.40106" fill="#e62129" fill-rule="evenodd"/><polyline points="274.597 146.883 276.341 146.883 276.341 150.105 279.356 150.105 279.356 143.567 277.494 143.567 277.494 137.874 271.497 137.874 271.497 135.727 263.577 135.727 263.577 137.506 265.263 137.506" fill="none" stroke="#e62129" stroke-miterlimit="22.9256" stroke-width="0.2835"/><polyline points="271.497 145.067 269.158 145.067 269.158 150.545 262.089 150.545" fill="none" stroke="#aeff00" stroke-miterlimit="22.9256" stroke-width="0.2835"/><path d="M261.74626,147.52168a.4.4,0,1,1,.4.401.3999.3999,0,0,1-.4-.401" fill="#00d900" fill-rule="evenodd"/><polyline points="234.86 160.933 227.007 160.933 227.007 175.457 249.845 175.457 249.879 148.428 262.164 148.428 262.13 147.45" fill="none" stroke="#00d900" stroke-miterlimit="22.9256" stroke-width="0.2835"/><path d="M260.14526,147.52168a.4005.4005,0,1,1,.401.401.40076.40076,0,0,1-.401-.401" fill="lime" fill-rule="evenodd"/><polyline points="234.86 163.438 228.412 163.438 228.412 173.896 248.374 173.896 248.374 147.522 260.546 147.522" fill="none" stroke="lime" stroke-miterlimit="22.9256" stroke-width="0.2835"/><path d="M543.07323,204.62116a.30939.30939,0,1,1,.30938.3102.30881.30881,0,0,1-.30938-.3102" fill="#e62129" fill-rule="evenodd"/><polyline points="279.357 145.6 279.357 197.48 548.984 197.292 548.942 204.622 543.383 204.622" fill="none" stroke="#e62129" stroke-miterlimit="22.9256" stroke-width="0.2835"/><path d="M280.00791,163.65133v-10.84a.47953.47953,0,0,0-.478-.479h-.346a.48037.48037,0,0,0-.479.479v10.84a.48035.48035,0,0,0,.479.479h.346a.4795.4795,0,0,0,.478-.479" fill="#e62129" fill-rule="evenodd"/><text transform="translate(279.72754 160.1886) rotate(-90)" font-size="1.123" fill="#fefefe" font-family="DINCond-Bold" font-weight="700">VPH_PWR</text><path d="M261.73335,137.4894a.4.4,0,1,1,.4.4.3999.3999,0,0,1-.4-.4" fill="gold" fill-rule="evenodd"/><path d="M261.73335,135.82228a.4.4,0,1,1,.4.4.40073.40073,0,0,1-.4-.4" fill="gold" fill-rule="evenodd"/><path d="M263.40805,134.45408a.4.4,0,1,1,.4.40094.3999.3999,0,0,1-.4-.40094" fill="gold" fill-rule="evenodd"/><polyline points="234.86 152.411 226.784 152.411 226.784 123.336 265.07 123.336 265.07 134.455" fill="none" stroke="gold" stroke-miterlimit="22.9256" stroke-width="0.2835"/><path d="M237.75459,123.988h10.84a.48033.48033,0,0,0,.479-.479v-.346a.47954.47954,0,0,0-.479-.478h-10.84a.48022.48022,0,0,0-.479.478v.346a.481.481,0,0,0,.479.479" fill="gold" fill-rule="evenodd"/><text transform="translate(240.36992 123.70764)" font-size="1.123" font-family="DINCond-Bold" font-weight="700">LDI_PWM_CTL</text><line x1="234.86009" y1="158.60588" x2="234.86009" y2="157.28593" fill="none" stroke="#aeff00" stroke-miterlimit="22.9256" stroke-width="0.2835"/><path d="M234.4601,158.57327a.4.4,0,1,1,.4.4.40068.40068,0,0,1-.4-.4" fill="#aeff00" fill-rule="evenodd"/><text transform="translate(234.66063 158.73108)" font-size="0.448" font-family="DINCond-Bold" font-weight="700">19</text><path d="M234.4601,157.25332a.4.4,0,1,1,.4.40094.3999.3999,0,0,1-.4-.40094" fill="#aeff00" fill-rule="evenodd"/><text transform="translate(234.66063 157.41467)" font-size="0.448" font-family="DINCond-Bold" font-weight="700">17</text><line x1="234.86009" y1="162.31633" x2="234.86009" y2="160.99736" fill="none" stroke="#00d900" stroke-miterlimit="22.9256" stroke-width="0.2835"/><path d="M234.4601,162.25209a.4.4,0,1,1,.4.4.39988.39988,0,0,1-.4-.4" fill="#00d900" fill-rule="evenodd"/><text transform="translate(234.67821 162.41077)" font-size="0.448" font-family="DINCond-Bold" font-weight="700">25</text><path d="M234.4601,160.93214a.4.4,0,1,1,.4.401.3999.3999,0,0,1-.4-.401" fill="#00d900" fill-rule="evenodd"/><text transform="translate(234.67821 161.09143)" font-size="0.448" font-family="DINCond-Bold" font-weight="700">23</text><line x1="234.86009" y1="164.71029" x2="234.86009" y2="163.39133" fill="none" stroke="lime" stroke-miterlimit="22.9256" stroke-width="0.2835"/><path d="M234.4601,164.75719a.4.4,0,1,1,.4.4.39985.39985,0,0,1-.4-.4" fill="lime" fill-rule="evenodd"/><text transform="translate(234.67821 164.91565)" font-size="0.448" font-family="DINCond-Bold" font-weight="700">29</text><path d="M234.4601,163.43822a.4.4,0,1,1,.4.4.40011.40011,0,0,1-.4-.4" fill="lime" fill-rule="evenodd"/><text transform="translate(234.67821 163.59924)" font-size="0.448" font-family="DINCond-Bold" font-weight="700">27</text><path d="M234.4601,152.41138a.4.4,0,1,1,.4.4.40073.40073,0,0,1-.4-.4" fill="gold" fill-rule="evenodd"/><text transform="translate(234.74193 152.57581)" font-size="0.448" font-family="DINCond-Bold" font-weight="700">9</text><path d="M232.79228,177.69276h10.84a.4801.4801,0,0,0,.479-.478v-.346a.481.481,0,0,0-.479-.479h-10.84a.48035.48035,0,0,0-.479.479v.346a.47945.47945,0,0,0,.479.478" fill="#aeff00" fill-rule="evenodd"/><text transform="translate(236.02568 177.41272)" font-size="1.123" font-family="DINCond-Bold" font-weight="700">LED_A_20P</text><path d="M232.79228,176.07919h10.84a.48016.48016,0,0,0,.479-.478v-.346a.481.481,0,0,0-.479-.479h-10.84a.48034.48034,0,0,0-.479.479v.346a.47951.47951,0,0,0,.479.478" fill="#00d900" fill-rule="evenodd"/><text transform="translate(236.76494 175.79944)" font-size="1.123" font-family="DINCond-Bold" font-weight="700">LED_K1</text><path d="M232.79228,174.5233h10.84a.481.481,0,0,0,.479-.479v-.345a.48036.48036,0,0,0-.479-.479h-10.84a.47971.47971,0,0,0-.479.479v.345a.4803.4803,0,0,0,.479.479" fill="lime" fill-rule="evenodd"/><text transform="translate(236.76494 174.2428)" font-size="1.123" font-family="DINCond-Bold" font-weight="700">LED_K2</text><text transform="translate(263.56129 147.72034)" font-size="0.552" font-family="DINCond-Bold" font-weight="700">11</text><text transform="translate(260.40065 147.72034)" font-size="0.552" font-family="DINCond-Bold" font-weight="700">9</text><text transform="translate(261.90401 147.72034)" font-size="0.552" font-family="DINCond-Bold" font-weight="700">10</text><text transform="translate(267.56187 143.45667)" font-size="0.552" fill="#fefefe" font-family="DINCond-Bold" font-weight="700">14</text><path d="M257.87539,134.45451a.4.4,0,1,1,.4.4.39986.39986,0,0,1-.4-.4" fill="#ff6700" fill-rule="evenodd"/><path d="M529.15217,170.86379a.35282.35282,0,1,1,.35326.3532.35246.35246,0,0,1-.35326-.3532" fill="#ff6700" fill-rule="evenodd"/><polyline points="257.916 141.712 256.31 141.712 256.31 134.455 258.275 134.455 258.275 131.798 511.75 131.798 511.75 170.864 529.521 170.864" fill="none" stroke="#ff6700" stroke-miterlimit="22.9256" stroke-width="0.2835"/><path d="M257.516,141.71172a.4.4,0,1,1,.4.4.39992.39992,0,0,1-.4-.4" fill="#ff6700" fill-rule="evenodd"/><text transform="translate(257.76448 141.90686)" font-size="0.552" fill="#fff" font-family="DINCond-Bold" font-weight="700">6</text><path d="M268.88542,132.44975h10.84a.48038.48038,0,0,0,.479-.479v-.346a.48029.48029,0,0,0-.479-.479h-10.84a.481.481,0,0,0-.479.479v.346a.48106.48106,0,0,0,.479.479" fill="#ff6700" fill-rule="evenodd"/><text transform="translate(272.07838 132.17151)" font-size="1.123" fill="#fff" font-family="DINCond-Bold" font-weight="700">LCD_BL_EN</text><path d="M278.9564,146.48245a.4005.4005,0,1,1,.4.401.39991.39991,0,0,1-.4-.401" fill="#e62129" fill-rule="evenodd"/><path d="M278.9564,150.10472a.4005.4005,0,1,1,.4.4.39986.39986,0,0,1-.4-.4" fill="#e62129" fill-rule="evenodd"/><path d="M548.569,202.06331a.4.4,0,1,1,.4.4.3999.3999,0,0,1-.4-.4" fill="#e62129" fill-rule="evenodd"/><path d="M264.669,134.45408a.4005.4005,0,1,1,.4.40094.3999.3999,0,0,1-.4-.40094" fill="gold" fill-rule="evenodd"/><text transform="translate(262.02119 137.6842)" font-size="0.552" font-family="DINCond-Bold" font-weight="700">3</text><text transform="translate(263.4483 137.6842)" font-size="0.552" fill="#fefefe" font-family="DINCond-Bold" font-weight="700">2</text><text transform="translate(265.13335 137.6842)" font-size="0.552" fill="#fefefe" font-family="DINCond-Bold" font-weight="700">1</text><path d="M534.31061,197.95948h10.84a.47953.47953,0,0,0,.479-.478v-.346a.48036.48036,0,0,0-.479-.479h-10.84a.48033.48033,0,0,0-.479.479v.346a.4795.4795,0,0,0,.479.478" fill="#e62129" fill-rule="evenodd"/><text transform="translate(537.7737 197.67932)" font-size="1.123" fill="#fefefe" font-family="DINCond-Bold" font-weight="700">VPH_PWR</text><path d="M513.16608,171.51646h10.84a.48039.48039,0,0,0,.479-.479v-.346a.4803.4803,0,0,0-.479-.479h-10.84a.481.481,0,0,0-.479.479v.346a.48107.48107,0,0,0,.479.479" fill="#ff6700" fill-rule="evenodd"/><text transform="translate(516.35904 171.23792)" font-size="1.123" fill="#fff" font-family="DINCond-Bold" font-weight="700">LCD_BL_EN</text><path d="M646.38546,42.5799a21.29,21.29,0,0,0,0-42.5799H195.50466a21.29,21.29,0,1,0,0,42.5799Z" fill="#292c31"/><path d="M811.55994,520.90338l-.11188-.19379a49.19433,49.19433,0,0,0-42.60352-24.59716H225.50244V595.276H768.62085a49.58168,49.58168,0,0,0,42.939-24.79083l.00006-.00006A49.582,49.582,0,0,0,811.55994,520.90338Z" fill="#cfd1d2"/><path d="M175.79919,496.11243h-102.53a49.58146,49.58146,0,0,0-42.939,24.791h-.00006a49.58165,49.58165,0,0,0,0,49.58155h.00006a49.58146,49.58146,0,0,0,42.939,24.791H225.50244V496.11243Z" fill="#292c31"/><line x1="225.50247" y1="520.78351" x2="811.55994" y2="520.78351" fill="none" stroke="#fff" stroke-miterlimit="10" stroke-width="0.25"/><line x1="225.50247" y1="545.50626" x2="818.28571" y2="545.50626" fill="none" stroke="#fff" stroke-miterlimit="10" stroke-width="0.25"/><line x1="225.50247" y1="570.29747" x2="811.42857" y2="570.29747" fill="none" stroke="#fff" stroke-miterlimit="10" stroke-width="0.25"/><text transform="translate(36.65247 550.84631)" font-size="17" fill="#fff" font-family="DINCond-Bold" font-weight="700"> ELECTRICAL COLOR LEGEND </text><text transform="translate(335.52271 26.58655)" font-size="16" fill="#fff" font-family="DINCond-Bold" font-weight="700">SAMSUNG SM-G532F &gt; <tspan x="123.13281" y="0" font-size="14" letter-spacing="-0.01904em">L</tspan><tspan x="128.22852" y="0" font-size="14">CD LIGHT</tspan></text><path d="M244.00645,516.80454h-.00009a8.504,8.504,0,0,1-8.50389-8.504h0a8.504,8.504,0,0,1,8.50389-8.504h.00009a8.50393,8.50393,0,0,1,8.50389,8.504h0A8.504,8.504,0,0,1,244.00645,516.80454Z" fill="#aeff00" fill-rule="evenodd"/><text transform="translate(262.0605 511.62561)" font-size="9" font-family="DINCond-Bold" font-weight="700">LED_A_20P</text><path d="M244.00645,542.03024h-.00009a8.504,8.504,0,0,1-8.50389-8.504h0a8.504,8.504,0,0,1,8.50389-8.504h.00009a8.50393,8.50393,0,0,1,8.50389,8.504h0A8.504,8.504,0,0,1,244.00645,542.03024Z" fill="#00d900" fill-rule="evenodd"/><text transform="translate(262.0605 536.8512)" font-size="9" font-family="DINCond-Bold" font-weight="700">LED_K1</text><path d="M359.328,516.80454H359.328a8.504,8.504,0,0,1-8.50389-8.504h0a8.504,8.504,0,0,1,8.50389-8.504h.00008a8.50394,8.50394,0,0,1,8.5039,8.504h0A8.504,8.504,0,0,1,359.328,516.80454Z" fill="#ff6700" fill-rule="evenodd"/><text transform="translate(377.38213 511.62561)" font-size="9" font-family="DINCond-Bold" font-weight="700">LCD_BL_EN</text><path d="M359.328,542.03024H359.328a8.504,8.504,0,0,1-8.50389-8.504h0a8.504,8.504,0,0,1,8.50389-8.504h.00008a8.50394,8.50394,0,0,1,8.5039,8.504h0A8.504,8.504,0,0,1,359.328,542.03024Z" fill="#e62129" fill-rule="evenodd"/><text transform="translate(377.38213 536.8512)" font-size="9" font-family="DINCond-Bold" font-weight="700">VPH_PWR</text><path d="M244.00645,566.61906h-.00009a8.504,8.504,0,0,1-8.50389-8.504h0a8.504,8.504,0,0,1,8.50389-8.504h.00009a8.50394,8.50394,0,0,1,8.50389,8.504h0A8.504,8.504,0,0,1,244.00645,566.61906Z" fill="lime" fill-rule="evenodd"/><text transform="translate(262.0605 561.44006)" font-size="9" font-family="DINCond-Bold" font-weight="700">LED_K2</text><path d="M244.00645,591.21594h-.00009a8.504,8.504,0,0,1-8.50389-8.504h0a8.504,8.504,0,0,1,8.50389-8.504h.00009a8.50393,8.50393,0,0,1,8.50389,8.504h0A8.504,8.504,0,0,1,244.00645,591.21594Z" fill="gold" fill-rule="evenodd"/><text transform="translate(262.0605 586.03674)" font-size="9" font-family="DINCond-Bold" font-weight="700">LDI_PWM_CTL</text><rect x="0.00013" y="0.00021" width="841.88976" height="595.27559" fill="none"/></svg>