<svg xmlns="http://www.w3.org/2000/svg" viewBox="0 0 841.88976 595.27559"><title>Voltage Parametric</title><path d="M810.71948,521.17429l-.11194-.19378A49.19427,49.19427,0,0,0,768.004,496.3834H225.77453v99.16351H767.78027a49.58162,49.58162,0,0,0,42.93909-24.79083l.00012-.00006A49.5817,49.5817,0,0,0,810.71948,521.17429Z" fill="#ced1d2"/><path d="M225.77453,496.655v-.27161H73.79236a49.48482,49.48482,0,0,0-42.86823,24.791h-.00006a49.65233,49.65233,0,0,0,0,49.58148h.00006a49.48481,49.48481,0,0,0,42.86823,24.791H225.77453V496.655Z" fill="#292c31"/><circle cx="241.85834" cy="510.28768" r="8.50394" fill="red"/><line x1="225.77453" y1="520.82132" x2="810.51522" y2="520.82132" fill="none" stroke="#fff" stroke-linejoin="round" stroke-width="0.25"/><line x1="225.77453" y1="545.6122" x2="817.36092" y2="545.6122" fill="none" stroke="#fff" stroke-linejoin="round" stroke-width="0.25"/><line x1="225.77453" y1="570.40307" x2="810.9547" y2="570.40307" fill="none" stroke="#fff" stroke-linejoin="round" stroke-width="0.25"/><text transform="translate(254.83895 513.78679)" font-size="12" font-family="DINCond-Bold" font-weight="700">AFTER P<tspan x="33.15527" y="0" letter-spacing="0.01599em">O</tspan><tspan x="38.89111" y="0">WER KEY PRESSED</tspan></text><circle cx="241.85834" cy="534.0394" r="8.50394" fill="#ff660b"/><text transform="translate(254.83895 537.89147)" font-size="12" font-family="DINCond-Bold" font-weight="700">BE<tspan x="10.41553" y="0" letter-spacing="0.00199em">F</tspan><tspan x="15.11963" y="0">ORE P</tspan><tspan x="38.80713" y="0" letter-spacing="0.01599em">O</tspan><tspan x="44.54297" y="0">WER KEY PRESSED</tspan></text><circle cx="241.85834" cy="558.56881" r="8.50394" fill="#ff50e1"/><text transform="translate(254.83895 562.9503)" font-size="12" font-family="DINCond-Bold" font-weight="700">AFTER USB INSE<tspan x="65.24268" y="0" letter-spacing="-0.02401em">R</tspan><tspan x="70.69043" y="0" letter-spacing="0.00004em">TED</tspan></text><circle cx="241.85834" cy="583.13413" r="8.50394" fill="#ff0"/><text transform="translate(254.83895 586.45677)" font-size="12" font-family="DINCond-Bold" font-weight="700">SH<tspan x="11.09961" y="0" letter-spacing="0.01599em">O</tspan><tspan x="16.83545" y="0">WN IF FE</tspan><tspan x="52.58252" y="0" letter-spacing="-0.04297em">A</tspan><tspan x="57.68262" y="0">TURE TRIGGERED</tspan></text><path d="M257.15783,184.73067a.43314.43314,0,0,0-.425.42493.42312.42312,0,0,0,.425.42592.4338.4338,0,0,0,.42543-.42592.44486.44486,0,0,0-.42543-.42493" fill="red"/><polyline points="250.687 185.156 250.687 185.156 257.335 185.156" fill="none" stroke="red" stroke-linejoin="round" stroke-width="0.3"/><rect x="238.59499" y="184.15704" width="14.17323" height="2.01683" rx="1.00842" fill="red"/><rect x="243.28939" y="182.42519" width="4.78442" height="2.26839" rx="1.00842" fill="red"/><text transform="translate(241.44189 185.42957)" font-size="1.39746" fill="#fff" font-family="DINCond-Bold" font-weight="700">VDD_VSYS22_2P0</text><text transform="translate(244.24853 183.90015)" font-size="1.39746" fill="#fff" font-family="DINCond-Bold" font-weight="700">C4002</text><path d="M288.4752,190.84831a.43316.43316,0,0,0-.425.42494.42313.42313,0,0,0,.425.42592.4338.4338,0,0,0,.42543-.42592.44486.44486,0,0,0-.42543-.42494" fill="red"/><polyline points="282.004 191.274 282.004 191.274 288.653 191.274" fill="none" stroke="red" stroke-linejoin="round" stroke-width="0.3"/><rect x="269.81131" y="190.27469" width="14.17323" height="2.01683" rx="1.00842" fill="red"/><rect x="274.50571" y="188.54283" width="4.78442" height="2.26839" rx="1.00842" fill="red"/><text transform="translate(273.06274 191.54722)" font-size="1.39746" fill="#fff" font-family="DINCond-Bold" font-weight="700">VDD_VIO18_1P8</text><text transform="translate(275.4646 190.0178)" font-size="1.39746" fill="#fff" font-family="DINCond-Bold" font-weight="700">C4013</text><path d="M256.2337,199.1618a.43315.43315,0,0,0-.425.42493.42312.42312,0,0,0,.425.42593.4338.4338,0,0,0,.42543-.42593.44486.44486,0,0,0-.42543-.42493" fill="red"/><polyline points="249.763 199.587 249.763 199.587 256.411 199.587" fill="none" stroke="red" stroke-linejoin="round" stroke-width="0.3"/><rect x="237.58901" y="198.58818" width="14.17323" height="2.01683" rx="1.00842" fill="red"/><rect x="242.28341" y="196.85632" width="4.78442" height="2.26839" rx="1.00842" fill="red"/><text transform="translate(240.76318 199.86071)" font-size="1.39746" fill="#fff" font-family="DINCond-Bold" font-weight="700">VDD_MMC2_2P9</text><text transform="translate(243.24267 198.33129)" font-size="1.39746" fill="#fff" font-family="DINCond-Bold" font-weight="700">C4034</text><path d="M283.21573,201.90208a.43314.43314,0,0,0-.425.42493.42312.42312,0,0,0,.425.42592.43379.43379,0,0,0,.42543-.42592.44485.44485,0,0,0-.42543-.42493" fill="red"/><polyline points="276.745 202.328 276.745 202.328 283.393 202.328" fill="none" stroke="red" stroke-linejoin="round" stroke-width="0.3"/><rect x="264.57104" y="201.32846" width="14.17323" height="2.01683" rx="1.00842" fill="red"/><rect x="269.26544" y="199.5966" width="4.78442" height="2.26839" rx="1.00842" fill="red"/><text transform="translate(267.74524 202.60099)" font-size="1.39746" fill="#fff" font-family="DINCond-Bold" font-weight="700">VDD_VEFUSE_1P8</text><text transform="translate(270.22473 201.07157)" font-size="1.39746" fill="#fff" font-family="DINCond-Bold" font-weight="700">C4060</text><path d="M259.35912,177.31509a.43315.43315,0,0,0-.425.42493.42312.42312,0,0,0,.425.42592.43379.43379,0,0,0,.42543-.42592.44485.44485,0,0,0-.42543-.42493" fill="red"/><polyline points="252.888 177.741 252.888 177.741 259.537 177.741" fill="none" stroke="red" stroke-linejoin="round" stroke-width="0.3"/><rect x="240.79628" y="176.74146" width="14.17323" height="2.01683" rx="1.00842" fill="red"/><rect x="245.49069" y="175.0096" width="4.78442" height="2.26839" rx="1.00842" fill="red"/><text transform="translate(243.64319 178.014)" font-size="1.39746" fill="#fff" font-family="DINCond-Bold" font-weight="700">VDD_CORE1_1P15</text><text transform="translate(246.44983 176.48458)" font-size="1.39746" fill="#fff" font-family="DINCond-Bold" font-weight="700">L4002</text><path d="M292.8003,161.43273a.43315.43315,0,0,0-.425.42494.42312.42312,0,0,0,.425.42592.4338.4338,0,0,0,.42543-.42592.44486.44486,0,0,0-.42543-.42494" fill="red"/><polyline points="286.329 161.858 286.329 161.858 292.978 161.858" fill="none" stroke="red" stroke-linejoin="round" stroke-width="0.3"/><rect x="274.26744" y="160.85911" width="14.17323" height="2.01683" rx="1.00842" fill="red"/><rect x="278.96184" y="159.12725" width="4.78442" height="2.26839" rx="1.00842" fill="red"/><text transform="translate(276.99426 162.13165)" font-size="1.39746" fill="#fff" font-family="DINCond-Bold" font-weight="700">VDD_VPROC_1P15</text><text transform="translate(279.92102 160.60223)" font-size="1.39746" fill="#fff" font-family="DINCond-Bold" font-weight="700">C3032</text><path d="M297.70738,162.87594a.43315.43315,0,0,0-.425.42494.42312.42312,0,0,0,.425.42592.4338.4338,0,0,0,.42543-.42592.44486.44486,0,0,0-.42543-.42494" fill="red"/><polyline points="297.585 163.301 297.585 163.301 304.234 163.301" fill="none" stroke="red" stroke-linejoin="round" stroke-width="0.3"/><rect x="301.94868" y="162.33409" width="14.17323" height="2.01683" rx="1.00842" fill="red"/><rect x="306.64309" y="160.60223" width="4.78442" height="2.26839" rx="1.00842" fill="red"/><text transform="translate(304.85766 163.60662)" font-size="1.39746" fill="#fff" font-family="DINCond-Bold" font-weight="700">VDD_VSRAM_1P2</text><text transform="translate(307.60229 162.0772)" font-size="1.39746" fill="#fff" font-family="DINCond-Bold" font-weight="700">C3019</text><path d="M286.5356,153.5933a.43315.43315,0,0,0-.425.42493.42314.42314,0,0,0,.425.42593.4338.4338,0,0,0,.42542-.42593.44485.44485,0,0,0-.42542-.42493" fill="red"/><polyline points="280.064 154.019 280.064 154.019 286.713 154.019" fill="none" stroke="red" stroke-linejoin="round" stroke-width="0.3"/><rect x="267.41472" y="153.01968" width="14.17323" height="2.01683" rx="1.00842" fill="red"/><rect x="272.10913" y="151.28782" width="4.78442" height="2.26839" rx="1.00842" fill="red"/><text transform="translate(272.49389 154.29221)" font-size="1.39746" fill="#fff" font-family="DINCond-Bold" font-weight="700">VDD_VM</text><text transform="translate(273.06811 152.7628)" font-size="1.39746" fill="#fff" font-family="DINCond-Bold" font-weight="700">C3044</text><path d="M277.26343,91.09212a.43315.43315,0,0,0-.425.42493.42314.42314,0,0,0,.425.42593.43381.43381,0,0,0,.42543-.42593.44486.44486,0,0,0-.42543-.42493" fill="#ff0"/><polyline points="270.792 91.518 270.792 91.518 277.441 91.518" fill="none" stroke="#ff0" stroke-linejoin="round" stroke-width="0.3"/><rect x="258.91725" y="90.5185" width="14.17323" height="2.01683" rx="1.00842" fill="#ff0"/><rect x="263.61165" y="88.78664" width="4.78442" height="2.26839" rx="1.00842" fill="#ff0"/><text transform="translate(260.89721 91.79102)" font-size="1.39746" font-family="DINCond-Bold" font-weight="700">VDD_CAM_CORE_1P2</text><text transform="translate(264.57104 90.26161)" font-size="1.39746" font-family="DINCond-Bold" font-weight="700">C6018</text><path d="M332.98651,179.43818a.43315.43315,0,0,0-.425.42494.42312.42312,0,0,0,.425.42592.4338.4338,0,0,0,.42543-.42592.44486.44486,0,0,0-.42543-.42494" fill="#ff0"/><polyline points="326.515 179.864 326.515 179.864 333.164 179.864" fill="none" stroke="#ff0" stroke-linejoin="round" stroke-width="0.3"/><rect x="314.35352" y="178.86456" width="14.17323" height="2.01683" rx="1.00842" fill="#ff0"/><rect x="319.04792" y="177.1327" width="4.78442" height="2.26839" rx="1.00842" fill="#ff0"/><text transform="translate(317.4812 180.13709)" font-size="1.39746" font-family="DINCond-Bold" font-weight="700">VDD_VSIM2_1P8</text><text transform="translate(320.00708 178.60767)" font-size="1.39746" font-family="DINCond-Bold" font-weight="700">C4057</text><path d="M285.52488,207.326a.43315.43315,0,0,0-.425.42494.42312.42312,0,0,0,.425.42592.43379.43379,0,0,0,.42543-.42592.44486.44486,0,0,0-.42543-.42494" fill="#ff0"/><polyline points="279.054 207.751 279.054 207.751 285.702 207.751" fill="none" stroke="#ff0" stroke-linejoin="round" stroke-width="0.3"/><polyline points="290.049 205.761 290.049 205.761 296.697 205.761" fill="none" stroke="red" stroke-linejoin="round" stroke-width="0.3"/><polyline points="289.624 201.614 289.624 201.614 313.226 201.614" fill="none" stroke="red" stroke-linejoin="round" stroke-width="0.3"/><rect x="266.90508" y="206.75239" width="14.17323" height="2.01683" rx="1.00842" fill="#ff0"/><rect x="271.59948" y="205.02053" width="4.78442" height="2.26839" rx="1.00842" fill="#ff0"/><text transform="translate(269.98034 208.02493)" font-size="1.39746" font-family="DINCond-Bold" font-weight="700">VDD_VCN33_3P3</text><text transform="translate(272.55847 206.49551)" font-size="1.39746" font-family="DINCond-Bold" font-weight="700">C4054</text><rect x="294.45578" y="204.83119" width="14.17323" height="2.01683" rx="1.00842" fill="red"/><rect x="299.15018" y="203.09933" width="4.78442" height="2.26839" rx="1.00842" fill="red"/><text transform="translate(299.69079 206.10372)" font-size="1.39746" fill="#fff" font-family="DINCond-Bold" font-weight="700">VAUD20</text><text transform="translate(300.10925 204.5743)" font-size="1.39746" fill="#fff" font-family="DINCond-Bold" font-weight="700">C4050</text><rect x="311.37426" y="200.58831" width="14.17323" height="2.01683" rx="1.00842" fill="red"/><rect x="316.06867" y="198.85645" width="4.78442" height="2.26839" rx="1.00842" fill="red"/><text transform="translate(314.40588 201.86083)" font-size="1.39746" fill="#fff" font-family="DINCond-Bold" font-weight="700">AUXADC_REF_RF</text><text transform="translate(317.02795 200.33141)" font-size="1.39746" fill="#fff" font-family="DINCond-Bold" font-weight="700">C4049</text><path d="M253.34572,195.94051a.43315.43315,0,0,0-.425.42493.42313.42313,0,0,0,.425.42593.4338.4338,0,0,0,.42543-.42593.44486.44486,0,0,0-.42543-.42493" fill="#ff0"/><polyline points="237.138 196.366 246.875 196.366 253.523 196.366" fill="none" stroke="#ff0" stroke-linejoin="round" stroke-width="0.3"/><rect x="225.17301" y="195.36689" width="14.17323" height="2.01683" rx="1.00842" fill="#ff0"/><rect x="229.86741" y="193.63503" width="4.78442" height="2.26839" rx="1.00842" fill="#ff0"/><text transform="translate(228.54406 196.63943)" font-size="1.39746" font-family="DINCond-Bold" font-weight="700">VDD_TSP_A3P0</text><text transform="translate(230.82678 195.11001)" font-size="1.39746" font-family="DINCond-Bold" font-weight="700">C4053</text><path d="M287.90889,205.33525a.43316.43316,0,0,0-.425.42494.42313.42313,0,0,0,.425.42592.4338.4338,0,0,0,.42543-.42592.44486.44486,0,0,0-.42543-.42494" fill="#ff0"/><path d="M290.0486,205.33525a.43316.43316,0,0,0-.425.42494.42313.42313,0,0,0,.425.42592.43379.43379,0,0,0,.42542-.42592.44486.44486,0,0,0-.42542-.42494" fill="red"/><path d="M289.61053,201.1882a.43315.43315,0,0,0-.425.42493.42312.42312,0,0,0,.425.42592.43379.43379,0,0,0,.42543-.42592.44485.44485,0,0,0-.42543-.42493" fill="red"/><polyline points="284.755 198.186 284.755 198.186 296.374 198.186 296.374 191.056" fill="none" stroke="#ff0" stroke-linejoin="round" stroke-width="0.3"/><polyline points="284.549 200.205 284.549 200.205 307.602 200.205 307.602 186.698" fill="none" stroke="#ff0" stroke-linejoin="round" stroke-width="0.3"/><rect x="289.61077" y="189.26628" width="14.17323" height="2.01683" rx="1.00842" fill="#ff0"/><rect x="294.30517" y="187.53442" width="4.78442" height="2.26839" rx="1.00842" fill="#ff0"/><text transform="translate(291.5382 190.5388)" font-size="1.39746" font-family="DINCond-Bold" font-weight="700">VDD_MAIN_MICBIAS0</text><text transform="translate(295.26428 189.00938)" font-size="1.39746" font-family="DINCond-Bold" font-weight="700">C4063</text><rect x="300.51568" y="185.42571" width="14.17323" height="2.01683" rx="1.00842" fill="#ff0"/><rect x="305.21008" y="183.69385" width="4.78442" height="2.26839" rx="1.00842" fill="#ff0"/><text transform="translate(303.04126 186.69824)" font-size="1.39746" font-family="DINCond-Bold" font-weight="700">VDD_EAR_MICBIAS</text><text transform="translate(306.16919 185.16882)" font-size="1.39746" font-family="DINCond-Bold" font-weight="700">C4062</text><path d="M284.75448,197.76083a.43315.43315,0,0,0-.425.42493.42314.42314,0,0,0,.425.42593.43381.43381,0,0,0,.42543-.42593.44486.44486,0,0,0-.42543-.42493" fill="#ff0"/><path d="M284.5486,199.74612a.43316.43316,0,0,0-.425.42494.42313.42313,0,0,0,.425.42592.43379.43379,0,0,0,.42542-.42592.44486.44486,0,0,0-.42542-.42494" fill="#ff0"/><polyline points="287.899 212.144 287.899 212.144 287.899 205.495" fill="none" stroke="#ff0" stroke-linejoin="round" stroke-width="0.3"/><rect x="280.82251" y="212.78091" width="14.17323" height="2.01683" rx="1.00842" fill="#ff0"/><rect x="285.51691" y="211.04905" width="4.78442" height="2.26839" rx="1.00842" fill="#ff0"/><text transform="translate(283.89807 214.05344)" font-size="1.39746" font-family="DINCond-Bold" font-weight="700">VDD_VCN28_2P8</text><text transform="translate(286.47619 212.52403)" font-size="1.39746" font-family="DINCond-Bold" font-weight="700">C4055</text><path d="M256.6589,201.63191a.43315.43315,0,0,0-.425.42493.42313.42313,0,0,0,.425.42593.4338.4338,0,0,0,.42543-.42593.44486.44486,0,0,0-.42543-.42493" fill="#ff0"/><polyline points="256.649 208.44 256.649 208.44 256.649 201.792" fill="none" stroke="#ff0" stroke-linejoin="round" stroke-width="0.3"/><rect x="249.47378" y="209.07757" width="14.17323" height="2.01683" rx="1.00842" fill="#ff0"/><rect x="254.16819" y="207.34571" width="4.78442" height="2.26839" rx="1.00842" fill="#ff0"/><text transform="translate(252.94458 210.35009)" font-size="1.39746" font-family="DINCond-Bold" font-weight="700">VDD_VIBR_3P3</text><text transform="translate(255.12719 208.82067)" font-size="1.39746" font-family="DINCond-Bold" font-weight="700">C4052</text><path d="M252.34279,181.584a.43316.43316,0,0,0-.425.42494.42313.42313,0,0,0,.425.42592.4338.4338,0,0,0,.42543-.42592.44486.44486,0,0,0-.42543-.42494" fill="#ff0"/><polyline points="238.961 182.009 245.669 182.009 252.317 182.009" fill="none" stroke="#ff0" stroke-linejoin="round" stroke-width="0.3"/><rect x="229.08248" y="180.98843" width="14.17323" height="2.01683" rx="1.00842" fill="#ff0"/><rect x="233.77688" y="179.25657" width="4.78442" height="2.26839" rx="1.00842" fill="#ff0"/><text transform="translate(232.15796 182.26095)" font-size="1.39746" font-family="DINCond-Bold" font-weight="700">VDD_VCN18_1P8</text><text transform="translate(234.73608 180.73153)" font-size="1.39746" font-family="DINCond-Bold" font-weight="700">C4056</text><path d="M567.44751,113.06716a.43314.43314,0,0,0-.425.42493.42312.42312,0,0,0,.425.42592.43379.43379,0,0,0,.42543-.42592.44485.44485,0,0,0-.42543-.42493" fill="#ff0"/><polyline points="560.976 113.493 560.976 113.493 567.625 113.493" fill="none" stroke="#ff0" stroke-linejoin="round" stroke-width="0.3"/><rect x="548.71012" y="112.49354" width="14.17323" height="2.01683" rx="1.00842" fill="#ff0"/><rect x="553.40452" y="110.76168" width="4.78442" height="2.26839" rx="1.00842" fill="#ff0"/><text transform="translate(552.25525 113.76606)" font-size="1.39746" font-family="DINCond-Bold" font-weight="700">VDD_CAM_1P8</text><text transform="translate(554.36364 112.23664)" font-size="1.39746" font-family="DINCond-Bold" font-weight="700">C6010</text><path d="M555.82929,134.946a.43316.43316,0,0,0-.425.42494.42313.42313,0,0,0,.425.42592.4338.4338,0,0,0,.42543-.42592.44486.44486,0,0,0-.42543-.42494" fill="#ff0"/><polyline points="555.797 134.946 555.797 134.946 555.797 141.595" fill="none" stroke="#ff0" stroke-linejoin="round" stroke-width="0.3"/><rect x="548.81468" y="142.19565" width="14.17323" height="2.01683" rx="1.00842" fill="#ff0"/><rect x="553.50908" y="140.4638" width="4.78442" height="2.26839" rx="1.00842" fill="#ff0"/><text transform="translate(551.94189 143.46821)" font-size="1.39746" font-family="DINCond-Bold" font-weight="700">VDD_VSIM1_1P8V</text><text transform="translate(554.46777 141.93879)" font-size="1.39746" font-family="DINCond-Bold" font-weight="700">C3602</text><path d="M285.48274,91.51755a.43314.43314,0,0,0-.425.42493.42312.42312,0,0,0,.425.42592.4338.4338,0,0,0,.42543-.42592.44486.44486,0,0,0-.42543-.42493" fill="#ff0"/><polyline points="285.483 98.36 285.483 98.36 285.483 91.712" fill="none" stroke="#ff0" stroke-linejoin="round" stroke-width="0.3"/><rect x="278.40773" y="98.40542" width="14.17323" height="2.01683" rx="1.00842" fill="#ff0"/><rect x="283.10214" y="96.67356" width="4.78442" height="2.26839" rx="1.00842" fill="#ff0"/><text transform="translate(279.40649 99.67796)" font-size="1.39746" font-family="DINCond-Bold" font-weight="700">VDD_CAM_SENSOR_A2P8</text><text transform="translate(284.06128 98.14854)" font-size="1.39746" font-family="DINCond-Bold" font-weight="700">C6017</text><path d="M300.26247,157.05191a.43315.43315,0,0,0-.425.42494.42312.42312,0,0,0,.425.42592.43379.43379,0,0,0,.42543-.42592.44486.44486,0,0,0-.42543-.42494" fill="red"/><polyline points="300.263 151.161 300.263 151.161 300.263 157.81" fill="none" stroke="red" stroke-linejoin="round" stroke-width="0.3"/><rect x="293.17609" y="149.27098" width="14.17323" height="2.01683" rx="1.00842" fill="red"/><rect x="297.87049" y="147.53912" width="4.78442" height="2.26839" rx="1.00842" fill="red"/><text transform="translate(296.37353 150.54353)" font-size="1.39746" fill="#fff" font-family="DINCond-Bold" font-weight="700">VDD_VLTE_1P05</text><text transform="translate(298.82959 149.01411)" font-size="1.39746" fill="#fff" font-family="DINCond-Bold" font-weight="700">C3052</text><path d="M279.40626,149.42854a.43316.43316,0,0,0-.425.42494.42313.42313,0,0,0,.425.42592.4338.4338,0,0,0,.42543-.42592.44486.44486,0,0,0-.42543-.42494" fill="#ff660b"/><polyline points="279.406 143.538 279.406 143.538 279.406 150.186" fill="none" stroke="#ff660b" stroke-linejoin="round" stroke-width="0.3"/><rect x="272.28155" y="141.54844" width="14.17323" height="2.01683" rx="1.00842" fill="#ff660b"/><text transform="translate(278.17334 143.01934)" font-size="1.39746" fill="#fff" font-family="DINCond-Bold" font-weight="700">VSYS</text><path d="M447.67507,208.00834a.43315.43315,0,0,0-.425.42493.42313.42313,0,0,0,.425.42592.43379.43379,0,0,0,.42542-.42592.44485.44485,0,0,0-.42542-.42493" fill="red"/><polyline points="441.204 208.434 441.204 208.434 447.853 208.434" fill="none" stroke="red" stroke-linejoin="round" stroke-width="0.3"/><rect x="428.61165" y="207.43471" width="14.17323" height="2.01683" rx="1.00842" fill="red"/><rect x="433.30605" y="205.70285" width="4.78442" height="2.26839" rx="1.00842" fill="red"/><text transform="translate(433.46093 208.70725)" font-size="1.39746" fill="#fff" font-family="DINCond-Bold" font-weight="700">VDD_VPA</text><text transform="translate(434.26513 207.17783)" font-size="1.39746" fill="#fff" font-family="DINCond-Bold" font-weight="700">C1015</text><path d="M479.70359,198.21422a.43315.43315,0,0,0-.425.42493.42313.42313,0,0,0,.425.42592.4338.4338,0,0,0,.42543-.42592.44486.44486,0,0,0-.42543-.42493" fill="red"/><polyline points="473.232 198.64 473.232 198.64 479.881 198.64" fill="none" stroke="red" stroke-linejoin="round" stroke-width="0.3"/><rect x="461.231" y="197.6406" width="14.17323" height="2.01683" rx="1.00842" fill="red"/><rect x="465.9254" y="195.90874" width="4.78442" height="2.26839" rx="1.00842" fill="red"/><text transform="translate(463.71692 198.91314)" font-size="1.39746" fill="#fff" font-family="DINCond-Bold" font-weight="700">VDD_VTCXO_0_2P8</text><text transform="translate(466.8844 197.38372)" font-size="1.39746" fill="#fff" font-family="DINCond-Bold" font-weight="700">C1043</text><path d="M509.07164,193.45515a.43314.43314,0,0,0-.425.42493.42312.42312,0,0,0,.425.42592.43379.43379,0,0,0,.42543-.42592.44485.44485,0,0,0-.42543-.42493" fill="red"/><polyline points="502.601 193.881 502.601 193.881 509.249 193.881" fill="none" stroke="red" stroke-linejoin="round" stroke-width="0.3"/><rect x="490.72802" y="192.88153" width="14.17323" height="2.01683" rx="1.00842" fill="red"/><rect x="495.42242" y="191.14967" width="4.78442" height="2.26839" rx="1.00842" fill="red"/><text transform="translate(492.69824 194.15408)" font-size="1.39746" fill="#fff" font-family="DINCond-Bold" font-weight="700">VDD_VRF18_0_1P825</text><text transform="translate(496.38134 192.62466)" font-size="1.39746" fill="#fff" font-family="DINCond-Bold" font-weight="700">C1141</text><path d="M577.60917,183.58418a.43316.43316,0,0,0-.425.42493.42313.42313,0,0,0,.425.42593.43379.43379,0,0,0,.42542-.42593.44485.44485,0,0,0-.42542-.42493" fill="red"/><polyline points="571.138 184.01 571.138 184.01 577.787 184.01" fill="none" stroke="red" stroke-linejoin="round" stroke-width="0.3"/><rect x="559.03185" y="183.01056" width="14.17323" height="2.01683" rx="1.00842" fill="red"/><rect x="563.72625" y="181.2787" width="4.78442" height="2.26839" rx="1.00842" fill="red"/><text transform="translate(561.9364 184.28312)" font-size="1.39746" fill="#fff" font-family="DINCond-Bold" font-weight="700">VDDF_EMMC_3P0</text><text transform="translate(564.68542 182.7537)" font-size="1.39746" fill="#fff" font-family="DINCond-Bold" font-weight="700">C7015</text><path d="M542.07975,136.40446a.43314.43314,0,0,0-.425.42493.42312.42312,0,0,0,.425.42592.43379.43379,0,0,0,.42543-.42592.44485.44485,0,0,0-.42543-.42493" fill="red"/><polyline points="535.609 136.83 535.609 136.83 542.257 136.83" fill="none" stroke="red" stroke-linejoin="round" stroke-width="0.3"/><rect x="523.26199" y="135.83084" width="14.17323" height="2.01683" rx="1.00842" fill="red"/><rect x="527.95639" y="134.09898" width="4.78442" height="2.26839" rx="1.00842" fill="red"/><text transform="translate(527.12841 137.1034)" font-size="1.39746" fill="#fff" font-family="DINCond-Bold" font-weight="700">VUSB33_PMU</text><text transform="translate(528.91552 135.57398)" font-size="1.39746" fill="#fff" font-family="DINCond-Bold" font-weight="700">C3604</text><path d="M564.09477,115.01316a.43314.43314,0,0,0-.425.42493.42313.42313,0,0,0,.425.42593.4338.4338,0,0,0,.42543-.42593.44485.44485,0,0,0-.42543-.42493" fill="red"/><polyline points="563.964 122.087 563.964 122.087 563.964 115.439" fill="none" stroke="red" stroke-linejoin="round" stroke-width="0.3"/><rect x="556.87713" y="122.54211" width="14.17323" height="2.01683" rx="1.00842" fill="red"/><rect x="561.57153" y="120.81025" width="4.78442" height="2.26839" rx="1.00842" fill="red"/><text transform="translate(559.50366 123.81468)" font-size="1.39746" fill="#fff" font-family="DINCond-Bold" font-weight="700">VDD_CAM_AF_2P8</text><text transform="translate(562.53051 122.28526)" font-size="1.39746" fill="#fff" font-family="DINCond-Bold" font-weight="700">C6008</text><path d="M612.8435,194.57834a.43314.43314,0,0,0-.425.42493.42312.42312,0,0,0,.425.42593.4338.4338,0,0,0,.42543-.42593.44486.44486,0,0,0-.42543-.42493" fill="#ff660b"/><polyline points="612.844 188.688 612.844 188.688 612.844 195.336" fill="none" stroke="#ff660b" stroke-linejoin="round" stroke-width="0.3"/><rect x="606.49321" y="186.69826" width="14.17323" height="2.01683" rx="1.00842" fill="#ff660b"/><text transform="translate(610.83618 188.16911)" font-size="1.39746" fill="#fff" font-family="DINCond-Bold" font-weight="700">POWER_ON</text><path d="M548.8427,203.846a.43315.43315,0,0,0-.425.42494.42312.42312,0,0,0,.425.42592.43379.43379,0,0,0,.42543-.42592.44486.44486,0,0,0-.42543-.42494" fill="#ff660b"/><polyline points="548.843 197.955 548.843 197.955 548.843 204.604" fill="none" stroke="#ff660b" stroke-linejoin="round" stroke-width="0.3"/><rect x="541.75632" y="195.96595" width="14.17323" height="2.01683" rx="1.00842" fill="#ff660b"/><text transform="translate(545.57617 197.43679)" font-size="1.39746" fill="#fff" font-family="DINCond-Bold" font-weight="700">VPH_PWR_IN</text><path d="M528.31329,209.15961a.43314.43314,0,0,0-.425.42493.42312.42312,0,0,0,.425.42592.43379.43379,0,0,0,.42543-.42592.44485.44485,0,0,0-.42543-.42493" fill="#ff50e1"/><polyline points="528.314 203.269 528.314 203.269 528.314 209.917" fill="none" stroke="#ff50e1" stroke-linejoin="round" stroke-width="0.3"/><rect x="521.09248" y="201.27944" width="14.17323" height="2.01683" rx="1.00842" fill="#ff50e1"/><text transform="translate(525.18115 202.75047)" font-size="1.39746" fill="#fff" font-family="DINCond-Bold" font-weight="700">CHG_IN_5P0</text><text transform="translate(36.65246 550.84635)" font-size="17" fill="#fff" font-family="DINCond-Bold" font-weight="700">• ELECTRICAL COLOR LEGEND •</text><path d="M646.38533,42.57969a21.29,21.29,0,0,0,0-42.5799H195.50453a21.29,21.29,0,1,0,0,42.5799Z" fill="#292c31"/><text transform="translate(307.3761 26.58634)" font-size="16" fill="#fff" font-family="DINCond-Bold" font-weight="700">SAMSUNG SM-G532F &gt; <tspan x="123.13281" y="0" font-size="14" letter-spacing="0.00293em">V</tspan><tspan x="129.29199" y="0" font-size="14">O</tspan><tspan x="135.75977" y="0" font-size="14" letter-spacing="-0.05001em">L</tspan><tspan x="140.42188" y="0" font-size="14" letter-spacing="-0.05197em">T</tspan><tspan x="145.19629" y="0" font-size="14" letter-spacing="-0.00398em">A</tspan><tspan x="151.69238" y="0" font-size="14">GE </tspan><tspan x="166.11133" y="0" font-size="14" letter-spacing="-0.05797em">P</tspan><tspan x="171.72559" y="0" font-size="14">ARAMETRIC</tspan></text><rect width="841.88976" height="595.27559" fill="none"/></svg>