<svg xmlns="http://www.w3.org/2000/svg" viewBox="0 0 841.89001 595.28003"><title>Input Output Voltages</title><path d="M730.05859,245.38553h13.631a1.3405,1.3405,0,1,0,0-2.681h-13.631a1.3405,1.3405,0,1,0,0,2.681" fill="red"/><path d="M735.03418,243.41772h3.68a1.34089,1.34089,0,0,0,1.34-1.341v-.335a1.34007,1.34007,0,0,0-1.34-1.34h-3.68a1.34091,1.34091,0,0,0-1.341,1.34v.335a1.34174,1.34174,0,0,0,1.341,1.341" fill="red"/><rect width="841.89001" height="595.28003" fill="none"/><text transform="translate(734.9668 242.21997)" font-size="1.859" fill="#fff" font-family="DINCond-Bold" font-weight="700">C5023</text><text transform="translate(732.42773 244.39673)" font-size="1.859" fill="#fff" font-family="DINCond-Bold" font-weight="700">VRF_TRX_1P8</text><path d="M697.28809,221.18283H710.918a1.341,1.341,0,1,0,0-2.682H697.28809a1.341,1.341,0,1,0,0,2.682" fill="red"/><path d="M702.26367,219.19363h3.679a1.34177,1.34177,0,0,0,1.341-1.341v-.335a1.341,1.341,0,0,0-1.341-1.34h-3.679a1.34028,1.34028,0,0,0-1.341,1.34v.335a1.34111,1.34111,0,0,0,1.341,1.341" fill="red"/><rect width="841.89001" height="595.28003" fill="none"/><text transform="translate(702.19629 218.30054)" font-size="1.859" fill="#fff" font-family="DINCond-Bold" font-weight="700">C5031</text><text transform="translate(697.75879 220.45679)" font-size="1.859" fill="#fff" font-family="DINCond-Bold" font-weight="700">VRF_PA_WLBT_1P8</text><path d="M751.11908,261.14914h13.631a1.341,1.341,0,1,0,0-2.682h-13.631a1.341,1.341,0,1,0,0,2.682" fill="red"/><path d="M756.09473,259.16092h3.68a1.34113,1.34113,0,0,0,1.341-1.341v-.334a1.34115,1.34115,0,0,0-1.341-1.341h-3.68a1.34112,1.34112,0,0,0-1.341,1.341v.334a1.3411,1.3411,0,0,0,1.341,1.341" fill="red"/><rect width="841.89001" height="595.28003" fill="none"/><text transform="translate(756.02832 258.26831)" font-size="1.859" fill="#fff" font-family="DINCond-Bold" font-weight="700">C5033</text><text transform="translate(752.73438 260.4231)" font-size="1.859" fill="#fff" font-family="DINCond-Bold" font-weight="700">VDD_EMMC_1P8</text><path d="M726.01367,250.54813a.85638.85638,0,0,0-.84-.84.837.837,0,0,0-.841.84.85705.85705,0,0,0,.841.839.87839.87839,0,0,0,.84-.839" fill="red"/><path d="M737.7168,257.71552h13.62994a1.3405,1.3405,0,1,0,0-2.681H737.7168a1.3405,1.3405,0,1,0,0,2.681" fill="red"/><path d="M742.69141,255.72733h3.68a1.3403,1.3403,0,0,0,1.341-1.34v-.336a1.34032,1.34032,0,0,0-1.341-1.34h-3.68a1.34007,1.34007,0,0,0-1.34,1.34v.336a1.34005,1.34005,0,0,0,1.34,1.34" fill="red"/><rect width="841.89001" height="595.28003" fill="none"/><text transform="translate(742.625 254.83472)" font-size="1.859" fill="#fff" font-family="DINCond-Bold" font-weight="700">C5002</text><text transform="translate(740.36426 256.99097)" font-size="1.859" fill="#fff" font-family="DINCond-Bold" font-weight="700">VDD_1P8_AP</text><path d="M682.19629,244.87863a.857.857,0,0,0-.841-.839.83587.83587,0,0,0-.84.839.85634.85634,0,0,0,.84.84.87946.87946,0,0,0,.841-.84" fill="red"/><path d="M693.97559,238.43582a.85638.85638,0,0,0-.84-.84.83613.83613,0,0,0-.84.84.85705.85705,0,0,0,.84.84.87931.87931,0,0,0,.84-.84" fill="red"/><path d="M706.22748,248.56662a.85638.85638,0,0,0-.84-.84.837.837,0,0,0-.841.84.85791.85791,0,0,0,.841.84.8793.8793,0,0,0,.84-.84" fill="red"/><path d="M713.6123,253.50714a.85638.85638,0,0,0-.84-.84.83631.83631,0,0,0-.841.84.8572.8572,0,0,0,.841.84.8793.8793,0,0,0,.84-.84" fill="red"/><polyline points="681.356 244.879 681.356 247.065 668.219 247.065" fill="none" stroke="red" stroke-miterlimit="22.926" stroke-width="0.567"/><path d="M653.23242,248.43533h13.63a1.341,1.341,0,1,0,0-2.682h-13.63a1.341,1.341,0,1,0,0,2.682" fill="red"/><path d="M658.208,246.446h3.679a1.34114,1.34114,0,0,0,1.341-1.341v-.334a1.34117,1.34117,0,0,0-1.341-1.341h-3.679a1.34113,1.34113,0,0,0-1.341,1.341v.334a1.3411,1.3411,0,0,0,1.341,1.341" fill="red"/><rect width="841.89001" height="595.28003" fill="none"/><text transform="translate(658.14063 245.55396)" font-size="1.859" fill="#fff" font-family="DINCond-Bold" font-weight="700">C5017</text><text transform="translate(653.96289 247.71021)" font-size="1.859" fill="#fff" font-family="DINCond-Bold" font-weight="700">VDD_SIM_1P8_3P0</text><path d="M681.63867,258.00174a.8546.8546,0,0,0-.83905-.839.8355.8355,0,0,0-.841.839.85658.85658,0,0,0,.841.84.87764.87764,0,0,0,.83905-.84" fill="red"/><line x1="680.79883" y1="258.00174" x2="652.40881" y2="258.00174" fill="none" stroke="red" stroke-miterlimit="22.926" stroke-width="0.567"/><path d="M645.17767,259.239h13.631a1.3405,1.3405,0,0,0,0-2.681h-13.631a1.3405,1.3405,0,1,0,0,2.681" fill="red"/><path d="M650.15332,257.25073h3.68a1.34025,1.34025,0,0,0,1.34-1.341v-.334a1.34028,1.34028,0,0,0-1.34-1.341h-3.68a1.34049,1.34049,0,0,0-1.341,1.341v.334a1.34046,1.34046,0,0,0,1.341,1.341" fill="red"/><rect width="841.89001" height="595.28003" fill="none"/><text transform="translate(650.08594 256.35815)" font-size="1.859" fill="#fff" font-family="DINCond-Bold" font-weight="700">C5021</text><text transform="translate(647.54688 258.51245)" font-size="1.859" fill="#fff" font-family="DINCond-Bold" font-weight="700">VRF_TRX_1P2</text><path d="M696.40332,255.44412a.85637.85637,0,0,0-.84-.84.8363.8363,0,0,0-.841.84.8572.8572,0,0,0,.841.84.8793.8793,0,0,0,.84-.84" fill="red"/><line x1="695.56248" y1="255.44412" x2="695.56248" y2="275.52313" fill="none" stroke="red" stroke-miterlimit="22.926" stroke-width="0.567"/><path d="M688.74707,278.45432h13.631a1.341,1.341,0,1,0,0-2.682h-13.631a1.341,1.341,0,0,0,0,2.682" fill="red"/><path d="M693.72357,276.46552h3.679a1.34093,1.34093,0,0,0,1.341-1.34v-.336a1.341,1.341,0,0,0-1.341-1.34h-3.679a1.34028,1.34028,0,0,0-1.341,1.34v.336a1.34026,1.34026,0,0,0,1.341,1.34" fill="red"/><rect width="841.89001" height="595.28003" fill="none"/><text transform="translate(693.65625 275.573)" font-size="1.859" fill="#fff" font-family="DINCond-Bold" font-weight="700">C5022</text><text transform="translate(689.90625 277.72925)" font-size="1.859" fill="#fff" font-family="DINCond-Bold" font-weight="700">VRF_TRX_LO_1P2</text><path d="M701.63379,244.28592a.85635.85635,0,0,0-.84-.84.83632.83632,0,0,0-.841.84.857.857,0,0,0,.841.839.87911.87911,0,0,0,.84-.839" fill="red"/><line x1="700.79388" y1="244.28592" x2="729.95886" y2="244.28592" fill="none" stroke="red" stroke-miterlimit="22.926" stroke-width="0.567"/><line x1="693.13568" y1="238.43582" x2="693.13568" y2="226.88583" fill="none" stroke="red" stroke-miterlimit="22.926" stroke-width="0.567"/><path d="M685.30267,229.43582h15.524a1.3405,1.3405,0,1,0,0-2.681h-15.524a1.3405,1.3405,0,0,0,0,2.681" fill="red"/><path d="M691.39258,227.44653h3.345a1.508,1.508,0,0,0,0-3.016h-3.345a1.508,1.508,0,1,0,0,3.016" fill="red"/><rect width="841.89001" height="595.28003" fill="none"/><text transform="translate(691.1582 226.55396)" font-size="1.859" fill="#fff" font-family="DINCond-Bold" font-weight="700">C5018</text><text transform="translate(686.60742 228.71021)" font-size="1.859" fill="#fff" font-family="DINCond-Bold" font-weight="700">VDD_SIM2_1P8_3P0</text><path d="M710.30573,238.15213a.85619.85619,0,0,0-.84-.839.83675.83675,0,0,0-.841.839.85726.85726,0,0,0,.841.84.87859.87859,0,0,0,.84-.84" fill="red"/><line x1="709.46582" y1="238.15213" x2="722.06281" y2="238.15213" fill="none" stroke="red" stroke-miterlimit="22.926" stroke-width="0.567"/><path d="M718.73828,239.48654h13.631a1.3405,1.3405,0,1,0,0-2.681h-13.631a1.3405,1.3405,0,0,0,0,2.681" fill="red"/><path d="M723.71478,237.51883h3.679a1.34177,1.34177,0,0,0,1.341-1.341v-.335a1.34094,1.34094,0,0,0-1.341-1.34h-3.679a1.34027,1.34027,0,0,0-1.341,1.34v.335a1.34111,1.34111,0,0,0,1.341,1.341" fill="red"/><rect width="841.89001" height="595.28003" fill="none"/><text transform="translate(723.64746 236.32153)" font-size="1.859" fill="#fff" font-family="DINCond-Bold" font-weight="700">C5024</text><text transform="translate(720.7666 238.49878)" font-size="1.859" fill="#fff" font-family="DINCond-Bold" font-weight="700">VRF_TXLO_1P8</text><path d="M684.73438,258.00174a.85634.85634,0,0,0-.841-.839.83607.83607,0,0,0-.841.839.85721.85721,0,0,0,.841.84.87947.87947,0,0,0,.841-.84" fill="red"/><polyline points="683.893 258.002 683.893 264.073 668.22 264.073" fill="none" stroke="red" stroke-miterlimit="22.926" stroke-width="0.567"/><path d="M659.085,265.24h13.631a1.341,1.341,0,1,0,0-2.682H659.085a1.341,1.341,0,1,0,0,2.682" fill="red"/><path d="M664.06049,263.25073h3.68a1.34113,1.34113,0,0,0,1.341-1.341v-.334a1.34116,1.34116,0,0,0-1.341-1.341h-3.68a1.34112,1.34112,0,0,0-1.341,1.341v.334a1.34109,1.34109,0,0,0,1.341,1.341" fill="red"/><rect width="841.89001" height="595.28003" fill="none"/><text transform="translate(663.99414 262.35815)" font-size="1.859" fill="#fff" font-family="DINCond-Bold" font-weight="700">C5026</text><text transform="translate(660.95605 264.51489)" font-size="1.859" fill="#fff" font-family="DINCond-Bold" font-weight="700">VRF_GNSS_1P1</text><path d="M687.82813,258.00174a.85634.85634,0,0,0-.841-.839.83607.83607,0,0,0-.841.839.85721.85721,0,0,0,.841.84.87947.87947,0,0,0,.841-.84" fill="red"/><polyline points="686.987 258.002 686.987 269.832 675.399 269.832" fill="none" stroke="red" stroke-miterlimit="22.926" stroke-width="0.567"/><path d="M662.751,271.14432h13.631a1.341,1.341,0,1,0,0-2.682H662.751a1.341,1.341,0,1,0,0,2.682" fill="red"/><path d="M667.72662,269.155h3.68a1.34093,1.34093,0,0,0,1.341-1.34v-.335a1.34115,1.34115,0,0,0-1.341-1.341h-3.68a1.34028,1.34028,0,0,0-1.34,1.341v.335a1.34005,1.34005,0,0,0,1.34,1.34" fill="red"/><rect width="841.89001" height="595.28003" fill="none"/><text transform="translate(667.66016 268.26294)" font-size="1.859" fill="#fff" font-family="DINCond-Bold" font-weight="700">C5029</text><text transform="translate(663.29883 270.41919)" font-size="1.859" fill="#fff" font-family="DINCond-Bold" font-weight="700">VRF_LO_WLBT_1P1</text><path d="M707.25488,238.15213a.85666.85666,0,0,0-.839-.839.83613.83613,0,0,0-.841.839.85658.85658,0,0,0,.841.84.87915.87915,0,0,0,.839-.84" fill="red"/><polyline points="706.415 238.152 704.102 238.152 704.102 220.627" fill="none" stroke="red" stroke-miterlimit="22.926" stroke-width="0.567"/><line x1="705.38672" y1="248.56662" x2="745.92767" y2="248.56662" fill="none" stroke="red" stroke-miterlimit="22.926" stroke-width="0.567"/><path d="M742.875,249.69653h13.62994a1.3405,1.3405,0,1,0,0-2.681H742.875a1.3405,1.3405,0,1,0,0,2.681" fill="red"/><path d="M747.85059,247.70822h3.68a1.34024,1.34024,0,0,0,1.34-1.341v-.334a1.34027,1.34027,0,0,0-1.34-1.341h-3.68a1.3405,1.3405,0,0,0-1.341,1.341v.334a1.34047,1.34047,0,0,0,1.341,1.341" fill="red"/><rect width="841.89001" height="595.28003" fill="none"/><text transform="translate(747.78418 246.81519)" font-size="1.859" fill="#fff" font-family="DINCond-Bold" font-weight="700">C5019</text><text transform="translate(744.84375 248.97144)" font-size="1.859" fill="#fff" font-family="DINCond-Bold" font-weight="700">VRF_TCXO_1P8</text><path d="M700.61621,257.16284a.857.857,0,0,0-.84-.84.8363.8363,0,0,0-.841.84.85632.85632,0,0,0,.841.839.87911.87911,0,0,0,.84-.839" fill="red"/><polyline points="725.173 250.548 725.173 256.581 737.684 256.581" fill="none" stroke="red" stroke-miterlimit="22.926" stroke-width="0.567"/><polyline points="712.773 253.507 715.058 253.507 715.058 264.033 767.964 264.033" fill="none" stroke="red" stroke-miterlimit="22.926" stroke-width="0.567"/><polyline points="699.776 257.163 699.776 273.503 704.729 273.503" fill="none" stroke="red" stroke-miterlimit="22.926" stroke-width="0.567"/><path d="M703.94342,274.74094h13.631a1.3405,1.3405,0,1,0,0-2.681h-13.631a1.3405,1.3405,0,1,0,0,2.681" fill="red"/><path d="M708.91888,272.75272h3.68a1.34025,1.34025,0,0,0,1.34-1.341v-.334a1.34027,1.34027,0,0,0-1.34-1.341h-3.68a1.34112,1.34112,0,0,0-1.341,1.341v.334a1.3411,1.3411,0,0,0,1.341,1.341" fill="red"/><rect width="841.89001" height="595.28003" fill="none"/><text transform="translate(708.85254 271.86011)" font-size="1.859" fill="#fff" font-family="DINCond-Bold" font-weight="700">C5032</text><text transform="translate(704.25488 274.01636)" font-size="1.859" fill="#fff" font-family="DINCond-Bold" font-weight="700">VRF_WL_WLBT_3P3</text><path d="M713.6123,250.24683a.85568.85568,0,0,0-.84-.84.83568.83568,0,0,0-.841.84.85633.85633,0,0,0,.841.839.87839.87839,0,0,0,.84-.839" fill="red"/><polyline points="712.773 250.247 717.337 250.247 717.337 259.872 751.698 259.872" fill="none" stroke="red" stroke-miterlimit="22.926" stroke-width="0.567"/><path d="M695.56248,249.406a.85636.85636,0,0,0-.84-.84.83631.83631,0,0,0-.841.84.8572.8572,0,0,0,.841.84.87928.87928,0,0,0,.84-.84" fill="red"/><polyline points="694.723 249.406 694.723 251.336 678.195 251.336" fill="none" stroke="red" stroke-miterlimit="22.926" stroke-width="0.567"/><path d="M665.14752,252.73172h13.631a1.341,1.341,0,1,0,0-2.682h-13.631a1.341,1.341,0,1,0,0,2.682" fill="red"/><path d="M670.123,250.74292h3.68a1.34177,1.34177,0,0,0,1.341-1.341v-.335a1.34116,1.34116,0,0,0-1.341-1.341h-3.68a1.34029,1.34029,0,0,0-1.34,1.341v.335a1.3409,1.3409,0,0,0,1.34,1.341" fill="red"/><rect width="841.89001" height="595.28003" fill="none"/><text transform="translate(670.05664 249.84985)" font-size="1.859" fill="#fff" font-family="DINCond-Bold" font-weight="700">C5034</text><text transform="translate(666.39063 252.0061)" font-size="1.859" fill="#fff" font-family="DINCond-Bold" font-weight="700">VDD_EMMC_2P85</text><path d="M764.13177,265.25024h13.631a1.341,1.341,0,1,0,0-2.682h-13.631a1.341,1.341,0,0,0,0,2.682" fill="red"/><path d="M769.10742,263.26144h3.68a1.34051,1.34051,0,0,0,1.341-1.341v-.335a1.34118,1.34118,0,0,0-1.341-1.341h-3.68a1.34092,1.34092,0,0,0-1.34,1.341v.335a1.34025,1.34025,0,0,0,1.34,1.341" fill="red"/><rect width="841.89001" height="595.28003" fill="none"/><text transform="translate(769.04102 262.3689)" font-size="1.859" fill="#fff" font-family="DINCond-Bold" font-weight="700">C5020</text><text transform="translate(765.99121 264.52515)" font-size="1.859" fill="#fff" font-family="DINCond-Bold" font-weight="700">VRF_DVDD_1P0</text><path d="M73.1641,332.738h13.631a1.3405,1.3405,0,0,0,0-2.681H73.1641a1.3405,1.3405,0,1,0,0,2.681" fill="red"/><path d="M78.1396,330.74973h3.68a1.34092,1.34092,0,0,0,1.34-1.341v-.335a1.34094,1.34094,0,0,0-1.34-1.341h-3.68a1.34115,1.34115,0,0,0-1.341,1.341v.335a1.34114,1.34114,0,0,0,1.341,1.341" fill="red"/><rect width="841.89001" height="595.28003" fill="none"/><text transform="translate(78.07324 329.85718)" font-size="1.859" fill="#fff" font-family="DINCond-Bold" font-weight="700">C4045</text><text transform="translate(74.95215 332.01343)" font-size="1.859" fill="#fff" font-family="DINCond-Bold" font-weight="700">AVDD_USB_3P0</text><path d="M195.48441,271.91623h13.63a1.341,1.341,0,1,0,0-2.682h-13.63a1.341,1.341,0,1,0,0,2.682" fill="red"/><path d="M200.4604,269.927h3.679a1.34112,1.34112,0,0,0,1.341-1.341v-.334a1.34115,1.34115,0,0,0-1.341-1.341h-3.679a1.34051,1.34051,0,0,0-1.341,1.341v.334a1.34047,1.34047,0,0,0,1.341,1.341" fill="red"/><rect width="841.89001" height="595.28003" fill="none"/><text transform="translate(200.39355 269.03394)" font-size="1.859" fill="#fff" font-family="DINCond-Bold" font-weight="700">C5011</text><text transform="translate(197.70752 271.19019)" font-size="1.859" fill="#fff" font-family="DINCond-Bold" font-weight="700">VDD_USB_0P9</text><path d="M305.1987,369.61693a.85635.85635,0,0,0-.84-.84.837.837,0,0,0-.841.84.85791.85791,0,0,0,.841.84.87927.87927,0,0,0,.84-.84" fill="red"/><line x1="304.35889" y1="369.61693" x2="323.95288" y2="369.61693" fill="none" stroke="red" stroke-miterlimit="22.926" stroke-width="0.567"/><path d="M320.58841,370.76833h13.631a1.341,1.341,0,0,0,0-2.682h-13.631a1.341,1.341,0,1,0,0,2.682" fill="red"/><path d="M325.564,368.779h3.68a1.34028,1.34028,0,0,0,1.34-1.341v-.334a1.3403,1.3403,0,0,0-1.34-1.341h-3.68a1.3405,1.3405,0,0,0-1.341,1.341v.334a1.34049,1.34049,0,0,0,1.341,1.341" fill="red"/><rect width="841.89001" height="595.28003" fill="none"/><text transform="translate(325.49756 367.88647)" font-size="1.859" fill="#fff" font-family="DINCond-Bold" font-weight="700">C7194</text><text transform="translate(322.46191 370.04272)" font-size="1.859" fill="#fff" font-family="DINCond-Bold" font-weight="700">VBAT_SENSE_P</text><path d="M184.7686,245.03293h13.631a1.3405,1.3405,0,0,0,0-2.681h-13.631a1.3405,1.3405,0,0,0,0,2.681" fill="red"/><path d="M189.74409,243.196h3.679a1.34026,1.34026,0,0,0,1.341-1.34v-.335a1.34051,1.34051,0,0,0-1.341-1.341h-3.679a1.34031,1.34031,0,0,0-1.34,1.341v.335a1.34007,1.34007,0,0,0,1.34,1.34" fill="red"/><rect width="841.89001" height="595.28003" fill="none"/><text transform="translate(189.67773 241.99878)" font-size="1.859" fill="#fff" font-family="DINCond-Bold" font-weight="700">C5025</text><text transform="translate(187.0625 244.30786)" font-size="1.859" fill="#fff" font-family="DINCond-Bold" font-weight="700">VRF_FEM_2P8</text><path d="M116.8735,265.75024a.85546.85546,0,0,0-.839-.84.8363.8363,0,0,0-.841.84.857.857,0,0,0,.841.839.87818.87818,0,0,0,.839-.839" fill="red"/><polyline points="116.033 265.75 116.033 263.309 91.545 263.309" fill="none" stroke="red" stroke-miterlimit="22.926" stroke-width="0.567"/><path d="M80.1016,264.51883h13.631a1.3405,1.3405,0,0,0,0-2.681H80.1016a1.3405,1.3405,0,1,0,0,2.681" fill="red"/><path d="M85.0771,262.53052h3.679a1.34114,1.34114,0,0,0,1.341-1.341v-.335a1.34029,1.34029,0,0,0-1.341-1.34h-3.679a1.34093,1.34093,0,0,0-1.341,1.34v.335a1.34178,1.34178,0,0,0,1.341,1.341" fill="red"/><rect width="841.89001" height="595.28003" fill="none"/><text transform="translate(85.01074 261.63745)" font-size="1.859" fill="#fff" font-family="DINCond-Bold" font-weight="700">C5037</text><text transform="translate(85.27295 263.7937)" font-size="1.859" fill="#fff" font-family="DINCond-Bold" font-weight="700">VBAT</text><path d="M109.3364,284.23654a.85614.85614,0,0,0-.84-.839.83588.83588,0,0,0-.84.839.85635.85635,0,0,0,.84.84.87853.87853,0,0,0,.84-.84" fill="red"/><polyline points="108.497 284.658 108.497 288.336 78.785 288.336" fill="none" stroke="red" stroke-miterlimit="22.926" stroke-width="0.567"/><path d="M70.6191,289.66824h13.631a1.341,1.341,0,1,0,0-2.682H70.6191a1.341,1.341,0,1,0,0,2.682" fill="red"/><path d="M75.5947,287.67993h3.68a1.34177,1.34177,0,0,0,1.341-1.341v-.335a1.34094,1.34094,0,0,0-1.341-1.34h-3.68a1.34094,1.34094,0,0,0-1.341,1.34v.335a1.34177,1.34177,0,0,0,1.341,1.341" fill="red"/><rect width="841.89001" height="595.28003" fill="none"/><text transform="translate(75.52832 286.78735)" font-size="1.859" fill="#fff" font-family="DINCond-Bold" font-weight="700">C5038</text><text transform="translate(72.99414 288.94214)" font-size="1.859" fill="#fff" font-family="DINCond-Bold" font-weight="700">VDD_MIF_0P8</text><path d="M155.1821,309.99484a.857.857,0,0,0-.84-.84.837.837,0,0,0-.841.84.85791.85791,0,0,0,.841.84.88.88,0,0,0,.84-.84" fill="red"/><polyline points="154.341 309.995 154.341 313.838 181.473 313.838" fill="none" stroke="red" stroke-miterlimit="22.926" stroke-width="0.567"/><path d="M180.97659,315.16672h13.63a1.3405,1.3405,0,1,0,0-2.681h-13.63a1.3405,1.3405,0,1,0,0,2.681" fill="red"/><path d="M185.9521,313.17844h3.679a1.34027,1.34027,0,0,0,1.341-1.34v-.335a1.34115,1.34115,0,0,0-1.341-1.341h-3.679a1.34179,1.34179,0,0,0-1.341,1.341v.335a1.34092,1.34092,0,0,0,1.341,1.34" fill="red"/><rect width="841.89001" height="595.28003" fill="none"/><text transform="translate(185.88574 312.28589)" font-size="1.859" fill="#fff" font-family="DINCond-Bold" font-weight="700">C5039</text><text transform="translate(182.06348 314.44214)" font-size="1.859" fill="#fff" font-family="DINCond-Bold" font-weight="700">VDD_CPUCL0_0P8</text><path d="M163.144,292.16043a.857.857,0,0,0-.84-.84.837.837,0,0,0-.841.84.85791.85791,0,0,0,.841.84.88.88,0,0,0,.84-.84" fill="red"/><polyline points="162.304 292.16 165.597 292.16 165.597 300.861 191.413 300.861" fill="none" stroke="red" stroke-miterlimit="22.926" stroke-width="0.567"/><path d="M190.34669,302.24194h13.631a1.341,1.341,0,1,0,0-2.682h-13.631a1.341,1.341,0,0,0,0,2.682" fill="red"/><path d="M195.3228,300.25363h3.679a1.34112,1.34112,0,0,0,1.341-1.341v-.335a1.34115,1.34115,0,0,0-1.341-1.341h-3.679a1.34115,1.34115,0,0,0-1.341,1.341v.335a1.34112,1.34112,0,0,0,1.341,1.341" fill="red"/><rect width="841.89001" height="595.28003" fill="none"/><text transform="translate(195.25586 299.36108)" font-size="1.859" fill="#fff" font-family="DINCond-Bold" font-weight="700">C7197</text><text transform="translate(191.43359 301.51636)" font-size="1.859" fill="#fff" font-family="DINCond-Bold" font-weight="700">VDD_CPUCL1_0P8</text><path d="M171.6333,289.75024a.85615.85615,0,0,0-.84-.839.83588.83588,0,0,0-.84.839.85635.85635,0,0,0,.84.84.87854.87854,0,0,0,.84-.84" fill="red"/><polyline points="170.794 289.75 170.794 286.258 205.993 286.258" fill="none" stroke="red" stroke-miterlimit="22.926" stroke-width="0.567"/><path d="M202.1758,287.532h13.63a1.3405,1.3405,0,1,0,0-2.681h-13.63a1.3405,1.3405,0,0,0,0,2.681" fill="red"/><path d="M207.1514,285.54324h3.68a1.34026,1.34026,0,0,0,1.34-1.341v-.334a1.34029,1.34029,0,0,0-1.34-1.341h-3.68a1.34116,1.34116,0,0,0-1.341,1.341v.334a1.34112,1.34112,0,0,0,1.341,1.341" fill="red"/><rect width="841.89001" height="595.28003" fill="none"/><text transform="translate(207.08496 284.65063)" font-size="1.859" fill="#fff" font-family="DINCond-Bold" font-weight="700">C5047</text><text transform="translate(204.64063 286.80737)" font-size="1.859" fill="#fff" font-family="DINCond-Bold" font-weight="700">VDD_INT_0P8</text><path d="M137.4102,299.57a.857.857,0,0,0-.84-.84.837.837,0,0,0-.841.84.857.857,0,0,0,.841.839.87909.87909,0,0,0,.84-.839" fill="red"/><polyline points="136.57 299.569 139.587 299.569 139.587 330.042" fill="none" stroke="red" stroke-miterlimit="22.926" stroke-width="0.567"/><path d="M132.772,331.87863h13.631a1.341,1.341,0,1,0,0-2.682H132.772a1.341,1.341,0,1,0,0,2.682" fill="red"/><path d="M137.7476,329.88943h3.68a1.34,1.34,0,0,0,1.34-1.34v-.335a1.34094,1.34094,0,0,0-1.34-1.341h-3.68a1.341,1.341,0,0,0-1.34,1.341v.335a1.34007,1.34007,0,0,0,1.34,1.34" fill="red"/><rect width="841.89001" height="595.28003" fill="none"/><text transform="translate(137.68164 328.9978)" font-size="1.859" fill="#fff" font-family="DINCond-Bold" font-weight="700">C5052</text><text transform="translate(135.04688 331.15405)" font-size="1.859" fill="#fff" font-family="DINCond-Bold" font-weight="700">VDD_G3D_0P8</text><path d="M173.05859,224.67654a.85614.85614,0,0,0-.839-.84.83631.83631,0,0,0-.841.84.85721.85721,0,0,0,.841.84.87909.87909,0,0,0,.839-.84" fill="red"/><line x1="172.2187" y1="224.67654" x2="196.3967" y2="224.67654" fill="none" stroke="red" stroke-miterlimit="22.926" stroke-width="0.567"/><path d="M195.2749,225.81564h13.631a1.3405,1.3405,0,0,0,0-2.681h-13.631a1.3405,1.3405,0,0,0,0,2.681" fill="red"/><path d="M200.251,223.82642h3.679a1.34113,1.34113,0,0,0,1.341-1.341v-.334a1.34116,1.34116,0,0,0-1.341-1.341h-3.679a1.34051,1.34051,0,0,0-1.341,1.341v.334a1.34048,1.34048,0,0,0,1.341,1.341" fill="red"/><rect width="841.89001" height="595.28003" fill="none"/><text transform="translate(200.18408 222.93433)" font-size="1.859" fill="#fff" font-family="DINCond-Bold" font-weight="700">C5060</text><text transform="translate(197.30664 225.09058)" font-size="1.859" fill="#fff" font-family="DINCond-Bold" font-weight="700">VDD_MEM_1P1</text><path d="M108.2754,275.13553a.85652.85652,0,0,0-.841-.84.83546.83546,0,0,0-.84.84.857.857,0,0,0,.84.84.88018.88018,0,0,0,.841-.84" fill="red"/><line x1="107.4346" y1="275.13553" x2="79.2766" y2="275.13553" fill="none" stroke="red" stroke-miterlimit="22.926" stroke-width="0.567"/><path d="M68.9771,276.43723h13.631a1.3405,1.3405,0,0,0,0-2.681H68.9771a1.3405,1.3405,0,1,0,0,2.681" fill="red"/><path d="M73.9526,274.44852h3.679a1.34049,1.34049,0,0,0,1.341-1.341v-.334a1.34051,1.34051,0,0,0-1.341-1.341h-3.679a1.34029,1.34029,0,0,0-1.34,1.341v.334a1.34028,1.34028,0,0,0,1.34,1.341" fill="red"/><rect width="841.89001" height="595.28003" fill="none"/><text transform="translate(73.88623 273.55542)" font-size="1.859" fill="#fff" font-family="DINCond-Bold" font-weight="700">C5063</text><text transform="translate(70.90771 275.71167)" font-size="1.859" fill="#fff" font-family="DINCond-Bold" font-weight="700">VDD_LLDO_1P3</text><path d="M110.8701,236.02563a.85634.85634,0,0,0-.84-.84.83609.83609,0,0,0-.84.84.85613.85613,0,0,0,.84.839.87835.87835,0,0,0,.84-.839" fill="red"/><polyline points="110.03 236.026 110.03 238.984 91.452 238.984" fill="none" stroke="red" stroke-miterlimit="22.926" stroke-width="0.567"/><path d="M80.8813,240.238h13.631a1.3405,1.3405,0,0,0,0-2.681H80.8813a1.3405,1.3405,0,0,0,0,2.681" fill="red"/><path d="M85.8569,238.24924h3.68a1.34028,1.34028,0,0,0,1.34-1.341v-.334a1.34029,1.34029,0,0,0-1.34-1.341h-3.68a1.34029,1.34029,0,0,0-1.34,1.341v.334a1.34028,1.34028,0,0,0,1.34,1.341" fill="red"/><rect width="841.89001" height="595.28003" fill="none"/><text transform="translate(85.79053 237.35718)" font-size="1.859" fill="#fff" font-family="DINCond-Bold" font-weight="700">C5070</text><text transform="translate(82.66943 239.51392)" font-size="1.859" fill="#fff" font-family="DINCond-Bold" font-weight="700">VDD_MLD0_2P0</text><path d="M172.8447,249.20383a.857.857,0,0,0-.84-.84.8361.8361,0,0,0-.84.84.857.857,0,0,0,.84.84.88.88,0,0,0,.84-.84" fill="red"/><line x1="172.00439" y1="249.20383" x2="202.7114" y2="249.20383" fill="none" stroke="red" stroke-miterlimit="22.926" stroke-width="0.567"/><path d="M201.6841,250.26633h13.631a1.3405,1.3405,0,1,0,0-2.681h-13.631a1.3405,1.3405,0,1,0,0,2.681" fill="red"/><path d="M206.6597,248.27762h3.68a1.34027,1.34027,0,0,0,1.34-1.341v-.334a1.34029,1.34029,0,0,0-1.34-1.341h-3.68a1.34029,1.34029,0,0,0-1.34,1.341v.334a1.34028,1.34028,0,0,0,1.34,1.341" fill="red"/><rect width="841.89001" height="595.28003" fill="none"/><text transform="translate(206.59326 247.38452)" font-size="1.859" fill="#fff" font-family="DINCond-Bold" font-weight="700">C5074</text><text transform="translate(204.35156 249.54077)" font-size="1.859" fill="#fff" font-family="DINCond-Bold" font-weight="700">VDD_CP_0P8</text><path d="M163.63429,335.66574a.85722.85722,0,0,0-.841-.84.8361.8361,0,0,0-.84.84.85635.85635,0,0,0,.84.84.87944.87944,0,0,0,.841-.84" fill="red"/><polyline points="162.794 335.666 164.885 335.666 164.885 352.688" fill="none" stroke="red" stroke-miterlimit="22.926" stroke-width="0.567"/><path d="M158.0703,355.04953h13.63a1.341,1.341,0,1,0,0-2.682h-13.63a1.341,1.341,0,1,0,0,2.682" fill="red"/><path d="M163.0459,353.06033h3.679a1.34178,1.34178,0,0,0,1.341-1.341v-.334a1.34116,1.34116,0,0,0-1.341-1.341h-3.679a1.34115,1.34115,0,0,0-1.341,1.341v.334a1.34177,1.34177,0,0,0,1.341,1.341" fill="red"/><rect width="841.89001" height="595.28003" fill="none"/><text transform="translate(162.97852 352.1687)" font-size="1.859" fill="#fff" font-family="DINCond-Bold" font-weight="700">C5000</text><text transform="translate(159.80029 354.323)" font-size="1.859" fill="#fff" font-family="DINCond-Bold" font-weight="700">VDD_ALIVE_0P8</text><path d="M115.4146,295.13214a.85722.85722,0,0,0-.841-.84.83673.83673,0,0,0-.84.84.8577.8577,0,0,0,.84.84.88018.88018,0,0,0,.841-.84" fill="red"/><line x1="114.5732" y1="295.15503" x2="62.8502" y2="295.15503" fill="none" stroke="red" stroke-miterlimit="22.926" stroke-width="0.567"/><path d="M56.916,296.51443H70.547a1.341,1.341,0,0,0,0-2.682H56.916a1.341,1.341,0,1,0,0,2.682" fill="red"/><path d="M61.8916,294.52563h3.679a1.34048,1.34048,0,0,0,1.341-1.341v-.334a1.34052,1.34052,0,0,0-1.341-1.341h-3.679a1.3403,1.3403,0,0,0-1.34,1.341v.334a1.34027,1.34027,0,0,0,1.34,1.341" fill="red"/><rect width="841.89001" height="595.28003" fill="none"/><text transform="translate(61.8252 293.63354)" font-size="1.859" fill="#fff" font-family="DINCond-Bold" font-weight="700">C5003</text><text transform="translate(58.12402 295.78979)" font-size="1.859" fill="#fff" font-family="DINCond-Bold" font-weight="700">VDDQ_DRAM_0P6</text><path d="M121.1987,302.22922a.85477.85477,0,0,0-.839-.84.83567.83567,0,0,0-.841.84.857.857,0,0,0,.841.839.87818.87818,0,0,0,.839-.839" fill="red"/><polyline points="120.359 302.24 120.359 299.677 76.227 299.677" fill="none" stroke="red" stroke-miterlimit="22.926" stroke-width="0.567"/><path d="M74.3101,301.01544h13.63a1.341,1.341,0,1,0,0-2.682h-13.63a1.341,1.341,0,1,0,0,2.682" fill="red"/><path d="M78.647,299.02713h3.679a1.34177,1.34177,0,0,0,1.341-1.341v-.335a1.34115,1.34115,0,0,0-1.341-1.341H78.647a1.34051,1.34051,0,0,0-1.341,1.341v.335a1.34113,1.34113,0,0,0,1.341,1.341" fill="red"/><rect width="841.89001" height="595.28003" fill="none"/><text transform="translate(78.58008 298.13354)" font-size="1.859" fill="#fff" font-family="DINCond-Bold" font-weight="700">C5004</text><text transform="translate(74.75586 300.28979)" font-size="1.859" fill="#fff" font-family="DINCond-Bold" font-weight="700">VDD_PLL_AP_0P9</text><path d="M116.8115,309.48123a.857.857,0,0,0-.84-.84.83694.83694,0,0,0-.841.84.85723.85723,0,0,0,.841.84.87928.87928,0,0,0,.84-.84" fill="red"/><line x1="115.9702" y1="309.50952" x2="70.7482" y2="309.50952" fill="none" stroke="red" stroke-miterlimit="22.926" stroke-width="0.567"/><path d="M131.49409,314.18723a.85613.85613,0,0,0-.84-.839.8361.8361,0,0,0-.841.839.85655.85655,0,0,0,.841.84.87853.87853,0,0,0,.84-.84" fill="red"/><polyline points="130.654 314.926 130.654 315.816 91.073 315.816" fill="none" stroke="red" stroke-miterlimit="22.926" stroke-width="0.567"/><path d="M81.7534,316.988h13.631a1.3405,1.3405,0,0,0,0-2.681H81.7534a1.3405,1.3405,0,1,0,0,2.681" fill="red"/><path d="M86.729,314.99973h3.679a1.34114,1.34114,0,0,0,1.341-1.341v-.335a1.34115,1.34115,0,0,0-1.341-1.341H86.729a1.3418,1.3418,0,0,0-1.341,1.341v.335a1.34178,1.34178,0,0,0,1.341,1.341" fill="red"/><rect width="841.89001" height="595.28003" fill="none"/><text transform="translate(86.6626 314.10718)" font-size="1.859" fill="#fff" font-family="DINCond-Bold" font-weight="700">C5006</text><text transform="translate(82.40332 316.26343)" font-size="1.859" fill="#fff" font-family="DINCond-Bold" font-weight="700">AVDD_PLL_AP_1P8</text><path d="M56.8813,310.76733h16.84a1.341,1.341,0,1,0,0-2.682h-16.84a1.341,1.341,0,1,0,0,2.682" fill="red"/><path d="M63.4619,308.779h3.679a1.34177,1.34177,0,0,0,1.341-1.341v-.335a1.3418,1.3418,0,0,0-1.341-1.341h-3.679a1.34116,1.34116,0,0,0-1.341,1.341v.335a1.34113,1.34113,0,0,0,1.341,1.341" fill="red"/><rect width="841.89001" height="595.28003" fill="none"/><text transform="translate(63.39502 307.88647)" font-size="1.859" fill="#fff" font-family="DINCond-Bold" font-weight="700">C4066</text><text transform="translate(58.04688 310.04077)" font-size="1.859" fill="#fff" font-family="DINCond-Bold" font-weight="700">AVDD_MIPI_DPHY_1P2</text><path d="M126.3643,313.865a.85593.85593,0,0,0-.839-.839.83546.83546,0,0,0-.841.839.85654.85654,0,0,0,.841.84.87911.87911,0,0,0,.839-.84" fill="red"/><polyline points="125.524 313.865 125.524 311.59 56.24 311.59 56.24 316.988" fill="none" stroke="red" stroke-miterlimit="22.926" stroke-width="0.567"/><path d="M48.5225,318.49783h15.437a1.341,1.341,0,0,0,0-2.682H48.5225a1.341,1.341,0,1,0,0,2.682" fill="red"/><path d="M54.4009,316.50851h3.679a1.34113,1.34113,0,0,0,1.341-1.341v-.335a1.34031,1.34031,0,0,0-1.341-1.34h-3.679a1.34009,1.34009,0,0,0-1.34,1.34v.335a1.34091,1.34091,0,0,0,1.34,1.341" fill="red"/><rect width="841.89001" height="595.28003" fill="none"/><text transform="translate(54.33447 315.61694)" font-size="1.859" fill="#fff" font-family="DINCond-Bold" font-weight="700">C5007</text><text transform="translate(49.19043 317.77319)" font-size="1.859" fill="#fff" font-family="DINCond-Bold" font-weight="700">VDD_CPUCL_PPC_0P8</text><path d="M131.49409,317.25851a.8572.8572,0,0,0-.84-.841.83715.83715,0,0,0-.841.841.857.857,0,0,0,.841.839.87909.87909,0,0,0,.84-.839" fill="red"/><polyline points="130.654 317.182 130.654 318.584 67.869 318.584 67.869 323.071" fill="none" stroke="red" stroke-miterlimit="22.926" stroke-width="0.567"/><path d="M61.0542,327.14624h13.63a1.341,1.341,0,1,0,0-2.682h-13.63a1.341,1.341,0,1,0,0,2.682" fill="red"/><path d="M66.0298,325.15793h3.679a1.34177,1.34177,0,0,0,1.341-1.341v-.335a1.3418,1.3418,0,0,0-1.341-1.341h-3.679a1.34115,1.34115,0,0,0-1.341,1.341v.335a1.34113,1.34113,0,0,0,1.341,1.341" fill="red"/><rect width="841.89001" height="595.28003" fill="none"/><text transform="translate(65.96289 324.26538)" font-size="1.859" fill="#fff" font-family="DINCond-Bold" font-weight="700">C5008</text><text transform="translate(62.34912 326.42163)" font-size="1.859" fill="#fff" font-family="DINCond-Bold" font-weight="700">VDD_G3D_M_0P8</text><path d="M154.9272,330.66962a.8572.8572,0,0,0-.84-.841.83714.83714,0,0,0-.841.841.8579.8579,0,0,0,.841.84.88.88,0,0,0,.84-.84" fill="red"/><polyline points="153.866 330.67 152.329 330.67 152.329 360.494" fill="none" stroke="red" stroke-miterlimit="22.926" stroke-width="0.567"/><path d="M145.10451,362.76244h13.631a1.3405,1.3405,0,1,0,0-2.681h-13.631a1.3405,1.3405,0,0,0,0,2.681" fill="red"/><path d="M150.08009,360.77412h3.68a1.34178,1.34178,0,0,0,1.341-1.341v-.335a1.34179,1.34179,0,0,0-1.341-1.341h-3.68a1.341,1.341,0,0,0-1.34,1.341v.335a1.34093,1.34093,0,0,0,1.34,1.341" fill="red"/><rect width="841.89001" height="595.28003" fill="none"/><text transform="translate(150.01367 359.88159)" font-size="1.859" fill="#fff" font-family="DINCond-Bold" font-weight="700">C5009</text><text transform="translate(145.625 362.03784)" font-size="1.859" fill="#fff" font-family="DINCond-Bold" font-weight="700">VDD_CPUL0_M_0P8</text><path d="M126.377,325.70584a.857.857,0,0,0-.84-.84.837.837,0,0,0-.841.84.8579.8579,0,0,0,.841.84.88.88,0,0,0,.84-.84" fill="red"/><polyline points="125.536 325.706 125.536 327.166 104.085 327.166" fill="none" stroke="red" stroke-miterlimit="22.926" stroke-width="0.567"/><path d="M96.2485,328.29764h13.631a1.341,1.341,0,1,0,0-2.682H96.2485a1.341,1.341,0,1,0,0,2.682" fill="red"/><path d="M101.2241,326.30933h3.68a1.34092,1.34092,0,0,0,1.34-1.341v-.335a1.34093,1.34093,0,0,0-1.34-1.341h-3.68a1.34094,1.34094,0,0,0-1.34,1.341v.335a1.34092,1.34092,0,0,0,1.34,1.341" fill="red"/><rect width="841.89001" height="595.28003" fill="none"/><text transform="translate(101.15723 325.41772)" font-size="1.859" fill="#fff" font-family="DINCond-Bold" font-weight="700">C4001</text><text transform="translate(98.21289 327.573)" font-size="1.859" fill="#fff" font-family="DINCond-Bold" font-weight="700">VDD_FSYS_0P8</text><path d="M171.5674,266.38794a.85635.85635,0,0,0-.84-.84.8361.8361,0,0,0-.84.84.857.857,0,0,0,.84.84.87927.87927,0,0,0,.84-.84" fill="red"/><polyline points="170.727 266.388 170.727 270.55 194.739 270.55" fill="none" stroke="red" stroke-miterlimit="22.926" stroke-width="0.567"/><path d="M111.3672,306.75464a.857.857,0,0,0-.84-.84.837.837,0,0,0-.841.84.8579.8579,0,0,0,.841.84.88.88,0,0,0,.84-.84" fill="red"/><polyline points="110.526 306.6 110.526 304.578 55.815 304.578" fill="none" stroke="red" stroke-miterlimit="22.926" stroke-width="0.567"/><path d="M43.5293,305.88843h13.63a1.341,1.341,0,1,0,0-2.682h-13.63a1.341,1.341,0,1,0,0,2.682" fill="red"/><path d="M48.5044,303.89914h3.68a1.34177,1.34177,0,0,0,1.341-1.341v-.335a1.3418,1.3418,0,0,0-1.341-1.341h-3.68a1.34094,1.34094,0,0,0-1.34,1.341v.335a1.34091,1.34091,0,0,0,1.34,1.341" fill="red"/><rect width="841.89001" height="595.28003" fill="none"/><text transform="translate(48.43799 303.00659)" font-size="1.859" fill="#fff" font-family="DINCond-Bold" font-weight="700">C5012</text><text transform="translate(45.31689 305.16284)" font-size="1.859" fill="#fff" font-family="DINCond-Bold" font-weight="700">AVDD_USB_1P8</text><path d="M120.7383,320.239a.857.857,0,0,0-.84-.84.83631.83631,0,0,0-.841.84.85654.85654,0,0,0,.841.84.87928.87928,0,0,0,.84-.84" fill="red"/><polyline points="119.897 320.239 79.979 320.239 79.979 328.507" fill="none" stroke="red" stroke-miterlimit="22.926" stroke-width="0.567"/><path d="M182.2363,319.21854a.8579.8579,0,0,0-.84-.841.83779.83779,0,0,0-.841.841.857.857,0,0,0,.841.839.87911.87911,0,0,0,.84-.839" fill="red"/><path d="M175.4785,330.03983a.857.857,0,0,0-.84-.84.8361.8361,0,0,0-.84.84.85634.85634,0,0,0,.84.84.87928.87928,0,0,0,.84-.84" fill="red"/><line x1="181.39549" y1="319.21754" x2="202.44649" y2="319.21754" fill="none" stroke="red" stroke-miterlimit="22.926" stroke-width="0.567"/><path d="M202.09959,320.45383h13.631a1.3405,1.3405,0,1,0,0-2.681h-13.631a1.3405,1.3405,0,0,0,0,2.681" fill="red"/><path d="M207.0757,318.46552h3.679a1.34178,1.34178,0,0,0,1.341-1.341v-.335a1.34094,1.34094,0,0,0-1.341-1.34h-3.679a1.34029,1.34029,0,0,0-1.341,1.34v.335a1.34113,1.34113,0,0,0,1.341,1.341" fill="red"/><rect width="841.89001" height="595.28003" fill="none"/><text transform="translate(207.00879 317.57397)" font-size="1.859" fill="#fff" font-family="DINCond-Bold" font-weight="700">C5014</text><text transform="translate(202.77002 319.73022)" font-size="1.859" fill="#fff" font-family="DINCond-Bold" font-weight="700">AVDD_PLL_CP_0P8</text><line x1="174.6377" y1="330.03983" x2="197.56969" y2="330.03983" fill="none" stroke="red" stroke-miterlimit="22.926" stroke-width="0.567"/><path d="M186.44679,331.20584h13.63a1.341,1.341,0,1,0,0-2.682h-13.63a1.341,1.341,0,1,0,0,2.682" fill="red"/><path d="M191.42239,329.21754h3.679a1.34113,1.34113,0,0,0,1.341-1.341v-.335a1.34115,1.34115,0,0,0-1.341-1.341h-3.679a1.34115,1.34115,0,0,0-1.341,1.341v.335a1.34113,1.34113,0,0,0,1.341,1.341" fill="red"/><rect width="841.89001" height="595.28003" fill="none"/><text transform="translate(191.35547 328.32495)" font-size="1.859" fill="#fff" font-family="DINCond-Bold" font-weight="700">C5015</text><text transform="translate(187.11719 330.4812)" font-size="1.859" fill="#fff" font-family="DINCond-Bold" font-weight="700">AVDD_PLL_CP_1P8</text><path d="M169.81641,333.37183a.857.857,0,0,0-.84-.84.837.837,0,0,0-.841.84.85637.85637,0,0,0,.841.839.87838.87838,0,0,0,.84-.839" fill="red"/><line x1="168.9756" y1="333.37082" x2="214.71359" y2="333.37082" fill="none" stroke="red" stroke-miterlimit="22.926" stroke-width="0.567"/><path d="M203.2847,334.55832h13.631a1.341,1.341,0,0,0,0-2.682h-13.631a1.341,1.341,0,1,0,0,2.682" fill="red"/><path d="M208.2603,332.72144h3.679a1.34113,1.34113,0,0,0,1.341-1.341v-.335a1.34115,1.34115,0,0,0-1.341-1.341h-3.679a1.34179,1.34179,0,0,0-1.341,1.341v.335a1.34177,1.34177,0,0,0,1.341,1.341" fill="red"/><rect width="841.89001" height="595.28003" fill="none"/><text transform="translate(208.19336 331.52515)" font-size="1.859" fill="#fff" font-family="DINCond-Bold" font-weight="700">C5016</text><text transform="translate(203.95508 333.83374)" font-size="1.859" fill="#fff" font-family="DINCond-Bold" font-weight="700">AVDD_PLL_CP_1P2</text><path d="M166.2534,252.08713a.8579.8579,0,0,0-.84-.841.83694.83694,0,0,0-.84.841.85683.85683,0,0,0,.84.839.87985.87985,0,0,0,.84-.839" fill="red"/><polyline points="165.414 252.087 165.414 243.724 184.764 243.724" fill="none" stroke="red" stroke-miterlimit="22.926" stroke-width="0.567"/><path d="M101.1885,270.55734a.857.857,0,0,0-.84-.84.83694.83694,0,0,0-.841.84.85723.85723,0,0,0,.841.84.87928.87928,0,0,0,.84-.84" fill="red"/><line x1="100.3472" y1="270.55734" x2="66.5422" y2="270.55734" fill="none" stroke="red" stroke-miterlimit="22.926" stroke-width="0.567"/><path d="M48.9409,271.83182h20.84a1.3405,1.3405,0,1,0,0-2.681h-20.84a1.3405,1.3405,0,1,0,0,2.681" fill="red"/><path d="M57.521,269.84254h3.68a1.34114,1.34114,0,0,0,1.341-1.341v-.334a1.34115,1.34115,0,0,0-1.341-1.341h-3.68a1.34029,1.34029,0,0,0-1.34,1.341v.334a1.34028,1.34028,0,0,0,1.34,1.341" fill="red"/><rect width="841.89001" height="595.28003" fill="none"/><text transform="translate(57.45459 268.94946)" font-size="1.859" fill="#fff" font-family="DINCond-Bold" font-weight="700">C5027</text><text transform="translate(50.39795 271.10571)" font-size="1.859" fill="#fff" font-family="DINCond-Bold" font-weight="700">VRF_WL_BT_RF_WLBT_1P1</text><path d="M108.1445,227.945a.857.857,0,0,0-.84-.84.837.837,0,0,0-.841.84.857.857,0,0,0,.841.839.87909.87909,0,0,0,.84-.839" fill="red"/><polyline points="107.304 227.945 107.304 230.12 88.711 230.12" fill="none" stroke="red" stroke-miterlimit="22.926" stroke-width="0.567"/><path d="M80.354,231.39282h13.63a1.3405,1.3405,0,1,0,0-2.681H80.354a1.3405,1.3405,0,0,0,0,2.681" fill="red"/><path d="M85.3296,229.40454h3.679a1.34112,1.34112,0,0,0,1.341-1.341v-.335a1.34029,1.34029,0,0,0-1.341-1.34h-3.679a1.34009,1.34009,0,0,0-1.34,1.34v.335a1.34092,1.34092,0,0,0,1.34,1.341" fill="red"/><rect width="841.89001" height="595.28003" fill="none"/><text transform="translate(85.26318 228.51147)" font-size="1.859" fill="#fff" font-family="DINCond-Bold" font-weight="700">C5030</text><text transform="translate(82.1123 230.66772)" font-size="1.859" fill="#fff" font-family="DINCond-Bold" font-weight="700">VRF_WLBT_1P8</text><path d="M168.626,258.031a.857.857,0,0,0-.84-.84.837.837,0,0,0-.841.84.8579.8579,0,0,0,.841.84.88.88,0,0,0,.84-.84" fill="red"/><polyline points="167.785 258.031 167.785 255.423 191.428 255.423" fill="none" stroke="red" stroke-miterlimit="22.926" stroke-width="0.567"/><path d="M187.397,256.79123h13.631a1.3405,1.3405,0,1,0,0-2.681H187.397a1.3405,1.3405,0,0,0,0,2.681" fill="red"/><path d="M192.373,254.95142h3.679a1.34113,1.34113,0,0,0,1.341-1.341v-.335a1.34115,1.34115,0,0,0-1.341-1.341h-3.679a1.3405,1.3405,0,0,0-1.341,1.341v.335a1.34048,1.34048,0,0,0,1.341,1.341" fill="red"/><text transform="translate(192.30615 254.05835)" font-size="1.859" fill="#fff" font-family="DINCond-Bold" font-weight="700">C5035</text><text transform="translate(188.52881 256.06567)" font-size="1.859" fill="#fff" font-family="DINCond-Bold" font-weight="700">VDD_TFLASH_3P0</text><path d="M646.33008,42.5993a21.50121,21.50121,0,1,0-.45105-43H195.90109a21.50122,21.50122,0,1,0-.451,43Z" fill="#292c31"/><text transform="translate(304.3418 26.15796)" font-size="16" fill="#fff" font-family="DINCond-Bold" font-weight="700">SAMSUNG SM-A105</text><text transform="translate(409.29883 26.15796)" font-size="14" fill="#fff" font-family="DINCond-Bold" font-weight="700"><tspan xml:space="preserve"> &gt; INPUT OUTPUT </tspan><tspan x="81.47754" y="0" letter-spacing="0.00202em">V</tspan><tspan x="87.62402" y="0">O</tspan><tspan x="94.0918" y="0" letter-spacing="-0.05001em">L</tspan><tspan x="98.75391" y="0" letter-spacing="-0.05099em">T</tspan><tspan x="103.54199" y="0" letter-spacing="-0.003em">A</tspan><tspan x="110.05176" y="0" letter-spacing="-0.00007em">GE</tspan></text></svg>