<svg xmlns="http://www.w3.org/2000/svg" viewBox="0 0 841.89001 595.28003"><title>Micro USB 2.0</title><circle cx="226.42305" cy="325.56444" r="0.8115" fill="#c2c2c2"/><circle cx="229.10741" cy="325.56444" r="0.8115" fill="#c2c2c2"/><circle cx="231.79177" cy="325.56444" r="0.8115" fill="#c2c2c2"/><circle cx="234.47612" cy="325.56444" r="0.8115" fill="#c2c2c2"/><circle cx="237.16048" cy="325.56444" r="0.8115" fill="#c2c2c2"/><circle cx="239.84484" cy="325.56444" r="0.8115" fill="#c2c2c2"/><circle cx="242.52919" cy="325.56444" r="0.8115" fill="#c2c2c2"/><circle cx="245.21355" cy="325.56444" r="0.8115" fill="#c2c2c2"/><circle cx="226.42305" cy="328.24413" r="0.8115" fill="#c2c2c2"/><circle cx="229.10741" cy="328.24413" r="0.8115" fill="#c2c2c2"/><circle cx="239.84484" cy="328.24413" r="0.8115" fill="#c2c2c2"/><circle cx="242.52919" cy="328.24413" r="0.8115" fill="#c2c2c2"/><circle cx="245.21355" cy="328.24413" r="0.8115" fill="#c2c2c2"/><circle cx="226.42305" cy="330.92381" r="0.8115" fill="#c2c2c2"/><circle cx="229.10741" cy="330.92381" r="0.8115" fill="#c2c2c2"/><circle cx="231.79177" cy="330.92381" r="0.8115" fill="#c2c2c2"/><circle cx="234.47612" cy="330.92381" r="0.8115" fill="#c2c2c2"/><circle cx="237.16048" cy="330.92381" r="0.8115" fill="#c2c2c2"/><circle cx="239.84484" cy="330.92381" r="0.8115" fill="#c2c2c2"/><circle cx="242.52919" cy="330.92381" r="0.8115" fill="#c2c2c2"/><circle cx="245.21355" cy="330.92381" r="0.8115" fill="#c2c2c2"/><circle cx="231.79177" cy="333.6035" r="0.8115" fill="#c2c2c2"/><circle cx="234.47612" cy="333.6035" r="0.8115" fill="#c2c2c2"/><circle cx="237.16048" cy="333.6035" r="0.8115" fill="#c2c2c2"/><circle cx="239.84484" cy="333.6035" r="0.8115" fill="#c2c2c2"/><circle cx="242.52919" cy="333.6035" r="0.8115" fill="#c2c2c2"/><circle cx="245.21355" cy="333.6035" r="0.8115" fill="#c2c2c2"/><circle cx="226.42305" cy="336.28319" r="0.8115" fill="#c2c2c2"/><circle cx="229.10741" cy="336.28319" r="0.8115" fill="#c2c2c2"/><circle cx="231.79177" cy="336.28319" r="0.8115" fill="#c2c2c2"/><circle cx="234.47612" cy="336.28319" r="0.8115" fill="#c2c2c2"/><circle cx="237.16048" cy="336.28319" r="0.8115" fill="#c2c2c2"/><circle cx="239.84484" cy="336.28319" r="0.8115" fill="#c2c2c2"/><circle cx="242.52919" cy="336.28319" r="0.8115" fill="#c2c2c2"/><circle cx="245.21355" cy="336.28319" r="0.8115" fill="#c2c2c2"/><circle cx="226.42305" cy="338.96287" r="0.8115" fill="#c2c2c2"/><circle cx="229.10741" cy="338.96287" r="0.8115" fill="#c2c2c2"/><circle cx="231.79177" cy="338.96287" r="0.8115" fill="#c2c2c2"/><circle cx="234.47612" cy="338.96287" r="0.8115" fill="#c2c2c2"/><circle cx="237.16048" cy="338.96287" r="0.8115" fill="#c2c2c2"/><circle cx="239.84484" cy="338.96287" r="0.8115" fill="#c2c2c2"/><circle cx="242.52919" cy="338.96287" r="0.8115" fill="#c2c2c2"/><circle cx="245.21355" cy="338.96287" r="0.8115" fill="#c2c2c2"/><circle cx="226.42305" cy="341.64256" r="0.8115" fill="#c2c2c2"/><circle cx="229.10741" cy="341.64256" r="0.8115" fill="#c2c2c2"/><circle cx="231.79177" cy="341.64256" r="0.8115" fill="#c2c2c2"/><circle cx="234.47612" cy="341.64256" r="0.8115" fill="#c2c2c2"/><circle cx="237.16048" cy="341.64256" r="0.8115" fill="#c2c2c2"/><circle cx="239.84484" cy="341.64256" r="0.8115" fill="#c2c2c2"/><circle cx="242.52919" cy="341.64256" r="0.8115" fill="#c2c2c2"/><circle cx="245.21355" cy="341.64256" r="0.8115" fill="#c2c2c2"/><circle cx="226.42305" cy="344.32224" r="0.8115" fill="#c2c2c2"/><circle cx="229.10741" cy="344.32224" r="0.8115" fill="#c2c2c2"/><circle cx="231.79177" cy="344.32224" r="0.8115" fill="#c2c2c2"/><circle cx="234.47612" cy="344.32224" r="0.8115" fill="#c2c2c2"/><circle cx="237.16048" cy="344.32224" r="0.8115" fill="#c2c2c2"/><circle cx="239.84484" cy="344.32224" r="0.8115" fill="#c2c2c2"/><circle cx="242.52919" cy="344.32224" r="0.8115" fill="#c2c2c2"/><circle cx="245.21355" cy="344.32224" r="0.8115" fill="#c2c2c2"/><circle cx="226.42305" cy="347.00193" r="0.8115" fill="#c2c2c2"/><circle cx="229.10741" cy="347.00193" r="0.8115" fill="#c2c2c2"/><circle cx="231.79177" cy="347.00193" r="0.8115" fill="#c2c2c2"/><circle cx="234.47612" cy="347.00193" r="0.8115" fill="#c2c2c2"/><circle cx="237.16048" cy="347.00193" r="0.8115" fill="#c2c2c2"/><circle cx="239.84484" cy="347.00193" r="0.8115" fill="#c2c2c2"/><circle cx="242.52919" cy="347.00193" r="0.8115" fill="#c2c2c2"/><circle cx="245.21355" cy="347.00193" r="0.8115" fill="#c2c2c2"/><path d="M206.0746,352.12393a.935.935,0,1,1,.934-.934.93548.93548,0,0,1-.934.934" fill="#c2c2c2"/><path d="M203.62959,352.12393a.935.935,0,1,1,.935-.934.93459.93459,0,0,1-.935.934" fill="#c2c2c2"/><path d="M201.18465,352.12393a.935.935,0,1,1,.935-.934.93466.93466,0,0,1-.935.934" fill="#c2c2c2"/><path d="M206.0746,349.67993a.935.935,0,1,1,.934-.935.93634.93634,0,0,1-.934.935" fill="#c2c2c2"/><path d="M203.62959,349.67993a.935.935,0,1,1,.935-.935.93545.93545,0,0,1-.935.935" fill="#c2c2c2"/><path d="M201.18465,349.67993a.935.935,0,1,1,.935-.935.93552.93552,0,0,1-.935.935" fill="#c2c2c2"/><path d="M201.18465,344.73591a.935.935,0,1,1,.935-.935.9355.9355,0,0,1-.935.935" fill="#c2c2c2"/><path d="M203.62959,344.73591a.935.935,0,1,1,.935-.935.93543.93543,0,0,1-.935.935" fill="#c2c2c2"/><path d="M206.0746,344.73591a.935.935,0,1,1,.934-.935.93632.93632,0,0,1-.934.935" fill="#c2c2c2"/><path d="M206.0746,347.23492a.935.935,0,1,1,.934-.935.93634.93634,0,0,1-.934.935" fill="#c2c2c2"/><path d="M203.62959,347.23492a.935.935,0,1,1,.935-.935.93545.93545,0,0,1-.935.935" fill="#c2c2c2"/><path d="M201.18465,347.23492a.935.935,0,1,1,.935-.935.93552.93552,0,0,1-.935.935" fill="#c2c2c2"/><polyline points="205.61 341.88 207.995 341.88 207.995 344.265 207.379 344.265 207.379 342.495 205.61 342.495" fill="#c2c2c2"/><line x1="159.9758" y1="386.91672" x2="166.22467" y2="386.91672" fill="none" stroke="#f33" stroke-miterlimit="10" stroke-width="0.5"/><line x1="159.9758" y1="377.38383" x2="166.22467" y2="377.38383" fill="none" stroke="#f33" stroke-miterlimit="10" stroke-width="0.5"/><polyline points="226.707 307.691 246.82 307.691 246.82 316.691 226.423 316.691 226.423 328.51" fill="none" stroke="red" stroke-miterlimit="10" stroke-width="0.5"/><path d="M239.40405,308.48442a.80873.80873,0,0,0,.793-.793.79.79,0,0,0-.793-.794.80959.80959,0,0,0-.793.794.83021.83021,0,0,0,.793.793" fill="red"/><path d="M238.24031,317.48442a.80873.80873,0,0,0,.793-.793.79.79,0,0,0-.793-.794.80959.80959,0,0,0-.793.794.83021.83021,0,0,0,.793.793" fill="red"/><path d="M228.15929,317.48442a.80873.80873,0,0,0,.793-.793.79.79,0,0,0-.793-.794.80963.80963,0,0,0-.793.794.83026.83026,0,0,0,.793.793" fill="red"/><path d="M246.82089,308.48442a.80944.80944,0,0,0,.793-.793.79065.79065,0,0,0-.793-.794.80982.80982,0,0,0-.794.794.83043.83043,0,0,0,.794.793" fill="red"/><polyline points="238.24 316.691 238.24 320.957 239.845 320.957 239.845 326.01" fill="none" stroke="red" stroke-miterlimit="10" stroke-width="0.5"/><polyline points="226.707 308.316 224.227 308.316 224.207 308.306 222.977 307.696 224.207 307.076 224.227 307.066 226.707 307.066" fill="red"/><path d="M227.14447,328.24413a.73589.73589,0,0,0-.72094-.721.71826.71826,0,0,0-.72189.721.73611.73611,0,0,0,.72189.721.75552.75552,0,0,0,.72094-.721" fill="red"/><text transform="translate(226.01569 328.43868)" font-size="0.5879" fill="#fff" font-family="DINCond-Bold" font-weight="700">CHG</text><path d="M240.56625,325.56443a.73507.73507,0,0,0-.72-.721.71845.71845,0,0,0-.72278.721.73628.73628,0,0,0,.72278.721.75467.75467,0,0,0,.72-.721" fill="red"/><text transform="translate(239.34238 325.75916)" font-size="0.5879" fill="#fff" font-family="DINCond-Bold" font-weight="700">VSYS</text><path d="M192.59741,349.53841a.8087.8087,0,0,0,.793-.793.79.79,0,0,0-.793-.794.80959.80959,0,0,0-.793.794.83018.83018,0,0,0,.793.793" fill="#f33"/><path d="M201.18465,349.53841a.80874.80874,0,0,0,.793-.793.79.79,0,0,0-.793-.794.80966.80966,0,0,0-.793.794.83025.83025,0,0,0,.793.793" fill="#f33"/><path d="M206.07414,347.09293a.80855.80855,0,0,0,.793-.792.79021.79021,0,0,0-.793-.795.80988.80988,0,0,0-.793.795.83016.83016,0,0,0,.793.792" fill="#f33"/><path d="M210.0164,347.09342a.80854.80854,0,0,0,.793-.792.79021.79021,0,0,0-.793-.795.80985.80985,0,0,0-.793.795.83012.83012,0,0,0,.793.792" fill="#f33"/><path d="M206.07414,347.48692a1.21055,1.21055,0,0,0,1.186-1.187,1.18113,1.18113,0,0,0-1.186-1.187,1.21008,1.21008,0,0,0-1.187,1.187A1.24232,1.24232,0,0,0,206.07414,347.48692Z" fill="none" stroke="#f33" stroke-miterlimit="10" stroke-width="0.25"/><path d="M213.81979,349.6038a.8087.8087,0,0,0,.793-.793.79.79,0,0,0-.793-.794.80966.80966,0,0,0-.793.794.83025.83025,0,0,0,.793.793" fill="#f33"/><path d="M220.78879,349.6038a.8087.8087,0,0,0,.793-.793.79.79,0,0,0-.793-.794.8096.8096,0,0,0-.793.794.83019.83019,0,0,0,.793.793" fill="#f33"/><path d="M219.00689,344.38292a.80873.80873,0,0,0,.793-.793.79.79,0,0,0-.793-.794.80962.80962,0,0,0-.793.794.83029.83029,0,0,0,.793.793" fill="#f33"/><path d="M219.99625,340.7009a.80781.80781,0,0,0,.792-.793.7891.7891,0,0,0-.792-.794.80961.80961,0,0,0-.793.794.83026.83026,0,0,0,.793.793" fill="#f33"/><path d="M190.02676,368.53277a.80872.80872,0,0,0,.793-.793.79.79,0,0,0-.793-.794.80959.80959,0,0,0-.793.794.83022.83022,0,0,0,.793.793" fill="#f33"/><path d="M166.8793,377.38384a.80875.80875,0,0,0-.793-.793.79.79,0,0,0-.794.793.80963.80963,0,0,0,.794.793.83026.83026,0,0,0,.793-.793" fill="#f33"/><text transform="translate(165.81039 377.64141)" font-size="1" fill="#fff" font-family="DINCond-Bold" font-weight="700">1</text><path d="M164.84231,377.38384a.80875.80875,0,0,0-.793-.793.79.79,0,0,0-.794.793.80963.80963,0,0,0,.794.793.83026.83026,0,0,0,.793-.793" fill="#f33"/><text transform="translate(163.77328 377.64141)" font-size="1" fill="#fff" font-family="DINCond-Bold" font-weight="700">3</text><path d="M162.8063,377.38384a.80875.80875,0,0,0-.793-.793.79.79,0,0,0-.794.793.80963.80963,0,0,0,.794.793.83026.83026,0,0,0,.793-.793" fill="#f33"/><text transform="translate(161.73715 377.64141)" font-size="1" fill="#fff" font-family="DINCond-Bold" font-weight="700">5</text><polyline points="159.976 386.917 159.976 367.739 190.027 367.739 190.027 348.745 201.185 348.745" fill="none" stroke="#f33" stroke-miterlimit="10" stroke-width="0.5"/><path d="M160.76932,377.38384a.80875.80875,0,0,0-.793-.793.79.79,0,0,0-.794.793.80963.80963,0,0,0,.794.793.83026.83026,0,0,0,.793-.793" fill="#f33"/><text transform="translate(159.70004 377.64141)" font-size="1" fill="#fff" font-family="DINCond-Bold" font-weight="700">7</text><path d="M167.01819,386.91674a.80875.80875,0,0,0-.793-.793.79.79,0,0,0-.794.793.80963.80963,0,0,0,.794.793.83026.83026,0,0,0,.793-.793" fill="#f33"/><text transform="translate(165.94928 387.17521)" font-size="1" fill="#fff" font-family="DINCond-Bold" font-weight="700">2</text><path d="M164.9812,386.91674a.80875.80875,0,0,0-.793-.793.79.79,0,0,0-.794.793.80962.80962,0,0,0,.794.793.83026.83026,0,0,0,.793-.793" fill="#f33"/><text transform="translate(163.91217 387.17521)" font-size="1" fill="#fff" font-family="DINCond-Bold" font-weight="700">4</text><path d="M162.94519,386.91674a.80875.80875,0,0,0-.793-.793.79.79,0,0,0-.794.793.80962.80962,0,0,0,.794.793.83026.83026,0,0,0,.793-.793" fill="#f33"/><text transform="translate(161.87604 387.17521)" font-size="1" fill="#fff" font-family="DINCond-Bold" font-weight="700">6</text><path d="M160.90821,386.91674a.80875.80875,0,0,0-.793-.793.79.79,0,0,0-.794.793.80963.80963,0,0,0,.794.793.83026.83026,0,0,0,.793-.793" fill="#f33"/><text transform="translate(159.83893 387.17521)" font-size="1" fill="#fff" font-family="DINCond-Bold" font-weight="700">8</text><polyline points="206.013 346.299 212.235 346.299 212.235 348.81 220.789 348.81 220.789 343.589 219.007 343.589 219.007 342.087 219.996 341.268 219.996 339.774 222.829 339.774 223.307 338.963 226.346 338.963" fill="none" stroke="#f33" stroke-miterlimit="10" stroke-width="0.5"/><polyline points="209.223 355.815 209.223 348.739 205.461 345.829" fill="none" stroke="#f33" stroke-miterlimit="10" stroke-width="0.25"/><path d="M227.14447,338.96286a.73529.73529,0,0,0-.721-.721.7182.7182,0,0,0-.72183.721.73606.73606,0,0,0,.72183.721.75487.75487,0,0,0,.721-.721" fill="#f33"/><text transform="translate(225.88751 339.15722)" font-size="0.5879" fill="#fff" font-family="DINCond-Bold" font-weight="700">VBUS</text><polyline points="226.423 344.322 624.581 344.382 624.582 372.724 635.761 372.724 635.761 407.016 106.603 407.016 106.603 369.311 140.49 369.311 140.49 377.384" fill="none" stroke="lime" stroke-miterlimit="10" stroke-width="0.5"/><path d="M141.28244,377.38384a.80875.80875,0,0,0-.793-.793.79.79,0,0,0-.79394.793.80957.80957,0,0,0,.79394.793.83026.83026,0,0,0,.793-.793" fill="lime"/><text transform="translate(140.08823 377.64239)" font-size="1" font-family="DINCond-Bold" font-weight="700">25</text><path d="M632.94651,372.72434a.80873.80873,0,0,0-.793-.793.79.79,0,0,0-.794.793.80962.80962,0,0,0,.794.793.83025.83025,0,0,0,.793-.793" fill="lime"/><path d="M631.35953,376.83552a.80872.80872,0,0,1,.793-.793.79.79,0,0,1,.794.793.8096.8096,0,0,1-.794.793.83022.83022,0,0,1-.793-.793" fill="#a6ff00"/><path d="M630.06162,372.72434a.80875.80875,0,0,0-.793-.793.79.79,0,0,0-.794.793.80962.80962,0,0,0,.794.793.83026.83026,0,0,0,.793-.793" fill="lime"/><path d="M628.47461,376.83552a.80875.80875,0,0,1,.793-.793.79.79,0,0,1,.794.793.80961.80961,0,0,1-.794.793.83024.83024,0,0,1-.793-.793" fill="#a6ff00"/><path d="M625.37461,372.89581a.80873.80873,0,0,0-.793-.793.79.79,0,0,0-.794.793.80962.80962,0,0,0,.794.793.83025.83025,0,0,0,.793-.793" fill="lime"/><path d="M623.78763,376.83552a.80872.80872,0,0,1,.793-.793.79.79,0,0,1,.794.793.8096.8096,0,0,1-.794.793.83022.83022,0,0,1-.793-.793" fill="#a6ff00"/><path d="M227.14447,344.32224a.73529.73529,0,0,0-.721-.721.7182.7182,0,0,0-.72183.721.73606.73606,0,0,0,.72183.721.75487.75487,0,0,0,.721-.721" fill="lime"/><path d="M225.70164,347.00192a.73525.73525,0,0,1,.72094-.721.71826.71826,0,0,1,.72189.721.73611.73611,0,0,1-.72189.721.75481.75481,0,0,1-.72094-.721" fill="#a6ff00"/><polyline points="226.423 347.002 620.39 347.002 620.389 376.836 632.153 376.836 632.153 405.411 108.208 405.411 108.208 370.882 138.412 370.882 138.412 377.384" fill="none" stroke="#a6ff00" stroke-miterlimit="10" stroke-width="0.5"/><polyline points="626.345 370.608 626.769 371.032 627.193 370.609 627.193 370.968 626.769 371.392 626.345 370.967" fill="lime"/><polyline points="627.193 379.232 626.769 378.807 626.346 379.232 626.345 378.872 626.769 378.448 627.193 378.872" fill="#a6ff00"/><path d="M304.06741,366.78242a.80938.80938,0,0,0,.793-.793.79059.79059,0,0,0-.793-.794.80982.80982,0,0,0-.794.794.83042.83042,0,0,0,.794.793" fill="red"/><path d="M310.02616,366.78242a.80871.80871,0,0,0,.793-.793.79.79,0,0,0-.793-.794.80959.80959,0,0,0-.793.794.8302.8302,0,0,0,.793.793" fill="red"/><path d="M310.02616,357.41743a.80872.80872,0,0,0,.793-.793.79.79,0,0,0-.793-.794.80959.80959,0,0,0-.793.794.83022.83022,0,0,0,.793.793" fill="red"/><path d="M248.80594,328.60715a.80873.80873,0,0,0,.793-.793.78915.78915,0,0,0-.793-.793.80875.80875,0,0,0-.793.793.83026.83026,0,0,0,.793.793" fill="red"/><path d="M304.06741,370.36676a.80939.80939,0,0,0,.793-.793.79059.79059,0,0,0-.793-.794.80982.80982,0,0,0-.794.794.83043.83043,0,0,0,.794.793" fill="red"/><polyline points="324.199 393.31 324.199 380.737 304.067 380.737 304.067 365.989 310.026 365.989 310.026 327.814 248.806 327.814 248.806 325.564 245.214 325.564" fill="none" stroke="red" stroke-miterlimit="10" stroke-width="0.5"/><path d="M324.9929,380.73743a.8087.8087,0,0,0-.793-.793.79.79,0,0,0-.79394.793.80959.80959,0,0,0,.79394.793.83023.83023,0,0,0,.793-.793" fill="red"/><text transform="translate(323.92435 380.99582)" font-size="1" fill="#fff" font-family="DINCond-Bold" font-weight="700">2</text><path d="M324.9929,393.05251a.80871.80871,0,0,0-.793-.793.79.79,0,0,0-.79394.793.80957.80957,0,0,0,.79394.793.83021.83021,0,0,0,.793-.793" fill="red"/><text transform="translate(323.92435 393.31019)" font-size="1" fill="#fff" font-family="DINCond-Bold" font-weight="700">1</text><polyline points="316.722 359.756 315.794 359.756 314.926 360.624" fill="none" stroke="red" stroke-linejoin="round" stroke-width="0.25"/><polyline points="314.979 359.972 314.979 360.572 315.577 360.571 315.324 360.826 314.725 360.826 314.725 360.226" fill="red"/><path d="M245.9346,325.56443a.73488.73488,0,0,0-.72058-.7206.71789.71789,0,0,0-.72152.7206.73573.73573,0,0,0,.72152.72062.75443.75443,0,0,0,.72058-.72062" fill="red"/><text transform="translate(244.6929 325.75916)" font-size="0.5879" fill="#fff" font-family="DINCond-Bold" font-weight="700">VBAT</text><polyline points="623.692 379.734 626.769 379.734 626.769 378.807" fill="none" stroke="#a6ff00" stroke-linejoin="round" stroke-width="0.25"/><polyline points="626.769 371.129 626.769 369.245 629.414 369.245" fill="none" stroke="lime" stroke-miterlimit="10" stroke-width="0.25"/><path d="M139.20391,377.38384a.80875.80875,0,0,0-.793-.793.79.79,0,0,0-.794.793.80963.80963,0,0,0,.794.793.83026.83026,0,0,0,.793-.793" fill="#a6ff00"/><text transform="translate(138.00964 377.64239)" font-size="1" font-family="DINCond-Bold" font-weight="700">27</text><rect x="254.21256" y="327.18916" width="12.33789" height="1.25" rx="0.625" fill="red"/><rect x="254.20064" y="343.69665" width="12.33789" height="1.25" rx="0.625" fill="lime"/><rect x="254.20064" y="346.37693" width="12.33789" height="1.25" rx="0.625" fill="#a6ff00"/><text transform="translate(258.44028 328.14502)" font-size="1" fill="#fff" font-family="DINCond-Bold" font-weight="700">V_BATTERY</text><text transform="translate(258.7348 344.65276)" font-size="1" font-family="DINCond-Bold" font-weight="700">USB_D_N</text><text transform="translate(258.72289 347.33184)" font-size="1" font-family="DINCond-Bold" font-weight="700">USB_D_P</text><rect x="118.09176" y="368.69517" width="12.33789" height="1.25" rx="0.625" fill="lime"/><rect x="118.09176" y="370.30025" width="12.33789" height="1.25" rx="0.625" fill="#a6ff00"/><text transform="translate(122.62552 369.65128)" font-size="1" font-family="DINCond-Bold" font-weight="700">USB_D_N</text><text transform="translate(122.64584 371.25517)" font-size="1" font-family="DINCond-Bold" font-weight="700">USB_D_P</text><rect x="210.40694" y="307.06642" width="12.33789" height="1.25" rx="0.625" fill="red"/><text transform="translate(214.86517 308.02245)" font-size="1" fill="#fff" font-family="DINCond-Bold" font-weight="700">VBAT 3.7V</text><rect x="203.05443" y="355.28421" width="12.33789" height="1.25" rx="0.625" fill="#f33"/><text transform="translate(206.75735 356.24023)" font-size="1" fill="#fff" font-family="DINCond-Bold" font-weight="700">VBUS_5V_OVP</text><rect x="172.94621" y="367.20582" width="12.33789" height="1.25" rx="0.625" fill="#f33"/><text transform="translate(176.62427 368.16214)" font-size="1" fill="#fff" font-family="DINCond-Bold" font-weight="700">VBUS_5V_CON</text><rect x="316.18302" y="359.13142" width="7.81525" height="1.25" rx="0.625" fill="red"/><text transform="translate(318.52255 360.08784)" font-size="1" fill="#fff" font-family="DINCond-Bold" font-weight="700">R5003 - 0</text><rect x="628.29445" y="368.61962" width="7.81485" height="1.25" rx="0.625" fill="lime"/><rect x="617.36766" y="379.10923" width="7.81485" height="1.25" rx="0.625" fill="#a6ff00"/><text transform="translate(630.31631 369.57594)" font-size="1" font-family="DINCond-Bold" font-weight="700">R6034 - 2.2</text><text transform="translate(619.38959 380.06496)" font-size="1" font-family="DINCond-Bold" font-weight="700">R6024 - 2.2</text><path d="M813.37317,521.30835l-.112-.194a49.194,49.194,0,0,0-42.60394-24.597H225.94482v99.163H770.43317a49.581,49.581,0,0,0,42.94-74.37195Z" fill="#ced1d2"/><path d="M177.61224,496.51733H73.96283a49.58154,49.58154,0,0,0,0,99.163h151.982v-99.163Z" fill="#292c31"/><line x1="225.94479" y1="521.30833" x2="813.37335" y2="521.30833" fill="none" stroke="#fff" stroke-miterlimit="10" stroke-width="0.26"/><line x1="225.94479" y1="546.0583" x2="820.01538" y2="546.0583" fill="none" stroke="#fff" stroke-miterlimit="10" stroke-width="0.26"/><line x1="225.94479" y1="570.89043" x2="813.37335" y2="570.89043" fill="none" stroke="#fff" stroke-miterlimit="10" stroke-width="0.26"/><text transform="translate(36.59717 551.04858)" font-size="17" fill="#fff" font-family="DINCond-Bold" font-weight="700">• ELECTRICAL COLOR LEGEND •</text><path d="M646.33008,42.5993a21.50121,21.50121,0,1,0-.45105-43H195.90109a21.50122,21.50122,0,1,0-.451,43Z" fill="#292c31"/><text transform="translate(251.57611 512.22192)" font-size="9" font-family="DINCond-Bold" font-weight="700">VBUS_5V_CON</text><text transform="translate(251.64202 537.01245)" font-size="9" font-family="DINCond-Bold" font-weight="700">V_BATTERY</text><path d="M241.41261,515.99941h-.00007a7.08667,7.08667,0,0,1-7.08658-7.08665h0a7.08663,7.08663,0,0,1,7.08658-7.08665h.00007a7.08661,7.08661,0,0,1,7.08658,7.08665h0A7.08665,7.08665,0,0,1,241.41261,515.99941Z" fill="#f33" fill-rule="evenodd"/><rect x="234.32596" y="526.61704" width="14.17323" height="14.17323" rx="7.08658" fill="red"/><text transform="translate(251.57611 561.80347)" font-size="9" font-family="DINCond-Bold" font-weight="700">USB_D_P</text><path d="M241.41261,565.5812h-.00007a7.08667,7.08667,0,0,1-7.08658-7.08665h0a7.08662,7.08662,0,0,1,7.08658-7.08665h.00007a7.08661,7.08661,0,0,1,7.08658,7.08665h0A7.08666,7.08666,0,0,1,241.41261,565.5812Z" fill="#a6ff00" fill-rule="evenodd"/><text transform="translate(251.57611 586.59448)" font-size="9" font-family="DINCond-Bold" font-weight="700">USB_D_N</text><path d="M241.41261,590.37213h-.00007a7.08667,7.08667,0,0,1-7.08658-7.08665h0a7.08662,7.08662,0,0,1,7.08658-7.08665h.00007a7.08661,7.08661,0,0,1,7.08658,7.08665h0A7.08666,7.08666,0,0,1,241.41261,590.37213Z" fill="lime" fill-rule="evenodd"/><text transform="translate(338.85059 26.15796)" font-size="16" fill="#fff" font-family="DINCond-Bold" font-weight="700">SAMSUNG SM-A105 &gt; <tspan x="117.10059" y="0" font-size="14">MICRO USB 2.0</tspan></text></svg>