<svg xmlns="http://www.w3.org/2000/svg" viewBox="0 0 841.89001 595.28003"><title>Network</title><path d="M813.37317,521.30835l-.112-.194a49.194,49.194,0,0,0-42.60394-24.597H225.94482v99.163H770.43317a49.581,49.581,0,0,0,42.94-74.37195Z" fill="#ced1d2"/><path d="M177.61224,496.51733H73.96283a49.58154,49.58154,0,0,0,0,99.163h151.982v-99.163Z" fill="#292c31"/><line x1="225.94479" y1="521.30833" x2="813.37335" y2="521.30833" fill="none" stroke="#fff" stroke-miterlimit="10" stroke-width="0.26"/><line x1="225.94479" y1="546.0583" x2="820.01538" y2="546.0583" fill="none" stroke="#fff" stroke-miterlimit="10" stroke-width="0.26"/><line x1="225.94479" y1="570.89043" x2="813.37335" y2="570.89043" fill="none" stroke="#fff" stroke-miterlimit="10" stroke-width="0.26"/><text transform="translate(36.59717 551.04858)" font-size="17" fill="#fff" font-family="DINCond-Bold" font-weight="700">• ELECTRICAL COLOR LEGEND •</text><path d="M646.33008,42.5993a21.50121,21.50121,0,1,0-.45105-43H195.90109a21.50122,21.50122,0,1,0-.451,43Z" fill="#292c31"/><rect x="14.58569" y="126.98706" width="812.71863" height="274.78445" fill="none"/><rect x="14.585" y="126.98703" width="812.71902" height="274.785" fill="none"/><path d="M227.23441,325.56424a.81151.81151,0,1,1-.812-.812.81194.81194,0,0,1,.812.812" fill="#c2c2c2" fill-rule="evenodd"/><path d="M229.9189,325.56424a.8115.8115,0,1,1-.812-.812.81194.81194,0,0,1,.812.812" fill="#c2c2c2" fill-rule="evenodd"/><path d="M232.603,325.56424a.8115.8115,0,1,1-.811-.812.81173.81173,0,0,1,.811.812" fill="#c2c2c2" fill-rule="evenodd"/><path d="M235.2876,325.56424a.8115.8115,0,1,1-.812-.812.81194.81194,0,0,1,.812.812" fill="#c2c2c2" fill-rule="evenodd"/><path d="M237.9722,325.56424a.8115.8115,0,1,1-.812-.812.81194.81194,0,0,1,.812.812" fill="#c2c2c2" fill-rule="evenodd"/><path d="M240.6562,325.56424a.8115.8115,0,1,1-.812-.812.81193.81193,0,0,1,.812.812" fill="#c2c2c2" fill-rule="evenodd"/><path d="M243.34081,325.56424a.81151.81151,0,1,1-.812-.812.81194.81194,0,0,1,.812.812" fill="#c2c2c2" fill-rule="evenodd"/><path d="M246.0249,325.56424a.8115.8115,0,1,1-.812-.812.81193.81193,0,0,1,.812.812" fill="#c2c2c2" fill-rule="evenodd"/><path d="M227.23441,328.24393a.81151.81151,0,1,1-.812-.812.81194.81194,0,0,1,.812.812" fill="#c2c2c2" fill-rule="evenodd"/><path d="M229.9189,328.24393a.8115.8115,0,1,1-.812-.812.81194.81194,0,0,1,.812.812" fill="#c2c2c2" fill-rule="evenodd"/><path d="M240.6562,328.24393a.8115.8115,0,1,1-.812-.812.81193.81193,0,0,1,.812.812" fill="#c2c2c2" fill-rule="evenodd"/><path d="M243.34081,328.24393a.81151.81151,0,1,1-.812-.812.81194.81194,0,0,1,.812.812" fill="#c2c2c2" fill-rule="evenodd"/><path d="M246.0249,328.24393a.8115.8115,0,1,1-.812-.812.81193.81193,0,0,1,.812.812" fill="#c2c2c2" fill-rule="evenodd"/><path d="M227.23441,330.92361a.81151.81151,0,1,1-.812-.812.812.812,0,0,1,.812.812" fill="#c2c2c2" fill-rule="evenodd"/><path d="M229.9189,330.92361a.8115.8115,0,1,1-.812-.812.81195.81195,0,0,1,.812.812" fill="#c2c2c2" fill-rule="evenodd"/><path d="M232.603,330.92361a.8115.8115,0,1,1-.811-.812.81174.81174,0,0,1,.811.812" fill="#c2c2c2" fill-rule="evenodd"/><path d="M235.2876,330.92361a.8115.8115,0,1,1-.812-.812.81195.81195,0,0,1,.812.812" fill="#c2c2c2" fill-rule="evenodd"/><path d="M237.9722,330.92361a.8115.8115,0,1,1-.812-.812.81195.81195,0,0,1,.812.812" fill="#c2c2c2" fill-rule="evenodd"/><path d="M240.6562,330.92361a.8115.8115,0,1,1-.812-.812.81194.81194,0,0,1,.812.812" fill="#c2c2c2" fill-rule="evenodd"/><path d="M243.34081,330.92361a.81151.81151,0,1,1-.812-.812.812.812,0,0,1,.812.812" fill="#c2c2c2" fill-rule="evenodd"/><path d="M246.0249,330.92361a.8115.8115,0,1,1-.812-.812.81194.81194,0,0,1,.812.812" fill="#c2c2c2" fill-rule="evenodd"/><path d="M232.603,333.60324a.8115.8115,0,1,1-.811-.812.81173.81173,0,0,1,.811.812" fill="#c2c2c2" fill-rule="evenodd"/><path d="M235.2876,333.60324a.8115.8115,0,1,1-.812-.812.81194.81194,0,0,1,.812.812" fill="#c2c2c2" fill-rule="evenodd"/><path d="M237.9722,333.60324a.8115.8115,0,1,1-.812-.812.81194.81194,0,0,1,.812.812" fill="#c2c2c2" fill-rule="evenodd"/><path d="M240.6562,333.60324a.8115.8115,0,1,1-.812-.812.81193.81193,0,0,1,.812.812" fill="#c2c2c2" fill-rule="evenodd"/><path d="M243.34081,333.60324a.81151.81151,0,1,1-.812-.812.81194.81194,0,0,1,.812.812" fill="#c2c2c2" fill-rule="evenodd"/><path d="M246.0249,333.60324a.8115.8115,0,1,1-.812-.812.81193.81193,0,0,1,.812.812" fill="#c2c2c2" fill-rule="evenodd"/><path d="M227.23441,336.28293a.81151.81151,0,1,1-.812-.812.81194.81194,0,0,1,.812.812" fill="#c2c2c2" fill-rule="evenodd"/><path d="M229.9189,336.28293a.8115.8115,0,1,1-.812-.812.81194.81194,0,0,1,.812.812" fill="#c2c2c2" fill-rule="evenodd"/><path d="M232.603,336.28293a.8115.8115,0,1,1-.811-.812.81173.81173,0,0,1,.811.812" fill="#c2c2c2" fill-rule="evenodd"/><path d="M235.2876,336.28293a.8115.8115,0,1,1-.812-.812.81194.81194,0,0,1,.812.812" fill="#c2c2c2" fill-rule="evenodd"/><path d="M237.9722,336.28293a.8115.8115,0,1,1-.812-.812.81194.81194,0,0,1,.812.812" fill="#c2c2c2" fill-rule="evenodd"/><path d="M240.6562,336.28293a.8115.8115,0,1,1-.812-.812.81193.81193,0,0,1,.812.812" fill="#c2c2c2" fill-rule="evenodd"/><path d="M243.34081,336.28293a.81151.81151,0,1,1-.812-.812.81194.81194,0,0,1,.812.812" fill="#c2c2c2" fill-rule="evenodd"/><path d="M246.0249,336.28293a.8115.8115,0,1,1-.812-.812.81193.81193,0,0,1,.812.812" fill="#c2c2c2" fill-rule="evenodd"/><path d="M227.23441,338.96262a.81151.81151,0,1,1-.812-.812.812.812,0,0,1,.812.812" fill="#c2c2c2" fill-rule="evenodd"/><path d="M229.9189,338.96262a.8115.8115,0,1,1-.812-.812.812.812,0,0,1,.812.812" fill="#c2c2c2" fill-rule="evenodd"/><path d="M232.603,338.96262a.8115.8115,0,1,1-.811-.812.81174.81174,0,0,1,.811.812" fill="#c2c2c2" fill-rule="evenodd"/><path d="M235.2876,338.96262a.8115.8115,0,1,1-.812-.812.812.812,0,0,1,.812.812" fill="#c2c2c2" fill-rule="evenodd"/><path d="M237.9722,338.96262a.8115.8115,0,1,1-.812-.812.812.812,0,0,1,.812.812" fill="#c2c2c2" fill-rule="evenodd"/><path d="M240.6562,338.96262a.8115.8115,0,1,1-.812-.812.81195.81195,0,0,1,.812.812" fill="#c2c2c2" fill-rule="evenodd"/><path d="M243.34081,338.96262a.81151.81151,0,1,1-.812-.812.812.812,0,0,1,.812.812" fill="#c2c2c2" fill-rule="evenodd"/><path d="M246.0249,338.96262a.8115.8115,0,1,1-.812-.812.81195.81195,0,0,1,.812.812" fill="#c2c2c2" fill-rule="evenodd"/><path d="M227.23441,341.64233a.81151.81151,0,1,1-.812-.812.812.812,0,0,1,.812.812" fill="#c2c2c2" fill-rule="evenodd"/><path d="M229.9189,341.64233a.8115.8115,0,1,1-.812-.812.812.812,0,0,1,.812.812" fill="#c2c2c2" fill-rule="evenodd"/><path d="M232.603,341.64233a.8115.8115,0,1,1-.811-.812.81174.81174,0,0,1,.811.812" fill="#c2c2c2" fill-rule="evenodd"/><path d="M235.2876,341.64233a.8115.8115,0,1,1-.812-.812.812.812,0,0,1,.812.812" fill="#c2c2c2" fill-rule="evenodd"/><path d="M237.9722,341.64233a.8115.8115,0,1,1-.812-.812.812.812,0,0,1,.812.812" fill="#c2c2c2" fill-rule="evenodd"/><path d="M240.6562,341.64233a.8115.8115,0,1,1-.812-.812.81195.81195,0,0,1,.812.812" fill="#c2c2c2" fill-rule="evenodd"/><path d="M243.34081,341.64233a.81151.81151,0,1,1-.812-.812.812.812,0,0,1,.812.812" fill="#c2c2c2" fill-rule="evenodd"/><path d="M246.0249,341.64233a.8115.8115,0,1,1-.812-.812.81195.81195,0,0,1,.812.812" fill="#c2c2c2" fill-rule="evenodd"/><path d="M227.23441,344.322a.81151.81151,0,1,1-.812-.812.812.812,0,0,1,.812.812" fill="#c2c2c2" fill-rule="evenodd"/><path d="M229.9189,344.322a.8115.8115,0,1,1-.812-.812.812.812,0,0,1,.812.812" fill="#c2c2c2" fill-rule="evenodd"/><path d="M232.603,344.322a.8115.8115,0,1,1-.811-.812.81174.81174,0,0,1,.811.812" fill="#c2c2c2" fill-rule="evenodd"/><path d="M235.2876,344.322a.8115.8115,0,1,1-.812-.812.812.812,0,0,1,.812.812" fill="#c2c2c2" fill-rule="evenodd"/><path d="M237.9722,344.322a.8115.8115,0,1,1-.812-.812.812.812,0,0,1,.812.812" fill="#c2c2c2" fill-rule="evenodd"/><path d="M240.6562,344.322a.8115.8115,0,1,1-.812-.812.81195.81195,0,0,1,.812.812" fill="#c2c2c2" fill-rule="evenodd"/><path d="M243.34081,344.322a.81151.81151,0,1,1-.812-.812.812.812,0,0,1,.812.812" fill="#c2c2c2" fill-rule="evenodd"/><path d="M246.0249,344.322a.8115.8115,0,1,1-.812-.812.81195.81195,0,0,1,.812.812" fill="#c2c2c2" fill-rule="evenodd"/><path d="M227.23441,347.00172a.81151.81151,0,1,1-.812-.812.812.812,0,0,1,.812.812" fill="#c2c2c2" fill-rule="evenodd"/><path d="M229.9189,347.00172a.8115.8115,0,1,1-.812-.812.812.812,0,0,1,.812.812" fill="#c2c2c2" fill-rule="evenodd"/><path d="M232.603,347.00172a.8115.8115,0,1,1-.811-.812.81174.81174,0,0,1,.811.812" fill="#c2c2c2" fill-rule="evenodd"/><path d="M235.2876,347.00172a.8115.8115,0,1,1-.812-.812.812.812,0,0,1,.812.812" fill="#c2c2c2" fill-rule="evenodd"/><path d="M237.9722,347.00172a.8115.8115,0,1,1-.812-.812.812.812,0,0,1,.812.812" fill="#c2c2c2" fill-rule="evenodd"/><path d="M240.6562,347.00172a.8115.8115,0,1,1-.812-.812.81195.81195,0,0,1,.812.812" fill="#c2c2c2" fill-rule="evenodd"/><path d="M243.34081,347.00172a.81151.81151,0,1,1-.812-.812.812.812,0,0,1,.812.812" fill="#c2c2c2" fill-rule="evenodd"/><path d="M246.0249,347.00172a.8115.8115,0,1,1-.812-.812.81195.81195,0,0,1,.812.812" fill="#c2c2c2" fill-rule="evenodd"/><path d="M120.4858,229.49582a.734.734,0,1,1-.734-.734.73447.73447,0,0,1,.734.734" fill="#c2c2c2" fill-rule="evenodd"/><path d="M122.9087,229.49582a.734.734,0,1,1-.734-.734.73447.73447,0,0,1,.734.734" fill="#c2c2c2" fill-rule="evenodd"/><path d="M125.3315,229.49582a.734.734,0,1,1-.734-.734.73448.73448,0,0,1,.734.734" fill="#c2c2c2" fill-rule="evenodd"/><path d="M127.7539,229.49582a.734.734,0,1,1-.734-.734.73447.73447,0,0,1,.734.734" fill="#c2c2c2" fill-rule="evenodd"/><path d="M130.1768,229.49582a.734.734,0,1,1-.734-.734.73448.73448,0,0,1,.734.734" fill="#c2c2c2" fill-rule="evenodd"/><path d="M132.59959,229.49582a.734.734,0,1,1-.734-.734.73448.73448,0,0,1,.734.734" fill="#c2c2c2" fill-rule="evenodd"/><path d="M135.022,229.49582a.734.734,0,1,1-.734-.734.73448.73448,0,0,1,.734.734" fill="#c2c2c2" fill-rule="evenodd"/><path d="M137.44479,229.49582a.734.734,0,1,1-.734-.734.73448.73448,0,0,1,.734.734" fill="#c2c2c2" fill-rule="evenodd"/><path d="M139.8672,229.49582a.734.734,0,1,1-.734-.734.73448.73448,0,0,1,.734.734" fill="#c2c2c2" fill-rule="evenodd"/><path d="M142.29,229.49582a.734.734,0,1,1-.734-.734.73448.73448,0,0,1,.734.734" fill="#c2c2c2" fill-rule="evenodd"/><path d="M144.71291,229.49582a.734.734,0,1,1-.734-.734.73448.73448,0,0,1,.734.734" fill="#c2c2c2" fill-rule="evenodd"/><path d="M147.1353,229.49582a.734.734,0,1,1-.734-.734.73448.73448,0,0,1,.734.734" fill="#c2c2c2" fill-rule="evenodd"/><path d="M149.55811,229.49582a.734.734,0,1,1-.734-.734.73448.73448,0,0,1,.734.734" fill="#c2c2c2" fill-rule="evenodd"/><path d="M151.981,229.49582a.734.734,0,1,1-.734-.734.73448.73448,0,0,1,.734.734" fill="#c2c2c2" fill-rule="evenodd"/><path d="M154.40331,229.49582a.734.734,0,1,1-.734-.734.73448.73448,0,0,1,.734.734" fill="#c2c2c2" fill-rule="evenodd"/><path d="M120.4858,231.91873a.734.734,0,1,1-.734-.734.73447.73447,0,0,1,.734.734" fill="#c2c2c2" fill-rule="evenodd"/><path d="M122.9087,231.91873a.734.734,0,1,1-.734-.734.73447.73447,0,0,1,.734.734" fill="#c2c2c2" fill-rule="evenodd"/><path d="M125.3315,231.91873a.734.734,0,1,1-.734-.734.73448.73448,0,0,1,.734.734" fill="#c2c2c2" fill-rule="evenodd"/><path d="M127.7539,231.91873a.734.734,0,1,1-.734-.734.73447.73447,0,0,1,.734.734" fill="#c2c2c2" fill-rule="evenodd"/><path d="M130.1768,231.91873a.734.734,0,1,1-.734-.734.73448.73448,0,0,1,.734.734" fill="#c2c2c2" fill-rule="evenodd"/><path d="M132.59959,231.91873a.734.734,0,1,1-.734-.734.73448.73448,0,0,1,.734.734" fill="#c2c2c2" fill-rule="evenodd"/><path d="M135.022,231.91873a.734.734,0,1,1-.734-.734.73448.73448,0,0,1,.734.734" fill="#c2c2c2" fill-rule="evenodd"/><path d="M137.44479,231.91873a.734.734,0,1,1-.734-.734.73448.73448,0,0,1,.734.734" fill="#c2c2c2" fill-rule="evenodd"/><path d="M139.8672,231.91873a.734.734,0,1,1-.734-.734.73448.73448,0,0,1,.734.734" fill="#c2c2c2" fill-rule="evenodd"/><path d="M142.29,231.91873a.734.734,0,1,1-.734-.734.73448.73448,0,0,1,.734.734" fill="#c2c2c2" fill-rule="evenodd"/><path d="M144.71291,231.91873a.734.734,0,1,1-.734-.734.73448.73448,0,0,1,.734.734" fill="#c2c2c2" fill-rule="evenodd"/><path d="M147.1353,231.91873a.734.734,0,1,1-.734-.734.73448.73448,0,0,1,.734.734" fill="#c2c2c2" fill-rule="evenodd"/><path d="M149.55811,231.91873a.734.734,0,1,1-.734-.734.73448.73448,0,0,1,.734.734" fill="#c2c2c2" fill-rule="evenodd"/><path d="M151.981,231.91873a.734.734,0,1,1-.734-.734.73448.73448,0,0,1,.734.734" fill="#c2c2c2" fill-rule="evenodd"/><path d="M154.40331,231.91873a.734.734,0,1,1-.734-.734.73448.73448,0,0,1,.734.734" fill="#c2c2c2" fill-rule="evenodd"/><path d="M120.4858,234.34152a.734.734,0,1,1-.734-.734.73447.73447,0,0,1,.734.734" fill="#c2c2c2" fill-rule="evenodd"/><path d="M122.9087,234.34152a.734.734,0,1,1-.734-.734.73447.73447,0,0,1,.734.734" fill="#c2c2c2" fill-rule="evenodd"/><path d="M125.3315,234.34152a.734.734,0,1,1-.734-.734.73448.73448,0,0,1,.734.734" fill="#c2c2c2" fill-rule="evenodd"/><path d="M127.7539,234.34152a.734.734,0,1,1-.734-.734.73447.73447,0,0,1,.734.734" fill="#c2c2c2" fill-rule="evenodd"/><path d="M130.1768,234.34152a.734.734,0,1,1-.734-.734.73448.73448,0,0,1,.734.734" fill="#c2c2c2" fill-rule="evenodd"/><path d="M132.59959,234.34152a.734.734,0,1,1-.734-.734.73448.73448,0,0,1,.734.734" fill="#c2c2c2" fill-rule="evenodd"/><path d="M135.022,234.34152a.734.734,0,1,1-.734-.734.73448.73448,0,0,1,.734.734" fill="#c2c2c2" fill-rule="evenodd"/><path d="M137.44479,234.34152a.734.734,0,1,1-.734-.734.73448.73448,0,0,1,.734.734" fill="#c2c2c2" fill-rule="evenodd"/><path d="M139.8672,234.34152a.734.734,0,1,1-.734-.734.73448.73448,0,0,1,.734.734" fill="#c2c2c2" fill-rule="evenodd"/><path d="M142.29,234.34152a.734.734,0,1,1-.734-.734.73448.73448,0,0,1,.734.734" fill="#c2c2c2" fill-rule="evenodd"/><path d="M144.71291,234.34152a.734.734,0,1,1-.734-.734.73448.73448,0,0,1,.734.734" fill="#c2c2c2" fill-rule="evenodd"/><path d="M147.1353,234.34152a.734.734,0,1,1-.734-.734.73448.73448,0,0,1,.734.734" fill="#c2c2c2" fill-rule="evenodd"/><path d="M149.55811,234.34152a.734.734,0,1,1-.734-.734.73448.73448,0,0,1,.734.734" fill="#c2c2c2" fill-rule="evenodd"/><path d="M151.981,234.34152a.734.734,0,1,1-.734-.734.73448.73448,0,0,1,.734.734" fill="#c2c2c2" fill-rule="evenodd"/><path d="M154.40331,234.34152a.734.734,0,1,1-.734-.734.73448.73448,0,0,1,.734.734" fill="#c2c2c2" fill-rule="evenodd"/><path d="M120.4858,236.76392a.734.734,0,1,1-.734-.734.73384.73384,0,0,1,.734.734" fill="#c2c2c2" fill-rule="evenodd"/><path d="M122.9087,236.76392a.734.734,0,1,1-.734-.734.73384.73384,0,0,1,.734.734" fill="#c2c2c2" fill-rule="evenodd"/><path d="M125.3315,236.76392a.734.734,0,1,1-.734-.734.73385.73385,0,0,1,.734.734" fill="#c2c2c2" fill-rule="evenodd"/><path d="M135.022,236.76392a.734.734,0,1,1-.734-.734.73385.73385,0,0,1,.734.734" fill="#c2c2c2" fill-rule="evenodd"/><path d="M137.44479,236.76392a.734.734,0,1,1-.734-.734.73385.73385,0,0,1,.734.734" fill="#c2c2c2" fill-rule="evenodd"/><path d="M139.8672,236.76392a.734.734,0,1,1-.734-.734.73385.73385,0,0,1,.734.734" fill="#c2c2c2" fill-rule="evenodd"/><path d="M142.29,236.76392a.734.734,0,1,1-.734-.734.73385.73385,0,0,1,.734.734" fill="#c2c2c2" fill-rule="evenodd"/><path d="M144.71291,236.76392a.734.734,0,1,1-.734-.734.73385.73385,0,0,1,.734.734" fill="#c2c2c2" fill-rule="evenodd"/><path d="M147.1353,236.76392a.734.734,0,1,1-.734-.734.73385.73385,0,0,1,.734.734" fill="#c2c2c2" fill-rule="evenodd"/><path d="M149.55811,236.76392a.734.734,0,1,1-.734-.734.73385.73385,0,0,1,.734.734" fill="#c2c2c2" fill-rule="evenodd"/><path d="M151.981,236.76392a.734.734,0,1,1-.734-.734.73385.73385,0,0,1,.734.734" fill="#c2c2c2" fill-rule="evenodd"/><path d="M154.40331,236.76392a.734.734,0,1,1-.734-.734.73385.73385,0,0,1,.734.734" fill="#c2c2c2" fill-rule="evenodd"/><path d="M120.4858,239.18674a.734.734,0,1,1-.734-.734.73447.73447,0,0,1,.734.734" fill="#c2c2c2" fill-rule="evenodd"/><path d="M122.9087,239.18674a.734.734,0,1,1-.734-.734.73447.73447,0,0,1,.734.734" fill="#c2c2c2" fill-rule="evenodd"/><path d="M125.3315,239.18674a.734.734,0,1,1-.734-.734.73448.73448,0,0,1,.734.734" fill="#c2c2c2" fill-rule="evenodd"/><path d="M127.7539,239.18674a.734.734,0,1,1-.734-.734.73447.73447,0,0,1,.734.734" fill="#c2c2c2" fill-rule="evenodd"/><path d="M132.59959,239.18674a.734.734,0,1,1-.734-.734.73448.73448,0,0,1,.734.734" fill="#c2c2c2" fill-rule="evenodd"/><path d="M135.022,239.18674a.734.734,0,1,1-.734-.734.73448.73448,0,0,1,.734.734" fill="#c2c2c2" fill-rule="evenodd"/><path d="M137.44479,239.18674a.734.734,0,1,1-.734-.734.73448.73448,0,0,1,.734.734" fill="#c2c2c2" fill-rule="evenodd"/><path d="M139.8672,239.18674a.734.734,0,1,1-.734-.734.73448.73448,0,0,1,.734.734" fill="#c2c2c2" fill-rule="evenodd"/><path d="M144.71291,239.18674a.734.734,0,1,1-.734-.734.73448.73448,0,0,1,.734.734" fill="#c2c2c2" fill-rule="evenodd"/><path d="M147.1353,239.18674a.734.734,0,1,1-.734-.734.73448.73448,0,0,1,.734.734" fill="#c2c2c2" fill-rule="evenodd"/><path d="M149.55811,239.18674a.734.734,0,1,1-.734-.734.73448.73448,0,0,1,.734.734" fill="#c2c2c2" fill-rule="evenodd"/><path d="M151.981,239.18674a.734.734,0,1,1-.734-.734.73448.73448,0,0,1,.734.734" fill="#c2c2c2" fill-rule="evenodd"/><path d="M154.40331,239.18674a.734.734,0,1,1-.734-.734.73448.73448,0,0,1,.734.734" fill="#c2c2c2" fill-rule="evenodd"/><path d="M120.4858,241.60962a.734.734,0,1,1-.734-.734.73447.73447,0,0,1,.734.734" fill="#c2c2c2" fill-rule="evenodd"/><path d="M122.9087,241.60962a.734.734,0,1,1-.734-.734.73447.73447,0,0,1,.734.734" fill="#c2c2c2" fill-rule="evenodd"/><path d="M125.3315,241.60962a.734.734,0,1,1-.734-.734.73448.73448,0,0,1,.734.734" fill="#c2c2c2" fill-rule="evenodd"/><path d="M149.55811,241.60962a.734.734,0,1,1-.734-.734.73448.73448,0,0,1,.734.734" fill="#c2c2c2" fill-rule="evenodd"/><path d="M151.981,241.60962a.734.734,0,1,1-.734-.734.73448.73448,0,0,1,.734.734" fill="#c2c2c2" fill-rule="evenodd"/><path d="M154.40331,241.60962a.734.734,0,1,1-.734-.734.73448.73448,0,0,1,.734.734" fill="#c2c2c2" fill-rule="evenodd"/><path d="M120.4858,244.03244a.734.734,0,1,1-.734-.734.73447.73447,0,0,1,.734.734" fill="#c2c2c2" fill-rule="evenodd"/><path d="M122.9087,244.03244a.734.734,0,1,1-.734-.734.73447.73447,0,0,1,.734.734" fill="#c2c2c2" fill-rule="evenodd"/><path d="M125.3315,244.03244a.734.734,0,1,1-.734-.734.73448.73448,0,0,1,.734.734" fill="#c2c2c2" fill-rule="evenodd"/><path d="M127.7539,244.03244a.734.734,0,1,1-.734-.734.73447.73447,0,0,1,.734.734" fill="#c2c2c2" fill-rule="evenodd"/><path d="M130.1768,244.03244a.734.734,0,1,1-.734-.734.73448.73448,0,0,1,.734.734" fill="#c2c2c2" fill-rule="evenodd"/><path d="M132.59959,244.03244a.734.734,0,1,1-.734-.734.73448.73448,0,0,1,.734.734" fill="#c2c2c2" fill-rule="evenodd"/><path d="M142.29,244.03244a.734.734,0,1,1-.734-.734.73448.73448,0,0,1,.734.734" fill="#c2c2c2" fill-rule="evenodd"/><path d="M144.71291,244.03244a.734.734,0,1,1-.734-.734.73448.73448,0,0,1,.734.734" fill="#c2c2c2" fill-rule="evenodd"/><path d="M147.1353,244.03244a.734.734,0,1,1-.734-.734.73448.73448,0,0,1,.734.734" fill="#c2c2c2" fill-rule="evenodd"/><path d="M149.55811,244.03244a.734.734,0,1,1-.734-.734.73448.73448,0,0,1,.734.734" fill="#c2c2c2" fill-rule="evenodd"/><path d="M151.981,244.03244a.734.734,0,1,1-.734-.734.73448.73448,0,0,1,.734.734" fill="#c2c2c2" fill-rule="evenodd"/><path d="M154.40331,244.03244a.734.734,0,1,1-.734-.734.73448.73448,0,0,1,.734.734" fill="#c2c2c2" fill-rule="evenodd"/><path d="M120.4858,246.45483a.734.734,0,1,1-.734-.734.73447.73447,0,0,1,.734.734" fill="#c2c2c2" fill-rule="evenodd"/><path d="M122.9087,246.45483a.734.734,0,1,1-.734-.734.73447.73447,0,0,1,.734.734" fill="#c2c2c2" fill-rule="evenodd"/><path d="M125.3315,246.45483a.734.734,0,1,1-.734-.734.73448.73448,0,0,1,.734.734" fill="#c2c2c2" fill-rule="evenodd"/><path d="M127.7539,246.45483a.734.734,0,1,1-.734-.734.73447.73447,0,0,1,.734.734" fill="#c2c2c2" fill-rule="evenodd"/><path d="M130.1768,246.45483a.734.734,0,1,1-.734-.734.73448.73448,0,0,1,.734.734" fill="#c2c2c2" fill-rule="evenodd"/><path d="M132.59959,246.45483a.734.734,0,1,1-.734-.734.73448.73448,0,0,1,.734.734" fill="#c2c2c2" fill-rule="evenodd"/><path d="M142.29,246.45483a.734.734,0,1,1-.734-.734.73448.73448,0,0,1,.734.734" fill="#c2c2c2" fill-rule="evenodd"/><path d="M144.71291,246.45483a.734.734,0,1,1-.734-.734.73448.73448,0,0,1,.734.734" fill="#c2c2c2" fill-rule="evenodd"/><path d="M147.1353,246.45483a.734.734,0,1,1-.734-.734.73448.73448,0,0,1,.734.734" fill="#c2c2c2" fill-rule="evenodd"/><path d="M149.55811,246.45483a.734.734,0,1,1-.734-.734.73448.73448,0,0,1,.734.734" fill="#c2c2c2" fill-rule="evenodd"/><path d="M151.981,246.45483a.734.734,0,1,1-.734-.734.73448.73448,0,0,1,.734.734" fill="#c2c2c2" fill-rule="evenodd"/><path d="M154.40331,246.45483a.734.734,0,1,1-.734-.734.73448.73448,0,0,1,.734.734" fill="#c2c2c2" fill-rule="evenodd"/><path d="M120.4858,248.87772a.734.734,0,1,1-.734-.734.73446.73446,0,0,1,.734.734" fill="#c2c2c2" fill-rule="evenodd"/><path d="M122.9087,248.87772a.734.734,0,1,1-.734-.734.73446.73446,0,0,1,.734.734" fill="#c2c2c2" fill-rule="evenodd"/><path d="M125.3315,248.87772a.734.734,0,1,1-.734-.734.73447.73447,0,0,1,.734.734" fill="#c2c2c2" fill-rule="evenodd"/><path d="M127.7539,248.87772a.734.734,0,1,1-.734-.734.73446.73446,0,0,1,.734.734" fill="#c2c2c2" fill-rule="evenodd"/><path d="M130.1768,248.87772a.734.734,0,1,1-.734-.734.73447.73447,0,0,1,.734.734" fill="#c2c2c2" fill-rule="evenodd"/><path d="M142.29,248.87772a.734.734,0,1,1-.734-.734.73447.73447,0,0,1,.734.734" fill="#c2c2c2" fill-rule="evenodd"/><path d="M147.1353,248.87772a.734.734,0,1,1-.734-.734.73447.73447,0,0,1,.734.734" fill="#c2c2c2" fill-rule="evenodd"/><path d="M149.55811,248.87772a.734.734,0,1,1-.734-.734.73447.73447,0,0,1,.734.734" fill="#c2c2c2" fill-rule="evenodd"/><path d="M151.981,248.87772a.734.734,0,1,1-.734-.734.73447.73447,0,0,1,.734.734" fill="#c2c2c2" fill-rule="evenodd"/><path d="M154.40331,248.87772a.734.734,0,1,1-.734-.734.73447.73447,0,0,1,.734.734" fill="#c2c2c2" fill-rule="evenodd"/><path d="M120.4858,251.30054a.734.734,0,1,1-.734-.734.73447.73447,0,0,1,.734.734" fill="#c2c2c2" fill-rule="evenodd"/><path d="M122.9087,251.30054a.734.734,0,1,1-.734-.734.73447.73447,0,0,1,.734.734" fill="#c2c2c2" fill-rule="evenodd"/><path d="M125.3315,251.30054a.734.734,0,1,1-.734-.734.73448.73448,0,0,1,.734.734" fill="#c2c2c2" fill-rule="evenodd"/><path d="M127.7539,251.30054a.734.734,0,1,1-.734-.734.73447.73447,0,0,1,.734.734" fill="#c2c2c2" fill-rule="evenodd"/><path d="M130.1768,251.30054a.734.734,0,1,1-.734-.734.73448.73448,0,0,1,.734.734" fill="#c2c2c2" fill-rule="evenodd"/><path d="M132.59959,251.30054a.734.734,0,1,1-.734-.734.73448.73448,0,0,1,.734.734" fill="#c2c2c2" fill-rule="evenodd"/><path d="M135.022,251.30054a.734.734,0,1,1-.734-.734.73448.73448,0,0,1,.734.734" fill="#c2c2c2" fill-rule="evenodd"/><path d="M142.29,251.30054a.734.734,0,1,1-.734-.734.73448.73448,0,0,1,.734.734" fill="#c2c2c2" fill-rule="evenodd"/><path d="M144.71291,251.30054a.734.734,0,1,1-.734-.734.73448.73448,0,0,1,.734.734" fill="#c2c2c2" fill-rule="evenodd"/><path d="M147.1353,251.30054a.734.734,0,1,1-.734-.734.73448.73448,0,0,1,.734.734" fill="#c2c2c2" fill-rule="evenodd"/><path d="M149.55811,251.30054a.734.734,0,1,1-.734-.734.73448.73448,0,0,1,.734.734" fill="#c2c2c2" fill-rule="evenodd"/><path d="M151.981,251.30054a.734.734,0,1,1-.734-.734.73448.73448,0,0,1,.734.734" fill="#c2c2c2" fill-rule="evenodd"/><path d="M154.40331,251.30054a.734.734,0,1,1-.734-.734.73448.73448,0,0,1,.734.734" fill="#c2c2c2" fill-rule="evenodd"/><path d="M120.4858,253.72293a.734.734,0,1,1-.734-.734.73384.73384,0,0,1,.734.734" fill="#c2c2c2" fill-rule="evenodd"/><path d="M122.9087,253.72293a.734.734,0,1,1-.734-.734.73384.73384,0,0,1,.734.734" fill="#c2c2c2" fill-rule="evenodd"/><path d="M125.3315,253.72293a.734.734,0,1,1-.734-.734.73385.73385,0,0,1,.734.734" fill="#c2c2c2" fill-rule="evenodd"/><path d="M127.7539,253.72293a.734.734,0,1,1-.734-.734.73384.73384,0,0,1,.734.734" fill="#c2c2c2" fill-rule="evenodd"/><path d="M130.1768,253.72293a.734.734,0,1,1-.734-.734.73385.73385,0,0,1,.734.734" fill="#c2c2c2" fill-rule="evenodd"/><path d="M132.59959,253.72293a.734.734,0,1,1-.734-.734.73385.73385,0,0,1,.734.734" fill="#c2c2c2" fill-rule="evenodd"/><path d="M142.29,253.72293a.734.734,0,1,1-.734-.734.73385.73385,0,0,1,.734.734" fill="#c2c2c2" fill-rule="evenodd"/><path d="M144.71291,253.72293a.734.734,0,1,1-.734-.734.73385.73385,0,0,1,.734.734" fill="#c2c2c2" fill-rule="evenodd"/><path d="M147.1353,253.72293a.734.734,0,1,1-.734-.734.73385.73385,0,0,1,.734.734" fill="#c2c2c2" fill-rule="evenodd"/><path d="M149.55811,253.72293a.734.734,0,1,1-.734-.734.73385.73385,0,0,1,.734.734" fill="#c2c2c2" fill-rule="evenodd"/><path d="M151.981,253.72293a.734.734,0,1,1-.734-.734.73385.73385,0,0,1,.734.734" fill="#c2c2c2" fill-rule="evenodd"/><path d="M154.40331,253.72293a.734.734,0,1,1-.734-.734.73385.73385,0,0,1,.734.734" fill="#c2c2c2" fill-rule="evenodd"/><path d="M120.4858,256.14572a.734.734,0,1,1-.734-.734.73447.73447,0,0,1,.734.734" fill="#c2c2c2" fill-rule="evenodd"/><path d="M122.9087,256.14572a.734.734,0,1,1-.734-.734.73447.73447,0,0,1,.734.734" fill="#c2c2c2" fill-rule="evenodd"/><path d="M125.3315,256.14572a.734.734,0,1,1-.734-.734.73448.73448,0,0,1,.734.734" fill="#c2c2c2" fill-rule="evenodd"/><path d="M127.7539,256.14572a.734.734,0,1,1-.734-.734.73447.73447,0,0,1,.734.734" fill="#c2c2c2" fill-rule="evenodd"/><path d="M130.1768,256.14572a.734.734,0,1,1-.734-.734.73448.73448,0,0,1,.734.734" fill="#c2c2c2" fill-rule="evenodd"/><path d="M132.59959,256.14572a.734.734,0,1,1-.734-.734.73448.73448,0,0,1,.734.734" fill="#c2c2c2" fill-rule="evenodd"/><path d="M139.8672,256.14572a.734.734,0,1,1-.734-.734.73448.73448,0,0,1,.734.734" fill="#c2c2c2" fill-rule="evenodd"/><path d="M142.29,256.14572a.734.734,0,1,1-.734-.734.73448.73448,0,0,1,.734.734" fill="#c2c2c2" fill-rule="evenodd"/><path d="M144.71291,256.14572a.734.734,0,1,1-.734-.734.73448.73448,0,0,1,.734.734" fill="#c2c2c2" fill-rule="evenodd"/><path d="M147.1353,256.14572a.734.734,0,1,1-.734-.734.73448.73448,0,0,1,.734.734" fill="#c2c2c2" fill-rule="evenodd"/><path d="M149.55811,256.14572a.734.734,0,1,1-.734-.734.73448.73448,0,0,1,.734.734" fill="#c2c2c2" fill-rule="evenodd"/><path d="M151.981,256.14572a.734.734,0,1,1-.734-.734.73448.73448,0,0,1,.734.734" fill="#c2c2c2" fill-rule="evenodd"/><path d="M154.40331,256.14572a.734.734,0,1,1-.734-.734.73448.73448,0,0,1,.734.734" fill="#c2c2c2" fill-rule="evenodd"/><path d="M120.4858,258.56863a.734.734,0,1,1-.734-.734.73447.73447,0,0,1,.734.734" fill="#c2c2c2" fill-rule="evenodd"/><path d="M122.9087,258.56863a.734.734,0,1,1-.734-.734.73447.73447,0,0,1,.734.734" fill="#c2c2c2" fill-rule="evenodd"/><path d="M125.3315,258.56863a.734.734,0,1,1-.734-.734.73448.73448,0,0,1,.734.734" fill="#c2c2c2" fill-rule="evenodd"/><path d="M127.7539,258.56863a.734.734,0,1,1-.734-.734.73447.73447,0,0,1,.734.734" fill="#c2c2c2" fill-rule="evenodd"/><path d="M130.1768,258.56863a.734.734,0,1,1-.734-.734.73448.73448,0,0,1,.734.734" fill="#c2c2c2" fill-rule="evenodd"/><path d="M132.59959,258.56863a.734.734,0,1,1-.734-.734.73448.73448,0,0,1,.734.734" fill="#c2c2c2" fill-rule="evenodd"/><path d="M135.022,258.56863a.734.734,0,1,1-.734-.734.73448.73448,0,0,1,.734.734" fill="#c2c2c2" fill-rule="evenodd"/><path d="M137.44479,258.56863a.734.734,0,1,1-.734-.734.73448.73448,0,0,1,.734.734" fill="#c2c2c2" fill-rule="evenodd"/><path d="M139.8672,258.56863a.734.734,0,1,1-.734-.734.73448.73448,0,0,1,.734.734" fill="#c2c2c2" fill-rule="evenodd"/><path d="M142.29,258.56863a.734.734,0,1,1-.734-.734.73448.73448,0,0,1,.734.734" fill="#c2c2c2" fill-rule="evenodd"/><path d="M144.71291,258.56863a.734.734,0,1,1-.734-.734.73448.73448,0,0,1,.734.734" fill="#c2c2c2" fill-rule="evenodd"/><path d="M147.1353,258.56863a.734.734,0,1,1-.734-.734.73448.73448,0,0,1,.734.734" fill="#c2c2c2" fill-rule="evenodd"/><path d="M149.55811,258.56863a.734.734,0,1,1-.734-.734.73448.73448,0,0,1,.734.734" fill="#c2c2c2" fill-rule="evenodd"/><path d="M151.981,258.56863a.734.734,0,1,1-.734-.734.73448.73448,0,0,1,.734.734" fill="#c2c2c2" fill-rule="evenodd"/><path d="M154.40331,258.56863a.734.734,0,1,1-.734-.734.73448.73448,0,0,1,.734.734" fill="#c2c2c2" fill-rule="evenodd"/><path d="M120.4858,260.99142a.734.734,0,1,1-.734-.734.73447.73447,0,0,1,.734.734" fill="#c2c2c2" fill-rule="evenodd"/><path d="M122.9087,260.99142a.734.734,0,1,1-.734-.734.73447.73447,0,0,1,.734.734" fill="#c2c2c2" fill-rule="evenodd"/><path d="M125.3315,260.99142a.734.734,0,1,1-.734-.734.73448.73448,0,0,1,.734.734" fill="#c2c2c2" fill-rule="evenodd"/><path d="M127.7539,260.99142a.734.734,0,1,1-.734-.734.73447.73447,0,0,1,.734.734" fill="#c2c2c2" fill-rule="evenodd"/><path d="M130.1768,260.99142a.734.734,0,1,1-.734-.734.73448.73448,0,0,1,.734.734" fill="#c2c2c2" fill-rule="evenodd"/><path d="M132.59959,260.99142a.734.734,0,1,1-.734-.734.73448.73448,0,0,1,.734.734" fill="#c2c2c2" fill-rule="evenodd"/><path d="M135.022,260.99142a.734.734,0,1,1-.734-.734.73448.73448,0,0,1,.734.734" fill="#c2c2c2" fill-rule="evenodd"/><path d="M137.44479,260.99142a.734.734,0,1,1-.734-.734.73448.73448,0,0,1,.734.734" fill="#c2c2c2" fill-rule="evenodd"/><path d="M139.8672,260.99142a.734.734,0,1,1-.734-.734.73448.73448,0,0,1,.734.734" fill="#c2c2c2" fill-rule="evenodd"/><path d="M142.29,260.99142a.734.734,0,1,1-.734-.734.73448.73448,0,0,1,.734.734" fill="#c2c2c2" fill-rule="evenodd"/><path d="M144.71291,260.99142a.734.734,0,1,1-.734-.734.73448.73448,0,0,1,.734.734" fill="#c2c2c2" fill-rule="evenodd"/><path d="M147.1353,260.99142a.734.734,0,1,1-.734-.734.73448.73448,0,0,1,.734.734" fill="#c2c2c2" fill-rule="evenodd"/><path d="M149.55811,260.99142a.734.734,0,1,1-.734-.734.73448.73448,0,0,1,.734.734" fill="#c2c2c2" fill-rule="evenodd"/><path d="M151.981,260.99142a.734.734,0,1,1-.734-.734.73448.73448,0,0,1,.734.734" fill="#c2c2c2" fill-rule="evenodd"/><path d="M154.40331,260.99142a.734.734,0,1,1-.734-.734.73448.73448,0,0,1,.734.734" fill="#c2c2c2" fill-rule="evenodd"/><path d="M120.4858,263.41382a.734.734,0,1,1-.734-.734.73447.73447,0,0,1,.734.734" fill="#c2c2c2" fill-rule="evenodd"/><path d="M122.9087,263.41382a.734.734,0,1,1-.734-.734.73447.73447,0,0,1,.734.734" fill="#c2c2c2" fill-rule="evenodd"/><path d="M125.3315,263.41382a.734.734,0,1,1-.734-.734.73448.73448,0,0,1,.734.734" fill="#c2c2c2" fill-rule="evenodd"/><path d="M127.7539,263.41382a.734.734,0,1,1-.734-.734.73447.73447,0,0,1,.734.734" fill="#c2c2c2" fill-rule="evenodd"/><path d="M130.1768,263.41382a.734.734,0,1,1-.734-.734.73448.73448,0,0,1,.734.734" fill="#c2c2c2" fill-rule="evenodd"/><path d="M132.59959,263.41382a.734.734,0,1,1-.734-.734.73448.73448,0,0,1,.734.734" fill="#c2c2c2" fill-rule="evenodd"/><path d="M135.022,263.41382a.734.734,0,1,1-.734-.734.73448.73448,0,0,1,.734.734" fill="#c2c2c2" fill-rule="evenodd"/><path d="M137.44479,263.41382a.734.734,0,1,1-.734-.734.73448.73448,0,0,1,.734.734" fill="#c2c2c2" fill-rule="evenodd"/><path d="M139.8672,263.41382a.734.734,0,1,1-.734-.734.73448.73448,0,0,1,.734.734" fill="#c2c2c2" fill-rule="evenodd"/><path d="M142.29,263.41382a.734.734,0,1,1-.734-.734.73448.73448,0,0,1,.734.734" fill="#c2c2c2" fill-rule="evenodd"/><path d="M144.71291,263.41382a.734.734,0,1,1-.734-.734.73448.73448,0,0,1,.734.734" fill="#c2c2c2" fill-rule="evenodd"/><path d="M147.1353,263.41382a.734.734,0,1,1-.734-.734.73448.73448,0,0,1,.734.734" fill="#c2c2c2" fill-rule="evenodd"/><path d="M149.55811,263.41382a.734.734,0,1,1-.734-.734.73448.73448,0,0,1,.734.734" fill="#c2c2c2" fill-rule="evenodd"/><path d="M151.981,263.41382a.734.734,0,1,1-.734-.734.73448.73448,0,0,1,.734.734" fill="#c2c2c2" fill-rule="evenodd"/><path d="M154.40331,263.41382a.734.734,0,1,1-.734-.734.73448.73448,0,0,1,.734.734" fill="#c2c2c2" fill-rule="evenodd"/><rect x="329.26401" y="251.82901" width="1.23401" height="2.11401" fill="#c2c2c2"/><rect x="326.79599" y="251.82901" width="1.23401" height="2.11401" fill="#c2c2c2"/><rect x="324.32901" y="251.82901" width="1.23401" height="2.11401" fill="#c2c2c2"/><rect x="321.85999" y="251.82901" width="1.23401" height="2.11401" fill="#c2c2c2"/><rect x="319.39301" y="251.82901" width="1.23401" height="2.11401" fill="#c2c2c2"/><rect x="316.92499" y="251.82901" width="1.233" height="2.11401" fill="#c2c2c2"/><rect x="314.681" y="251.82901" width="1.233" height="2.11401" fill="#c2c2c2"/><rect x="331.508" y="251.82901" width="1.23401" height="2.11401" fill="#c2c2c2"/><rect x="333.75101" y="251.82901" width="1.23401" height="2.11401" fill="#c2c2c2"/><rect x="312.43701" y="251.82901" width="1.233" height="2.11401" fill="#c2c2c2"/><rect x="329.26401" y="290.51202" width="1.23401" height="2.11401" fill="#c2c2c2"/><rect x="326.79599" y="290.51202" width="1.23401" height="2.11401" fill="#c2c2c2"/><rect x="324.32901" y="290.51202" width="1.23401" height="2.11401" fill="#c2c2c2"/><rect x="321.85999" y="290.51202" width="1.23401" height="2.11401" fill="#c2c2c2"/><rect x="319.39301" y="290.51202" width="1.23401" height="2.11401" fill="#c2c2c2"/><rect x="316.92499" y="290.51202" width="1.233" height="2.11401" fill="#c2c2c2"/><rect x="314.681" y="290.51202" width="1.233" height="2.11401" fill="#c2c2c2"/><rect x="331.508" y="290.51202" width="1.23401" height="2.11401" fill="#c2c2c2"/><rect x="333.75101" y="290.51202" width="1.23401" height="2.11401" fill="#c2c2c2"/><rect x="312.43701" y="290.51202" width="1.233" height="2.11401" fill="#c2c2c2"/><rect x="333.71301" y="281.37802" width="2.22699" height="1.526" fill="#c2c2c2"/><rect x="333.71301" y="278.93204" width="2.22699" height="1.526" fill="#c2c2c2"/><rect x="333.71301" y="276.48703" width="2.22699" height="1.526" fill="#c2c2c2"/><rect x="333.71301" y="274.04102" width="2.22699" height="1.52701" fill="#c2c2c2"/><rect x="333.71301" y="271.59702" width="2.22699" height="1.526" fill="#c2c2c2"/><rect x="333.71301" y="269.15103" width="2.22699" height="1.52701" fill="#c2c2c2"/><rect x="333.71301" y="266.70602" width="2.22699" height="1.526" fill="#c2c2c2"/><polyline points="333.713 264.26 333.713 265.787 335.94 265.788 335.94 264.26" fill="#c2c2c2"/><rect x="333.71301" y="261.81503" width="2.22699" height="1.526" fill="#c2c2c2"/><rect x="333.71301" y="259.37003" width="2.22699" height="1.52701" fill="#c2c2c2"/><rect x="333.71301" y="257.00201" width="2.22699" height="1.526" fill="#c2c2c2"/><rect x="333.71301" y="254.63303" width="2.22699" height="1.526" fill="#c2c2c2"/><rect x="333.71301" y="283.82202" width="2.22699" height="1.526" fill="#c2c2c2"/><rect x="333.71301" y="286.26703" width="2.22699" height="1.526" fill="#c2c2c2"/><rect x="333.71301" y="288.50003" width="2.22699" height="1.526" fill="#c2c2c2"/><rect x="311.44" y="281.37802" width="2.228" height="1.526" fill="#c2c2c2"/><rect x="311.44" y="278.93204" width="2.228" height="1.526" fill="#c2c2c2"/><rect x="311.44" y="276.48703" width="2.228" height="1.526" fill="#c2c2c2"/><rect x="311.44" y="274.04102" width="2.228" height="1.52701" fill="#c2c2c2"/><rect x="311.44" y="271.59702" width="2.228" height="1.526" fill="#c2c2c2"/><rect x="311.44" y="269.15103" width="2.228" height="1.52701" fill="#c2c2c2"/><rect x="311.44" y="266.70602" width="2.228" height="1.526" fill="#c2c2c2"/><polyline points="311.44 264.26 311.44 265.787 313.669 265.788 313.669 264.26" fill="#c2c2c2"/><rect x="311.44" y="261.81503" width="2.228" height="1.526" fill="#c2c2c2"/><rect x="311.44" y="259.37003" width="2.228" height="1.52701" fill="#c2c2c2"/><rect x="311.44" y="257.00201" width="2.228" height="1.526" fill="#c2c2c2"/><rect x="311.44" y="254.63303" width="2.228" height="1.526" fill="#c2c2c2"/><rect x="311.44" y="283.82202" width="2.228" height="1.526" fill="#c2c2c2"/><rect x="311.44" y="286.26703" width="2.228" height="1.526" fill="#c2c2c2"/><rect x="311.44" y="288.50003" width="2.228" height="1.526" fill="#c2c2c2"/><polyline points="381.839 302.233 381.839 303.687 385.031 303.687 385.031 302.233" fill="#c2c2c2"/><rect x="381.83899" y="299.32501" width="3.19299" height="1.45401" fill="#c2c2c2"/><rect x="381.83899" y="296.41602" width="3.19299" height="1.45401" fill="#c2c2c2"/><rect x="381.83899" y="293.50803" width="3.19299" height="1.45401" fill="#c2c2c2"/><rect x="381.83899" y="290.60001" width="3.19299" height="1.45401" fill="#c2c2c2"/><rect x="381.83899" y="287.69104" width="3.19299" height="1.45499" fill="#c2c2c2"/><rect x="381.83899" y="284.32004" width="3.19299" height="1.91699" fill="#c2c2c2"/><rect x="381.83899" y="281.41101" width="3.19299" height="1.45401" fill="#c2c2c2"/><rect x="381.83899" y="278.50305" width="3.194" height="1.45499" fill="#c2c2c2"/><rect x="381.83899" y="275.59503" width="3.194" height="1.45401" fill="#c2c2c2"/><rect x="381.83899" y="272.68604" width="3.194" height="1.45499" fill="#c2c2c2"/><rect x="381.83899" y="269.77902" width="3.194" height="1.45401" fill="#c2c2c2"/><rect x="381.83899" y="266.87003" width="3.194" height="1.45401" fill="#c2c2c2"/><rect x="381.83899" y="263.50003" width="3.194" height="1.91599" fill="#c2c2c2"/><rect x="378.582" y="262.85803" width="1.40601" height="3.04901" fill="#c2c2c2"/><rect x="375.772" y="262.85803" width="1.40399" height="3.04901" fill="#c2c2c2"/><rect x="372.961" y="262.85803" width="1.40601" height="3.04901" fill="#c2c2c2"/><rect x="370.15302" y="262.85803" width="1.40399" height="3.04901" fill="#c2c2c2"/><rect x="367.34201" y="262.85803" width="1.405" height="3.04901" fill="#c2c2c2"/><rect x="364.53201" y="262.85803" width="1.405" height="3.04901" fill="#c2c2c2"/><rect x="364.53201" y="301.27802" width="1.405" height="3.04901" fill="#c2c2c2"/><rect x="367.34201" y="301.27802" width="1.405" height="3.04901" fill="#c2c2c2"/><rect x="370.15201" y="301.27802" width="1.405" height="3.04901" fill="#c2c2c2"/><rect x="372.961" y="301.27802" width="1.405" height="3.04901" fill="#c2c2c2"/><rect x="375.772" y="301.27802" width="1.40399" height="3.04901" fill="#c2c2c2"/><rect x="378.582" y="301.27802" width="1.40601" height="3.04901" fill="#c2c2c2"/><polyline points="359.935 302.233 359.935 303.687 363.128 303.687 363.128 302.233" fill="#c2c2c2"/><rect x="359.935" y="299.32501" width="3.19299" height="1.45401" fill="#c2c2c2"/><rect x="359.935" y="296.41602" width="3.19299" height="1.45401" fill="#c2c2c2"/><rect x="359.935" y="293.50803" width="3.19299" height="1.45401" fill="#c2c2c2"/><rect x="359.935" y="290.60001" width="3.19299" height="1.45401" fill="#c2c2c2"/><rect x="359.935" y="287.69104" width="3.19299" height="1.45499" fill="#c2c2c2"/><rect x="359.935" y="284.32004" width="3.19299" height="1.91699" fill="#c2c2c2"/><rect x="359.935" y="281.41101" width="3.19299" height="1.45401" fill="#c2c2c2"/><rect x="359.935" y="278.50305" width="3.194" height="1.45499" fill="#c2c2c2"/><rect x="359.935" y="275.59503" width="3.194" height="1.45401" fill="#c2c2c2"/><rect x="359.935" y="272.68604" width="3.194" height="1.45499" fill="#c2c2c2"/><rect x="359.935" y="269.77902" width="3.194" height="1.45401" fill="#c2c2c2"/><rect x="359.935" y="266.87003" width="3.194" height="1.45401" fill="#c2c2c2"/><rect x="359.935" y="263.50003" width="3.194" height="1.91599" fill="#c2c2c2"/><path d="M294.26559,270.18924a.9.9,0,1,1-.9-.901.90009.90009,0,0,1,.9.901" fill="#c2c2c2"/><path d="M297.8667,270.18924a.9.9,0,1,1-.9-.901.9001.9001,0,0,1,.9.901" fill="#c2c2c2"/><path d="M290.66461,270.18924a.9.9,0,1,1-.9-.901.90009.90009,0,0,1,.9.901" fill="#c2c2c2"/><path d="M283.4624,270.18924a.9.9,0,1,1-.9-.901.90009.90009,0,0,1,.9.901" fill="#c2c2c2"/><path d="M287.06351,270.18924a.9.9,0,1,1-.9-.901.9001.9001,0,0,1,.9.901" fill="#c2c2c2"/><path d="M279.86179,270.18924a.9.9,0,1,1-.9-.901.9001.9001,0,0,1,.9.901" fill="#c2c2c2"/><path d="M276.26071,270.18924a.90051.90051,0,1,1-.9-.901.90009.90009,0,0,1,.9.901" fill="#c2c2c2"/><path d="M292.46579,268.38794a.90052.90052,0,1,1-.901-.9.90031.90031,0,0,1,.901.9" fill="#c2c2c2"/><path d="M296.06641,268.38794a.90052.90052,0,1,1-.901-.9.90031.90031,0,0,1,.901.9" fill="#c2c2c2"/><path d="M285.2637,268.38794a.90051.90051,0,1,1-.901-.9.90095.90095,0,0,1,.901.9" fill="#c2c2c2"/><path d="M288.86469,268.38794a.90052.90052,0,1,1-.901-.9.90031.90031,0,0,1,.901.9" fill="#c2c2c2"/><path d="M281.6626,268.38794a.90052.90052,0,1,1-.901-.9.90031.90031,0,0,1,.901.9" fill="#c2c2c2"/><path d="M278.06149,268.38794a.90051.90051,0,1,1-.901-.9.90095.90095,0,0,1,.901.9" fill="#c2c2c2"/><path d="M292.46579,275.591a.90052.90052,0,1,1-.901-.901.90032.90032,0,0,1,.901.901" fill="#c2c2c2"/><path d="M296.06641,275.591a.90052.90052,0,1,1-.9-.901.90011.90011,0,0,1,.9.901" fill="#c2c2c2"/><path d="M285.2637,275.591a.90051.90051,0,1,1-.901-.901.901.901,0,0,1,.901.901" fill="#c2c2c2"/><path d="M288.86469,275.591a.90052.90052,0,1,1-.901-.901.90032.90032,0,0,1,.901.901" fill="#c2c2c2"/><path d="M281.6626,275.591a.90052.90052,0,1,1-.901-.901.90032.90032,0,0,1,.901.901" fill="#c2c2c2"/><path d="M281.6626,279.19263a.90052.90052,0,1,1-.901-.901.90031.90031,0,0,1,.901.901" fill="#c2c2c2"/><path d="M278.06149,275.591a.90051.90051,0,1,1-.901-.901.901.901,0,0,1,.901.901" fill="#c2c2c2"/><path d="M294.26559,277.39133a.9.9,0,1,1-.9-.9.90093.90093,0,0,1,.9.9" fill="#c2c2c2"/><path d="M297.8667,277.39133a.9.9,0,1,1-.9-.9.90094.90094,0,0,1,.9.9" fill="#c2c2c2"/><path d="M287.06351,277.39133a.9.9,0,1,1-.9-.9.90094.90094,0,0,1,.9.9" fill="#c2c2c2"/><path d="M290.66461,277.39133a.9.9,0,1,1-.9-.9.90093.90093,0,0,1,.9.9" fill="#c2c2c2"/><path d="M283.4624,277.39133a.9.9,0,1,1-.9-.9.90093.90093,0,0,1,.9.9" fill="#c2c2c2"/><path d="M279.86179,277.39133a.9.9,0,1,1-.9-.9.90094.90094,0,0,1,.9.9" fill="#c2c2c2"/><path d="M276.26071,277.39133a.90051.90051,0,1,1-.9-.9.90093.90093,0,0,1,.9.9" fill="#c2c2c2"/><path d="M292.46579,279.19214a.90052.90052,0,1,1-.901-.9.90031.90031,0,0,1,.901.9" fill="#c2c2c2"/><path d="M296.06641,279.19214a.90052.90052,0,1,1-.9-.9.9001.9001,0,0,1,.9.9" fill="#c2c2c2"/><path d="M285.2637,279.19214a.90051.90051,0,1,1-.901-.9.90095.90095,0,0,1,.901.9" fill="#c2c2c2"/><path d="M288.86469,279.19214a.90052.90052,0,1,1-.901-.9.90031.90031,0,0,1,.901.9" fill="#c2c2c2"/><path d="M278.06149,279.19214a.90051.90051,0,1,1-.901-.9.90095.90095,0,0,1,.901.9" fill="#c2c2c2"/><path d="M294.26559,280.99292a.9.9,0,1,1-.9-.901.90009.90009,0,0,1,.9.901" fill="#c2c2c2"/><path d="M297.8667,280.99292a.9.9,0,1,1-.9-.901.9001.9001,0,0,1,.9.901" fill="#c2c2c2"/><path d="M287.06351,280.99292a.9.9,0,1,1-.9-.901.9001.9001,0,0,1,.9.901" fill="#c2c2c2"/><path d="M290.66461,280.99292a.9.9,0,1,1-.9-.901.90009.90009,0,0,1,.9.901" fill="#c2c2c2"/><path d="M283.4624,280.99292a.9.9,0,1,1-.9-.901.90009.90009,0,0,1,.9.901" fill="#c2c2c2"/><path d="M279.86179,280.99292a.9.9,0,1,1-.9-.901.9001.9001,0,0,1,.9.901" fill="#c2c2c2"/><path d="M276.26071,280.99292a.90051.90051,0,1,1-.9-.901.90009.90009,0,0,1,.9.901" fill="#c2c2c2"/><path d="M292.46579,282.79324a.90052.90052,0,1,1-.901-.9.9005.9005,0,0,1,.901.9" fill="#c2c2c2"/><path d="M296.06641,282.79324a.90052.90052,0,1,1-.9-.9.90029.90029,0,0,1,.9.9" fill="#c2c2c2"/><path d="M288.86469,282.79324a.90052.90052,0,1,1-.901-.9.9005.9005,0,0,1,.901.9" fill="#c2c2c2"/><path d="M281.6626,282.79324a.90052.90052,0,1,1-.901-.9.9005.9005,0,0,1,.901.9" fill="#c2c2c2"/><path d="M285.2637,282.79324a.90051.90051,0,1,1-.901-.9.90049.90049,0,0,1,.901.9" fill="#c2c2c2"/><path d="M278.06149,282.79324a.90051.90051,0,1,1-.901-.9.90114.90114,0,0,1,.901.9" fill="#c2c2c2"/><path d="M294.26559,284.594a.9.9,0,1,1-.9-.9.90094.90094,0,0,1,.9.9" fill="#c2c2c2"/><path d="M297.83591,284.594a.9.9,0,1,1-.9-.9.90095.90095,0,0,1,.9.9" fill="#c2c2c2"/><path d="M287.06351,284.594a.9.9,0,1,1-.9-.9.90095.90095,0,0,1,.9.9" fill="#c2c2c2"/><path d="M290.66461,284.594a.9.9,0,1,1-.9-.9.90094.90094,0,0,1,.9.9" fill="#c2c2c2"/><path d="M283.4624,284.594a.9.9,0,1,1-.9-.9.90094.90094,0,0,1,.9.9" fill="#c2c2c2"/><path d="M279.86179,284.594a.9.9,0,1,1-.9-.9.90095.90095,0,0,1,.9.9" fill="#c2c2c2"/><path d="M276.229,284.594a.9.9,0,1,1-.9-.9.90094.90094,0,0,1,.9.9" fill="#c2c2c2"/><path d="M292.46579,286.39523a.90052.90052,0,1,1-.901-.9.90032.90032,0,0,1,.901.9" fill="#c2c2c2"/><path d="M296.06641,286.39523a.90052.90052,0,1,1-.9-.9.90011.90011,0,0,1,.9.9" fill="#c2c2c2"/><path d="M285.2637,286.39523a.90051.90051,0,1,1-.901-.9.901.901,0,0,1,.901.9" fill="#c2c2c2"/><path d="M288.86469,286.39523a.90052.90052,0,1,1-.901-.9.90032.90032,0,0,1,.901.9" fill="#c2c2c2"/><path d="M281.6626,286.39523a.90052.90052,0,1,1-.901-.9.90032.90032,0,0,1,.901.9" fill="#c2c2c2"/><path d="M278.06149,286.39523a.90051.90051,0,1,1-.901-.9.901.901,0,0,1,.901.9" fill="#c2c2c2"/><path d="M294.26559,288.195a.9.9,0,1,1-.9-.9.90029.90029,0,0,1,.9.9" fill="#c2c2c2"/><path d="M297.8667,288.195a.9.9,0,1,1-.9-.9.9003.9003,0,0,1,.9.9" fill="#c2c2c2"/><path d="M287.06351,288.195a.9.9,0,1,1-.9-.9.9003.9003,0,0,1,.9.9" fill="#c2c2c2"/><path d="M290.66461,288.195a.9.9,0,1,1-.9-.9.90029.90029,0,0,1,.9.9" fill="#c2c2c2"/><path d="M283.4624,288.195a.9.9,0,1,1-.9-.9.90029.90029,0,0,1,.9.9" fill="#c2c2c2"/><path d="M279.86179,288.195a.9.9,0,1,1-.9-.9.9003.9003,0,0,1,.9.9" fill="#c2c2c2"/><path d="M276.26071,288.195a.90051.90051,0,1,1-.9-.9.90029.90029,0,0,1,.9.9" fill="#c2c2c2"/><path d="M296.4888,289.926a.97051.97051,0,1,1-.971-.971.97136.97136,0,0,1,.971.971" fill="#c2c2c2"/><path d="M285.2637,289.99634a.90051.90051,0,1,1-.901-.9.90179.90179,0,0,1,.901.9" fill="#c2c2c2"/><path d="M288.86469,289.99634a.90052.90052,0,1,1-.901-.9.90115.90115,0,0,1,.901.9" fill="#c2c2c2"/><path d="M281.6626,289.99634a.90052.90052,0,1,1-.901-.9.90115.90115,0,0,1,.901.9" fill="#c2c2c2"/><path d="M294.26559,291.79712a.9.9,0,1,1-.9-.9.90009.90009,0,0,1,.9.9" fill="#c2c2c2"/><path d="M297.8667,291.79712a.9.9,0,1,1-.9-.9.9001.9001,0,0,1,.9.9" fill="#c2c2c2"/><path d="M287.06351,291.79712a.9.9,0,1,1-.9-.9.9001.9001,0,0,1,.9.9" fill="#c2c2c2"/><path d="M290.66461,291.79712a.9.9,0,1,1-.9-.9.90009.90009,0,0,1,.9.9" fill="#c2c2c2"/><path d="M283.4624,291.79712a.9.9,0,1,1-.9-.9.90009.90009,0,0,1,.9.9" fill="#c2c2c2"/><path d="M279.86179,291.79712a.9.9,0,1,1-.9-.9.9001.9001,0,0,1,.9.9" fill="#c2c2c2"/><path d="M276.26071,291.79712a.90051.90051,0,1,1-.9-.9.9006.9006,0,0,1,.9.9" fill="#c2c2c2"/><polyline points="275.821 266.167 273.18 266.167 273.18 268.808 273.861 268.808 273.861 266.848 275.821 266.848" fill="#c2c2c2"/><path d="M292.46579,271.989a.90052.90052,0,1,1-.901-.9.90032.90032,0,0,1,.901.9" fill="#c2c2c2"/><path d="M296.06641,271.989a.90052.90052,0,1,1-.9-.9.90011.90011,0,0,1,.9.9" fill="#c2c2c2"/><path d="M285.2637,271.989a.90051.90051,0,1,1-.901-.9.901.901,0,0,1,.901.9" fill="#c2c2c2"/><path d="M288.86469,271.989a.90052.90052,0,1,1-.901-.9.90032.90032,0,0,1,.901.9" fill="#c2c2c2"/><path d="M281.6626,271.989a.90052.90052,0,1,1-.901-.9.90032.90032,0,0,1,.901.9" fill="#c2c2c2"/><path d="M278.06149,271.989a.90051.90051,0,1,1-.901-.9.901.901,0,0,1,.901.9" fill="#c2c2c2"/><path d="M294.26559,273.79034a.9.9,0,1,1-.9-.901.9001.9001,0,0,1,.9.901" fill="#c2c2c2"/><path d="M297.8667,273.79034a.9.9,0,1,1-.9-.901.90011.90011,0,0,1,.9.901" fill="#c2c2c2"/><path d="M287.06351,273.79034a.9.9,0,1,1-.9-.901.90011.90011,0,0,1,.9.901" fill="#c2c2c2"/><path d="M290.66461,273.79034a.9.9,0,1,1-.9-.901.9001.9001,0,0,1,.9.901" fill="#c2c2c2"/><path d="M283.4624,273.79034a.9.9,0,1,1-.9-.901.9001.9001,0,0,1,.9.901" fill="#c2c2c2"/><path d="M279.86179,273.79034a.9.9,0,1,1-.9-.901.90011.90011,0,0,1,.9.901" fill="#c2c2c2"/><path d="M276.26071,273.79034a.90051.90051,0,1,1-.9-.901.9001.9001,0,0,1,.9.901" fill="#c2c2c2"/><path d="M292.46579,289.99634a.90052.90052,0,1,1-.901-.901.90031.90031,0,0,1,.901.901" fill="#c2c2c2"/><path d="M411.5957,263.11154a.85546.85546,0,0,0-.84-.839.83526.83526,0,0,0-.84.839.85636.85636,0,0,0,.84.84.87855.87855,0,0,0,.84-.84" fill="lime"/><path d="M372.9072,248.29422a.857.857,0,0,0-.84-.84.837.837,0,0,0-.841.84.85791.85791,0,0,0,.841.84.88.88,0,0,0,.84-.84" fill="lime"/><path d="M370.0015,248.29422a.857.857,0,0,0-.84-.84.837.837,0,0,0-.841.84.85791.85791,0,0,0,.841.84.88.88,0,0,0,.84-.84" fill="lime"/><path d="M367.332,248.29422a.857.857,0,0,0-.84-.84.837.837,0,0,0-.841.84.85791.85791,0,0,0,.841.84.88.88,0,0,0,.84-.84" fill="lime"/><path d="M364.61819,248.29422a.85617.85617,0,0,0-.839-.84.83633.83633,0,0,0-.841.84.85722.85722,0,0,0,.841.84.87911.87911,0,0,0,.839-.84" fill="lime"/><path d="M361.90579,248.29422a.857.857,0,0,0-.84-.84.837.837,0,0,0-.841.84.85792.85792,0,0,0,.841.84.88.88,0,0,0,.84-.84" fill="lime"/><path d="M359.32761,248.29422a.857.857,0,0,0-.84-.84.837.837,0,0,0-.841.84.85791.85791,0,0,0,.841.84.88.88,0,0,0,.84-.84" fill="lime"/><path d="M333.2666,248.29422a.857.857,0,0,0-.84-.84.837.837,0,0,0-.841.84.85791.85791,0,0,0,.841.84.88.88,0,0,0,.84-.84" fill="lime"/><path d="M330.4736,248.29422a.857.857,0,0,0-.84-.84.837.837,0,0,0-.841.84.85792.85792,0,0,0,.841.84.88.88,0,0,0,.84-.84" fill="lime"/><path d="M328.25391,248.29422a.857.857,0,0,0-.84-.84.837.837,0,0,0-.841.84.85791.85791,0,0,0,.841.84.88.88,0,0,0,.84-.84" fill="lime"/><path d="M352.3447,248.29422a.857.857,0,0,0-.84-.84.837.837,0,0,0-.841.84.85791.85791,0,0,0,.841.84.88.88,0,0,0,.84-.84" fill="lime"/><text transform="translate(351.19043 248.66089)" font-size="1.149" fill="#1d1819" font-family="DINCond-Bold" font-weight="700">1</text><polyline points="410.755 263.112 410.755 248.295 372.067 248.295" fill="none" stroke="lime" stroke-miterlimit="22.926" stroke-width="0.567"/><line x1="366.49121" y1="248.29422" x2="351.40518" y2="248.29422" fill="none" stroke="lime" stroke-miterlimit="22.926" stroke-width="0.567"/><polyline points="344.556 248.294 327.413 248.294 327.413 252.886" fill="none" stroke="lime" stroke-miterlimit="22.926" stroke-width="0.567"/><path d="M384.2095,249.36353h10.871a1.078,1.078,0,1,0,0-2.156h-10.871a1.078,1.078,0,1,0,0,2.156" fill="lime" fill-rule="evenodd"/><text transform="translate(388.62793 248.78052)" font-size="1.495" fill="#1d1819" font-family="DINCond-Bold" font-weight="700">ANT</text><path d="M345.396,248.29422a.85637.85637,0,0,0-.84-.84.83611.83611,0,0,0-.84.84.857.857,0,0,0,.84.84.87928.87928,0,0,0,.84-.84" fill="lime"/><text transform="translate(344.24316 248.66089)" font-size="1.149" fill="#1d1819" font-family="DINCond-Bold" font-weight="700">3</text><path d="M346.30621,263.12283a.857.857,0,0,0-.84-.84.837.837,0,0,0-.841.84.85792.85792,0,0,0,.841.84.88.88,0,0,0,.84-.84" fill="#b3ff00"/><path d="M351.4834,263.12283a.857.857,0,0,0-.84-.84.837.837,0,0,0-.841.84.85791.85791,0,0,0,.841.84.88.88,0,0,0,.84-.84" fill="#b3ff00"/><path d="M348.96579,263.12283a.85616.85616,0,0,0-.839-.84.83632.83632,0,0,0-.841.84.85721.85721,0,0,0,.841.84.87911.87911,0,0,0,.839-.84" fill="#b3ff00"/><path d="M354.14749,263.12283a.857.857,0,0,0-.84-.84.8361.8361,0,0,0-.84.84.857.857,0,0,0,.84.84.88.88,0,0,0,.84-.84" fill="#b3ff00"/><path d="M346.30621,266.23611a.85634.85634,0,0,0-.84-.84.83633.83633,0,0,0-.841.84.857.857,0,0,0,.841.839.87911.87911,0,0,0,.84-.839" fill="#caff00"/><path d="M348.96579,266.23611a.85547.85547,0,0,0-.839-.84.83569.83569,0,0,0-.841.84.85634.85634,0,0,0,.841.839.87819.87819,0,0,0,.839-.839" fill="#caff00"/><path d="M351.48291,266.23611a.85634.85634,0,0,0-.84-.84.83547.83547,0,0,0-.84.84.85614.85614,0,0,0,.84.839.87911.87911,0,0,0,.84-.839" fill="#caff00"/><path d="M354.14789,266.23611a.85566.85566,0,0,0-.84-.84.83632.83632,0,0,0-.841.84.857.857,0,0,0,.841.839.87836.87836,0,0,0,.84-.839" fill="#caff00"/><polyline points="334.767 255.331 345.466 255.331 345.466 263.123 355.765 263.123 357.005 264.458 361.532 264.458" fill="none" stroke="#b3ff00" stroke-miterlimit="22.926" stroke-width="0.567"/><path d="M335.583,255.32492a.85635.85635,0,0,0-.84-.84.83632.83632,0,0,0-.841.84.857.857,0,0,0,.841.839.87911.87911,0,0,0,.84-.839" fill="#b3ff00"/><text transform="translate(334.34961 255.64917)" font-size="0.98" fill="#1d1819" font-family="DINCond-Bold" font-weight="700">50</text><polyline points="334.827 257.752 341.191 257.752 341.191 266.236 353.308 266.236 353.308 270.506 361.532 270.506" fill="none" stroke="#caff00" stroke-miterlimit="22.926" stroke-width="0.567"/><path d="M335.60251,257.74884a.857.857,0,0,0-.84-.84.837.837,0,0,0-.841.84.857.857,0,0,0,.841.839.87911.87911,0,0,0,.84-.839" fill="#caff00"/><text transform="translate(334.36426 258.07642)" font-size="0.993" fill="#1d1819" font-family="DINCond-Bold" font-weight="700">49</text><path d="M348.9834,280.58572a.857.857,0,0,0-.84-.84.837.837,0,0,0-.841.84.85791.85791,0,0,0,.841.84.88.88,0,0,0,.84-.84" fill="#00cd00"/><path d="M351.11819,280.58572a.857.857,0,0,0-.84-.84.837.837,0,0,0-.841.84.85792.85792,0,0,0,.841.84.88.88,0,0,0,.84-.84" fill="#00cd00"/><path d="M354.1055,280.58572a.857.857,0,0,0-.84-.84.837.837,0,0,0-.841.84.85791.85791,0,0,0,.841.84.88.88,0,0,0,.84-.84" fill="#00cd00"/><path d="M356.67969,282.83664a.85685.85685,0,0,0-.84-.839.83674.83674,0,0,0-.841.839.85725.85725,0,0,0,.841.84.87931.87931,0,0,0,.84-.84" fill="#00cd00"/><polyline points="334.961 272.36 348.143 272.36 348.143 280.586 355.839 280.586 355.839 282.837 355.839 285.279 361.645 285.279" fill="none" stroke="#00cd00" stroke-miterlimit="22.926" stroke-width="0.567"/><path d="M335.7373,272.35672a.85634.85634,0,0,0-.84-.84.83633.83633,0,0,0-.841.84.857.857,0,0,0,.841.839.8791.8791,0,0,0,.84-.839" fill="#00cd00"/><text transform="translate(334.49902 272.6853)" font-size="0.993" fill="#1d1819" font-family="DINCond-Bold" font-weight="700">43</text><path d="M307.2485,260.29764a.857.857,0,0,0-.84-.84.837.837,0,0,0-.841.84.85791.85791,0,0,0,.841.84.88.88,0,0,0,.84-.84" fill="#ff0"/><path d="M305.06149,260.29764a.857.857,0,0,0-.84-.84.837.837,0,0,0-.841.84.85791.85791,0,0,0,.841.84.88.88,0,0,0,.84-.84" fill="#ff0"/><path d="M301.6655,260.29764a.857.857,0,0,0-.84-.84.83632.83632,0,0,0-.841.84.8572.8572,0,0,0,.841.84.88.88,0,0,0,.84-.84" fill="#ff0"/><path d="M299.10739,260.29764a.857.857,0,0,0-.84-.84.8361.8361,0,0,0-.84.84.857.857,0,0,0,.84.84.88.88,0,0,0,.84-.84" fill="#ff0"/><path d="M286.94821,270.18924a.7845.7845,0,1,1-.785-.786.78506.78506,0,0,1,.785.786" fill="#ff3f3f"/><path d="M295.9512,268.38794a.785.785,0,1,1-.785-.785.78441.78441,0,0,1,.785.785" fill="#ff0"/><path d="M281.54739,279.19214a.785.785,0,1,1-.786-.785.78592.78592,0,0,1,.786.785" fill="#fc0000"/><path d="M285.14841,282.79324a.785.785,0,1,1-.786-.785.78678.78678,0,0,1,.786.785" fill="#ff1d1d"/><path d="M297.7207,284.594a.785.785,0,1,1-.785-.785.78592.78592,0,0,1,.785.785" fill="#ffc200"/><path d="M276.14551,284.594a.785.785,0,1,1-.785-.785.78592.78592,0,0,1,.785.785" fill="#ff3f3f"/><path d="M287.56879,265.19363a.90052.90052,0,1,1-.901-.9.90032.90032,0,0,1,.901.9" fill="#ff3f3f"/><path d="M288.86469,261.65012a.90052.90052,0,1,1-.9-.9.9001.9001,0,0,1,.9.9" fill="#ff3f3f"/><path d="M291.97461,252.93042a.90052.90052,0,1,1-.9-.9.9001.9001,0,0,1,.9.9" fill="#ff3f3f"/><path d="M291.97461,248.83374a.90052.90052,0,1,1-.9-.9.9001.9001,0,0,1,.9.9" fill="#ff3f3f"/><path d="M286.94781,273.78983a.7845.7845,0,1,1-.785-.785.78506.78506,0,0,1,.785.785" fill="#dc0000"/><path d="M284.93749,265.07742a.90051.90051,0,1,1-.901-.9.90095.90095,0,0,1,.901.9" fill="#dc0000"/><path d="M284.93749,262.25363a.90051.90051,0,1,1-.901-.9.90095.90095,0,0,1,.901.9" fill="#dc0000"/><path d="M284.93749,259.41382a.90051.90051,0,1,1-.901-.9.90094.90094,0,0,1,.901.9" fill="#dc0000"/><path d="M282.20261,259.41382a.9.9,0,1,1-.9-.9.9001.9001,0,0,1,.9.9" fill="#dc0000"/><path d="M288.74951,271.989a.78551.78551,0,1,1-.786-.785.78527.78527,0,0,1,.786.785" fill="#ba0000"/><path d="M284.93749,256.60132a.90051.90051,0,1,1-.9-.9.90029.90029,0,0,1,.9.9" fill="#ba0000"/><path d="M283.20459,252.16043a.90052.90052,0,1,1-.9-.9.90094.90094,0,0,1,.9.9" fill="#ba0000"/><path d="M271.99121,272.58963a.9.9,0,1,1-.901-.9.90049.90049,0,0,1,.901.9" fill="#fc0000"/><path d="M267.811,272.58963a.90051.90051,0,1,1-.901-.9.90049.90049,0,0,1,.901.9" fill="#fc0000"/><path d="M268.085,262.82742a.90051.90051,0,1,1-.901-.9.90031.90031,0,0,1,.901.9" fill="#fc0000"/><path d="M268.085,258.74533a.90051.90051,0,1,1-.901-.9.90031.90031,0,0,1,.901.9" fill="#fc0000"/><path d="M287.68359,298.13843a.9.9,0,1,1-.9-.9.90029.90029,0,0,1,.9.9" fill="#ff1d1d"/><path d="M290.38431,298.13843a.90052.90052,0,1,1-.9-.9.9003.9003,0,0,1,.9.9" fill="#ff1d1d"/><path d="M287.68359,295.09454a.9.9,0,1,1-.9-.901.9001.9001,0,0,1,.9.901" fill="#ff1d1d"/><path d="M276.14551,288.195a.78551.78551,0,1,1-.785-.785.78527.78527,0,0,1,.785.785" fill="red"/><path d="M272.668,291.78052a.9.9,0,1,1-.9-.9.89946.89946,0,0,1,.9.9" fill="red"/><path d="M269.50589,291.78052a.9.9,0,1,1-.9-.9.89946.89946,0,0,1,.9.9" fill="red"/><path d="M266.53659,291.78052a.90051.90051,0,1,1-.9-.9.89945.89945,0,0,1,.9.9" fill="red"/><path d="M266.53659,294.58862a.90051.90051,0,1,1-.9-.901.9001.9001,0,0,1,.9.901" fill="red"/><path d="M272.46341,284.29462a.9.9,0,1,1-.9-.9.90094.90094,0,0,1,.9.9" fill="#ff3f3f"/><path d="M272.46341,288.35764a.9.9,0,1,1-.9-.901.90011.90011,0,0,1,.9.901" fill="#ff3f3f"/><path d="M274.48541,252.93042a.90051.90051,0,1,1-.901-.9.9003.9003,0,0,1,.901.9" fill="#ff3f3f"/><path d="M274.48541,249.73462a.90051.90051,0,1,1-.901-.901.9003.9003,0,0,1,.901.901" fill="#ff3f3f"/><path d="M271.3252,251.26492a.90052.90052,0,1,1-.9-.901.90011.90011,0,0,1,.9.901" fill="#ff3f3f"/><path d="M267.18411,251.26492a.9.9,0,1,1-.9-.901.89946.89946,0,0,1,.9.901" fill="#ff3f3f"/><polyline points="275.329 284.595 273.234 284.595 273.234 288.358 271.564 288.358 271.564 282.494 261.353 282.494 261.353 255.115 276.408 255.115 276.408 249.735 274.485 249.735" fill="none" stroke="#ff3f3f" stroke-miterlimit="22.926" stroke-width="0.567"/><line x1="273.5845" y1="245.72482" x2="273.5845" y2="248.49683" fill="none" stroke="#ff3f3f" stroke-miterlimit="22.926" stroke-width="0.216"/><polyline points="273.342 248.202 273.582 248.452 273.832 248.212 273.828 248.42 273.578 248.661 273.337 248.411" fill="#ff3f3f"/><path d="M270.79541,247.029h5.579a.856.856,0,1,0,0-1.712h-5.579a.856.856,0,1,0,0,1.712" fill="#ff3f3f"/><text transform="translate(271.07227 246.60962)" font-size="1.319" fill="#fff" font-family="DINCond-Bold" font-weight="700">R2001_51K</text><polyline points="287.964 271.981 293.37 272.009 293.36 256.602 284.037 256.602 284.037 252.161 282.202 252.161 282.202 210.605 700.654 210.605 700.654 244.428 700.654 429.328 103.348 429.328 103.348 241.304 146.313 241.304 146.313 243.861" fill="none" stroke="#ba0000" stroke-miterlimit="22.926" stroke-width="0.567"/><path d="M147.061,244.03244a.67278.67278,0,0,0-.659-.659.65725.65725,0,0,0-.66.659.67282.67282,0,0,0,.66.658.68989.68989,0,0,0,.659-.658" fill="#ba0000"/><polyline points="143.979 251.237 143.981 271.718 143.981 413.288 309.934 413.288" fill="none" stroke="#ff3f3f" stroke-miterlimit="22.926" stroke-width="0.567"/><polyline points="309.935 413.288 695.418 413.288 695.418 255.586 695.418 213.265 291.075 213.265 291.075 248.834 291.075 261.65 286.668 261.65 286.668 266.365 286.164 266.74 286.164 270.265" fill="none" stroke="#ff3f3f" stroke-miterlimit="22.926" stroke-width="0.567"/><path d="M144.63721,251.30054a.67121.67121,0,0,0-.659-.658.65532.65532,0,0,0-.658.658.67172.67172,0,0,0,.658.658.68914.68914,0,0,0,.659-.658" fill="#ff3f3f"/><polyline points="312.554 267.469 306.408 267.469 306.408 260.298 295.166 260.298 295.166 268.089" fill="none" stroke="#ff0" stroke-miterlimit="22.926" stroke-width="0.567"/><path d="M313.3237,267.46213a.85723.85723,0,0,0-.841-.84.83675.83675,0,0,0-.84.84.85771.85771,0,0,0,.84.84.88018.88018,0,0,0,.841-.84" fill="#ff0"/><text transform="translate(312.12402 267.75854)" font-size="0.896" font-family="DINCond-Bold" font-weight="700">16</text><path d="M283.20209,243.40842v-10.87a1.078,1.078,0,1,0-2.156,0v10.87a1.078,1.078,0,1,0,2.156,0" fill="#ba0000" fill-rule="evenodd"/><text transform="translate(282.61865 241.54907) rotate(-90)" font-size="1.495" fill="#fff" font-family="DINCond-Bold" font-weight="700">VRF_TRX_1P8</text><polyline points="131.865 258.858 131.865 266.855 131.865 415.947 680.697 415.947 680.697 258.145 680.697 207.945 279.152 207.945 279.152 259.414 284.037 259.414 284.037 273.79 286.163 273.79" fill="none" stroke="#dc0000" stroke-miterlimit="22.926" stroke-width="0.567"/><polyline points="280.762 279.192 271.091 279.192 271.091 272.589 263.009 272.589 263.009 262.827 267.185 262.827 267.185 258.745 263.107 258.745 263.247 202.544 709.343 202.544 709.343 246.461 709.343 426.669 106.056 426.669 106.091 244.032 131.865 244.032" fill="none" stroke="#fc0000" stroke-miterlimit="22.926" stroke-width="0.567"/><polyline points="273.585 252.93 270.425 252.93 270.425 251.264 266.284 251.264 266.284 205.284 705.006 205.284 705.102 248.709 705.17 254.82 705.17 421.348 111.392 421.348 111.41 253.773 129.179 253.769" fill="none" stroke="#ff3f3f" stroke-miterlimit="22.926" stroke-width="0.567"/><path d="M264.228,243.40842v-10.87a1.07851,1.07851,0,1,0-2.157,0v10.87a1.07851,1.07851,0,1,0,2.157,0" fill="#fc0000" fill-rule="evenodd"/><text transform="translate(263.64453 241.82397) rotate(-90)" font-size="1.495" fill="#fff" font-family="DINCond-Bold" font-weight="700">VRF_TXLO_1P8</text><path d="M292.07181,243.40842v-10.87a1.07851,1.07851,0,1,0-2.157,0v10.87a1.07851,1.07851,0,1,0,2.157,0" fill="#ff3f3f" fill-rule="evenodd"/><text transform="translate(291.48828 241.82593) rotate(-90)" font-size="1.495" fill="#fff" font-family="DINCond-Bold" font-weight="700">VRF_TCX0_1P8</text><polyline points="131.563 256.152 114.069 256.152 114.069 418.608 683.828 418.608 683.828 258.145 683.828 199.884 258.087 199.884 258.087 294.589 265.554 294.589 265.554 291.781 275.36 291.781 275.36 287.896" fill="none" stroke="red" stroke-miterlimit="22.926" stroke-width="0.567"/><polyline points="284.363 282.493 284.363 295.093 286.783 295.093 286.783 298.138 289.484 298.138 289.484 348.722 322.121 349.353 322.121 295.527 322.477 293.712 322.477 291.813" fill="none" stroke="#ff1d1d" stroke-miterlimit="22.926" stroke-width="0.567"/><path d="M132.5239,256.14624a.67144.67144,0,0,0-.659-.659.65494.65494,0,0,0-.658.659.671.671,0,0,0,.658.658.68915.68915,0,0,0,.659-.658" fill="red"/><path d="M130.1011,253.72293a.67034.67034,0,0,0-.658-.658.65554.65554,0,0,0-.659.658.67281.67281,0,0,0,.659.659.68915.68915,0,0,0,.658-.659" fill="#ff3f3f"/><path d="M132.5239,258.56912a.67143.67143,0,0,0-.659-.659.65493.65493,0,0,0-.658.659.671.671,0,0,0,.658.658.68915.68915,0,0,0,.659-.658" fill="#dc0000"/><path d="M132.5239,244.03244a.67122.67122,0,0,0-.659-.658.65469.65469,0,0,0-.658.658.671.671,0,0,0,.658.658.68915.68915,0,0,0,.659-.658" fill="#fc0000"/><path d="M127.6787,246.45532a.67142.67142,0,0,0-.659-.659.65493.65493,0,0,0-.658.659.671.671,0,0,0,.658.658.68913.68913,0,0,0,.659-.658" fill="#ff1d1d"/><path d="M290.53809,328.74484v-12.542a1.078,1.078,0,0,0-2.156,0v12.542a1.078,1.078,0,1,0,2.156,0" fill="#ff1d1d" fill-rule="evenodd"/><text transform="translate(289.95459 325.82495) rotate(-90)" font-size="1.495" fill="#fff" font-family="DINCond-Bold" font-weight="700">VDD_1P8_AP</text><path d="M320.103,295.73364a.857.857,0,0,0-.84-.84.837.837,0,0,0-.841.84.857.857,0,0,0,.841.839.87911.87911,0,0,0,.84-.839" fill="#ba0000"/><path d="M320.103,298.66382a.85721.85721,0,0,0-.84-.841.83715.83715,0,0,0-.841.841.85772.85772,0,0,0,.841.839.87986.87986,0,0,0,.84-.839" fill="#ba0000"/><polyline points="320.009 291.873 320.009 293.957 319.262 295.733 319.262 303.053 168.14 303.053 168.14 251.656 165.311 251.656 165.311 248.834 148.772 248.834" fill="none" stroke="#ba0000" stroke-miterlimit="22.926" stroke-width="0.567"/><path d="M320.8501,291.67313a.857.857,0,0,0-.84-.84.837.837,0,0,0-.841.84.857.857,0,0,0,.841.839.87912.87912,0,0,0,.84-.839" fill="#ba0000"/><text transform="translate(319.61133 292.00073)" font-size="0.993" fill="#fff" font-family="DINCond-Bold" font-weight="700">29</text><path d="M166.1514,251.65652a.85789.85789,0,0,0-.84-.841.83692.83692,0,0,0-.84.841.85681.85681,0,0,0,.84.839.87985.87985,0,0,0,.84-.839" fill="#ba0000"/><path d="M149.4834,248.87814a.67279.67279,0,0,0-.659-.659.6564.6564,0,0,0-.659.659.67192.67192,0,0,0,.659.658.68989.68989,0,0,0,.659-.658" fill="#ba0000"/><path d="M271.72119,304.05054h10.87a1.0785,1.0785,0,1,0,0-2.157h-10.87a1.0785,1.0785,0,0,0,0,2.157" fill="#ba0000" fill-rule="evenodd"/><text transform="translate(273.52051 303.46655)" font-size="1.495" fill="#fff" font-family="DINCond-Bold" font-weight="700">VRF_FEM_2P8</text><path d="M322.9614,295.52762a.857.857,0,0,0-.84-.84.837.837,0,0,0-.841.84.85726.85726,0,0,0,.841.84.87931.87931,0,0,0,.84-.84" fill="#ff1d1d"/><path d="M323.3652,291.67313a.857.857,0,0,0-.84-.84.837.837,0,0,0-.841.84.85705.85705,0,0,0,.841.839.87912.87912,0,0,0,.84-.839" fill="#ff1d1d"/><text transform="translate(321.99805 291.9939)" font-size="0.993" fill="#fff" font-family="DINCond-Bold" font-weight="700">30</text><path d="M247.7139,307.04663a.857.857,0,0,0-.84-.84.837.837,0,0,0-.841.84.85791.85791,0,0,0,.841.84.88.88,0,0,0,.84-.84" fill="#ba0000"/><path d="M243.43359,325.56522a.9045.9045,0,1,1-.905-.905.90371.90371,0,0,1,.905.905" fill="#ba0000"/><path d="M243.43359,328.27713a.9045.9045,0,1,1-.905-.905.9048.9048,0,0,1,.905.905" fill="#ba0000"/><path d="M227.32761,328.16183a.90451.90451,0,1,1-.905-.905.90458.90458,0,0,1,.905.905" fill="#ba0000"/><path d="M230.0117,328.24484a.9045.9045,0,1,1-.905-.905.90371.90371,0,0,1,.905.905" fill="#ba0000"/><path d="M239.93851,317.05643a.905.905,0,1,1-.906-.905.90542.90542,0,0,1,.906.905" fill="#ba0000"/><path d="M229.24071,317.05643a.905.905,0,1,1-.905-.905.90521.90521,0,0,1,.905.905" fill="#ba0000"/><path d="M388.97949,273.51544a.85616.85616,0,0,0-.839-.84.83632.83632,0,0,0-.841.84.85722.85722,0,0,0,.841.84.87911.87911,0,0,0,.839-.84" fill="#ba0000"/><path d="M391.66409,273.51544a.857.857,0,0,0-.84-.84.837.837,0,0,0-.841.84.85792.85792,0,0,0,.841.84.88.88,0,0,0,.84-.84" fill="#ba0000"/><polyline points="383.435 273.515 400.221 273.515 400.221 307.062 239.033 307.062 239.033 317.055 222.739 317.055 222.739 328.161 229.245 328.161" fill="none" stroke="#ba0000" stroke-miterlimit="22.926" stroke-width="0.567"/><polyline points="242.529 328.244 242.529 317.056 239.033 317.056" fill="none" stroke="#ba0000" stroke-miterlimit="22.926" stroke-width="0.567"/><path d="M384.19189,273.41382a.857.857,0,0,0-.84-.84.837.837,0,0,0-.841.84.85792.85792,0,0,0,.841.84.88.88,0,0,0,.84-.84" fill="#ba0000"/><text transform="translate(382.9585 273.73804)" font-size="0.98" fill="#fff" font-family="DINCond-Bold" font-weight="700">11</text><path d="M378.1279,308.13162h10.871a1.078,1.078,0,1,0,0-2.156h-10.871a1.078,1.078,0,1,0,0,2.156" fill="#ba0000" fill-rule="evenodd"/><text transform="translate(382.24023 307.54858)" font-size="1.495" fill="#fff" font-family="DINCond-Bold" font-weight="700">VBAT</text><path d="M388.6528,294.64133a.85635.85635,0,0,0-.84-.84.83632.83632,0,0,0-.841.84.857.857,0,0,0,.841.839.87912.87912,0,0,0,.84-.839" fill="#ffc200"/><path d="M388.6528,291.85422a.857.857,0,0,0-.84-.84.837.837,0,0,0-.841.84.8579.8579,0,0,0,.841.84.88.88,0,0,0,.84-.84" fill="#ffc200"/><path d="M391.46579,291.85422a.85723.85723,0,0,0-.841-.84.83675.83675,0,0,0-.84.84.85771.85771,0,0,0,.84.84.88018.88018,0,0,0,.841-.84" fill="#ffc200"/><path d="M393.937,291.85422a.857.857,0,0,0-.84-.84.83633.83633,0,0,0-.841.84.85721.85721,0,0,0,.841.84.88.88,0,0,0,.84-.84" fill="#ffc200"/><path d="M393.937,294.43533a.85634.85634,0,0,0-.84-.84.83569.83569,0,0,0-.841.84.85634.85634,0,0,0,.841.839.87911.87911,0,0,0,.84-.839" fill="#ffc200"/><path d="M393.937,297.10184a.857.857,0,0,0-.84-.84.83633.83633,0,0,0-.841.84.85721.85721,0,0,0,.841.84.88.88,0,0,0,.84-.84" fill="#ffc200"/><polyline points="393.096 294.64 393.096 291.854 387.812 291.854 387.812 294.661 386.054 294.661 385.607 294.122 383.435 294.122" fill="none" stroke="#ffc200" stroke-miterlimit="22.926" stroke-width="0.567"/><polyline points="393.096 297.102 393.096 310.328 301.546 310.328 301.546 284.595 296.967 284.595" fill="none" stroke="#ffc200" stroke-miterlimit="22.926" stroke-width="0.567"/><path d="M375.80029,311.32593h14.268a1.07849,1.07849,0,0,0,0-2.157h-14.268a1.07849,1.07849,0,1,0,0,2.157" fill="#ffc200" fill-rule="evenodd"/><text transform="translate(377.07373 310.74194)" font-size="1.495" font-family="DINCond-Bold" font-weight="700">TX_TR_OUT_B1_2_3_4</text><line x1="348.99561" y1="255.48953" x2="345.95859" y2="255.48953" fill="none" stroke="#b3ff00" stroke-miterlimit="22.926" stroke-width="0.216"/><polyline points="346.426 255.175 346.126 255.496 346.448 255.796 346.184 255.805 345.863 255.506 346.162 255.184" fill="#b3ff00"/><line x1="348.99561" y1="259.48654" x2="341.9646" y2="259.48654" fill="none" stroke="#caff00" stroke-miterlimit="22.926" stroke-width="0.216"/><polyline points="342.341 259.171 342.042 259.492 342.363 259.792 342.1 259.802 341.778 259.502 342.078 259.18" fill="#caff00"/><path d="M348.7222,260.56473h10.871a1.078,1.078,0,1,0,0-2.156h-10.871a1.078,1.078,0,1,0,0,2.156" fill="#caff00" fill-rule="evenodd"/><text transform="translate(349.07568 259.98169)" font-size="1.495" fill="#1d1819" font-family="DINCond-Bold" font-weight="700">TX_PA_OUT_GSMLB</text><path d="M348.7222,256.56812h10.871a1.07845,1.07845,0,0,0,1.078-1.078v-.001a1.07847,1.07847,0,0,0-1.078-1.078h-10.871a1.07847,1.07847,0,0,0-1.078,1.078v.001a1.07845,1.07845,0,0,0,1.078,1.078" fill="#b3ff00" fill-rule="evenodd"/><text transform="translate(349.00098 255.98413)" font-size="1.495" fill="#1d1819" font-family="DINCond-Bold" font-weight="700">TX_PA_OUT_GSMHB</text><polyline points="349.41 288.069 357.814 288.069 357.814 286.052" fill="none" stroke="#00cd00" stroke-miterlimit="22.926" stroke-width="0.216"/><polyline points="357.499 286.351 357.82 286.052 358.119 286.373 358.129 286.109 357.83 285.787 357.508 286.087" fill="#00cd00"/><path d="M341.66309,289.14673h10.871a1.07849,1.07849,0,0,0,0-2.157h-10.871a1.07849,1.07849,0,0,0,0,2.157" fill="#00cd00" fill-rule="evenodd"/><text transform="translate(343.12012 288.56323)" font-size="1.495" fill="#1d1819" font-family="DINCond-Bold" font-weight="700">TX_PA_OUT_B1</text><path d="M297.2334,255.72583h10.87a1.07849,1.07849,0,0,0,0-2.157h-10.87a1.07849,1.07849,0,0,0,0,2.157" fill="#ff0" fill-rule="evenodd"/><text transform="translate(298.77051 255.14185)" font-size="1.495" font-family="DINCond-Bold" font-weight="700">PRX_TR_IN_B1</text><polyline points="296.832 254.647 295.301 254.647 295.301 259.691" fill="none" stroke="#ff0" stroke-miterlimit="22.926" stroke-width="0.216"/><polyline points="295.607 259.242 295.3 259.556 294.986 259.249 294.988 259.512 295.302 259.82 295.61 259.506" fill="#ff0"/><path d="M239.874,307.19312a.857.857,0,0,0-.84-.84.837.837,0,0,0-.841.84.85724.85724,0,0,0,.841.84.87928.87928,0,0,0,.84-.84" fill="#ba0000"/><path d="M725.72852,250.69022a.857.857,0,0,0-.84-.84.837.837,0,0,0-.841.84.857.857,0,0,0,.841.839.87912.87912,0,0,0,.84-.839" fill="#ff1d1d"/><path d="M696.25879,255.58624a.85722.85722,0,0,0-.841-.84.83692.83692,0,0,0-.841.84.85787.85787,0,0,0,.841.84.88019.88019,0,0,0,.841-.84" fill="#ff3f3f"/><path d="M681.53711,258.14432a.8553.8553,0,0,0-.839-.839.83567.83567,0,0,0-.842.839.85672.85672,0,0,0,.842.84.87841.87841,0,0,0,.839-.84" fill="#dc0000"/><path d="M701.49512,244.34692a.85634.85634,0,0,0-.84-.84.83632.83632,0,0,0-.841.84.857.857,0,0,0,.841.839.87911.87911,0,0,0,.84-.839" fill="#ba0000"/><path d="M710.18359,237.80392a.857.857,0,0,0-.84-.84.837.837,0,0,0-.841.84.85792.85792,0,0,0,.841.84.88.88,0,0,0,.84-.84" fill="#fc0000"/><path d="M684.66888,258.10522a.85722.85722,0,0,0-.841-.84.83691.83691,0,0,0-.841.84.85787.85787,0,0,0,.841.84.88019.88019,0,0,0,.841-.84" fill="red"/><path d="M705.94238,248.46463a.857.857,0,0,0-.84-.84.837.837,0,0,0-.841.84.85792.85792,0,0,0,.841.84.88.88,0,0,0,.84-.84" fill="#ff3f3f"/><path d="M362.2876,270.44412a.857.857,0,0,0-.84-.84.8361.8361,0,0,0-.84.84.857.857,0,0,0,.84.84.88.88,0,0,0,.84-.84" fill="#caff00"/><text transform="translate(361.05469 270.76831)" font-size="0.98" fill="#1d1819" font-family="DINCond-Bold" font-weight="700">23</text><path d="M362.2876,264.45193a.85614.85614,0,0,0-.84-.839.83525.83525,0,0,0-.84.839.85636.85636,0,0,0,.84.84.8793.8793,0,0,0,.84-.84" fill="#b3ff00"/><text transform="translate(361.05469 264.77612)" font-size="0.98" fill="#1d1819" font-family="DINCond-Bold" font-weight="700">21</text><path d="M362.40189,285.27274a.857.857,0,0,0-.84-.84.83611.83611,0,0,0-.84.84.857.857,0,0,0,.84.84.88.88,0,0,0,.84-.84" fill="#00cd00"/><text transform="translate(361.16846 285.59692)" font-size="0.98" fill="#1d1819" font-family="DINCond-Bold" font-weight="700">28</text><path d="M384.2402,294.11694a.85634.85634,0,0,0-.84-.84.83633.83633,0,0,0-.841.84.857.857,0,0,0,.841.839.87911.87911,0,0,0,.84-.839" fill="#ffc200"/><text transform="translate(383.20361 294.44116)" font-size="0.98" font-family="DINCond-Bold" font-weight="700">4</text><path d="M267.26459,243.40894V232.538a1.078,1.078,0,0,0-2.156,0v10.871a1.078,1.078,0,0,0,2.156,0" fill="#ff3f3f" fill-rule="evenodd"/><text transform="translate(266.68115 242.52173) rotate(-90)" font-size="1.495" fill="#fff" font-family="DINCond-Bold" font-weight="700">VRF_TRX_LO_1P2</text><path d="M280.14059,243.40842v-10.87a1.07851,1.07851,0,1,0-2.157,0v10.87a1.07851,1.07851,0,1,0,2.157,0" fill="#dc0000" fill-rule="evenodd"/><text transform="translate(279.55713 241.55054) rotate(-90)" font-size="1.495" fill="#fff" font-family="DINCond-Bold" font-weight="700">VRF_TRX_1P2</text><path d="M259.15091,243.40842v-10.87a1.07851,1.07851,0,0,0-2.157,0v10.87a1.07851,1.07851,0,0,0,2.157,0" fill="red" fill-rule="evenodd"/><text transform="translate(258.56738 241.94897) rotate(-90)" font-size="1.495" fill="#fff" font-family="DINCond-Bold" font-weight="700">VRF_GNSS_1P1</text><path d="M328.3042,252.87964a.857.857,0,0,0-.84-.84.837.837,0,0,0-.841.84.857.857,0,0,0,.841.839.87911.87911,0,0,0,.84-.839" fill="lime"/><text transform="translate(327.2334 253.25952)" font-size="1.149" fill="#1d1819" font-family="DINCond-Bold" font-weight="700">4</text><path d="M323.31491,328.74484v-12.542a1.078,1.078,0,1,0-2.156,0v12.542a1.078,1.078,0,1,0,2.156,0" fill="#ff1d1d" fill-rule="evenodd"/><text transform="translate(322.73145 325.82495) rotate(-90)" font-size="1.495" fill="#fff" font-family="DINCond-Bold" font-weight="700">VDD_1P8_AP</text><path d="M104.4268,284.63351v-10.87a1.0785,1.0785,0,1,0-2.157,0v10.87a1.0785,1.0785,0,0,0,2.157,0" fill="#ba0000" fill-rule="evenodd"/><text transform="translate(103.84326 282.77661) rotate(-90)" font-size="1.495" fill="#fff" font-family="DINCond-Bold" font-weight="700">VRF_TRX_1P8</text><path d="M115.1479,284.63351v-10.87a1.0785,1.0785,0,1,0-2.157,0v10.87a1.0785,1.0785,0,0,0,2.157,0" fill="#fc0000" fill-rule="evenodd"/><text transform="translate(114.56396 283.05054) rotate(-90)" font-size="1.495" fill="#fff" font-family="DINCond-Bold" font-weight="700">VRF_TXLO_1P8</text><path d="M112.4702,284.63351v-10.87a1.07851,1.07851,0,1,0-2.157,0v10.87a1.07851,1.07851,0,1,0,2.157,0" fill="#ff3f3f" fill-rule="evenodd"/><path d="M109.8281,284.63351v-10.87a1.0785,1.0785,0,1,0-2.157,0v10.87a1.0785,1.0785,0,1,0,2.157,0" fill="#ff1d1d" fill-rule="evenodd"/><text transform="translate(111.88672 283.05298) rotate(-90)" font-size="1.495" fill="#fff" font-family="DINCond-Bold" font-weight="700">VRF_TCX0_1P8</text><path d="M145.05659,284.63351v-10.871a1.078,1.078,0,0,0-2.156,0v10.871a1.078,1.078,0,1,0,2.156,0" fill="#ff3f3f" fill-rule="evenodd"/><text transform="translate(144.47314 283.74878) rotate(-90)" font-size="1.495" fill="#fff" font-family="DINCond-Bold" font-weight="700">VRF_TRX_LO_1P2</text><path d="M132.9438,284.63351v-10.87a1.07851,1.07851,0,1,0-2.157,0v10.87a1.07851,1.07851,0,1,0,2.157,0" fill="#dc0000" fill-rule="evenodd"/><text transform="translate(132.35986 282.77759) rotate(-90)" font-size="1.495" fill="#fff" font-family="DINCond-Bold" font-weight="700">VRF_TRX_1P2</text><path d="M107.1348,284.63351v-10.87a1.0785,1.0785,0,0,0-2.157,0v10.87a1.0785,1.0785,0,0,0,2.157,0" fill="red" fill-rule="evenodd"/><text transform="translate(106.55078 283.17554) rotate(-90)" font-size="1.495" fill="#fff" font-family="DINCond-Bold" font-weight="700">VRF_GNSS_1P1</text><polyline points="322.121 349.353 436.521 349.353 436.521 215.671 724.888 215.671 724.888 250.69 724.888 424.008 108.75 424.008 108.75 246.455 126.647 246.455" fill="none" stroke="#ff1d1d" stroke-miterlimit="22.926" stroke-width="0.567"/><text transform="translate(109.21875 282.54907) rotate(-90)" font-size="1.495" fill="#fff" font-family="DINCond-Bold" font-weight="700">VDD_1P8_AP</text><path d="M169.2397,284.63351v-10.87a1.07851,1.07851,0,1,0-2.157,0v10.87a1.07851,1.07851,0,1,0,2.157,0" fill="#ba0000" fill-rule="evenodd"/><text transform="translate(168.65625 282.83374) rotate(-90)" font-size="1.495" fill="#fff" font-family="DINCond-Bold" font-weight="700">VRF_FEM_2P8</text><path d="M271.72119,308.13162h10.87a1.078,1.078,0,1,0,0-2.156h-10.87a1.078,1.078,0,1,0,0,2.156" fill="#ba0000" fill-rule="evenodd"/><text transform="translate(275.83301 307.54858)" font-size="1.495" fill="#fff" font-family="DINCond-Bold" font-weight="700">VBAT</text><text transform="translate(338.85059 26.15796)" font-size="16" fill="#fff" font-family="DINCond-Bold" font-weight="700">SAMSUNG SM-A105</text><text transform="translate(443.80762 26.15796)" font-size="14" fill="#fff" font-family="DINCond-Bold" font-weight="700"><tspan xml:space="preserve"> &gt; NE</tspan><tspan x="23.15527" y="0" letter-spacing="0.03299em">T</tspan><tspan x="29.11914" y="0" letter-spacing="0.01995em">W</tspan><tspan x="39.39453" y="0" letter-spacing="0.00007em">ORK</tspan></text><text transform="translate(251.57617 512.22241)" font-size="9" font-family="DINCond-Bold" font-weight="700">ANT</text><text transform="translate(251.63916 537.00854)" font-size="9" font-family="DINCond-Bold" font-weight="700">TX_PA_OUT_GSMLB</text><path d="M241.4126,515.99973h0a7.087,7.087,0,1,1,7.086-7.087,7.08621,7.08621,0,0,1-7.086,7.087" fill="lime" fill-rule="evenodd"/><path d="M241.4126,540.78983h0a7.0865,7.0865,0,1,1,7.086-7.086,7.08536,7.08536,0,0,1-7.086,7.086" fill="#caff00" fill-rule="evenodd"/><text transform="translate(346.38184 512.22241)" font-size="9" font-family="DINCond-Bold" font-weight="700">PRX_TR_IN_B1</text><text transform="translate(346.44482 537.00854)" font-size="9" font-family="DINCond-Bold" font-weight="700">TX_TR_OUT_B1_2_3_4</text><path d="M336.21829,515.99973h0a7.087,7.087,0,1,1,7.087-7.087,7.08622,7.08622,0,0,1-7.087,7.087" fill="#ff0" fill-rule="evenodd"/><path d="M336.21829,540.78983h0a7.0865,7.0865,0,1,1,7.087-7.086,7.08537,7.08537,0,0,1-7.087,7.086" fill="#ffc200" fill-rule="evenodd"/><text transform="translate(251.57617 561.80347)" font-size="9" font-family="DINCond-Bold" font-weight="700">TX_PA_OUT_GSMHB</text><path d="M241.4126,565.58083h0a7.0865,7.0865,0,1,1,7.086-7.086,7.086,7.086,0,0,1-7.086,7.086" fill="#b3ff00" fill-rule="evenodd"/><text transform="translate(251.57617 586.59448)" font-size="9" font-family="DINCond-Bold" font-weight="700">TX_PA_OUT_B1</text><path d="M241.4126,590.37183h0a7.0865,7.0865,0,1,1,7.086-7.086,7.086,7.086,0,0,1-7.086,7.086" fill="#00cd00" fill-rule="evenodd"/></svg>