<svg xmlns="http://www.w3.org/2000/svg" viewBox="0 0 841.88976 595.27559"><title>Input Output Voltage</title><polyline points="230.35 193.699 230.35 194.999 227.261 194.999" fill="none" stroke="red" stroke-linejoin="round" stroke-width="0.23012"/><polyline points="233.255 193.69 233.255 194.99 236.343 194.99" fill="none" stroke="red" stroke-linejoin="round" stroke-width="0.23012"/><line x1="252.04005" y1="193.50218" x2="258.05402" y2="193.50218" fill="none" stroke="red" stroke-linejoin="round" stroke-width="0.23012"/><polyline points="251.841 190.911 251.841 190.15 245.757 190.15" fill="none" stroke="red" stroke-linejoin="round" stroke-width="0.23012"/><line x1="252.87804" y1="188.38604" x2="258.89262" y2="188.38604" fill="none" stroke="red" stroke-linejoin="round" stroke-width="0.23012"/><polyline points="252.692 184.097 252.692 185.014 246.61 185.014" fill="none" stroke="red" stroke-linejoin="round" stroke-width="0.23012"/><line x1="252.69267" y1="179.21945" x2="261.90492" y2="179.21945" fill="none" stroke="red" stroke-linejoin="round" stroke-width="0.23012"/><polyline points="249.721 181.452 249.721 180.408 243.638 180.408" fill="none" stroke="red" stroke-linejoin="round" stroke-width="0.23012"/><polyline points="268.082 182.352 268.082 181.592 252.774 181.592" fill="none" stroke="red" stroke-linejoin="round" stroke-width="0.23012"/><polyline points="260.03 175.833 260.03 176.969 253.239 176.969" fill="none" stroke="red" stroke-linejoin="round" stroke-width="0.23012"/><polyline points="250.2 176.808 250.2 175.795 244.117 175.795" fill="none" stroke="red" stroke-linejoin="round" stroke-width="0.23012"/><polyline points="251.614 195.858 250.673 195.858 250.673 200.781" fill="none" stroke="red" stroke-linejoin="round" stroke-width="0.23012"/><line x1="267.62201" y1="192.24664" x2="267.62201" y2="197.11253" fill="none" stroke="red" stroke-linejoin="round" stroke-width="0.23012"/><line x1="274.24437" y1="196.9488" x2="280.25895" y2="196.9488" fill="none" stroke="red" stroke-linejoin="round" stroke-width="0.23012"/><polyline points="270.777 192.074 270.777 191.313 276.86 191.313" fill="none" stroke="red" stroke-linejoin="round" stroke-width="0.23012"/><polyline points="252.405 172.608 252.405 171.151 246.322 171.151" fill="none" stroke="red" stroke-linejoin="round" stroke-width="0.23012"/><line x1="258.50293" y1="167.61628" x2="258.50293" y2="166.11214" fill="none" stroke="red" stroke-linejoin="round" stroke-width="0.23012"/><line x1="274.17141" y1="168.59731" x2="272.31392" y2="168.59731" fill="none" stroke="red" stroke-linejoin="round" stroke-width="0.23012"/><line x1="287.6919" y1="170.61668" x2="287.6919" y2="168.30618" fill="none" stroke="red" stroke-linejoin="round" stroke-width="0.23012"/><line x1="281.89674" y1="160.30082" x2="284.75155" y2="160.30082" fill="none" stroke="red" stroke-linejoin="round" stroke-width="0.23012"/><line x1="297.80728" y1="162.74129" x2="300.66148" y2="162.74129" fill="none" stroke="red" stroke-linejoin="round" stroke-width="0.23012"/><line x1="313.26298" y1="165.01547" x2="315.7466" y2="165.01547" fill="none" stroke="red" stroke-linejoin="round" stroke-width="0.21466"/><line x1="297.17198" y1="146.79879" x2="294.63357" y2="146.79879" fill="none" stroke="red" stroke-linejoin="round" stroke-width="0.21701"/><line x1="265.67011" y1="153.1432" x2="268.52432" y2="153.1432" fill="none" stroke="red" stroke-linejoin="round" stroke-width="0.23012"/><line x1="260.09519" y1="161.00588" x2="262.9494" y2="161.00588" fill="none" stroke="red" stroke-linejoin="round" stroke-width="0.23012"/><polyline points="256.434 161.006 256.434 160.202 244.436 160.202" fill="none" stroke="red" stroke-linejoin="round" stroke-width="0.23012"/><polyline points="247.047 162.407 247.047 160.949 254.525 160.949" fill="none" stroke="red" stroke-linejoin="round" stroke-width="0.23012"/><polyline points="254.53 154.631 254.53 153.173 248.448 153.173" fill="none" stroke="red" stroke-linejoin="round" stroke-width="0.23012"/><polyline points="256.585 157.96 256.585 157.457 248.827 157.457" fill="none" stroke="red" stroke-linejoin="round" stroke-width="0.23012"/><polyline points="254.718 148.606 254.718 147.43 248.635 147.43" fill="none" stroke="red" stroke-linejoin="round" stroke-width="0.23012"/><polyline points="265.416 146.535 264.793 146.535 264.793 143.396" fill="none" stroke="red" stroke-linejoin="round" stroke-width="0.23012"/><line x1="266.27313" y1="148.45799" x2="269.12733" y2="148.45799" fill="none" stroke="red" stroke-linejoin="round" stroke-width="0.23012"/><line x1="239.87729" y1="134.58345" x2="242.7315" y2="134.58345" fill="none" stroke="red" stroke-linejoin="round" stroke-width="0.23012"/><line x1="252.18394" y1="128.54015" x2="255.03815" y2="128.54015" fill="none" stroke="red" stroke-linejoin="round" stroke-width="0.23012"/><line x1="293.18974" y1="100.42894" x2="293.18974" y2="98.11847" fill="none" stroke="red" stroke-linejoin="round" stroke-width="0.23012"/><line x1="288.03689" y1="92.6862" x2="288.03689" y2="90.3757" fill="none" stroke="red" stroke-linejoin="round" stroke-width="0.23012"/><line x1="263.52614" y1="80.85182" x2="266.38095" y2="80.85182" fill="none" stroke="red" stroke-linejoin="round" stroke-width="0.23012"/><line x1="254.67123" y1="97.07384" x2="257.52604" y2="97.07384" fill="none" stroke="red" stroke-linejoin="round" stroke-width="0.23012"/><line x1="388.19213" y1="167.78226" x2="391.04634" y2="167.78226" fill="none" stroke="red" stroke-linejoin="round" stroke-width="0.26129"/><line x1="392.92446" y1="170.7996" x2="395.77871" y2="170.7996" fill="none" stroke="red" stroke-linejoin="round" stroke-width="0.26129"/><line x1="391.96058" y1="188.0001" x2="394.81482" y2="188.0001" fill="none" stroke="red" stroke-linejoin="round" stroke-width="0.26129"/><polyline points="407.289 192.187 402.456 192.187 402.456 191.042" fill="none" stroke="red" stroke-linejoin="round" stroke-width="0.26129"/><line x1="396.80506" y1="212.8648" x2="396.80506" y2="215.84367" fill="none" stroke="red" stroke-linejoin="round" stroke-width="0.26129"/><path d="M252.04005,193.15693a.35277.35277,0,1,1-.42649.34525.39184.39184,0,0,1,.42649-.34525" fill="red" fill-rule="evenodd"/><path d="M272.285,168.17741a.38478.38478,0,1,1-.42586.38256.40638.40638,0,0,1,.42586-.38256" fill="red" fill-rule="evenodd"/><path d="M251.84059,190.566a.353.353,0,1,1-.42649.34522.39219.39219,0,0,1,.42649-.34522" fill="red" fill-rule="evenodd"/><path d="M252.878,188.04082a.35286.35286,0,1,1-.42588.34522.39238.39238,0,0,1,.42588-.34522" fill="red" fill-rule="evenodd"/><path d="M267.622,191.90142a.35267.35267,0,1,1-.42588.34522.39206.39206,0,0,1,.42588-.34522" fill="red" fill-rule="evenodd"/><path d="M270.77693,191.72845a.35277.35277,0,1,1-.42649.34523.39207.39207,0,0,1,.42649-.34523" fill="red" fill-rule="evenodd"/><path d="M297.80728,162.28432a.40163.40163,0,1,1-.42649.40113.4139.4139,0,0,1,.42649-.40113" fill="red" fill-rule="evenodd"/><path d="M252.69267,178.87423a.35286.35286,0,1,1-.42588.34522.392.392,0,0,1,.42588-.34522" fill="red" fill-rule="evenodd"/><path d="M252.405,172.3507a.35286.35286,0,1,1-.42588.34523.39237.39237,0,0,1,.42588-.34523" fill="red" fill-rule="evenodd"/><path d="M260.09519,160.66066a.353.353,0,1,1-.42648.34522.39277.39277,0,0,1,.42648-.34522" fill="red" fill-rule="evenodd"/><path d="M252.69235,183.752a.35287.35287,0,1,1-.42588.34523.39205.39205,0,0,1,.42588-.34523" fill="red" fill-rule="evenodd"/><path d="M256.58518,157.61567a.35277.35277,0,1,1-.42649.34475.392.392,0,0,1,.42649-.34475" fill="red" fill-rule="evenodd"/><path d="M250.19967,176.46256a.35277.35277,0,1,1-.42647.34523.39181.39181,0,0,1,.42647-.34523" fill="red" fill-rule="evenodd"/><path d="M249.72088,181.10719a.353.353,0,1,1-.42649.34523.39182.39182,0,0,1,.42649-.34523" fill="red" fill-rule="evenodd"/><path d="M252.77425,181.24658a.35287.35287,0,1,1-.42588.34523.392.392,0,0,1,.42588-.34523" fill="red" fill-rule="evenodd"/><path d="M253.23857,176.62369a.35277.35277,0,1,1-.42647.34522.3918.3918,0,0,1,.42647-.34522" fill="red" fill-rule="evenodd"/><path d="M258.50293,167.271a.35268.35268,0,1,1-.42588.34525.39206.39206,0,0,1,.42588-.34525" fill="red" fill-rule="evenodd"/><path d="M254.52517,160.60416a.353.353,0,1,1-.42647.34523.39276.39276,0,0,1,.42647-.34523" fill="red" fill-rule="evenodd"/><path d="M265.67011,152.79795a.35268.35268,0,1,1-.42586.34525.39208.39208,0,0,1,.42586-.34525" fill="red" fill-rule="evenodd"/><path d="M281.89674,159.95557a.384.384,0,1,1-.42587.38178.40566.40566,0,0,1,.42587-.38178" fill="red" fill-rule="evenodd"/><path d="M251.61356,195.51245a.35277.35277,0,1,1-.42647.34525.39244.39244,0,0,1,.42647-.34525" fill="red" fill-rule="evenodd"/><path d="M274.24437,196.60405a.35267.35267,0,1,1-.42587.34475.392.392,0,0,1,.42587-.34475" fill="red" fill-rule="evenodd"/><path d="M287.6919,167.961a.353.353,0,1,1-.42649.34522.39238.39238,0,0,1,.42649-.34522" fill="red" fill-rule="evenodd"/><path d="M313.263,164.52262a.4191.4191,0,1,1-.42646.41875.42234.42234,0,0,1,.42646-.41875" fill="red" fill-rule="evenodd"/><path d="M254.5303,154.326a.35267.35267,0,1,1-.42588.34525.39206.39206,0,0,1,.42588-.34525" fill="red" fill-rule="evenodd"/><path d="M265.41576,146.19062a.35277.35277,0,1,1-.42648.34475.39181.39181,0,0,1,.42648-.34475" fill="red" fill-rule="evenodd"/><path d="M254.753,148.233a.353.353,0,1,1-.42647.34522.39237.39237,0,0,1,.42647-.34522" fill="red" fill-rule="evenodd"/><path d="M266.27313,148.11277a.353.353,0,1,1-.42647.34522.39236.39236,0,0,1,.42647-.34522" fill="red" fill-rule="evenodd"/><path d="M256.434,160.66066a.35286.35286,0,1,1-.42588.34522.39237.39237,0,0,1,.42588-.34522" fill="red" fill-rule="evenodd"/><path d="M293.18974,97.77325a.35286.35286,0,1,1-.42588.34522.39236.39236,0,0,1,.42588-.34522" fill="red" fill-rule="evenodd"/><path d="M257.526,96.72862a.35277.35277,0,1,1-.42646.34522.3918.3918,0,0,1,.42646-.34522" fill="red" fill-rule="evenodd"/><path d="M255.03815,128.19492a.353.353,0,1,1-.42647.34523.39206.39206,0,0,1,.42647-.34523" fill="red" fill-rule="evenodd"/><path d="M288.03689,92.34145a.35267.35267,0,1,1-.42588.34475.392.392,0,0,1,.42588-.34475" fill="red" fill-rule="evenodd"/><path d="M242.7315,134.23845a.35279.35279,0,1,1-.42649.34475.39206.39206,0,0,1,.42649-.34475" fill="red" fill-rule="evenodd"/><path d="M294.63357,146.454a.34654.34654,0,1,1-.37928.34475.36294.36294,0,0,1,.37928-.34475" fill="red" fill-rule="evenodd"/><path d="M233.25466,193.48168a.35267.35267,0,1,1-.42588.34526.392.392,0,0,1,.42588-.34526" fill="red" fill-rule="evenodd"/><path d="M230.35027,193.49047a.35267.35267,0,1,1-.42588.34526.39207.39207,0,0,1,.42588-.34526" fill="red" fill-rule="evenodd"/><path d="M391.04634,167.33716a.44518.44518,0,1,1-.42647.4451.43617.43617,0,0,1,.42647-.4451" fill="red" fill-rule="evenodd"/><path d="M392.92446,170.35511a.44519.44519,0,1,1-.42646.44449.43548.43548,0,0,1,.42646-.44449" fill="red" fill-rule="evenodd"/><path d="M402.45593,190.59736a.44518.44518,0,1,1-.42647.44448.436.436,0,0,1,.42647-.44448" fill="red" fill-rule="evenodd"/><path d="M394.81482,187.55562a.44518.44518,0,1,1-.42646.44448.436.436,0,0,1,.42646-.44448" fill="red" fill-rule="evenodd"/><path d="M266.381,80.50708a.35277.35277,0,1,1-.42648.34474.39182.39182,0,0,1,.42648-.34474" fill="red" fill-rule="evenodd"/><path d="M396.80506,215.39923a.44518.44518,0,1,1-.42651.44444.43548.43548,0,0,1,.42651-.44444" fill="red" fill-rule="evenodd"/><rect x="279.07037" y="195.71379" width="9.30687" height="2.47002" rx="1.23501" fill="red"/><text transform="translate(280.46447 197.77537) scale(1.23534 1)" font-size="1.01768" fill="#fefefe" font-family="DINCond-Bold" font-weight="700">VREG_S4_1P85</text><path d="M274.85033,169.8302h5.06121a1.26056,1.26056,0,0,0,1.23289-1.28652h0a1.26056,1.26056,0,0,0-1.23289-1.28652h-5.06121a1.26056,1.26056,0,0,0-1.23289,1.28652h0A1.26056,1.26056,0,0,0,274.85033,169.8302Z" fill="red"/><text transform="translate(275.18904 169.40397) scale(1.18383 1)" font-size="1.06196" fill="#fefefe" font-family="DINCond-Bold" font-weight="700">VPH_PWR</text><rect x="253.76387" y="192.20422" width="10.31015" height="2.59592" rx="1.29796" fill="red"/><text transform="translate(255.44464 194.3917) scale(1.23534 1)" font-size="1.01768" fill="#fefefe" font-family="DINCond-Bold" font-weight="700">VREG_L1_1P225</text><path d="M256.13819,189.58254h6.76666a1.33543,1.33543,0,0,0,1.2701-1.39232h0a1.33542,1.33542,0,0,0-1.2701-1.39231h-6.76666a1.33543,1.33543,0,0,0-1.27011,1.39231h0A1.33543,1.33543,0,0,0,256.13819,189.58254Z" fill="red"/><text transform="translate(256.55155 189.13444) scale(1.12691 1)" font-size="1.1156" fill="#fefefe" font-family="DINCond-Bold" font-weight="700">VREG_L2_1P2</text><path d="M239.21623,191.387h6.83318a1.28479,1.28479,0,0,0,1.23684-1.32789h0a1.28479,1.28479,0,0,0-1.23684-1.32789h-6.83318a1.2848,1.2848,0,0,0-1.23685,1.32789h0A1.2848,1.2848,0,0,0,239.21623,191.387Z" fill="red"/><text transform="translate(239.41064 190.94889) scale(1.15065 1)" font-size="1.09258" fill="#fefefe" font-family="DINCond-Bold" font-weight="700">VREG_L3_1P15</text><rect x="262.96857" y="196.9488" width="9.30687" height="2.70791" rx="1.35396" fill="red"/><text transform="translate(264.53436 199.24815) scale(1.23534 1)" font-size="1.01768" fill="#fefefe" font-family="DINCond-Bold" font-weight="700">VREG_L4_2P05</text><rect x="275.96689" y="190.02977" width="9.30687" height="2.56569" rx="1.28284" fill="red"/><text transform="translate(277.64996 192.18693) scale(1.23534 1)" font-size="1.01768" fill="#fefefe" font-family="DINCond-Bold" font-weight="700">VREG_L5_1P8</text><path d="M300.94472,163.9681h6.853a1.25984,1.25984,0,0,0,1.227-1.29026h0a1.25984,1.25984,0,0,0-1.227-1.29026h-6.853a1.25985,1.25985,0,0,0-1.22705,1.29026h0A1.25985,1.25985,0,0,0,300.94472,163.9681Z" fill="red"/><text transform="translate(301.40136 163.53825) scale(1.17482 1)" font-size="1.07011" fill="#fefefe" font-family="DINCond-Bold" font-weight="700">VREG_L7_1P8</text><path d="M259.84215,180.43923h6.86731a1.28472,1.28472,0,0,0,1.21978-1.341h0a1.28472,1.28472,0,0,0-1.21978-1.341h-6.86731a1.28472,1.28472,0,0,0-1.21978,1.341h0A1.28472,1.28472,0,0,0,259.84215,180.43923Z" fill="red"/><text transform="translate(260.30583 179.9797) scale(1.12364 1)" font-size="1.11885" fill="#fefefe" font-family="DINCond-Bold" font-weight="700">VREG_L8_2P9</text><rect x="238.28081" y="169.91869" width="9.30687" height="2.46441" rx="1.2322" fill="red"/><text transform="translate(239.96392 171.97471) scale(1.23534 1)" font-size="1.01768" fill="#fefefe" font-family="DINCond-Bold" font-weight="700">VREG_L9_3P3</text><text transform="translate(241.94751 170.7999) scale(1.23534 1)" font-size="1.01768" fill="#fefefe" font-family="DINCond-Bold" font-weight="700">C426</text><path d="M263.28629,162.18686h6.94492a1.25315,1.25315,0,0,0,1.181-1.31456h0a1.25315,1.25315,0,0,0-1.181-1.31456h-6.94492a1.25315,1.25315,0,0,0-1.181,1.31456h0A1.25315,1.25315,0,0,0,263.28629,162.18686Z" fill="red"/><text transform="translate(263.53682 161.73258) scale(1.10981 1)" font-size="1.13279" fill="#fefefe" font-family="DINCond-Bold" font-weight="700">VREG_L10_2P8</text><path d="M239.64576,186.22588h6.88245a1.25394,1.25394,0,0,0,1.21221-1.29186h0a1.25393,1.25393,0,0,0-1.21221-1.29185h-6.88245a1.25393,1.25393,0,0,0-1.21221,1.29185h0A1.25394,1.25394,0,0,0,239.64576,186.22588Z" fill="red"/><text transform="translate(239.80224 185.79069) scale(1.15918 1)" font-size="1.08454" fill="#fefefe" font-family="DINCond-Bold" font-weight="700">VREG_L11_SDC</text><rect x="244.40727" y="155.58994" width="9.30687" height="2.50291" rx="1.25145" fill="red"/><text transform="translate(245.77618 157.6843) scale(1.23534 1)" font-size="1.01768" fill="#fefefe" font-family="DINCond-Bold" font-weight="700">VREG_L12_SDC</text><rect x="237.26962" y="174.51002" width="10.57379" height="2.42478" rx="1.21239" fill="red"/><text transform="translate(238.8305 176.52665) scale(1.23534 1)" font-size="1.01768" fill="#fefefe" font-family="DINCond-Bold" font-weight="700">VREG_L13_3P075</text><path d="M239.10212,181.76169h6.59946a1.39891,1.39891,0,0,0,1.35371-1.44009h0a1.39891,1.39891,0,0,0-1.35371-1.44009h-6.59946a1.3989,1.3989,0,0,0-1.3537,1.44009h0A1.3989,1.3989,0,0,0,239.10212,181.76169Z" fill="red"/><text transform="translate(238.90283 181.21452) scale(1.16124 1)" font-size="1.08262" fill="#fefefe" font-family="DINCond-Bold" font-weight="700">VREG_L14_UIM1</text><path d="M264.716,185.25715h6.62831a1.39933,1.39933,0,0,0,1.33941-1.45238h0a1.39933,1.39933,0,0,0-1.33941-1.45238H264.716a1.39933,1.39933,0,0,0-1.33941,1.45238h0A1.39933,1.39933,0,0,0,264.716,185.25715Z" fill="red"/><text transform="translate(264.53093 184.7404) scale(1.13926 1)" font-size="1.10351" fill="#fefefe" font-family="DINCond-Bold" font-weight="700">VREG_L15_UIM2</text><path d="M256.63275,175.8329h6.864a1.26151,1.26151,0,0,0,1.22143-1.29809h0a1.26152,1.26152,0,0,0-1.22143-1.2981h-6.864a1.26152,1.26152,0,0,0-1.22143,1.2981h0A1.26151,1.26151,0,0,0,256.63275,175.8329Z" fill="red"/><text transform="translate(256.84275 175.39909) scale(1.16238 1)" font-size="1.08155" fill="#fefefe" font-family="DINCond-Bold" font-weight="700">VREG_L16_1P8</text><path d="M243.82514,164.95144h6.67649a1.35,1.35,0,0,0,1.31519-1.38229h0a1.35,1.35,0,0,0-1.31519-1.38229h-6.67649a1.35,1.35,0,0,0-1.31519,1.38229h0A1.35,1.35,0,0,0,243.82514,164.95144Z" fill="red"/><text transform="translate(243.94091 164.52262) scale(1.17538 1)" font-size="1.0696" fill="#fefefe" font-family="DINCond-Bold" font-weight="700">VREG_L18_2P7</text><rect x="267.67793" y="151.74575" width="9.30713" height="2.4732" rx="1.2366" fill="red"/><text transform="translate(269.07226 153.8104) scale(1.23534 1)" font-size="1.01768" fill="#fefefe" font-family="DINCond-Bold" font-weight="700">VREG_S1_1P15</text><path d="M284.8643,161.48927h6.93024A1.31494,1.31494,0,0,0,292.983,160.077h0a1.31494,1.31494,0,0,0-1.18845-1.41226H284.8643a1.31494,1.31494,0,0,0-1.18845,1.41226h0A1.31494,1.31494,0,0,0,284.8643,161.48927Z" fill="red"/><text transform="translate(285.07031 161.00407) scale(1.03957 1)" font-size="1.20933" fill="#fefefe" font-family="DINCond-Bold" font-weight="700">VREG_S2_1P15</text><rect x="246.01996" y="200.7815" width="9.30687" height="2.54469" rx="1.27234" fill="red"/><text transform="translate(247.66632 202.91813) scale(1.23534 1)" font-size="1.01768" fill="#fefefe" font-family="DINCond-Bold" font-weight="700">VREG_S3_1P3</text><rect x="283.93579" y="170.1616" width="7.51219" height="2.43369" rx="1.21684" fill="red"/><text transform="translate(285.47558 172.18711) scale(1.23534 1)" font-size="1.01768" fill="#fefefe" font-family="DINCond-Bold" font-weight="700">BOOST_5V</text><path d="M316.22556,166.30667h9.67274a1.24593,1.24593,0,0,0,1.19539-1.291h0a1.24593,1.24593,0,0,0-1.19539-1.291h-9.67274a1.24593,1.24593,0,0,0-1.19539,1.291h0A1.24593,1.24593,0,0,0,316.22556,166.30667Z" fill="red"/><text transform="translate(316.9506 165.86503)" font-size="1.09905" fill="#fefefe" font-family="DINCond-Bold" font-weight="700">VDD_MIC_BIAS2_2.8V</text><rect x="245.26684" y="151.34871" width="7.597" height="2.46071" rx="1.23035" fill="red"/><text transform="translate(246.76416 153.40104) scale(1.23534 1)" font-size="1.01768" fill="#fefefe" font-family="DINCond-Bold" font-weight="700">VDD1_DDR</text><rect x="260.99468" y="141.93506" width="7.59698" height="2.60389" rx="1.30194" fill="red"/><text transform="translate(262.49194 144.13078) scale(1.23534 1)" font-size="1.01768" fill="#fefefe" font-family="DINCond-Bold" font-weight="700">VDD2_DDR</text><rect x="245.26684" y="145.54332" width="7.597" height="2.52217" rx="1.26108" fill="red"/><text transform="translate(246.44128 147.6572) scale(1.23534 1)" font-size="1.01768" fill="#fefefe" font-family="DINCond-Bold" font-weight="700">VDDCA_DDR</text><rect x="268.52896" y="147.10289" width="7.59702" height="2.5583" rx="1.27915" fill="red"/><text transform="translate(269.98816 149.25272) scale(1.23534 1)" font-size="1.01768" fill="#fefefe" font-family="DINCond-Bold" font-weight="700">VDDQ_DDR</text><path d="M236.67132,161.68979h6.66114a1.41236,1.41236,0,0,0,1.32287-1.48735h0a1.41235,1.41235,0,0,0-1.32287-1.48734h-6.66114a1.41235,1.41235,0,0,0-1.32287,1.48734h0A1.41236,1.41236,0,0,0,236.67132,161.68979Z" fill="red"/><text transform="translate(236.97021 161.23007) scale(1.09873 1)" font-size="1.14421" fill="#fefefe" font-family="DINCond-Bold" font-weight="700">VREF_LPDDR3</text><rect x="287.61101" y="100.21586" width="11.15745" height="2.75773" rx="1.37887" fill="red"/><text transform="translate(288.93481 102.56529) scale(1.23534 1)" font-size="1.01768" fill="#fefefe" font-family="DINCond-Bold" font-weight="700">VREG_CAM_AF_2P8</text><text transform="translate(292.25225 101.38999) scale(1.23534 1)" font-size="1.01768" fill="#fefefe" font-family="DINCond-Bold" font-weight="700">C630</text><path d="M243.83138,98.33927h10.09255a1.32533,1.32533,0,0,0,1.26543-1.378h0a1.32533,1.32533,0,0,0-1.26543-1.378H243.83138a1.32533,1.32533,0,0,0-1.26543,1.378h0A1.32533,1.32533,0,0,0,243.83138,98.33927Z" fill="red"/><text transform="translate(244.12692 97.8942) scale(1.13441 1)" font-size="1.10823" fill="#fefefe" font-family="DINCond-Bold" font-weight="700">CAM_SENSOR_IO_1P8</text><rect x="242.99788" y="127.18016" width="9.30687" height="2.71998" rx="1.35999" fill="red"/><text transform="translate(244.46411 129.4918) scale(1.23534 1)" font-size="1.01768" fill="#fefefe" font-family="DINCond-Bold" font-weight="700">VDD_LCD_3.0V</text><rect x="283.38376" y="87.86402" width="9.30687" height="2.51168" rx="1.25584" fill="red"/><text transform="translate(284.99456 89.96739) scale(1.23534 1)" font-size="1.01768" fill="#fefefe" font-family="DINCond-Bold" font-weight="700">VDD_PLS_3P0</text><text transform="translate(287.00836 88.79209) scale(1.23534 1)" font-size="1.01768" fill="#fefefe" font-family="DINCond-Bold" font-weight="700">C464</text><rect x="230.42891" y="133.25492" width="10.14263" height="2.65707" rx="1.32853" fill="red"/><text transform="translate(232.02411 135.5037) scale(1.23534 1)" font-size="1.01768" fill="#fefefe" font-family="DINCond-Bold" font-weight="700">VDD_TSP_A3.0V</text><rect x="296.48472" y="145.57758" width="10.85301" height="2.44242" rx="1.22121" fill="red"/><text transform="translate(297.90106 147.61088) scale(1.09865 1)" font-size="1.01768" fill="#fefefe" font-family="DINCond-Bold" font-weight="700">VDD_PX_BIAS_MPP1</text><rect x="234.6457" y="193.71427" width="9.81841" height="2.55046" rx="1.27523" fill="red"/><text transform="translate(235.9862 195.85612) scale(1.23534 1)" font-size="1.01768" fill="#fefefe" font-family="DINCond-Bold" font-weight="700">VWTR_RF1_1.3V</text><rect x="217.91801" y="193.71313" width="10.18725" height="2.55273" rx="1.27637" fill="red"/><text transform="translate(219.44256 195.85728) scale(1.23534 1)" font-size="1.01768" fill="#fefefe" font-family="DINCond-Bold" font-weight="700">VWTR_RF2_2.0V</text><rect x="379.19976" y="166.25913" width="9.30687" height="3.04564" rx="1.52282" fill="red"/><text transform="translate(381.18182 168.77744) scale(0.95814 1)" font-size="1.31209" fill="#fefefe" font-family="DINCond-Bold" font-weight="700">VDD_IO_1P8</text><rect x="394.94838" y="169.27576" width="9.30687" height="3.04828" rx="1.52414" fill="red"/><text transform="translate(396.80475 171.79722) scale(0.95814 1)" font-size="1.31209" fill="#fefefe" font-family="DINCond-Bold" font-weight="700">VDD_XO_1P8</text><rect x="405.92513" y="190.59363" width="9.30713" height="3.18661" rx="1.5933" fill="red"/><text transform="translate(407.29962 193.25352) scale(0.95814 1)" font-size="1.31209" fill="#fefefe" font-family="DINCond-Bold" font-weight="700">VDD_WCN_3P0</text><path d="M384.19524,186.41775h6.14218a1.58235,1.58235,0,0,1,1.58235,1.58235v0a1.58234,1.58234,0,0,1-1.58234,1.58234h-6.14218a1.58235,1.58235,0,0,1-1.58235-1.58235v0A1.58235,1.58235,0,0,1,384.19524,186.41775Z" fill="red"/><text transform="translate(383.73382 189.05583) scale(0.95814 1)" font-size="1.31209" fill="#fefefe" font-family="DINCond-Bold" font-weight="700">VDD_WLAN_1P3</text><rect x="252.03375" y="79.56468" width="12.20332" height="2.57429" rx="1.28714" fill="red"/><text transform="translate(253.8056 81.73032) scale(1.23534 1)" font-size="1.01768" fill="#fefefe" font-family="DINCond-Bold" font-weight="700">VDD_SENSOR_2.85V</text><text transform="translate(257.09851 80.55503) scale(1.23534 1)" font-size="1.01768" fill="#fefefe" font-family="DINCond-Bold" font-weight="700">C550</text><rect x="392.15131" y="210.73798" width="9.30687" height="3.11118" rx="1.55559" fill="red"/><text transform="translate(393.45276 213.32218) scale(0.95814 1)" font-size="1.31209" fill="#fefefe" font-family="DINCond-Bold" font-weight="700">VDD_UIM1_NFC</text><path d="M255.077,166.66775h6.85192a1.26264,1.26264,0,0,0,1.2276-1.295h0a1.26264,1.26264,0,0,0-1.2276-1.295H255.077a1.26264,1.26264,0,0,0-1.22761,1.295h0A1.26264,1.26264,0,0,0,255.077,166.66775Z" fill="red"/><text transform="translate(255.02897 166.23649) scale(1.17107 1)" font-size="1.07353" fill="#fefefe" font-family="DINCond-Bold" font-weight="700">VREG_L17_2P85</text><polyline points="599.479 181.449 599.479 179.801 596.31 179.801" fill="none" stroke="red" stroke-linejoin="round" stroke-width="0.26246"/><polyline points="601.261 181.449 601.261 179.801 604.431 179.801" fill="none" stroke="red" stroke-linejoin="round" stroke-width="0.26246"/><line x1="573.39123" y1="181.18707" x2="573.39123" y2="179.28041" fill="none" stroke="red" stroke-linejoin="round" stroke-width="0.26246"/><line x1="553.32814" y1="178.10078" x2="551.42204" y2="178.10078" fill="none" stroke="red" stroke-linejoin="round" stroke-width="0.26246"/><line x1="539.96476" y1="188.94732" x2="538.05806" y2="188.94732" fill="none" stroke="red" stroke-linejoin="round" stroke-width="0.26246"/><line x1="550.56428" y1="192.80294" x2="550.56428" y2="194.70964" fill="none" stroke="red" stroke-linejoin="round" stroke-width="0.26246"/><line x1="544.23241" y1="203.77304" x2="546.13911" y2="203.77304" fill="none" stroke="red" stroke-linejoin="round" stroke-width="0.26246"/><line x1="540.72885" y1="133.48226" x2="538.82215" y2="133.48226" fill="none" stroke="red" stroke-linejoin="round" stroke-width="0.26246"/><line x1="565.11283" y1="133.50697" x2="562.48935" y2="133.50697" fill="none" stroke="red" stroke-linejoin="round" stroke-width="0.26246"/><path d="M540.72885,133.04463a.43763.43763,0,1,1-.43763.43763.43715.43715,0,0,1,.43763-.43763" fill="red" fill-rule="evenodd"/><path d="M562.48935,133.06934a.43763.43763,0,1,1-.43763.43763.43714.43714,0,0,1,.43763-.43763" fill="red" fill-rule="evenodd"/><path d="M538.05806,188.50969a.43733.43733,0,1,1-.43764.43763.43716.43716,0,0,1,.43764-.43763" fill="red" fill-rule="evenodd"/><path d="M573.39123,180.74944a.43733.43733,0,1,1-.43764.43763.4377.4377,0,0,1,.43764-.43763" fill="red" fill-rule="evenodd"/><path d="M599.47878,181.01179a.43733.43733,0,1,1-.437.43763.43731.43731,0,0,1,.437-.43763" fill="red" fill-rule="evenodd"/><path d="M550.56428,192.36528a.43765.43765,0,1,1-.43763.43766.43774.43774,0,0,1,.43763-.43766" fill="red" fill-rule="evenodd"/><path d="M546.13911,203.3354a.43764.43764,0,1,1-.43763.43764.43756.43756,0,0,1,.43763-.43764" fill="red" fill-rule="evenodd"/><path d="M553.32814,177.66316a.43763.43763,0,1,1-.437.43762.43726.43726,0,0,1,.437-.43762" fill="red" fill-rule="evenodd"/><path d="M601.261,181.01179a.43733.43733,0,1,1-.437.43763.43731.43731,0,0,1,.437-.43763" fill="red" fill-rule="evenodd"/><rect x="529.86652" y="131.97608" width="9.55038" height="3.01236" rx="1.50618" fill="red"/><text transform="translate(531.59356 134.47105)" font-size="1.29007" fill="#fefefe" font-family="DINCond-Bold" font-weight="700">VREG_L6_1P8</text><rect x="564.60715" y="132.01064" width="9.55063" height="2.99265" rx="1.49632" fill="red"/><text transform="translate(566.16839 134.48582)" font-size="1.29007" fill="#fefefe" font-family="DINCond-Bold" font-weight="700">VREF_XO_THM</text><rect x="539.42365" y="187.44005" width="9.55039" height="3.01453" rx="1.50726" fill="red"/><text transform="translate(541.13311 189.93778)" font-size="1.29007" fill="#fefefe" font-family="DINCond-Bold" font-weight="700">VUSB_FET_5V</text><rect x="569.44216" y="176.51262" width="7.79576" height="3.0054" rx="1.5027" fill="red"/><text transform="translate(570.57354 179.00016)" font-size="1.29007" fill="#fefefe" font-family="DINCond-Bold" font-weight="700">VCCQ_EMMC</text><rect x="589.68464" y="178.27232" width="7.79578" height="3.05781" rx="1.5289" fill="red"/><text transform="translate(591.1145 180.81327)" font-size="1.29007" fill="#fefefe" font-family="DINCond-Bold" font-weight="700">VCC_EMMC</text><rect x="545.78897" y="194.59392" width="9.55063" height="3.0112" rx="1.5056" fill="red"/><text transform="translate(547.03582 197.08756)" font-size="1.29007" fill="#fefefe" font-family="DINCond-Bold" font-weight="700">CAM_CORE_1P2</text><rect x="533.16139" y="202.23415" width="11.33537" height="3.07778" rx="1.53889" fill="red"/><text transform="translate(534.39434 204.7949)" font-size="1.29007" fill="#fefefe" font-family="DINCond-Bold" font-weight="700">CAM_SENSOR_A2P8</text><rect x="540.67048" y="176.58178" width="11.34185" height="3.03801" rx="1.51901" fill="red"/><text transform="translate(542.17773 179.1027)" font-size="1.29007" fill="#fefefe" font-family="DINCond-Bold" font-weight="700">VDD_MUIC_IO_1P8</text><rect x="602.11807" y="178.28468" width="13.90031" height="3.03309" rx="1.51654" fill="red"/><text transform="translate(604.14105 180.80094)" font-size="1.29007" fill="#fefefe" font-family="DINCond-Bold" font-weight="700">VDD_SENSOR_IO_1.8V</text><text transform="translate(537.76428 203.40299)" font-size="1.29007" fill="#fefefe" font-family="DINCond-Bold" font-weight="700">C486</text><text transform="translate(549.5224 195.77952)" font-size="1.29007" fill="#fefefe" font-family="DINCond-Bold" font-weight="700">C485</text><text transform="translate(543.21368 188.62644)" font-size="1.29007" fill="#fefefe" font-family="DINCond-Bold" font-weight="700">C473</text><text transform="translate(545.49267 177.72447)" font-size="1.29007" fill="#fefefe" font-family="DINCond-Bold" font-weight="700">C477</text><text transform="translate(572.27575 177.72447)" font-size="1.29007" fill="#fefefe" font-family="DINCond-Bold" font-weight="700">C528</text><text transform="translate(592.51782 179.45445)" font-size="1.29007" fill="#fefefe" font-family="DINCond-Bold" font-weight="700">C530</text><text transform="translate(608.36059 179.40379)" font-size="1.29007" fill="#fefefe" font-family="DINCond-Bold" font-weight="700">R518</text><text transform="translate(568.29821 133.16502)" font-size="1.29007" fill="#fefefe" font-family="DINCond-Bold" font-weight="700">R334</text><text transform="translate(533.57696 133.1652)" font-size="1.29007" fill="#fefefe" font-family="DINCond-Bold" font-weight="700">C300</text><text transform="translate(409.45379 191.73887) scale(0.95814 1)" font-size="1.31209" fill="#fefefe" font-family="DINCond-Bold" font-weight="700">C201</text><text transform="translate(386.16784 187.54069) scale(0.95814 1)" font-size="1.31209" fill="#fefefe" font-family="DINCond-Bold" font-weight="700">C200</text><text transform="translate(395.78576 211.98686) scale(0.95814 1)" font-size="1.31209" fill="#fefefe" font-family="DINCond-Bold" font-weight="700">C624</text><text transform="translate(398.53985 170.49241) scale(0.95814 1)" font-size="1.31209" fill="#fefefe" font-family="DINCond-Bold" font-weight="700">C221</text><text transform="translate(382.86224 167.45799) scale(0.95814 1)" font-size="1.31209" fill="#fefefe" font-family="DINCond-Bold" font-weight="700">C205</text><text transform="translate(320.15951 164.6943)" font-size="1.09905" fill="#fefefe" font-family="DINCond-Bold" font-weight="700">C533</text><text transform="translate(303.40381 162.42301) scale(1.17482 1)" font-size="1.07011" fill="#fefefe" font-family="DINCond-Bold" font-weight="700">C365</text><text transform="translate(286.62256 171.14072) scale(1.23534 1)" font-size="1.01768" fill="#fefefe" font-family="DINCond-Bold" font-weight="700">C443</text><text transform="translate(301.11938 146.43607) scale(1.09865 1)" font-size="1.01768" fill="#fefefe" font-family="DINCond-Bold" font-weight="700">C306</text><text transform="translate(287.29248 159.90878) scale(1.03957 1)" font-size="1.20933" fill="#fefefe" font-family="DINCond-Bold" font-weight="700">C450</text><text transform="translate(276.34383 168.30618) scale(1.18383 1)" font-size="1.06196" fill="#fefefe" font-family="DINCond-Bold" font-weight="700">C401</text><text transform="translate(282.74841 196.60056) scale(1.23534 1)" font-size="1.01768" fill="#fefefe" font-family="DINCond-Bold" font-weight="700">C454</text><text transform="translate(279.63311 191.01212) scale(1.23534 1)" font-size="1.01768" fill="#fefefe" font-family="DINCond-Bold" font-weight="700">C400</text><text transform="translate(265.72164 160.60416) scale(1.10981 1)" font-size="1.13279" fill="#fefefe" font-family="DINCond-Bold" font-weight="700">C427</text><text transform="translate(257.46598 165.14397) scale(1.17107 1)" font-size="1.07353" fill="#fefefe" font-family="DINCond-Bold" font-weight="700">C433</text><text transform="translate(241.70459 175.35185) scale(1.23534 1)" font-size="1.01768" fill="#fefefe" font-family="DINCond-Bold" font-weight="700">C430</text><text transform="translate(241.50537 179.96403) scale(1.16124 1)" font-size="1.08262" fill="#fefefe" font-family="DINCond-Bold" font-weight="700">C437</text><text transform="translate(259.0278 174.28506) scale(1.16238 1)" font-size="1.08155" fill="#fefefe" font-family="DINCond-Bold" font-weight="700">C432</text><text transform="translate(262.23869 178.87423) scale(1.12364 1)" font-size="1.11885" fill="#fefefe" font-family="DINCond-Bold" font-weight="700">C425</text><text transform="translate(266.99309 183.4904) scale(1.13926 1)" font-size="1.10351" fill="#fefefe" font-family="DINCond-Bold" font-weight="700">C431</text><text transform="translate(258.48441 187.94564) scale(1.12691 1)" font-size="1.1156" fill="#fefefe" font-family="DINCond-Bold" font-weight="700">C419</text><text transform="translate(241.68847 189.81761) scale(1.15065 1)" font-size="1.09258" fill="#fefefe" font-family="DINCond-Bold" font-weight="700">C420</text><text transform="translate(242.12304 184.70178) scale(1.15918 1)" font-size="1.08454" fill="#fefefe" font-family="DINCond-Bold" font-weight="700">C428</text><text transform="translate(258.02819 193.21641) scale(1.23534 1)" font-size="1.01768" fill="#fefefe" font-family="DINCond-Bold" font-weight="700">C418</text><text transform="translate(249.67407 201.74333) scale(1.23534 1)" font-size="1.01768" fill="#fefefe" font-family="DINCond-Bold" font-weight="700">C452</text><text transform="translate(266.68847 198.07432) scale(1.23534 1)" font-size="1.01768" fill="#fefefe" font-family="DINCond-Bold" font-weight="700">C499</text><text transform="translate(222.05413 194.69126) scale(1.23534 1)" font-size="1.01768" fill="#fefefe" font-family="DINCond-Bold" font-weight="700">L212</text><text transform="translate(238.60406 194.68131) scale(1.23534 1)" font-size="1.01768" fill="#fefefe" font-family="DINCond-Bold" font-weight="700">L213</text><text transform="translate(238.99951 159.90878) scale(1.09873 1)" font-size="1.14421" fill="#fefefe" font-family="DINCond-Bold" font-weight="700">C415</text><text transform="translate(246.12646 163.28727) scale(1.17538 1)" font-size="1.0696" fill="#fefefe" font-family="DINCond-Bold" font-weight="700">C434</text><text transform="translate(248.09973 156.51048) scale(1.23534 1)" font-size="1.01768" fill="#fefefe" font-family="DINCond-Bold" font-weight="700">C429</text><text transform="translate(247.9132 152.22575) scale(1.23534 1)" font-size="1.01768" fill="#fefefe" font-family="DINCond-Bold" font-weight="700">C501</text><text transform="translate(247.92218 146.4824) scale(1.23534 1)" font-size="1.01768" fill="#fefefe" font-family="DINCond-Bold" font-weight="700">C522</text><text transform="translate(263.61743 142.95548) scale(1.23534 1)" font-size="1.01768" fill="#fefefe" font-family="DINCond-Bold" font-weight="700">C504</text><text transform="translate(271.13305 148.07792) scale(1.23534 1)" font-size="1.01768" fill="#fefefe" font-family="DINCond-Bold" font-weight="700">C524</text><text transform="translate(271.37622 152.63511) scale(1.23534 1)" font-size="1.01768" fill="#fefefe" font-family="DINCond-Bold" font-weight="700">C448</text><text transform="translate(234.64245 134.3289) scale(1.23534 1)" font-size="1.01768" fill="#fefefe" font-family="DINCond-Bold" font-weight="700">C635</text><text transform="translate(246.75427 128.21812) scale(1.23534 1)" font-size="1.01768" fill="#fefefe" font-family="DINCond-Bold" font-weight="700">C608</text><text transform="translate(247.84054 96.61491) scale(1.13441 1)" font-size="1.10823" fill="#fefefe" font-family="DINCond-Bold" font-weight="700">C606</text><path d="M646.33029,43a21.50121,21.50121,0,1,0-.4512-43H195.90051a21.50121,21.50121,0,1,0-.451,43Z" fill="#292c31"/><text transform="translate(302.91601 26.79612)" font-size="16" fill="#fff" font-family="DINCond-Bold" font-weight="700">SAMSUNG SM-G530H &gt; <tspan x="124.62012" y="0" font-size="14">INPUT OUTPUT </tspan><tspan x="195.47266" y="0" font-size="14" letter-spacing="0.003em">V</tspan><tspan x="201.63281" y="0" font-size="14">O</tspan><tspan x="208.10059" y="0" font-size="14" letter-spacing="-0.05001em">L</tspan><tspan x="212.7627" y="0" font-size="14" letter-spacing="-0.05197em">T</tspan><tspan x="217.53711" y="0" font-size="14" letter-spacing="-0.00405em">A</tspan><tspan x="224.03223" y="0" font-size="14">GE</tspan></text><rect width="841.88976" height="595.27559" fill="none"/></svg>