<svg xmlns="http://www.w3.org/2000/svg" viewBox="0 0 841.88976 595.27559"><title>Amoled</title><path d="M454.404,194.14176a.36994.36994,0,1,1,.37.36995.36977.36977,0,0,1-.37-.36995" style="fill:#b8b8b8"/><path d="M451.91759,194.14176a.37.37,0,1,1,.36995.36995.36976.36976,0,0,1-.36995-.36995" style="fill:#b8b8b8"/><path d="M449.43115,194.14176a.37.37,0,1,1,.37.36995.36976.36976,0,0,1-.37-.36995" style="fill:#b8b8b8"/><path d="M448.18793,194.14176a.36995.36995,0,1,1,.37.36995.37008.37008,0,0,1-.37-.36995" style="fill:#b8b8b8"/><path d="M446.94471,194.14176a.37.37,0,1,1,.37.36995.3701.3701,0,0,1-.37-.36995" style="fill:#b8b8b8"/><path d="M454.774,183.32282a.36971.36971,0,1,1,.36992-.36947.36971.36971,0,0,1-.36992.36947" style="fill:#b8b8b8"/><path d="M454.774,184.566a.36971.36971,0,1,1,.36992-.37.36979.36979,0,0,1-.36992.37" style="fill:#b8b8b8"/><path d="M454.774,185.8092a.36994.36994,0,1,1,.36992-.36992.36977.36977,0,0,1-.36992.36992" style="fill:#b8b8b8"/><path d="M454.774,188.29564a.36994.36994,0,1,1,.36992-.36995.36977.36977,0,0,1-.36992.36995" style="fill:#b8b8b8"/><path d="M454.774,189.53886a.36994.36994,0,1,1,.36992-.36995.36979.36979,0,0,1-.36992.36995" style="fill:#b8b8b8"/><path d="M454.774,190.78208a.37.37,0,1,1,.36992-.37.36979.36979,0,0,1-.36992.37" style="fill:#b8b8b8"/><path d="M454.774,192.02527a.37.37,0,1,1,.36992-.37.3701.3701,0,0,1-.36992.37" style="fill:#b8b8b8"/><path d="M454.774,193.26849a.37.37,0,1,1,.36992-.37.36977.36977,0,0,1-.36992.37" style="fill:#b8b8b8"/><path d="M453.53073,184.566a.36971.36971,0,1,1,.36947-.37.36979.36979,0,0,1-.36947.37" style="fill:#b8b8b8"/><path d="M453.53073,185.8092a.36994.36994,0,1,1,.36947-.36992.36977.36977,0,0,1-.36947.36992" style="fill:#b8b8b8"/><path d="M453.53073,187.05242a.36994.36994,0,1,1,.36947-.36992.36977.36977,0,0,1-.36947.36992" style="fill:#b8b8b8"/><path d="M453.53073,190.78208a.37.37,0,1,1,.36947-.37.36979.36979,0,0,1-.36947.37" style="fill:#b8b8b8"/><path d="M452.28754,190.78208a.37.37,0,1,1,.37-.37.36977.36977,0,0,1-.37.37" style="fill:#b8b8b8"/><path d="M451.04432,183.32282a.36971.36971,0,1,1,.36995-.36947.36969.36969,0,0,1-.36995.36947" style="fill:#b8b8b8"/><path d="M451.04432,184.566a.36971.36971,0,1,1,.36995-.37.36977.36977,0,0,1-.36995.37" style="fill:#b8b8b8"/><path d="M451.04432,185.8092a.36994.36994,0,1,1,.36995-.36992.36975.36975,0,0,1-.36995.36992" style="fill:#b8b8b8"/><path d="M451.04432,187.05242a.36994.36994,0,1,1,.36995-.36992.36975.36975,0,0,1-.36995.36992" style="fill:#b8b8b8"/><path d="M451.04432,188.29564a.36994.36994,0,1,1,.36995-.36995.36976.36976,0,0,1-.36995.36995" style="fill:#b8b8b8"/><path d="M449.8011,183.32282a.36971.36971,0,1,1,.36995-.36947.3697.3697,0,0,1-.36995.36947" style="fill:#b8b8b8"/><path d="M449.8011,188.29564a.36994.36994,0,1,1,.36995-.36995.36976.36976,0,0,1-.36995.36995" style="fill:#b8b8b8"/><path d="M449.8011,192.02527a.36995.36995,0,1,1,.36995-.37.37009.37009,0,0,1-.36995.37" style="fill:#b8b8b8"/><path d="M449.8011,193.26849a.36995.36995,0,1,1,.36995-.37.36976.36976,0,0,1-.36995.37" style="fill:#b8b8b8"/><path d="M448.55788,183.32282a.36971.36971,0,1,1,.36995-.36947.37.37,0,0,1-.36995.36947" style="fill:#b8b8b8"/><path d="M448.55788,184.566a.36971.36971,0,1,1,.36995-.37.3701.3701,0,0,1-.36995.37" style="fill:#b8b8b8"/><path d="M448.55788,185.8092a.36994.36994,0,1,1,.36995-.36992.37008.37008,0,0,1-.36995.36992" style="fill:#b8b8b8"/><path d="M448.55788,190.78208a.37.37,0,1,1,.36995-.37.3701.3701,0,0,1-.36995.37" style="fill:#b8b8b8"/><path d="M448.55788,193.26849a.36995.36995,0,1,1,.36995-.37.37008.37008,0,0,1-.36995.37" style="fill:#b8b8b8"/><path d="M447.31466,190.78208a.37.37,0,1,1,.37-.37.37012.37012,0,0,1-.37.37" style="fill:#b8b8b8"/><path d="M447.31466,192.02527a.36995.36995,0,1,1,.37-.37.37043.37043,0,0,1-.37.37" style="fill:#b8b8b8"/><path d="M447.31466,193.26849a.36995.36995,0,1,1,.37-.37.3701.3701,0,0,1-.37.37" style="fill:#b8b8b8"/><path d="M445.76917,194.14176a.37.37,0,1,1,.37.36995.36978.36978,0,0,1-.37-.36995" style="fill:#b8b8b8"/><path d="M444.526,194.14176a.36995.36995,0,1,1,.36995.36995.36978.36978,0,0,1-.36995-.36995" style="fill:#b8b8b8"/><path d="M443.28276,194.14176a.36995.36995,0,1,1,.37.36995.37008.37008,0,0,1-.37-.36995" style="fill:#b8b8b8"/><path d="M446.13912,184.566a.36971.36971,0,1,1,.37-.37.3698.3698,0,0,1-.37.37" style="fill:#b8b8b8"/><path d="M446.24721,185.8092a.36994.36994,0,1,1,.36992-.36992.37006.37006,0,0,1-.36992.36992" style="fill:#b8b8b8"/><path d="M446.13912,188.29564a.36994.36994,0,1,1,.37-.36995.36978.36978,0,0,1-.37.36995" style="fill:#b8b8b8"/><path d="M446.13912,189.53886a.36994.36994,0,1,1,.37-.36995.3698.3698,0,0,1-.37.36995" style="fill:#b8b8b8"/><path d="M446.13912,193.26849a.36995.36995,0,1,1,.37-.37.36978.36978,0,0,1-.37.37" style="fill:#b8b8b8"/><path d="M444.8959,183.32282a.36971.36971,0,1,1,.37-.36947.36972.36972,0,0,1-.37.36947" style="fill:#b8b8b8"/><path d="M444.8959,184.566a.36971.36971,0,1,1,.37-.37.3698.3698,0,0,1-.37.37" style="fill:#b8b8b8"/><path d="M444.8959,188.29564a.36994.36994,0,1,1,.37-.36995.36978.36978,0,0,1-.37.36995" style="fill:#b8b8b8"/><path d="M444.8959,189.53886a.36994.36994,0,1,1,.37-.36995.3698.3698,0,0,1-.37.36995" style="fill:#b8b8b8"/><path d="M444.8959,190.78208a.37.37,0,1,1,.37-.37.3698.3698,0,0,1-.37.37" style="fill:#b8b8b8"/><path d="M444.8959,192.02527a.36995.36995,0,1,1,.37-.37.37011.37011,0,0,1-.37.37" style="fill:#b8b8b8"/><path d="M444.8959,193.26849a.36995.36995,0,1,1,.37-.37.36978.36978,0,0,1-.37.37" style="fill:#b8b8b8"/><path d="M443.65271,183.32282a.36971.36971,0,1,1,.36995-.36947.37.37,0,0,1-.36995.36947" style="fill:#b8b8b8"/><path d="M443.65271,188.29564a.36994.36994,0,1,1,.36995-.36995.37008.37008,0,0,1-.36995.36995" style="fill:#b8b8b8"/><path d="M443.65271,189.53886a.36994.36994,0,1,1,.36995-.36995.3701.3701,0,0,1-.36995.36995" style="fill:#b8b8b8"/><path d="M443.65271,190.78208a.37.37,0,1,1,.36995-.37.3701.3701,0,0,1-.36995.37" style="fill:#b8b8b8"/><path d="M443.65271,192.02527a.36995.36995,0,1,1,.36995-.37.37041.37041,0,0,1-.36995.37" style="fill:#b8b8b8"/><path d="M443.65271,193.26849a.36995.36995,0,1,1,.36995-.37.37008.37008,0,0,1-.36995.37" style="fill:#b8b8b8"/><path d="M453.16078,194.14176a.36971.36971,0,1,1,.37.36995.36977.36977,0,0,1-.37-.36995" style="fill:#b8b8b8"/><path d="M453.53073,192.02527a.37.37,0,1,1,.36947-.37.3701.3701,0,0,1-.36947.37" style="fill:#b8b8b8"/><path d="M453.53073,193.26849a.37.37,0,1,1,.36947-.37.36977.36977,0,0,1-.36947.37" style="fill:#b8b8b8"/><path d="M450.67437,194.14176a.36995.36995,0,1,1,.37.36995.36976.36976,0,0,1-.37-.36995" style="fill:#b8b8b8"/><path d="M451.04432,193.26849a.36995.36995,0,1,1,.36995-.37.36976.36976,0,0,1-.36995.37" style="fill:#b8b8b8"/><path d="M449.8011,187.05242a.36994.36994,0,1,1,.36995-.36992.36976.36976,0,0,1-.36995.36992" style="fill:#b8b8b8"/><path d="M446.13912,187.05242a.36994.36994,0,1,1,.37-.36992.36977.36977,0,0,1-.37.36992" style="fill:#b8b8b8"/><path d="M444.8959,187.05242a.36994.36994,0,1,1,.37-.36992.36977.36977,0,0,1-.37.36992" style="fill:#b8b8b8"/><path d="M443.65271,187.05242a.36994.36994,0,1,1,.36995-.36992.37008.37008,0,0,1-.36995.36992" style="fill:#b8b8b8"/><path d="M443.65271,184.566a.36971.36971,0,1,1,.36995-.37.3701.3701,0,0,1-.36995.37" style="fill:#b8b8b8"/><path d="M446.13912,190.78208a.37.37,0,1,1,.37-.37.3698.3698,0,0,1-.37.37" style="fill:#b8b8b8"/><path d="M448.55788,192.02527a.36995.36995,0,1,1,.36995-.37.37008.37008,0,0,1-.36995.37" style="fill:#b8b8b8"/><path d="M453.53073,188.29564a.36994.36994,0,1,1,.36947-.36995.36977.36977,0,0,1-.36947.36995" style="fill:#b8b8b8"/><path d="M453.53073,189.53886a.36994.36994,0,1,1,.36947-.36995.36979.36979,0,0,1-.36947.36995" style="fill:#b8b8b8"/><path d="M453.53073,183.32282a.36971.36971,0,1,1,.36947-.37.36981.36981,0,0,1-.36947.37" style="fill:#b8b8b8"/><path d="M452.28754,183.32282a.36971.36971,0,1,1,.37-.37.36979.36979,0,0,1-.37.37" style="fill:#b8b8b8"/><path d="M449.8011,185.8092a.36994.36994,0,1,1,.36995-.36992.36976.36976,0,0,1-.36995.36992" style="fill:#b8b8b8"/><path d="M449.8011,184.566a.36971.36971,0,1,1,.36995-.37.36978.36978,0,0,1-.36995.37" style="fill:#b8b8b8"/><path d="M449.8011,190.78208a.37.37,0,1,1,.36995-.37.36978.36978,0,0,1-.36995.37" style="fill:#b8b8b8"/><path d="M446.13912,183.32282a.36971.36971,0,1,1,.37-.36947.36972.36972,0,0,1-.37.36947" style="fill:#b8b8b8"/><path d="M443.65271,185.8092a.36994.36994,0,1,1,.36995-.36992.37008.37008,0,0,1-.36995.36992" style="fill:#b8b8b8"/><path d="M443.65271,185.8092a.36994.36994,0,1,1,.36995-.36992.37008.37008,0,0,1-.36995.36992" style="fill:#b8b8b8"/><path d="M452.28754,192.02527a.36995.36995,0,1,1,.37-.37.37041.37041,0,0,1-.37.37" style="fill:#b8b8b8"/><path d="M454.774,187.05242a.36994.36994,0,1,1,.36992-.36992.36977.36977,0,0,1-.36992.36992" style="fill:#b8b8b8"/><path d="M448.55788,187.05242a.36994.36994,0,1,1,.36995-.36992.36977.36977,0,0,1-.36995.36992" style="fill:#b8b8b8"/><path d="M452.28754,189.53886a.36994.36994,0,1,1,.37-.36995.36977.36977,0,0,1-.37.36995" style="fill:#b8b8b8"/><path d="M448.55788,189.53886a.36994.36994,0,1,1,.36995-.36995.3701.3701,0,0,1-.36995.36995" style="fill:#b8b8b8"/><path d="M447.31466,189.53886a.36994.36994,0,1,1,.37-.36995.37012.37012,0,0,1-.37.36995" style="fill:#b8b8b8"/><path d="M449.8011,189.53886a.36994.36994,0,1,1,.36995-.36995.36978.36978,0,0,1-.36995.36995" style="fill:#b8b8b8"/><path d="M447.31466,183.32282a.36971.36971,0,1,1,.37-.36947.37.37,0,0,1-.37.36947" style="fill:#b8b8b8"/><path d="M447.31466,184.566a.36971.36971,0,1,1,.37-.37.37012.37012,0,0,1-.37.37" style="fill:#b8b8b8"/><path d="M447.31466,185.8092a.36994.36994,0,1,1,.37-.36992.37009.37009,0,0,1-.37.36992" style="fill:#b8b8b8"/><path d="M447.31466,188.29564a.36994.36994,0,1,1,.37-.36995.3701.3701,0,0,1-.37.36995" style="fill:#b8b8b8"/><path d="M452.28754,184.566a.36971.36971,0,1,1,.37-.37.36977.36977,0,0,1-.37.37" style="fill:#b8b8b8"/><path d="M452.28754,185.8092a.36994.36994,0,1,1,.37-.36992.36975.36975,0,0,1-.37.36992" style="fill:#b8b8b8"/><path d="M452.28754,187.05242a.36994.36994,0,1,1,.37-.36992.36975.36975,0,0,1-.37.36992" style="fill:#b8b8b8"/><path d="M452.28754,188.29564a.36994.36994,0,1,1,.37-.36995.36976.36976,0,0,1-.37.36995" style="fill:#b8b8b8"/><polyline points="392.07 137.854 367.408 137.713 367.408 210.631 391.776 210.771 391.776 207.741" style="fill:none;stroke:#fff800;stroke-linejoin:round;stroke-width:0.200000002980232px"/><polyline points="392.07 138.851 366.05 138.851 366.05 211.952 394.265 211.952 394.265 205.208" style="fill:none;stroke:#b4ff22;stroke-linejoin:round;stroke-width:0.200000002980232px"/><path d="M397.002,120.76818a.33849.33849,0,1,1,.338.338.33842.33842,0,0,1-.338-.338" style="fill:#ff1a77;fill-rule:evenodd"/><path d="M407.64573,201.34817a.33849.33849,0,1,1,.338.339.33755.33755,0,0,1-.338-.339" style="fill:#ff1a77;fill-rule:evenodd"/><path d="M406.11933,201.34817a.33849.33849,0,1,1,.338.339.33755.33755,0,0,1-.338-.339" style="fill:#ff1a77;fill-rule:evenodd"/><path d="M405.30631,203.78817a.33849.33849,0,1,1,.338.338.3382.3382,0,0,1-.338-.338" style="fill:#ff1a77;fill-rule:evenodd"/><path d="M407.60572,203.78817a.339.339,0,1,1,.339.338.33842.33842,0,0,1-.339-.338" style="fill:#ff1a77;fill-rule:evenodd"/><path d="M402.82783,203.78817a.339.339,0,1,1,.338.338.3382.3382,0,0,1-.338-.338" style="fill:#ff1a77;fill-rule:evenodd"/><path d="M399.67552,203.78817a.33849.33849,0,1,1,.339.338.33777.33777,0,0,1-.339-.338" style="fill:#ff1a77;fill-rule:evenodd"/><path d="M396.22483,203.78817a.339.339,0,1,1,.338.338.33755.33755,0,0,1-.338-.338" style="fill:#ff1a77;fill-rule:evenodd"/><path d="M393.926,203.78817a.339.339,0,1,1,.339.338.33842.33842,0,0,1-.339-.338" style="fill:#ff1a77;fill-rule:evenodd"/><polyline points="394.264 203.788 407.984 203.788 407.984 201.363 405.509 201.363 405.509 198.826 411.678 198.826 411.678 120.768 397.341 120.768 397.341 125.712 399.816 125.712 399.816 130.538 397.696 130.538 397.696 131.588" style="fill:none;stroke:#ff1a77;stroke-linejoin:round;stroke-width:0.200000002980232px"/><path d="M395.01083,120.76568a.33849.33849,0,1,1,.338.338.33755.33755,0,0,1-.338-.338" style="fill:#ff50ce;fill-rule:evenodd"/><path d="M376.50123,206.37646a.33849.33849,0,1,1,.338.338.33842.33842,0,0,1-.338-.338" style="fill:#ff50ce;fill-rule:evenodd"/><path d="M376.50123,207.99807a.33849.33849,0,1,1,.338.339.33755.33755,0,0,1-.338-.339" style="fill:#ff50ce;fill-rule:evenodd"/><path d="M377.92793,207.38046a.33849.33849,0,1,1,.338.338.33756.33756,0,0,1-.338-.338" style="fill:#ff50ce;fill-rule:evenodd"/><path d="M380.33372,207.38046a.33849.33849,0,1,1,.338.338.33756.33756,0,0,1-.338-.338" style="fill:#ff50ce;fill-rule:evenodd"/><path d="M381.655,204.57867a.33849.33849,0,1,1,.338.338.33755.33755,0,0,1-.338-.338" style="fill:#ff50ce;fill-rule:evenodd"/><path d="M378.64134,204.57867a.33849.33849,0,1,1,.339.338.33777.33777,0,0,1-.339-.338" style="fill:#ff50ce;fill-rule:evenodd"/><path d="M375.04612,204.57867a.33849.33849,0,1,1,.339.338.33842.33842,0,0,1-.339-.338" style="fill:#ff50ce;fill-rule:evenodd"/><path d="M384.402,203.90188a.33849.33849,0,1,1,.338.338.33755.33755,0,0,1-.338-.338" style="fill:#ff50ce;fill-rule:evenodd"/><polyline points="384.76 203.902 382.008 203.902 382.008 205.562 380.672 205.562 380.672 207.381 378.266 207.381 378.266 206.377 376.84 206.377 376.84 209.914 368.724 209.914 368.724 115.75 395.337 115.75 395.358 120.766 395.349 120.766 395.349 125.965 390.65 125.965 390.65 130.511 392.07 130.511 392.07 131.562" style="fill:none;stroke:#ff50ce;stroke-linejoin:round;stroke-width:0.200000002980232px"/><polyline points="375.385 204.579 375.385 205.562 380.672 205.562" style="fill:none;stroke:#ff50ce;stroke-linejoin:round;stroke-width:0.200000002980232px"/><line x1="378.98023" y1="204.57867" x2="378.98023" y2="205.56167" style="fill:none;stroke:#ff50ce;stroke-linejoin:round;stroke-width:0.200000002980232px"/><path d="M392.43092,119.732a.33849.33849,0,1,1,.338.339.33756.33756,0,0,1-.338-.339" style="fill:#ff0098;fill-rule:evenodd"/><path d="M398.299,172.629a.339.339,0,1,1,.339.338.33928.33928,0,0,1-.339-.338" style="fill:#ff0098;fill-rule:evenodd"/><path d="M399.74293,172.629a.33849.33849,0,1,1,.338.338.33842.33842,0,0,1-.338-.338" style="fill:#ff0098;fill-rule:evenodd"/><path d="M399.74293,174.06448a.33849.33849,0,1,1,.338.338.33842.33842,0,0,1-.338-.338" style="fill:#ff0098;fill-rule:evenodd"/><path d="M399.74293,176.33257a.33849.33849,0,1,1,.338.338.33755.33755,0,0,1-.338-.338" style="fill:#ff0098;fill-rule:evenodd"/><path d="M396.18183,187.57037a.33849.33849,0,1,1,.338.338.33756.33756,0,0,1-.338-.338" style="fill:#ff0098;fill-rule:evenodd"/><path d="M396.18183,190.75835a.33849.33849,0,1,1,.338.338.33841.33841,0,0,1-.338-.338" style="fill:#ff0098;fill-rule:evenodd"/><path d="M396.18183,194.01028a.33849.33849,0,1,1,.338.338.33842.33842,0,0,1-.338-.338" style="fill:#ff0098;fill-rule:evenodd"/><path d="M391.43723,198.28668a.33849.33849,0,1,1,.339.338.33842.33842,0,0,1-.339-.338" style="fill:#ff0098;fill-rule:evenodd"/><polyline points="392.068 132.63 389.986 132.63 389.986 125.128 392.77 125.128 392.77 117.126 370.116 117.126 370.116 172.629 400.082 172.629 400.082 180.925 396.492 180.925 396.492 194.01 392.734 194.01 392.729 198.294 391.773 198.294" style="fill:none;stroke:#ff0098;stroke-linejoin:round;stroke-width:0.200000002980232px"/><path d="M384.79834,204.06055a.08243.08243,0,0,1-.05762.0205.08359.08359,0,0,1-.05761-.021.07539.07539,0,0,1-.02247-.05957v-.021h.05372v.023c0,.021.01171.03076.02636.03076a.02369.02369,0,0,0,.019-.00879.09872.09872,0,0,0,.00878-.05322.09361.09361,0,0,0-.0083-.05224.023.023,0,0,0-.02-.00879h-.01757v-.04493h.01757a.02016.02016,0,0,0,.01709-.00732.07063.07063,0,0,0,.00831-.04492.0729.0729,0,0,0-.00733-.04248.02112.02112,0,0,0-.01758-.0083c-.01367,0-.02392.00976-.02392.02881v.02539h-.05371v-.022a.07642.07642,0,0,1,.02246-.05908.07752.07752,0,0,1,.05517-.021.07563.07563,0,0,1,.05518.0205.0982.0982,0,0,1,.02295.07422.12352.12352,0,0,1-.00879.05713.05873.05873,0,0,1-.02.021.069.069,0,0,1,.021.022.13086.13086,0,0,1,.01074.06592A.10523.10523,0,0,1,384.79834,204.06055Z" style="fill:#fefefe"/><path d="M391.41822,207.74078a.339.339,0,1,1,.339.338.33842.33842,0,0,1-.339-.338" style="fill:#fff800;fill-rule:evenodd"/><path d="M391.81494,207.90039a.08017.08017,0,0,1-.05713.021.081.081,0,0,1-.05713-.021.10318.10318,0,0,1-.02392-.084.12367.12367,0,0,1,.01074-.06348.06679.06679,0,0,1,.021-.02295.06018.06018,0,0,1-.01954-.022.11628.11628,0,0,1-.00976-.05567.0994.0994,0,0,1,.02344-.07666.07474.07474,0,0,1,.05468-.0205.0763.0763,0,0,1,.05567.0205.09934.09934,0,0,1,.02295.07666.11668.11668,0,0,1-.00928.05567.06145.06145,0,0,1-.02.022.0738.0738,0,0,1,.02149.02295.12987.12987,0,0,1,.01025.06348A.10479.10479,0,0,1,391.81494,207.90039Zm-.03808-.13965a.024.024,0,0,0-.019-.0083.0258.0258,0,0,0-.01953.0083.09635.09635,0,0,0-.00781.05322.09784.09784,0,0,0,.00781.05127.02577.02577,0,0,0,.01953.00831.024.024,0,0,0,.019-.00831.16853.16853,0,0,0,0-.10449Zm-.002-.15088a.02079.02079,0,0,0-.01709-.00732.02252.02252,0,0,0-.01758.00732.08127.08127,0,0,0-.00732.04493c0,.01757-.00049.03759.00879.04687a.02335.02335,0,0,0,.01611.00586.02178.02178,0,0,0,.01612-.00586c.00976-.00928.00878-.0293.00878-.04687A.07684.07684,0,0,0,391.7749,207.60986Z"/><path d="M393.926,205.20806a.339.339,0,1,1,.338.338.3382.3382,0,0,1-.338-.338" style="fill:#b4ff22;fill-rule:evenodd"/><path d="M394.33154,205.21875l-.063.165h-.05517l.05908-.145a.03818.03818,0,0,1-.022.00586.05814.05814,0,0,1-.04785-.022c-.0127-.01661-.01807-.03565-.01807-.08838a.138.138,0,0,1,.01758-.08448.07451.07451,0,0,1,.06348-.0288.07311.07311,0,0,1,.063.0288.13368.13368,0,0,1,.01758.08448A.24209.24209,0,0,1,394.33154,205.21875Zm-.04687-.14062a.02338.02338,0,0,0-.019-.00928.02433.02433,0,0,0-.01954.00928.11257.11257,0,0,0-.00781.05664.11552.11552,0,0,0,.00781.05712.025.025,0,0,0,.01954.00928.02338.02338,0,0,0,.019-.00928.10967.10967,0,0,0,.0083-.05712A.10774.10774,0,0,0,394.28467,205.07813Z"/><path d="M394.18359,203.96338v-.2959l-.0542.041V203.648l.0542-.043h.05323v.3584Z" style="fill:#fefefe"/><path d="M394.39307,203.94629a.08153.08153,0,0,1-.05713.021.08236.08236,0,0,1-.05713-.021.07557.07557,0,0,1-.023-.05957v-.20557a.07517.07517,0,0,1,.023-.05908.08236.08236,0,0,1,.05713-.021.08153.08153,0,0,1,.05713.021.075.075,0,0,1,.02246.05908v.20557A.07539.07539,0,0,1,394.39307,203.94629Zm-.03077-.26709c0-.02051-.01171-.03076-.02636-.03076s-.02637.01025-.02637.03076v.20947c0,.021.01172.03076.02637.03076s.02636-.00976.02636-.03076Z" style="fill:#fefefe"/><path d="M391.60205,198.4624v-.2959l-.0542.041V198.147l.0542-.043h.05322v.3584Z" style="fill:#fefefe"/><path d="M391.811,198.4458a.08243.08243,0,0,1-.05762.02051.08362.08362,0,0,1-.05762-.021.07539.07539,0,0,1-.02246-.05957v-.021h.05371v.023c0,.021.01172.03076.02637.03076a.0237.0237,0,0,0,.019-.00879.09873.09873,0,0,0,.00879-.05322.09372.09372,0,0,0-.0083-.05225.023.023,0,0,0-.02-.00879h-.01758v-.04492h.01758a.02017.02017,0,0,0,.01709-.00733.07067.07067,0,0,0,.0083-.04492.07388.07388,0,0,0-.00732-.04248.02112.02112,0,0,0-.01758-.0083c-.01367,0-.02393.00977-.02393.02881v.02539h-.05371v-.022a.07389.07389,0,0,1,.07764-.07959.07534.07534,0,0,1,.05517.02.09813.09813,0,0,1,.023.07422.12337.12337,0,0,1-.00879.05712.05865.05865,0,0,1-.02.021.069.069,0,0,1,.021.022.13075.13075,0,0,1,.01074.06592A.1052.1052,0,0,1,391.811,198.4458Z" style="fill:#fefefe"/><path d="M397.34052,130.53768a.339.339,0,1,1,.339.338.33777.33777,0,0,1-.339-.338" style="fill:#ff1a77;fill-rule:evenodd"/><path d="M397.74365,130.66064v.05567h-.05322v-.05567h-.09961v-.04785l.0918-.25488h.05224l-.08935.25488h.04492v-.064h.05322v.064h.0249v.04785Z" style="fill:#fefefe"/><path d="M397.34052,131.58846a.339.339,0,1,1,.339.338.33777.33777,0,0,1-.339-.338" style="fill:#ff1a77;fill-rule:evenodd"/><path d="M397.74316,131.73975a.07358.07358,0,0,1-.064.0288.071.071,0,0,1-.0625-.0288.134.134,0,0,1-.01807-.084.25167.25167,0,0,1,.01465-.08447l.063-.165h.05566l-.05908.145a.03518.03518,0,0,1,.022-.00635.05765.05765,0,0,1,.04737.02246c.01318.0166.01806.03565.01806.08838A.13352.13352,0,0,1,397.74316,131.73975Zm-.04443-.14161a.02212.02212,0,0,0-.019-.00927.0236.0236,0,0,0-.01953.00927.11463.11463,0,0,0-.00782.05713.11347.11347,0,0,0,.00782.05664.02457.02457,0,0,0,.01953.00879.02234.02234,0,0,0,.019-.00879.10689.10689,0,0,0,.0083-.05664A.10885.10885,0,0,0,397.69873,131.59814Z" style="fill:#fefefe"/><path d="M391.71943,130.51125a.339.339,0,1,1,.338.338.33842.33842,0,0,1-.338-.338" style="fill:#ff50ce;fill-rule:evenodd"/><path d="M392.11621,130.67188a.08243.08243,0,0,1-.05762.0205.08359.08359,0,0,1-.05761-.021.0754.0754,0,0,1-.02246-.05957v-.021h.05371v.02295c0,.021.01172.03076.02636.03076a.02369.02369,0,0,0,.019-.00879.09871.09871,0,0,0,.00879-.05322.09374.09374,0,0,0-.0083-.05225.023.023,0,0,0-.02-.00879h-.01758v-.04492h.01758a.02019.02019,0,0,0,.01709-.00732.0707.0707,0,0,0,.0083-.04492.0729.0729,0,0,0-.00733-.04248.02108.02108,0,0,0-.01758-.0083c-.01367,0-.02392.00976-.02392.0288v.02539H391.981v-.022a.07642.07642,0,0,1,.02246-.05908.07753.07753,0,0,1,.05517-.021.07563.07563,0,0,1,.05518.02051.09817.09817,0,0,1,.023.07422.12357.12357,0,0,1-.00879.05713.05881.05881,0,0,1-.02.021.069.069,0,0,1,.021.022.13084.13084,0,0,1,.01074.06592A.10523.10523,0,0,1,392.11621,130.67188Z" style="fill:#fefefe"/><path d="M391.71943,131.56207a.339.339,0,1,1,.338.338.33841.33841,0,0,1-.338-.338" style="fill:#ff50ce;fill-rule:evenodd"/><path d="M392.11621,131.71582a.08007.08007,0,0,1-.05713.022.082.082,0,0,1-.05713-.0205.07671.07671,0,0,1-.023-.06006v-.01758h.05371v.0249c0,.02149.01124.03125.02637.03125a.02169.02169,0,0,0,.01953-.00976.14421.14421,0,0,0,.0083-.06788.14988.14988,0,0,0-.00683-.06347.02329.02329,0,0,0-.021-.01123c-.01513,0-.02637.01123-.02637.03076v.00781h-.05126v-.20654h.15478v.04785h-.10547v.09619a.05644.05644,0,0,1,.01856-.01709.05073.05073,0,0,1,.02539-.00683.05547.05547,0,0,1,.04834.022.16087.16087,0,0,1,.01709.09521C392.14014,131.66016,392.13965,131.69189,392.11621,131.71582Z" style="fill:#fefefe"/><path d="M391.71943,132.62948a.339.339,0,1,1,.338.339.33755.33755,0,0,1-.338-.339" style="fill:#ff0098;fill-rule:evenodd"/><path d="M392.04785,132.80566h-.05371l.09424-.31054h-.0625v.04785h-.05127v-.0957h.167v.04443Z" style="fill:#fefefe"/><path d="M391.71943,137.85406a.339.339,0,1,1,.338.339.33755.33755,0,0,1-.338-.339" style="fill:#fff800;fill-rule:evenodd"/><path d="M391.94727,138.03369v-.2959l-.0542.041v-.06055l.0542-.043h.05322v.3584Z"/><path d="M392.148,138.03369h-.05371l.09424-.31055h-.0625v.04786h-.05127v-.09571h.167v.044Z"/><path d="M391.71943,138.85116a.339.339,0,1,1,.338.338.33842.33842,0,0,1-.338-.338" style="fill:#b4ff22;fill-rule:evenodd"/><path d="M391.94727,139.02686v-.2959l-.0542.041v-.06054l.0542-.043h.05322v.3584Z"/><path d="M392.2251,138.86182l-.063.165h-.05518l.05909-.145a.03819.03819,0,0,1-.022.00586.05812.05812,0,0,1-.04785-.022c-.01269-.0166-.01806-.03564-.01806-.08886a.13718.13718,0,0,1,.01757-.084.07413.07413,0,0,1,.06348-.02832.07282.07282,0,0,1,.063.02832.13291.13291,0,0,1,.01758.084A.245.245,0,0,1,392.2251,138.86182Zm-.04688-.14063a.02336.02336,0,0,0-.019-.00928.02431.02431,0,0,0-.01953.00928.11259.11259,0,0,0-.00781.05664.11555.11555,0,0,0,.00781.05713.025.025,0,0,0,.01953.00928.02336.02336,0,0,0,.019-.00928.1097.1097,0,0,0,.0083-.05713A.10778.10778,0,0,0,392.17822,138.72119Z"/><path d="M405.76924,193.63528a.339.339,0,1,1,.339.338.33927.33927,0,0,1-.339-.338" style="fill:#ff7398;fill-rule:evenodd"/><path d="M408.71992,193.63528a.33849.33849,0,1,1,.338.338.33842.33842,0,0,1-.338-.338" style="fill:#ff7398;fill-rule:evenodd"/><path d="M406.31172,196.565a.338.338,0,1,1,.338.338.33778.33778,0,0,1-.338-.338" style="fill:#ff7398;fill-rule:evenodd"/><path d="M381.59254,196.49618a.339.339,0,1,1,.339.338.33842.33842,0,0,1-.339-.338" style="fill:#ff7398;fill-rule:evenodd"/><path d="M375.38694,196.49618a.339.339,0,1,1,.338.338.33755.33755,0,0,1-.338-.338" style="fill:#ff7398;fill-rule:evenodd"/><path d="M371.95674,199.731a.339.339,0,1,1,.338.338.33755.33755,0,0,1-.338-.338" style="fill:#ff7398;fill-rule:evenodd"/><path d="M371.95674,197.15337a.339.339,0,1,1,.338.338.33755.33755,0,0,1-.338-.338" style="fill:#ff7398;fill-rule:evenodd"/><path d="M390.45332,189.12606a.339.339,0,1,1,.338.339.33755.33755,0,0,1-.338-.339" style="fill:#ff7398;fill-rule:evenodd"/><path d="M393.62574,189.12606a.33849.33849,0,1,1,.338.339.33755.33755,0,0,1-.338-.339" style="fill:#ff7398;fill-rule:evenodd"/><path d="M390.45332,194.37457a.339.339,0,1,1,.338.339.33756.33756,0,0,1-.338-.339" style="fill:#ff7398;fill-rule:evenodd"/><path d="M384.64863,194.37457a.33849.33849,0,1,1,.338.339.33756.33756,0,0,1-.338-.339" style="fill:#ff7398;fill-rule:evenodd"/><polyline points="388.586 198.287 390.842 198.287 390.842 194.375 384.987 194.375 384.987 191.485 375.707 191.485 375.707 196.496" style="fill:none;stroke:#ff7398;stroke-linejoin:round;stroke-width:0.200000002980232px"/><polyline points="387.174 198.287 384.945 198.287 384.945 194.375" style="fill:none;stroke:#ff7398;stroke-linejoin:round;stroke-width:0.200000002980232px"/><path d="M388.20042,198.28668a.33849.33849,0,1,1,.338.338.33756.33756,0,0,1-.338-.338" style="fill:#ff7398;fill-rule:evenodd"/><path d="M388.45752,198.46143v-.2959l-.0542.041V198.146l.0542-.043h.05322v.3584Z" style="fill:#fefefe"/><path d="M388.667,198.44336a.08007.08007,0,0,1-.05713.022.082.082,0,0,1-.05713-.02051.07669.07669,0,0,1-.02294-.06v-.01758h.05371v.0249c0,.02148.01123.03125.02636.03125a.02168.02168,0,0,0,.01953-.00977.144.144,0,0,0,.00831-.06787.14968.14968,0,0,0-.00684-.06347.02327.02327,0,0,0-.021-.01123c-.01513,0-.02636.01123-.02636.03076v.00781h-.05127V198.103h.15478v.04785h-.10547v.09619a.05643.05643,0,0,1,.01856-.01709.05074.05074,0,0,1,.02539-.00684.05548.05548,0,0,1,.04834.022.16087.16087,0,0,1,.01709.09521C388.69092,198.3877,388.69043,198.41943,388.667,198.44336Z" style="fill:#fefefe"/><path d="M386.78932,198.28668a.33849.33849,0,1,1,.338.338.33756.33756,0,0,1-.338-.338" style="fill:#ff7398;fill-rule:evenodd"/><path d="M387.04639,198.4624v-.2959l-.0542.041V198.147l.0542-.043h.05322v.3584Z" style="fill:#fefefe"/><path d="M387.26172,198.4375a.07358.07358,0,0,1-.064.02881.071.071,0,0,1-.0625-.02881.134.134,0,0,1-.01806-.084.25169.25169,0,0,1,.01465-.08448l.063-.165h.05567l-.05908.145a.03516.03516,0,0,1,.022-.00634.05761.05761,0,0,1,.04736.02246c.01319.0166.01807.03564.01807.08838A.13347.13347,0,0,1,387.26172,198.4375Zm-.04443-.1416a.02213.02213,0,0,0-.019-.00928.02361.02361,0,0,0-.01953.00928.21107.21107,0,0,0,0,.11377.0246.0246,0,0,0,.01953.00879.02237.02237,0,0,0,.019-.00879.107.107,0,0,0,.0083-.05664A.10891.10891,0,0,0,387.21729,198.2959Z" style="fill:#fefefe"/><polyline points="384.739 200.778 384.739 198.896 381.931 198.917 381.931 196.496 374.2 196.496 374.2 199.717 372.295 199.717 372.295 197.153 370.512 197.153 370.512 189.124 393.964 189.124" style="fill:none;stroke:#ff7398;stroke-linejoin:round;stroke-width:0.200000002980232px"/><path d="M384.402,200.79836a.33849.33849,0,1,1,.338.338.33755.33755,0,0,1-.338-.338" style="fill:#ff7398;fill-rule:evenodd"/><path d="M384.72949,200.97461v-.2959l-.0542.041v-.06055l.0542-.043h.05322v.3584Z" style="fill:#fefefe"/><path d="M393.926,200.86868a.339.339,0,1,1,.339.339.33842.33842,0,0,1-.339-.339" style="fill:#ff7398;fill-rule:evenodd"/><polyline points="410.536 189.124 410.536 193.635 406.108 193.635 406.108 195.305 406.612 195.305 406.612 196.565 394.265 196.565 394.265 200.869" style="fill:none;stroke:#ff7398;stroke-linejoin:round;stroke-width:0.200000002980232px"/><path d="M448.21939,185.43875a.33849.33849,0,1,1,.338.339.33756.33756,0,0,1-.338-.339" style="fill:#ff7398;fill-rule:evenodd"/><path d="M448.21939,184.19578a.33849.33849,0,1,1,.338.339.33756.33756,0,0,1-.338-.339" style="fill:#ff7398;fill-rule:evenodd"/><path d="M448.21939,182.9536a.33849.33849,0,1,1,.338.338.33842.33842,0,0,1-.338-.338" style="fill:#ff7398;fill-rule:evenodd"/><path d="M458.00364,177.93218a.339.339,0,1,1,.338.339.3382.3382,0,0,1-.338-.339" style="fill:#ff7398;fill-rule:evenodd"/><path d="M452.89234,177.93218a.339.339,0,1,1,.338.339.3382.3382,0,0,1-.338-.339" style="fill:#ff7398;fill-rule:evenodd"/><path d="M460.16084,183.31008a.339.339,0,1,1,.339.339.33841.33841,0,0,1-.339-.339" style="fill:#ff7398;fill-rule:evenodd"/><path d="M462.07984,180.36038a.339.339,0,1,1,.339.338.33862.33862,0,0,1-.339-.338" style="fill:#ff7398;fill-rule:evenodd"/><polyline points="448.558 185.548 448.558 182.128 453.193 182.128 453.193 177.932 458.341 177.932 458.341 183.291 462.418 183.291 462.418 173.939 423.843 173.939 423.843 189.124 393.964 189.124" style="fill:none;stroke:#ff7398;stroke-linejoin:round;stroke-width:0.200000002980232px"/><path d="M394.18359,201.04785v-.2959l-.0542.041v-.06055l.0542-.043h.05323v.3584Z" style="fill:#fefefe"/><path d="M394.2583,201.04785v-.04541l.08984-.17431a.13591.13591,0,0,0,.01465-.064c0-.02051-.01123-.03125-.02588-.03125s-.02636.01025-.02636.03076v.02344h-.05371v-.021a.07539.07539,0,0,1,.02246-.05957.08484.08484,0,0,1,.05761-.02148.07851.07851,0,0,1,.05567.01953.08.08,0,0,1,.02344.062.17784.17784,0,0,1-.01954.07813L394.31543,201h.10059v.04785Z" style="fill:#fefefe"/><path d="M366.60133,143.71688v8.878a.55152.55152,0,0,1-1.103,0v-8.878a.55152.55152,0,0,1,1.103,0" style="fill:#b4ff22"/><path d="M367.95973,143.71688v8.878a.55152.55152,0,0,1-1.103,0v-8.878a.55152.55152,0,0,1,1.103,0" style="fill:#fff800"/><path d="M366.32715,149.3335h-.67334v-.28321h.09521v.17725h.19141v-.15234h.09521v.15234h.19581v-.17725h.0957Z"/><path d="M366.32715,148.95752h-.67334v-.106h.57764v-.17724h.0957Z"/><path d="M366.47168,148.65039h-.07275v-.43213h.07275Z"/><path d="M366.27783,147.86719a.17892.17892,0,0,1,0,.26123c-.05664.0498-.15527.04931-.2876.04931s-.231.00049-.28759-.04931a.17892.17892,0,0,1,0-.26123c.05664-.0503.15527-.04932.28759-.04932S366.22119,147.81689,366.27783,147.86719Zm-.51074.07959a.05521.05521,0,0,0-.02539.05078.05383.05383,0,0,0,.02539.05029,1.05237,1.05237,0,0,0,.44629,0,.05323.05323,0,0,0,.02588-.05029.05457.05457,0,0,0-.02588-.05078,1.0963,1.0963,0,0,0-.44629,0Z"/><path d="M366.32715,147.45557l-.40039.15918h.40039v.106h-.67334V147.626l.3999-.15821h-.3999v-.106h.67334Z"/><path d="M366.32715,147.25879h-.085l-.32764-.16846a.26147.26147,0,0,0-.12012-.02734c-.03857,0-.05859.02051-.05859.04834,0,.02734.019.0498.05762.0498h.04345v.10059h-.03955a.14284.14284,0,0,1-.11181-.04151.162.162,0,0,1-.03955-.10888.145.145,0,0,1,.03613-.104.15049.15049,0,0,1,.11621-.04492.34316.34316,0,0,1,.14746.03711l.2915.15235v-.18946h.08985Z"/><path d="M367.68652,149.33252h-.67334v-.2832h.09522v.17724h.1914v-.15234h.09522v.15234h.1958v-.17724h.0957Z"/><path d="M367.68652,148.95654h-.67334v-.10595h.57764v-.17725h.0957Z"/><path d="M367.83105,148.64941h-.07275v-.43212h.07275Z"/><path d="M367.63721,147.86621a.17892.17892,0,0,1,0,.26123c-.05664.04981-.15528.04932-.2876.04932s-.231.00049-.2876-.04932a.17892.17892,0,0,1,0-.26123c.05664-.05029.15528-.04932.2876-.04932S367.58057,147.81592,367.63721,147.86621Zm-.51075.07959a.05525.05525,0,0,0-.02539.05078.05387.05387,0,0,0,.02539.0503,1.0528,1.0528,0,0,0,.44629,0,.05323.05323,0,0,0,.02588-.0503.05456.05456,0,0,0-.02588-.05078,1.0963,1.0963,0,0,0-.44629,0Z"/><path d="M367.68652,147.45459l-.40039.15918h.40039v.106h-.67334V147.625l.39991-.1582h-.39991v-.106h.67334Z"/><path d="M367.68652,147.13477h-.55615l.07764.10107h-.11377l-.08106-.10107v-.1001h.67334Z"/><path d="M385.13893,116.30135h-8.878a.552.552,0,1,1,0-1.104h8.878a.552.552,0,0,1,0,1.104" style="fill:#ff50ce"/><path d="M385.13893,117.67828h-8.878a.5515.5515,0,1,1,0-1.103h8.878a.5515.5515,0,0,1,0,1.103" style="fill:#ff0098"/><path d="M378.69287,117.40479V116.731h.2832v.0957h-.17724v.19141h.15234v.09521h-.15234v.1958h.17724v.09571Z" style="fill:#fefefe"/><path d="M379.06885,117.40479V116.731h.106v.57812h.17725v.09571Z" style="fill:#fefefe"/><path d="M379.70215,117.40479l-.02735-.13331H379.519l-.02685.13331h-.11133l.16553-.67383h.103l.16358.67383Zm-.105-.51075-.05762.28174h.11572Z" style="fill:#fefefe"/><path d="M380.082,117.40479h-.10986l-.14746-.67383h.11621l.08594.51123.0874-.51123h.11621Z" style="fill:#fefefe"/><path d="M380.59424,117.34912a.16093.16093,0,0,1-.13037.05567h-.17139V116.731h.17139a.16114.16114,0,0,1,.13037.05615c.05029.05566.04931.15137.04931.28076C380.64355,117.19775,380.64453,117.293,380.59424,117.34912Zm-.0791-.49512a.06223.06223,0,0,0-.0542-.02734h-.0625v.48242h.0625a.06223.06223,0,0,0,.0542-.02734.50732.50732,0,0,0,.02246-.21485A.4976.4976,0,0,0,380.51514,116.854Z" style="fill:#fefefe"/><path d="M381.04248,117.34912a.16092.16092,0,0,1-.13037.05567h-.17139V116.731h.17139a.16112.16112,0,0,1,.13037.05615c.05029.05566.04932.15137.04932.28076C381.0918,117.19775,381.09277,117.293,381.04248,117.34912Zm-.0791-.49512a.06221.06221,0,0,0-.0542-.02734h-.0625v.48242h.0625a.06221.06221,0,0,0,.0542-.02734.50732.50732,0,0,0,.02246-.21485A.4976.4976,0,0,0,380.96338,116.854Z" style="fill:#fefefe"/><path d="M381.13232,117.54932v-.07276h.43213v.07276Z" style="fill:#fefefe"/><path d="M381.73486,117.40479h-.10058l.17724-.5835h-.11718v.08984h-.09668V116.731h.314v.08349Z" style="fill:#fefefe"/><path d="M382.17334,117.1416h-.06348v.26319h-.106V116.731h.16943c.12207,0,.17334.06347.17334.20459C382.34668,117.07178,382.30127,117.1416,382.17334,117.1416Zm.002-.31494h-.06543v.21973h.06543c.05664,0,.06543-.0503.06543-.10987S382.23193,116.82666,382.17529,116.82666Z" style="fill:#fefefe"/><path d="M382.68018,117.37354a.15527.15527,0,0,1-.10743.03906.15877.15877,0,0,1-.10888-.04.13954.13954,0,0,1-.042-.11133v-.04h.10058v.04346c0,.03906.02246.05762.05029.05762a.04532.04532,0,0,0,.03565-.01661.19037.19037,0,0,0,.01611-.09961.17918.17918,0,0,0-.01513-.09814.04289.04289,0,0,0-.0376-.01709h-.03321v-.08447h.03321a.03855.03855,0,0,0,.03174-.01319.13932.13932,0,0,0,.01513-.085.14447.14447,0,0,0-.01318-.07959.03976.03976,0,0,0-.03272-.01513c-.02587,0-.04589.01806-.04589.0542v.04687h-.1001V116.874a.145.145,0,0,1,.0415-.11181.14759.14759,0,0,1,.10449-.03858.1427.1427,0,0,1,.103.0376.18645.18645,0,0,1,.04346.14014.22482.22482,0,0,1-.01709.10693.10765.10765,0,0,1-.03711.04.12347.12347,0,0,1,.03906.04053.23882.23882,0,0,1,.02051.124A.19538.19538,0,0,1,382.68018,117.37354Z" style="fill:#fefefe"/><path d="M378.91211,116.03369v-.67383h.2832v.09571h-.17724v.1914h.15234v.09522h-.15234v.1958h.17724v.0957Z" style="fill:#fefefe"/><path d="M379.28809,116.03369v-.67383h.106v.57813h.17725v.0957Z" style="fill:#fefefe"/><path d="M379.85645,116.03369h-.10987l-.14746-.67383h.11621l.08594.51123.0874-.51123h.11621Z" style="fill:#fefefe"/><path d="M380.36914,115.978a.16091.16091,0,0,1-.13037.05566h-.17139v-.67383h.17139a.16113.16113,0,0,1,.13037.05616c.05029.05566.04932.15136.04932.28076C380.41846,115.82666,380.41943,115.92188,380.36914,115.978Zm-.0791-.49512a.06221.06221,0,0,0-.0542-.02734h-.0625v.48242h.0625a.0622.0622,0,0,0,.0542-.02735.50727.50727,0,0,0,.02246-.21484A.49758.49758,0,0,0,380.29,115.48291Z" style="fill:#fefefe"/><path d="M380.81738,115.978a.16091.16091,0,0,1-.13037.05566h-.17138v-.67383h.17138a.16113.16113,0,0,1,.13037.05616c.0503.05566.04932.15136.04932.28076C380.8667,115.82666,380.86768,115.92188,380.81738,115.978Zm-.0791-.49512a.06221.06221,0,0,0-.0542-.02734h-.0625v.48242h.0625a.0622.0622,0,0,0,.0542-.02735.50727.50727,0,0,0,.02246-.21484A.49758.49758,0,0,0,380.73828,115.48291Z" style="fill:#fefefe"/><path d="M380.90723,116.17822v-.07275h.43213v.07275Z" style="fill:#fefefe"/><path d="M381.65186,115.92871v.105h-.10059v-.105h-.1875v-.08984l.17334-.479h.09766l-.16748.479h.084v-.12012h.10059v.12012h.04589v.08984Z" style="fill:#fefefe"/><path d="M381.94824,115.77051h-.06347v.26318h-.106v-.67383h.16943c.12207,0,.17334.06348.17334.20459C382.12158,115.70068,382.07617,115.77051,381.94824,115.77051Zm.002-.31494h-.06543v.21972h.06543c.05664,0,.06543-.05029.06543-.10986S382.00684,115.45557,381.9502,115.45557Z" style="fill:#fefefe"/><path d="M382.46777,115.9873a.14074.14074,0,0,1-.1206.0542.13523.13523,0,0,1-.11719-.0542.24782.24782,0,0,1-.03418-.15771.46427.46427,0,0,1,.02783-.15918l.11817-.31055h.104l-.11084.27246a.07444.07444,0,0,1,.042-.01123.10787.10787,0,0,1,.08887.04151c.02441.03125.03369.06738.03369.167A.255.255,0,0,1,382.46777,115.9873Zm-.08349-.2666a.04251.04251,0,0,0-.03614-.01709.044.044,0,0,0-.03662.01709.2109.2109,0,0,0-.01513.10791.20658.20658,0,0,0,.01513.106.045.045,0,0,0,.03662.0166.04279.04279,0,0,0,.03614-.0166.20481.20481,0,0,0,.01513-.106A.2109.2109,0,0,0,382.38428,115.7207Z" style="fill:#fefefe"/><path d="M387.88252,212.50347h-8.878a.552.552,0,0,1,0-1.104h8.878a.552.552,0,0,1,0,1.104" style="fill:#b4ff22"/><path d="M387.88252,211.32327h-8.878a.5515.5515,0,0,1,0-1.103h8.878a.5515.5515,0,1,1,0,1.103" style="fill:#fff800"/><path d="M382.26709,212.23v-.67383h.2832v.09571h-.17724v.1914h.15234v.09522h-.15234v.1958h.17724v.0957Z"/><path d="M382.64307,212.23v-.67383h.10595v.57813h.17725v.0957Z"/><path d="M382.9502,212.37451v-.07275h.43212v.07275Z"/><path d="M383.7334,212.18066a.17788.17788,0,0,1-.26123,0c-.04981-.05664-.04932-.15478-.04932-.28759,0-.13233-.00049-.23047.04932-.2876a.17892.17892,0,0,1,.26123,0c.05029.05713.04931.15527.04931.2876C383.78271,212.02588,383.78369,212.124,383.7334,212.18066Zm-.07959-.51074a.05525.05525,0,0,0-.05078-.02539.05387.05387,0,0,0-.0503.02539,1.05508,1.05508,0,0,0,0,.44678.0548.0548,0,0,0,.0503.02539.05622.05622,0,0,0,.05078-.02539,1.09869,1.09869,0,0,0,0-.44678Z"/><path d="M384.145,212.23l-.15918-.40039V212.23h-.106v-.67383h.09473l.1582.40039v-.40039h.106V212.23Z"/><path d="M384.3418,212.23v-.085l.16845-.32764a.26132.26132,0,0,0,.02735-.12011c0-.03858-.02051-.0586-.04834-.0586-.02735,0-.04981.019-.04981.05762v.04346h-.10058v-.03955a.14284.14284,0,0,1,.0415-.11182.162.162,0,0,1,.10889-.03955.145.145,0,0,1,.104.03613.14972.14972,0,0,1,.04492.11621.343.343,0,0,1-.03711.14746l-.15234.29151h.18945V212.23Z"/><path d="M382.26514,211.05127v-.67383h.2832v.0957h-.17725v.19141h.15235v.09522h-.15235v.1958h.17725v.0957Z"/><path d="M382.64111,211.05127v-.67383h.106v.57813h.17725v.0957Z"/><path d="M382.94824,211.1958v-.07275h.43213v.07275Z"/><path d="M383.73145,211.002a.17789.17789,0,0,1-.26124,0c-.0498-.05664-.04931-.15478-.04931-.28759a.45846.45846,0,0,1,.04931-.2876.17893.17893,0,0,1,.26124,0c.05029.05713.04931.15527.04931.2876C383.78076,210.84717,383.78174,210.94531,383.73145,211.002Zm-.07959-.51074a.05524.05524,0,0,0-.05079-.02539.05385.05385,0,0,0-.05029.02539,1.05508,1.05508,0,0,0,0,.44678.05479.05479,0,0,0,.05029.02539.05624.05624,0,0,0,.05079-.02539,1.09916,1.09916,0,0,0,0-.44678Z"/><path d="M384.14307,211.05127l-.15918-.40039v.40039h-.106v-.67383h.09473l.1582.40039v-.40039h.106v.67383Z"/><path d="M384.46289,211.05127v-.55615l-.10107.07763V210.459l.10107-.08154h.1001v.67383Z"/><path d="M369.27613,199.398v8.878a.55152.55152,0,1,1-1.103,0v-8.878a.55152.55152,0,0,1,1.103,0" style="fill:#ff50ce"/><path d="M387.883,173.17928h-8.878a.5515.5515,0,1,1,0-1.103h8.878a.5515.5515,0,0,1,0,1.103" style="fill:#ff0098"/><path d="M412.22971,178.28075v8.878a.55151.55151,0,0,1-1.103,0v-8.878a.55151.55151,0,0,1,1.103,0" style="fill:#ff1a77"/><path d="M387.883,189.67776h-8.878a.5515.5515,0,1,1,0-1.103h8.878a.5515.5515,0,0,1,0,1.103" style="fill:#ff7398"/><path d="M381.43506,172.90576v-.67383h.2832v.09571H381.541v.1914h.15234v.09522H381.541v.1958h.17724v.0957Z" style="fill:#fefefe"/><path d="M381.811,172.90576v-.67383h.106v.57813h.17725v.0957Z" style="fill:#fefefe"/><path d="M382.44434,172.90576l-.02735-.1333h-.15576l-.02685.1333h-.11133l.16552-.67383h.103l.16358.67383Zm-.105-.51074-.05762.28174h.11572Z" style="fill:#fefefe"/><path d="M382.82422,172.90576h-.10986l-.14747-.67383h.11622l.08593.51123.08741-.51123h.11621Z" style="fill:#fefefe"/><path d="M383.33643,172.8501a.16093.16093,0,0,1-.13038.05566h-.17138v-.67383h.17138a.16115.16115,0,0,1,.13038.05616c.05029.05566.04931.15136.04931.28076C383.38574,172.69873,383.38672,172.794,383.33643,172.8501Zm-.07911-.49512a.0622.0622,0,0,0-.05419-.02734h-.0625v.48242h.0625a.06218.06218,0,0,0,.05419-.02735.507.507,0,0,0,.02247-.21484A.49735.49735,0,0,0,383.25732,172.355Z" style="fill:#fefefe"/><path d="M383.78467,172.8501a.16093.16093,0,0,1-.13037.05566h-.17139v-.67383h.17139a.16114.16114,0,0,1,.13037.05616c.05029.05566.04931.15136.04931.28076C383.834,172.69873,383.835,172.794,383.78467,172.8501Zm-.0791-.49512a.06223.06223,0,0,0-.0542-.02734h-.0625v.48242h.0625a.06221.06221,0,0,0,.0542-.02735.50727.50727,0,0,0,.02246-.21484A.49758.49758,0,0,0,383.70557,172.355Z" style="fill:#fefefe"/><path d="M383.87451,173.05029v-.07275h.43213v.07275Z" style="fill:#fefefe"/><path d="M384.47705,172.90576h-.10059l.17725-.58349h-.11719v.08984h-.09668v-.18018h.314v.0835Z" style="fill:#fefefe"/><path d="M384.91553,172.64258h-.06348v.26318h-.106v-.67383h.16944c.12207,0,.17334.06348.17334.20459C385.08887,172.57275,385.04346,172.64258,384.91553,172.64258Zm.002-.31494h-.06543v.21972h.06543c.05664,0,.06543-.05029.06543-.10986S384.97412,172.32764,384.91748,172.32764Z" style="fill:#fefefe"/><path d="M385.42236,172.87451a.15523.15523,0,0,1-.10742.03906.15881.15881,0,0,1-.10889-.04.13958.13958,0,0,1-.042-.11133v-.04h.10059v.04346c0,.03906.02246.05761.05029.05761a.04531.04531,0,0,0,.03565-.0166.19039.19039,0,0,0,.01611-.09961.17916.17916,0,0,0-.01514-.09814.04286.04286,0,0,0-.0376-.01709h-.0332v-.08448h.0332a.03852.03852,0,0,0,.03174-.01318.13924.13924,0,0,0,.01514-.085.14454.14454,0,0,0-.01318-.07959.03973.03973,0,0,0-.03272-.01514c-.02588,0-.0459.01807-.0459.0542v.04688H385.169V172.375a.145.145,0,0,1,.0415-.11182.14757.14757,0,0,1,.10449-.03857.14272.14272,0,0,1,.103.0376.18644.18644,0,0,1,.04346.14013.225.225,0,0,1-.01709.10694.10773.10773,0,0,1-.03711.04.12354.12354,0,0,1,.03906.04052.23886.23886,0,0,1,.02051.124A.19533.19533,0,0,1,385.42236,172.87451Z" style="fill:#fefefe"/><path d="M369.03906,205.62256h-.67334v-.2832h.09522v.17724h.1914v-.15234h.09522v.15234h.1958v-.17724h.0957Z" style="fill:#fefefe"/><path d="M369.03906,205.24658h-.67334v-.106h.57764v-.17725h.0957Z" style="fill:#fefefe"/><path d="M369.03906,204.67822v.10987l-.67334.14746v-.11621l.51074-.08594-.51074-.0874v-.11621Z" style="fill:#fefefe"/><path d="M368.9834,204.16553a.16091.16091,0,0,1,.05566.13037v.17139h-.67334v-.17139a.16092.16092,0,0,1,.05567-.13037c.05566-.0503.15136-.04932.28076-.04932C368.832,204.11621,368.92725,204.11523,368.9834,204.16553Zm-.49512.0791a.06221.06221,0,0,0-.02734.0542v.0625h.48242v-.0625a.06221.06221,0,0,0-.02734-.0542.50732.50732,0,0,0-.21485-.02246A.49758.49758,0,0,0,368.48828,204.24463Z" style="fill:#fefefe"/><path d="M368.9834,203.71729a.1609.1609,0,0,1,.05566.13037v.17138h-.67334v-.17138a.1609.1609,0,0,1,.05567-.13037c.05566-.0503.15136-.04932.28076-.04932C368.832,203.668,368.92725,203.667,368.9834,203.71729Zm-.49512.0791a.06221.06221,0,0,0-.02734.0542v.0625h.48242v-.0625a.06221.06221,0,0,0-.02734-.0542.50732.50732,0,0,0-.21485-.02246A.49758.49758,0,0,0,368.48828,203.79639Z" style="fill:#fefefe"/><path d="M369.18359,203.62744h-.07275v-.43213h.07275Z" style="fill:#fefefe"/><path d="M368.93408,202.8833h.105v.1001h-.105v.187h-.08984l-.47852-.17285v-.09766l.47852.16748v-.084h-.12012v-.1001h.12012v-.04639h.08984Z" style="fill:#fefefe"/><path d="M368.77588,202.58643v.06347h.26318v.106h-.67334v-.16943c0-.12207.063-.17334.2041-.17334C368.70605,202.41309,368.77588,202.4585,368.77588,202.58643Zm-.31494-.002v.06543h.21972v-.06543c0-.05664-.05029-.06543-.10986-.06543S368.46094,202.52783,368.46094,202.58447Z" style="fill:#fefefe"/><path d="M368.99268,202.06689a.14009.14009,0,0,1,.05371.12012.13526.13526,0,0,1-.05371.11768.24906.24906,0,0,1-.15821.03369.46191.46191,0,0,1-.15869-.02734l-.31006-.11817v-.104l.27246.11084a.07022.07022,0,0,1-.01172-.042.107.107,0,0,1,.042-.08886c.03076-.02442.06689-.03369.166-.03369A.256.256,0,0,1,368.99268,202.06689Zm-.26661.0835a.04313.04313,0,0,0-.01709.03613.044.044,0,0,0,.01709.03662.21078.21078,0,0,0,.10791.01514.20646.20646,0,0,0,.106-.01514.045.045,0,0,0,.0166-.03662.04278.04278,0,0,0-.0166-.03613.20478.20478,0,0,0-.106-.01514A.21089.21089,0,0,0,368.72607,202.15039Z" style="fill:#fefefe"/><path d="M382.86426,189.44092h-.10987l-.14746-.67383h.11621l.08594.51123.0874-.51123h.11622Z" style="fill:#fefefe"/><path d="M383.37451,189.39844a.17262.17262,0,0,1-.13232.04248h-.16748v-.67383h.16845a.17393.17393,0,0,1,.13135.042.19159.19159,0,0,1,.042.1416.14765.14765,0,0,1-.03515.11377.1056.1056,0,0,1-.03516.02344.09571.09571,0,0,1,.03613.0249.183.183,0,0,1,.03614.12842A.21143.21143,0,0,1,383.37451,189.39844Zm-.14355-.53565h-.0503v.18262h.0503c.05566,0,.07959-.02734.07959-.0918C383.31055,188.88574,383.2876,188.86279,383.231,188.86279Zm.001.27246h-.05127v.21h.05127c.05762,0,.08057-.02636.08057-.105C383.3125,189.16553,383.28857,189.13525,383.23193,189.13525Z" style="fill:#fefefe"/><path d="M383.79248,189.44092l-.02734-.1333h-.15576l-.02686.1333h-.11133l.16553-.67383h.103l.16357.67383Zm-.105-.51074-.05762.28173h.11573Z" style="fill:#fefefe"/><path d="M384.14941,188.86279v.57813h-.106v-.57813h-.11231v-.0957h.332v.0957Z" style="fill:#fefefe"/><path d="M411.99219,184.61719h-.67334V184.334h.09521v.17725h.19141v-.15234h.09521v.15234h.1958V184.334h.09571Z" style="fill:#fefefe"/><path d="M411.99219,184.24121h-.67334v-.106h.57763V183.958h.09571Z" style="fill:#fefefe"/><path d="M411.99219,183.67285v.10986l-.67334.14747V183.814l.51074-.08593-.51074-.0874v-.11622Z" style="fill:#fefefe"/><path d="M411.95459,183.17969a.18791.18791,0,0,1,.04443.13183.178.178,0,0,1-.04443.13037.18686.18686,0,0,1-.145.04346v-.106a.10668.10668,0,0,0,.07568-.019.06377.06377,0,0,0,.01807-.04883.06249.06249,0,0,0-.019-.05127.10764.10764,0,0,0-.07471-.01806c-.07178,0-.08984.01123-.11084.06347l-.03271.08057c-.02881.06787-.06543.09375-.16944.09375a.184.184,0,0,1-.14306-.05518.16944.16944,0,0,1-.04053-.11523.16686.16686,0,0,1,.04053-.12109.19263.19263,0,0,1,.147-.04737v.106a.11316.11316,0,0,0-.07227.01611.05552.05552,0,0,0-.01953.04737.05783.05783,0,0,0,.01856.04541.10175.10175,0,0,0,.0664.01806c.05469,0,.07178-.00879.09082-.05615l.03223-.0791c.0332-.08057.07568-.10254.189-.10254A.19431.19431,0,0,1,411.95459,183.17969Z" style="fill:#fefefe"/><path d="M411.95459,182.76025a.188.188,0,0,1,.04443.13184.178.178,0,0,1-.04443.13037.18686.18686,0,0,1-.145.04346v-.106a.10673.10673,0,0,0,.07568-.019.06377.06377,0,0,0,.01807-.04883.06247.06247,0,0,0-.019-.05127.10764.10764,0,0,0-.07471-.01807c-.07178,0-.08984.01172-.11084.06348l-.03271.08057c-.02881.06787-.06543.09375-.16944.09375a.184.184,0,0,1-.14306-.05518.16946.16946,0,0,1-.04053-.11523.16691.16691,0,0,1,.04053-.1211.19266.19266,0,0,1,.147-.04736v.106a.11316.11316,0,0,0-.07227.01611.0555.0555,0,0,0-.01953.04736.0578.0578,0,0,0,.01856.04541.10169.10169,0,0,0,.0664.01807c.05469,0,.07178-.00879.09082-.05615l.03223-.07959c.0332-.08008.07568-.102.189-.102A.19431.19431,0,0,1,411.95459,182.76025Z" style="fill:#fefefe"/><path d="M412.13672,182.6792H412.064v-.43213h.07276Z" style="fill:#fefefe"/><path d="M411.76709,182.20068h-.0957v-.19091h.0957Z" style="fill:#fefefe"/><path d="M411.88721,181.65479h.105v.10009h-.105v.187h-.08985l-.47851-.17285v-.09765l.47851.16748v-.084h-.12011v-.10009h.12011v-.04639h.08985Z" style="fill:#fefefe"/><path d="M411.729,181.35791v.06348h.26319v.106h-.67334v-.16943c0-.12207.063-.17334.2041-.17334C411.65918,181.18457,411.729,181.23,411.729,181.35791Zm-.31494-.00195v.06543h.21973V181.356c0-.05664-.05029-.06543-.10986-.06543S411.41406,181.29932,411.41406,181.356Z" style="fill:#fefefe"/><path d="M411.88721,180.8374h.105v.10059h-.105v.1875h-.08985l-.47851-.17334v-.09766l.47851.16748v-.084h-.12011v-.10059h.12011v-.0459h.08985Z" style="fill:#fefefe"/><path d="M409.15354,121.31988h-8.878a.5515.5515,0,0,1,0-1.103h8.878a.5515.5515,0,1,1,0,1.103" style="fill:#ff1a77"/><path d="M402.81641,121.0835v-.67383h.2832v.0957h-.17725v.19141h.15235v.09521h-.15235v.1958h.17725v.09571Z" style="fill:#fefefe"/><path d="M403.19238,121.0835v-.67383h.106v.57812h.17725v.09571Z" style="fill:#fefefe"/><path d="M403.76074,121.0835h-.10986l-.14746-.67383h.11621l.08594.51123.0874-.51123h.11621Z" style="fill:#fefefe"/><path d="M404.25391,121.04541a.18581.18581,0,0,1-.13184.04492.17607.17607,0,0,1-.13037-.04492.185.185,0,0,1-.04346-.14453h.106a.10673.10673,0,0,0,.019.07568.06377.06377,0,0,0,.04883.01807.06247.06247,0,0,0,.05127-.019.10764.10764,0,0,0,.01807-.07471c0-.07178-.01123-.08984-.06348-.11084l-.08057-.03272c-.06787-.0288-.09375-.06543-.09375-.16943a.18405.18405,0,0,1,.05518-.14307.16946.16946,0,0,1,.11523-.04052.16695.16695,0,0,1,.1211.04052.19217.19217,0,0,1,.04736.14649h-.106a.11167.11167,0,0,0-.01611-.07178.05547.05547,0,0,0-.04736-.01953.05779.05779,0,0,0-.04541.01855.1017.1017,0,0,0-.01807.06641c0,.05469.00879.07178.05615.09082l.0791.03223c.08057.0332.10254.07568.10254.189A.19241.19241,0,0,1,404.25391,121.04541Z" style="fill:#fefefe"/><path d="M404.67334,121.04541a.18579.18579,0,0,1-.13184.04492.17607.17607,0,0,1-.13037-.04492.185.185,0,0,1-.04345-.14453h.106a.10668.10668,0,0,0,.019.07568.06375.06375,0,0,0,.04882.01807.06246.06246,0,0,0,.05127-.019.10764.10764,0,0,0,.01807-.07471c0-.07178-.01172-.08984-.06348-.11084l-.08056-.03272c-.06787-.0288-.09375-.06543-.09375-.16943a.184.184,0,0,1,.05517-.14307.16948.16948,0,0,1,.11524-.04052.1669.1669,0,0,1,.12109.04052.19213.19213,0,0,1,.04736.14649h-.106a.11167.11167,0,0,0-.01612-.07178.05546.05546,0,0,0-.04736-.01953.05781.05781,0,0,0-.04541.01855.1017.1017,0,0,0-.01807.06641c0,.05469.00879.07178.05616.09082l.07959.03223c.08007.0332.102.07568.102.189A.19241.19241,0,0,1,404.67334,121.04541Z" style="fill:#fefefe"/><path d="M404.75439,121.228v-.07276h.43213v.07276Z" style="fill:#fefefe"/><path d="M405.23291,120.8584v-.0957h.19092v.0957Z" style="fill:#fefefe"/><path d="M405.77881,120.97852v.105h-.1001v-.105h-.187v-.08985l.17285-.479h.09766l-.16748.479h.084v-.12012h.1001v.12012h.04639v.08985Z" style="fill:#fefefe"/><path d="M406.07568,120.82031h-.06347v.26319h-.106v-.67383h.16943c.12207,0,.17334.06347.17334.20459C406.249,120.75049,406.20361,120.82031,406.07568,120.82031Zm.002-.31494h-.06543v.21973h.06543c.05664,0,.06543-.0503.06543-.10987S406.13428,120.50537,406.07764,120.50537Z" style="fill:#fefefe"/><path d="M406.59619,120.97852v.105h-.10058v-.105h-.1875v-.08985l.17334-.479h.09765l-.16748.479h.084v-.12012h.10058v.12012h.0459v.08985Z" style="fill:#fefefe"/><path d="M449.27314,174.49127h-8.878a.5515.5515,0,0,1,0-1.103h8.878a.5515.5515,0,1,1,0,1.103" style="fill:#ff7398"/><path d="M444.25488,174.25439h-.10937l-.14746-.67382h.11621l.08594.51123.08691-.51123h.11621Z" style="fill:#fefefe"/><path d="M444.76563,174.21191a.1714.1714,0,0,1-.13184.04248h-.168v-.67382h.16895a.1727.1727,0,0,1,.13086.042.19161.19161,0,0,1,.042.1416.14766.14766,0,0,1-.03516.11377.10565.10565,0,0,1-.03516.02344.09583.09583,0,0,1,.03614.0249.18306.18306,0,0,1,.03613.12842A.21144.21144,0,0,1,444.76563,174.21191Zm-.14356-.53564h-.0498v.18262h.0498c.05566,0,.0791-.02735.0791-.0918C444.70117,173.69922,444.67871,173.67627,444.62207,173.67627Zm.001.27246h-.05078v.21h.05078c.05761,0,.08008-.02637.08008-.105C444.70313,173.979,444.67969,173.94873,444.62305,173.94873Z" style="fill:#fefefe"/><path d="M445.18359,174.25439l-.02734-.1333H445l-.02637.1333h-.11133l.165-.67382h.10352l.16406.67382Zm-.10449-.51074-.05762.28174h.11524Z" style="fill:#fefefe"/><path d="M445.54,173.67627v.57812h-.10547v-.57812h-.11328v-.0957h.332v.0957Z" style="fill:#fefefe"/><path d="M813.10059,520.903l-.11188-.19378A49.19432,49.19432,0,0,0,770.38519,496.112h-543.342v99.16357H770.1615a49.58177,49.58177,0,0,0,42.93909-24.79083v-.00006A49.5817,49.5817,0,0,0,813.10059,520.903Z" style="fill:#d0d2d3"/><path d="M177.33984,496.112h-102.53a49.58144,49.58144,0,0,0-42.939,24.791h-.00006a49.58158,49.58158,0,0,0,0,49.58154h.00006a49.58145,49.58145,0,0,0,42.939,24.791H227.04315V496.112Z" style="fill:#292c31"/><path d="M41.98389,547.93945a2.77051,2.77051,0,1,1,2.771-2.77148A2.77081,2.77081,0,0,1,41.98389,547.93945Z" style="fill:#fff"/><path d="M49.83789,550.8457V538.74414h5.08252v1.7168H51.7417v3.43359h2.73682v1.7168H51.7417v3.51758h3.17871v1.71679Z" style="fill:#fff"/><path d="M56.56982,550.8457V538.74414h1.90381v10.38477h3.17871v1.71679Z" style="fill:#fff"/><path d="M63.08105,550.8457V538.74414h5.08252v1.7168H64.98486v3.43359h2.73682v1.7168H64.98486v3.51758h3.17871v1.71679Z" style="fill:#fff"/><path d="M74.81055,550.2168a2.91847,2.91847,0,0,1-2.09082.76562,2.88725,2.88725,0,0,1-2.34571-1.01953c-.90136-1.01953-.88427-2.77148-.88427-5.15039,0-2.38086-.01709-4.166.88427-5.18555a3.21964,3.21964,0,0,1,4.45313-.23828,3.63487,3.63487,0,0,1,.96924,2.55078H73.89258a2.31219,2.31219,0,0,0-.28906-1.17382.93608.93608,0,0,0-.88379-.44141.97544.97544,0,0,0-.90088.459c-.35694.57813-.4253,1.80274-.4253,4.01172s.06836,3.4336.4253,4.01172a.97542.97542,0,0,0,.90088.459.96539.96539,0,0,0,.90088-.44141,2.38,2.38,0,0,0,.28906-1.19141h1.90381A3.62928,3.62928,0,0,1,74.81055,550.2168Z" style="fill:#fff"/><path d="M80.67529,540.46094V550.8457H78.77148V540.46094H76.74854v-1.7168h5.9663v1.7168Z" style="fill:#fff"/><path d="M88.64844,550.8457l-1.58106-4.96289h-1.0708v4.96289H84.09277V538.74414h3.05957c2.21,0,3.09375,1.07031,3.09375,3.56836,0,1.49609-.30615,2.56641-1.41113,3.16211l1.80225,5.37109Zm-1.479-10.38476H85.99658V544.166h1.17285c1.02,0,1.17286-.84961,1.17286-1.85352C88.34229,541.31055,88.18945,540.46094,87.16943,540.46094Z" style="fill:#fff"/><path d="M92.21875,550.8457V538.74414h1.90381V550.8457Z" style="fill:#fff"/><path d="M101.16016,550.2168a2.91848,2.91848,0,0,1-2.09082.76562,2.88725,2.88725,0,0,1-2.34571-1.01953c-.90136-1.01953-.88427-2.77148-.88427-5.15039,0-2.38086-.01709-4.166.88427-5.18555a3.21964,3.21964,0,0,1,4.45313-.23828,3.63487,3.63487,0,0,1,.96924,2.55078h-1.90381a2.31219,2.31219,0,0,0-.28906-1.17382.93608.93608,0,0,0-.88379-.44141.97544.97544,0,0,0-.90088.459c-.35694.57813-.4253,1.80274-.4253,4.01172s.06836,3.4336.4253,4.01172a.97542.97542,0,0,0,.90088.459.96536.96536,0,0,0,.90087-.44141,2.37988,2.37988,0,0,0,.28907-1.19141h1.90381A3.62928,3.62928,0,0,1,101.16016,550.2168Z" style="fill:#fff"/><path d="M108.60547,550.8457l-.49268-2.39648h-2.80468l-.47608,2.39648h-2.00586l2.97461-12.10156h1.853l2.94043,12.10156Zm-1.88672-9.17773-1.03662,5.06445h2.07373Z" style="fill:#fff"/><path d="M111.71729,550.8457V538.74414h1.9038v10.38477h3.17871v1.71679Z" style="fill:#fff"/><path d="M126.26855,550.2168a2.91845,2.91845,0,0,1-2.09082.76562,2.88723,2.88723,0,0,1-2.3457-1.01953c-.90137-1.01953-.88428-2.77148-.88428-5.15039,0-2.38086-.01709-4.166.88428-5.18555a3.21964,3.21964,0,0,1,4.45313-.23828,3.63486,3.63486,0,0,1,.96923,2.55078h-1.9038a2.31209,2.31209,0,0,0-.28907-1.17382.93606.93606,0,0,0-.88379-.44141.97543.97543,0,0,0-.90087.459c-.35694.57813-.4253,1.80274-.4253,4.01172s.06836,3.4336.4253,4.01172a.97542.97542,0,0,0,.90087.459.96536.96536,0,0,0,.90088-.44141,2.37988,2.37988,0,0,0,.28907-1.19141h1.9038A3.62924,3.62924,0,0,1,126.26855,550.2168Z" style="fill:#fff"/><path d="M134.12207,549.96289a3.20823,3.20823,0,0,1-4.69141,0c-.90136-1.01953-.88427-2.78906-.88427-5.168s-.01709-4.14844.88427-5.168a3.20823,3.20823,0,0,1,4.69141,0c.90088,1.01953.88379,2.78907.88379,5.168S135.023,548.94336,134.12207,549.96289Zm-1.42773-9.17969a1.00578,1.00578,0,0,0-.918-.459.97544.97544,0,0,0-.90088.459c-.35694.57813-.42529,1.80274-.42529,4.01172s.06835,3.4336.42529,4.01172a.97542.97542,0,0,0,.90088.459,1.00577,1.00577,0,0,0,.918-.459c.35693-.57812.40771-1.80273.40771-4.01172S133.05127,541.36133,132.69434,540.7832Z" style="fill:#fff"/><path d="M136.72363,550.8457V538.74414h1.90381v10.38477h3.17871v1.71679Z" style="fill:#fff"/><path d="M148.48682,549.96289a3.20823,3.20823,0,0,1-4.69141,0c-.90088-1.01953-.88428-2.78906-.88428-5.168s-.0166-4.14844.88428-5.168a3.20823,3.20823,0,0,1,4.69141,0c.90088,1.01953.88379,2.78907.88379,5.168S149.3877,548.94336,148.48682,549.96289Zm-1.42774-9.17969a1.00577,1.00577,0,0,0-.918-.459.97546.97546,0,0,0-.90088.459c-.35693.57813-.42529,1.80274-.42529,4.01172s.06836,3.4336.42529,4.01172a.97544.97544,0,0,0,.90088.459,1.00576,1.00576,0,0,0,.918-.459c.35694-.57812.40772-1.80273.40772-4.01172S147.416,541.36133,147.05908,540.7832Z" style="fill:#fff"/><path d="M155.64355,550.8457l-1.58056-4.96289h-1.0708v4.96289h-1.90381V538.74414H154.148c2.21,0,3.09375,1.07031,3.09375,3.56836,0,1.49609-.30615,2.56641-1.41113,3.16211l1.80224,5.37109ZM154.165,540.46094h-1.17285V544.166H154.165c1.02,0,1.17285-.84961,1.17285-1.85352C155.33789,541.31055,155.18506,540.46094,154.165,540.46094Z" style="fill:#fff"/><path d="M162.25684,550.8457V538.74414h1.9038v10.38477h3.17872v1.71679Z" style="fill:#fff"/><path d="M168.76807,550.8457V538.74414h5.08252v1.7168h-3.17871v3.43359h2.73681v1.7168h-2.73681v3.51758h3.17871v1.71679Z" style="fill:#fff"/><path d="M178.40625,550.98242a2.88721,2.88721,0,0,1-2.3457-1.01953c-.90137-1.01953-.88428-2.78906-.88428-5.168s-.01709-4.14844.88428-5.168a2.88724,2.88724,0,0,1,2.3457-1.01953,2.93677,2.93677,0,0,1,2.15869.81641A3.72505,3.72505,0,0,1,181.5,541.957h-1.90381c-.01709-.68164-.17041-1.63281-1.18994-1.63281a.97545.97545,0,0,0-.90088.459c-.35693.57813-.42529,1.80274-.42529,4.01172s.06836,3.4336.42529,4.01172a.97543.97543,0,0,0,.90088.459c.81592,0,1.18994-.71485,1.18994-1.54688V545.832h-1.18994v-1.56445H181.5v3.34961C181.5,549.80859,180.208,550.98242,178.40625,550.98242Z" style="fill:#fff"/><path d="M183.23438,550.8457V538.74414h5.08251v1.7168h-3.17871v3.43359H187.875v1.7168h-2.73682v3.51758h3.17871v1.71679Z" style="fill:#fff"/><path d="M194.72559,550.8457l-2.85547-7.18945v7.18945h-1.90381V538.74414H191.666l2.83886,7.18945v-7.18945h1.90381V550.8457Z" style="fill:#fff"/><path d="M203.87158,549.84375a2.90812,2.90812,0,0,1-2.3457,1.00195h-3.07666V538.74414h3.07666a2.90815,2.90815,0,0,1,2.3457,1.00195c.90088,1.00391.88379,2.72071.88379,5.04883S204.77246,548.83984,203.87158,549.84375Zm-1.42773-8.89062a1.10023,1.10023,0,0,0-.96924-.49219H200.353v8.668h1.12158a1.10026,1.10026,0,0,0,.96924-.49219c.35693-.56055.40771-1.75195.40771-3.85938S202.80078,541.51367,202.44385,540.95313Z" style="fill:#fff"/><path d="M212.28613,547.93945a2.77051,2.77051,0,1,1,2.771-2.77148A2.77081,2.77081,0,0,1,212.28613,547.93945Z" style="fill:#fff"/><line x1="227.04314" y1="528.68593" x2="816.73608" y2="528.68593" style="fill:none;stroke:#fff;stroke-miterlimit:10;stroke-width:0.25px"/><line x1="227.04314" y1="511.75465" x2="806.36091" y2="511.75465" style="fill:none;stroke:#fff;stroke-miterlimit:10;stroke-width:0.25px"/><line x1="227.04314" y1="545.6172" x2="819.74284" y2="545.6172" style="fill:none;stroke:#fff;stroke-miterlimit:10;stroke-width:0.25px"/><line x1="227.04314" y1="562.62508" x2="816.76134" y2="562.62508" style="fill:none;stroke:#fff;stroke-miterlimit:10;stroke-width:0.25px"/><line x1="227.04314" y1="579.63295" x2="806.30825" y2="579.63295" style="fill:none;stroke:#fff;stroke-miterlimit:10;stroke-width:0.25px"/><path d="M647.92613,42.57769a21.29,21.29,0,0,0,0-42.5799H197.04533a21.29,21.29,0,1,0,0,42.5799Z" style="fill:#292c31"/><path d="M350.21289,25.31543a3.14182,3.14182,0,0,1-2.22461.75293,3.01162,3.01162,0,0,1-2.209-.75293,3.14458,3.14458,0,0,1-.73633-2.44824h1.792a1.81056,1.81056,0,0,0,.32031,1.28027,1.08648,1.08648,0,0,0,.833.30371,1.053,1.053,0,0,0,.86426-.32031,1.8215,1.8215,0,0,0,.30371-1.26367c0-1.2168-.19238-1.52051-1.07227-1.873l-1.36035-.56055c-1.15234-.47949-1.585-1.10449-1.585-2.86523a3.1112,3.1112,0,0,1,.92871-2.417,2.86818,2.86818,0,0,1,1.95215-.6875,2.82347,2.82347,0,0,1,2.04883.6875,3.25372,3.25372,0,0,1,.80078,2.48144h-1.793a1.88987,1.88987,0,0,0-.27246-1.21679.94255.94255,0,0,0-.7998-.33594.95851.95851,0,0,0-.76856.32031,1.7028,1.7028,0,0,0-.30371,1.12012c0,.92871.14356,1.21679.94434,1.53711l1.34472.54394c1.36035.56055,1.72852,1.28028,1.72852,3.20117A3.24862,3.24862,0,0,1,350.21289,25.31543Z" style="fill:#fff"/><path d="M357.07617,25.95605l-.46484-2.25683H353.9707l-.44824,2.25683h-1.88867l2.80078-11.39648h1.74512l2.76855,11.39648Zm-1.77734-8.64355-.97559,4.76953h1.95215Z" style="fill:#fff"/><path d="M365.86035,25.95605V18.84961l-1.55176,4.67383h-.99316l-1.52051-4.59375v7.02636h-1.793V14.55957h1.61719l2.209,5.98633,2.19238-5.98633h1.63281V25.95605Z" style="fill:#fff"/><path d="M374.34082,25.31543a3.14182,3.14182,0,0,1-2.22461.75293,3.01162,3.01162,0,0,1-2.209-.75293,3.14454,3.14454,0,0,1-.73633-2.44824h1.792a1.81056,1.81056,0,0,0,.32031,1.28027,1.08648,1.08648,0,0,0,.833.30371,1.053,1.053,0,0,0,.86426-.32031,1.82658,1.82658,0,0,0,.30371-1.26367c0-1.2168-.19238-1.52051-1.07227-1.873l-1.36035-.56055c-1.15234-.47949-1.585-1.10449-1.585-2.86523a3.1112,3.1112,0,0,1,.92871-2.417,2.86816,2.86816,0,0,1,1.95215-.6875,2.82347,2.82347,0,0,1,2.04883.6875,3.25372,3.25372,0,0,1,.80078,2.48144h-1.793a1.88987,1.88987,0,0,0-.27246-1.21679.94255.94255,0,0,0-.7998-.33594.95851.95851,0,0,0-.76856.32031,1.7028,1.7028,0,0,0-.30371,1.12012c0,.92871.14356,1.21679.94434,1.53711l1.34472.54394c1.36035.56055,1.72852,1.28028,1.72852,3.20117A3.24862,3.24862,0,0,1,374.34082,25.31543Z" style="fill:#fff"/><path d="M381.57227,25.252a2.83775,2.83775,0,0,1-2.11329.832,2.87343,2.87343,0,0,1-2.1289-.832,2.94464,2.94464,0,0,1-.78418-2.09668v-8.5957h1.793V23.251a1.09447,1.09447,0,0,0,1.12011,1.21679,1.08354,1.08354,0,0,0,1.1045-1.21679V14.55957h1.793v8.5957A2.94469,2.94469,0,0,1,381.57227,25.252Z" style="fill:#fff"/><path d="M388.66016,25.95605l-2.68946-6.7705v6.7705h-1.793V14.55957h1.60059l2.67383,6.77051V14.55957h1.792V25.95605Z" style="fill:#fff"/><path d="M394.89844,26.084a2.72232,2.72232,0,0,1-2.209-.96c-.84765-.96093-.832-2.625-.832-4.86621s-.01562-3.90527.832-4.86621a2.72235,2.72235,0,0,1,2.209-.96,2.76331,2.76331,0,0,1,2.0332.76856,3.49973,3.49973,0,0,1,.87988,2.38476h-1.792c-.0166-.64062-.16015-1.53711-1.12109-1.53711a.915.915,0,0,0-.84766.43262c-.33691.54394-.40039,1.69629-.40039,3.77734s.06348,3.2334.40039,3.77735a.91692.91692,0,0,0,.84766.43261c.76855,0,1.12109-.67285,1.12109-1.457V21.23438h-1.12109V19.76172h2.91308V22.915C397.81152,24.97949,396.5957,26.084,394.89844,26.084Z" style="fill:#fff"/><path d="M407.0752,25.31543a3.14182,3.14182,0,0,1-2.22461.75293,3.01163,3.01163,0,0,1-2.209-.75293,3.14458,3.14458,0,0,1-.73633-2.44824h1.792a1.81056,1.81056,0,0,0,.32031,1.28027,1.08646,1.08646,0,0,0,.833.30371,1.053,1.053,0,0,0,.86425-.32031,1.82658,1.82658,0,0,0,.30371-1.26367c0-1.2168-.19238-1.52051-1.07226-1.873l-1.36035-.56055c-1.15235-.47949-1.585-1.10449-1.585-2.86523a3.1112,3.1112,0,0,1,.92871-2.417,2.86814,2.86814,0,0,1,1.95215-.6875,2.82344,2.82344,0,0,1,2.04882.6875,3.25368,3.25368,0,0,1,.80079,2.48144h-1.793A1.88993,1.88993,0,0,0,405.666,16.416a.94257.94257,0,0,0-.79981-.33594.95851.95851,0,0,0-.76855.32031,1.7028,1.7028,0,0,0-.30371,1.12012c0,.92871.14355,1.21679.94433,1.53711l1.34473.54394c1.36035.56055,1.72851,1.28028,1.72851,3.20117A3.24862,3.24862,0,0,1,407.0752,25.31543Z" style="fill:#fff"/><path d="M415.23535,25.95605V18.84961l-1.55176,4.67383h-.99316l-1.52051-4.59375v7.02636h-1.793V14.55957h1.61719l2.209,5.98633,2.19238-5.98633h1.63281V25.95605Z" style="fill:#fff"/><path d="M418.73633,22.14648V20.53027h3.2334v1.61621Z" style="fill:#fff"/><path d="M428.22656,25.95605l-.46484-2.25683h-2.64063l-.44824,2.25683h-1.88867L425.585,14.55957h1.74512l2.76855,11.39648Zm-1.77734-8.64355-.97559,4.76953h1.95215Z" style="fill:#fff"/><path d="M435.21875,25.37988a2.55313,2.55313,0,0,1-1.80859.7041,2.62787,2.62787,0,0,1-1.8252-.65625,2.4311,2.4311,0,0,1-.7207-1.90429v-.56055h1.69726v.78418c0,.68848.36817.99219.84864.99219a.68955.68955,0,0,0,.624-.30371,4.72442,4.72442,0,0,0,.25586-2.16114,4.62469,4.62469,0,0,0-.22363-2.0166.73177.73177,0,0,0-.65625-.35254.86358.86358,0,0,0-.84864.97657v.24023h-1.61718v-6.5625h4.91406v1.52051h-3.36133V19.1377a2.126,2.126,0,0,1,.59277-.54493,1.76762,1.76762,0,0,1,.81641-.208,1.78576,1.78576,0,0,1,1.53613.68847c.48047.5918.54395,1.64844.54395,3.041C435.98633,23.61914,435.9707,24.62793,435.21875,25.37988Z" style="fill:#fff"/><path d="M437.36035,25.95605V24.51563L440.21,18.97754a4.44051,4.44051,0,0,0,.46387-2.0332c0-.65625-.35156-.99219-.81641-.99219-.46387,0-.84765.32031-.84765.97656V17.665H437.3125v-.67285a2.39048,2.39048,0,0,1,.7041-1.88867,2.71313,2.71313,0,0,1,1.84082-.67188,2.4873,2.4873,0,0,1,1.76074.6084,2.56907,2.56907,0,0,1,.75293,1.96875,5.765,5.765,0,0,1-.625,2.49707L439.169,24.43555h3.20214v1.5205Z" style="fill:#fff"/><path d="M448.05078,25.41211a2.60291,2.60291,0,0,1-1.80859.67187,2.64315,2.64315,0,0,1-1.8252-.67187,2.39641,2.39641,0,0,1-.7207-1.88867V16.99219a2.39639,2.39639,0,0,1,.7207-1.88867,2.64316,2.64316,0,0,1,1.8252-.67188,2.60291,2.60291,0,0,1,1.80859.67188,2.396,2.396,0,0,1,.71973,1.88867v6.53125A2.396,2.396,0,0,1,448.05078,25.41211Zm-.97656-8.4834c0-.65625-.36817-.97656-.832-.97656a.85489.85489,0,0,0-.84864.97656v6.6582a.8549.8549,0,0,0,.84864.97657c.46386,0,.832-.32032.832-.97657Z" style="fill:#fff"/><path d="M452.84766,24.99609v-1.873l3.25-1.84082-3.25-1.84082V17.585l5.33007,3.10449V21.874Z" style="fill:#fff"/><path d="M466.416,25.95605l-.40625-1.9746h-2.31153l-.39258,1.9746h-1.65234l2.45117-9.97363h1.52637l2.42383,9.97363Zm-1.55567-7.56445-.85449,4.17481h1.709Z" style="fill:#fff"/><path d="M474.10156,25.95605V19.73633l-1.3584,4.09082H471.875L470.544,19.80664v6.14941h-1.56836V15.98242h1.41406l1.93359,5.23926,1.91895-5.23926h1.42871v9.97363Z" style="fill:#fff"/><path d="M481.67578,25.22754a2.64258,2.64258,0,0,1-3.86621,0c-.74219-.83984-.72852-2.29688-.72852-4.25781s-.01367-3.418.72852-4.25879a2.64258,2.64258,0,0,1,3.86621,0c.74219.84082.72852,2.29785.72852,4.25879S482.418,24.3877,481.67578,25.22754ZM480.499,17.66309a.82778.82778,0,0,0-.75683-.37793A.80448.80448,0,0,0,479,17.66309c-.29395.47656-.34961,1.48535-.34961,3.30664,0,1.82031.05566,2.8291.34961,3.30566a.8045.8045,0,0,0,.74219.37793.82781.82781,0,0,0,.75683-.37793c.294-.47656.33594-1.48535.33594-3.30566C480.835,19.14844,480.793,18.13965,480.499,17.66309Z" style="fill:#fff"/><path d="M483.81543,25.95605V15.98242h1.56836V24.541h2.61914v1.415Z" style="fill:#fff"/><path d="M489.17773,25.95605V15.98242h4.1875v1.415h-2.61914v2.8291H493.001v1.415h-2.25489V24.541h2.61914v1.415Z" style="fill:#fff"/><path d="M499.18945,25.12988a2.396,2.396,0,0,1-1.93261.82617h-2.53516V15.98242h2.53516a2.39354,2.39354,0,0,1,1.93261.82715c.74317.82617.72852,2.24121.72852,4.16016S499.93262,24.30273,499.18945,25.12988Zm-1.17675-7.32617a.90481.90481,0,0,0-.79786-.40625H496.29V24.541h.9248a.90481.90481,0,0,0,.79786-.40625c.29492-.46192.33691-1.44239.33691-3.17969C498.34961,19.21875,498.30762,18.26563,498.0127,17.80371Z" style="fill:#fff"/><path d="M251.75944,507.846h0a4.3445,4.3445,0,1,1,4.345-4.345,4.34522,4.34522,0,0,1-4.345,4.345" style="fill:#ff0098;fill-rule:evenodd"/><path d="M251.75944,524.13312h0a4.345,4.345,0,1,1,4.345-4.345,4.34522,4.34522,0,0,1-4.345,4.345" style="fill:#ff50ce;fill-rule:evenodd"/><path d="M251.75944,541.06382h0a4.3445,4.3445,0,1,1,4.345-4.345,4.34523,4.34523,0,0,1-4.345,4.345" style="fill:#ff1a77;fill-rule:evenodd"/><path d="M251.75944,557.99542h0a4.3445,4.3445,0,1,1,4.345-4.345,4.34523,4.34523,0,0,1-4.345,4.345" style="fill:#b4ff22;fill-rule:evenodd"/><path d="M251.75944,591.32852h0a4.3445,4.3445,0,1,1,4.345-4.345,4.34523,4.34523,0,0,1-4.345,4.345" style="fill:#ff7398;fill-rule:evenodd"/><path d="M251.75944,575.00332h0a4.3445,4.3445,0,1,1,4.345-4.345,4.34523,4.34523,0,0,1-4.345,4.345" style="fill:#fff800;fill-rule:evenodd"/><path d="M265.67188,589.26758h-.8003l-1.07568-4.91016h.84814l.62744,3.72363.63477-3.72363h.84814Z"/><path d="M269.3833,588.957a1.26062,1.26062,0,0,1-.96533.31055h-1.2207v-4.91016h1.22753a1.26944,1.26944,0,0,1,.9585.30274,1.39956,1.39956,0,0,1,.30371,1.03515,1.07063,1.07063,0,0,1-.25537.82715.79841.79841,0,0,1-.25537.17285.71136.71136,0,0,1,.26221.17871,1.34576,1.34576,0,0,1,.2622.93848A1.53886,1.53886,0,0,1,269.3833,588.957Zm-1.04834-3.90332h-.36523v1.33106h.36523c.40723,0,.57959-.2002.57959-.66895C268.91455,585.21875,268.749,585.05371,268.335,585.05371Zm.00684,1.98633h-.37207v1.53125h.37207c.4209,0,.58642-.19336.58642-.76563C268.92822,587.26074,268.75586,587.04,268.3418,587.04Z"/><path d="M272.41943,589.26758l-.1997-.97266h-1.13819l-.19336.97266h-.81347l1.20654-4.91016h.752l1.19336,4.91016Zm-.76562-3.72461-.42041,2.05566h.84131Z"/><path d="M275.00684,585.05371v4.21387h-.77246v-4.21387h-.82032v-.69629h2.4209v.69629Z"/><path d="M264.18164,539.40137v-4.91114h2.0625v.69727h-1.29v1.39258h1.11084v.69726H264.9541v1.42774h1.29v.69629Z"/><path d="M266.91406,539.40137v-4.91114h.77246v4.21485h1.29v.69629Z"/><path d="M271.04688,539.40137h-.8003l-1.07568-4.91114h.84814l.62744,3.72461.63477-3.72461h.84814Z"/><path d="M274.62744,539.125a1.35388,1.35388,0,0,1-.959.32422,1.299,1.299,0,0,1-.95166-.32422,1.35538,1.35538,0,0,1-.31739-1.05469h.77247a.77975.77975,0,0,0,.13818.55176.46525.46525,0,0,0,.3584.13086.45341.45341,0,0,0,.37256-.1377.78644.78644,0,0,0,.13086-.54492c0-.52441-.08252-.65527-.46192-.80664l-.58594-.24219c-.49707-.20605-.6831-.47558-.6831-1.23437a1.34162,1.34162,0,0,1,.3999-1.041,1.235,1.235,0,0,1,.8418-.29687,1.217,1.217,0,0,1,.88281.29687,1.40218,1.40218,0,0,1,.34473,1.06836h-.77246a.81139.81139,0,0,0-.11719-.52343.4075.4075,0,0,0-.34473-.14551.41257.41257,0,0,0-.331.13867.73152.73152,0,0,0-.13135.48242c0,.40039.062.52442.40674.66211l.57959.23438c.58642.24121.74463.55175.74463,1.37988A1.4001,1.4001,0,0,1,274.62744,539.125Z"/><path d="M277.67725,539.125a1.35393,1.35393,0,0,1-.959.32422,1.299,1.299,0,0,1-.95166-.32422,1.35542,1.35542,0,0,1-.31738-1.05469h.77246a.77975.77975,0,0,0,.13818.55176.46527.46527,0,0,0,.3584.13086.45338.45338,0,0,0,.37256-.1377.78639.78639,0,0,0,.13086-.54492c0-.52441-.08252-.65527-.46191-.80664l-.58594-.24219c-.49707-.20605-.68311-.47558-.68311-1.23437a1.34159,1.34159,0,0,1,.39991-1.041,1.235,1.235,0,0,1,.84179-.29687,1.21693,1.21693,0,0,1,.88281.29687,1.40214,1.40214,0,0,1,.34473,1.06836h-.77246a.81132.81132,0,0,0-.11719-.52343.40747.40747,0,0,0-.34472-.14551.41257.41257,0,0,0-.33106.13867.73158.73158,0,0,0-.13135.48242c0,.40039.062.52442.40674.66211l.57959.23438c.58643.24121.74463.55175.74463,1.37988A1.40014,1.40014,0,0,1,277.67725,539.125Z"/><path d="M278.25781,540.457v-.53125h3.15186v.53125Z"/><path d="M281.73535,537.75977v-.69629h1.39307v.69629Z"/><path d="M285.7085,538.63574v.76563h-.731v-.76563h-1.36572v-.65527l1.2622-3.49024h.71045l-1.2207,3.49024h.61377v-.876h.731v.876h.33789v.65527Z"/><path d="M287.86182,537.48438h-.46241v1.917H286.627v-4.91114h1.23487c.88964,0,1.2622.4629,1.2622,1.49024C289.124,536.97363,288.793,537.48438,287.86182,537.48438Zm.01367-2.29688h-.47608v1.59961h.47608c.41406,0,.47607-.36523.47607-.79981S288.28955,535.1875,287.87549,535.1875Z"/><path d="M291.64258,538.63574v.76563h-.731v-.76563H289.5459v-.65527l1.26221-3.49024h.71044l-1.2207,3.49024h.61377v-.876h.731v.876h.33789v.65527Z"/><path d="M264.18164,522.0752v-4.91114h2.0625v.69727h-1.29v1.39258h1.11084v.69726H264.9541v1.42774h1.29v.69629Z"/><path d="M266.91406,522.0752v-4.91114h.77246v4.21485h1.29v.69629Z"/><path d="M271.04688,522.0752h-.8003l-1.07568-4.91114h.84814l.62744,3.72461.63477-3.72461h.84814Z"/><path d="M274.772,521.668a1.17872,1.17872,0,0,1-.95166.40723h-1.248v-4.91114h1.248a1.17872,1.17872,0,0,1,.95166.40723c.36573.40723.35889,1.10351.35889,2.04883C275.13086,520.56445,275.1377,521.26172,274.772,521.668Zm-.5791-3.60645a.44661.44661,0,0,0-.39307-.20019h-.45507v3.51758h.45507a.4466.4466,0,0,0,.39307-.2002,3.64708,3.64708,0,0,0,.16553-1.56543A3.56782,3.56782,0,0,0,274.19287,518.06152Z"/><path d="M278.02881,521.668a1.17874,1.17874,0,0,1-.95166.40723H275.8291v-4.91114h1.24805a1.17874,1.17874,0,0,1,.95166.40723c.36572.40723.35889,1.10351.35889,2.04883C278.3877,520.56445,278.39453,521.26172,278.02881,521.668Zm-.5791-3.60645a.44663.44663,0,0,0-.39307-.20019h-.45508v3.51758h.45508a.44661.44661,0,0,0,.39307-.2002,3.64714,3.64714,0,0,0,.16552-1.56543A3.56787,3.56787,0,0,0,277.44971,518.06152Z"/><path d="M278.67188,523.13086v-.53125h3.15185v.53125Z"/><path d="M284.08691,521.30957v.76563h-.731v-.76563h-1.36573v-.65527l1.26221-3.49024h.71045l-1.2207,3.49024h.61377v-.876h.731v.876h.33789v.65527Z"/><path d="M286.24023,520.1582h-.46191v1.917h-.77246v-4.91114h1.23437c.88965,0,1.26221.46289,1.26221,1.49024C287.50244,519.64746,287.17139,520.1582,286.24023,520.1582Zm.01368-2.29687h-.47559v1.59961h.47559c.41406,0,.47607-.36524.47607-.79981S286.668,517.86133,286.25391,517.86133Z"/><path d="M290.01416,521.7373a1.02259,1.02259,0,0,1-.876.39356.98445.98445,0,0,1-.855-.39356,1.80606,1.80606,0,0,1-.24853-1.15136,3.377,3.377,0,0,1,.20019-1.15918l.86182-2.2627h.75879l-.80713,1.98633a.52169.52169,0,0,1,.30371-.082.78379.78379,0,0,1,.64844.30273c.1792.22852.248.49024.248,1.21485A1.84683,1.84683,0,0,1,290.01416,521.7373Zm-.60693-1.94531a.3224.3224,0,0,0-.26221-.124.33563.33563,0,0,0-.269.124,1.5489,1.5489,0,0,0-.11035.78614,1.50247,1.50247,0,0,0,.11035.77246.33363.33363,0,0,0,.269.125.31168.31168,0,0,0,.26221-.125,1.49008,1.49008,0,0,0,.11035-.77246A1.549,1.549,0,0,0,289.40723,519.792Z"/><path d="M264.18164,505.78418v-4.91113h2.0625v.69726h-1.29v1.39258h1.11084v.69727H264.9541v1.42773h1.29v.69629Z"/><path d="M266.91406,505.78418v-4.91113h.77246v4.21484h1.29v.69629Z"/><path d="M271.52246,505.78418l-.20019-.97266h-1.1377l-.19336.97266h-.81348l1.207-4.91113h.75146l1.19336,4.91113Zm-.76562-3.72461-.42041,2.05566h.8413Z"/><path d="M274.27539,505.78418h-.7998l-1.07618-4.91113h.84864l.62744,3.72461.63476-3.72461h.84815Z"/><path d="M278.001,505.377a1.17875,1.17875,0,0,1-.95166.40723h-1.24854v-4.91113h1.24854a1.17875,1.17875,0,0,1,.95166.40722c.36572.40723.35888,1.10352.35888,2.04883C278.35986,504.27344,278.3667,504.9707,278.001,505.377Zm-.5791-3.60644a.44722.44722,0,0,0-.39307-.2002h-.45557v3.51758h.45557a.44724.44724,0,0,0,.39307-.20019,3.65535,3.65535,0,0,0,.16552-1.56543A3.57587,3.57587,0,0,0,277.42188,501.77051Z"/><path d="M281.25781,505.377a1.17872,1.17872,0,0,1-.95166.40723h-1.24853v-4.91113h1.24853a1.17872,1.17872,0,0,1,.95166.40722c.36573.40723.35889,1.10352.35889,2.04883C281.6167,504.27344,281.62354,504.9707,281.25781,505.377Zm-.5791-3.60644a.4472.4472,0,0,0-.39307-.2002h-.45556v3.51758h.45556a.44722.44722,0,0,0,.39307-.20019,3.65529,3.65529,0,0,0,.16553-1.56543A3.57581,3.57581,0,0,0,280.67871,501.77051Z"/><path d="M281.90088,506.83984v-.53125h3.15185v.53125Z"/><path d="M286.28174,505.78418h-.731l1.28955-4.25586h-.855v.65527h-.70361v-1.31054h2.29v.60742Z"/><path d="M289.46924,503.86719h-.4624v1.917h-.77246v-4.91113h1.23486c.88965,0,1.26221.46289,1.26221,1.49023C290.73145,503.35645,290.40039,503.86719,289.46924,503.86719Zm.01367-2.29688h-.47607v1.59961h.47607c.41406,0,.47607-.36523.47607-.7998S289.897,501.57031,289.48291,501.57031Z"/><path d="M293.15332,505.55664a1.131,1.131,0,0,1-.78613.2832,1.153,1.153,0,0,1-.793-.29,1.02942,1.02942,0,0,1-.30371-.81347v-.29h.731v.31738a.36883.36883,0,0,0,.36573.4209.33046.33046,0,0,0,.2622-.125,1.37105,1.37105,0,0,0,.11719-.72363,1.31926,1.31926,0,0,0-.11035-.71778.32215.32215,0,0,0-.27588-.124h-.24121v-.61328h.24121a.29764.29764,0,0,0,.23438-.09668,1.01678,1.01678,0,0,0,.11035-.62109,1.04236,1.04236,0,0,0-.09668-.57911.288.288,0,0,0-.24121-.11035c-.186,0-.33106.13086-.33106.39356v.34472h-.731V501.915a1.04816,1.04816,0,0,1,.30322-.81348,1.06377,1.06377,0,0,1,.75879-.2832,1.0359,1.0359,0,0,1,.752.27539,1.35458,1.35458,0,0,1,.3169,1.02148,1.63931,1.63931,0,0,1-.124.7793.76607.76607,0,0,1-.269.28906.89319.89319,0,0,1,.28271.29688,1.74346,1.74346,0,0,1,.15186.90332A1.43731,1.43731,0,0,1,293.15332,505.55664Z"/><path d="M264.18164,556.47852v-4.91016h2.0625v.69629h-1.29v1.39258h1.11084v.69726H264.9541v1.42774h1.29v.69629Z"/><path d="M266.91406,556.47852v-4.91016h.77246v4.21387h1.29v.69629Z"/><path d="M269.14307,557.53418v-.53125h3.15185v.53125Z"/><path d="M274.84131,556.12012a1.30276,1.30276,0,0,1-1.90332,0c-.36572-.41407-.35889-1.13184-.35889-2.09668,0-.96582-.00683-1.6836.35889-2.09668a1.30066,1.30066,0,0,1,1.90332,0c.36572.41308.35889,1.13086.35889,2.09668C275.2002,554.98828,275.207,555.70605,274.84131,556.12012Zm-.5791-3.72461a.40849.40849,0,0,0-.37256-.18653.39547.39547,0,0,0-.36572.18653,7.769,7.769,0,0,0,0,3.25488.39358.39358,0,0,0,.36572.18652.40651.40651,0,0,0,.37256-.18652,8.08349,8.08349,0,0,0,0-3.25488Z"/><path d="M277.8291,556.47852l-1.15918-2.917v2.917h-.77246v-4.91016h.68994l1.15186,2.917v-2.917h.77246v4.91016Z"/><path d="M279.25146,556.47852v-.6211l1.22754-2.38574a1.91158,1.91158,0,0,0,.2002-.876c0-.2832-.15186-.42773-.352-.42773-.19971,0-.36524.13769-.36524.4209v.31738h-.73144v-.29a1.02665,1.02665,0,0,1,.30371-.81348,1.16719,1.16719,0,0,1,.793-.29,1.07584,1.07584,0,0,1,.75879.26171,1.109,1.109,0,0,1,.32422.84864,2.48409,2.48409,0,0,1-.269,1.07617l-1.11035,2.124h1.3794v.65528Z"/><path d="M264.18164,572.94238v-4.91113h2.0625v.69727h-1.29v1.39257h1.11084v.69727H264.9541v1.42773h1.29v.69629Z"/><path d="M266.91406,572.94238v-4.91113h.77246v4.21484h1.29v.69629Z"/><path d="M269.14307,573.99805v-.53125h3.15185v.53125Z"/><path d="M274.84131,572.584a1.30064,1.30064,0,0,1-1.90332,0c-.36572-.41406-.35889-1.13085-.35889-2.09668s-.00683-1.68261.35889-2.09667a1.30064,1.30064,0,0,1,1.90332,0c.36572.41406.35889,1.13085.35889,2.09667S275.207,572.16992,274.84131,572.584Zm-.5791-3.7246a.40847.40847,0,0,0-.37256-.18653.39545.39545,0,0,0-.36572.18653,7.77354,7.77354,0,0,0,0,3.25585.39677.39677,0,0,0,.36572.18555.4099.4099,0,0,0,.37256-.18555,8.08826,8.08826,0,0,0,0-3.25585Z"/><path d="M277.8291,572.94238l-1.15918-2.917v2.917h-.77246v-4.91113h.68994l1.15186,2.918v-2.918h.77246v4.91113Z"/><path d="M280.148,572.94238v-4.05566l-.73779.56543V568.625l.73779-.59375h.731v4.91113Z"/></svg>