<svg xmlns="http://www.w3.org/2000/svg" viewBox="0 0 841.88976 595.27559"><title>CPU Voltage</title><path d="M647.92613,42.57769a21.29,21.29,0,0,0,0-42.5799H197.04533a21.29,21.29,0,1,0,0,42.5799Z" style="fill:#292c31"/><path d="M337.73926,25.31543a3.14182,3.14182,0,0,1-2.22461.75293,3.01165,3.01165,0,0,1-2.209-.75293,3.14458,3.14458,0,0,1-.73632-2.44824h1.792a1.81056,1.81056,0,0,0,.32031,1.28027,1.08648,1.08648,0,0,0,.833.30371,1.053,1.053,0,0,0,.86426-.32031,1.82663,1.82663,0,0,0,.30371-1.26367c0-1.2168-.19239-1.52051-1.07227-1.873L334.25,20.43359c-1.15234-.47949-1.585-1.10449-1.585-2.86523a3.1112,3.1112,0,0,1,.92871-2.417,2.86814,2.86814,0,0,1,1.95215-.6875,2.82348,2.82348,0,0,1,2.04883.6875,3.25372,3.25372,0,0,1,.80078,2.48144h-1.793a1.88993,1.88993,0,0,0-.27246-1.21679.94257.94257,0,0,0-.79981-.33594.95851.95851,0,0,0-.76855.32031,1.7028,1.7028,0,0,0-.30371,1.12012c0,.92871.14355,1.21679.94433,1.53711l1.34473.54394c1.36035.56055,1.72852,1.28028,1.72852,3.20117A3.24862,3.24862,0,0,1,337.73926,25.31543Z" style="fill:#fff"/><path d="M344.60352,25.95605l-.46485-2.25683h-2.64062l-.44825,2.25683h-1.88867l2.80078-11.39648H343.707l2.76856,11.39648Zm-1.77735-8.64355-.97558,4.76953h1.95214Z" style="fill:#fff"/><path d="M353.38672,25.95605V18.84961L351.835,23.52344h-.99316l-1.52051-4.59375v7.02636h-1.793V14.55957h1.61719l2.209,5.98633,2.19239-5.98633h1.63281V25.95605Z" style="fill:#fff"/><path d="M361.86621,25.31543a3.14182,3.14182,0,0,1-2.22461.75293,3.01162,3.01162,0,0,1-2.209-.75293,3.14458,3.14458,0,0,1-.73633-2.44824h1.792a1.81056,1.81056,0,0,0,.32031,1.28027,1.08648,1.08648,0,0,0,.833.30371,1.053,1.053,0,0,0,.86426-.32031,1.82658,1.82658,0,0,0,.30371-1.26367c0-1.2168-.19238-1.52051-1.07227-1.873l-1.36035-.56055c-1.15234-.47949-1.585-1.10449-1.585-2.86523a3.1112,3.1112,0,0,1,.92871-2.417,2.86818,2.86818,0,0,1,1.95215-.6875,2.82347,2.82347,0,0,1,2.04883.6875,3.25372,3.25372,0,0,1,.80078,2.48144h-1.793A1.88987,1.88987,0,0,0,360.457,16.416a.94255.94255,0,0,0-.7998-.33594.95851.95851,0,0,0-.76856.32031,1.7028,1.7028,0,0,0-.30371,1.12012c0,.92871.14356,1.21679.94434,1.53711l1.34472.54394c1.36036.56055,1.72852,1.28028,1.72852,3.20117A3.24862,3.24862,0,0,1,361.86621,25.31543Z" style="fill:#fff"/><path d="M369.09863,25.252a2.83773,2.83773,0,0,1-2.11328.832,2.87343,2.87343,0,0,1-2.1289-.832,2.94464,2.94464,0,0,1-.78418-2.09668v-8.5957h1.793V23.251a1.09448,1.09448,0,0,0,1.12012,1.21679,1.08353,1.08353,0,0,0,1.10449-1.21679V14.55957h1.793v8.5957A2.94464,2.94464,0,0,1,369.09863,25.252Z" style="fill:#fff"/><path d="M376.18652,25.95605l-2.68945-6.7705v6.7705h-1.793V14.55957h1.60156l2.67286,6.77051V14.55957h1.792V25.95605Z" style="fill:#fff"/><path d="M382.4248,26.084a2.7223,2.7223,0,0,1-2.209-.96c-.84766-.96093-.832-2.625-.832-4.86621s-.01563-3.90527.832-4.86621a2.72233,2.72233,0,0,1,2.209-.96,2.76334,2.76334,0,0,1,2.03321.76856,3.49977,3.49977,0,0,1,.87988,2.38476h-1.792c-.0166-.64062-.16016-1.53711-1.1211-1.53711a.915.915,0,0,0-.84765.43262c-.33692.54394-.40039,1.69629-.40039,3.77734s.06347,3.2334.40039,3.77735a.91691.91691,0,0,0,.84765.43261c.76856,0,1.1211-.67285,1.1211-1.457V21.23438h-1.1211V19.76172h2.91309V22.915C385.33789,24.97949,384.12207,26.084,382.4248,26.084Z" style="fill:#fff"/><path d="M394.60156,25.31543a3.14179,3.14179,0,0,1-2.22461.75293,3.01162,3.01162,0,0,1-2.209-.75293,3.14458,3.14458,0,0,1-.73633-2.44824h1.792a1.81056,1.81056,0,0,0,.32032,1.28027,1.08644,1.08644,0,0,0,.833.30371,1.053,1.053,0,0,0,.86426-.32031,1.82145,1.82145,0,0,0,.30371-1.26367c0-1.2168-.19238-1.52051-1.07226-1.873l-1.36036-.56055c-1.15234-.47949-1.585-1.10449-1.585-2.86523a3.1112,3.1112,0,0,1,.92871-2.417,2.86818,2.86818,0,0,1,1.95215-.6875,2.82347,2.82347,0,0,1,2.04883.6875,3.25372,3.25372,0,0,1,.80078,2.48144h-1.793a1.88987,1.88987,0,0,0-.27246-1.21679.94255.94255,0,0,0-.7998-.33594.95851.95851,0,0,0-.76856.32031,1.70286,1.70286,0,0,0-.30371,1.12012c0,.92871.14356,1.21679.94434,1.53711l1.34473.54394c1.36035.56055,1.72851,1.28028,1.72851,3.20117A3.24862,3.24862,0,0,1,394.60156,25.31543Z" style="fill:#fff"/><path d="M402.76172,25.95605V18.84961L401.21,23.52344h-.99316l-1.52051-4.59375v7.02636h-1.793V14.55957h1.61719l2.209,5.98633,2.19239-5.98633h1.63281V25.95605Z" style="fill:#fff"/><path d="M406.2627,22.14648V20.53027h3.23339v1.61621Z" style="fill:#fff"/><path d="M415.75391,25.95605l-.46485-2.25683h-2.64062l-.44824,2.25683h-1.88868l2.80078-11.39648h1.74512L417.626,25.95605Zm-1.77735-8.64355L413.001,22.082h1.95215Z" style="fill:#fff"/><path d="M422.74512,25.37988a2.55313,2.55313,0,0,1-1.8086.7041,2.62786,2.62786,0,0,1-1.82519-.65625,2.4311,2.4311,0,0,1-.7207-1.90429v-.56055h1.69726v.78418c0,.68848.36816.99219.84863.99219a.68955.68955,0,0,0,.624-.30371,4.72442,4.72442,0,0,0,.25586-2.16114,4.6245,4.6245,0,0,0-.22364-2.0166.73176.73176,0,0,0-.65625-.35254.86358.86358,0,0,0-.84863.97657v.24023H418.4707v-6.5625h4.91407v1.52051h-3.36133V19.1377a2.1259,2.1259,0,0,1,.59277-.54493,1.76762,1.76762,0,0,1,.81641-.208,1.78576,1.78576,0,0,1,1.53613.68847c.48047.5918.54395,1.64844.54395,3.041C423.5127,23.61914,423.49707,24.62793,422.74512,25.37988Z" style="fill:#fff"/><path d="M424.88672,25.95605V24.51563l2.84961-5.53809a4.44051,4.44051,0,0,0,.46387-2.0332c0-.65625-.35157-.99219-.81641-.99219-.46387,0-.84766.32031-.84766.97656V17.665h-1.69726v-.67285a2.39048,2.39048,0,0,1,.7041-1.88867,2.71491,2.71491,0,0,1,1.84082-.67188,2.48731,2.48731,0,0,1,1.76074.6084,2.56911,2.56911,0,0,1,.75293,1.96875,5.765,5.765,0,0,1-.625,2.49707l-2.57617,4.92969h3.20117v1.5205Z" style="fill:#fff"/><path d="M435.57617,25.41211a2.60291,2.60291,0,0,1-1.80859.67187,2.64317,2.64317,0,0,1-1.8252-.67187,2.39641,2.39641,0,0,1-.7207-1.88867V16.99219a2.39639,2.39639,0,0,1,.7207-1.88867,2.64317,2.64317,0,0,1,1.8252-.67188,2.60291,2.60291,0,0,1,1.80859.67188,2.396,2.396,0,0,1,.71973,1.88867v6.53125A2.396,2.396,0,0,1,435.57617,25.41211Zm-.97656-8.4834c0-.65625-.36816-.97656-.832-.97656a.85488.85488,0,0,0-.84863.97656v6.6582a.85489.85489,0,0,0,.84863.97657c.46387,0,.832-.32032.832-.97657Z" style="fill:#fff"/><path d="M440.374,24.99609v-1.873l3.25-1.84082-3.25-1.84082V17.585l5.33008,3.10449V21.874Z" style="fill:#fff"/><path d="M454.06836,25.4375a2.40938,2.40938,0,0,1-1.72363.63086,2.37906,2.37906,0,0,1-1.93262-.84082c-.74219-.83984-.72852-2.2832-.72852-4.24414s-.01367-3.43164.72852-4.27246a2.65169,2.65169,0,0,1,3.66992-.19629,2.99341,2.99341,0,0,1,.79883,2.10156h-1.56934a1.89827,1.89827,0,0,0-.23828-.9668.77109.77109,0,0,0-.72851-.36425.80447.80447,0,0,0-.74219.37793c-.29395.47656-.34961,1.48535-.34961,3.30664,0,1.82031.05566,2.8291.34961,3.30566a.80449.80449,0,0,0,.74219.37793.79535.79535,0,0,0,.74316-.36426,1.95081,1.95081,0,0,0,.23731-.98047h1.56933A2.99116,2.99116,0,0,1,454.06836,25.4375Z" style="fill:#fff"/><path d="M458.72852,22.06152H457.79v3.89453h-1.56836V15.98242h2.50684c1.80761,0,2.56347.93848,2.56347,3.02637C461.292,21.02539,460.62012,22.06152,458.72852,22.06152Zm.02832-4.66406H457.79v3.25h.9668c.83984,0,.96679-.74219.96679-1.625S459.59668,17.39746,458.75684,17.39746Z" style="fill:#fff"/><path d="M466.97559,25.33984a2.47863,2.47863,0,0,1-1.84864.72852,2.51357,2.51357,0,0,1-1.86328-.72852,2.57925,2.57925,0,0,1-.68554-1.835V15.98242h1.56835v7.60645a.958.958,0,0,0,.98047,1.06445.94846.94846,0,0,0,.9668-1.06445V15.98242h1.56836v7.52246A2.57562,2.57562,0,0,1,466.97559,25.33984Z" style="fill:#fff"/><path d="M474.81543,25.95605h-1.625l-2.18555-9.97363h1.72364l1.27441,7.56446,1.28906-7.56446h1.72266Z" style="fill:#fff"/><path d="M482.25,25.22754a2.64258,2.64258,0,0,1-3.86621,0c-.74219-.83984-.72852-2.29688-.72852-4.25781s-.01367-3.418.72852-4.25879a2.64258,2.64258,0,0,1,3.86621,0c.74219.84082.72852,2.29785.72852,4.25879S482.99219,24.3877,482.25,25.22754Zm-1.17676-7.56445a.8278.8278,0,0,0-.75683-.37793.80447.80447,0,0,0-.74219.37793c-.294.47656-.34961,1.48535-.34961,3.30664,0,1.82031.05566,2.8291.34961,3.30566a.80449.80449,0,0,0,.74219.37793.82782.82782,0,0,0,.75683-.37793c.29395-.47656.33594-1.48535.33594-3.30566C481.40918,19.14844,481.36719,18.13965,481.07324,17.66309Z" style="fill:#fff"/><path d="M484.40332,25.95605V15.98242h1.56836V24.541h2.61914v1.415Z" style="fill:#fff"/><path d="M492.46875,17.39746v8.55859h-1.56934V17.39746h-1.667v-1.415h4.917v1.415Z" style="fill:#fff"/><path d="M499.28711,25.95605l-.40625-1.9746h-2.31152l-.39258,1.9746h-1.65235l2.45118-9.97363H498.502l2.42383,9.97363Zm-1.55566-7.56445-.8545,4.17481h1.709Z" style="fill:#fff"/><path d="M504.25586,26.06836a2.37906,2.37906,0,0,1-1.93262-.84082c-.74219-.83984-.72851-2.29688-.72851-4.25781s-.01368-3.418.72851-4.25879a2.37906,2.37906,0,0,1,1.93262-.84082,2.42026,2.42026,0,0,1,1.7793.67285,3.06869,3.06869,0,0,1,.7705,2.08691h-1.56933c-.01367-.56054-.13965-1.34472-.98047-1.34472a.80448.80448,0,0,0-.74219.37793c-.29394.47656-.34961,1.48535-.34961,3.30664,0,1.82031.05567,2.8291.34961,3.30566a.8045.8045,0,0,0,.74219.37793c.67285,0,.98047-.58789.98047-1.27441V21.82422h-.98047V20.53516h2.5498v2.75976A2.47139,2.47139,0,0,1,504.25586,26.06836Z" style="fill:#fff"/><path d="M508.24512,25.95605V15.98242h4.1875v1.415h-2.61914v2.8291h2.25488v1.415h-2.25488V24.541h2.61914v1.415Z" style="fill:#fff"/><path d="M472.44312,261.22629a.39586.39586,0,0,0-.38781-.38784.38667.38667,0,0,0-.38832.38784.39593.39593,0,0,0,.38832.38781.406.406,0,0,0,.38781-.38781" style="fill:#ec1c24"/><path d="M436.10737,249.03912a.39586.39586,0,0,0-.38781-.38784.38668.38668,0,0,0-.38832.38784.39594.39594,0,0,0,.38832.38781.406.406,0,0,0,.38781-.38781" style="fill:#ec1c24"/><path d="M384.45454,281.75365a.39587.39587,0,0,0-.38782-.38784.38668.38668,0,0,0-.38832.38784.39594.39594,0,0,0,.38832.38781.406.406,0,0,0,.38782-.38781" style="fill:#ec1c24"/><rect x="476.79435" y="260.61128" width="7.04815" height="1.22999" rx="0.615" style="fill:#ec1c24"/><path d="M477.60059,261.45508a.13252.13252,0,0,1-.09375.03467.12985.12985,0,0,1-.10547-.0459c-.041-.0459-.04-.12451-.04-.23145,0-.10644-.001-.18652.04-.23242a.1446.1446,0,0,1,.20019-.01074.16108.16108,0,0,1,.043.11426h-.085a.10214.10214,0,0,0-.01367-.05274.0401.0401,0,0,0-.03906-.01953.045.045,0,0,0-.041.02051.88429.88429,0,0,0,0,.36035.046.046,0,0,0,.041.02051.043.043,0,0,0,.04-.02.1024.1024,0,0,0,.01269-.05322h.08594A.16408.16408,0,0,1,477.60059,261.45508Z" style="fill:#fff"/><path d="M477.91309,261.458a.12536.12536,0,0,1-.08789.03174.12718.12718,0,0,1-.08692-.03223.11323.11323,0,0,1-.03418-.08984v-.03223h.08106v.03516a.04068.04068,0,0,0,.04.04638.03527.03527,0,0,0,.02929-.01367.14969.14969,0,0,0,.0127-.08008.1455.1455,0,0,0-.01172-.07959.0359.0359,0,0,0-.03027-.01367h-.02735v-.06787h.02735a.03239.03239,0,0,0,.02539-.01074.10822.10822,0,0,0,.01269-.06836.11808.11808,0,0,0-.01074-.06446.03314.03314,0,0,0-.02734-.0122c-.02051,0-.03614.01465-.03614.04394v.03809H477.708v-.0332a.11243.11243,0,0,1,.11719-.1211.1166.1166,0,0,1,.084.03028.15023.15023,0,0,1,.03516.11328.1858.1858,0,0,1-.01368.08593.09558.09558,0,0,1-.03027.03223.10456.10456,0,0,1,.03125.03272.19177.19177,0,0,1,.0166.10009C477.94824,261.38672,477.94727,261.4248,477.91309,261.458Z" style="fill:#fff"/><path d="M478.2207,261.45752a.12539.12539,0,0,1-.08691.03223.12715.12715,0,0,1-.08691-.03223.1132.1132,0,0,1-.03418-.08984v-.31153a.1132.1132,0,0,1,.03418-.08984.12487.12487,0,0,1,.08691-.03223.12318.12318,0,0,1,.08691.03223.11658.11658,0,0,1,.03418.08984v.31153A.11658.11658,0,0,1,478.2207,261.45752Zm-.04687-.4043c0-.03125-.01758-.04687-.04-.04687-.02149,0-.04.01562-.04.04687v.31739a.04068.04068,0,0,0,.04.04638c.02246,0,.04-.01513.04-.04638Z" style="fill:#fff"/><path d="M478.52832,261.45752a.132.132,0,0,1-.17285,0,.15791.15791,0,0,1-.03613-.12744.19473.19473,0,0,1,.01562-.09619.03413.03413,0,0,0,.00293-.06787.16636.16636,0,0,1-.01465-.08448.15147.15147,0,0,1,.03516-.11621.11267.11267,0,0,1,.083-.03125.115.115,0,0,1,.084.03125.15151.15151,0,0,1,.03516.11621.16636.16636,0,0,1-.01465.08448.09647.09647,0,0,1-.0293.03369.0943.0943,0,0,1,.03125.03418.1828.1828,0,0,1,.0166.09619A.15791.15791,0,0,1,478.52832,261.45752Zm-.05762-.21143a.03715.03715,0,0,0-.02832-.01318.03978.03978,0,0,0-.03027.01318.14362.14362,0,0,0-.01172.08008.14781.14781,0,0,0,.01172.07764.03817.03817,0,0,0,.03027.01318.0356.0356,0,0,0,.02832-.01318.13688.13688,0,0,0,.0127-.07764A.13448.13448,0,0,0,478.4707,261.24609Zm-.00293-.229a.03087.03087,0,0,0-.02539-.01074.03643.03643,0,0,0-.02734.01074.12654.12654,0,0,0-.01074.06787c0,.02686-.001.05762.01367.07129a.0383.0383,0,0,0,.04883,0c.01465-.01367.01269-.04443.01269-.07129A.11727.11727,0,0,0,478.46777,261.01709Z" style="fill:#fff"/><path d="M478.84668,261.39893v.08447h-.08105v-.08447h-.15137v-.07276l.13965-.38623h.0791l-.13477.38623h.06739v-.09668h.08105v.09668h.03711v.07276Z" style="fill:#fff"/><path d="M479.252,261.4834h-.08886l-.11914-.54346h.09375l.07031.41211.06933-.41211h.09473Z" style="fill:#fff"/><path d="M479.666,261.43848a.1324.1324,0,0,1-.10547.04492h-.1377v-.54346h.1377a.13111.13111,0,0,1,.10547.04541c.04.04492.03906.12207.03906.22656S479.70605,261.39355,479.666,261.43848Zm-.06446-.39893a.04767.04767,0,0,0-.043-.02246h-.05078v.38916h.05078a.04837.04837,0,0,0,.043-.022.394.394,0,0,0,.01856-.17334A.382.382,0,0,0,479.60156,261.03955Z" style="fill:#fff"/><path d="M480.02734,261.43848a.12875.12875,0,0,1-.10449.04492h-.13867v-.54346h.13867a.12753.12753,0,0,1,.10449.04541c.041.04492.04.12207.04.22656S480.06836,261.39355,480.02734,261.43848Zm-.06347-.39893a.05058.05058,0,0,0-.04395-.02246h-.0498v.38916h.0498a.05139.05139,0,0,0,.04395-.022.4162.4162,0,0,0,.01758-.17334A.40352.40352,0,0,0,479.96387,261.03955Z" style="fill:#fff"/><path d="M480.40527,261.501l-.04394-.0376a.13169.13169,0,0,1-.084.02637.12984.12984,0,0,1-.10546-.0459c-.041-.0459-.04-.125-.04-.23194s-.001-.186.04-.23193a.12984.12984,0,0,1,.10546-.0459.13127.13127,0,0,1,.10547.0459c.04.0459.03907.125.03907.23193a.51378.51378,0,0,1-.02247.20362l.0459.03808Zm-.08691-.46924a.05127.05127,0,0,0-.082,0,.88382.88382,0,0,0,0,.36035.046.046,0,0,0,.041.02051.0313.0313,0,0,0,.01758-.00391l-.02734-.02392.03906-.04688.02246.01807a.71955.71955,0,0,0,.00781-.144A.41845.41845,0,0,0,480.31836,261.03174Z" style="fill:#fff"/><path d="M480.45508,261.6001v-.0586h.34863v.0586Z" style="fill:#fff"/><path d="M481.09473,261.43848a.12879.12879,0,0,1-.1045.04492h-.13867v-.54346h.13867a.12756.12756,0,0,1,.1045.04541c.041.04492.04.12207.04.22656S481.13574,261.39355,481.09473,261.43848Zm-.06348-.39893a.05058.05058,0,0,0-.04395-.02246h-.0498v.38916h.0498a.05139.05139,0,0,0,.04395-.022.416.416,0,0,0,.01758-.17334A.40335.40335,0,0,0,481.03125,261.03955Z" style="fill:#fff"/><path d="M481.457,261.43848a.12875.12875,0,0,1-.10449.04492h-.13867v-.54346h.13867a.12753.12753,0,0,1,.10449.04541c.041.04492.04.12207.04.22656S481.49805,261.39355,481.457,261.43848Zm-.06348-.39893a.05055.05055,0,0,0-.04394-.02246h-.04981v.38916h.04981a.05135.05135,0,0,0,.04394-.022.416.416,0,0,0,.01758-.17334A.40335.40335,0,0,0,481.39355,261.03955Z" style="fill:#fff"/><path d="M481.78027,261.4834l-.07129-.22266h-.04785v.22266h-.085v-.54346h.13672c.09961,0,.13867.04834.13867.16065,0,.06689-.01367.11523-.0625.1416l.08008.24121Zm-.0664-.46631h-.05274v.1665h.05274c.0459,0,.05273-.03808.05273-.083C481.7666,261.05518,481.75977,261.01709,481.71387,261.01709Z" style="fill:#fff"/><path d="M481.89648,261.6001v-.0586h.34864v.0586Z" style="fill:#fff"/><path d="M482.38281,261.4834v-.44873l-.082.0625v-.09131l.082-.06592h.08106v.54346Z" style="fill:#fff"/><path d="M482.7373,261.27148h-.05078v.21192h-.085v-.54346h.13574c.09864,0,.13965.05127.13965.165C482.877,261.21484,482.84082,261.27148,482.7373,261.27148Zm.002-.25439h-.05274v.17725h.05274c.0459,0,.05273-.04053.05273-.08838C482.792,261.05762,482.78516,261.01709,482.73926,261.01709Z" style="fill:#fff"/><path d="M483.043,261.4834v-.44873l-.082.0625v-.09131l.082-.06592h.08008v.54346Z" style="fill:#fff"/><line x1="472.10985" y1="261.22628" x2="476.80906" y2="261.22628" style="fill:#fff;stroke:#ec1c24;stroke-miterlimit:10;stroke-width:0.25px"/><path d="M472.44312,262.8713a.39586.39586,0,0,0-.38781-.38784.38667.38667,0,0,0-.38832.38784.39593.39593,0,0,0,.38832.38781.406.406,0,0,0,.38781-.38781" style="fill:#ec1c24"/><rect x="476.79434" y="262.25629" width="6.33825" height="1.22999" rx="0.615" style="fill:#ec1c24"/><path d="M477.60059,263.1001a.13252.13252,0,0,1-.09375.03467.12985.12985,0,0,1-.10547-.0459c-.041-.0459-.04-.12451-.04-.23145,0-.10644-.001-.18652.04-.23242a.1446.1446,0,0,1,.20019-.01074.16108.16108,0,0,1,.043.11426h-.085a.10214.10214,0,0,0-.01367-.05274.0401.0401,0,0,0-.03906-.01953.045.045,0,0,0-.041.02051.88429.88429,0,0,0,0,.36035.046.046,0,0,0,.041.02051.04306.04306,0,0,0,.04-.02.1024.1024,0,0,0,.01269-.05322h.08594A.16408.16408,0,0,1,477.60059,263.1001Z" style="fill:#fff"/><path d="M477.91309,263.103a.12536.12536,0,0,1-.08789.03174.12718.12718,0,0,1-.08692-.03223.11323.11323,0,0,1-.03418-.08984v-.03223h.08106v.03516a.04068.04068,0,0,0,.04.04638.03527.03527,0,0,0,.02929-.01367.14969.14969,0,0,0,.0127-.08008.1455.1455,0,0,0-.01172-.07959.0359.0359,0,0,0-.03027-.01367h-.02735v-.06787h.02735a.03239.03239,0,0,0,.02539-.01074.10824.10824,0,0,0,.01269-.06836.11808.11808,0,0,0-.01074-.06446.03314.03314,0,0,0-.02734-.0122c-.02051,0-.03614.01465-.03614.04394v.03809H477.708v-.0332a.11243.11243,0,0,1,.11719-.1211.1166.1166,0,0,1,.084.03028.15023.15023,0,0,1,.03516.11328.1858.1858,0,0,1-.01368.08593.09558.09558,0,0,1-.03027.03223.10456.10456,0,0,1,.03125.03272.19177.19177,0,0,1,.0166.10009C477.94824,263.03174,477.94727,263.06982,477.91309,263.103Z" style="fill:#fff"/><path d="M478.2207,263.10254a.12539.12539,0,0,1-.08691.03223.12715.12715,0,0,1-.08691-.03223.1132.1132,0,0,1-.03418-.08984v-.31153a.11318.11318,0,0,1,.03418-.08984.12487.12487,0,0,1,.08691-.03223.12318.12318,0,0,1,.08691.03223.11656.11656,0,0,1,.03418.08984v.31153A.11658.11658,0,0,1,478.2207,263.10254Zm-.04687-.4043c0-.03125-.01758-.04687-.04-.04687-.02149,0-.04.01562-.04.04687v.31739a.04068.04068,0,0,0,.04.04638c.02246,0,.04-.01513.04-.04638Z" style="fill:#fff"/><path d="M478.52832,263.103a.12456.12456,0,0,1-.08691.03174.12965.12965,0,0,1-.08789-.03223.11286.11286,0,0,1-.03321-.08984v-.03223h.08106v.03516c0,.03125.01758.04638.04.04638a.03817.03817,0,0,0,.02929-.01367.15977.15977,0,0,0,.0127-.08008.144.144,0,0,0-.0127-.07959.03589.03589,0,0,0-.03027-.01367h-.02637v-.06787h.02637a.0331.0331,0,0,0,.02637-.01074.11578.11578,0,0,0,.01172-.06836.118.118,0,0,0-.01075-.06446.0325.0325,0,0,0-.02636-.0122c-.02051,0-.03711.01465-.03711.04394v.03809h-.08008v-.0332a.115.115,0,0,1,.0332-.08985.11911.11911,0,0,1,.084-.03125.11254.11254,0,0,1,.083.03028.15019.15019,0,0,1,.03516.11328.174.174,0,0,1-.01367.08593.08436.08436,0,0,1-.0293.03223.10445.10445,0,0,1,.03125.03272.20228.20228,0,0,1,.0166.10009A.15836.15836,0,0,1,478.52832,263.103Z" style="fill:#fff"/><path d="M478.63184,263.12842v-.06885l.13671-.26367a.21856.21856,0,0,0,.02149-.09717c0-.03125-.0166-.04736-.03906-.04736-.02149,0-.04.01562-.04.04687v.03516h-.08106v-.03223a.11624.11624,0,0,1,.03321-.08984.12907.12907,0,0,1,.08789-.03223.11744.11744,0,0,1,.084.02881.12268.12268,0,0,1,.03613.09424.28552.28552,0,0,1-.02929.11865l-.123.23535h.15234v.07227Z" style="fill:#fff"/><path d="M479.252,263.12842h-.08886l-.11914-.54346h.09375l.07031.41211.06933-.41211h.09473Z" style="fill:#fff"/><path d="M479.666,263.0835a.1324.1324,0,0,1-.10547.04492h-.1377V262.585h.1377a.13111.13111,0,0,1,.10547.04541c.04.04492.03906.12207.03906.22656S479.70605,263.03857,479.666,263.0835Zm-.06446-.39893a.04767.04767,0,0,0-.043-.02246h-.05078v.38916h.05078a.04837.04837,0,0,0,.043-.022.394.394,0,0,0,.01856-.17334A.382.382,0,0,0,479.60156,262.68457Z" style="fill:#fff"/><path d="M480.02734,263.0835a.12875.12875,0,0,1-.10449.04492h-.13867V262.585h.13867a.12753.12753,0,0,1,.10449.04541c.041.04492.04.12207.04.22656S480.06836,263.03857,480.02734,263.0835Zm-.06347-.39893a.05058.05058,0,0,0-.04395-.02246h-.0498v.38916h.0498a.05139.05139,0,0,0,.04395-.022.4162.4162,0,0,0,.01758-.17334A.40352.40352,0,0,0,479.96387,262.68457Z" style="fill:#fff"/><path d="M480.10059,263.24512v-.0586h.34863v.0586Z" style="fill:#fff"/><path d="M480.58691,263.12842v-.44873l-.082.0625v-.09131l.082-.06592h.08008v.54346Z" style="fill:#fff"/><path d="M480.94141,262.9165h-.05078v.21192h-.08594V262.585h.13672c.09863,0,.13964.05127.13964.165C481.08105,262.85986,481.044,262.9165,480.94141,262.9165Zm.00195-.25439h-.05273v.17725h.05273c.04492,0,.05176-.04053.05176-.08838C480.99512,262.70264,480.98828,262.66211,480.94336,262.66211Z" style="fill:#fff"/><path d="M481.35059,263.10254a.132.132,0,0,1-.17286,0,.15794.15794,0,0,1-.03613-.12744.1946.1946,0,0,1,.01563-.09619.03413.03413,0,0,0,.00293-.06787.16625.16625,0,0,1-.01465-.08448.1515.1515,0,0,1,.03515-.11621.1127.1127,0,0,1,.083-.03125.115.115,0,0,1,.084.03125.1515.1515,0,0,1,.03515.11621.16625.16625,0,0,1-.01465.08448.09644.09644,0,0,1-.02929.03369.09439.09439,0,0,1,.03125.03418.1828.1828,0,0,1,.0166.09619A.15794.15794,0,0,1,481.35059,263.10254Zm-.05762-.21143a.03719.03719,0,0,0-.02832-.01318.03977.03977,0,0,0-.03027.01318.14362.14362,0,0,0-.01172.08008.14781.14781,0,0,0,.01172.07764.03815.03815,0,0,0,.03027.01318.03563.03563,0,0,0,.02832-.01318.137.137,0,0,0,.01269-.07764A.13456.13456,0,0,0,481.293,262.89111Zm-.00293-.229a.03088.03088,0,0,0-.02539-.01074.03646.03646,0,0,0-.02735.01074.12654.12654,0,0,0-.01074.06787c0,.02686-.001.05762.01367.07129a.0383.0383,0,0,0,.04883,0c.01465-.01367.0127-.04443.0127-.07129A.11727.11727,0,0,0,481.29,262.66211Z" style="fill:#fff"/><path d="M481.419,263.24512v-.0586h.34863v.0586Z" style="fill:#fff"/><path d="M482.0332,263.12842l-.02246-.10742h-.126l-.02149.10742h-.08984l.13379-.54346h.083l.13184.54346Zm-.085-.41211-.04687.22754h.09375Z" style="fill:#fff"/><path d="M482.31055,262.9165h-.05078v.21192h-.085V262.585h.13575c.09863,0,.13965.05127.13965.165C482.4502,262.85986,482.41406,262.9165,482.31055,262.9165Zm.002-.25439h-.05273v.17725h.05273c.0459,0,.05273-.04053.05273-.08838C482.36523,262.70264,482.3584,262.66211,482.3125,262.66211Z" style="fill:#fff"/><line x1="472.10985" y1="262.87128" x2="476.80906" y2="262.87128" style="fill:#fff;stroke:#ec1c24;stroke-miterlimit:10;stroke-width:0.25px"/><path d="M462.3843,289.43012a.39587.39587,0,0,0-.38782-.38784.38668.38668,0,0,0-.38832.38784.39594.39594,0,0,0,.38832.38781.406.406,0,0,0,.38782-.38781" style="fill:#ec1c24"/><rect x="466.73552" y="288.81511" width="7.95589" height="1.22999" rx="0.615" style="fill:#ec1c24"/><path d="M467.52148,289.687l-.07128-.22265h-.04786v.22265h-.085v-.54346h.13672c.09961,0,.13867.04834.13867.16065,0,.06689-.01367.11523-.0625.1416l.08008.24121Zm-.0664-.46631h-.05274v.16651h.05274c.0459,0,.05273-.03809.05273-.083C467.50781,289.25879,467.501,289.2207,467.45508,289.2207Z" style="fill:#fff"/><path d="M467.87793,289.66162a.12452.12452,0,0,1-.08691.03174.12788.12788,0,0,1-.08789-.03223.11317.11317,0,0,1-.03418-.08984v-.03223H467.75v.03516a.04086.04086,0,0,0,.041.04639.03468.03468,0,0,0,.02832-.01368.14974.14974,0,0,0,.01269-.08007.14547.14547,0,0,0-.01172-.07959.0359.0359,0,0,0-.03027-.01368h-.02734v-.06787H467.79a.03236.03236,0,0,0,.02539-.01074.10815.10815,0,0,0,.0127-.06836.11792.11792,0,0,0-.01075-.06445.0325.0325,0,0,0-.02636-.01221c-.02149,0-.03711.01465-.03711.04395v.03808h-.08106v-.0332a.12105.12105,0,0,1,.20117-.09082.15019.15019,0,0,1,.03516.11328.18588.18588,0,0,1-.01367.08594.087.087,0,0,1-.03028.03222.10445.10445,0,0,1,.03125.03272.1918.1918,0,0,1,.01661.1001C467.91309,289.59033,467.91211,289.62842,467.87793,289.66162Z" style="fill:#fff"/><path d="M468.18555,289.66113a.12543.12543,0,0,1-.08692.03223.12715.12715,0,0,1-.08691-.03223.11317.11317,0,0,1-.03418-.08984v-.31152a.11321.11321,0,0,1,.03418-.08985.12491.12491,0,0,1,.08691-.03222.12326.12326,0,0,1,.08692.03222.11662.11662,0,0,1,.03418.08985v.31152A.11658.11658,0,0,1,468.18555,289.66113Zm-.04688-.40429c0-.03125-.01758-.04688-.04-.04688-.02148,0-.04.01563-.04.04688v.31738a.04069.04069,0,0,0,.04.04639c.02246,0,.04-.01514.04-.04639Z" style="fill:#fff"/><path d="M468.49316,289.66113a.12539.12539,0,0,1-.08691.03223.12715.12715,0,0,1-.08691-.03223.11317.11317,0,0,1-.03418-.08984v-.31152a.11321.11321,0,0,1,.03418-.08985.12491.12491,0,0,1,.08691-.03222.12322.12322,0,0,1,.08691.03222.11658.11658,0,0,1,.03418.08985v.31152A.11654.11654,0,0,1,468.49316,289.66113Zm-.04687-.40429c0-.03125-.01758-.04688-.04-.04688-.02148,0-.04.01563-.04.04688v.31738a.04069.04069,0,0,0,.04.04639c.02246,0,.04-.01514.04-.04639Z" style="fill:#fff"/><path d="M468.59668,289.687v-.06885l.13574-.26367a.20528.20528,0,0,0,.02246-.09717c0-.03125-.0166-.04736-.03906-.04736a.04129.04129,0,0,0-.041.04688v.03515h-.08007v-.03222a.1129.1129,0,0,1,.0332-.08985.12738.12738,0,0,1,.08789-.03222.12064.12064,0,0,1,.084.0288.1227.1227,0,0,1,.03614.09424.27212.27212,0,0,1-.03028.11865l-.123.23536h.15332v.07226Z" style="fill:#fff"/><path d="M469.26953,289.687l-.02246-.10742h-.126l-.02148.10742h-.08984l.13378-.54346h.083l.13184.54346Zm-.085-.41211-.04687.22754h.09375Z" style="fill:#fff"/><path d="M469.54688,289.4751h-.05079v.21191h-.085v-.54346h.13575c.09863,0,.13964.05127.13964.165C469.68652,289.41846,469.65039,289.4751,469.54688,289.4751Zm.002-.2544h-.05274v.17725h.05274c.0459,0,.05273-.04053.05273-.08838C469.60156,289.26123,469.59473,289.2207,469.54883,289.2207Z" style="fill:#fff"/><path d="M469.7168,289.80371v-.05859h.34863v.05859Z" style="fill:#fff"/><path d="M470.34863,289.65332a.14759.14759,0,0,1-.20215,0,.14117.14117,0,0,1-.03808-.09961v-.41016h.08594v.41456a.05343.05343,0,1,0,.10644,0v-.41456h.085v.41016A.14052.14052,0,0,1,470.34863,289.65332Z" style="fill:#fff"/><path d="M470.70215,289.65625a.147.147,0,0,1-.10547.03613.14241.14241,0,0,1-.10547-.03613.14779.14779,0,0,1-.03516-.1167h.08594a.08833.08833,0,0,0,.01465.061.05075.05075,0,0,0,.04.01464.05132.05132,0,0,0,.041-.01513.0862.0862,0,0,0,.01464-.06055c0-.05762-.00879-.07226-.05078-.08887l-.06543-.02685c-.05468-.023-.07519-.05274-.07519-.13672a.15013.15013,0,0,1,.04394-.11523.13742.13742,0,0,1,.09278-.03272.13441.13441,0,0,1,.09765.03272.15524.15524,0,0,1,.03809.11816h-.085a.093.093,0,0,0-.0127-.05762.0452.0452,0,0,0-.03808-.01611.04688.04688,0,0,0-.03711.01514.08291.08291,0,0,0-.01465.05371c0,.04394.00683.05761.04492.07324l.06445.02588c.06446.02636.082.061.082.15234A.151.151,0,0,1,470.70215,289.65625Z" style="fill:#fff"/><path d="M471.05566,289.65283a.13956.13956,0,0,1-.10644.03418h-.13477v-.54346h.13575a.139.139,0,0,1,.10546.0337.1554.1554,0,0,1,.03418.11474.118.118,0,0,1-.02832.09131.09028.09028,0,0,1-.02832.019.08447.08447,0,0,1,.0293.02.14931.14931,0,0,1,.02832.10352A.16916.16916,0,0,1,471.05566,289.65283Zm-.11523-.43213h-.041v.14746h.041c.04492,0,.06348-.022.06348-.07421C471.00391,289.23926,470.98535,289.2207,470.94043,289.2207Zm0,.21973h-.041v.16943h.041c.04687,0,.06543-.02148.06543-.08447C471.00586,289.46484,470.98633,289.44043,470.94043,289.44043Z" style="fill:#fff"/><path d="M471.13086,289.80371v-.05859h.34863v.05859Z" style="fill:#fff"/><path d="M471.69141,289.687h-.08789l-.11914-.54346h.09375l.06933.41211.07031-.41211h.09375Z" style="fill:#fff"/><path d="M472.10449,289.65283a.142.142,0,0,1-.10742.03418h-.13477v-.54346h.13575a.14145.14145,0,0,1,.10644.0337.15537.15537,0,0,1,.03321.11474.118.118,0,0,1-.02832.09131.0805.0805,0,0,1-.02833.019.08447.08447,0,0,1,.0293.02.15014.15014,0,0,1,.0293.10352A.17343.17343,0,0,1,472.10449,289.65283Zm-.11621-.43213h-.04v.14746h.04c.04492,0,.06445-.022.06445-.07421C472.05273,289.23926,472.03418,289.2207,471.98828,289.2207Zm.001.21973h-.041v.16943h.041c.0459,0,.06445-.02148.06445-.08447C472.05371,289.46484,472.03516,289.44043,471.98926,289.44043Z" style="fill:#fff"/><path d="M472.459,289.65332a.13276.13276,0,0,1-.10058.04.138.138,0,0,1-.10156-.04.14052.14052,0,0,1-.03711-.09961v-.41016h.085v.41456a.05226.05226,0,0,0,.05371.0581.05157.05157,0,0,0,.05273-.0581v-.41456h.08594v.41016A.14114.14114,0,0,1,472.459,289.65332Z" style="fill:#fff"/><path d="M472.8125,289.65625a.147.147,0,0,1-.10547.03613.14241.14241,0,0,1-.10547-.03613.14783.14783,0,0,1-.03515-.1167h.08593a.08833.08833,0,0,0,.01465.061.05075.05075,0,0,0,.04.01464.05132.05132,0,0,0,.041-.01513.08615.08615,0,0,0,.01465-.06055c0-.05762-.00879-.07226-.05079-.08887l-.06543-.02685c-.05468-.023-.07519-.05274-.07519-.13672a.15013.15013,0,0,1,.04394-.11523.13742.13742,0,0,1,.09278-.03272.13441.13441,0,0,1,.09765.03272.15524.15524,0,0,1,.03809.11816h-.085a.0929.0929,0,0,0-.0127-.05762.04519.04519,0,0,0-.03808-.01611.04688.04688,0,0,0-.03711.01514.08291.08291,0,0,0-.01465.05371c0,.04394.00684.05761.04492.07324l.06446.02588c.06445.02636.082.061.082.15234A.151.151,0,0,1,472.8125,289.65625Z" style="fill:#fff"/><path d="M472.87891,289.80371v-.05859h.34863v.05859Z" style="fill:#fff"/><path d="M473.48047,289.60254v.08447h-.08106v-.08447h-.15136v-.07275l.13965-.38624h.07812l-.13477.38624h.06836v-.09668h.08106v.09668h.03711v.07275Z" style="fill:#fff"/><path d="M473.71973,289.4751H473.669v.21191H473.583v-.54346h.13672c.09863,0,.13965.05127.13965.165C473.85938,289.41846,473.82227,289.4751,473.71973,289.4751Zm.00195-.2544H473.669v.17725h.05273c.04492,0,.05176-.04053.05176-.08838C473.77344,289.26123,473.7666,289.2207,473.72168,289.2207Z" style="fill:#fff"/><path d="M474.14258,289.43652l-.0957.25049h-.083l.08886-.21972a.0551.0551,0,0,1-.0332.00927.08836.08836,0,0,1-.07226-.03369c-.01954-.02539-.02735-.0542-.02735-.13428a.20439.20439,0,0,1,.02637-.12744.11284.11284,0,0,1,.09668-.04345.10938.10938,0,0,1,.09473.04345.20016.20016,0,0,1,.02734.12744A.37727.37727,0,0,1,474.14258,289.43652Zm-.07129-.2124a.03384.03384,0,0,0-.02832-.01416.03619.03619,0,0,0-.03027.01416.16725.16725,0,0,0-.01172.08545.17509.17509,0,0,0,.01172.08691.03856.03856,0,0,0,.03027.01368.03473.03473,0,0,0,.02832-.01368.16378.16378,0,0,0,.01269-.08691A.15734.15734,0,0,0,474.07129,289.22412Z" style="fill:#fff"/><line x1="462.05102" y1="289.43011" x2="466.75024" y2="289.43011" style="fill:#fff;stroke:#ec1c24;stroke-miterlimit:10;stroke-width:0.25px"/><path d="M388.12258,258.74606a.39586.39586,0,0,0-.38781-.38784.38668.38668,0,0,0-.38832.38784.39594.39594,0,0,0,.38832.38781.406.406,0,0,0,.38781-.38781" style="fill:#ec1c24"/><rect x="392.47381" y="258.13104" width="6.51173" height="1.22999" rx="0.615" style="fill:#ec1c24"/><path d="M393.05566,259.00293v-.54346h.08545v.46631h.14258v.07715Z" style="fill:#fff"/><path d="M393.54346,258.97559a.13117.13117,0,0,1-.17334.00195.11432.11432,0,0,1-.03418-.09033v-.02686h.08056v.03711c0,.0332.01758.04736.04053.04736a.03352.03352,0,0,0,.02979-.01416.22559.22559,0,0,0,.0122-.103.21779.21779,0,0,0-.01074-.09619.03422.03422,0,0,0-.03125-.01709.04146.04146,0,0,0-.04053.04687v.01123h-.07714v-.313h.23437v.07276h-.16016v.1455a.11.11,0,0,1,.02832-.02587.09214.09214,0,0,1,.11182.02294.24514.24514,0,0,1,.02637.145C393.58008,258.8916,393.5791,258.93945,393.54346,258.97559Z" style="fill:#fff"/><path d="M393.85107,258.97705a.125.125,0,0,1-.08642.03223.12631.12631,0,0,1-.08692-.03223.11323.11323,0,0,1-.03418-.08984v-.31153a.11323.11323,0,0,1,.03418-.08984.12406.12406,0,0,1,.08692-.03223.1228.1228,0,0,1,.08642.03223.11486.11486,0,0,1,.03418.08984v.31153A.11486.11486,0,0,1,393.85107,258.97705Zm-.04687-.4043c0-.03125-.01758-.04687-.03955-.04687a.0412.0412,0,0,0-.04053.04687v.31739a.04076.04076,0,0,0,.04053.04638c.022,0,.03955-.01513.03955-.04638Z" style="fill:#fff"/><path d="M394.15869,258.97705a.125.125,0,0,1-.08642.03223.12629.12629,0,0,1-.08692-.03223.11323.11323,0,0,1-.03418-.08984v-.31153a.11323.11323,0,0,1,.03418-.08984.124.124,0,0,1,.08692-.03223.1228.1228,0,0,1,.08642.03223.11486.11486,0,0,1,.03418.08984v.31153A.11486.11486,0,0,1,394.15869,258.97705Zm-.04687-.4043c0-.03125-.01758-.04687-.03955-.04687a.04119.04119,0,0,0-.04053.04687v.31739a.04076.04076,0,0,0,.04053.04638c.022,0,.03955-.01513.03955-.04638Z" style="fill:#fff"/><path d="M394.3623,259.00293h-.08105l.14307-.4707h-.09473v.07226H394.252v-.145h.25293v.06739Z" style="fill:#fff"/><path d="M394.88184,259.00293h-.08838l-.11914-.54346h.09375l.06982.41211.06982-.41211h.09424Z" style="fill:#fff"/><path d="M395.2959,258.958a.13055.13055,0,0,1-.105.04492h-.13819v-.54346h.13819a.1293.1293,0,0,1,.105.04541c.04053.04492.03955.12207.03955.22657S395.33643,258.91309,395.2959,258.958Zm-.064-.39893a.0491.0491,0,0,0-.04345-.02246h-.0503v.38916h.0503a.04985.04985,0,0,0,.04345-.022.40455.40455,0,0,0,.01807-.17334A.39229.39229,0,0,0,395.23193,258.55908Z" style="fill:#fff"/><path d="M395.6582,258.958a.13055.13055,0,0,1-.105.04492H395.415v-.54346h.13818a.1293.1293,0,0,1,.105.04541c.04053.04492.03955.12207.03955.22657S395.69873,258.91309,395.6582,258.958Zm-.064-.39893a.0491.0491,0,0,0-.04346-.02246h-.05029v.38916h.05029a.04985.04985,0,0,0,.04346-.022.40478.40478,0,0,0,.01806-.17334A.39251.39251,0,0,0,395.59424,258.55908Z" style="fill:#fff"/><path d="M395.731,259.11963V259.061h.34863v.05859Z" style="fill:#fff"/><path d="M396.2583,259.00928a.13056.13056,0,0,1-.10547-.0459c-.04053-.0459-.03955-.125-.03955-.23193s-.001-.186.03955-.23194a.145.145,0,0,1,.20215-.00928.16549.16549,0,0,1,.042.11377h-.08545c-.00048-.03076-.00732-.07324-.05322-.07324a.04416.04416,0,0,0-.04053.02051.862.862,0,0,0,0,.36035.04516.04516,0,0,0,.04053.02051c.03662,0,.05322-.03223.05322-.06934v-.085h-.05322v-.07031h.13867v.15039A.13453.13453,0,0,1,396.2583,259.00928Z" style="fill:#fff"/><path d="M396.67041,258.97754a.1249.1249,0,0,1-.0874.03174.12839.12839,0,0,1-.0874-.03223.113.113,0,0,1-.0337-.08984V258.855h.08106v.03516c0,.03125.01807.04638.04.04638a.03666.03666,0,0,0,.02929-.01367.1545.1545,0,0,0,.0127-.08008.14473.14473,0,0,0-.01221-.07959.03589.03589,0,0,0-.03027-.01367h-.02686v-.06787h.02686a.03274.03274,0,0,0,.02588-.01074.11179.11179,0,0,0,.01221-.06836.11359.11359,0,0,0-.01075-.06445.03213.03213,0,0,0-.02685-.01221c-.02051,0-.03613.01465-.03613.04394v.03809h-.08106v-.0332a.11519.11519,0,0,1,.03369-.08985.11712.11712,0,0,1,.0835-.03125.11455.11455,0,0,1,.08349.03028.15019.15019,0,0,1,.03516.11328.17972.17972,0,0,1-.01367.08594.08982.08982,0,0,1-.02979.03222.10445.10445,0,0,1,.03125.03272.1969.1969,0,0,1,.0166.10009A.15822.15822,0,0,1,396.67041,258.97754Z" style="fill:#fff"/><path d="M397.02783,258.958a.13055.13055,0,0,1-.105.04492h-.13818v-.54346h.13818a.1293.1293,0,0,1,.105.04541c.04053.04492.03955.12207.03955.22657S397.06836,258.91309,397.02783,258.958Zm-.064-.39893a.0491.0491,0,0,0-.04346-.02246h-.05029v.38916h.05029a.04985.04985,0,0,0,.04346-.022.40478.40478,0,0,0,.01806-.17334A.39251.39251,0,0,0,396.96387,258.55908Z" style="fill:#fff"/><path d="M397.10059,259.11963V259.061h.34863v.05859Z" style="fill:#fff"/><path d="M397.73291,258.96338a.14413.14413,0,0,1-.21094,0c-.04052-.0459-.03955-.125-.03955-.23193s-.001-.186.03955-.23194a.14413.14413,0,0,1,.21094,0c.04.0459.03955.125.03955.23194S397.773,258.91748,397.73291,258.96338Zm-.06445-.41211a.05079.05079,0,0,0-.08155,0,.862.862,0,0,0,0,.36035.05079.05079,0,0,0,.08155,0,.88429.88429,0,0,0,0-.36035Z" style="fill:#fff"/><path d="M397.98779,258.791H397.937v.21191h-.08545v-.54346h.13623c.09864,0,.13965.05127.13965.165C398.12744,258.73438,398.09082,258.791,397.98779,258.791Zm.002-.2544H397.937v.17725h.05274c.04541,0,.05224-.04053.05224-.08838C398.042,258.57715,398.03516,258.53662,397.98975,258.53662Z" style="fill:#fff"/><path d="M398.398,258.97754a.12492.12492,0,0,1-.0874.03174.12843.12843,0,0,1-.08741-.03223.11306.11306,0,0,1-.03369-.08984V258.855h.08106v.03516c0,.03125.01806.04638.04.04638a.03666.03666,0,0,0,.02929-.01367.15461.15461,0,0,0,.0127-.08008.14473.14473,0,0,0-.01221-.07959.03589.03589,0,0,0-.03027-.01367h-.02686v-.06787h.02686a.03274.03274,0,0,0,.02588-.01074.11187.11187,0,0,0,.0122-.06836.1136.1136,0,0,0-.01074-.06445.03213.03213,0,0,0-.02685-.01221c-.02051,0-.03614.01465-.03614.04394v.03809h-.08105v-.0332a.11519.11519,0,0,1,.03369-.08985.11712.11712,0,0,1,.0835-.03125.11455.11455,0,0,1,.08349.03028.15019.15019,0,0,1,.03516.11328.17984.17984,0,0,1-.01367.08594.08982.08982,0,0,1-.02979.03222.10445.10445,0,0,1,.03125.03272.1969.1969,0,0,1,.0166.10009A.15822.15822,0,0,1,398.398,258.97754Z" style="fill:#fff"/><line x1="387.78931" y1="258.74604" x2="392.48852" y2="258.74604" style="fill:#fff;stroke:#ec1c24;stroke-miterlimit:10;stroke-width:0.25px"/><path d="M393.642,253.95953a.39587.39587,0,0,0-.38782-.38784.38668.38668,0,0,0-.38832.38784.39594.39594,0,0,0,.38832.38781.406.406,0,0,0,.38782-.38781" style="fill:#ec1c24"/><rect x="397.99324" y="253.34452" width="7.47023" height="1.22999" rx="0.615" style="fill:#ec1c24"/><path d="M398.68555,254.2168v-.54346h.08545v.46631h.14257v.07715Z" style="fill:#fff"/><path d="M399.17334,254.18945a.13119.13119,0,0,1-.17334.002.11436.11436,0,0,1-.03418-.09034v-.02685h.08057v.03711c0,.0332.01757.04736.04052.04736a.0335.0335,0,0,0,.02979-.01416.22545.22545,0,0,0,.01221-.103.2176.2176,0,0,0-.01075-.09619.03421.03421,0,0,0-.03125-.01709.04145.04145,0,0,0-.04052.04688v.01123h-.07715v-.313h.23437v.07275h-.16015v.14551a.11.11,0,0,1,.02832-.02588.09215.09215,0,0,1,.11181.02295.24512.24512,0,0,1,.02637.145C399.21,254.10547,399.209,254.15332,399.17334,254.18945Z" style="fill:#fff"/><path d="M399.481,254.19092a.13268.13268,0,0,1-.17334,0,.11321.11321,0,0,1-.03418-.08985v-.31152a.11317.11317,0,0,1,.03418-.08984.13265.13265,0,0,1,.17334,0,.11486.11486,0,0,1,.03418.08984v.31152A.1149.1149,0,0,1,399.481,254.19092Zm-.04688-.4043c0-.03125-.01758-.04687-.03955-.04687a.0412.0412,0,0,0-.04053.04687v.31738a.04077.04077,0,0,0,.04053.04639c.022,0,.03955-.01514.03955-.04639Z" style="fill:#fff"/><path d="M399.78857,254.19092a.125.125,0,0,1-.08642.03222.1263.1263,0,0,1-.08692-.03222.11324.11324,0,0,1-.03418-.08985v-.31152a.1132.1132,0,0,1,.03418-.08984.12406.12406,0,0,1,.08692-.03223.1228.1228,0,0,1,.08642.03223.11483.11483,0,0,1,.03418.08984v.31152A.11487.11487,0,0,1,399.78857,254.19092Zm-.04687-.4043c0-.03125-.01758-.04687-.03955-.04687a.0412.0412,0,0,0-.04053.04687v.31738a.04077.04077,0,0,0,.04053.04639c.022,0,.03955-.01514.03955-.04639Z" style="fill:#fff"/><path d="M400.09619,254.19141a.12494.12494,0,0,1-.0874.03173.1284.1284,0,0,1-.0874-.03222.113.113,0,0,1-.03369-.08985v-.03222h.08105v.03515c0,.03125.01807.04639.04.04639a.03669.03669,0,0,0,.0293-.01367.15462.15462,0,0,0,.01269-.08008.14473.14473,0,0,0-.01221-.07959.03589.03589,0,0,0-.03027-.01367h-.02685v-.06787h.02685a.03274.03274,0,0,0,.02588-.01074.11181.11181,0,0,0,.01221-.06836.11362.11362,0,0,0-.01075-.06446.03214.03214,0,0,0-.02685-.0122c-.02051,0-.03613.01464-.03613.04394v.03809h-.08106v-.03321a.11518.11518,0,0,1,.03369-.08984.11709.11709,0,0,1,.0835-.03125.11463.11463,0,0,1,.0835.03027.15026.15026,0,0,1,.03515.11329.17965.17965,0,0,1-.01367.08593.08968.08968,0,0,1-.02979.03223.10453.10453,0,0,1,.03125.03271.19692.19692,0,0,1,.01661.1001A.15824.15824,0,0,1,400.09619,254.19141Z" style="fill:#fff"/><path d="M400.51172,254.2168h-.08838l-.11914-.54346h.09375l.06982.41211.06983-.41211h.09424Z" style="fill:#fff"/><path d="M400.92578,254.17188a.13055.13055,0,0,1-.105.04492h-.13818v-.54346h.13818a.1293.1293,0,0,1,.105.04541c.04053.04492.03955.12207.03955.22656S400.96631,254.127,400.92578,254.17188Zm-.064-.39893a.0491.0491,0,0,0-.04346-.02246h-.05029v.38916h.05029a.04985.04985,0,0,0,.04346-.022.40481.40481,0,0,0,.01806-.17334A.39251.39251,0,0,0,400.86182,253.773Z" style="fill:#fff"/><path d="M401.28809,254.17188a.13058.13058,0,0,1-.105.04492h-.13819v-.54346h.13819a.12932.12932,0,0,1,.105.04541c.04052.04492.03955.12207.03955.22656S401.32861,254.127,401.28809,254.17188Zm-.064-.39893a.0491.0491,0,0,0-.04346-.02246h-.05029v.38916h.05029a.04985.04985,0,0,0,.04346-.022.40475.40475,0,0,0,.01807-.17334A.39245.39245,0,0,0,401.22412,253.773Z" style="fill:#fff"/><path d="M401.36084,254.3335v-.0586h.34863v.0586Z" style="fill:#fff"/><path d="M401.98193,254.18848a.14413.14413,0,0,1-.19922-.01123c-.04052-.0459-.03955-.12452-.03955-.23145,0-.10644-.001-.18652.03955-.23242a.14462.14462,0,0,1,.2002-.01074.16347.16347,0,0,1,.04346.11425h-.08545a.10683.10683,0,0,0-.01319-.05273.04139.04139,0,0,0-.03955-.01953.04414.04414,0,0,0-.04052.02051.86157.86157,0,0,0,0,.36035.04514.04514,0,0,0,.04052.02051.04388.04388,0,0,0,.04053-.02.10732.10732,0,0,0,.0127-.05323h.08545A.162.162,0,0,1,401.98193,254.18848Z" style="fill:#fff"/><path d="M402.23682,254.00488H402.186v.21192h-.08545v-.54346h.13623c.09863,0,.13964.05127.13964.165C402.37646,253.94824,402.33984,254.00488,402.23682,254.00488Zm.00195-.25439H402.186v.17724h.05273c.04541,0,.05225-.04052.05225-.08837C402.291,253.791,402.28418,253.75049,402.23877,253.75049Z" style="fill:#fff"/><path d="M402.6875,254.18311a.13429.13429,0,0,1-.10059.04.1365.1365,0,0,1-.10156-.04.14086.14086,0,0,1-.0376-.09961v-.41016h.08545v.41455a.05343.05343,0,1,0,.10645,0v-.41455h.08545v.41016A.14086.14086,0,0,1,402.6875,254.18311Z" style="fill:#fff"/><path d="M403.03809,254.18848a.14413.14413,0,0,1-.19922-.01123c-.04-.0459-.03955-.12452-.03955-.23145a.37257.37257,0,0,1,.03955-.23242.1446.1446,0,0,1,.20019-.01074.16347.16347,0,0,1,.04346.11425h-.08545a.10693.10693,0,0,0-.01318-.05273.04141.04141,0,0,0-.03955-.01953.04415.04415,0,0,0-.04053.02051.862.862,0,0,0,0,.36035.04515.04515,0,0,0,.04053.02051.04388.04388,0,0,0,.04052-.02.10234.10234,0,0,0,.0127-.05323h.08545A.162.162,0,0,1,403.03809,254.18848Z" style="fill:#fff"/><path d="M403.15723,254.2168v-.54346h.08545v.46631h.14257v.07715Z" style="fill:#fff"/><path d="M403.40479,254.3335v-.0586h.34863v.0586Z" style="fill:#fff"/><path d="M403.99561,254.19092a.13268.13268,0,0,1-.17334,0,.11321.11321,0,0,1-.03418-.08985v-.31152a.11317.11317,0,0,1,.03418-.08984.13265.13265,0,0,1,.17334,0,.11486.11486,0,0,1,.03418.08984v.31152A.1149.1149,0,0,1,403.99561,254.19092Zm-.04688-.4043c0-.03125-.01758-.04687-.03955-.04687a.0412.0412,0,0,0-.04053.04687v.31738a.04077.04077,0,0,0,.04053.04639c.022,0,.03955-.01514.03955-.04639Z" style="fill:#fff"/><path d="M404.24561,254.00488h-.05079v.21192h-.08544v-.54346h.13623c.09863,0,.13964.05127.13964.165C404.38525,253.94824,404.34863,254.00488,404.24561,254.00488Zm.002-.25439h-.05274v.17724h.05274c.04541,0,.05224-.04052.05224-.08837C404.2998,253.791,404.293,253.75049,404.24756,253.75049Z" style="fill:#fff"/><path d="M404.65527,254.19092a.13268.13268,0,0,1-.17334,0,.15785.15785,0,0,1-.03564-.12744.19473.19473,0,0,1,.01562-.09619.09742.09742,0,0,1,.03223-.03418.09309.09309,0,0,1-.02978-.0337.17157.17157,0,0,1-.01465-.08447.15149.15149,0,0,1,.03515-.11621.12718.12718,0,0,1,.167,0,.1496.1496,0,0,1,.03515.11621.172.172,0,0,1-.01416.08447.09787.09787,0,0,1-.02978.0337.10036.10036,0,0,1,.03173.03418.18842.18842,0,0,1,.01612.09619A.15958.15958,0,0,1,404.65527,254.19092Zm-.05761-.21143a.03744.03744,0,0,0-.02881-.01318.03951.03951,0,0,0-.02979.01318.26091.26091,0,0,0,0,.15772.03788.03788,0,0,0,.02979.01318.03591.03591,0,0,0,.02881-.01318.14177.14177,0,0,0,.0122-.07764A.139.139,0,0,0,404.59766,253.97949Zm-.00293-.229a.03185.03185,0,0,0-.02588-.01074.03461.03461,0,0,0-.02686.01074.12169.12169,0,0,0-.01123.06787c0,.02685-.001.05762.01367.07129a.03486.03486,0,0,0,.02442.00879.034.034,0,0,0,.02441-.00879c.01465-.01367.01319-.04444.01319-.07129A.11727.11727,0,0,0,404.59473,253.75049Z" style="fill:#fff"/><line x1="393.30874" y1="253.95952" x2="398.00796" y2="253.95952" style="fill:#fff;stroke:#ec1c24;stroke-miterlimit:10;stroke-width:0.25px"/><rect x="369.60318" y="281.13864" width="8.57539" height="1.22999" rx="0.615" style="fill:#ec1c24"/><path d="M370.73828,281.98242a.14411.14411,0,0,1-.19922-.01123c-.04052-.0459-.03955-.12451-.03955-.23144,0-.10645-.001-.18653.03955-.23243a.14464.14464,0,0,1,.2002-.01074.16344.16344,0,0,1,.04345.11426h-.08544a.10683.10683,0,0,0-.01319-.05273.04139.04139,0,0,0-.03955-.01954.04418.04418,0,0,0-.04053.02051.862.862,0,0,0,0,.36035.04516.04516,0,0,0,.04053.02051.04386.04386,0,0,0,.04053-.02.10717.10717,0,0,0,.01269-.05322h.08545A.16188.16188,0,0,1,370.73828,281.98242Z" style="fill:#fff"/><path d="M371.05078,281.98535a.1249.1249,0,0,1-.0874.03174.12841.12841,0,0,1-.0874-.03223.113.113,0,0,1-.03369-.08984v-.03223h.08105v.03516c0,.03125.01807.04639.04.04639a.03667.03667,0,0,0,.0293-.01368.15456.15456,0,0,0,.01269-.08007.14469.14469,0,0,0-.01221-.07959.0359.0359,0,0,0-.03027-.01368H370.936v-.06787h.02685a.03271.03271,0,0,0,.02588-.01074.11179.11179,0,0,0,.01221-.06836.11359.11359,0,0,0-.01075-.06445.03212.03212,0,0,0-.02685-.01221c-.02051,0-.03613.01465-.03613.04395v.03808h-.08106v-.0332a.11516.11516,0,0,1,.03369-.08984.11709.11709,0,0,1,.0835-.03125.11463.11463,0,0,1,.0835.03027.15023.15023,0,0,1,.03515.11328.17972.17972,0,0,1-.01367.08594.08973.08973,0,0,1-.02979.03222.10445.10445,0,0,1,.03125.03272.1969.1969,0,0,1,.01661.1001A.15821.15821,0,0,1,371.05078,281.98535Z" style="fill:#fff"/><path d="M371.3584,281.98486a.13265.13265,0,0,1-.17334,0,.11317.11317,0,0,1-.03418-.08984v-.31152a.11321.11321,0,0,1,.03418-.08985.13268.13268,0,0,1,.17334,0,.1149.1149,0,0,1,.03418.08985v.31152A.11486.11486,0,0,1,371.3584,281.98486Zm-.04688-.40429c0-.03125-.01757-.04688-.03955-.04688a.0412.0412,0,0,0-.04052.04688v.31738a.04077.04077,0,0,0,.04052.04639c.022,0,.03955-.01514.03955-.04639Z" style="fill:#fff"/><path d="M371.562,282.01074V281.562l-.082.0625v-.09131l.082-.06591h.08057v.54345Z" style="fill:#fff"/><path d="M371.98389,281.97314a.11254.11254,0,0,1-.09668.04395.10787.10787,0,0,1-.09473-.04395.19769.19769,0,0,1-.02734-.127.37124.37124,0,0,1,.022-.12842l.09521-.25048h.084l-.08936.21972a.0573.0573,0,0,1,.03369-.00879.08775.08775,0,0,1,.07178.03321c.01953.02539.02735.0542.02735.13476A.20244.20244,0,0,1,371.98389,281.97314Zm-.06739-.21484a.03491.03491,0,0,0-.0288-.01367.0368.0368,0,0,0-.02979.01367.17358.17358,0,0,0-.01221.08691.16939.16939,0,0,0,.01221.08545.0368.0368,0,0,0,.02979.01368.0337.0337,0,0,0,.0288-.01368.16246.16246,0,0,0,.01221-.08545A.16829.16829,0,0,0,371.9165,281.7583Z" style="fill:#fff"/><path d="M372.44238,282.01074l-.022-.10742h-.126l-.02148.10742h-.08984l.1333-.54345h.08349l.13184.54345Zm-.08447-.41211-.04687.22754h.09326Z" style="fill:#fff"/><path d="M372.72363,282.01074h-.08838l-.11914-.54345h.09375l.06983.4121.06982-.4121h.09424Z" style="fill:#fff"/><path d="M373.13721,281.96582a.13058.13058,0,0,1-.105.04492H372.894v-.54345h.13819a.1293.1293,0,0,1,.105.04541c.04052.04492.03955.12207.03955.22656S373.17773,281.9209,373.13721,281.96582Zm-.064-.39893a.0491.0491,0,0,0-.04345-.02246h-.0503v.38916h.0503a.04983.04983,0,0,0,.04345-.022.40455.40455,0,0,0,.01807-.17334A.39232.39232,0,0,0,373.07324,281.56689Z" style="fill:#fff"/><path d="M373.49951,281.96582a.13055.13055,0,0,1-.105.04492h-.13818v-.54345h.13818a.12927.12927,0,0,1,.105.04541c.04053.04492.03955.12207.03955.22656S373.54,281.9209,373.49951,281.96582Zm-.064-.39893a.0491.0491,0,0,0-.04346-.02246h-.05029v.38916h.05029a.04983.04983,0,0,0,.04346-.022.40478.40478,0,0,0,.01806-.17334A.39254.39254,0,0,0,373.43555,281.56689Z" style="fill:#fff"/><path d="M373.57275,282.12744v-.05859h.34864v.05859Z" style="fill:#fff"/><path d="M374.10547,281.79883h-.05078v.21191h-.08545v-.54345h.13623c.09863,0,.13965.05126.13965.165C374.24512,281.74219,374.2085,281.79883,374.10547,281.79883Zm.00195-.2544h-.05273v.17725h.05273c.04541,0,.05225-.04053.05225-.08838C374.15967,281.585,374.15283,281.54443,374.10742,281.54443Z" style="fill:#fff"/><path d="M374.32129,282.01074v-.54345h.08545v.4663h.14258v.07715Z" style="fill:#fff"/><path d="M374.61523,282.01074v-.54345h.08545v.4663h.14258v.07715Z" style="fill:#fff"/><path d="M374.86328,282.12744v-.05859h.34863v.05859Z" style="fill:#fff"/><path d="M375.48389,281.98242a.14411.14411,0,0,1-.19922-.01123c-.04-.0459-.03955-.12451-.03955-.23144a.37258.37258,0,0,1,.03955-.23243.14463.14463,0,0,1,.20019-.01074.16345.16345,0,0,1,.04346.11426h-.08545a.10693.10693,0,0,0-.01318-.05273.04141.04141,0,0,0-.03955-.01954.04417.04417,0,0,0-.04053.02051.862.862,0,0,0,0,.36035.04515.04515,0,0,0,.04053.02051.04386.04386,0,0,0,.04052-.02.10231.10231,0,0,0,.0127-.05322h.08545A.162.162,0,0,1,375.48389,281.98242Z" style="fill:#fff"/><path d="M375.73877,281.79883H375.688v.21191h-.08545v-.54345h.13623c.09863,0,.13965.05126.13965.165C375.87842,281.74219,375.8418,281.79883,375.73877,281.79883Zm.002-.2544H375.688v.17725h.05273c.04541,0,.05225-.04053.05225-.08838C375.793,281.585,375.78613,281.54443,375.74072,281.54443Z" style="fill:#fff"/><path d="M375.90869,282.12744v-.05859h.34863v.05859Z" style="fill:#fff"/><path d="M376.499,281.98486a.125.125,0,0,1-.08642.03223.12631.12631,0,0,1-.08692-.03223.1132.1132,0,0,1-.03418-.08984v-.31152a.11324.11324,0,0,1,.03418-.08985.1241.1241,0,0,1,.08692-.03222.12284.12284,0,0,1,.08642.03222.11487.11487,0,0,1,.03418.08985v.31152A.11483.11483,0,0,1,376.499,281.98486Zm-.04687-.40429c0-.03125-.01758-.04688-.03955-.04688a.0412.0412,0,0,0-.04053.04688v.31738a.04077.04077,0,0,0,.04053.04639c.022,0,.03955-.01514.03955-.04639Z" style="fill:#fff"/><path d="M376.749,281.79883h-.05078v.21191h-.08545v-.54345h.13623c.09864,0,.13965.05126.13965.165C376.88867,281.74219,376.85205,281.79883,376.749,281.79883Zm.002-.2544h-.05274v.17725h.05274c.04541,0,.05224-.04053.05224-.08838C376.80322,281.585,376.79639,281.54443,376.751,281.54443Z" style="fill:#fff"/><path d="M377.15918,281.98486a.13265.13265,0,0,1-.17334,0,.1579.1579,0,0,1-.03613-.12744.194.194,0,0,1,.01611-.09619.09759.09759,0,0,1,.03223-.03418.09318.09318,0,0,1-.02979-.03369.17159.17159,0,0,1-.01465-.08447.15148.15148,0,0,1,.03516-.11621.12716.12716,0,0,1,.167,0,.14959.14959,0,0,1,.03516.11621.1721.1721,0,0,1-.01416.08447.10327.10327,0,0,1-.02979.03369.10057.10057,0,0,1,.03174.03418.18856.18856,0,0,1,.01611.09619A.15956.15956,0,0,1,377.15918,281.98486Zm-.05762-.21142a.0367.0367,0,0,0-.02881-.01319.03948.03948,0,0,0-.02978.01319.26068.26068,0,0,0,0,.15771.03785.03785,0,0,0,.02978.01319.03524.03524,0,0,0,.02881-.01319.14162.14162,0,0,0,.01221-.07763A.13885.13885,0,0,0,377.10156,281.77344Zm-.00293-.229a.03187.03187,0,0,0-.02588-.01074.03462.03462,0,0,0-.02685.01074.12172.12172,0,0,0-.01123.06787c0,.02686-.001.05762.01367.07129a.03486.03486,0,0,0,.02441.00879.034.034,0,0,0,.02442-.00879c.01465-.01367.01318-.04443.01318-.07129A.1173.1173,0,0,0,377.09863,281.54443Z" style="fill:#fff"/><line x1="383.6784" y1="281.75364" x2="378.17857" y2="281.75364" style="fill:none;stroke:#ec1c24;stroke-miterlimit:10;stroke-width:0.25px"/><path d="M396.12021,277.69483a.39587.39587,0,0,0-.38782-.38784.38668.38668,0,0,0-.38832.38784.39594.39594,0,0,0,.38832.38781.406.406,0,0,0,.38782-.38781" style="fill:#ec1c24"/><rect x="381.26885" y="277.07982" width="8.57539" height="1.22999" rx="0.615" style="fill:#ec1c24"/><path d="M382.4043,277.92334a.14411.14411,0,0,1-.19922-.01123c-.04053-.0459-.03955-.12451-.03955-.23145,0-.10644-.001-.18652.03955-.23242a.1446.1446,0,0,1,.20019-.01074.16345.16345,0,0,1,.04346.11426h-.08545a.10686.10686,0,0,0-.01318-.05274.04143.04143,0,0,0-.03955-.01953A.04415.04415,0,0,0,382.27,277.5a.862.862,0,0,0,0,.36035.04515.04515,0,0,0,.04053.02051.04386.04386,0,0,0,.04052-.02.10728.10728,0,0,0,.0127-.05322h.08545A.162.162,0,0,1,382.4043,277.92334Z" style="fill:#fff"/><path d="M382.7168,277.92627a.12493.12493,0,0,1-.08741.03174.12842.12842,0,0,1-.0874-.03223.11306.11306,0,0,1-.03369-.08984v-.03223h.08106v.03516c0,.03125.01806.04638.04.04638a.03668.03668,0,0,0,.0293-.01367.15459.15459,0,0,0,.0127-.08008.14473.14473,0,0,0-.01221-.07959.03593.03593,0,0,0-.03027-.01367h-.02686v-.06787h.02686a.03274.03274,0,0,0,.02588-.01074.11187.11187,0,0,0,.0122-.06836.11368.11368,0,0,0-.01074-.06445.03214.03214,0,0,0-.02686-.01221c-.0205,0-.03613.01465-.03613.04394v.03809h-.08105v-.0332a.11517.11517,0,0,1,.03369-.08985.11709.11709,0,0,1,.08349-.03125.11456.11456,0,0,1,.0835.03028.15023.15023,0,0,1,.03516.11328.17984.17984,0,0,1-.01367.08594.08982.08982,0,0,1-.02979.03222.10456.10456,0,0,1,.03125.03272.19692.19692,0,0,1,.0166.1001A.15821.15821,0,0,1,382.7168,277.92627Z" style="fill:#fff"/><path d="M383.02441,277.92578a.125.125,0,0,1-.08642.03223.12631.12631,0,0,1-.08692-.03223.11323.11323,0,0,1-.03418-.08984v-.31153a.11323.11323,0,0,1,.03418-.08984.12406.12406,0,0,1,.08692-.03223.1228.1228,0,0,1,.08642.03223.11486.11486,0,0,1,.03418.08984v.31153A.11486.11486,0,0,1,383.02441,277.92578Zm-.04687-.4043c0-.03125-.01758-.04687-.03955-.04687a.0412.0412,0,0,0-.04053.04687v.31739a.04076.04076,0,0,0,.04053.04638c.022,0,.03955-.01513.03955-.04638Z" style="fill:#fff"/><path d="M383.33252,277.92578a.13265.13265,0,0,1-.17334,0,.11323.11323,0,0,1-.03418-.08984v-.31153a.11323.11323,0,0,1,.03418-.08984.13265.13265,0,0,1,.17334,0,.11486.11486,0,0,1,.03418.08984v.31153A.11486.11486,0,0,1,383.33252,277.92578Zm-.04688-.4043c0-.03125-.01757-.04687-.03955-.04687a.04119.04119,0,0,0-.04052.04687v.31739a.04076.04076,0,0,0,.04052.04638c.022,0,.03955-.01513.03955-.04638Z" style="fill:#fff"/><path d="M383.64014,277.92578a.13265.13265,0,0,1-.17334,0,.15782.15782,0,0,1-.03565-.12744.19462.19462,0,0,1,.01563-.09619.09738.09738,0,0,1,.03222-.03418.09315.09315,0,0,1-.02978-.03369.17163.17163,0,0,1-.01465-.08448.15147.15147,0,0,1,.03516-.11621.12717.12717,0,0,1,.167,0,.14962.14962,0,0,1,.03516.11621.172.172,0,0,1-.01417.08448.09783.09783,0,0,1-.02978.03369.10058.10058,0,0,1,.03174.03418.18856.18856,0,0,1,.01611.09619A.15958.15958,0,0,1,383.64014,277.92578Zm-.05762-.21142a.03742.03742,0,0,0-.02881-.01319.03945.03945,0,0,0-.02978.01319.26068.26068,0,0,0,0,.15771.03784.03784,0,0,0,.02978.01318.03591.03591,0,0,0,.02881-.01318.14167.14167,0,0,0,.01221-.07764A.13889.13889,0,0,0,383.58252,277.71436Zm-.00293-.229a.03188.03188,0,0,0-.02588-.01074.03461.03461,0,0,0-.02685.01074.12169.12169,0,0,0-.01123.06787c0,.02686-.001.05762.01367.07129a.03484.03484,0,0,0,.02441.00879.034.034,0,0,0,.02442-.00879c.01464-.01367.01318-.04443.01318-.07129A.11727.11727,0,0,0,383.57959,277.48535Z" style="fill:#fff"/><path d="M384.1084,277.95166l-.022-.10742h-.126l-.02149.10742h-.08984l.1333-.54346h.0835l.13183.54346Zm-.08447-.41211-.04688.22754h.09326Z" style="fill:#fff"/><path d="M384.38965,277.95166h-.08838l-.11914-.54346h.09375l.06982.41211.06983-.41211h.09424Z" style="fill:#fff"/><path d="M384.80322,277.90674a.13055.13055,0,0,1-.105.04492h-.13818v-.54346h.13818a.1293.1293,0,0,1,.105.04541c.04053.04493.03955.12207.03955.22657S384.84375,277.86182,384.80322,277.90674Zm-.064-.39893a.0491.0491,0,0,0-.04346-.02246h-.05029v.38916h.05029a.04985.04985,0,0,0,.04346-.022.40478.40478,0,0,0,.01806-.17334A.39251.39251,0,0,0,384.73926,277.50781Z" style="fill:#fff"/><path d="M385.16553,277.90674a.13058.13058,0,0,1-.105.04492h-.13819v-.54346h.13819a.12932.12932,0,0,1,.105.04541c.04052.04493.03955.12207.03955.22657S385.20605,277.86182,385.16553,277.90674Zm-.064-.39893a.0491.0491,0,0,0-.04345-.02246h-.0503v.38916h.0503a.04985.04985,0,0,0,.04345-.022.40455.40455,0,0,0,.01807-.17334A.39229.39229,0,0,0,385.10156,277.50781Z" style="fill:#fff"/><path d="M385.23877,278.06836v-.05859h.34863v.05859Z" style="fill:#fff"/><path d="M385.77148,277.73975h-.05078v.21191h-.08545v-.54346h.13623c.09864,0,.13965.05127.13965.165C385.91113,277.68311,385.87451,277.73975,385.77148,277.73975Zm.002-.2544h-.05274v.17725h.05274c.04541,0,.05224-.04053.05224-.08838C385.82568,277.52588,385.81885,277.48535,385.77344,277.48535Z" style="fill:#fff"/><path d="M385.9873,277.95166v-.54346h.08545v.46631h.14258v.07715Z" style="fill:#fff"/><path d="M386.28125,277.95166v-.54346h.08545v.46631h.14258v.07715Z" style="fill:#fff"/><path d="M386.5293,278.06836v-.05859h.34863v.05859Z" style="fill:#fff"/><path d="M387.1499,277.92334a.14411.14411,0,0,1-.19922-.01123c-.04-.0459-.03955-.12451-.03955-.23145a.37257.37257,0,0,1,.03955-.23242.14462.14462,0,0,1,.2002-.01074.16349.16349,0,0,1,.04346.11426h-.08545a.10687.10687,0,0,0-.01319-.05274.04141.04141,0,0,0-.03955-.01953.04413.04413,0,0,0-.04052.02051.86157.86157,0,0,0,0,.36035.04513.04513,0,0,0,.04052.02051.04386.04386,0,0,0,.04053-.02.10231.10231,0,0,0,.0127-.05322h.08544A.16188.16188,0,0,1,387.1499,277.92334Z" style="fill:#fff"/><path d="M387.40479,277.73975H387.354v.21191h-.08545v-.54346h.13624c.09863,0,.13964.05127.13964.165C387.54443,277.68311,387.50781,277.73975,387.40479,277.73975Zm.002-.2544H387.354v.17725h.05274c.04541,0,.05224-.04053.05224-.08838C387.459,277.52588,387.45215,277.48535,387.40674,277.48535Z" style="fill:#fff"/><path d="M387.57471,278.06836v-.05859h.34863v.05859Z" style="fill:#fff"/><path d="M388.06055,277.95166v-.44873l-.082.0625v-.09131l.082-.06592h.08056v.54346Z" style="fill:#fff"/><path d="M388.415,277.73975h-.05078v.21191h-.08545v-.54346h.13623c.09863,0,.13965.05127.13965.165C388.55469,277.68311,388.51807,277.73975,388.415,277.73975Zm.002-.2544h-.05273v.17725h.05273c.04541,0,.05225-.04053.05225-.08838C388.46924,277.52588,388.4624,277.48535,388.417,277.48535Z" style="fill:#fff"/><path d="M388.62109,277.95166v-.06885l.13623-.26367a.21167.21167,0,0,0,.022-.09717c0-.03125-.01709-.04736-.03907-.04736a.04119.04119,0,0,0-.04052.04687v.03516h-.08057v-.03223a.11306.11306,0,0,1,.03369-.08984.12612.12612,0,0,1,.0874-.03223.119.119,0,0,1,.084.02881.12256.12256,0,0,1,.03564.09424.2714.2714,0,0,1-.02929.11865l-.12305.23535h.15234v.07227Z" style="fill:#fff"/><line x1="395.34407" y1="277.69481" x2="389.84424" y2="277.69481" style="fill:none;stroke:#ec1c24;stroke-miterlimit:10;stroke-width:0.25px"/><path d="M382.532,258.489a.39586.39586,0,0,0-.38782-.38784.38667.38667,0,0,0-.38831.38784.39593.39593,0,0,0,.38831.38781.406.406,0,0,0,.38782-.38781" style="fill:#ec1c24"/><rect x="369.06641" y="257.87393" width="7.18959" height="1.22999" rx="0.615" style="fill:#ec1c24"/><path d="M370.20215,258.74609v-.54345h.08545v.46631h.14258v.07714Z" style="fill:#fff"/><path d="M370.68994,258.71875a.13117.13117,0,0,1-.17334.002.11433.11433,0,0,1-.03418-.09033v-.02685h.08057v.03711c0,.0332.01758.04736.04053.04736a.03351.03351,0,0,0,.02978-.01416.2255.2255,0,0,0,.01221-.103.21779.21779,0,0,0-.01074-.09619.03423.03423,0,0,0-.03125-.01709.04146.04146,0,0,0-.04053.04687v.01124h-.07715v-.313h.23437v.07275h-.16015v.14551a.10984.10984,0,0,1,.02832-.02588.09212.09212,0,0,1,.11182.023.24519.24519,0,0,1,.02636.145C370.72656,258.63477,370.72559,258.68262,370.68994,258.71875Z" style="fill:#fff"/><path d="M370.99756,258.72021a.13265.13265,0,0,1-.17334,0,.11317.11317,0,0,1-.03418-.08984v-.31152a.11321.11321,0,0,1,.03418-.08985.13268.13268,0,0,1,.17334,0,.1149.1149,0,0,1,.03418.08985v.31152A.11486.11486,0,0,1,370.99756,258.72021Zm-.04688-.40429c0-.03125-.01757-.04688-.03955-.04688a.0412.0412,0,0,0-.04052.04688v.31738a.04077.04077,0,0,0,.04052.04639c.022,0,.03955-.01514.03955-.04639Z" style="fill:#fff"/><path d="M371.30518,258.72021a.13265.13265,0,0,1-.17334,0,.11317.11317,0,0,1-.03418-.08984v-.31152a.11321.11321,0,0,1,.03418-.08985.13268.13268,0,0,1,.17334,0,.1149.1149,0,0,1,.03418.08985v.31152A.11486.11486,0,0,1,371.30518,258.72021Zm-.04688-.40429c0-.03125-.01758-.04688-.03955-.04688a.0412.0412,0,0,0-.04053.04688v.31738a.04077.04077,0,0,0,.04053.04639c.022,0,.03955-.01514.03955-.04639Z" style="fill:#fff"/><path d="M371.62305,258.66162v.08447h-.08057v-.08447h-.15088v-.07275l.13916-.38623h.07862l-.13477.38623h.06787v-.09668h.08057v.09668h.03759v.07275Z" style="fill:#fff"/><path d="M372.02832,258.74609h-.08838l-.11914-.54345h.09375l.06983.41211.06982-.41211h.09424Z" style="fill:#fff"/><path d="M372.44238,258.70117a.13055.13055,0,0,1-.105.04492h-.13818v-.54345h.13818a.1293.1293,0,0,1,.105.04541c.04053.04492.03955.12207.03955.22656S372.48291,258.65625,372.44238,258.70117Zm-.064-.39892a.04908.04908,0,0,0-.04346-.02246h-.05029v.38916h.05029a.04984.04984,0,0,0,.04346-.022.40478.40478,0,0,0,.01806-.17334A.39248.39248,0,0,0,372.37842,258.30225Z" style="fill:#fff"/><path d="M372.80469,258.70117a.13058.13058,0,0,1-.105.04492h-.13819v-.54345h.13819a.12932.12932,0,0,1,.105.04541c.04052.04492.03955.12207.03955.22656S372.84521,258.65625,372.80469,258.70117Zm-.064-.39892a.04908.04908,0,0,0-.04345-.02246h-.0503v.38916h.0503a.04983.04983,0,0,0,.04345-.022.40455.40455,0,0,0,.01807-.17334A.39226.39226,0,0,0,372.74072,258.30225Z" style="fill:#fff"/><path d="M372.87744,258.86279v-.05859h.34863v.05859Z" style="fill:#fff"/><path d="M373.27441,258.74609v-.54345h.08545v.54345Z" style="fill:#fff"/><path d="M373.66553,258.74609l-.12793-.32275v.32275h-.08545v-.54345h.07617l.12744.32275v-.32275h.08545v.54345Z" style="fill:#fff"/><path d="M373.98145,258.27979v.4663H373.896v-.4663h-.09082v-.07715h.26757v.07715Z" style="fill:#fff"/><path d="M374.09082,258.86279v-.05859h.34863v.05859Z" style="fill:#fff"/><path d="M374.68115,258.72021a.125.125,0,0,1-.08642.03223.12631.12631,0,0,1-.08692-.03223.1132.1132,0,0,1-.03418-.08984v-.31152a.11324.11324,0,0,1,.03418-.08985.1241.1241,0,0,1,.08692-.03222.12284.12284,0,0,1,.08642.03222.11487.11487,0,0,1,.03418.08985v.31152A.11483.11483,0,0,1,374.68115,258.72021Zm-.04687-.40429c0-.03125-.01758-.04688-.03955-.04688a.0412.0412,0,0,0-.04053.04688v.31738a.04077.04077,0,0,0,.04053.04639c.022,0,.03955-.01514.03955-.04639Z" style="fill:#fff"/><path d="M374.93115,258.53418h-.05078v.21191h-.08545v-.54345h.13623c.09864,0,.13965.05127.13965.165C375.0708,258.47754,375.03418,258.53418,374.93115,258.53418Zm.002-.25439h-.05274v.17724h.05274c.04541,0,.05224-.04053.05224-.08838C374.98535,258.32031,374.97852,258.27979,374.93311,258.27979Z" style="fill:#fff"/><path d="M375.34082,258.72021a.13265.13265,0,0,1-.17334,0,.1578.1578,0,0,1-.03564-.12744.19478.19478,0,0,1,.01562-.09619.09759.09759,0,0,1,.03223-.03418.0931.0931,0,0,1-.02979-.03369.1717.1717,0,0,1-.01465-.08447.15148.15148,0,0,1,.03516-.11621.12717.12717,0,0,1,.167,0,.14959.14959,0,0,1,.03516.11621.172.172,0,0,1-.01416.08447.09787.09787,0,0,1-.02979.03369.10047.10047,0,0,1,.03174.03418.18848.18848,0,0,1,.01611.09619A.15956.15956,0,0,1,375.34082,258.72021Zm-.05762-.21142a.03741.03741,0,0,0-.02881-.01318.03949.03949,0,0,0-.02978.01318.26068.26068,0,0,0,0,.15771.03786.03786,0,0,0,.02978.01319.03589.03589,0,0,0,.02881-.01319.14162.14162,0,0,0,.01221-.07763A.13885.13885,0,0,0,375.2832,258.50879Zm-.00293-.229a.03185.03185,0,0,0-.02588-.01075.03459.03459,0,0,0-.02685.01075.12169.12169,0,0,0-.01123.06787c0,.02685-.001.05761.01367.07129a.0349.0349,0,0,0,.02441.00878.03408.03408,0,0,0,.02442-.00878c.01465-.01368.01318-.04444.01318-.07129A.11727.11727,0,0,0,375.28027,258.27979Z" style="fill:#fff"/><line x1="381.75584" y1="258.48893" x2="376.25601" y2="258.48893" style="fill:none;stroke:#ec1c24;stroke-miterlimit:10;stroke-width:0.25px"/><rect x="423.2285" y="248.42411" width="6.74588" height="1.22999" rx="0.615" style="fill:#ec1c24"/><path d="M423.90918,249.26807a.14413.14413,0,0,1-.19922-.01123c-.04-.0459-.03906-.12452-.03906-.23145,0-.10644-.001-.18652.03906-.23242a.13129.13129,0,0,1,.10547-.0459.12945.12945,0,0,1,.09473.03516.16592.16592,0,0,1,.04394.11425h-.08594a.1121.1121,0,0,0-.01269-.05273.04274.04274,0,0,0-.04-.01953.04331.04331,0,0,0-.04.02051.84087.84087,0,0,0,0,.36035.04428.04428,0,0,0,.04.02051.04476.04476,0,0,0,.041-.02.11294.11294,0,0,0,.01269-.05323h.085A.15994.15994,0,0,1,423.90918,249.26807Z" style="fill:#fff"/><path d="M424.22168,249.271a.12456.12456,0,0,1-.08691.03173.12964.12964,0,0,1-.08789-.03222.11287.11287,0,0,1-.03321-.08985v-.03222h.08106v.03515c0,.03125.01757.04639.04.04639a.03817.03817,0,0,0,.02929-.01367.15988.15988,0,0,0,.0127-.08008.144.144,0,0,0-.0127-.07959.03589.03589,0,0,0-.03027-.01367h-.02637v-.06787h.02637a.0331.0331,0,0,0,.02637-.01074.11578.11578,0,0,0,.01172-.06836.10962.10962,0,0,0-.01075-.06446.03118.03118,0,0,0-.02636-.0122c-.02051,0-.03614.01464-.03614.04394v.03809h-.08105v-.03321a.115.115,0,0,1,.0332-.08984.11911.11911,0,0,1,.084-.03125.11257.11257,0,0,1,.083.03027.15022.15022,0,0,1,.03516.11329.174.174,0,0,1-.01367.08593.08436.08436,0,0,1-.0293.03223.10453.10453,0,0,1,.03125.03271.20234.20234,0,0,1,.0166.1001A.15836.15836,0,0,1,424.22168,249.271Z" style="fill:#fff"/><path d="M424.4248,249.29639v-.44873l-.082.0625v-.09131l.082-.06592h.08106v.54346Z" style="fill:#fff"/><path d="M424.83789,249.27051a.12538.12538,0,0,1-.08691.03222.12717.12717,0,0,1-.08692-.03222.11324.11324,0,0,1-.03418-.08985v-.31152a.1132.1132,0,0,1,.03418-.08984.1249.1249,0,0,1,.08692-.03223.12318.12318,0,0,1,.08691.03223.11654.11654,0,0,1,.03418.08984v.31152A.11658.11658,0,0,1,424.83789,249.27051Zm-.04687-.4043c0-.03125-.01758-.04687-.04-.04687-.02149,0-.04.01562-.04.04687v.31738a.04069.04069,0,0,0,.04.04639c.02246,0,.04-.01514.04-.04639Z" style="fill:#fff"/><path d="M425.15625,249.21191v.08448h-.08105v-.08448h-.15137v-.07275l.13965-.38623h.07812l-.13476.38623h.06836v-.09668h.08105v.09668h.03711v.07275Z" style="fill:#fff"/><path d="M425.56055,249.29639h-.08789l-.11914-.54346h.09375l.06933.41211.07031-.41211h.09375Z" style="fill:#fff"/><path d="M425.97461,249.25146a.12873.12873,0,0,1-.10449.04493h-.13867v-.54346h.13867a.12753.12753,0,0,1,.10449.04541c.041.04492.04.12207.04.22656S426.01563,249.20654,425.97461,249.25146Zm-.06348-.39892a.05056.05056,0,0,0-.04394-.02246h-.04981v.38916h.04981a.05137.05137,0,0,0,.04394-.022.416.416,0,0,0,.01758-.17334A.40335.40335,0,0,0,425.91113,248.85254Z" style="fill:#fff"/><path d="M426.33691,249.25146a.13234.13234,0,0,1-.10546.04493h-.1377v-.54346h.1377a.13108.13108,0,0,1,.10546.04541c.04.04492.03907.12207.03907.22656S426.377,249.20654,426.33691,249.25146Zm-.06445-.39892a.04767.04767,0,0,0-.043-.02246h-.05078v.38916h.05078a.04837.04837,0,0,0,.043-.022.394.394,0,0,0,.01856-.17334A.382.382,0,0,0,426.27246,248.85254Z" style="fill:#fff"/><path d="M426.71387,249.314l-.04395-.03759a.12972.12972,0,0,1-.084.02636.13131.13131,0,0,1-.10547-.04589c-.04-.0459-.03906-.125-.03906-.23194s-.001-.186.03906-.23193a.13129.13129,0,0,1,.10547-.0459.12985.12985,0,0,1,.10547.0459.36968.36968,0,0,1,.04.23193.51378.51378,0,0,1-.02247.20362l.04493.03808Zm-.08692-.46923a.04389.04389,0,0,0-.041-.02051.04331.04331,0,0,0-.04.02051.84087.84087,0,0,0,0,.36035.04428.04428,0,0,0,.04.02051.0349.0349,0,0,0,.01855-.00391l-.02832-.02393.04-.04687.02149.01807a.72039.72039,0,0,0,.00781-.144A.40264.40264,0,0,0,426.627,248.84473Z" style="fill:#fff"/><path d="M426.76465,249.41309v-.0586h.34863v.0586Z" style="fill:#fff"/><path d="M427.38477,249.26807a.14413.14413,0,0,1-.19922-.01123c-.04-.0459-.03907-.12452-.03907-.23145,0-.10644-.001-.18652.03907-.23242a.13127.13127,0,0,1,.10547-.0459.12943.12943,0,0,1,.09472.03516.16593.16593,0,0,1,.04395.11425h-.08594a.11222.11222,0,0,0-.0127-.05273.04273.04273,0,0,0-.04-.01953.04331.04331,0,0,0-.04.02051.84087.84087,0,0,0,0,.36035.04428.04428,0,0,0,.04.02051.04474.04474,0,0,0,.041-.02.11282.11282,0,0,0,.0127-.05323h.085A.16.16,0,0,1,427.38477,249.26807Z" style="fill:#fff"/><path d="M427.71777,249.29639l-.08789-.22364-.041.084v.13965h-.085v-.54346h.085v.25586l.11816-.25586h.08692l-.10938.2251.126.31836Z" style="fill:#fff"/><path d="M427.86328,249.29639v-.54346h.22852v.07715h-.14258v.1543h.12207v.07714h-.12207v.15772h.14258v.07715Z" style="fill:#fff"/><path d="M428.12207,249.41309v-.0586h.34863v.0586Z" style="fill:#fff"/><path d="M428.60742,249.29639v-.44873l-.082.0625v-.09131l.082-.06592h.08106v.54346Z" style="fill:#fff"/><path d="M428.96191,249.08447h-.05078v.21192h-.085v-.54346h.13574c.09864,0,.13965.05127.13965.165C429.10156,249.02783,429.06543,249.08447,428.96191,249.08447Zm.002-.25439h-.05274v.17724h.05274c.0459,0,.05273-.04052.05273-.08837C429.0166,248.87061,429.00977,248.83008,428.96387,248.83008Z" style="fill:#fff"/><path d="M429.26758,249.29639v-.44873l-.082.0625v-.09131l.082-.06592h.08008v.54346Z" style="fill:#fff"/><line x1="435.47421" y1="249.0391" x2="429.97438" y2="249.0391" style="fill:none;stroke:#ec1c24;stroke-miterlimit:10;stroke-width:0.25px"/><path d="M398.68542,239.48157a.39586.39586,0,0,0-.38781-.38784.38667.38667,0,0,0-.38832.38784.39593.39593,0,0,0,.38832.38781.406.406,0,0,0,.38781-.38781" style="fill:#ec1c24"/><rect x="383.11788" y="238.86656" width="9.43454" height="1.22999" rx="0.615" style="fill:#ec1c24"/><path d="M384.39893,239.71045a.14411.14411,0,0,1-.19922-.01123c-.04053-.0459-.03955-.12451-.03955-.23145,0-.10644-.001-.18652.03955-.23242a.1446.1446,0,0,1,.20019-.01074.16349.16349,0,0,1,.04346.11426h-.08545a.107.107,0,0,0-.01318-.05274.04143.04143,0,0,0-.03955-.01953.04415.04415,0,0,0-.04053.02051.862.862,0,0,0,0,.36035.04515.04515,0,0,0,.04053.02051.04386.04386,0,0,0,.04052-.02.10728.10728,0,0,0,.0127-.05322h.08545A.162.162,0,0,1,384.39893,239.71045Z" style="fill:#fff"/><path d="M384.71143,239.71143a.13117.13117,0,0,1-.17334.00195.11432.11432,0,0,1-.03418-.09033v-.02686h.08056v.03711c0,.0332.01758.04736.04053.04736a.03352.03352,0,0,0,.02979-.01416.22559.22559,0,0,0,.0122-.103.21779.21779,0,0,0-.01074-.09619.03423.03423,0,0,0-.03125-.01709.04146.04146,0,0,0-.04053.04687v.01123h-.07715v-.313h.23438v.07276h-.16016v.1455a.11.11,0,0,1,.02832-.02587.09214.09214,0,0,1,.11182.02294.24512.24512,0,0,1,.02637.145C384.74805,239.62744,384.74707,239.67529,384.71143,239.71143Z" style="fill:#fff"/><path d="M385.019,239.71289a.125.125,0,0,1-.08642.03223.12631.12631,0,0,1-.08692-.03223.11323.11323,0,0,1-.03418-.08984v-.31153a.11323.11323,0,0,1,.03418-.08984.12406.12406,0,0,1,.08692-.03223.1228.1228,0,0,1,.08642.03223.11486.11486,0,0,1,.03418.08984v.31153A.11486.11486,0,0,1,385.019,239.71289Zm-.04687-.4043c0-.03125-.01758-.04687-.03955-.04687a.04119.04119,0,0,0-.04053.04687v.31739a.04076.04076,0,0,0,.04053.04638c.022,0,.03955-.01513.03955-.04638Z" style="fill:#fff"/><path d="M385.32715,239.71289a.13265.13265,0,0,1-.17334,0,.1132.1132,0,0,1-.03418-.08984v-.31153a.1132.1132,0,0,1,.03418-.08984.13265.13265,0,0,1,.17334,0,.11489.11489,0,0,1,.03418.08984v.31153A.11489.11489,0,0,1,385.32715,239.71289Zm-.04688-.4043c0-.03125-.01757-.04687-.03955-.04687a.04119.04119,0,0,0-.04052.04687v.31739a.04076.04076,0,0,0,.04052.04638c.022,0,.03955-.01513.03955-.04638Z" style="fill:#fff"/><path d="M385.63477,239.71289a.13265.13265,0,0,1-.17334,0,.15782.15782,0,0,1-.03565-.12744.19462.19462,0,0,1,.01563-.09619.09738.09738,0,0,1,.03222-.03418.09315.09315,0,0,1-.02978-.03369.17163.17163,0,0,1-.01465-.08448.15147.15147,0,0,1,.03516-.11621.12717.12717,0,0,1,.167,0,.14961.14961,0,0,1,.03515.11621.172.172,0,0,1-.01416.08448.09793.09793,0,0,1-.02978.03369.10058.10058,0,0,1,.03174.03418.18856.18856,0,0,1,.01611.09619A.15961.15961,0,0,1,385.63477,239.71289Zm-.05762-.21143a.03744.03744,0,0,0-.02881-.01318.03951.03951,0,0,0-.02979.01318.26091.26091,0,0,0,0,.15772.03788.03788,0,0,0,.02979.01318.03591.03591,0,0,0,.02881-.01318.14167.14167,0,0,0,.01221-.07764A.139.139,0,0,0,385.57715,239.50146Zm-.00293-.229a.03188.03188,0,0,0-.02588-.01074.03464.03464,0,0,0-.02686.01074.12169.12169,0,0,0-.01123.06787c0,.02686-.001.05762.01368.07129a.03482.03482,0,0,0,.02441.00879.034.034,0,0,0,.02441-.00879c.01465-.01367.01319-.04443.01319-.07129A.11727.11727,0,0,0,385.57422,239.27246Z" style="fill:#fff"/><path d="M386.05029,239.73877h-.08838l-.11914-.54346h.09375l.06983.41211.06982-.41211h.09424Z" style="fill:#fff"/><path d="M386.46436,239.69385a.13058.13058,0,0,1-.105.04492h-.13819v-.54346h.13819a.12932.12932,0,0,1,.105.04541c.04052.04492.03955.12207.03955.22657S386.50488,239.64893,386.46436,239.69385Zm-.064-.39893a.0491.0491,0,0,0-.04346-.02246h-.05029v.38916h.05029a.04985.04985,0,0,0,.04346-.022.40472.40472,0,0,0,.01807-.17334A.39245.39245,0,0,0,386.40039,239.29492Z" style="fill:#fff"/><path d="M386.82617,239.69385a.13055.13055,0,0,1-.105.04492H386.583v-.54346h.13818a.1293.1293,0,0,1,.105.04541c.04053.04492.03955.12207.03955.22657S386.8667,239.64893,386.82617,239.69385Zm-.064-.39893a.0491.0491,0,0,0-.04346-.02246h-.05029v.38916h.05029a.04985.04985,0,0,0,.04346-.022.40478.40478,0,0,0,.01806-.17334A.39251.39251,0,0,0,386.76221,239.29492Z" style="fill:#fff"/><path d="M386.89941,239.85547v-.05859h.34864v.05859Z" style="fill:#fff"/><path d="M387.52,239.71045a.14411.14411,0,0,1-.19922-.01123c-.04053-.0459-.03955-.12451-.03955-.23145,0-.10644-.001-.18652.03955-.23242a.14462.14462,0,0,1,.2002-.01074.16349.16349,0,0,1,.04345.11426H387.479a.10676.10676,0,0,0-.01318-.05274.04141.04141,0,0,0-.03955-.01953.04415.04415,0,0,0-.04053.02051.862.862,0,0,0,0,.36035.04515.04515,0,0,0,.04053.02051.04387.04387,0,0,0,.04053-.02.10727.10727,0,0,0,.01269-.05322h.08545A.16194.16194,0,0,1,387.52,239.71045Z" style="fill:#fff"/><path d="M387.7749,239.52686h-.05078v.21191h-.08545v-.54346h.13623c.09864,0,.13965.05127.13965.165C387.91455,239.47021,387.87793,239.52686,387.7749,239.52686Zm.002-.2544h-.05274v.17725h.05274c.04541,0,.05224-.04053.05224-.08838C387.8291,239.313,387.82227,239.27246,387.77686,239.27246Z" style="fill:#fff"/><path d="M388.22607,239.70508a.13426.13426,0,0,1-.10058.04.13648.13648,0,0,1-.10156-.04.13876.13876,0,0,1-.0376-.09961v-.41016h.08545v.41455a.05343.05343,0,1,0,.10644,0v-.41455h.08545v.41016A.14086.14086,0,0,1,388.22607,239.70508Z" style="fill:#fff"/><path d="M388.57666,239.71045a.14411.14411,0,0,1-.19922-.01123c-.04053-.0459-.03955-.12451-.03955-.23145,0-.10644-.001-.18652.03955-.23242a.14462.14462,0,0,1,.2002-.01074.16349.16349,0,0,1,.04345.11426h-.08545a.10676.10676,0,0,0-.01318-.05274.04141.04141,0,0,0-.03955-.01953.04416.04416,0,0,0-.04053.02051.862.862,0,0,0,0,.36035.04516.04516,0,0,0,.04053.02051.04386.04386,0,0,0,.04053-.02.10727.10727,0,0,0,.01269-.05322h.08545A.16194.16194,0,0,1,388.57666,239.71045Z" style="fill:#fff"/><path d="M388.69531,239.73877v-.54346h.08545v.46631h.14258v.07715Z" style="fill:#fff"/><path d="M388.94336,239.85547v-.05859h.34863v.05859Z" style="fill:#fff"/><path d="M389.33984,239.73877v-.54346h.08545v.46631h.14258v.07715Z" style="fill:#fff"/><path d="M389.877,239.69385a.13055.13055,0,0,1-.105.04492h-.13818v-.54346h.13818a.1293.1293,0,0,1,.105.04541c.04053.04492.03955.12207.03955.22657S389.91748,239.64893,389.877,239.69385Zm-.064-.39893a.0491.0491,0,0,0-.04346-.02246h-.05029v.38916h.05029a.04985.04985,0,0,0,.04346-.022.40478.40478,0,0,0,.01806-.17334A.39251.39251,0,0,0,389.813,239.29492Z" style="fill:#fff"/><path d="M390.23193,239.69922a.14411.14411,0,0,1-.21093,0c-.04053-.0459-.03955-.125-.03955-.23193s-.001-.186.03955-.23194a.14411.14411,0,0,1,.21093,0c.04.0459.03955.125.03955.23194S390.272,239.65332,390.23193,239.69922Zm-.06445-.41211a.05078.05078,0,0,0-.08154,0,.86157.86157,0,0,0,0,.36035.05078.05078,0,0,0,.08154,0,.88382.88382,0,0,0,0-.36035Z" style="fill:#fff"/><path d="M390.30469,239.85547v-.05859h.34863v.05859Z" style="fill:#fff"/><path d="M390.895,239.71289a.13265.13265,0,0,1-.17334,0,.11323.11323,0,0,1-.03418-.08984v-.31153a.11323.11323,0,0,1,.03418-.08984.13265.13265,0,0,1,.17334,0,.11486.11486,0,0,1,.03418.08984v.31153A.11486.11486,0,0,1,390.895,239.71289Zm-.04688-.4043c0-.03125-.01757-.04687-.03955-.04687a.04119.04119,0,0,0-.04052.04687v.31739a.04076.04076,0,0,0,.04052.04638c.022,0,.03955-.01513.03955-.04638Z" style="fill:#fff"/><path d="M391.145,239.52686h-.05078v.21191h-.08545v-.54346h.13623c.09863,0,.13965.05127.13965.165C391.28467,239.47021,391.24805,239.52686,391.145,239.52686Zm.002-.2544h-.05273v.17725h.05273c.04541,0,.05225-.04053.05225-.08838C391.19922,239.313,391.19238,239.27246,391.147,239.27246Z" style="fill:#fff"/><path d="M391.55469,239.71289a.13265.13265,0,0,1-.17334,0,.15782.15782,0,0,1-.03565-.12744.19462.19462,0,0,1,.01563-.09619.09738.09738,0,0,1,.03222-.03418.09324.09324,0,0,1-.02978-.03369.17163.17163,0,0,1-.01465-.08448.15147.15147,0,0,1,.03516-.11621.12717.12717,0,0,1,.167,0,.14962.14962,0,0,1,.03516.11621.17214.17214,0,0,1-.01416.08448.098.098,0,0,1-.02979.03369.10058.10058,0,0,1,.03174.03418.18856.18856,0,0,1,.01611.09619A.15958.15958,0,0,1,391.55469,239.71289Zm-.05762-.21143a.03744.03744,0,0,0-.02881-.01318.03948.03948,0,0,0-.02978.01318.26071.26071,0,0,0,0,.15772.03784.03784,0,0,0,.02978.01318.03591.03591,0,0,0,.02881-.01318.14167.14167,0,0,0,.01221-.07764A.139.139,0,0,0,391.49707,239.50146Zm-.00293-.229a.03188.03188,0,0,0-.02588-.01074.03461.03461,0,0,0-.02685.01074.12169.12169,0,0,0-.01123.06787c0,.02686-.001.05762.01367.07129a.03486.03486,0,0,0,.02441.00879.034.034,0,0,0,.02442-.00879c.01464-.01367.01318-.04443.01318-.07129A.11727.11727,0,0,0,391.49414,239.27246Z" style="fill:#fff"/><line x1="398.05226" y1="239.48156" x2="392.55243" y2="239.48156" style="fill:none;stroke:#ec1c24;stroke-miterlimit:10;stroke-width:0.25px"/><path d="M455.68719,199.07718a.39586.39586,0,0,0-.38782-.38784.38667.38667,0,0,0-.38831.38784.39593.39593,0,0,0,.38831.38781.406.406,0,0,0,.38782-.38781" style="fill:#ec1c24"/><rect x="460.03841" y="198.46217" width="6.39565" height="1.22999" rx="0.615" style="fill:#ec1c24"/><path d="M460.708,198.86768v.4663h-.08594v-.4663h-.09082v-.07715h.26758v.07715Z" style="fill:#fff"/><path d="M460.999,199.12207h-.05078v.21191h-.085v-.54345h.13574c.09864,0,.13965.05127.13965.165C461.13867,199.06543,461.10254,199.12207,460.999,199.12207Zm.002-.25439h-.05274v.17724h.05274c.0459,0,.05273-.04053.05273-.08838C461.05371,198.9082,461.04688,198.86768,461.001,198.86768Z" style="fill:#fff"/><path d="M461.40918,199.30859a.12452.12452,0,0,1-.08691.03174.12792.12792,0,0,1-.08789-.03222.11321.11321,0,0,1-.03418-.08985V199.186h.08105v.03515a.04086.04086,0,0,0,.041.04639.0347.0347,0,0,0,.02832-.01367.1498.1498,0,0,0,.01269-.08008.14548.14548,0,0,0-.01172-.07959.03589.03589,0,0,0-.03027-.01367H461.294v-.06787h.02734a.03237.03237,0,0,0,.02539-.01075.10814.10814,0,0,0,.0127-.06836.11792.11792,0,0,0-.01075-.06445.03253.03253,0,0,0-.02636-.01221c-.02149,0-.03711.01465-.03711.04395v.03808h-.08106v-.0332a.12105.12105,0,0,1,.20117-.09082.15021.15021,0,0,1,.03516.11328.18588.18588,0,0,1-.01367.08594.08706.08706,0,0,1-.03028.03223.10442.10442,0,0,1,.03125.03271.1918.1918,0,0,1,.01661.1001C461.44434,199.2373,461.44336,199.27539,461.40918,199.30859Z" style="fill:#fff"/><path d="M461.7168,199.30811a.12547.12547,0,0,1-.08692.03222.12719.12719,0,0,1-.08691-.03222.11321.11321,0,0,1-.03418-.08985v-.31152a.11321.11321,0,0,1,.03418-.08985.12491.12491,0,0,1,.08691-.03222.12326.12326,0,0,1,.08692.03222.11662.11662,0,0,1,.03418.08985v.31152A.11662.11662,0,0,1,461.7168,199.30811Zm-.04688-.4043c0-.03125-.01758-.04688-.04-.04688-.02148,0-.04.01563-.04.04688v.31738a.04069.04069,0,0,0,.04.04639c.02246,0,.04-.01514.04-.04639Z" style="fill:#fff"/><path d="M462.02441,199.30811a.12543.12543,0,0,1-.08691.03222.12719.12719,0,0,1-.08691-.03222.11321.11321,0,0,1-.03418-.08985v-.31152a.11321.11321,0,0,1,.03418-.08985.12491.12491,0,0,1,.08691-.03222.12322.12322,0,0,1,.08691.03222.11658.11658,0,0,1,.03418.08985v.31152A.11658.11658,0,0,1,462.02441,199.30811Zm-.04687-.4043c0-.03125-.01758-.04688-.04-.04688-.02148,0-.04.01563-.04.04688v.31738a.04069.04069,0,0,0,.04.04639c.02246,0,.04-.01514.04-.04639Z" style="fill:#fff"/><path d="M462.332,199.30664a.13183.13183,0,0,1-.17383.002.11433.11433,0,0,1-.03418-.09033v-.02685h.08106v.03711c0,.0332.01758.04736.04.04736a.03383.03383,0,0,0,.03027-.01416.23417.23417,0,0,0,.01172-.103.21779.21779,0,0,0-.01074-.09619.03373.03373,0,0,0-.03125-.01709.04139.04139,0,0,0-.04.04688v.01123h-.07715v-.313h.23437v.07275h-.16015v.14551a.10984.10984,0,0,1,.02832-.02588.08255.08255,0,0,1,.03906-.00977.08592.08592,0,0,1,.07324.03272.25012.25012,0,0,1,.02539.145C462.36816,199.22266,462.36719,199.27051,462.332,199.30664Z" style="fill:#fff"/><path d="M462.668,198.86768v.15429h.123v.07715h-.123v.23486h-.085v-.54345h.22754v.07715Z" style="fill:#fff"/><path d="M463.01367,199.34033a.13129.13129,0,0,1-.10547-.0459c-.04-.04589-.03906-.125-.03906-.23193s-.001-.186.03906-.23193a.145.145,0,0,1,.20215-.00928.161.161,0,0,1,.042.11377h-.085c-.001-.03076-.00781-.07324-.05371-.07324a.04333.04333,0,0,0-.04.0205.84092.84092,0,0,0,0,.36036.0443.0443,0,0,0,.04.0205c.03711,0,.05371-.03222.05371-.06933v-.085h-.05371v-.07032h.13867v.15039A.13452.13452,0,0,1,463.01367,199.34033Z" style="fill:#fff"/><path d="M463.18652,199.45068v-.05859h.34864v.05859Z" style="fill:#fff"/><path d="M463.81055,199.30322a.14957.14957,0,0,1-.10645.03614.1415.1415,0,0,1-.10449-.03614.14779.14779,0,0,1-.03516-.1167h.085a.08328.08328,0,0,0,.01563.061.04989.04989,0,0,0,.03906.01465.05214.05214,0,0,0,.042-.01514.09189.09189,0,0,0,.01368-.06055c0-.05761-.00879-.07226-.05079-.08886l-.06445-.02686c-.05566-.02295-.07617-.05273-.07617-.13672a.14726.14726,0,0,1,.04492-.11523.13561.13561,0,0,1,.09277-.03272.13768.13768,0,0,1,.09766.03272.15524.15524,0,0,1,.03809.11816h-.08594a.08684.08684,0,0,0-.0127-.05762.044.044,0,0,0-.03808-.01611.04338.04338,0,0,0-.03613.01514.07757.07757,0,0,0-.01465.05371c0,.04394.00683.05762.04492.07324l.06445.02588c.06446.02637.082.061.082.15234A.15463.15463,0,0,1,463.81055,199.30322Z" style="fill:#fff"/><path d="M464.166,199.28906a.1324.1324,0,0,1-.10547.04492h-.1377v-.54345h.1377a.13111.13111,0,0,1,.10547.04541c.04.04492.03906.12207.03906.22656S464.20605,199.24414,464.166,199.28906Zm-.06446-.39892a.04765.04765,0,0,0-.043-.02246h-.05078v.38916h.05078a.04835.04835,0,0,0,.043-.022.39394.39394,0,0,0,.01856-.17334A.382.382,0,0,0,464.10156,198.89014Z" style="fill:#fff"/><path d="M464.49707,199.334l-.02246-.10742h-.126l-.02148.10742h-.08985l.13379-.54345h.083l.13184.54345Zm-.085-.4121-.04688.22753h.09375Z" style="fill:#fff"/><path d="M464.59277,199.45068v-.05859h.34864v.05859Z" style="fill:#fff"/><path d="M465.07813,199.334v-.44873l-.082.0625v-.0913l.082-.06592h.08105v.54345Z" style="fill:#fff"/><path d="M465.43262,199.12207h-.05078v.21191h-.085v-.54345h.13574c.09863,0,.13965.05127.13965.165C465.57227,199.06543,465.53613,199.12207,465.43262,199.12207Zm.002-.25439h-.05273v.17724h.05273c.0459,0,.05273-.04053.05273-.08838C465.4873,198.9082,465.48047,198.86768,465.43457,198.86768Z" style="fill:#fff"/><path d="M465.84277,199.30811a.12272.12272,0,0,1-.08691.03222.12437.12437,0,0,1-.08691-.03222.15775.15775,0,0,1-.03516-.12745.19478.19478,0,0,1,.01562-.09619.09759.09759,0,0,1,.03223-.03418.09009.09009,0,0,1-.03027-.03369.17734.17734,0,0,1-.01465-.08447.15144.15144,0,0,1,.03516-.11621.11492.11492,0,0,1,.084-.03125.11264.11264,0,0,1,.083.03125.14775.14775,0,0,1,.03515.11621.17825.17825,0,0,1-.01367.08447.09926.09926,0,0,1-.03027.03369.10725.10725,0,0,1,.03222.03418.19465.19465,0,0,1,.01563.09619A.16133.16133,0,0,1,465.84277,199.30811Zm-.05761-.21143a.03772.03772,0,0,0-.0293-.01318.03924.03924,0,0,0-.0293.01318.14258.14258,0,0,0-.01269.08008.13777.13777,0,0,0,.01269.07763.03759.03759,0,0,0,.0293.01319.03622.03622,0,0,0,.0293-.01319.14683.14683,0,0,0,.01172-.07763A.14369.14369,0,0,0,465.78516,199.09668Zm-.00293-.229a.03772.03772,0,0,0-.05274,0,.11727.11727,0,0,0-.01172.06787c0,.02685-.001.05761.01368.07129a.03567.03567,0,0,0,.02441.00879.034.034,0,0,0,.02441-.00879c.01465-.01368.01368-.04444.01368-.07129A.11727.11727,0,0,0,465.78223,198.86768Z" style="fill:#fff"/><line x1="455.35392" y1="199.07717" x2="460.05313" y2="199.07717" style="fill:#fff;stroke:#ec1c24;stroke-miterlimit:10;stroke-width:0.25px"/></svg>