<svg xmlns="http://www.w3.org/2000/svg" viewBox="0 0 841.88976 595.27559"><title>LCD Light</title><path d="M454.404,194.14176a.36994.36994,0,1,1,.37.36995.36977.36977,0,0,1-.37-.36995" style="fill:#b8b8b8"/><path d="M451.91759,194.14176a.37.37,0,1,1,.36995.36995.36976.36976,0,0,1-.36995-.36995" style="fill:#b8b8b8"/><path d="M449.43115,194.14176a.37.37,0,1,1,.37.36995.36976.36976,0,0,1-.37-.36995" style="fill:#b8b8b8"/><path d="M448.18793,194.14176a.36995.36995,0,1,1,.37.36995.37008.37008,0,0,1-.37-.36995" style="fill:#b8b8b8"/><path d="M446.94471,194.14176a.37.37,0,1,1,.37.36995.3701.3701,0,0,1-.37-.36995" style="fill:#b8b8b8"/><path d="M454.774,183.32282a.36971.36971,0,1,1,.36992-.36947.36971.36971,0,0,1-.36992.36947" style="fill:#b8b8b8"/><path d="M454.774,184.566a.36971.36971,0,1,1,.36992-.37.36979.36979,0,0,1-.36992.37" style="fill:#b8b8b8"/><path d="M454.774,185.8092a.36994.36994,0,1,1,.36992-.36992.36977.36977,0,0,1-.36992.36992" style="fill:#b8b8b8"/><path d="M454.774,188.29564a.36994.36994,0,1,1,.36992-.36995.36977.36977,0,0,1-.36992.36995" style="fill:#b8b8b8"/><path d="M454.774,189.53886a.36994.36994,0,1,1,.36992-.36995.36979.36979,0,0,1-.36992.36995" style="fill:#b8b8b8"/><path d="M454.774,190.78208a.37.37,0,1,1,.36992-.37.36979.36979,0,0,1-.36992.37" style="fill:#b8b8b8"/><path d="M454.774,192.02527a.37.37,0,1,1,.36992-.37.3701.3701,0,0,1-.36992.37" style="fill:#b8b8b8"/><path d="M454.774,193.26849a.37.37,0,1,1,.36992-.37.36977.36977,0,0,1-.36992.37" style="fill:#b8b8b8"/><path d="M453.53073,184.566a.36971.36971,0,1,1,.36947-.37.36979.36979,0,0,1-.36947.37" style="fill:#b8b8b8"/><path d="M453.53073,185.8092a.36994.36994,0,1,1,.36947-.36992.36977.36977,0,0,1-.36947.36992" style="fill:#b8b8b8"/><path d="M453.53073,187.05242a.36994.36994,0,1,1,.36947-.36992.36977.36977,0,0,1-.36947.36992" style="fill:#b8b8b8"/><path d="M453.53073,190.78208a.37.37,0,1,1,.36947-.37.36979.36979,0,0,1-.36947.37" style="fill:#b8b8b8"/><path d="M452.28754,190.78208a.37.37,0,1,1,.37-.37.36977.36977,0,0,1-.37.37" style="fill:#b8b8b8"/><path d="M451.04432,183.32282a.36971.36971,0,1,1,.36995-.36947.36969.36969,0,0,1-.36995.36947" style="fill:#b8b8b8"/><path d="M451.04432,184.566a.36971.36971,0,1,1,.36995-.37.36977.36977,0,0,1-.36995.37" style="fill:#b8b8b8"/><path d="M451.04432,185.8092a.36994.36994,0,1,1,.36995-.36992.36975.36975,0,0,1-.36995.36992" style="fill:#b8b8b8"/><path d="M451.04432,187.05242a.36994.36994,0,1,1,.36995-.36992.36975.36975,0,0,1-.36995.36992" style="fill:#b8b8b8"/><path d="M451.04432,188.29564a.36994.36994,0,1,1,.36995-.36995.36976.36976,0,0,1-.36995.36995" style="fill:#b8b8b8"/><path d="M449.8011,183.32282a.36971.36971,0,1,1,.36995-.36947.3697.3697,0,0,1-.36995.36947" style="fill:#b8b8b8"/><path d="M449.8011,188.29564a.36994.36994,0,1,1,.36995-.36995.36976.36976,0,0,1-.36995.36995" style="fill:#b8b8b8"/><path d="M449.8011,192.02527a.36995.36995,0,1,1,.36995-.37.37009.37009,0,0,1-.36995.37" style="fill:#b8b8b8"/><path d="M449.8011,193.26849a.36995.36995,0,1,1,.36995-.37.36976.36976,0,0,1-.36995.37" style="fill:#b8b8b8"/><path d="M448.55788,183.32282a.36971.36971,0,1,1,.36995-.36947.37.37,0,0,1-.36995.36947" style="fill:#b8b8b8"/><path d="M448.55788,184.566a.36971.36971,0,1,1,.36995-.37.3701.3701,0,0,1-.36995.37" style="fill:#b8b8b8"/><path d="M448.55788,185.8092a.36994.36994,0,1,1,.36995-.36992.37008.37008,0,0,1-.36995.36992" style="fill:#b8b8b8"/><path d="M448.55788,190.78208a.37.37,0,1,1,.36995-.37.3701.3701,0,0,1-.36995.37" style="fill:#b8b8b8"/><path d="M448.55788,193.26849a.36995.36995,0,1,1,.36995-.37.37008.37008,0,0,1-.36995.37" style="fill:#b8b8b8"/><path d="M447.31466,190.78208a.37.37,0,1,1,.37-.37.37012.37012,0,0,1-.37.37" style="fill:#b8b8b8"/><path d="M447.31466,192.02527a.36995.36995,0,1,1,.37-.37.37043.37043,0,0,1-.37.37" style="fill:#b8b8b8"/><path d="M447.31466,193.26849a.36995.36995,0,1,1,.37-.37.3701.3701,0,0,1-.37.37" style="fill:#b8b8b8"/><path d="M445.76917,194.14176a.37.37,0,1,1,.37.36995.36978.36978,0,0,1-.37-.36995" style="fill:#b8b8b8"/><path d="M444.526,194.14176a.36995.36995,0,1,1,.36995.36995.36978.36978,0,0,1-.36995-.36995" style="fill:#b8b8b8"/><path d="M443.28276,194.14176a.36995.36995,0,1,1,.37.36995.37008.37008,0,0,1-.37-.36995" style="fill:#b8b8b8"/><path d="M446.13912,184.566a.36971.36971,0,1,1,.37-.37.3698.3698,0,0,1-.37.37" style="fill:#b8b8b8"/><path d="M446.24721,185.8092a.36994.36994,0,1,1,.36992-.36992.37006.37006,0,0,1-.36992.36992" style="fill:#b8b8b8"/><path d="M446.13912,188.29564a.36994.36994,0,1,1,.37-.36995.36978.36978,0,0,1-.37.36995" style="fill:#b8b8b8"/><path d="M446.13912,189.53886a.36994.36994,0,1,1,.37-.36995.3698.3698,0,0,1-.37.36995" style="fill:#b8b8b8"/><path d="M446.13912,193.26849a.36995.36995,0,1,1,.37-.37.36978.36978,0,0,1-.37.37" style="fill:#b8b8b8"/><path d="M444.8959,183.32282a.36971.36971,0,1,1,.37-.36947.36972.36972,0,0,1-.37.36947" style="fill:#b8b8b8"/><path d="M444.8959,184.566a.36971.36971,0,1,1,.37-.37.3698.3698,0,0,1-.37.37" style="fill:#b8b8b8"/><path d="M444.8959,188.29564a.36994.36994,0,1,1,.37-.36995.36978.36978,0,0,1-.37.36995" style="fill:#b8b8b8"/><path d="M444.8959,189.53886a.36994.36994,0,1,1,.37-.36995.3698.3698,0,0,1-.37.36995" style="fill:#b8b8b8"/><path d="M444.8959,190.78208a.37.37,0,1,1,.37-.37.3698.3698,0,0,1-.37.37" style="fill:#b8b8b8"/><path d="M444.8959,192.02527a.36995.36995,0,1,1,.37-.37.37011.37011,0,0,1-.37.37" style="fill:#b8b8b8"/><path d="M444.8959,193.26849a.36995.36995,0,1,1,.37-.37.36978.36978,0,0,1-.37.37" style="fill:#b8b8b8"/><path d="M443.65271,183.32282a.36971.36971,0,1,1,.36995-.36947.37.37,0,0,1-.36995.36947" style="fill:#b8b8b8"/><path d="M443.65271,188.29564a.36994.36994,0,1,1,.36995-.36995.37008.37008,0,0,1-.36995.36995" style="fill:#b8b8b8"/><path d="M443.65271,189.53886a.36994.36994,0,1,1,.36995-.36995.3701.3701,0,0,1-.36995.36995" style="fill:#b8b8b8"/><path d="M443.65271,190.78208a.37.37,0,1,1,.36995-.37.3701.3701,0,0,1-.36995.37" style="fill:#b8b8b8"/><path d="M443.65271,192.02527a.36995.36995,0,1,1,.36995-.37.37041.37041,0,0,1-.36995.37" style="fill:#b8b8b8"/><path d="M443.65271,193.26849a.36995.36995,0,1,1,.36995-.37.37008.37008,0,0,1-.36995.37" style="fill:#b8b8b8"/><path d="M453.16078,194.14176a.36971.36971,0,1,1,.37.36995.36977.36977,0,0,1-.37-.36995" style="fill:#b8b8b8"/><path d="M453.53073,192.02527a.37.37,0,1,1,.36947-.37.3701.3701,0,0,1-.36947.37" style="fill:#b8b8b8"/><path d="M453.53073,193.26849a.37.37,0,1,1,.36947-.37.36977.36977,0,0,1-.36947.37" style="fill:#b8b8b8"/><path d="M450.67437,194.14176a.36995.36995,0,1,1,.37.36995.36976.36976,0,0,1-.37-.36995" style="fill:#b8b8b8"/><path d="M451.04432,193.26849a.36995.36995,0,1,1,.36995-.37.36976.36976,0,0,1-.36995.37" style="fill:#b8b8b8"/><path d="M449.8011,187.05242a.36994.36994,0,1,1,.36995-.36992.36976.36976,0,0,1-.36995.36992" style="fill:#b8b8b8"/><path d="M446.13912,187.05242a.36994.36994,0,1,1,.37-.36992.36977.36977,0,0,1-.37.36992" style="fill:#b8b8b8"/><path d="M444.8959,187.05242a.36994.36994,0,1,1,.37-.36992.36977.36977,0,0,1-.37.36992" style="fill:#b8b8b8"/><path d="M443.65271,187.05242a.36994.36994,0,1,1,.36995-.36992.37008.37008,0,0,1-.36995.36992" style="fill:#b8b8b8"/><path d="M443.65271,184.566a.36971.36971,0,1,1,.36995-.37.3701.3701,0,0,1-.36995.37" style="fill:#b8b8b8"/><path d="M446.13912,190.78208a.37.37,0,1,1,.37-.37.3698.3698,0,0,1-.37.37" style="fill:#b8b8b8"/><path d="M448.55788,192.02527a.36995.36995,0,1,1,.36995-.37.37008.37008,0,0,1-.36995.37" style="fill:#b8b8b8"/><path d="M453.53073,188.29564a.36994.36994,0,1,1,.36947-.36995.36977.36977,0,0,1-.36947.36995" style="fill:#b8b8b8"/><path d="M453.53073,189.53886a.36994.36994,0,1,1,.36947-.36995.36979.36979,0,0,1-.36947.36995" style="fill:#b8b8b8"/><path d="M453.53073,183.32282a.36971.36971,0,1,1,.36947-.37.36981.36981,0,0,1-.36947.37" style="fill:#b8b8b8"/><path d="M452.28754,183.32282a.36971.36971,0,1,1,.37-.37.36979.36979,0,0,1-.37.37" style="fill:#b8b8b8"/><path d="M449.8011,185.8092a.36994.36994,0,1,1,.36995-.36992.36976.36976,0,0,1-.36995.36992" style="fill:#b8b8b8"/><path d="M449.8011,184.566a.36971.36971,0,1,1,.36995-.37.36978.36978,0,0,1-.36995.37" style="fill:#b8b8b8"/><path d="M449.8011,190.78208a.37.37,0,1,1,.36995-.37.36978.36978,0,0,1-.36995.37" style="fill:#b8b8b8"/><path d="M446.13912,183.32282a.36971.36971,0,1,1,.37-.36947.36972.36972,0,0,1-.37.36947" style="fill:#b8b8b8"/><path d="M443.65271,185.8092a.36994.36994,0,1,1,.36995-.36992.37008.37008,0,0,1-.36995.36992" style="fill:#b8b8b8"/><path d="M443.65271,185.8092a.36994.36994,0,1,1,.36995-.36992.37008.37008,0,0,1-.36995.36992" style="fill:#b8b8b8"/><path d="M452.28754,192.02527a.36995.36995,0,1,1,.37-.37.37041.37041,0,0,1-.37.37" style="fill:#b8b8b8"/><path d="M454.774,187.05242a.36994.36994,0,1,1,.36992-.36992.36977.36977,0,0,1-.36992.36992" style="fill:#b8b8b8"/><path d="M448.55788,187.05242a.36994.36994,0,1,1,.36995-.36992.36977.36977,0,0,1-.36995.36992" style="fill:#b8b8b8"/><path d="M452.28754,189.53886a.36994.36994,0,1,1,.37-.36995.36977.36977,0,0,1-.37.36995" style="fill:#b8b8b8"/><path d="M448.55788,189.53886a.36994.36994,0,1,1,.36995-.36995.3701.3701,0,0,1-.36995.36995" style="fill:#b8b8b8"/><path d="M447.31466,189.53886a.36994.36994,0,1,1,.37-.36995.37012.37012,0,0,1-.37.36995" style="fill:#b8b8b8"/><path d="M449.8011,189.53886a.36994.36994,0,1,1,.36995-.36995.36978.36978,0,0,1-.36995.36995" style="fill:#b8b8b8"/><path d="M447.31466,183.32282a.36971.36971,0,1,1,.37-.36947.37.37,0,0,1-.37.36947" style="fill:#b8b8b8"/><path d="M447.31466,184.566a.36971.36971,0,1,1,.37-.37.37012.37012,0,0,1-.37.37" style="fill:#b8b8b8"/><path d="M447.31466,185.8092a.36994.36994,0,1,1,.37-.36992.37009.37009,0,0,1-.37.36992" style="fill:#b8b8b8"/><path d="M447.31466,188.29564a.36994.36994,0,1,1,.37-.36995.3701.3701,0,0,1-.37.36995" style="fill:#b8b8b8"/><path d="M452.28754,184.566a.36971.36971,0,1,1,.37-.37.36977.36977,0,0,1-.37.37" style="fill:#b8b8b8"/><path d="M452.28754,185.8092a.36994.36994,0,1,1,.37-.36992.36975.36975,0,0,1-.37.36992" style="fill:#b8b8b8"/><path d="M452.28754,187.05242a.36994.36994,0,1,1,.37-.36992.36975.36975,0,0,1-.37.36992" style="fill:#b8b8b8"/><path d="M452.28754,188.29564a.36994.36994,0,1,1,.37-.36995.36976.36976,0,0,1-.37.36995" style="fill:#b8b8b8"/><path d="M813.10059,520.903l-.11188-.19378A49.19432,49.19432,0,0,0,770.38519,496.112h-543.342v99.16357H770.1615a49.58177,49.58177,0,0,0,42.93909-24.79083v-.00006A49.5817,49.5817,0,0,0,813.10059,520.903Z" style="fill:#d0d2d3"/><path d="M177.33984,496.112h-102.53a49.58144,49.58144,0,0,0-42.939,24.791h-.00006a49.58158,49.58158,0,0,0,0,49.58154h.00006a49.58145,49.58145,0,0,0,42.939,24.791H227.04315V496.112Z" style="fill:#292c31"/><path d="M41.98389,547.93945a2.77051,2.77051,0,1,1,2.771-2.77148A2.77081,2.77081,0,0,1,41.98389,547.93945Z" style="fill:#fff"/><path d="M49.83789,550.8457V538.74414h5.08252v1.7168H51.7417v3.43359h2.73682v1.7168H51.7417v3.51758h3.17871v1.71679Z" style="fill:#fff"/><path d="M56.56982,550.8457V538.74414h1.90381v10.38477h3.17871v1.71679Z" style="fill:#fff"/><path d="M63.08105,550.8457V538.74414h5.08252v1.7168H64.98486v3.43359h2.73682v1.7168H64.98486v3.51758h3.17871v1.71679Z" style="fill:#fff"/><path d="M74.81055,550.2168a2.91847,2.91847,0,0,1-2.09082.76562,2.88725,2.88725,0,0,1-2.34571-1.01953c-.90136-1.01953-.88427-2.77148-.88427-5.15039,0-2.38086-.01709-4.166.88427-5.18555a3.21964,3.21964,0,0,1,4.45313-.23828,3.63487,3.63487,0,0,1,.96924,2.55078H73.89258a2.31219,2.31219,0,0,0-.28906-1.17382.93608.93608,0,0,0-.88379-.44141.97544.97544,0,0,0-.90088.459c-.35694.57813-.4253,1.80274-.4253,4.01172s.06836,3.4336.4253,4.01172a.97542.97542,0,0,0,.90088.459.96539.96539,0,0,0,.90088-.44141,2.38,2.38,0,0,0,.28906-1.19141h1.90381A3.62928,3.62928,0,0,1,74.81055,550.2168Z" style="fill:#fff"/><path d="M80.67529,540.46094V550.8457H78.77148V540.46094H76.74854v-1.7168h5.9663v1.7168Z" style="fill:#fff"/><path d="M88.64844,550.8457l-1.58106-4.96289h-1.0708v4.96289H84.09277V538.74414h3.05957c2.21,0,3.09375,1.07031,3.09375,3.56836,0,1.49609-.30615,2.56641-1.41113,3.16211l1.80225,5.37109Zm-1.479-10.38476H85.99658V544.166h1.17285c1.02,0,1.17286-.84961,1.17286-1.85352C88.34229,541.31055,88.18945,540.46094,87.16943,540.46094Z" style="fill:#fff"/><path d="M92.21875,550.8457V538.74414h1.90381V550.8457Z" style="fill:#fff"/><path d="M101.16016,550.2168a2.91848,2.91848,0,0,1-2.09082.76562,2.88725,2.88725,0,0,1-2.34571-1.01953c-.90136-1.01953-.88427-2.77148-.88427-5.15039,0-2.38086-.01709-4.166.88427-5.18555a3.21964,3.21964,0,0,1,4.45313-.23828,3.63487,3.63487,0,0,1,.96924,2.55078h-1.90381a2.31219,2.31219,0,0,0-.28906-1.17382.93608.93608,0,0,0-.88379-.44141.97544.97544,0,0,0-.90088.459c-.35694.57813-.4253,1.80274-.4253,4.01172s.06836,3.4336.4253,4.01172a.97542.97542,0,0,0,.90088.459.96536.96536,0,0,0,.90087-.44141,2.37988,2.37988,0,0,0,.28907-1.19141h1.90381A3.62928,3.62928,0,0,1,101.16016,550.2168Z" style="fill:#fff"/><path d="M108.60547,550.8457l-.49268-2.39648h-2.80468l-.47608,2.39648h-2.00586l2.97461-12.10156h1.853l2.94043,12.10156Zm-1.88672-9.17773-1.03662,5.06445h2.07373Z" style="fill:#fff"/><path d="M111.71729,550.8457V538.74414h1.9038v10.38477h3.17871v1.71679Z" style="fill:#fff"/><path d="M126.26855,550.2168a2.91845,2.91845,0,0,1-2.09082.76562,2.88723,2.88723,0,0,1-2.3457-1.01953c-.90137-1.01953-.88428-2.77148-.88428-5.15039,0-2.38086-.01709-4.166.88428-5.18555a3.21964,3.21964,0,0,1,4.45313-.23828,3.63486,3.63486,0,0,1,.96923,2.55078h-1.9038a2.31209,2.31209,0,0,0-.28907-1.17382.93606.93606,0,0,0-.88379-.44141.97543.97543,0,0,0-.90087.459c-.35694.57813-.4253,1.80274-.4253,4.01172s.06836,3.4336.4253,4.01172a.97542.97542,0,0,0,.90087.459.96536.96536,0,0,0,.90088-.44141,2.37988,2.37988,0,0,0,.28907-1.19141h1.9038A3.62924,3.62924,0,0,1,126.26855,550.2168Z" style="fill:#fff"/><path d="M134.12207,549.96289a3.20823,3.20823,0,0,1-4.69141,0c-.90136-1.01953-.88427-2.78906-.88427-5.168s-.01709-4.14844.88427-5.168a3.20823,3.20823,0,0,1,4.69141,0c.90088,1.01953.88379,2.78907.88379,5.168S135.023,548.94336,134.12207,549.96289Zm-1.42773-9.17969a1.00578,1.00578,0,0,0-.918-.459.97544.97544,0,0,0-.90088.459c-.35694.57813-.42529,1.80274-.42529,4.01172s.06835,3.4336.42529,4.01172a.97542.97542,0,0,0,.90088.459,1.00577,1.00577,0,0,0,.918-.459c.35693-.57812.40771-1.80273.40771-4.01172S133.05127,541.36133,132.69434,540.7832Z" style="fill:#fff"/><path d="M136.72363,550.8457V538.74414h1.90381v10.38477h3.17871v1.71679Z" style="fill:#fff"/><path d="M148.48682,549.96289a3.20823,3.20823,0,0,1-4.69141,0c-.90088-1.01953-.88428-2.78906-.88428-5.168s-.0166-4.14844.88428-5.168a3.20823,3.20823,0,0,1,4.69141,0c.90088,1.01953.88379,2.78907.88379,5.168S149.3877,548.94336,148.48682,549.96289Zm-1.42774-9.17969a1.00577,1.00577,0,0,0-.918-.459.97546.97546,0,0,0-.90088.459c-.35693.57813-.42529,1.80274-.42529,4.01172s.06836,3.4336.42529,4.01172a.97544.97544,0,0,0,.90088.459,1.00576,1.00576,0,0,0,.918-.459c.35694-.57812.40772-1.80273.40772-4.01172S147.416,541.36133,147.05908,540.7832Z" style="fill:#fff"/><path d="M155.64355,550.8457l-1.58056-4.96289h-1.0708v4.96289h-1.90381V538.74414H154.148c2.21,0,3.09375,1.07031,3.09375,3.56836,0,1.49609-.30615,2.56641-1.41113,3.16211l1.80224,5.37109ZM154.165,540.46094h-1.17285V544.166H154.165c1.02,0,1.17285-.84961,1.17285-1.85352C155.33789,541.31055,155.18506,540.46094,154.165,540.46094Z" style="fill:#fff"/><path d="M162.25684,550.8457V538.74414h1.9038v10.38477h3.17872v1.71679Z" style="fill:#fff"/><path d="M168.76807,550.8457V538.74414h5.08252v1.7168h-3.17871v3.43359h2.73681v1.7168h-2.73681v3.51758h3.17871v1.71679Z" style="fill:#fff"/><path d="M178.40625,550.98242a2.88721,2.88721,0,0,1-2.3457-1.01953c-.90137-1.01953-.88428-2.78906-.88428-5.168s-.01709-4.14844.88428-5.168a2.88724,2.88724,0,0,1,2.3457-1.01953,2.93677,2.93677,0,0,1,2.15869.81641A3.72505,3.72505,0,0,1,181.5,541.957h-1.90381c-.01709-.68164-.17041-1.63281-1.18994-1.63281a.97545.97545,0,0,0-.90088.459c-.35693.57813-.42529,1.80274-.42529,4.01172s.06836,3.4336.42529,4.01172a.97543.97543,0,0,0,.90088.459c.81592,0,1.18994-.71485,1.18994-1.54688V545.832h-1.18994v-1.56445H181.5v3.34961C181.5,549.80859,180.208,550.98242,178.40625,550.98242Z" style="fill:#fff"/><path d="M183.23438,550.8457V538.74414h5.08251v1.7168h-3.17871v3.43359H187.875v1.7168h-2.73682v3.51758h3.17871v1.71679Z" style="fill:#fff"/><path d="M194.72559,550.8457l-2.85547-7.18945v7.18945h-1.90381V538.74414H191.666l2.83886,7.18945v-7.18945h1.90381V550.8457Z" style="fill:#fff"/><path d="M203.87158,549.84375a2.90812,2.90812,0,0,1-2.3457,1.00195h-3.07666V538.74414h3.07666a2.90815,2.90815,0,0,1,2.3457,1.00195c.90088,1.00391.88379,2.72071.88379,5.04883S204.77246,548.83984,203.87158,549.84375Zm-1.42773-8.89062a1.10023,1.10023,0,0,0-.96924-.49219H200.353v8.668h1.12158a1.10026,1.10026,0,0,0,.96924-.49219c.35693-.56055.40771-1.75195.40771-3.85938S202.80078,541.51367,202.44385,540.95313Z" style="fill:#fff"/><path d="M212.28613,547.93945a2.77051,2.77051,0,1,1,2.771-2.77148A2.77081,2.77081,0,0,1,212.28613,547.93945Z" style="fill:#fff"/><line x1="227.04314" y1="528.68593" x2="816.73589" y2="528.68593" style="fill:none;stroke:#fff;stroke-miterlimit:10;stroke-width:0.25px"/><line x1="227.04314" y1="511.75465" x2="806.36379" y2="511.75465" style="fill:none;stroke:#fff;stroke-miterlimit:10;stroke-width:0.25px"/><line x1="227.04314" y1="545.6172" x2="819.7426" y2="545.6172" style="fill:none;stroke:#fff;stroke-miterlimit:10;stroke-width:0.25px"/><line x1="227.04314" y1="562.62508" x2="816.76375" y2="562.62508" style="fill:none;stroke:#fff;stroke-miterlimit:10;stroke-width:0.25px"/><line x1="227.04314" y1="579.63295" x2="806.30755" y2="579.63295" style="fill:none;stroke:#fff;stroke-miterlimit:10;stroke-width:0.25px"/><path d="M647.92613,42.57769a21.29,21.29,0,0,0,0-42.5799H197.04533a21.29,21.29,0,1,0,0,42.5799Z" style="fill:#292c31"/><path d="M345.61426,25.31543a3.14182,3.14182,0,0,1-2.22461.75293,3.01165,3.01165,0,0,1-2.209-.75293,3.14458,3.14458,0,0,1-.73632-2.44824h1.792a1.81056,1.81056,0,0,0,.32031,1.28027,1.08648,1.08648,0,0,0,.833.30371,1.053,1.053,0,0,0,.86426-.32031,1.82663,1.82663,0,0,0,.30371-1.26367c0-1.2168-.19239-1.52051-1.07227-1.873l-1.36035-.56055c-1.15234-.47949-1.585-1.10449-1.585-2.86523a3.1112,3.1112,0,0,1,.92871-2.417,2.86814,2.86814,0,0,1,1.95215-.6875,2.82348,2.82348,0,0,1,2.04883.6875,3.25372,3.25372,0,0,1,.80078,2.48144h-1.793a1.88993,1.88993,0,0,0-.27246-1.21679.94257.94257,0,0,0-.79981-.33594.95851.95851,0,0,0-.76855.32031,1.7028,1.7028,0,0,0-.30371,1.12012c0,.92871.14355,1.21679.94433,1.53711l1.34473.54394c1.36035.56055,1.72852,1.28028,1.72852,3.20117A3.24862,3.24862,0,0,1,345.61426,25.31543Z" style="fill:#fff"/><path d="M352.47852,25.95605l-.46485-2.25683h-2.64062l-.44825,2.25683h-1.88867l2.80078-11.39648H351.582l2.76856,11.39648Zm-1.77735-8.64355-.97558,4.76953h1.95214Z" style="fill:#fff"/><path d="M361.26172,25.95605V18.84961L359.71,23.52344h-.99316l-1.52051-4.59375v7.02636h-1.793V14.55957h1.61719l2.209,5.98633,2.19239-5.98633h1.63281V25.95605Z" style="fill:#fff"/><path d="M369.74121,25.31543a3.14182,3.14182,0,0,1-2.22461.75293,3.01162,3.01162,0,0,1-2.209-.75293,3.14458,3.14458,0,0,1-.73633-2.44824h1.792a1.81056,1.81056,0,0,0,.32031,1.28027,1.08648,1.08648,0,0,0,.833.30371,1.053,1.053,0,0,0,.86426-.32031,1.82658,1.82658,0,0,0,.30371-1.26367c0-1.2168-.19238-1.52051-1.07227-1.873l-1.36035-.56055c-1.15234-.47949-1.585-1.10449-1.585-2.86523a3.1112,3.1112,0,0,1,.92871-2.417,2.86818,2.86818,0,0,1,1.95215-.6875,2.82347,2.82347,0,0,1,2.04883.6875,3.25372,3.25372,0,0,1,.80078,2.48144h-1.793A1.88987,1.88987,0,0,0,368.332,16.416a.94255.94255,0,0,0-.7998-.33594.95851.95851,0,0,0-.76856.32031,1.7028,1.7028,0,0,0-.30371,1.12012c0,.92871.14356,1.21679.94434,1.53711l1.34472.54394c1.36036.56055,1.72852,1.28028,1.72852,3.20117A3.24862,3.24862,0,0,1,369.74121,25.31543Z" style="fill:#fff"/><path d="M376.97363,25.252a2.83773,2.83773,0,0,1-2.11328.832,2.87343,2.87343,0,0,1-2.1289-.832,2.94464,2.94464,0,0,1-.78418-2.09668v-8.5957h1.793V23.251a1.09448,1.09448,0,0,0,1.12012,1.21679,1.08353,1.08353,0,0,0,1.10449-1.21679V14.55957h1.793v8.5957A2.94464,2.94464,0,0,1,376.97363,25.252Z" style="fill:#fff"/><path d="M384.06152,25.95605l-2.68945-6.7705v6.7705h-1.793V14.55957h1.60156l2.67286,6.77051V14.55957h1.792V25.95605Z" style="fill:#fff"/><path d="M390.2998,26.084a2.7223,2.7223,0,0,1-2.209-.96c-.84766-.96093-.832-2.625-.832-4.86621s-.01563-3.90527.832-4.86621a2.72233,2.72233,0,0,1,2.209-.96,2.76334,2.76334,0,0,1,2.03321.76856,3.49977,3.49977,0,0,1,.87988,2.38476h-1.792c-.0166-.64062-.16016-1.53711-1.1211-1.53711a.915.915,0,0,0-.84765.43262c-.33692.54394-.40039,1.69629-.40039,3.77734s.06347,3.2334.40039,3.77735a.91691.91691,0,0,0,.84765.43261c.76856,0,1.1211-.67285,1.1211-1.457V21.23438h-1.1211V19.76172h2.91309V22.915C393.21289,24.97949,391.99707,26.084,390.2998,26.084Z" style="fill:#fff"/><path d="M402.47656,25.31543a3.14179,3.14179,0,0,1-2.22461.75293,3.01162,3.01162,0,0,1-2.209-.75293,3.14458,3.14458,0,0,1-.73633-2.44824h1.792a1.81056,1.81056,0,0,0,.32032,1.28027,1.08644,1.08644,0,0,0,.833.30371,1.053,1.053,0,0,0,.86426-.32031,1.82145,1.82145,0,0,0,.30371-1.26367c0-1.2168-.19238-1.52051-1.07226-1.873l-1.36036-.56055c-1.15234-.47949-1.585-1.10449-1.585-2.86523a3.1112,3.1112,0,0,1,.92871-2.417,2.86818,2.86818,0,0,1,1.95215-.6875,2.82347,2.82347,0,0,1,2.04883.6875,3.25372,3.25372,0,0,1,.80078,2.48144h-1.793a1.88987,1.88987,0,0,0-.27246-1.21679.94255.94255,0,0,0-.7998-.33594.95851.95851,0,0,0-.76856.32031,1.70286,1.70286,0,0,0-.30371,1.12012c0,.92871.14356,1.21679.94434,1.53711l1.34473.54394c1.36035.56055,1.72851,1.28028,1.72851,3.20117A3.24862,3.24862,0,0,1,402.47656,25.31543Z" style="fill:#fff"/><path d="M410.63672,25.95605V18.84961L409.085,23.52344h-.99316l-1.52051-4.59375v7.02636h-1.793V14.55957h1.61719l2.209,5.98633,2.19239-5.98633h1.63281V25.95605Z" style="fill:#fff"/><path d="M414.1377,22.14648V20.53027h3.23339v1.61621Z" style="fill:#fff"/><path d="M423.62891,25.95605l-.46485-2.25683h-2.64062l-.44824,2.25683h-1.88868l2.80078-11.39648h1.74512L425.501,25.95605Zm-1.77735-8.64355L420.876,22.082h1.95215Z" style="fill:#fff"/><path d="M430.62012,25.37988a2.55313,2.55313,0,0,1-1.8086.7041,2.62786,2.62786,0,0,1-1.82519-.65625,2.4311,2.4311,0,0,1-.7207-1.90429v-.56055h1.69726v.78418c0,.68848.36816.99219.84863.99219a.68955.68955,0,0,0,.624-.30371,4.72442,4.72442,0,0,0,.25586-2.16114,4.6245,4.6245,0,0,0-.22364-2.0166.73176.73176,0,0,0-.65625-.35254.86358.86358,0,0,0-.84863.97657v.24023H426.3457v-6.5625h4.91407v1.52051h-3.36133V19.1377a2.1259,2.1259,0,0,1,.59277-.54493,1.76762,1.76762,0,0,1,.81641-.208,1.78576,1.78576,0,0,1,1.53613.68847c.48047.5918.54395,1.64844.54395,3.041C431.3877,23.61914,431.37207,24.62793,430.62012,25.37988Z" style="fill:#fff"/><path d="M432.76172,25.95605V24.51563l2.84961-5.53809a4.44051,4.44051,0,0,0,.46387-2.0332c0-.65625-.35157-.99219-.81641-.99219-.46387,0-.84766.32031-.84766.97656V17.665h-1.69726v-.67285a2.39048,2.39048,0,0,1,.7041-1.88867,2.71491,2.71491,0,0,1,1.84082-.67188,2.48731,2.48731,0,0,1,1.76074.6084,2.56911,2.56911,0,0,1,.75293,1.96875,5.765,5.765,0,0,1-.625,2.49707l-2.57617,4.92969h3.20117v1.5205Z" style="fill:#fff"/><path d="M443.45117,25.41211a2.60291,2.60291,0,0,1-1.80859.67187,2.64317,2.64317,0,0,1-1.8252-.67187,2.39641,2.39641,0,0,1-.7207-1.88867V16.99219a2.39639,2.39639,0,0,1,.7207-1.88867,2.64317,2.64317,0,0,1,1.8252-.67188,2.60291,2.60291,0,0,1,1.80859.67188,2.396,2.396,0,0,1,.71973,1.88867v6.53125A2.396,2.396,0,0,1,443.45117,25.41211Zm-.97656-8.4834c0-.65625-.36816-.97656-.832-.97656a.85488.85488,0,0,0-.84863.97656v6.6582a.85489.85489,0,0,0,.84863.97657c.46387,0,.832-.32032.832-.97657Z" style="fill:#fff"/><path d="M448.249,24.99609v-1.873l3.25-1.84082-3.25-1.84082V17.585l5.33008,3.10449V21.874Z" style="fill:#fff"/><path d="M457.8252,25.95605V15.98242h1.56835V24.541h2.61915v1.415Z" style="fill:#fff"/><path d="M467.31934,25.4375a2.40941,2.40941,0,0,1-1.72364.63086,2.379,2.379,0,0,1-1.93261-.84082c-.74219-.83984-.72852-2.2832-.72852-4.24414s-.01367-3.43164.72852-4.27246a2.65169,2.65169,0,0,1,3.66992-.19629,2.99346,2.99346,0,0,1,.79883,2.10156H466.5625a1.89827,1.89827,0,0,0-.23828-.9668.77109.77109,0,0,0-.72852-.36425.80445.80445,0,0,0-.74218.37793c-.29395.47656-.34961,1.48535-.34961,3.30664,0,1.82031.05566,2.8291.34961,3.30566a.80447.80447,0,0,0,.74218.37793.79536.79536,0,0,0,.74317-.36426,1.9507,1.9507,0,0,0,.2373-.98047h1.56934A2.9912,2.9912,0,0,1,467.31934,25.4375Z" style="fill:#fff"/><path d="M473.94043,25.12988a2.396,2.396,0,0,1-1.93262.82617h-2.53515V15.98242h2.53515a2.39355,2.39355,0,0,1,1.93262.82715c.74219.82617.72852,2.24121.72852,4.16016S474.68262,24.30273,473.94043,25.12988Zm-1.17676-7.32617a.9048.9048,0,0,0-.79785-.40625h-.9248V24.541h.9248a.9048.9048,0,0,0,.79785-.40625c.29492-.46192.33692-1.44239.33692-3.17969C473.10059,19.21875,473.05859,18.26563,472.76367,17.80371Z" style="fill:#fff"/><path d="M478.61426,25.95605V15.98242h1.56836V24.541h2.61914v1.415Z" style="fill:#fff"/><path d="M483.99023,25.95605V15.98242h1.56836v9.97363Z" style="fill:#fff"/><path d="M489.64746,26.06836a2.37908,2.37908,0,0,1-1.93262-.84082c-.74218-.83984-.72851-2.29688-.72851-4.25781s-.01367-3.418.72851-4.25879a2.37908,2.37908,0,0,1,1.93262-.84082,2.42024,2.42024,0,0,1,1.7793.67285,3.06869,3.06869,0,0,1,.77051,2.08691h-1.56934c-.01367-.56054-.13965-1.34472-.98047-1.34472a.80448.80448,0,0,0-.74219.37793c-.29394.47656-.34961,1.48535-.34961,3.30664,0,1.82031.05567,2.8291.34961,3.30566a.8045.8045,0,0,0,.74219.37793c.67285,0,.98047-.58789.98047-1.27441V21.82422h-.98047V20.53516h2.54981v2.75976A2.4714,2.4714,0,0,1,489.64746,26.06836Z" style="fill:#fff"/><path d="M497.15234,25.95605V21.58594h-1.94726v4.37011h-1.56836V15.98242h1.56836v4.20215h1.94726V15.98242h1.56836v9.97363Z" style="fill:#fff"/><path d="M503.10156,17.39746v8.55859h-1.56933V17.39746h-1.667v-1.415h4.917v1.415Z" style="fill:#fff"/><polyline points="392.055 137.953 367.393 137.813 367.393 210.731 391.761 210.871 391.761 207.84" style="fill:none;stroke:#fff800;stroke-linejoin:round;stroke-width:0.25px"/><polyline points="392.055 138.95 366.035 138.95 366.035 212.051 394.25 212.051 394.25 205.307" style="fill:none;stroke:#b4ff22;stroke-linejoin:round;stroke-width:0.25px"/><path d="M396.97638,120.86541a.33837.33837,0,1,1,.33836.33838.33894.33894,0,0,1-.33836-.33838" style="fill:#ff1a77;fill-rule:evenodd"/><path d="M407.6304,201.44763a.33879.33879,0,1,1,.33837.33918.33828.33828,0,0,1-.33837-.33918" style="fill:#ff1a77;fill-rule:evenodd"/><path d="M406.1044,201.44763a.33836.33836,0,1,1,.33836.33918.33773.33773,0,0,1-.33836-.33918" style="fill:#ff1a77;fill-rule:evenodd"/><path d="M405.29147,203.88719a.33837.33837,0,1,1,.33836.33836.33826.33826,0,0,1-.33836-.33836" style="fill:#ff1a77;fill-rule:evenodd"/><path d="M407.59065,203.88719a.33879.33879,0,1,1,.33921.33836.339.339,0,0,1-.33921-.33836" style="fill:#ff1a77;fill-rule:evenodd"/><path d="M402.813,203.88719a.33879.33879,0,1,1,.33836.33836.33826.33826,0,0,1-.33836-.33836" style="fill:#ff1a77;fill-rule:evenodd"/><path d="M399.66029,203.88719a.33879.33879,0,1,1,.33921.33836.33844.33844,0,0,1-.33921-.33836" style="fill:#ff1a77;fill-rule:evenodd"/><path d="M396.20984,203.88719a.33879.33879,0,1,1,.33836.33836.33826.33826,0,0,1-.33836-.33836" style="fill:#ff1a77;fill-rule:evenodd"/><path d="M393.90983,203.88719a.33879.33879,0,1,1,.33921.33836.339.339,0,0,1-.33921-.33836" style="fill:#ff1a77;fill-rule:evenodd"/><polyline points="394.249 203.887 407.969 203.887 407.969 201.463 405.494 201.463 405.494 198.925 411.663 198.925 411.663 120.868 397.315 120.868 397.315 125.812 399.802 125.812 399.802 130.637 397.681 130.637 397.681 131.688" style="fill:none;stroke:#ff1a77;stroke-linejoin:round;stroke-width:0.25px"/><path d="M394.993,120.865a.33837.33837,0,1,1,.33837.33839.33828.33828,0,0,1-.33837-.33839" style="fill:#ff50ce;fill-rule:evenodd"/><path d="M376.48588,206.47566a.33837.33837,0,1,1,.33836.33838.339.339,0,0,1-.33836-.33838" style="fill:#ff50ce;fill-rule:evenodd"/><path d="M376.48588,208.0976a.33837.33837,0,1,1,.33836.33918.33828.33828,0,0,1-.33836-.33918" style="fill:#ff50ce;fill-rule:evenodd"/><path d="M377.91292,207.47976a.33837.33837,0,1,1,.33836.33838.33824.33824,0,0,1-.33836-.33838" style="fill:#ff50ce;fill-rule:evenodd"/><path d="M380.31867,207.47976a.33837.33837,0,1,1,.33836.33838.33825.33825,0,0,1-.33836-.33838" style="fill:#ff50ce;fill-rule:evenodd"/><path d="M381.64,204.67774a.33837.33837,0,1,1,.33837.33835.33827.33827,0,0,1-.33837-.33835" style="fill:#ff50ce;fill-rule:evenodd"/><path d="M378.626,204.67774a.33879.33879,0,1,1,.33921.33835.33845.33845,0,0,1-.33921-.33835" style="fill:#ff50ce;fill-rule:evenodd"/><path d="M375.03091,204.67774a.33879.33879,0,1,1,.33921.33835.339.339,0,0,1-.33921-.33835" style="fill:#ff50ce;fill-rule:evenodd"/><path d="M384.40653,204.001a.33836.33836,0,1,1,.33835.33836.33824.33824,0,0,1-.33835-.33836" style="fill:#ff50ce;fill-rule:evenodd"/><polyline points="384.745 204.001 381.993 204.001 381.993 205.661 380.657 205.661 380.657 207.48 378.251 207.48 378.251 206.476 376.824 206.476 376.824 210.013 368.709 210.013 368.709 115.849 395.32 115.849 395.341 120.865 395.331 120.865 395.331 126.065 390.634 126.065 390.634 130.61 392.055 130.61 392.055 131.661" style="fill:none;stroke:#ff50ce;stroke-linejoin:round;stroke-width:0.25px"/><polyline points="375.37 204.678 375.37 205.662 380.657 205.662" style="fill:none;stroke:#ff50ce;stroke-linejoin:round;stroke-width:0.25px"/><line x1="378.96522" y1="204.67774" x2="378.96522" y2="205.66152" style="fill:none;stroke:#ff50ce;stroke-linejoin:round;stroke-width:0.25px"/><path d="M392.416,119.83131a.33837.33837,0,1,1,.33836.33921.33774.33774,0,0,1-.33836-.33921" style="fill:#ff0098;fill-rule:evenodd"/><path d="M398.284,172.7283a.33879.33879,0,1,1,.33921.33833.33971.33971,0,0,1-.33921-.33833" style="fill:#ff0098;fill-rule:evenodd"/><path d="M399.728,172.7283a.33837.33837,0,1,1,.33837.33833.339.339,0,0,1-.33837-.33833" style="fill:#ff0098;fill-rule:evenodd"/><path d="M399.728,174.16382a.33837.33837,0,1,1,.33837.33833.339.339,0,0,1-.33837-.33833" style="fill:#ff0098;fill-rule:evenodd"/><path d="M399.728,176.43166a.33837.33837,0,1,1,.33837.33838.33824.33824,0,0,1-.33837-.33838" style="fill:#ff0098;fill-rule:evenodd"/><path d="M396.1667,187.66948a.33836.33836,0,1,1,.33836.33839.33828.33828,0,0,1-.33836-.33839" style="fill:#ff0098;fill-rule:evenodd"/><path d="M396.1667,190.85774a.33836.33836,0,1,1,.33836.33838.339.339,0,0,1-.33836-.33838" style="fill:#ff0098;fill-rule:evenodd"/><path d="M396.1667,194.10939a.33836.33836,0,1,1,.33836.33836.339.339,0,0,1-.33836-.33836" style="fill:#ff0098;fill-rule:evenodd"/><path d="M391.422,198.38611a.33879.33879,0,1,1,.33921.33838.339.339,0,0,1-.33921-.33838" style="fill:#ff0098;fill-rule:evenodd"/><polyline points="392.052 132.73 389.97 132.73 389.97 125.227 392.754 125.227 392.754 117.226 370.1 117.226 370.1 172.728 400.066 172.728 400.066 181.025 396.476 181.025 396.476 194.109 392.718 194.109 392.714 198.394 391.757 198.394" style="fill:none;stroke:#ff0098;stroke-linejoin:round;stroke-width:0.25px"/><path d="M384.76367,204.15967a.08242.08242,0,0,1-.05762.02051.08359.08359,0,0,1-.05761-.021.07539.07539,0,0,1-.02246-.05957v-.021h.05371v.023c0,.021.01172.03076.02636.03076a.02372.02372,0,0,0,.019-.00878.09877.09877,0,0,0,.00879-.05323.0937.0937,0,0,0-.0083-.05224.023.023,0,0,0-.02-.00879H384.688v-.04492h.01758a.02019.02019,0,0,0,.01709-.00733.0707.0707,0,0,0,.0083-.04492.0729.0729,0,0,0-.00733-.04248.0211.0211,0,0,0-.01758-.0083c-.01367,0-.02392.00976-.02392.02881v.02539h-.05371v-.022a.07642.07642,0,0,1,.02246-.05908.07752.07752,0,0,1,.05517-.021.07561.07561,0,0,1,.05518.0205.0982.0982,0,0,1,.02295.07422.12352.12352,0,0,1-.00879.05713.05873.05873,0,0,1-.02.021.06915.06915,0,0,1,.021.022.13086.13086,0,0,1,.01074.06592A.10522.10522,0,0,1,384.76367,204.15967Z" style="fill:#fefefe"/><path d="M391.422,207.84011a.33879.33879,0,1,1,.33921.33836.339.339,0,0,1-.33921-.33836" style="fill:#fff800;fill-rule:evenodd"/><path d="M391.78076,207.999a.08017.08017,0,0,1-.05713.021.081.081,0,0,1-.05713-.021.10317.10317,0,0,1-.02392-.084.12372.12372,0,0,1,.01074-.06348.06688.06688,0,0,1,.021-.023.06006.06006,0,0,1-.01953-.022.11611.11611,0,0,1-.00977-.05566.09937.09937,0,0,1,.02344-.07666.07475.07475,0,0,1,.05468-.02051.07631.07631,0,0,1,.05567.02051.09928.09928,0,0,1,.02295.07666.11664.11664,0,0,1-.00928.05566.06145.06145,0,0,1-.02.022.07391.07391,0,0,1,.02149.023.12992.12992,0,0,1,.01025.06348A.10478.10478,0,0,1,391.78076,207.999Zm-.03808-.13964a.024.024,0,0,0-.019-.00831.02577.02577,0,0,0-.01953.00831.09633.09633,0,0,0-.00781.05322.09784.09784,0,0,0,.00781.05127.0258.0258,0,0,0,.01953.0083.024.024,0,0,0,.019-.0083.16853.16853,0,0,0,0-.10449Zm-.002-.15088a.02077.02077,0,0,0-.01709-.00733.02249.02249,0,0,0-.01758.00733.08123.08123,0,0,0-.00732.04492c0,.01758-.00049.0376.00879.04687a.02337.02337,0,0,0,.01611.00586.02178.02178,0,0,0,.01612-.00586c.00976-.00927.00879-.02929.00879-.04687A.07672.07672,0,0,0,391.74072,207.7085Z"/><path d="M393.92421,205.30748a.33879.33879,0,1,1,.33836.33836.33828.33828,0,0,1-.33836-.33836" style="fill:#b4ff22;fill-rule:evenodd"/><path d="M394.2915,205.31738l-.063.165h-.05518l.05908-.145a.03811.03811,0,0,1-.022.00586.05811.05811,0,0,1-.04785-.022c-.0127-.0166-.01807-.03565-.01807-.08838a.13794.13794,0,0,1,.01758-.08447.07449.07449,0,0,1,.06348-.02881.07309.07309,0,0,1,.063.02881.13365.13365,0,0,1,.01758.08447A.242.242,0,0,1,394.2915,205.31738Zm-.04687-.14062a.02338.02338,0,0,0-.019-.00928.02433.02433,0,0,0-.01954.00928.11259.11259,0,0,0-.00781.05664.11556.11556,0,0,0,.00781.05713.025.025,0,0,0,.01954.00927.02337.02337,0,0,0,.019-.00927.10971.10971,0,0,0,.0083-.05713A.10778.10778,0,0,0,394.24463,205.17676Z"/><path d="M394.04541,204.062v-.2959l-.0542.041v-.06055l.0542-.043h.05322v.3584Z" style="fill:#fefefe"/><path d="M394.25488,204.04492a.08153.08153,0,0,1-.05713.021.08235.08235,0,0,1-.05712-.021.07553.07553,0,0,1-.02295-.05957v-.20556a.07516.07516,0,0,1,.02295-.05909.08235.08235,0,0,1,.05712-.021.08152.08152,0,0,1,.05713.021.075.075,0,0,1,.02246.05909v.20556A.07539.07539,0,0,1,394.25488,204.04492Zm-.03076-.26709c0-.02051-.01172-.03076-.02637-.03076s-.02636.01025-.02636.03076v.20947c0,.021.01172.03077.02636.03077s.02637-.00977.02637-.03077Z" style="fill:#fefefe"/><path d="M391.58691,198.56152v-.29589l-.0542.041v-.06055l.0542-.043h.05323v.35839Z" style="fill:#fefefe"/><path d="M391.7959,198.54492a.08243.08243,0,0,1-.05762.02051.08357.08357,0,0,1-.05762-.021.07539.07539,0,0,1-.02246-.05957v-.021h.05371v.023c0,.021.01172.03076.02637.03076a.02369.02369,0,0,0,.019-.00879.09864.09864,0,0,0,.00879-.05322.09363.09363,0,0,0-.0083-.05225.023.023,0,0,0-.02-.00879h-.01758v-.04492h.01758a.02016.02016,0,0,0,.01709-.00732.07072.07072,0,0,0,.0083-.04493.0738.0738,0,0,0-.00732-.04248.02112.02112,0,0,0-.01758-.0083c-.01367,0-.02392.00977-.02392.02881v.02539h-.05372v-.022a.07391.07391,0,0,1,.07764-.07959.07537.07537,0,0,1,.05518.02.09817.09817,0,0,1,.023.07422.12357.12357,0,0,1-.00879.05713.05879.05879,0,0,1-.02.021.06911.06911,0,0,1,.021.022.13074.13074,0,0,1,.01075.06592A.10521.10521,0,0,1,391.7959,198.54492Z" style="fill:#fefefe"/><path d="M397.34208,130.63689a.33879.33879,0,1,1,.33921.33838.33845.33845,0,0,1-.33921-.33838" style="fill:#ff1a77;fill-rule:evenodd"/><path d="M397.71582,130.75928v.05566h-.05322v-.05566H397.563v-.04785l.0918-.25489h.05224l-.08935.25489h.04492v-.064h.05322v.064h.0249v.04785Z" style="fill:#fefefe"/><path d="M397.34208,131.68751a.33879.33879,0,1,1,.33921.33838.33842.33842,0,0,1-.33921-.33838" style="fill:#ff1a77;fill-rule:evenodd"/><path d="M397.708,131.83838a.07358.07358,0,0,1-.064.02881.071.071,0,0,1-.0625-.02881.13082.13082,0,0,1-.01806-.084.25142.25142,0,0,1,.01465-.08447l.063-.165h.05518l-.05859.145a.03515.03515,0,0,1,.022-.00635.05762.05762,0,0,1,.04736.02247c.01318.0166.01807.03564.01807.08837A.13348.13348,0,0,1,397.708,131.83838Zm-.04444-.1416a.0221.0221,0,0,0-.019-.00928.0236.0236,0,0,0-.01953.00928.21107.21107,0,0,0,0,.11377.02458.02458,0,0,0,.01953.00879.02234.02234,0,0,0,.019-.00879.10689.10689,0,0,0,.00831-.05664A.1088.1088,0,0,0,397.66357,131.69678Z" style="fill:#fefefe"/><path d="M391.71664,130.61066a.33878.33878,0,1,1,.33836.33838.339.339,0,0,1-.33836-.33838" style="fill:#ff50ce;fill-rule:evenodd"/><path d="M392.0752,130.77051a.08243.08243,0,0,1-.05762.02051.08362.08362,0,0,1-.05762-.021.07539.07539,0,0,1-.02246-.05957v-.021h.05371v.023c0,.021.01172.03076.02637.03076a.0237.0237,0,0,0,.019-.00878.09877.09877,0,0,0,.00879-.05323.0937.0937,0,0,0-.0083-.05224.023.023,0,0,0-.02-.00879h-.01758v-.04492h.01758a.02019.02019,0,0,0,.01709-.00733.0707.0707,0,0,0,.0083-.04492.073.073,0,0,0-.00732-.04248.02112.02112,0,0,0-.01758-.0083c-.01367,0-.02393.00976-.02393.02881v.02539h-.05371v-.022a.07642.07642,0,0,1,.02246-.05908.07755.07755,0,0,1,.05518-.021.0756.0756,0,0,1,.05517.0205.09816.09816,0,0,1,.023.07422.12339.12339,0,0,1-.00879.05713.05873.05873,0,0,1-.02.021.069.069,0,0,1,.021.022.13075.13075,0,0,1,.01074.06592A.10521.10521,0,0,1,392.0752,130.77051Z" style="fill:#fefefe"/><path d="M391.71664,131.66128a.33878.33878,0,1,1,.33836.33838.33894.33894,0,0,1-.33836-.33838" style="fill:#ff50ce;fill-rule:evenodd"/><path d="M392.07471,131.81445a.08008.08008,0,0,1-.05713.022.082.082,0,0,1-.05713-.02051.0767.0767,0,0,1-.02295-.06006v-.01758h.05371v.0249c0,.02149.01123.03125.02637.03125a.02308.02308,0,0,0,.02-.00976.15247.15247,0,0,0,.00781-.06787.1497.1497,0,0,0-.00684-.06348.02327.02327,0,0,0-.021-.01123c-.01514,0-.02637.01123-.02637.03076v.00781h-.05127v-.20654h.15479v.04785h-.106v.09619a.06342.06342,0,0,1,.019-.01709.05076.05076,0,0,1,.02539-.00683.05547.05547,0,0,1,.04834.022.16083.16083,0,0,1,.01709.09522C392.09863,131.75879,392.09814,131.79053,392.07471,131.81445Z" style="fill:#fefefe"/><path d="M391.71664,132.72883a.33878.33878,0,1,1,.33836.33921.33828.33828,0,0,1-.33836-.33921" style="fill:#ff0098;fill-rule:evenodd"/><path d="M392.00293,132.9043h-.05371l.09424-.31055h-.0625v.04785h-.05127v-.0957h.167v.04443Z" style="fill:#fefefe"/><path d="M391.71664,137.95311a.33878.33878,0,1,1,.33836.33926.33879.33879,0,0,1-.33836-.33926" style="fill:#fff800;fill-rule:evenodd"/><path d="M391.94434,138.13232v-.29589l-.05469.041v-.06055l.05469-.043h.05273v.35839Z"/><path d="M392.14453,138.13232h-.05371l.09473-.31054h-.0625v.04785h-.05176v-.0957h.167v.04394Z"/><path d="M391.71664,138.95044a.33878.33878,0,1,1,.33836.33839.33845.33845,0,0,1-.33836-.33839" style="fill:#b4ff22;fill-rule:evenodd"/><path d="M391.94336,139.12549v-.2959l-.05469.041v-.06055l.05469-.043h.05273v.3584Z"/><path d="M392.2207,138.96045l-.0625.165h-.05566l.05957-.145a.04082.04082,0,0,1-.02246.00586.05877.05877,0,0,1-.04785-.022c-.0127-.01661-.01758-.03565-.01758-.08887a.13376.13376,0,0,1,.01758-.084.0842.0842,0,0,1,.126,0,.12977.12977,0,0,1,.01758.084A.245.245,0,0,1,392.2207,138.96045Zm-.04687-.14063a.02182.02182,0,0,0-.01856-.00927.02364.02364,0,0,0-.01953.00927.10742.10742,0,0,0-.00781.05664.11019.11019,0,0,0,.00781.05713.02365.02365,0,0,0,.01953.00928.02183.02183,0,0,0,.01856-.00928.10923.10923,0,0,0,.00879-.05713A.10732.10732,0,0,0,392.17383,138.81982Z"/><path d="M405.75419,193.73463a.33879.33879,0,1,1,.33921.33839.33914.33914,0,0,1-.33921-.33839" style="fill:#ff7398;fill-rule:evenodd"/><path d="M408.7047,193.73463a.33845.33845,0,1,1,.33854.33839.33846.33846,0,0,1-.33854-.33839" style="fill:#ff7398;fill-rule:evenodd"/><path d="M406.29641,196.664a.33837.33837,0,1,1,.33836.33836.33774.33774,0,0,1-.33836-.33836" style="fill:#ff7398;fill-rule:evenodd"/><path d="M381.57738,196.59547a.33879.33879,0,1,1,.33921.33836.339.339,0,0,1-.33921-.33836" style="fill:#ff7398;fill-rule:evenodd"/><path d="M375.37183,196.59547a.33878.33878,0,1,1,.33835.33836.33827.33827,0,0,1-.33835-.33836" style="fill:#ff7398;fill-rule:evenodd"/><path d="M371.94168,199.83024a.33878.33878,0,1,1,.33835.33836.33825.33825,0,0,1-.33835-.33836" style="fill:#ff7398;fill-rule:evenodd"/><path d="M371.94168,197.25275a.33878.33878,0,1,1,.33835.33835.33826.33826,0,0,1-.33835-.33835" style="fill:#ff7398;fill-rule:evenodd"/><path d="M390.43824,189.22509a.33878.33878,0,1,1,.33835.33926.33826.33826,0,0,1-.33835-.33926" style="fill:#ff7398;fill-rule:evenodd"/><path d="M393.61038,189.22509a.33878.33878,0,1,1,.33836.33926.33827.33827,0,0,1-.33836-.33926" style="fill:#ff7398;fill-rule:evenodd"/><path d="M390.43824,194.474a.33878.33878,0,1,1,.33835.33921.33824.33824,0,0,1-.33835-.33921" style="fill:#ff7398;fill-rule:evenodd"/><path d="M384.63363,194.474a.33837.33837,0,1,1,.33837.33921.33771.33771,0,0,1-.33837-.33921" style="fill:#ff7398;fill-rule:evenodd"/><polyline points="388.57 198.386 390.826 198.386 390.826 194.474 384.972 194.474 384.972 191.584 375.692 191.584 375.692 196.595" style="fill:none;stroke:#ff7398;stroke-linejoin:round;stroke-width:0.25px"/><polyline points="387.159 198.386 384.931 198.386 384.931 194.474" style="fill:none;stroke:#ff7398;stroke-linejoin:round;stroke-width:0.25px"/><path d="M388.2321,198.38611a.33879.33879,0,1,1,.33837.33838.33828.33828,0,0,1-.33837-.33838" style="fill:#ff7398;fill-rule:evenodd"/><path d="M388.396,198.56055v-.2959l-.0542.041v-.06054l.0542-.043h.05322v.3584Z" style="fill:#fefefe"/><path d="M388.605,198.54248a.08007.08007,0,0,1-.05713.022.082.082,0,0,1-.05713-.0205.07671.07671,0,0,1-.023-.06006v-.01758h.05371v.0249c0,.02149.01123.03125.02637.03125a.02169.02169,0,0,0,.01953-.00976.14421.14421,0,0,0,.0083-.06788.14988.14988,0,0,0-.00683-.06347.0233.0233,0,0,0-.021-.01123c-.01514,0-.02637.01123-.02637.03076v.00781h-.05127v-.20654h.15479V198.25h-.10547v.09619a.05644.05644,0,0,1,.01856-.01709.05073.05073,0,0,1,.02539-.00683.05547.05547,0,0,1,.04834.022.16087.16087,0,0,1,.01709.09521C388.62891,198.48682,388.62842,198.51855,388.605,198.54248Z" style="fill:#fefefe"/><path d="M386.82048,198.38611a.33836.33836,0,1,1,.33836.33838.33828.33828,0,0,1-.33836-.33838" style="fill:#ff7398;fill-rule:evenodd"/><path d="M386.98535,198.56152v-.29589l-.05469.041v-.06055l.05469-.043h.05274v.35839Z" style="fill:#fefefe"/><path d="M387.2002,198.53662a.07214.07214,0,0,1-.06348.02881.07041.07041,0,0,1-.0625-.02881.12743.12743,0,0,1-.01856-.084.26456.26456,0,0,1,.01465-.08448l.06348-.165h.05469l-.0586.145a.03571.03571,0,0,1,.02246-.00634.05734.05734,0,0,1,.04688.02246c.01367.0166.01855.03564.01855.08838A.13281.13281,0,0,1,387.2002,198.53662Zm-.04395-.1416a.0236.0236,0,0,0-.01953-.00928.02491.02491,0,0,0-.01953.00928.21107.21107,0,0,0,0,.11377.026.026,0,0,0,.01953.00879.02327.02327,0,0,0,.01953-.00879.10742.10742,0,0,0,.00781-.05664A.10934.10934,0,0,0,387.15625,198.395Z" style="fill:#fefefe"/><polyline points="384.745 200.898 384.745 199.016 381.916 199.016 381.916 196.595 374.185 196.595 374.185 199.817 372.28 199.817 372.28 197.253 370.497 197.253 370.497 189.223 393.949 189.223" style="fill:none;stroke:#ff7398;stroke-linejoin:round;stroke-width:0.25px"/><path d="M384.40653,200.89777a.33836.33836,0,1,1,.33835.33838.33826.33826,0,0,1-.33835-.33838" style="fill:#ff7398;fill-rule:evenodd"/><path d="M384.69482,201.07324v-.2959l-.05419.041v-.06055l.05419-.043h.05323v.3584Z" style="fill:#fefefe"/><path d="M393.90983,200.968a.33879.33879,0,1,1,.33921.33921.339.339,0,0,1-.33921-.33921" style="fill:#ff7398;fill-rule:evenodd"/><polyline points="410.521 189.223 410.521 193.735 406.093 193.735 406.093 195.404 406.597 195.404 406.597 196.664 394.25 196.664 394.25 200.968" style="fill:none;stroke:#ff7398;stroke-linejoin:round;stroke-width:0.25px"/><path d="M448.21952,185.35226a.33836.33836,0,1,1,.33836.33927.33828.33828,0,0,1-.33836-.33927" style="fill:#ff7398;fill-rule:evenodd"/><path d="M448.21952,184.10935a.33836.33836,0,1,1,.33836.33921.33829.33829,0,0,1-.33836-.33921" style="fill:#ff7398;fill-rule:evenodd"/><path d="M448.21952,182.867a.33836.33836,0,1,1,.33836.33833.339.339,0,0,1-.33836-.33833" style="fill:#ff7398;fill-rule:evenodd"/><path d="M457.98848,178.03126a.33877.33877,0,1,1,.33836.33921.33883.33883,0,0,1-.33836-.33921" style="fill:#ff7398;fill-rule:evenodd"/><path d="M452.87707,178.03126a.33877.33877,0,1,1,.33835.33921.33883.33883,0,0,1-.33835-.33921" style="fill:#ff7398;fill-rule:evenodd"/><path d="M460.14553,183.4095a.33878.33878,0,1,1,.33918.33926.339.339,0,0,1-.33918-.33926" style="fill:#ff7398;fill-rule:evenodd"/><path d="M462.0649,180.45983a.3388.3388,0,1,1,.33835.33838.33893.33893,0,0,1-.33835-.33838" style="fill:#ff7398;fill-rule:evenodd"/><polyline points="448.558 185.648 448.558 182.228 453.178 182.228 453.178 178.031 458.327 178.031 458.327 183.391 462.404 183.391 462.404 174.039 423.829 174.039 423.829 189.223 393.949 189.223" style="fill:none;stroke:#ff7398;stroke-linejoin:round;stroke-width:0.25px"/><path d="M394.07666,201.14648v-.29589l-.0542.041v-.06055l.0542-.043h.05322v.35839Z" style="fill:#fefefe"/><path d="M394.15137,201.14648v-.04541l.08984-.17431a.136.136,0,0,0,.01465-.064c0-.0205-.01123-.03125-.02588-.03125s-.02637.01026-.02637.03076v.02344h-.05371v-.021a.07539.07539,0,0,1,.02246-.05957.08482.08482,0,0,1,.05762-.02149.07849.07849,0,0,1,.05566.01953.08.08,0,0,1,.02344.062.1778.1778,0,0,1-.01953.07813l-.08105.15527h.10058v.04785Z" style="fill:#fefefe"/><rect x="361.04427" y="147.70351" width="9.98089" height="1.10307" rx="0.55154" transform="translate(217.77967 514.28977) rotate(-90)" style="fill:#b4ff22"/><rect x="362.4028" y="147.70351" width="9.98089" height="1.10307" rx="0.55154" transform="translate(219.1382 515.64829) rotate(-90)" style="fill:#fff800"/><path d="M366.3125,149.43213h-.67334v-.2832h.09522v.17724h.1914v-.15234h.09522v.15234h.1958v-.17724h.0957Z"/><path d="M366.3125,149.05615h-.67334v-.106h.57764V148.773h.0957Z"/><path d="M366.457,148.74854h-.07275v-.43213h.07275Z"/><path d="M366.26318,147.96533a.17892.17892,0,0,1,0,.26123c-.05664.0503-.15527.04932-.28759.04932s-.231.001-.2876-.04932a.17892.17892,0,0,1,0-.26123c.05664-.05029.15527-.04931.2876-.04931S366.20654,147.915,366.26318,147.96533Zm-.51074.07959a.05523.05523,0,0,0-.02539.05078.05385.05385,0,0,0,.02539.0503,1.0528,1.0528,0,0,0,.44629,0,.05323.05323,0,0,0,.02588-.0503.05456.05456,0,0,0-.02588-.05078,1.0963,1.0963,0,0,0-.44629,0Z"/><path d="M366.3125,147.5542l-.40039.15918h.40039v.106h-.67334v-.09473l.3999-.1582h-.3999v-.106h.67334Z"/><path d="M366.3125,147.35742h-.085l-.32764-.16846a.26146.26146,0,0,0-.12011-.02734c-.03858,0-.0586.02051-.0586.04834,0,.02734.019.04981.05762.04981h.04346v.10058h-.03956a.14287.14287,0,0,1-.11181-.0415.162.162,0,0,1-.03955-.10889.145.145,0,0,1,.03613-.104.15046.15046,0,0,1,.11621-.04492.34315.34315,0,0,1,.14746.0371l.29151.15235V147.061h.08984Z"/><path d="M367.67188,149.43213h-.67383v-.2832h.0957v.17724h.19141v-.15234h.09521v.15234h.1958v-.17724h.09571Z"/><path d="M367.67188,149.05615h-.67383v-.106h.57812V148.773h.09571Z"/><path d="M367.81641,148.749h-.07276v-.43213h.07276Z"/><path d="M367.62256,147.96533a.17788.17788,0,0,1,0,.26123c-.05664.04981-.15479.04932-.2876.04932a.4584.4584,0,0,1-.2876-.04932.17892.17892,0,0,1,0-.26123c.05713-.05029.15528-.04931.2876-.04931C367.46777,147.916,367.56592,147.915,367.62256,147.96533Zm-.51074.07959a.05523.05523,0,0,0-.02539.05078.05385.05385,0,0,0,.02539.0503,1.055,1.055,0,0,0,.44677,0,.0548.0548,0,0,0,.02539-.0503.05622.05622,0,0,0-.02539-.05078,1.09864,1.09864,0,0,0-.44677,0Z"/><path d="M367.67188,147.5542l-.4004.15918h.4004v.106h-.67383v-.09473l.40039-.1582h-.40039v-.106h.67383Z"/><path d="M367.67188,147.23438h-.55616l.07764.10107h-.11377l-.08154-.10107v-.1001h.67383Z"/><rect x="375.6942" y="115.2973" width="9.98089" height="1.10307" rx="0.55154" style="fill:#ff50ce"/><rect x="375.6942" y="116.67437" width="9.98089" height="1.10307" rx="0.55154" style="fill:#ff0098"/><path d="M378.67773,117.50342v-.67383h.28321v.0957h-.17725v.19141h.15235v.09521h-.15235v.1958h.17725v.09571Z" style="fill:#fefefe"/><path d="M379.05371,117.50342v-.67383h.106v.57812h.17724v.09571Z" style="fill:#fefefe"/><path d="M379.6875,117.50342l-.02734-.1333h-.15577l-.02685.1333h-.11133l.16553-.67383h.103l.16357.67383Zm-.105-.51074-.05762.28173h.11573Z" style="fill:#fefefe"/><path d="M380.06689,117.50342H379.957l-.14746-.67383h.11621l.08594.51123.0874-.51123h.11621Z" style="fill:#fefefe"/><path d="M380.5791,117.44775a.16092.16092,0,0,1-.13037.05567h-.17139v-.67383h.17139a.16112.16112,0,0,1,.13037.05615c.05029.05567.04932.15137.04932.28076C380.62842,117.29639,380.62939,117.3916,380.5791,117.44775Zm-.0791-.49511a.0622.0622,0,0,0-.0542-.02735h-.0625v.48242h.0625a.06221.06221,0,0,0,.0542-.02734.5073.5073,0,0,0,.02246-.21484A.49758.49758,0,0,0,380.5,116.95264Z" style="fill:#fefefe"/><path d="M381.02734,117.44775a.1609.1609,0,0,1-.13037.05567h-.17138v-.67383h.17138a.16111.16111,0,0,1,.13037.05615c.0503.05567.04932.15137.04932.28076C381.07666,117.29639,381.07764,117.3916,381.02734,117.44775Zm-.0791-.49511a.0622.0622,0,0,0-.0542-.02735h-.0625v.48242h.0625a.06221.06221,0,0,0,.0542-.02734.5073.5073,0,0,0,.02246-.21484A.49758.49758,0,0,0,380.94824,116.95264Z" style="fill:#fefefe"/><path d="M381.11768,117.648v-.07275h.43212v.07275Z" style="fill:#fefefe"/><path d="M381.72021,117.50342h-.10009l.17676-.5835h-.11719v.08985H381.583v-.18018h.314v.0835Z" style="fill:#fefefe"/><path d="M382.15869,117.24023h-.06348v.26319h-.106v-.67383h.16943c.12207,0,.17334.06348.17334.20459C382.332,117.17041,382.28662,117.24023,382.15869,117.24023Zm.002-.31494h-.06543v.21973h.06543c.05665,0,.06543-.05029.06543-.10986S382.21729,116.92529,382.16064,116.92529Z" style="fill:#fefefe"/><path d="M382.66553,117.47217a.15565.15565,0,0,1-.10791.03906.15843.15843,0,0,1-.1084-.04.13954.13954,0,0,1-.042-.11133v-.04h.10058v.04346c0,.03906.02246.05762.04981.05762a.04561.04561,0,0,0,.03613-.0166.19041.19041,0,0,0,.01611-.09961.17924.17924,0,0,0-.01513-.09815.04287.04287,0,0,0-.0376-.01709h-.0332V117.105h.0332a.03855.03855,0,0,0,.03174-.01318.24649.24649,0,0,0,.002-.16455.03937.03937,0,0,0-.0332-.01514c-.02539,0-.04492.01807-.04492.0542v.04687h-.10059v-.04052a.14506.14506,0,0,1,.0415-.11182.14721.14721,0,0,1,.104-.03857.14314.14314,0,0,1,.10351.03759.18643.18643,0,0,1,.04346.14014.2248.2248,0,0,1-.01709.10693.11174.11174,0,0,1-.03711.04.12357.12357,0,0,1,.03906.04053.23884.23884,0,0,1,.02051.124A.19535.19535,0,0,1,382.66553,117.47217Z" style="fill:#fefefe"/><path d="M378.89746,116.13232v-.67382h.2832v.0957h-.17724v.19141h.15234v.09521h-.15234v.1958h.17724v.0957Z" style="fill:#fefefe"/><path d="M379.27344,116.13232v-.67382h.106v.57812h.17725v.0957Z" style="fill:#fefefe"/><path d="M379.84229,116.13232h-.10987l-.14746-.67382h.11621l.08594.51123.0874-.51123h.11621Z" style="fill:#fefefe"/><path d="M380.35449,116.07666a.16091.16091,0,0,1-.13037.05566h-.17139v-.67382h.17139a.16112.16112,0,0,1,.13037.05615c.0503.05566.04932.15137.04932.28076C380.40381,115.92529,380.40479,116.02051,380.35449,116.07666Zm-.0791-.49512a.06221.06221,0,0,0-.0542-.02734h-.0625v.48242h.0625a.06221.06221,0,0,0,.0542-.02734.50732.50732,0,0,0,.02246-.21485A.4976.4976,0,0,0,380.27539,115.58154Z" style="fill:#fefefe"/><path d="M380.80273,116.07666a.1609.1609,0,0,1-.13037.05566H380.501v-.67382h.17138a.16111.16111,0,0,1,.13037.05615c.0503.05566.04932.15137.04932.28076C380.85205,115.92529,380.853,116.02051,380.80273,116.07666Zm-.0791-.49512a.06221.06221,0,0,0-.0542-.02734h-.0625v.48242h.0625a.06221.06221,0,0,0,.0542-.02734.50732.50732,0,0,0,.02246-.21485A.4976.4976,0,0,0,380.72363,115.58154Z" style="fill:#fefefe"/><path d="M380.89258,116.27686v-.07276h.43213v.07276Z" style="fill:#fefefe"/><path d="M381.63672,116.02734v.105h-.1001v-.105h-.187v-.08984l.17285-.479h.09766l-.16748.479h.084v-.12012h.1001v.12012h.04639v.08984Z" style="fill:#fefefe"/><path d="M381.93359,115.86914h-.06347v.26318h-.106v-.67382h.16943c.12207,0,.17334.06347.17334.20459C382.10693,115.79932,382.06152,115.86914,381.93359,115.86914Zm.002-.31494h-.06543v.21973h.06543c.05664,0,.06543-.0503.06543-.10987S381.99219,115.5542,381.93555,115.5542Z" style="fill:#fefefe"/><path d="M382.45313,116.08594a.14046.14046,0,0,1-.12012.0542.13556.13556,0,0,1-.11768-.0542.24823.24823,0,0,1-.03369-.15772.46484.46484,0,0,1,.02734-.15918l.11817-.31054h.104l-.11084.27246a.07342.07342,0,0,1,.042-.01123.10786.10786,0,0,1,.08887.0415c.02442.03125.03369.06738.03369.167A.25514.25514,0,0,1,382.45313,116.08594Zm-.0835-.2666a.0431.0431,0,0,0-.03613-.01709.044.044,0,0,0-.03662.01709.21074.21074,0,0,0-.01514.10791.20644.20644,0,0,0,.01514.10595.045.045,0,0,0,.03662.0166.04278.04278,0,0,0,.03613-.0166.20476.20476,0,0,0,.01514-.10595A.21085.21085,0,0,0,382.36963,115.81934Z" style="fill:#fefefe"/><rect x="378.4382" y="211.49946" width="9.98089" height="1.10307" rx="0.55154" style="fill:#b4ff22"/><rect x="378.4382" y="210.31946" width="9.98089" height="1.10307" rx="0.55154" style="fill:#fff800"/><path d="M382.252,212.32861v-.67334h.28321v.09522h-.17725v.1914h.15234v.09522h-.15234v.1958h.17725v.0957Z"/><path d="M382.62793,212.32861v-.67334h.106v.57764h.17724v.0957Z"/><path d="M382.93555,212.47314v-.07275h.43213v.07275Z"/><path d="M383.71875,212.2793a.17892.17892,0,0,1-.26123,0c-.05029-.05664-.04932-.15528-.04932-.2876s-.001-.231.04932-.2876a.17892.17892,0,0,1,.26123,0c.05029.05664.04932.15528.04932.2876S383.769,212.22266,383.71875,212.2793Zm-.07959-.51075a.05525.05525,0,0,0-.05078-.02539.05384.05384,0,0,0-.05029.02539,1.05237,1.05237,0,0,0,0,.44629.0532.0532,0,0,0,.05029.02588.05456.05456,0,0,0,.05078-.02588,1.0963,1.0963,0,0,0,0-.44629Z"/><path d="M384.12988,212.32861l-.15918-.40039v.40039h-.106v-.67334h.09472l.15821.39991v-.39991h.106v.67334Z"/><path d="M384.32666,212.32861v-.085l.16846-.32763a.2615.2615,0,0,0,.02734-.12012c0-.03858-.02051-.0586-.04834-.0586-.02734,0-.0498.019-.0498.05762v.04346h-.10059v-.03955a.14289.14289,0,0,1,.0415-.11182.162.162,0,0,1,.10889-.03955.145.145,0,0,1,.104.03613.15051.15051,0,0,1,.04492.11621.34324.34324,0,0,1-.03711.14747l-.15235.2915h.18946v.08984Z"/><path d="M382.25049,211.14941v-.67382h.2832v.0957h-.17724v.19141h.15234v.09521h-.15234v.1958h.17724v.0957Z"/><path d="M382.62646,211.14941v-.67382h.106v.57812h.17725v.0957Z"/><path d="M382.93359,211.294v-.07276h.43213v.07276Z"/><path d="M383.71729,211.1001a.17789.17789,0,0,1-.26124,0c-.0498-.05664-.04931-.15479-.04931-.2876a.45848.45848,0,0,1,.04931-.2876.17893.17893,0,0,1,.26124,0c.05029.05713.04931.15528.04931.2876C383.7666,210.94531,383.76758,211.04346,383.71729,211.1001Zm-.07959-.51074a.05525.05525,0,0,0-.05079-.0254.05385.05385,0,0,0-.05029.0254,1.055,1.055,0,0,0,0,.44677.05479.05479,0,0,0,.05029.02539.05624.05624,0,0,0,.05079-.02539,1.09911,1.09911,0,0,0,0-.44677Z"/><path d="M384.12842,211.14941l-.15918-.40039v.40039h-.106v-.67382h.09473l.1582.40039v-.40039h.106v.67382Z"/><path d="M384.44824,211.14941v-.55615l-.10107.07764v-.11377l.10107-.08154h.1001v.67382Z"/><rect x="363.71903" y="203.38473" width="9.98089" height="1.10307" rx="0.55154" transform="translate(164.77321 572.64574) rotate(-90)" style="fill:#ff50ce"/><rect x="378.43833" y="172.17547" width="9.98089" height="1.10307" rx="0.55154" style="fill:#ff0098"/><rect x="406.67247" y="182.26752" width="9.98089" height="1.10307" rx="0.55154" transform="translate(228.84386 594.48197) rotate(-90)" style="fill:#ff1a77"/><rect x="378.43833" y="188.67402" width="9.98089" height="1.10307" rx="0.55154" style="fill:#ff7398"/><path d="M381.41992,173.00439v-.67382h.28321v.0957h-.17725v.19141h.15234v.09521h-.15234v.1958h.17725v.0957Z" style="fill:#fefefe"/><path d="M381.7959,173.00439v-.67382h.106v.57812h.17724v.0957Z" style="fill:#fefefe"/><path d="M382.42969,173.00439l-.02735-.1333h-.15576l-.02685.1333h-.11133l.16553-.67382h.103l.16358.67382Zm-.105-.51074-.05762.28174h.11572Z" style="fill:#fefefe"/><path d="M382.80908,173.00439h-.10986l-.14746-.67382h.11621l.08594.51123.0874-.51123h.11621Z" style="fill:#fefefe"/><path d="M383.32129,172.94873a.16091.16091,0,0,1-.13037.05566h-.17139v-.67382h.17139a.16112.16112,0,0,1,.13037.05615c.05029.05566.04932.15137.04932.28076C383.37061,172.79736,383.37158,172.89258,383.32129,172.94873Zm-.0791-.49512a.06221.06221,0,0,0-.0542-.02734h-.0625v.48242h.0625a.06221.06221,0,0,0,.0542-.02734.50732.50732,0,0,0,.02246-.21485A.4976.4976,0,0,0,383.24219,172.45361Z" style="fill:#fefefe"/><path d="M383.76953,172.94873a.16091.16091,0,0,1-.13037.05566h-.17139v-.67382h.17139a.16112.16112,0,0,1,.13037.05615c.05029.05566.04932.15137.04932.28076C383.81885,172.79736,383.81982,172.89258,383.76953,172.94873Zm-.0791-.49512a.06221.06221,0,0,0-.0542-.02734h-.0625v.48242h.0625a.06221.06221,0,0,0,.0542-.02734.50732.50732,0,0,0,.02246-.21485A.4976.4976,0,0,0,383.69043,172.45361Z" style="fill:#fefefe"/><path d="M383.85986,173.14893v-.07276h.43213v.07276Z" style="fill:#fefefe"/><path d="M384.4624,173.00439h-.1001l.17676-.58349h-.11718v.08984h-.09668v-.18017h.314v.08349Z" style="fill:#fefefe"/><path d="M384.90088,172.74121h-.06348v.26318h-.106v-.67382h.16943c.12207,0,.17334.06347.17334.20459C385.07422,172.67139,385.02881,172.74121,384.90088,172.74121Zm.002-.31494h-.06543v.21973h.06543c.05664,0,.06543-.0503.06543-.10987S384.95947,172.42627,384.90283,172.42627Z" style="fill:#fefefe"/><path d="M385.40771,172.97314a.15557.15557,0,0,1-.10791.03907.15841.15841,0,0,1-.10839-.04.13954.13954,0,0,1-.042-.11133v-.04H385.25v.04346c0,.03906.02246.05762.0498.05762a.0456.0456,0,0,0,.03614-.01661.19037.19037,0,0,0,.01611-.09961.17916.17916,0,0,0-.01514-.09814.04286.04286,0,0,0-.03759-.01709h-.03321V172.606h.03321a.03852.03852,0,0,0,.03173-.01319.24641.24641,0,0,0,.002-.16455.03941.03941,0,0,0-.03321-.01513c-.02539,0-.04492.01806-.04492.0542v.04687h-.10058v-.04053a.145.145,0,0,1,.0415-.11181.14721.14721,0,0,1,.104-.03858.14313.14313,0,0,1,.10352.0376.18645.18645,0,0,1,.04346.14014.225.225,0,0,1-.01709.10693.11182.11182,0,0,1-.03711.04.12347.12347,0,0,1,.03906.04053.2388.2388,0,0,1,.02051.124A.19532.19532,0,0,1,385.40771,172.97314Z" style="fill:#fefefe"/><path d="M369.02441,205.72168h-.67382v-.2832h.0957v.17724h.19141v-.15234h.09472v.15234h.19629v-.17724h.0957Z" style="fill:#fefefe"/><path d="M369.02441,205.3457h-.67382v-.106h.57812v-.17725h.0957Z" style="fill:#fefefe"/><path d="M369.02441,204.77686v.10986l-.67382.14746V204.918l.51074-.08594-.51074-.0874v-.11621Z" style="fill:#fefefe"/><path d="M368.96875,204.26465a.16091.16091,0,0,1,.05566.13037v.17139h-.67382V204.395a.16091.16091,0,0,1,.05566-.13037c.05566-.05029.15137-.04932.28125-.04932S368.91211,204.21436,368.96875,204.26465Zm-.49512.0791a.06113.06113,0,0,0-.02734.0542v.0625h.48242v-.0625a.06335.06335,0,0,0-.02734-.0542.50874.50874,0,0,0-.21485-.02246A.4976.4976,0,0,0,368.47363,204.34375Z" style="fill:#fefefe"/><path d="M368.96875,203.81641a.1609.1609,0,0,1,.05566.13037v.17138h-.67382v-.17138a.1609.1609,0,0,1,.05566-.13037c.05566-.0503.15137-.04932.28125-.04932S368.91211,203.76611,368.96875,203.81641Zm-.49512.0791a.06113.06113,0,0,0-.02734.0542v.0625h.48242v-.0625a.06335.06335,0,0,0-.02734-.0542.50874.50874,0,0,0-.21485-.02246A.4976.4976,0,0,0,368.47363,203.89551Z" style="fill:#fefefe"/><path d="M369.169,203.72656h-.07325v-.43213h.07325Z" style="fill:#fefefe"/><path d="M368.919,202.98242h.10546v.1001H368.919v.187h-.08985l-.47851-.17285V202.999l.47851.16748v-.084H368.709v-.1001h.12012V202.936h.08985Z" style="fill:#fefefe"/><path d="M368.76074,202.68555v.06347h.26367v.106h-.67382v-.16943c0-.12207.06347-.17334.2041-.17334C368.69141,202.51221,368.76074,202.55762,368.76074,202.68555Zm-.31445-.002v.06543h.21973v-.06543c0-.05664-.05079-.06543-.11036-.06543S368.44629,202.627,368.44629,202.68359Z" style="fill:#fefefe"/><path d="M368.97754,202.166a.14077.14077,0,0,1,.05469.12011.13585.13585,0,0,1-.05469.11768.24575.24575,0,0,1-.15723.03369.46269.46269,0,0,1-.15918-.02734l-.31054-.11817v-.104l.27246.11084a.07021.07021,0,0,1-.01172-.042.10829.10829,0,0,1,.042-.08887c.03125-.02442.06738-.03369.167-.03369A.25325.25325,0,0,1,368.97754,202.166Zm-.2666.08349a.04269.04269,0,0,0-.0166.03613.04364.04364,0,0,0,.0166.03663.21288.21288,0,0,0,.1084.01513.20457.20457,0,0,0,.10546-.01513.04364.04364,0,0,0,.01661-.03663.04155.04155,0,0,0-.01661-.03613.20279.20279,0,0,0-.10546-.01513A.21288.21288,0,0,0,368.71094,202.24951Z" style="fill:#fefefe"/><path d="M382.84961,189.54h-.10986l-.14746-.67383h.11621l.08593.51123.08741-.51123h.11621Z" style="fill:#fefefe"/><path d="M383.35986,189.49756a.17258.17258,0,0,1-.13232.04248h-.16748v-.67383h.16846a.1739.1739,0,0,1,.13134.042.19159.19159,0,0,1,.042.1416.14766.14766,0,0,1-.03516.11377.1055.1055,0,0,1-.03516.02344.09583.09583,0,0,1,.03614.0249.18309.18309,0,0,1,.03613.12842A.21142.21142,0,0,1,383.35986,189.49756Zm-.14355-.53565H383.166v.18262h.05029c.05566,0,.07959-.02734.07959-.0918C383.2959,188.98486,383.273,188.96191,383.21631,188.96191Zm.001.27247H383.166v.21h.05127c.05761,0,.08056-.02637.08056-.105C383.29785,189.26465,383.27393,189.23438,383.21729,189.23438Z" style="fill:#fefefe"/><path d="M383.77783,189.54l-.02734-.1333h-.15576l-.02686.1333h-.11133l.16553-.67383h.103l.16357.67383Zm-.105-.51074-.05762.28174h.11573Z" style="fill:#fefefe"/><path d="M384.13477,188.96191V189.54h-.106v-.57813h-.11231v-.0957h.332v.0957Z" style="fill:#fefefe"/><path d="M411.97754,184.71631h-.67383v-.2832h.0957v.17724h.19141V184.458h.09522v.15234h.1958v-.17724h.0957Z" style="fill:#fefefe"/><path d="M411.97754,184.34033h-.67383v-.106h.57813v-.17725h.0957Z" style="fill:#fefefe"/><path d="M411.97754,183.772v.10987l-.67383.14746v-.11621l.51123-.08594-.51123-.0874v-.11621Z" style="fill:#fefefe"/><path d="M411.93945,183.27881a.18576.18576,0,0,1,.04493.13183.17609.17609,0,0,1-.04493.13038.185.185,0,0,1-.14453.04345v-.106a.10671.10671,0,0,0,.07569-.019.06379.06379,0,0,0,.01806-.04883.06242.06242,0,0,0-.019-.05126.10757.10757,0,0,0-.07471-.01807c-.07178,0-.08984.01123-.11084.06348l-.03271.08056c-.02881.06787-.06543.09375-.16944.09375a.184.184,0,0,1-.14306-.05517.16949.16949,0,0,1-.04053-.11524.16686.16686,0,0,1,.04053-.12109.19213.19213,0,0,1,.14648-.04737v.106a.11167.11167,0,0,0-.07178.01611.05552.05552,0,0,0-.01953.04737.05781.05781,0,0,0,.01856.04541.10169.10169,0,0,0,.0664.01806c.05469,0,.07178-.00878.09082-.05615l.03223-.0791c.0332-.08057.07568-.10254.189-.10254A.1924.1924,0,0,1,411.93945,183.27881Z" style="fill:#fefefe"/><path d="M411.93945,182.85889a.18576.18576,0,0,1,.04493.13183.17606.17606,0,0,1-.04493.13037.185.185,0,0,1-.14453.04346v-.106a.10671.10671,0,0,0,.07569-.019.06381.06381,0,0,0,.01806-.04883.06246.06246,0,0,0-.019-.05127.10762.10762,0,0,0-.07471-.01806c-.07178,0-.08984.01123-.11084.06347l-.03271.08057c-.02881.06787-.06543.09375-.16944.09375a.184.184,0,0,1-.14306-.05518.16944.16944,0,0,1-.04053-.11523.16686.16686,0,0,1,.04053-.12109.19213.19213,0,0,1,.14648-.04737v.106a.11167.11167,0,0,0-.07178.01611.05552.05552,0,0,0-.01953.04737.05783.05783,0,0,0,.01856.04541.10175.10175,0,0,0,.0664.01806c.05469,0,.07178-.00879.09082-.05615l.03223-.0791c.0332-.08057.07568-.10254.189-.10254A.1924.1924,0,0,1,411.93945,182.85889Z" style="fill:#fefefe"/><path d="M412.12207,182.77832h-.07275v-.43213h.07275Z" style="fill:#fefefe"/><path d="M411.75244,182.2998h-.0957v-.19091h.0957Z" style="fill:#fefefe"/><path d="M411.87256,181.75391h.105v.10009h-.105v.187h-.08985l-.479-.17286v-.09765l.479.16748v-.084h-.12011v-.10009h.12011v-.04639h.08985Z" style="fill:#fefefe"/><path d="M411.71436,181.457v.06348h.26318v.106h-.67383V181.457c0-.12207.06348-.17334.20459-.17334C411.64453,181.28369,411.71436,181.3291,411.71436,181.457Zm-.315-.00195v.06543h.21973v-.06543c0-.05664-.05029-.06543-.10986-.06543S411.39941,181.39844,411.39941,181.45508Z" style="fill:#fefefe"/><path d="M411.87256,180.93652h.105v.10059h-.105v.1875h-.08985l-.479-.17334v-.09766l.479.16748v-.084h-.12011v-.10059h.12011v-.04589h.08985Z" style="fill:#fefefe"/><rect x="399.70918" y="120.31599" width="9.98089" height="1.10307" rx="0.55154" style="fill:#ff1a77"/><path d="M402.80127,121.18213v-.67383h.2832v.0957h-.17724v.19141h.15234v.09522h-.15234v.1958h.17724v.0957Z" style="fill:#fefefe"/><path d="M403.17725,121.18213v-.67383h.106v.57813h.17725v.0957Z" style="fill:#fefefe"/><path d="M403.74561,121.18213h-.10987l-.14746-.67383h.11621l.08594.51123.0874-.51123h.11621Z" style="fill:#fefefe"/><path d="M404.23877,121.144a.18579.18579,0,0,1-.13184.04492.17607.17607,0,0,1-.13037-.04492.185.185,0,0,1-.04345-.14453h.106a.10671.10671,0,0,0,.019.07569.06378.06378,0,0,0,.04882.01806.06243.06243,0,0,0,.05127-.019.10762.10762,0,0,0,.01807-.07471c0-.07178-.01123-.08984-.06348-.11084l-.08056-.03271c-.06787-.02881-.09375-.06543-.09375-.16944a.184.184,0,0,1,.05517-.14306.16949.16949,0,0,1,.11524-.04053.16686.16686,0,0,1,.12109.04053.19212.19212,0,0,1,.04736.14648h-.106a.11167.11167,0,0,0-.01612-.07178.05548.05548,0,0,0-.04736-.01953.05781.05781,0,0,0-.04541.01856.10169.10169,0,0,0-.01807.0664c0,.05469.00879.07178.05616.09082l.0791.03223c.08056.0332.10254.07568.10254.189A.1924.1924,0,0,1,404.23877,121.144Z" style="fill:#fefefe"/><path d="M404.65869,121.144a.18576.18576,0,0,1-.13183.04492.17608.17608,0,0,1-.13038-.04492.185.185,0,0,1-.04345-.14453h.106a.10671.10671,0,0,0,.019.07569.06379.06379,0,0,0,.04883.01806.06246.06246,0,0,0,.05127-.019.10762.10762,0,0,0,.01806-.07471c0-.07178-.01123-.08984-.06348-.11084l-.08056-.03271c-.06787-.02881-.09375-.06543-.09375-.16944a.184.184,0,0,1,.05517-.14306.16949.16949,0,0,1,.11524-.04053.16686.16686,0,0,1,.12109.04053.19213.19213,0,0,1,.04737.14648h-.106a.11167.11167,0,0,0-.01611-.07178.05552.05552,0,0,0-.04737-.01953.05781.05781,0,0,0-.04541.01856.10169.10169,0,0,0-.01806.0664c0,.05469.00878.07178.05615.09082l.0791.03223c.08057.0332.10254.07568.10254.189A.1924.1924,0,0,1,404.65869,121.144Z" style="fill:#fefefe"/><path d="M404.73926,121.32666v-.07275h.43213v.07275Z" style="fill:#fefefe"/><path d="M405.21777,120.957v-.0957h.19092v.0957Z" style="fill:#fefefe"/><path d="M405.76367,121.07715v.105h-.1001v-.105h-.187v-.08985l.17285-.479h.09766l-.16748.479h.084v-.12011h.1001v.12011h.04639v.08985Z" style="fill:#fefefe"/><path d="M406.06055,120.919h-.06348v.26318h-.106v-.67383h.16944c.12207,0,.17334.06348.17334.20459C406.23389,120.84912,406.18848,120.919,406.06055,120.919Zm.002-.31495h-.06543v.21973h.06543c.05664,0,.06543-.05029.06543-.10986S406.11914,120.604,406.0625,120.604Z" style="fill:#fefefe"/><path d="M406.58105,121.07715v.105h-.10058v-.105h-.1875v-.08985l.17334-.479h.09765l-.16748.479h.084v-.12011h.10058v.12011h.0459v.08985Z" style="fill:#fefefe"/><rect x="439.82901" y="173.48736" width="9.98089" height="1.10307" rx="0.55154" style="fill:#ff7398"/><path d="M444.24023,174.35352h-.11035l-.14746-.67383h.11621l.08594.51123.08789-.51123h.11621Z" style="fill:#fefefe"/><path d="M444.75,174.311a.17143.17143,0,0,1-.13184.04248h-.168v-.67383h.16894a.17268.17268,0,0,1,.13086.042.19161.19161,0,0,1,.042.1416.14765.14765,0,0,1-.03515.11377.0968.0968,0,0,1-.03516.02344.08867.08867,0,0,1,.03613.0249.183.183,0,0,1,.03614.12842A.21143.21143,0,0,1,444.75,174.311Zm-.14355-.53565h-.04981v.18262h.04981c.05566,0,.08007-.02735.08007-.0918C444.68652,173.79834,444.66309,173.77539,444.60645,173.77539Zm.001.27246h-.05078v.21h.05078c.05762,0,.08106-.02636.08106-.105C444.68848,174.07813,444.66406,174.04785,444.60742,174.04785Z" style="fill:#fefefe"/><path d="M445.168,174.35352l-.02734-.13331h-.15528l-.02734.13331h-.11133l.166-.67383h.10253l.16407.67383Zm-.10449-.51075-.05762.28174h.11523Z" style="fill:#fefefe"/><path d="M445.52539,173.77539v.57813H445.419v-.57813h-.11231v-.0957h.332v.0957Z" style="fill:#fefefe"/><path d="M252.94667,508.63738h0a4.3449,4.3449,0,0,1-4.34485-4.34489h0a4.34488,4.34488,0,0,1,4.34485-4.3449h0a4.34487,4.34487,0,0,1,4.34485,4.3449h0A4.3449,4.3449,0,0,1,252.94667,508.63738Z" style="fill:#ff0098;fill-rule:evenodd"/><rect x="248.60178" y="516.23456" width="8.68975" height="8.68975" rx="4.34487" style="fill:#ff50ce"/><path d="M252.94667,541.8556h0a4.34488,4.34488,0,0,1-4.34485-4.34489h0a4.34488,4.34488,0,0,1,4.34485-4.3449h0a4.34487,4.34487,0,0,1,4.34485,4.3449h0A4.34487,4.34487,0,0,1,252.94667,541.8556Z" style="fill:#ff1a77;fill-rule:evenodd"/><path d="M252.94667,558.78687h0a4.34487,4.34487,0,0,1-4.34485-4.34489h0a4.34487,4.34487,0,0,1,4.34485-4.34489h0a4.34486,4.34486,0,0,1,4.34485,4.34489h0A4.34486,4.34486,0,0,1,252.94667,558.78687Z" style="fill:#b4ff22;fill-rule:evenodd"/><path d="M252.94667,592.12h0a4.34487,4.34487,0,0,1-4.34485-4.34489h0a4.34487,4.34487,0,0,1,4.34485-4.34489h0a4.34486,4.34486,0,0,1,4.34485,4.34489h0A4.34486,4.34486,0,0,1,252.94667,592.12Z" style="fill:#ff7398;fill-rule:evenodd"/><path d="M252.94667,575.79475h0a4.34488,4.34488,0,0,1-4.34485-4.3449h0a4.34488,4.34488,0,0,1,4.34485-4.34489h0a4.34487,4.34487,0,0,1,4.34485,4.34489h0A4.34487,4.34487,0,0,1,252.94667,575.79475Z" style="fill:#fff800;fill-rule:evenodd"/><path d="M266.85889,590.05859h-.79981l-1.07617-4.91015h.84863l.62793,3.72363.63379-3.72363h.84863Z"/><path d="M270.57178,589.74805a1.26188,1.26188,0,0,1-.96582.31054h-1.22071v-4.91015h1.22754a1.27068,1.27068,0,0,1,.959.30273,1.39956,1.39956,0,0,1,.30273,1.03516,1.0704,1.0704,0,0,1-.25488.82715.80175.80175,0,0,1-.25488.17285.71322.71322,0,0,1,.26171.17871,1.34528,1.34528,0,0,1,.26172.93848A1.53905,1.53905,0,0,1,270.57178,589.74805Zm-1.04883-3.90332h-.36524v1.33105h.36524c.40723,0,.5791-.20019.5791-.66894C270.10205,586.00977,269.937,585.84473,269.523,585.84473Zm.00684,1.98632h-.37208v1.53125h.37208c.42089,0,.58593-.19335.58593-.76562C270.11572,588.05176,269.94385,587.83105,269.52979,587.83105Z"/><path d="M273.60693,590.05859l-.20019-.97265h-1.13867l-.19239.97265h-.81445l1.207-4.91015h.752l1.19336,4.91015Zm-.76562-3.72461-.4209,2.05567h.84082Z"/><path d="M276.19482,585.84473v4.21386h-.77246v-4.21386h-.82129v-.69629h2.4209v.69629Z"/><path d="M265.36963,540.18945V535.2793h2.062v.69629h-1.28955v1.39257h1.11035v.69727h-1.11035v1.42773h1.28955v.69629Z"/><path d="M268.10205,540.18945V535.2793h.77246v4.21386h1.28955v.69629Z"/><path d="M272.23389,540.18945h-.79981l-1.07617-4.91015h.84863l.62744,3.72363.63477-3.72363h.84814Z"/><path d="M275.81494,539.91406a1.35815,1.35815,0,0,1-.959.32324,1.30283,1.30283,0,0,1-.95166-.32324,1.35916,1.35916,0,0,1-.31739-1.05566h.77247a.77977.77977,0,0,0,.13818.55176.46525.46525,0,0,0,.3584.13086.45344.45344,0,0,0,.37256-.1377.78628.78628,0,0,0,.13134-.54492c0-.52442-.083-.65527-.4624-.80664l-.58642-.24219c-.4961-.20605-.68262-.47559-.68262-1.23437a1.33991,1.33991,0,0,1,.3999-1.041,1.235,1.235,0,0,1,.8418-.29688,1.217,1.217,0,0,1,.88281.29688,1.40318,1.40318,0,0,1,.34473,1.06934h-.77246a.81439.81439,0,0,0-.11719-.52442.40662.40662,0,0,0-.34522-.14551.414.414,0,0,0-.33105.13868.73436.73436,0,0,0-.13086.48242c0,.40039.062.52441.40723.66211l.5791.23437c.58642.24121.74511.55176.74511,1.37988A1.40389,1.40389,0,0,1,275.81494,539.91406Z"/><path d="M278.86475,539.91406a1.35819,1.35819,0,0,1-.959.32324,1.30284,1.30284,0,0,1-.95166-.32324,1.3592,1.3592,0,0,1-.31738-1.05566h.77246a.77977.77977,0,0,0,.13818.55176.46527.46527,0,0,0,.3584.13086.45341.45341,0,0,0,.37256-.1377.78622.78622,0,0,0,.13135-.54492c0-.52442-.083-.65527-.4624-.80664l-.58643-.24219c-.49609-.20605-.68262-.47559-.68262-1.23437a1.33988,1.33988,0,0,1,.39991-1.041,1.235,1.235,0,0,1,.84179-.29688,1.21693,1.21693,0,0,1,.88281.29688,1.40314,1.40314,0,0,1,.34473,1.06934H278.375a.81433.81433,0,0,0-.11719-.52442.40662.40662,0,0,0-.34521-.14551.414.414,0,0,0-.33106.13868.73442.73442,0,0,0-.13086.48242c0,.40039.062.52441.40723.66211l.5791.23437c.58643.24121.74512.55176.74512,1.37988A1.40393,1.40393,0,0,1,278.86475,539.91406Z"/><path d="M279.44531,541.24512v-.53125h3.15186v.53125Z"/><path d="M282.92285,538.54785v-.69629h1.39307v.69629Z"/><path d="M286.896,539.42383v.76562h-.731v-.76562h-1.36572v-.65528l1.2622-3.48925h.71045l-1.2207,3.48925h.61377v-.876h.731v.876h.33789v.65528Z"/><path d="M289.04932,538.27246h-.46192v1.917h-.77246V535.2793h1.23438c.88964,0,1.2622.46191,1.2622,1.48925C290.31152,537.76172,289.98047,538.27246,289.04932,538.27246Zm.01367-2.29687h-.47559v1.59961h.47559c.41406,0,.47607-.36524.47607-.79981S289.47705,535.97559,289.063,535.97559Z"/><path d="M292.83008,539.42383v.76562h-.731v-.76562H290.7334v-.65528l1.26221-3.48925h.71044l-1.2207,3.48925h.61377v-.876h.731v.876h.33789v.65528Z"/><path d="M265.36914,522.8623v-4.91015h2.0625v.69629h-1.29V520.041h1.11084v.69726H266.1416V522.166h1.29v.69628Z"/><path d="M268.10156,522.8623v-4.91015h.77246V522.166h1.29v.69628Z"/><path d="M272.23438,522.8623h-.8003l-1.07568-4.91015h.84814l.62744,3.72363.63477-3.72363h.84814Z"/><path d="M275.95947,522.45508a1.17872,1.17872,0,0,1-.95166.40722h-1.248v-4.91015h1.248a1.17829,1.17829,0,0,1,.95166.40625c.36573.40723.35889,1.10351.35889,2.04883C276.31836,521.35156,276.3252,522.04883,275.95947,522.45508Zm-.5791-3.60645a.44661.44661,0,0,0-.39307-.20019h-.45507V522.166h.45507a.4466.4466,0,0,0,.39307-.2002,3.64708,3.64708,0,0,0,.16553-1.56543A3.56782,3.56782,0,0,0,275.38037,518.84863Z"/><path d="M279.21631,522.45508a1.17873,1.17873,0,0,1-.95166.40722H277.0166v-4.91015h1.24805a1.17831,1.17831,0,0,1,.95166.40625c.36572.40723.35889,1.10351.35889,2.04883C279.5752,521.35156,279.582,522.04883,279.21631,522.45508Zm-.5791-3.60645a.44663.44663,0,0,0-.39307-.20019h-.45508V522.166h.45508a.44661.44661,0,0,0,.39307-.2002,3.64714,3.64714,0,0,0,.16552-1.56543A3.56787,3.56787,0,0,0,278.63721,518.84863Z"/><path d="M279.85938,523.918v-.53125h3.15185v.53125Z"/><path d="M285.27441,522.09668v.76562h-.731v-.76562h-1.36573v-.65527l1.26221-3.48926h.71045l-1.2207,3.48926h.61377v-.876h.731v.876h.33789v.65527Z"/><path d="M287.42773,520.94531h-.46191v1.917h-.77246v-4.91015h1.23437c.88965,0,1.26221.46191,1.26221,1.48926C288.68994,520.43457,288.35889,520.94531,287.42773,520.94531Zm.01368-2.29687h-.47559v1.59961h.47559c.41406,0,.47607-.36524.47607-.79981S287.85547,518.64844,287.44141,518.64844Z"/><path d="M291.20166,522.52441a1.0219,1.0219,0,0,1-.876.39258.98386.98386,0,0,1-.855-.39258,1.80756,1.80756,0,0,1-.24853-1.15234,3.37111,3.37111,0,0,1,.20019-1.1582l.86182-2.26172h.75879l-.80713,1.98633a.51528.51528,0,0,1,.30371-.083.782.782,0,0,1,.64844.30371c.1792.22754.248.48926.248,1.21289A1.84843,1.84843,0,0,1,291.20166,522.52441Zm-.60693-1.94531a.3224.3224,0,0,0-.26221-.124.33563.33563,0,0,0-.269.124,1.54887,1.54887,0,0,0-.11035.78613,1.50249,1.50249,0,0,0,.11035.77247.33363.33363,0,0,0,.269.125.31168.31168,0,0,0,.26221-.125,1.4901,1.4901,0,0,0,.11035-.77247A1.549,1.549,0,0,0,290.59473,520.5791Z"/><path d="M265.36914,506.5752v-4.91114h2.062v.69727H266.1416v1.39258H267.252v.69726H266.1416v1.42774h1.28955v.69629Z"/><path d="M268.10156,506.5752v-4.91114h.77246v4.21485h1.28955v.69629Z"/><path d="M272.70947,506.5752l-.1997-.97266h-1.13819l-.19336.97266h-.81347l1.20654-4.91114h.752l1.19336,4.91114Zm-.76562-3.72461-.42041,2.05566h.84131Z"/><path d="M275.46289,506.5752h-.80029l-1.07569-4.91114h.84815l.62744,3.72461.63477-3.72461h.84814Z"/><path d="M279.188,506.168a1.17874,1.17874,0,0,1-.95166.40723h-1.24805v-4.91114h1.24805a1.17874,1.17874,0,0,1,.95166.40723c.36572.40723.35889,1.10351.35889,2.04883C279.54688,505.06445,279.55371,505.76172,279.188,506.168Zm-.5791-3.60645a.44663.44663,0,0,0-.39307-.20019h-.45508v3.51758h.45508a.44661.44661,0,0,0,.39307-.2002,3.64714,3.64714,0,0,0,.16552-1.56543A3.56787,3.56787,0,0,0,278.60889,502.56152Z"/><path d="M282.44482,506.168a1.17872,1.17872,0,0,1-.95166.40723h-1.248v-4.91114h1.248a1.17872,1.17872,0,0,1,.95166.40723c.36573.40723.35889,1.10351.35889,2.04883C282.80371,505.06445,282.81055,505.76172,282.44482,506.168Zm-.5791-3.60645a.44661.44661,0,0,0-.39306-.20019h-.45508v3.51758h.45508a.44659.44659,0,0,0,.39306-.2002,3.64708,3.64708,0,0,0,.16553-1.56543A3.56782,3.56782,0,0,0,281.86572,502.56152Z"/><path d="M283.08789,507.63086v-.53125h3.15186v.53125Z"/><path d="M287.46875,506.5752h-.731l1.28955-4.25586h-.855v.65527h-.70361v-1.31055h2.29v.60742Z"/><path d="M290.65625,504.6582h-.46191v1.917h-.77246v-4.91114h1.23437c.88965,0,1.26221.46289,1.26221,1.49024C291.91846,504.14746,291.5874,504.6582,290.65625,504.6582Zm.01367-2.29687h-.47558v1.59961h.47558c.41406,0,.47608-.36524.47608-.79981S291.084,502.36133,290.66992,502.36133Z"/><path d="M294.34033,506.34766a1.13183,1.13183,0,0,1-.78613.2832,1.154,1.154,0,0,1-.793-.29,1.02944,1.02944,0,0,1-.30371-.81348v-.29h.731v.31739a.36883.36883,0,0,0,.36572.4209.33053.33053,0,0,0,.26221-.125,1.37121,1.37121,0,0,0,.11718-.72364,1.31922,1.31922,0,0,0-.11035-.71777.32215.32215,0,0,0-.27588-.124h-.2417v-.61328h.2417a.29764.29764,0,0,0,.23438-.09668,1.01683,1.01683,0,0,0,.11035-.6211,1.04233,1.04233,0,0,0-.09668-.5791.28794.28794,0,0,0-.24121-.11035c-.186,0-.33106.13086-.33106.39355v.34473h-.731v-.29688a1.04814,1.04814,0,0,1,.30322-.81347,1.06455,1.06455,0,0,1,.75879-.2832,1.035,1.035,0,0,1,.752.27539,1.35452,1.35452,0,0,1,.3169,1.02148,1.63921,1.63921,0,0,1-.124.7793.76621.76621,0,0,1-.269.28906.89339.89339,0,0,1,.28272.29687,1.74361,1.74361,0,0,1,.15185.90332A1.43732,1.43732,0,0,1,294.34033,506.34766Z"/><path d="M265.36963,557.27051v-4.91016h2.06152v.69629h-1.28906v1.39258h1.11035v.69726h-1.11035v1.42774h1.28906v.69629Z"/><path d="M268.10205,557.27051v-4.91016h.77246v4.21387h1.28906v.69629Z"/><path d="M270.33057,558.32617v-.53125h3.15234v.53125Z"/><path d="M276.02881,556.91211a1.30274,1.30274,0,0,1-1.90332,0c-.36621-.41406-.3584-1.13184-.3584-2.09668,0-.96582-.00781-1.68359.3584-2.09668a1.30066,1.30066,0,0,1,1.90332,0c.36523.41309.3584,1.13086.3584,2.09668C276.38721,555.78027,276.394,556.49805,276.02881,556.91211Zm-.5791-3.72461a.40879.40879,0,0,0-.373-.18652.39625.39625,0,0,0-.36523.18652,7.79062,7.79062,0,0,0,0,3.25488.39436.39436,0,0,0,.36523.18653.40682.40682,0,0,0,.373-.18653,8.10652,8.10652,0,0,0,0-3.25488Z"/><path d="M279.01611,557.27051l-1.1582-2.917v2.917h-.77246v-4.91016h.68945l1.15137,2.917v-2.917h.77246v4.91016Z"/><path d="M280.439,557.27051v-.6211l1.22754-2.38574a1.91157,1.91157,0,0,0,.2002-.876c0-.28321-.15234-.42774-.35156-.42774a.36865.36865,0,0,0-.36621.4209v.31738h-.73047v-.29a1.02661,1.02661,0,0,1,.30371-.81347,1.16447,1.16447,0,0,1,.793-.29,1.07738,1.07738,0,0,1,.75879.26172,1.11212,1.11212,0,0,1,.32324.84863,2.47679,2.47679,0,0,1-.26856,1.07617l-1.11035,2.124h1.37891v.65528Z"/><path d="M265.36963,573.7334v-4.91016h2.06152v.69629h-1.28906v1.39258h1.11035v.69727h-1.11035v1.42773h1.28906v.69629Z"/><path d="M268.10205,573.7334v-4.91016h.77246v4.21387h1.28906v.69629Z"/><path d="M270.33057,574.78906v-.53125h3.15234v.53125Z"/><path d="M276.02881,573.375a1.30274,1.30274,0,0,1-1.90332,0c-.36524-.41406-.3584-1.13184-.3584-2.09668,0-.96582-.00684-1.68359.3584-2.09668a1.30066,1.30066,0,0,1,1.90332,0c.36523.41309.3584,1.13086.3584,2.09668C276.38721,572.24316,276.394,572.96094,276.02881,573.375Zm-.5791-3.72461a.40879.40879,0,0,0-.373-.18652.39625.39625,0,0,0-.36523.18652,7.79062,7.79062,0,0,0,0,3.25488.39436.39436,0,0,0,.36523.18653.40682.40682,0,0,0,.373-.18653,8.10652,8.10652,0,0,0,0-3.25488Z"/><path d="M279.01611,573.7334l-1.1582-2.917v2.917h-.77246v-4.91016h.68945l1.15137,2.917v-2.917h.77246v4.91016Z"/><path d="M281.33545,573.7334v-4.05567l-.73828.56543V569.416l.73828-.59278h.73144v4.91016Z"/></svg>