<svg xmlns="http://www.w3.org/2000/svg" viewBox="0 0 841.88976 595.27559"><title>USB Type C2.0</title><path d="M454.404,194.14176a.36994.36994,0,1,1,.37.36995.36977.36977,0,0,1-.37-.36995" style="fill:#b8b8b8"/><path d="M451.91759,194.14176a.37.37,0,1,1,.36995.36995.36976.36976,0,0,1-.36995-.36995" style="fill:#b8b8b8"/><path d="M449.43115,194.14176a.37.37,0,1,1,.37.36995.36976.36976,0,0,1-.37-.36995" style="fill:#b8b8b8"/><path d="M448.18793,194.14176a.36995.36995,0,1,1,.37.36995.37008.37008,0,0,1-.37-.36995" style="fill:#b8b8b8"/><path d="M446.94471,194.14176a.37.37,0,1,1,.37.36995.3701.3701,0,0,1-.37-.36995" style="fill:#b8b8b8"/><path d="M454.774,183.32282a.36971.36971,0,1,1,.36992-.36947.36971.36971,0,0,1-.36992.36947" style="fill:#b8b8b8"/><path d="M454.774,184.566a.36971.36971,0,1,1,.36992-.37.36979.36979,0,0,1-.36992.37" style="fill:#b8b8b8"/><path d="M454.774,185.8092a.36994.36994,0,1,1,.36992-.36992.36977.36977,0,0,1-.36992.36992" style="fill:#b8b8b8"/><path d="M454.774,188.29564a.36994.36994,0,1,1,.36992-.36995.36977.36977,0,0,1-.36992.36995" style="fill:#b8b8b8"/><path d="M454.774,189.53886a.36994.36994,0,1,1,.36992-.36995.36979.36979,0,0,1-.36992.36995" style="fill:#b8b8b8"/><path d="M454.774,190.78208a.37.37,0,1,1,.36992-.37.36979.36979,0,0,1-.36992.37" style="fill:#b8b8b8"/><path d="M454.774,192.02527a.37.37,0,1,1,.36992-.37.3701.3701,0,0,1-.36992.37" style="fill:#b8b8b8"/><path d="M454.774,193.26849a.37.37,0,1,1,.36992-.37.36977.36977,0,0,1-.36992.37" style="fill:#b8b8b8"/><path d="M453.53073,184.566a.36971.36971,0,1,1,.36947-.37.36979.36979,0,0,1-.36947.37" style="fill:#b8b8b8"/><path d="M453.53073,185.8092a.36994.36994,0,1,1,.36947-.36992.36977.36977,0,0,1-.36947.36992" style="fill:#b8b8b8"/><path d="M453.53073,187.05242a.36994.36994,0,1,1,.36947-.36992.36977.36977,0,0,1-.36947.36992" style="fill:#b8b8b8"/><path d="M453.53073,190.78208a.37.37,0,1,1,.36947-.37.36979.36979,0,0,1-.36947.37" style="fill:#b8b8b8"/><path d="M452.28754,190.78208a.37.37,0,1,1,.37-.37.36977.36977,0,0,1-.37.37" style="fill:#b8b8b8"/><path d="M451.04432,183.32282a.36971.36971,0,1,1,.36995-.36947.36969.36969,0,0,1-.36995.36947" style="fill:#b8b8b8"/><path d="M451.04432,184.566a.36971.36971,0,1,1,.36995-.37.36977.36977,0,0,1-.36995.37" style="fill:#b8b8b8"/><path d="M451.04432,185.8092a.36994.36994,0,1,1,.36995-.36992.36975.36975,0,0,1-.36995.36992" style="fill:#b8b8b8"/><path d="M451.04432,187.05242a.36994.36994,0,1,1,.36995-.36992.36975.36975,0,0,1-.36995.36992" style="fill:#b8b8b8"/><path d="M451.04432,188.29564a.36994.36994,0,1,1,.36995-.36995.36976.36976,0,0,1-.36995.36995" style="fill:#b8b8b8"/><path d="M449.8011,183.32282a.36971.36971,0,1,1,.36995-.36947.3697.3697,0,0,1-.36995.36947" style="fill:#b8b8b8"/><path d="M449.8011,188.29564a.36994.36994,0,1,1,.36995-.36995.36976.36976,0,0,1-.36995.36995" style="fill:#b8b8b8"/><path d="M449.8011,192.02527a.36995.36995,0,1,1,.36995-.37.37009.37009,0,0,1-.36995.37" style="fill:#b8b8b8"/><path d="M449.8011,193.26849a.36995.36995,0,1,1,.36995-.37.36976.36976,0,0,1-.36995.37" style="fill:#b8b8b8"/><path d="M448.55788,183.32282a.36971.36971,0,1,1,.36995-.36947.37.37,0,0,1-.36995.36947" style="fill:#b8b8b8"/><path d="M448.55788,184.566a.36971.36971,0,1,1,.36995-.37.3701.3701,0,0,1-.36995.37" style="fill:#b8b8b8"/><path d="M448.55788,185.8092a.36994.36994,0,1,1,.36995-.36992.37008.37008,0,0,1-.36995.36992" style="fill:#b8b8b8"/><path d="M448.55788,190.78208a.37.37,0,1,1,.36995-.37.3701.3701,0,0,1-.36995.37" style="fill:#b8b8b8"/><path d="M448.55788,193.26849a.36995.36995,0,1,1,.36995-.37.37008.37008,0,0,1-.36995.37" style="fill:#b8b8b8"/><path d="M447.31466,190.78208a.37.37,0,1,1,.37-.37.37012.37012,0,0,1-.37.37" style="fill:#b8b8b8"/><path d="M447.31466,192.02527a.36995.36995,0,1,1,.37-.37.37043.37043,0,0,1-.37.37" style="fill:#b8b8b8"/><path d="M447.31466,193.26849a.36995.36995,0,1,1,.37-.37.3701.3701,0,0,1-.37.37" style="fill:#b8b8b8"/><path d="M445.76917,194.14176a.37.37,0,1,1,.37.36995.36978.36978,0,0,1-.37-.36995" style="fill:#b8b8b8"/><path d="M444.526,194.14176a.36995.36995,0,1,1,.36995.36995.36978.36978,0,0,1-.36995-.36995" style="fill:#b8b8b8"/><path d="M443.28276,194.14176a.36995.36995,0,1,1,.37.36995.37008.37008,0,0,1-.37-.36995" style="fill:#b8b8b8"/><path d="M446.13912,184.566a.36971.36971,0,1,1,.37-.37.3698.3698,0,0,1-.37.37" style="fill:#b8b8b8"/><path d="M446.24721,185.8092a.36994.36994,0,1,1,.36992-.36992.37006.37006,0,0,1-.36992.36992" style="fill:#b8b8b8"/><path d="M446.13912,188.29564a.36994.36994,0,1,1,.37-.36995.36978.36978,0,0,1-.37.36995" style="fill:#b8b8b8"/><path d="M446.13912,189.53886a.36994.36994,0,1,1,.37-.36995.3698.3698,0,0,1-.37.36995" style="fill:#b8b8b8"/><path d="M446.13912,193.26849a.36995.36995,0,1,1,.37-.37.36978.36978,0,0,1-.37.37" style="fill:#b8b8b8"/><path d="M444.8959,183.32282a.36971.36971,0,1,1,.37-.36947.36972.36972,0,0,1-.37.36947" style="fill:#b8b8b8"/><path d="M444.8959,184.566a.36971.36971,0,1,1,.37-.37.3698.3698,0,0,1-.37.37" style="fill:#b8b8b8"/><path d="M444.8959,188.29564a.36994.36994,0,1,1,.37-.36995.36978.36978,0,0,1-.37.36995" style="fill:#b8b8b8"/><path d="M444.8959,189.53886a.36994.36994,0,1,1,.37-.36995.3698.3698,0,0,1-.37.36995" style="fill:#b8b8b8"/><path d="M444.8959,190.78208a.37.37,0,1,1,.37-.37.3698.3698,0,0,1-.37.37" style="fill:#b8b8b8"/><path d="M444.8959,192.02527a.36995.36995,0,1,1,.37-.37.37011.37011,0,0,1-.37.37" style="fill:#b8b8b8"/><path d="M444.8959,193.26849a.36995.36995,0,1,1,.37-.37.36978.36978,0,0,1-.37.37" style="fill:#b8b8b8"/><path d="M443.65271,183.32282a.36971.36971,0,1,1,.36995-.36947.37.37,0,0,1-.36995.36947" style="fill:#b8b8b8"/><path d="M443.65271,188.29564a.36994.36994,0,1,1,.36995-.36995.37008.37008,0,0,1-.36995.36995" style="fill:#b8b8b8"/><path d="M443.65271,189.53886a.36994.36994,0,1,1,.36995-.36995.3701.3701,0,0,1-.36995.36995" style="fill:#b8b8b8"/><path d="M443.65271,190.78208a.37.37,0,1,1,.36995-.37.3701.3701,0,0,1-.36995.37" style="fill:#b8b8b8"/><path d="M443.65271,192.02527a.36995.36995,0,1,1,.36995-.37.37041.37041,0,0,1-.36995.37" style="fill:#b8b8b8"/><path d="M443.65271,193.26849a.36995.36995,0,1,1,.36995-.37.37008.37008,0,0,1-.36995.37" style="fill:#b8b8b8"/><path d="M453.16078,194.14176a.36971.36971,0,1,1,.37.36995.36977.36977,0,0,1-.37-.36995" style="fill:#b8b8b8"/><path d="M453.53073,192.02527a.37.37,0,1,1,.36947-.37.3701.3701,0,0,1-.36947.37" style="fill:#b8b8b8"/><path d="M453.53073,193.26849a.37.37,0,1,1,.36947-.37.36977.36977,0,0,1-.36947.37" style="fill:#b8b8b8"/><path d="M450.67437,194.14176a.36995.36995,0,1,1,.37.36995.36976.36976,0,0,1-.37-.36995" style="fill:#b8b8b8"/><path d="M451.04432,193.26849a.36995.36995,0,1,1,.36995-.37.36976.36976,0,0,1-.36995.37" style="fill:#b8b8b8"/><path d="M449.8011,187.05242a.36994.36994,0,1,1,.36995-.36992.36976.36976,0,0,1-.36995.36992" style="fill:#b8b8b8"/><path d="M446.13912,187.05242a.36994.36994,0,1,1,.37-.36992.36977.36977,0,0,1-.37.36992" style="fill:#b8b8b8"/><path d="M444.8959,187.05242a.36994.36994,0,1,1,.37-.36992.36977.36977,0,0,1-.37.36992" style="fill:#b8b8b8"/><path d="M443.65271,187.05242a.36994.36994,0,1,1,.36995-.36992.37008.37008,0,0,1-.36995.36992" style="fill:#b8b8b8"/><path d="M443.65271,184.566a.36971.36971,0,1,1,.36995-.37.3701.3701,0,0,1-.36995.37" style="fill:#b8b8b8"/><path d="M446.13912,190.78208a.37.37,0,1,1,.37-.37.3698.3698,0,0,1-.37.37" style="fill:#b8b8b8"/><path d="M448.55788,192.02527a.36995.36995,0,1,1,.36995-.37.37008.37008,0,0,1-.36995.37" style="fill:#b8b8b8"/><path d="M453.53073,188.29564a.36994.36994,0,1,1,.36947-.36995.36977.36977,0,0,1-.36947.36995" style="fill:#b8b8b8"/><path d="M453.53073,189.53886a.36994.36994,0,1,1,.36947-.36995.36979.36979,0,0,1-.36947.36995" style="fill:#b8b8b8"/><path d="M453.53073,183.32282a.36971.36971,0,1,1,.36947-.37.36981.36981,0,0,1-.36947.37" style="fill:#b8b8b8"/><path d="M452.28754,183.32282a.36971.36971,0,1,1,.37-.37.36979.36979,0,0,1-.37.37" style="fill:#b8b8b8"/><path d="M449.8011,185.8092a.36994.36994,0,1,1,.36995-.36992.36976.36976,0,0,1-.36995.36992" style="fill:#b8b8b8"/><path d="M449.8011,184.566a.36971.36971,0,1,1,.36995-.37.36978.36978,0,0,1-.36995.37" style="fill:#b8b8b8"/><path d="M449.8011,190.78208a.37.37,0,1,1,.36995-.37.36978.36978,0,0,1-.36995.37" style="fill:#b8b8b8"/><path d="M446.13912,183.32282a.36971.36971,0,1,1,.37-.36947.36972.36972,0,0,1-.37.36947" style="fill:#b8b8b8"/><path d="M443.65271,185.8092a.36994.36994,0,1,1,.36995-.36992.37008.37008,0,0,1-.36995.36992" style="fill:#b8b8b8"/><path d="M443.65271,185.8092a.36994.36994,0,1,1,.36995-.36992.37008.37008,0,0,1-.36995.36992" style="fill:#b8b8b8"/><path d="M452.28754,192.02527a.36995.36995,0,1,1,.37-.37.37041.37041,0,0,1-.37.37" style="fill:#b8b8b8"/><path d="M454.774,187.05242a.36994.36994,0,1,1,.36992-.36992.36977.36977,0,0,1-.36992.36992" style="fill:#b8b8b8"/><path d="M448.55788,187.05242a.36994.36994,0,1,1,.36995-.36992.36977.36977,0,0,1-.36995.36992" style="fill:#b8b8b8"/><path d="M452.28754,189.53886a.36994.36994,0,1,1,.37-.36995.36977.36977,0,0,1-.37.36995" style="fill:#b8b8b8"/><path d="M448.55788,189.53886a.36994.36994,0,1,1,.36995-.36995.3701.3701,0,0,1-.36995.36995" style="fill:#b8b8b8"/><path d="M447.31466,189.53886a.36994.36994,0,1,1,.37-.36995.37012.37012,0,0,1-.37.36995" style="fill:#b8b8b8"/><path d="M449.8011,189.53886a.36994.36994,0,1,1,.36995-.36995.36978.36978,0,0,1-.36995.36995" style="fill:#b8b8b8"/><path d="M447.31466,183.32282a.36971.36971,0,1,1,.37-.36947.37.37,0,0,1-.37.36947" style="fill:#b8b8b8"/><path d="M447.31466,184.566a.36971.36971,0,1,1,.37-.37.37012.37012,0,0,1-.37.37" style="fill:#b8b8b8"/><path d="M447.31466,185.8092a.36994.36994,0,1,1,.37-.36992.37009.37009,0,0,1-.37.36992" style="fill:#b8b8b8"/><path d="M447.31466,188.29564a.36994.36994,0,1,1,.37-.36995.3701.3701,0,0,1-.37.36995" style="fill:#b8b8b8"/><path d="M452.28754,184.566a.36971.36971,0,1,1,.37-.37.36977.36977,0,0,1-.37.37" style="fill:#b8b8b8"/><path d="M452.28754,185.8092a.36994.36994,0,1,1,.37-.36992.36975.36975,0,0,1-.37.36992" style="fill:#b8b8b8"/><path d="M452.28754,187.05242a.36994.36994,0,1,1,.37-.36992.36975.36975,0,0,1-.37.36992" style="fill:#b8b8b8"/><path d="M452.28754,188.29564a.36994.36994,0,1,1,.37-.36995.36976.36976,0,0,1-.37.36995" style="fill:#b8b8b8"/><path d="M402.977,261.35013a.42793.42793,0,1,1-.42793-.42793.42809.42809,0,0,1,.42793.42793" style="fill:#b8b8b8"/><path d="M402.549,262.12333a.42793.42793,0,1,1-.42793.42793.42808.42808,0,0,1,.42793-.42793" style="fill:#b8b8b8"/><path d="M402.549,263.32446a.42793.42793,0,1,1-.42793.42793.4281.4281,0,0,1,.42793-.42793" style="fill:#b8b8b8"/><path d="M403.75016,262.12333a.42793.42793,0,1,1-.42793.42793.42808.42808,0,0,1,.42793-.42793" style="fill:#b8b8b8"/><path d="M403.75016,263.32446a.42793.42793,0,1,1-.42793.42793.4281.4281,0,0,1,.42793-.42793" style="fill:#b8b8b8"/><path d="M404.95129,262.12333a.42793.42793,0,1,1-.42793.42793.42808.42808,0,0,1,.42793-.42793" style="fill:#b8b8b8"/><path d="M404.95129,263.32446a.42793.42793,0,1,1-.42793.42793.4281.4281,0,0,1,.42793-.42793" style="fill:#b8b8b8"/><path d="M406.15242,262.12333a.42793.42793,0,1,1-.42793.42793.42808.42808,0,0,1,.42793-.42793" style="fill:#b8b8b8"/><path d="M406.15242,263.32446a.42793.42793,0,1,1-.42793.42793.4281.4281,0,0,1,.42793-.42793" style="fill:#b8b8b8"/><path d="M403.75016,260.9222a.42793.42793,0,1,1-.42793.42793.42808.42808,0,0,1,.42793-.42793" style="fill:#b8b8b8"/><path d="M404.95129,260.9222a.42793.42793,0,1,1-.42793.42793.42807.42807,0,0,1,.42793-.42793" style="fill:#b8b8b8"/><path d="M406.15242,260.9222a.42793.42793,0,1,1-.42793.42793.42807.42807,0,0,1,.42793-.42793" style="fill:#b8b8b8"/><polyline points="401.469 260.65 402.061 260.65 402.061 260.871 401.69 260.871 401.69 261.242 401.469 261.242" style="fill:#b8b8b8"/><path d="M813.10059,520.903l-.11188-.19378A49.19432,49.19432,0,0,0,770.38519,496.112h-543.342v99.16357H770.1615a49.58177,49.58177,0,0,0,42.93909-24.79083v-.00006A49.5817,49.5817,0,0,0,813.10059,520.903Z" style="fill:#d0d2d3"/><path d="M177.33984,496.112h-102.53a49.58144,49.58144,0,0,0-42.939,24.791h-.00006a49.58158,49.58158,0,0,0,0,49.58154h.00006a49.58145,49.58145,0,0,0,42.939,24.791H227.04315V496.112Z" style="fill:#292c31"/><path d="M41.98389,547.93945a2.77051,2.77051,0,1,1,2.771-2.77148A2.77081,2.77081,0,0,1,41.98389,547.93945Z" style="fill:#fff"/><path d="M49.83789,550.8457V538.74414h5.08252v1.7168H51.7417v3.43359h2.73682v1.7168H51.7417v3.51758h3.17871v1.71679Z" style="fill:#fff"/><path d="M56.56982,550.8457V538.74414h1.90381v10.38477h3.17871v1.71679Z" style="fill:#fff"/><path d="M63.08105,550.8457V538.74414h5.08252v1.7168H64.98486v3.43359h2.73682v1.7168H64.98486v3.51758h3.17871v1.71679Z" style="fill:#fff"/><path d="M74.81055,550.2168a2.91847,2.91847,0,0,1-2.09082.76562,2.88725,2.88725,0,0,1-2.34571-1.01953c-.90136-1.01953-.88427-2.77148-.88427-5.15039,0-2.38086-.01709-4.166.88427-5.18555a3.21964,3.21964,0,0,1,4.45313-.23828,3.63487,3.63487,0,0,1,.96924,2.55078H73.89258a2.31219,2.31219,0,0,0-.28906-1.17382.93608.93608,0,0,0-.88379-.44141.97544.97544,0,0,0-.90088.459c-.35694.57813-.4253,1.80274-.4253,4.01172s.06836,3.4336.4253,4.01172a.97542.97542,0,0,0,.90088.459.96539.96539,0,0,0,.90088-.44141,2.38,2.38,0,0,0,.28906-1.19141h1.90381A3.62928,3.62928,0,0,1,74.81055,550.2168Z" style="fill:#fff"/><path d="M80.67529,540.46094V550.8457H78.77148V540.46094H76.74854v-1.7168h5.9663v1.7168Z" style="fill:#fff"/><path d="M88.64844,550.8457l-1.58106-4.96289h-1.0708v4.96289H84.09277V538.74414h3.05957c2.21,0,3.09375,1.07031,3.09375,3.56836,0,1.49609-.30615,2.56641-1.41113,3.16211l1.80225,5.37109Zm-1.479-10.38476H85.99658V544.166h1.17285c1.02,0,1.17286-.84961,1.17286-1.85352C88.34229,541.31055,88.18945,540.46094,87.16943,540.46094Z" style="fill:#fff"/><path d="M92.21875,550.8457V538.74414h1.90381V550.8457Z" style="fill:#fff"/><path d="M101.16016,550.2168a2.91848,2.91848,0,0,1-2.09082.76562,2.88725,2.88725,0,0,1-2.34571-1.01953c-.90136-1.01953-.88427-2.77148-.88427-5.15039,0-2.38086-.01709-4.166.88427-5.18555a3.21964,3.21964,0,0,1,4.45313-.23828,3.63487,3.63487,0,0,1,.96924,2.55078h-1.90381a2.31219,2.31219,0,0,0-.28906-1.17382.93608.93608,0,0,0-.88379-.44141.97544.97544,0,0,0-.90088.459c-.35694.57813-.4253,1.80274-.4253,4.01172s.06836,3.4336.4253,4.01172a.97542.97542,0,0,0,.90088.459.96536.96536,0,0,0,.90087-.44141,2.37988,2.37988,0,0,0,.28907-1.19141h1.90381A3.62928,3.62928,0,0,1,101.16016,550.2168Z" style="fill:#fff"/><path d="M108.60547,550.8457l-.49268-2.39648h-2.80468l-.47608,2.39648h-2.00586l2.97461-12.10156h1.853l2.94043,12.10156Zm-1.88672-9.17773-1.03662,5.06445h2.07373Z" style="fill:#fff"/><path d="M111.71729,550.8457V538.74414h1.9038v10.38477h3.17871v1.71679Z" style="fill:#fff"/><path d="M126.26855,550.2168a2.91845,2.91845,0,0,1-2.09082.76562,2.88723,2.88723,0,0,1-2.3457-1.01953c-.90137-1.01953-.88428-2.77148-.88428-5.15039,0-2.38086-.01709-4.166.88428-5.18555a3.21964,3.21964,0,0,1,4.45313-.23828,3.63486,3.63486,0,0,1,.96923,2.55078h-1.9038a2.31209,2.31209,0,0,0-.28907-1.17382.93606.93606,0,0,0-.88379-.44141.97543.97543,0,0,0-.90087.459c-.35694.57813-.4253,1.80274-.4253,4.01172s.06836,3.4336.4253,4.01172a.97542.97542,0,0,0,.90087.459.96536.96536,0,0,0,.90088-.44141,2.37988,2.37988,0,0,0,.28907-1.19141h1.9038A3.62924,3.62924,0,0,1,126.26855,550.2168Z" style="fill:#fff"/><path d="M134.12207,549.96289a3.20823,3.20823,0,0,1-4.69141,0c-.90136-1.01953-.88427-2.78906-.88427-5.168s-.01709-4.14844.88427-5.168a3.20823,3.20823,0,0,1,4.69141,0c.90088,1.01953.88379,2.78907.88379,5.168S135.023,548.94336,134.12207,549.96289Zm-1.42773-9.17969a1.00578,1.00578,0,0,0-.918-.459.97544.97544,0,0,0-.90088.459c-.35694.57813-.42529,1.80274-.42529,4.01172s.06835,3.4336.42529,4.01172a.97542.97542,0,0,0,.90088.459,1.00577,1.00577,0,0,0,.918-.459c.35693-.57812.40771-1.80273.40771-4.01172S133.05127,541.36133,132.69434,540.7832Z" style="fill:#fff"/><path d="M136.72363,550.8457V538.74414h1.90381v10.38477h3.17871v1.71679Z" style="fill:#fff"/><path d="M148.48682,549.96289a3.20823,3.20823,0,0,1-4.69141,0c-.90088-1.01953-.88428-2.78906-.88428-5.168s-.0166-4.14844.88428-5.168a3.20823,3.20823,0,0,1,4.69141,0c.90088,1.01953.88379,2.78907.88379,5.168S149.3877,548.94336,148.48682,549.96289Zm-1.42774-9.17969a1.00577,1.00577,0,0,0-.918-.459.97546.97546,0,0,0-.90088.459c-.35693.57813-.42529,1.80274-.42529,4.01172s.06836,3.4336.42529,4.01172a.97544.97544,0,0,0,.90088.459,1.00576,1.00576,0,0,0,.918-.459c.35694-.57812.40772-1.80273.40772-4.01172S147.416,541.36133,147.05908,540.7832Z" style="fill:#fff"/><path d="M155.64355,550.8457l-1.58056-4.96289h-1.0708v4.96289h-1.90381V538.74414H154.148c2.21,0,3.09375,1.07031,3.09375,3.56836,0,1.49609-.30615,2.56641-1.41113,3.16211l1.80224,5.37109ZM154.165,540.46094h-1.17285V544.166H154.165c1.02,0,1.17285-.84961,1.17285-1.85352C155.33789,541.31055,155.18506,540.46094,154.165,540.46094Z" style="fill:#fff"/><path d="M162.25684,550.8457V538.74414h1.9038v10.38477h3.17872v1.71679Z" style="fill:#fff"/><path d="M168.76807,550.8457V538.74414h5.08252v1.7168h-3.17871v3.43359h2.73681v1.7168h-2.73681v3.51758h3.17871v1.71679Z" style="fill:#fff"/><path d="M178.40625,550.98242a2.88721,2.88721,0,0,1-2.3457-1.01953c-.90137-1.01953-.88428-2.78906-.88428-5.168s-.01709-4.14844.88428-5.168a2.88724,2.88724,0,0,1,2.3457-1.01953,2.93677,2.93677,0,0,1,2.15869.81641A3.72505,3.72505,0,0,1,181.5,541.957h-1.90381c-.01709-.68164-.17041-1.63281-1.18994-1.63281a.97545.97545,0,0,0-.90088.459c-.35693.57813-.42529,1.80274-.42529,4.01172s.06836,3.4336.42529,4.01172a.97543.97543,0,0,0,.90088.459c.81592,0,1.18994-.71485,1.18994-1.54688V545.832h-1.18994v-1.56445H181.5v3.34961C181.5,549.80859,180.208,550.98242,178.40625,550.98242Z" style="fill:#fff"/><path d="M183.23438,550.8457V538.74414h5.08251v1.7168h-3.17871v3.43359H187.875v1.7168h-2.73682v3.51758h3.17871v1.71679Z" style="fill:#fff"/><path d="M194.72559,550.8457l-2.85547-7.18945v7.18945h-1.90381V538.74414H191.666l2.83886,7.18945v-7.18945h1.90381V550.8457Z" style="fill:#fff"/><path d="M203.87158,549.84375a2.90812,2.90812,0,0,1-2.3457,1.00195h-3.07666V538.74414h3.07666a2.90815,2.90815,0,0,1,2.3457,1.00195c.90088,1.00391.88379,2.72071.88379,5.04883S204.77246,548.83984,203.87158,549.84375Zm-1.42773-8.89062a1.10023,1.10023,0,0,0-.96924-.49219H200.353v8.668h1.12158a1.10026,1.10026,0,0,0,.96924-.49219c.35693-.56055.40771-1.75195.40771-3.85938S202.80078,541.51367,202.44385,540.95313Z" style="fill:#fff"/><path d="M212.28613,547.93945a2.77051,2.77051,0,1,1,2.771-2.77148A2.77081,2.77081,0,0,1,212.28613,547.93945Z" style="fill:#fff"/><line x1="227.04314" y1="528.68593" x2="816.73603" y2="528.68593" style="fill:none;stroke:#fff;stroke-miterlimit:10;stroke-width:0.25px"/><line x1="227.04314" y1="511.75465" x2="806.36258" y2="511.75465" style="fill:none;stroke:#fff;stroke-miterlimit:10;stroke-width:0.25px"/><line x1="227.04314" y1="545.6172" x2="819.74273" y2="545.6172" style="fill:none;stroke:#fff;stroke-miterlimit:10;stroke-width:0.25px"/><line x1="227.04314" y1="562.62508" x2="816.75844" y2="562.62508" style="fill:none;stroke:#fff;stroke-miterlimit:10;stroke-width:0.25px"/><line x1="227.04314" y1="579.63295" x2="805.90507" y2="579.63295" style="fill:none;stroke:#fff;stroke-miterlimit:10;stroke-width:0.25px"/><path d="M647.92613,42.57769a21.29,21.29,0,0,0,0-42.5799H197.04533a21.29,21.29,0,1,0,0,42.5799Z" style="fill:#292c31"/><path d="M333.3291,25.31543a3.14182,3.14182,0,0,1-2.22461.75293,3.01162,3.01162,0,0,1-2.209-.75293,3.14458,3.14458,0,0,1-.73633-2.44824h1.792a1.81061,1.81061,0,0,0,.32031,1.28027,1.08648,1.08648,0,0,0,.833.30371,1.053,1.053,0,0,0,.86426-.32031,1.82658,1.82658,0,0,0,.30371-1.26367c0-1.2168-.19238-1.52051-1.07226-1.873l-1.36036-.56055c-1.15234-.47949-1.585-1.10449-1.585-2.86523a3.1112,3.1112,0,0,1,.92871-2.417,2.86818,2.86818,0,0,1,1.95215-.6875,2.82347,2.82347,0,0,1,2.04883.6875,3.25372,3.25372,0,0,1,.80078,2.48144h-1.793a1.88987,1.88987,0,0,0-.27246-1.21679.94255.94255,0,0,0-.7998-.33594.95851.95851,0,0,0-.76856.32031,1.7028,1.7028,0,0,0-.30371,1.12012c0,.92871.14356,1.21679.94434,1.53711l1.34472.54394c1.36036.56055,1.72852,1.28028,1.72852,3.20117A3.24862,3.24862,0,0,1,333.3291,25.31543Z" style="fill:#fff"/><path d="M340.19336,25.95605l-.46484-2.25683h-2.64063l-.44824,2.25683H334.751l2.80078-11.39648h1.74512l2.76855,11.39648ZM338.416,17.3125l-.97559,4.76953h1.95215Z" style="fill:#fff"/><path d="M348.97656,25.95605V18.84961l-1.55176,4.67383h-.99316l-1.52051-4.59375v7.02636h-1.793V14.55957h1.61719l2.209,5.98633,2.19238-5.98633h1.63281V25.95605Z" style="fill:#fff"/><path d="M357.45605,25.31543a3.14178,3.14178,0,0,1-2.2246.75293,3.01163,3.01163,0,0,1-2.209-.75293,3.14458,3.14458,0,0,1-.73633-2.44824h1.792a1.81056,1.81056,0,0,0,.32031,1.28027,1.08645,1.08645,0,0,0,.833.30371,1.053,1.053,0,0,0,.86425-.32031,1.82658,1.82658,0,0,0,.30371-1.26367c0-1.2168-.19238-1.52051-1.07226-1.873l-1.36035-.56055c-1.15235-.47949-1.585-1.10449-1.585-2.86523a3.1112,3.1112,0,0,1,.92871-2.417,2.86814,2.86814,0,0,1,1.95215-.6875,2.82344,2.82344,0,0,1,2.04882.6875,3.25368,3.25368,0,0,1,.80078,2.48144h-1.793a1.88993,1.88993,0,0,0-.27246-1.21679.94257.94257,0,0,0-.79981-.33594.95851.95851,0,0,0-.76855.32031,1.7028,1.7028,0,0,0-.30372,1.12012c0,.92871.14356,1.21679.94434,1.53711l1.34473.54394c1.36035.56055,1.72851,1.28028,1.72851,3.20117A3.24859,3.24859,0,0,1,357.45605,25.31543Z" style="fill:#fff"/><path d="M364.68848,25.252a2.83775,2.83775,0,0,1-2.11328.832,2.87344,2.87344,0,0,1-2.12891-.832,2.94469,2.94469,0,0,1-.78418-2.09668v-8.5957h1.793V23.251a1.09448,1.09448,0,0,0,1.12012,1.21679,1.08354,1.08354,0,0,0,1.10449-1.21679V14.55957h1.793v8.5957A2.94469,2.94469,0,0,1,364.68848,25.252Z" style="fill:#fff"/><path d="M371.77637,25.95605l-2.68946-6.7705v6.7705h-1.793V14.55957h1.60156l2.67285,6.77051V14.55957h1.792V25.95605Z" style="fill:#fff"/><path d="M378.01465,26.084a2.72232,2.72232,0,0,1-2.209-.96c-.84765-.96093-.832-2.625-.832-4.86621s-.01562-3.90527.832-4.86621a2.72235,2.72235,0,0,1,2.209-.96,2.76331,2.76331,0,0,1,2.0332.76856,3.49973,3.49973,0,0,1,.87988,2.38476h-1.792c-.0166-.64062-.16015-1.53711-1.12109-1.53711a.915.915,0,0,0-.84766.43262c-.33691.54394-.40039,1.69629-.40039,3.77734s.06348,3.2334.40039,3.77735a.91692.91692,0,0,0,.84766.43261c.76855,0,1.12109-.67285,1.12109-1.457V21.23438h-1.12109V19.76172h2.91308V22.915C380.92773,24.97949,379.71191,26.084,378.01465,26.084Z" style="fill:#fff"/><path d="M390.19141,25.31543a3.14182,3.14182,0,0,1-2.22461.75293,3.01163,3.01163,0,0,1-2.209-.75293,3.14458,3.14458,0,0,1-.73633-2.44824h1.792a1.81056,1.81056,0,0,0,.32031,1.28027,1.08648,1.08648,0,0,0,.833.30371,1.053,1.053,0,0,0,.86425-.32031,1.82144,1.82144,0,0,0,.30372-1.26367c0-1.2168-.19239-1.52051-1.07227-1.873l-1.36035-.56055c-1.15235-.47949-1.585-1.10449-1.585-2.86523a3.1112,3.1112,0,0,1,.92871-2.417,2.86814,2.86814,0,0,1,1.95215-.6875,2.82348,2.82348,0,0,1,2.04883.6875,3.25372,3.25372,0,0,1,.80078,2.48144h-1.793a1.88993,1.88993,0,0,0-.27246-1.21679.94257.94257,0,0,0-.79981-.33594.95851.95851,0,0,0-.76855.32031,1.7028,1.7028,0,0,0-.30371,1.12012c0,.92871.14355,1.21679.94433,1.53711l1.34473.54394c1.36035.56055,1.72851,1.28028,1.72851,3.20117A3.24862,3.24862,0,0,1,390.19141,25.31543Z" style="fill:#fff"/><path d="M398.35156,25.95605V18.84961l-1.55176,4.67383h-.99316l-1.52051-4.59375v7.02636h-1.793V14.55957h1.61719l2.209,5.98633,2.19238-5.98633h1.63281V25.95605Z" style="fill:#fff"/><path d="M401.85254,22.14648V20.53027h3.2334v1.61621Z" style="fill:#fff"/><path d="M411.34375,25.95605l-.46484-2.25683h-2.64063L407.79,25.95605h-1.88867l2.80078-11.39648h1.74512l2.76855,11.39648Zm-1.77734-8.64355-.97559,4.76953H410.543Z" style="fill:#fff"/><path d="M418.335,25.37988a2.55313,2.55313,0,0,1-1.80859.7041,2.62787,2.62787,0,0,1-1.8252-.65625,2.4311,2.4311,0,0,1-.7207-1.90429v-.56055h1.69726v.78418c0,.68848.36817.99219.84864.99219a.68955.68955,0,0,0,.624-.30371,4.72442,4.72442,0,0,0,.25586-2.16114,4.62469,4.62469,0,0,0-.22363-2.0166.73177.73177,0,0,0-.65625-.35254.86358.86358,0,0,0-.84864.97657v.24023h-1.61718v-6.5625h4.91406v1.52051h-3.36133V19.1377a2.12618,2.12618,0,0,1,.59277-.54493,1.76765,1.76765,0,0,1,.81641-.208,1.78576,1.78576,0,0,1,1.53613.68847c.48047.5918.54395,1.64844.54395,3.041C419.10254,23.61914,419.08691,24.62793,418.335,25.37988Z" style="fill:#fff"/><path d="M420.47656,25.95605V24.51563l2.84961-5.53809a4.44051,4.44051,0,0,0,.46387-2.0332c0-.65625-.35156-.99219-.81641-.99219-.46386,0-.84765.32031-.84765.97656V17.665h-1.69727v-.67285a2.39048,2.39048,0,0,1,.7041-1.88867,2.71491,2.71491,0,0,1,1.84082-.67188,2.48734,2.48734,0,0,1,1.76075.6084,2.56911,2.56911,0,0,1,.75292,1.96875,5.765,5.765,0,0,1-.625,2.49707l-2.57617,4.92969h3.20117v1.5205Z" style="fill:#fff"/><path d="M431.166,25.41211a2.603,2.603,0,0,1-1.8086.67187,2.64312,2.64312,0,0,1-1.82519-.67187,2.39638,2.39638,0,0,1-.72071-1.88867V16.99219a2.39636,2.39636,0,0,1,.72071-1.88867,2.64313,2.64313,0,0,1,1.82519-.67188,2.603,2.603,0,0,1,1.8086.67188,2.396,2.396,0,0,1,.71972,1.88867v6.53125A2.396,2.396,0,0,1,431.166,25.41211Zm-.97657-8.4834c0-.65625-.36816-.97656-.832-.97656a.85489.85489,0,0,0-.84863.97656v6.6582a.85489.85489,0,0,0,.84863.97657c.46387,0,.832-.32032.832-.97657Z" style="fill:#fff"/><path d="M435.96387,24.99609v-1.873l3.25-1.84082-3.25-1.84082V17.585l5.33008,3.10449V21.874Z" style="fill:#fff"/><path d="M449.85449,25.33984a2.48234,2.48234,0,0,1-1.84961.72852,2.51357,2.51357,0,0,1-1.86328-.72852,2.57925,2.57925,0,0,1-.68555-1.835V15.98242h1.56836v7.60645a.958.958,0,0,0,.98047,1.06445.94846.94846,0,0,0,.9668-1.06445V15.98242H450.54v7.52246A2.57921,2.57921,0,0,1,449.85449,25.33984Z" style="fill:#fff"/><path d="M456.30762,25.39551a2.74823,2.74823,0,0,1-1.94727.6582,2.63436,2.63436,0,0,1-1.93262-.6582,2.75337,2.75337,0,0,1-.64453-2.14258h1.56934a1.584,1.584,0,0,0,.2793,1.12012.95.95,0,0,0,.72851.2666.92575.92575,0,0,0,.75684-.28027,1.59731,1.59731,0,0,0,.26562-1.10645c0-1.06445-.168-1.331-.93847-1.63965l-1.19043-.49023c-1.00879-.41992-1.38672-.96582-1.38672-2.50684a2.72593,2.72593,0,0,1,.8125-2.11523,2.51123,2.51123,0,0,1,1.709-.60254,2.47064,2.47064,0,0,1,1.793.60254,2.84692,2.84692,0,0,1,.7002,2.1709h-1.56836a1.655,1.655,0,0,0-.23828-1.06446.8281.8281,0,0,0-.7002-.29394.84115.84115,0,0,0-.67285.28027,1.49185,1.49185,0,0,0-.26563.98047c0,.8125.126,1.06445.82618,1.34473l1.17675.47656c1.19043.49023,1.5127,1.12012,1.5127,2.80078A2.84637,2.84637,0,0,1,456.30762,25.39551Z" style="fill:#fff"/><path d="M462.76172,25.32617a2.56634,2.56634,0,0,1-1.96192.62988h-2.47851V15.98242h2.49316a2.58183,2.58183,0,0,1,1.94727.61621,2.84343,2.84343,0,0,1,.61621,2.10157,2.17671,2.17671,0,0,1-.51855,1.68066,1.61261,1.61261,0,0,1-.51856.35059,1.43636,1.43636,0,0,1,.53223.36425A2.726,2.726,0,0,1,463.40527,23,3.13343,3.13343,0,0,1,462.76172,25.32617Zm-2.12988-7.92871h-.74219v2.70313h.74219c.82714,0,1.17675-.40625,1.17675-1.3584C461.80859,17.7334,461.47266,17.39746,460.63184,17.39746Zm.01464,4.03418h-.75683V24.541h.75683c.8545,0,1.19043-.39161,1.19043-1.55469C461.83691,21.87988,461.48633,21.43164,460.64648,21.43164Z" style="fill:#fff"/><path d="M470.125,17.39746v8.55859h-1.56934V17.39746h-1.667v-1.415h4.917v1.415Z" style="fill:#fff"/><path d="M476.06055,22.04785v3.9082h-1.56934v-3.9082l-1.93262-6.06543h1.73731l.98047,3.9502.99414-3.9502h1.72265Z" style="fill:#fff"/><path d="M481.35156,22.06152h-.93847v3.89453h-1.56836V15.98242h2.50683c1.80762,0,2.56348.93848,2.56348,3.02637C483.915,21.02539,483.24316,22.06152,481.35156,22.06152Zm.02832-4.66406h-.96679v3.25h.96679c.83985,0,.9668-.74219.9668-1.625S482.21973,17.39746,481.37988,17.39746Z" style="fill:#fff"/><path d="M485.27051,25.95605V15.98242h4.1875v1.415h-2.61914v2.8291h2.25488v1.415h-2.25488V24.541H489.458v1.415Z" style="fill:#fff"/><path d="M490.63184,22.62207V21.207h2.83007v1.415Z" style="fill:#fff"/><path d="M499.06348,25.4375a2.40941,2.40941,0,0,1-1.72364.63086,2.37905,2.37905,0,0,1-1.93261-.84082c-.74219-.83984-.72852-2.2832-.72852-4.24414s-.01367-3.43164.72852-4.27246a2.65169,2.65169,0,0,1,3.66992-.19629,2.99346,2.99346,0,0,1,.79883,2.10156h-1.56934a1.89827,1.89827,0,0,0-.23828-.9668.77109.77109,0,0,0-.72852-.36425.80445.80445,0,0,0-.74218.37793c-.29395.47656-.34961,1.48535-.34961,3.30664,0,1.82031.05566,2.8291.34961,3.30566a.80447.80447,0,0,0,.74218.37793.79536.79536,0,0,0,.74317-.36426,1.9507,1.9507,0,0,0,.2373-.98047h1.56934A2.9912,2.9912,0,0,1,499.06348,25.4375Z" style="fill:#fff"/><path d="M503.52637,25.95605V24.69531l2.49316-4.84668a3.87378,3.87378,0,0,0,.40625-1.77929c0-.57422-.30762-.86817-.71387-.86817a.748.748,0,0,0-.74218.85449v.64454h-1.48535v-.5879a2.09353,2.09353,0,0,1,.61621-1.65332,2.37551,2.37551,0,0,1,1.61132-.58886,2.17665,2.17665,0,0,1,1.541.5332,2.249,2.249,0,0,1,.6582,1.72266,5.03689,5.03689,0,0,1-.54687,2.18457L505.10938,24.625h2.80175v1.33105Z" style="fill:#fff"/><path d="M509.26563,25.95605V24.2334h1.72363v1.72265Z" style="fill:#fff"/><path d="M516.15625,25.47949a2.27433,2.27433,0,0,1-1.583.58887,2.30879,2.30879,0,0,1-1.59668-.58887,2.09459,2.09459,0,0,1-.63086-1.65234V18.1123a2.09543,2.09543,0,0,1,.63086-1.65332,2.31333,2.31333,0,0,1,1.59668-.58886,2.27879,2.27879,0,0,1,1.583.58886,2.09507,2.09507,0,0,1,.62988,1.65332v5.71485A2.09423,2.09423,0,0,1,516.15625,25.47949Zm-.85449-7.42383c0-.57421-.32227-.85449-.72852-.85449a.748.748,0,0,0-.74219.85449v5.82715a.748.748,0,0,0,.74219.85449c.40625,0,.72852-.28027.72852-.85449Z" style="fill:#fff"/><path d="M260.91014,507.94315h0a4.3449,4.3449,0,0,1-4.34485-4.3449h0a4.34487,4.34487,0,0,1,4.34485-4.34489h0a4.34486,4.34486,0,0,1,4.34485,4.34489h0A4.3449,4.3449,0,0,1,260.91014,507.94315Z" style="fill:#02b731;fill-rule:evenodd"/><rect x="256.56525" y="515.54032" width="8.68975" height="8.68975" rx="4.34487" style="fill:#02ff00"/><path d="M260.91014,541.48354h0a4.3449,4.3449,0,0,1-4.34485-4.34489h0a4.34488,4.34488,0,0,1,4.34485-4.3449h0a4.34487,4.34487,0,0,1,4.34485,4.3449h0A4.3449,4.3449,0,0,1,260.91014,541.48354Z" style="fill:#ff0;fill-rule:evenodd"/><rect x="256.56525" y="549.08072" width="8.68975" height="8.68975" rx="4.34487" style="fill:#b3ff1f"/><path d="M260.91014,575.49929h0a4.3449,4.3449,0,0,1-4.34485-4.3449h0a4.34487,4.34487,0,0,1,4.34485-4.34489h0a4.34486,4.34486,0,0,1,4.34485,4.34489h0A4.3449,4.3449,0,0,1,260.91014,575.49929Z" style="fill:red;fill-rule:evenodd"/><rect x="256.56525" y="583.09646" width="8.68975" height="8.68975" rx="4.34487" style="fill:#ff0079"/><path d="M275.85693,505.88086v-3.0625L275.188,504.832h-.42774l-.65478-1.97851v3.02734H273.333V500.9707h.69629l.95166,2.5791.94482-2.5791h.70361v4.91016Z"/><path d="M279.583,505.57715a1.22132,1.22132,0,0,1-.91016.3584,1.2373,1.2373,0,0,1-.91748-.3584,1.26827,1.26827,0,0,1-.33789-.90332V500.9707h.77246v3.74414a.47146.47146,0,0,0,.48291.52442.46658.46658,0,0,0,.47559-.52442V500.9707h.77246v3.70313A1.26827,1.26827,0,0,1,279.583,505.57715Z"/><path d="M280.709,505.88086V500.9707h.77247v4.91016Z"/><path d="M284.33691,505.626a1.184,1.184,0,0,1-.84814.30957,1.171,1.171,0,0,1-.95166-.41309c-.36572-.41406-.35889-1.124-.35889-2.08984s-.00683-1.69043.35889-2.10352a1.3051,1.3051,0,0,1,1.80664-.09668,1.47157,1.47157,0,0,1,.39355,1.03418h-.77246a.93746.93746,0,0,0-.11767-.47558.37954.37954,0,0,0-.3584-.17969.39654.39654,0,0,0-.36572.18652,7.769,7.769,0,0,0,0,3.25488.45756.45756,0,0,0,.73144.00782.96772.96772,0,0,0,.11719-.4834h.77246A1.47384,1.47384,0,0,1,284.33691,505.626Z"/><path d="M284.98,506.93652v-.53125h3.15186v.53125Z"/><path d="M290.74707,505.47363a1.17874,1.17874,0,0,1-.95166.40723h-1.24853V500.9707h1.24853a1.17831,1.17831,0,0,1,.95166.40625c.36572.40723.35889,1.10352.35889,2.04883C291.106,504.37012,291.11279,505.06738,290.74707,505.47363Zm-.5791-3.60644a.4472.4472,0,0,0-.39307-.2002h-.45556v3.51758h.45556a.44722.44722,0,0,0,.39307-.20019,3.65529,3.65529,0,0,0,.16553-1.56543A3.57581,3.57581,0,0,0,290.168,501.86719Z"/><path d="M291.38965,506.93652v-.53125h3.15185v.53125Z"/><path d="M296.8877,505.88086l-1.15821-2.917v2.917H294.957V500.9707h.68945l1.15186,2.917v-2.917h.77246v4.91016Z"/><path d="M275.85693,522.168v-3.0625l-.66894,2.01367h-.42774l-.65478-1.97851V522.168H273.333v-4.91016h.69629l.95166,2.5791.94482-2.5791h.70361V522.168Z"/><path d="M279.583,521.86426a1.22132,1.22132,0,0,1-.91016.3584,1.2373,1.2373,0,0,1-.91748-.3584,1.26829,1.26829,0,0,1-.33789-.90332v-3.70313h.77246V521.002a.47146.47146,0,0,0,.48291.52442.46658.46658,0,0,0,.47559-.52442v-3.74414h.77246v3.70313A1.26829,1.26829,0,0,1,279.583,521.86426Z"/><path d="M280.709,522.168v-4.91016h.77247V522.168Z"/><path d="M284.33691,521.91309a1.184,1.184,0,0,1-.84814.30957,1.171,1.171,0,0,1-.95166-.41309c-.36572-.41406-.35889-1.124-.35889-2.08984s-.00683-1.69043.35889-2.10352a1.3051,1.3051,0,0,1,1.80664-.09668,1.47157,1.47157,0,0,1,.39355,1.03418h-.77246a.93746.93746,0,0,0-.11767-.47558.37954.37954,0,0,0-.3584-.17969.39654.39654,0,0,0-.36572.18652,7.769,7.769,0,0,0,0,3.25488.45756.45756,0,0,0,.73144.00782.96772.96772,0,0,0,.11719-.4834h.77246A1.47384,1.47384,0,0,1,284.33691,521.91309Z"/><path d="M284.98,523.22363v-.53125h3.15186v.53125Z"/><path d="M290.74707,521.76074a1.17874,1.17874,0,0,1-.95166.40723h-1.24853v-4.91016h1.24853a1.17831,1.17831,0,0,1,.95166.40625c.36572.40723.35889,1.10352.35889,2.04883C291.106,520.65723,291.11279,521.35449,290.74707,521.76074Zm-.5791-3.60644a.4472.4472,0,0,0-.39307-.2002h-.45556v3.51758h.45556a.4472.4472,0,0,0,.39307-.2002,3.65523,3.65523,0,0,0,.16553-1.56543A3.57578,3.57578,0,0,0,290.168,518.1543Z"/><path d="M291.38965,523.22363v-.53125h3.15185v.53125Z"/><path d="M296.19141,520.251h-.46192v1.917H294.957v-4.91016h1.23438c.88964,0,1.2622.46192,1.2622,1.48926C297.45361,519.74023,297.12256,520.251,296.19141,520.251Zm.01367-2.29688h-.47559v1.59961h.47559c.41406,0,.47607-.36523.47607-.7998S296.61914,517.9541,296.20508,517.9541Z"/><path d="M275.36035,539.167a1.184,1.184,0,0,1-.84814.30957,1.171,1.171,0,0,1-.95166-.41308c-.36573-.41407-.35889-1.124-.35889-2.08985s-.00684-1.69043.35889-2.10351a1.30507,1.30507,0,0,1,1.80664-.09668,1.47157,1.47157,0,0,1,.39355,1.03418h-.77246a.9376.9376,0,0,0-.11767-.47559.37956.37956,0,0,0-.3584-.17969.39658.39658,0,0,0-.36573.18653,7.7694,7.7694,0,0,0,0,3.25488.45758.45758,0,0,0,.73145.00781.96772.96772,0,0,0,.11719-.4834h.77246A1.47383,1.47383,0,0,1,275.36035,539.167Z"/><path d="M278.44434,539.167a1.184,1.184,0,0,1-.84815.30957,1.171,1.171,0,0,1-.95166-.41308c-.36572-.41407-.35889-1.124-.35889-2.08985s-.00683-1.69043.35889-2.10351a1.30507,1.30507,0,0,1,1.80664-.09668,1.47157,1.47157,0,0,1,.39356,1.03418h-.77246a.9376.9376,0,0,0-.11768-.47559.37955.37955,0,0,0-.3584-.17969.39656.39656,0,0,0-.36572.18653,7.7694,7.7694,0,0,0,0,3.25488.45757.45757,0,0,0,.73144.00781.96761.96761,0,0,0,.11719-.4834h.77246A1.47386,1.47386,0,0,1,278.44434,539.167Z"/><path d="M280.30811,539.42188v-4.05567l-.7378.56543v-.82715l.7378-.59277h.731v4.91016Z"/><path d="M275.36035,555.4541a1.184,1.184,0,0,1-.84814.30957,1.171,1.171,0,0,1-.95166-.41308c-.36573-.41407-.35889-1.124-.35889-2.08985s-.00684-1.69043.35889-2.10351a1.30507,1.30507,0,0,1,1.80664-.09668,1.47157,1.47157,0,0,1,.39355,1.03418h-.77246a.9376.9376,0,0,0-.11767-.47559.37956.37956,0,0,0-.3584-.17969.39658.39658,0,0,0-.36573.18653,7.7694,7.7694,0,0,0,0,3.25488.45758.45758,0,0,0,.73145.00781.96772.96772,0,0,0,.11719-.4834h.77246A1.47383,1.47383,0,0,1,275.36035,555.4541Z"/><path d="M278.44434,555.4541a1.184,1.184,0,0,1-.84815.30957,1.171,1.171,0,0,1-.95166-.41308c-.36572-.41407-.35889-1.124-.35889-2.08985s-.00683-1.69043.35889-2.10351a1.30507,1.30507,0,0,1,1.80664-.09668,1.47157,1.47157,0,0,1,.39356,1.03418h-.77246a.9376.9376,0,0,0-.11768-.47559.37955.37955,0,0,0-.3584-.17969.39656.39656,0,0,0-.36572.18653,7.7694,7.7694,0,0,0,0,3.25488.45757.45757,0,0,0,.73144.00781.96761.96761,0,0,0,.11719-.4834h.77246A1.47386,1.47386,0,0,1,278.44434,555.4541Z"/><path d="M279.41162,555.709v-.62109l1.22754-2.38574a1.91171,1.91171,0,0,0,.2002-.876c0-.2832-.15186-.42773-.35206-.42773-.1997,0-.36523.13769-.36523.4209v.31738h-.73144v-.29a1.02665,1.02665,0,0,1,.30371-.81348,1.16719,1.16719,0,0,1,.793-.29,1.07582,1.07582,0,0,1,.75879.26172,1.109,1.109,0,0,1,.32422.84864,2.48412,2.48412,0,0,1-.269,1.07617l-1.11035,2.124h1.37939v.65527Z"/><path d="M274.82227,573.4375h-.79981l-1.07617-4.91016h.84863l.62744,3.72364.63477-3.72364h.84814Z"/><path d="M278.53418,573.127a1.26062,1.26062,0,0,1-.96533.31055h-1.22119v-4.91016h1.228a1.26944,1.26944,0,0,1,.9585.30274,1.39957,1.39957,0,0,1,.30371,1.03515,1.07063,1.07063,0,0,1-.25537.82715.79841.79841,0,0,1-.25537.17285.71134.71134,0,0,1,.26221.17872,1.34334,1.34334,0,0,1,.2622.93847A1.53889,1.53889,0,0,1,278.53418,573.127Zm-1.04834-3.90332h-.36572v1.33106h.36572c.40674,0,.57959-.2002.57959-.66895C278.06543,569.38867,277.8999,569.22363,277.48584,569.22363Zm.00684,1.98633h-.37256v1.53125h.37256c.42089,0,.58642-.19336.58642-.76562C278.0791,571.43066,277.90674,571.21,277.49268,571.21Z"/><path d="M281.729,573.13379a1.22166,1.22166,0,0,1-.91064.3584,1.23692,1.23692,0,0,1-.917-.3584,1.26827,1.26827,0,0,1-.33789-.90332v-3.70313h.77246v3.74414a.48119.48119,0,1,0,.95849,0v-3.74414h.77246v3.70313A1.26827,1.26827,0,0,1,281.729,573.13379Z"/><path d="M284.91016,573.16211a1.35824,1.35824,0,0,1-.959.32324,1.30288,1.30288,0,0,1-.95166-.32324,1.35921,1.35921,0,0,1-.31738-1.05566h.77246a.77974.77974,0,0,0,.13818.55175.46523.46523,0,0,0,.3584.13086.45341.45341,0,0,0,.37256-.13769.78624.78624,0,0,0,.13135-.54492c0-.52442-.083-.65528-.4624-.80665l-.58643-.24218c-.49609-.20606-.68262-.47559-.68262-1.23438a1.33987,1.33987,0,0,1,.39991-1.041,1.23493,1.23493,0,0,1,.84179-.29688,1.21693,1.21693,0,0,1,.88281.29688,1.40312,1.40312,0,0,1,.34473,1.06933h-.77246a.81432.81432,0,0,0-.11719-.52441.40658.40658,0,0,0-.34521-.14551.414.414,0,0,0-.33106.13867.73445.73445,0,0,0-.13086.48242c0,.4004.062.52442.40723.66211l.5791.23438c.58643.24121.74512.55176.74512,1.37988A1.40394,1.40394,0,0,1,284.91016,573.16211Z"/><path d="M285.49023,574.49316v-.53125h3.15186v.53125Z"/><path d="M289.05762,573.4375v-4.91016h.77246v4.91016Z"/><path d="M291.43066,569.22363v1.39258H292.541v.69727h-1.11036v2.124h-.77246v-4.91016h2.062v.69629Z"/><path d="M292.93555,574.49316v-.53125h3.15185v.53125Z"/><path d="M298.25391,573.18945a1.09768,1.09768,0,0,1-.7793.30274,1.13117,1.13117,0,0,1-.78613-.28223,1.04852,1.04852,0,0,1-.31055-.82129v-.24121h.73145v.33789c0,.29688.1582.42774.36523.42774a.2963.2963,0,0,0,.269-.13086,2.03233,2.03233,0,0,0,.11035-.93067,1.98559,1.98559,0,0,0-.09668-.86914.31507.31507,0,0,0-.28271-.15234.37207.37207,0,0,0-.36523.4209v.10351h-.69678v-2.82715h2.11719v.6543h-1.44825V570.499a.93346.93346,0,0,1,.25537-.23437.83123.83123,0,0,1,1.01368.207,2.22133,2.22133,0,0,1,.23437,1.31055C298.585,572.43066,298.57813,572.86523,298.25391,573.18945Z"/><path d="M300.50391,571.52051H300.042v1.917h-.77246v-4.91016h1.23438c.88964,0,1.2622.46192,1.2622,1.48926C301.76611,571.00977,301.43506,571.52051,300.50391,571.52051Zm.01367-2.29688H300.042v1.59961h.47559c.41406,0,.47607-.36523.47607-.7998S300.93164,569.22363,300.51758,569.22363Z"/><path d="M304.188,573.20313a1.11779,1.11779,0,0,1-.7793.28906,1.13587,1.13587,0,0,1-.78613-.28906,1.03273,1.03273,0,0,1-.31055-.81446V569.5752a1.029,1.029,0,0,1,.31055-.81348,1.13656,1.13656,0,0,1,.78613-.29,1.11848,1.11848,0,0,1,.7793.29,1.029,1.029,0,0,1,.31055.81348v2.81347A1.03273,1.03273,0,0,1,304.188,573.20313Zm-.42041-3.65528c0-.2832-.15869-.4209-.35889-.4209a.36857.36857,0,0,0-.36572.4209V572.417a.36907.36907,0,0,0,.36572.4209c.2002,0,.35889-.13867.35889-.4209Z"/><path d="M275.36035,589.46973a1.184,1.184,0,0,1-.84814.30957,1.171,1.171,0,0,1-.95166-.41309c-.36573-.41406-.35889-1.124-.35889-2.08984s-.00684-1.69043.35889-2.10352a1.3051,1.3051,0,0,1,1.80664-.09668,1.47157,1.47157,0,0,1,.39355,1.03418h-.77246a.93756.93756,0,0,0-.11767-.47558.37954.37954,0,0,0-.3584-.17969.39657.39657,0,0,0-.36573.18652,7.7694,7.7694,0,0,0,0,3.25488.45757.45757,0,0,0,.73145.00782.96772.96772,0,0,0,.11719-.4834h.77246A1.47384,1.47384,0,0,1,275.36035,589.46973Z"/><path d="M278.148,589.72461v-2.15234h-.9585v2.15234H276.417v-4.91016h.77246v2.06836h.9585v-2.06836h.77246v4.91016Z"/><path d="M280.9292,589.7793a1.171,1.171,0,0,1-.95166-.41309c-.36572-.41406-.35889-1.13183-.35889-2.09668,0-.96582-.00683-1.68359.35889-2.09668a1.17149,1.17149,0,0,1,.95166-.41406,1.19065,1.19065,0,0,1,.876.33105,1.5137,1.5137,0,0,1,.37939,1.02735h-.77246c-.00684-.27539-.06934-.66211-.48291-.66211a.39654.39654,0,0,0-.36572.18652,7.769,7.769,0,0,0,0,3.25488.39466.39466,0,0,0,.36572.18653c.33105,0,.48291-.28906.48291-.62793v-.76465h-.48291v-.63477h1.25537v1.3584A1.21665,1.21665,0,0,1,280.9292,589.7793Z"/><path d="M282.4751,590.78027V590.249H285.627v.53125Z"/><path d="M286.042,589.72461v-4.91016h.77246v4.91016Z"/><path d="M289.57422,589.72461l-1.15918-2.917v2.917h-.77246v-4.91016h.68994l1.15186,2.917v-2.917h.77246v4.91016Z"/><path d="M290.67236,590.78027V590.249h3.15186v.53125Z"/><path d="M295.99072,589.47656a1.09766,1.09766,0,0,1-.77929.30274,1.13118,1.13118,0,0,1-.78614-.28223,1.04851,1.04851,0,0,1-.31054-.82129v-.24121h.731v.33789c0,.29688.15869.42774.36573.42774a.29631.29631,0,0,0,.269-.13086,2.03235,2.03235,0,0,0,.11035-.93067,1.98559,1.98559,0,0,0-.09668-.86914.31508.31508,0,0,0-.28271-.15234.37241.37241,0,0,0-.36573.4209v.10351h-.69629v-2.82715h2.11719v.6543h-1.44824v1.31738a.93346.93346,0,0,1,.25537-.23437.83121.83121,0,0,1,1.01367.207,2.22132,2.22132,0,0,1,.23438,1.31055C296.32178,588.71777,296.31494,589.15234,295.99072,589.47656Z"/><path d="M298.49609,589.72461h-.80029l-1.07568-4.91016h.84814l.62744,3.72364.63477-3.72364h.84814Z"/><polyline points="454.67 190.412 460.371 190.412 460.371 192.351 507.888 192.351 507.888 447.52" style="fill:none;stroke:#ff0;stroke-linecap:round;stroke-linejoin:round;stroke-width:0.25px"/><polyline points="444.896 184.211 444.896 181.111 434.747 181.111 434.747 184.755 404.951 184.755 404.951 261.349 403.75 261.349 403.75 262.551" style="fill:none;stroke:#ff0079;stroke-linejoin:round;stroke-width:0.25px"/><polyline points="404.958 262.551 404.958 263.751 403.75 263.751 403.75 266.77 405.346 266.77 405.346 446.23 499.321 446.229 499.321 442.277 503.129 442.277 503.129 443.366 502.611 443.366 502.611 449.722 505.449 449.722 505.449 456.977 506.607 456.977 506.607 459.766 518.182 459.766 518.182 456.934 517.024 456.934" style="fill:none;stroke:red;stroke-linejoin:round;stroke-width:0.25px"/><path d="M518.5695,456.93422a.39554.39554,0,0,0-.38785-.38783.38627.38627,0,0,0-.38784.38783.39588.39588,0,0,0,.38784.38783.40607.40607,0,0,0,.38785-.38783" style="fill:red"/><path d="M517.41185,456.93422a.39518.39518,0,0,0-.38781-.38783.38594.38594,0,0,0-.38781.38783.39552.39552,0,0,0,.38781.38783.40568.40568,0,0,0,.38781-.38783" style="fill:red"/><path d="M515.22568,456.93422a.39518.39518,0,0,0-.38781-.38783.38594.38594,0,0,0-.38781.38783.39552.39552,0,0,0,.38781.38783.40568.40568,0,0,0,.38781-.38783" style="fill:#b3ff1f"/><path d="M506.99437,456.93422a.39551.39551,0,0,0-.38784-.38783.38625.38625,0,0,0-.38781.38783.39587.39587,0,0,0,.38781.38783.406.406,0,0,0,.38784-.38783" style="fill:red"/><path d="M505.83676,456.93422a.39552.39552,0,0,0-.38781-.38783.38551.38551,0,0,0-.38733.38783.39508.39508,0,0,0,.38733.38783.40606.40606,0,0,0,.38781-.38783" style="fill:red"/><path d="M502.99875,449.722a.39553.39553,0,0,0-.38781-.38784.38635.38635,0,0,0-.38832.38784.39562.39562,0,0,0,.38832.38783.40569.40569,0,0,0,.38781-.38783" style="fill:red"/><path d="M502.99875,445.02215a.39587.39587,0,0,0-.38781-.38783.38666.38666,0,0,0-.38832.38783.3956.3956,0,0,0,.38832.38782.40567.40567,0,0,0,.38781-.38782" style="fill:red"/><path d="M503.51715,442.27705a.39544.39544,0,0,0-.38733-.38784.38649.38649,0,0,0-.38883.38784.39608.39608,0,0,0,.38883.38783.406.406,0,0,0,.38733-.38783" style="fill:red"/><path d="M499.70833,442.27705a.39553.39553,0,0,0-.38781-.38784.38594.38594,0,0,0-.38781.38784.39552.39552,0,0,0,.38781.38783.40606.40606,0,0,0,.38781-.38783" style="fill:red"/><path d="M499.70833,446.22964a.39553.39553,0,0,0-.38781-.38783.38594.38594,0,0,0-.38781.38783.39552.39552,0,0,0,.38781.38784.40606.40606,0,0,0,.38781-.38784" style="fill:red"/><path d="M405.73409,269.007a.39585.39585,0,0,0-.38782-.38782.38666.38666,0,0,0-.38832.38782.396.396,0,0,0,.38832.38784.406.406,0,0,0,.38782-.38784" style="fill:red"/><path d="M405.33936,261.35036a.39639.39639,0,0,0-.38832-.38831.38666.38666,0,0,0-.38782.38831.39587.39587,0,0,0,.38782.38785.40652.40652,0,0,0,.38832-.38785" style="fill:#ff0079"/><path d="M404.13823,262.5515a.3964.3964,0,0,0-.38832-.38832.38667.38667,0,0,0-.38783.38832.39587.39587,0,0,0,.38783.38784.40651.40651,0,0,0,.38832-.38784" style="fill:#ff0079"/><path d="M404.13823,261.34912a.39639.39639,0,0,0-.38832-.38831.38667.38667,0,0,0-.38783.38831.39587.39587,0,0,0,.38783.38784.40651.40651,0,0,0,.38832-.38784" style="fill:#ff0079"/><path d="M405.33936,258.0917a.39628.39628,0,0,0-.38832-.38782.38654.38654,0,0,0-.38782.38782.39584.39584,0,0,0,.38782.38781.40649.40649,0,0,0,.38832-.38781" style="fill:#ff0079"/><path d="M405.73409,266.77005a.39587.39587,0,0,0-.38782-.38784.38668.38668,0,0,0-.38832.38784.39594.39594,0,0,0,.38832.38781.406.406,0,0,0,.38782-.38781" style="fill:red"/><path d="M404.13823,263.75115a.39639.39639,0,0,0-.38831-.38832.38668.38668,0,0,0-.38784.38832.39588.39588,0,0,0,.38784.38784.4065.4065,0,0,0,.38831-.38784" style="fill:red"/><path d="M405.33936,263.75115a.39639.39639,0,0,0-.38831-.38832.38667.38667,0,0,0-.38783.38832.39587.39587,0,0,0,.38783.38784.4065.4065,0,0,0,.38831-.38784" style="fill:red"/><path d="M405.33936,262.55076a.39639.39639,0,0,0-.38831-.38832.38667.38667,0,0,0-.38783.38832.39587.39587,0,0,0,.38783.38784.4065.4065,0,0,0,.38831-.38784" style="fill:red"/><path d="M435.1346,184.75545a.39594.39594,0,0,0-.38781-.38832.38633.38633,0,0,0-.38782.38832.39551.39551,0,0,0,.38782.38784.406.406,0,0,0,.38781-.38784" style="fill:#ff0079"/><path d="M435.1346,181.11146a.39586.39586,0,0,0-.38781-.38784.38624.38624,0,0,0-.38782.38784.39548.39548,0,0,0,.38782.38781.406.406,0,0,0,.38781-.38781" style="fill:#ff0079"/><path d="M439.03485,181.11146a.39551.39551,0,0,0-.38781-.38784.38625.38625,0,0,0-.38781.38784.39549.39549,0,0,0,.38781.38781.40563.40563,0,0,0,.38781-.38781" style="fill:#ff0079"/><path d="M445.28371,182.95313a.39551.39551,0,0,0-.38781-.38784.38625.38625,0,0,0-.38781.38784.3955.3955,0,0,0,.38781.38781.40563.40563,0,0,0,.38781-.38781" style="fill:#ff0079"/><path d="M445.28371,184.19632a.39551.39551,0,0,0-.38781-.38784.38625.38625,0,0,0-.38781.38784.3955.3955,0,0,0,.38781.38781.40563.40563,0,0,0,.38781-.38781" style="fill:#ff0079"/><path d="M511.62431,456.93422a.39584.39584,0,0,0-.38781-.38783.38624.38624,0,0,0-.38781.38783.39519.39519,0,0,0,.38781.38783.40567.40567,0,0,0,.38781-.38783" style="fill:#02b731"/><path d="M513.1634,456.93422a.396.396,0,0,1,.38832-.38783.38623.38623,0,0,1,.38781.38783.39585.39585,0,0,1-.38781.38783.4065.4065,0,0,1-.38832-.38783" style="fill:#02ff00"/><path d="M512.78243,456.93422a.396.396,0,0,0-.38832-.38783.38657.38657,0,0,0-.38784.38783.39554.39554,0,0,0,.38784.38783.40578.40578,0,0,0,.38832-.38783" style="fill:#02b731"/><path d="M515.23114,453.57193a.39553.39553,0,0,1,.38784-.38784.38624.38624,0,0,1,.38781.38784.39583.39583,0,0,1-.38781.38781.406.406,0,0,1-.38784-.38781" style="fill:#02ff00"/><path d="M517.90339,452.42207a.396.396,0,0,1,.3888-.38781.38654.38654,0,0,1,.38781.38781.3962.3962,0,0,1-.38781.38783.40657.40657,0,0,1-.3888-.38783" style="fill:#02ff00"/><path d="M517.90339,450.30006a.396.396,0,0,1,.3888-.38782.38656.38656,0,0,1,.38781.38782.3962.3962,0,0,1-.38781.38784.40658.40658,0,0,1-.3888-.38784" style="fill:#02ff00"/><path d="M513.74879,453.57193a.39562.39562,0,0,0-.38829-.38784.38657.38657,0,0,0-.38784.38784.39553.39553,0,0,0,.38784.38781.40538.40538,0,0,0,.38829-.38781" style="fill:#02b731"/><path d="M514.32785,449.29117a.396.396,0,0,0-.38832-.38783.38624.38624,0,0,0-.38781.38783.3955.3955,0,0,0,.38781.38782.40612.40612,0,0,0,.38832-.38782" style="fill:#02b731"/><path d="M516.55212,449.29117a.39563.39563,0,0,0-.38835-.38783.38626.38626,0,0,0-.38781.38783.39552.39552,0,0,0,.38781.38782.40576.40576,0,0,0,.38835-.38782" style="fill:#02b731"/><polyline points="516.164 449.291 516.164 187.926 454.67 187.926" style="fill:none;stroke:#02b731;stroke-linejoin:round;stroke-width:0.25px"/><polyline points="511.237 456.934 512.394 456.934 512.394 453.572 513.361 453.572 513.361 449.291 513.94 449.291" style="fill:none;stroke:#02b731;stroke-linejoin:round;stroke-width:0.25px"/><polyline points="518.292 450.3 518.292 189.19 454.67 189.19" style="fill:none;stroke:#02ff00;stroke-linejoin:round;stroke-width:0.25px"/><polyline points="510.079 456.934 510.079 459.012 513.551 459.012 513.551 459.012 515.619 459.012 515.619 453.572 518.292 453.572 518.292 452.422" style="fill:none;stroke:#02ff00;stroke-linejoin:round;stroke-width:0.25px"/><path d="M509.69108,456.93422a.3956.3956,0,0,1,.38831-.38783.38625.38625,0,0,1,.38781.38783.39587.39587,0,0,1-.38781.38783.40612.40612,0,0,1-.38831-.38783" style="fill:#02ff00"/><path d="M508.602,456.93422a.3956.3956,0,0,1,.38832-.38783.38625.38625,0,0,1,.38781.38783.39587.39587,0,0,1-.38781.38783.40612.40612,0,0,1-.38832-.38783" style="fill:#ff0"/><path d="M510.94773,452.42208a.3956.3956,0,0,1,.38831-.38783.38625.38625,0,0,1,.38781.38783.39587.39587,0,0,1-.38781.38783.40612.40612,0,0,1-.38831-.38783" style="fill:#ff0"/><path d="M510.94773,449.722a.3956.3956,0,0,1,.38831-.38783.38625.38625,0,0,1,.38781.38783.39587.39587,0,0,1-.38781.38783.40612.40612,0,0,1-.38831-.38783" style="fill:#ff0"/><path d="M510.94773,447.5199a.3956.3956,0,0,1,.38831-.38783.38625.38625,0,0,1,.38781.38783.39586.39586,0,0,1-.38781.38783.40611.40611,0,0,1-.38831-.38783" style="fill:#ff0"/><path d="M455.16176,187.91089a.396.396,0,0,0-.38784-.38832.38637.38637,0,0,0-.38781.38832.39554.39554,0,0,0,.38781.38784.406.406,0,0,0,.38784-.38784" style="fill:#02b731"/><path d="M455.16176,189.16917a.396.396,0,0,0-.38784-.38832.38637.38637,0,0,0-.38781.38832.39555.39555,0,0,0,.38781.38784.406.406,0,0,0,.38784-.38784" style="fill:#02ff00"/><path d="M455.16176,190.41237a.396.396,0,0,0-.38784-.38832.38637.38637,0,0,0-.38781.38832.39554.39554,0,0,0,.38781.38784.406.406,0,0,0,.38784-.38784" style="fill:#ff0"/><path d="M453.91832,190.41237a.396.396,0,0,0-.38784-.38832.38637.38637,0,0,0-.38781.38832.39554.39554,0,0,0,.38781.38784.406.406,0,0,0,.38784-.38784" style="fill:#b3ff1f"/><rect x="461.81923" y="188.85969" width="6.0336" height="0.61133" rx="0.30566" style="fill:#02ff00"/><rect x="461.81923" y="187.65856" width="6.0336" height="0.61133" rx="0.30566" style="fill:#02b731"/><rect x="461.81923" y="192.04524" width="6.0336" height="0.61133" rx="0.30566" style="fill:#ff0"/><rect x="515.2749" y="443.46253" width="6.0336" height="0.61133" rx="0.30566" transform="translate(74.5235 962.05989) rotate(-90)" style="fill:#02ff00"/><rect x="513.14724" y="443.46253" width="6.0336" height="0.61133" rx="0.30566" transform="translate(72.39584 959.93223) rotate(-90)" style="fill:#02b731"/><rect x="519.83156" y="451.08229" width="2.46543" height="0.61133" rx="0.30566" style="fill:#02ff00"/><rect x="513.36072" y="447.04771" width="2.46543" height="0.61133" rx="0.30566" style="fill:#02b731"/><rect x="427.0319" y="184.44955" width="6.0336" height="0.61133" rx="0.30566" style="fill:#ff0079"/><rect x="401.93449" y="252.06911" width="6.0336" height="0.61133" rx="0.30566" transform="translate(152.57651 657.32607) rotate(-90)" style="fill:#ff0079"/><rect x="402.32922" y="273.54333" width="6.0336" height="0.61133" rx="0.30566" transform="translate(131.49703 679.19501) rotate(-90)" style="fill:red"/><rect x="491.0765" y="445.92398" width="6.0336" height="0.61133" rx="0.30566" style="fill:red"/><path d="M459.98288,192.35091a.39561.39561,0,0,1,.38831-.38784.38626.38626,0,0,1,.38781.38784.39586.39586,0,0,1-.38781.38782.40611.40611,0,0,1-.38831-.38782" style="fill:#ff0"/><path d="M512.79115,447.04772a.39518.39518,0,0,0-.38781-.38784.38594.38594,0,0,0-.38781.38784.39552.39552,0,0,0,.38781.38782.40567.40567,0,0,0,.38781-.38782" style="fill:#b3ff1f"/><path d="M513.1103,443.952a.39518.39518,0,0,0-.38781-.38783.38594.38594,0,0,0-.38781.38783.39552.39552,0,0,0,.38781.38783.40568.40568,0,0,0,.38781-.38783" style="fill:#b3ff1f"/><path d="M510.79647,443.952a.39518.39518,0,0,0-.38781-.38783.38594.38594,0,0,0-.38781.38783.39552.39552,0,0,0,.38781.38783.40568.40568,0,0,0,.38781-.38783" style="fill:#b3ff1f"/><path d="M461.34918,194.952a.39519.39519,0,0,0-.38781-.38783.38594.38594,0,0,0-.38782.38783.39553.39553,0,0,0,.38782.38783.40568.40568,0,0,0,.38781-.38783" style="fill:#b3ff1f"/><polyline points="514.838 456.934 514.838 451.651 512.403 451.651 512.403 445.842 512.722 445.842 512.722 443.952 510.409 443.952 510.409 194.952 459.334 194.952 459.334 190.994 454.101 190.994 453.53 190.412" style="fill:none;stroke:#b3ff1f;stroke-linecap:round;stroke-linejoin:round;stroke-width:0.25px"/><polyline points="507.888 447.57 511.336 447.57 511.336 452.422 508.99 452.422 508.99 456.934" style="fill:none;stroke:#ff0;stroke-linecap:round;stroke-linejoin:round;stroke-width:0.25px"/><rect x="461.81923" y="194.6463" width="6.0336" height="0.61133" rx="0.30566" style="fill:#b3ff1f"/><line x1="513.55147" y1="456.97723" x2="513.55147" y2="459.01176" style="fill:none;stroke:#02ff00;stroke-linejoin:round;stroke-width:0.25px"/><rect x="504.87143" y="439.175" width="6.0336" height="0.61133" rx="0.30566" transform="translate(68.40757 947.36889) rotate(-90)" style="fill:#ff0"/><rect x="507.39186" y="439.175" width="6.0336" height="0.61133" rx="0.30566" transform="translate(70.928 949.88932) rotate(-90)" style="fill:#b3ff1f"/><polyline points="514.594 447.353 514.594 448.112 514.915 448.112 514.915 448.58" style="fill:none;stroke:#02b731;stroke-linejoin:round;stroke-width:0.15px"/><polygon points="514.69 448.515 514.915 448.903 515.139 448.515 514.69 448.515" style="fill:#02b731"/><line x1="520.14117" y1="451.38794" x2="518.69787" y2="451.38794" style="fill:none;stroke:#02ff00;stroke-linejoin:round;stroke-width:0.15px"/><polygon points="518.764 451.164 518.375 451.388 518.764 451.612 518.764 451.164" style="fill:#02ff00"/><path d="M464.15625,188.12549v-.2168l-.04785.14258h-.03027l-.0459-.14014v.21436h-.05469v-.34766h.04883l.06738.18262.06738-.18262h.04981v.34766Z" style="fill:#fff"/><path d="M464.41992,188.104a.08568.08568,0,0,1-.06445.02539.08533.08533,0,0,1-.08887-.08935v-.26221h.05469v.26514a.0343.0343,0,1,0,.06836,0v-.26514h.05469V188.04A.088.088,0,0,1,464.41992,188.104Z" style="fill:#fff"/><path d="M464.5,188.12549v-.34766h.05469v.34766Z" style="fill:#fff"/><path d="M464.75684,188.10742a.092.092,0,0,1-.127-.00732c-.02636-.0293-.02539-.07959-.02539-.148s-.001-.11963.02539-.14893a.09247.09247,0,0,1,.12793-.00683.10622.10622,0,0,1,.02735.07324h-.05469a.06155.06155,0,0,0-.00781-.03369.02743.02743,0,0,0-.02539-.0127.02828.02828,0,0,0-.02637.01319.57233.57233,0,0,0,0,.23046.02828.02828,0,0,0,.02637.01319.02741.02741,0,0,0,.02539-.0127.0737.0737,0,0,0,.00879-.03418h.05468A.10447.10447,0,0,1,464.75684,188.10742Z" style="fill:#fff"/><path d="M464.80273,188.2002v-.0376h.22364v.0376Z" style="fill:#fff"/><path d="M465.21094,188.09668a.0828.0828,0,0,1-.06739.02881h-.08789v-.34766h.08789a.0828.0828,0,0,1,.06739.02881c.02636.02881.02539.07813.02539.145S465.2373,188.06787,465.21094,188.09668Zm-.041-.25537a.03074.03074,0,0,0-.02734-.01416h-.03223v.249h.03223a.03074.03074,0,0,0,.02734-.01416.25046.25046,0,0,0,.01172-.11084A.24519.24519,0,0,0,465.16992,187.84131Z" style="fill:#fff"/><path d="M465.25684,188.2002v-.0376h.22363v.0376Z" style="fill:#fff"/><path d="M465.64648,188.12549l-.082-.20654v.20654h-.05468v-.34766h.04882l.082.20655v-.20655h.05468v.34766Z" style="fill:#fff"/><path d="M464.166,189.32617v-.21679l-.04786.14257h-.03027l-.0459-.14013v.21435h-.05469v-.34765h.04883l.06739.18261.06738-.18261h.0498v.34765Z"/><path d="M464.42969,189.30469a.08571.08571,0,0,1-.06446.02539.0872.0872,0,0,1-.06445-.02539.08809.08809,0,0,1-.02441-.064v-.2622h.05468v.26513a.0343.0343,0,1,0,.06836,0v-.26513h.05469v.2622A.08809.08809,0,0,1,464.42969,189.30469Z"/><path d="M464.50977,189.32617v-.34765h.05468v.34765Z"/><path d="M464.7666,189.30811a.092.092,0,0,1-.12695-.00733c-.02637-.0293-.02539-.07959-.02539-.148s-.001-.11963.02539-.14892a.09246.09246,0,0,1,.12793-.00684.10617.10617,0,0,1,.02734.07324h-.05469a.06157.06157,0,0,0-.00781-.03369.0274.0274,0,0,0-.02539-.01269.02832.02832,0,0,0-.02637.01318.57285.57285,0,0,0,0,.23047.02832.02832,0,0,0,.02637.01318.0274.0274,0,0,0,.02539-.01269.07373.07373,0,0,0,.00879-.03418h.05469A.1045.1045,0,0,1,464.7666,189.30811Z"/><path d="M464.8125,189.40088v-.0376h.22363v.0376Z"/><path d="M465.2207,189.29736a.08276.08276,0,0,1-.06738.02881h-.08789v-.34765h.08789a.08279.08279,0,0,1,.06738.0288c.02637.02881.02539.07813.02539.145S465.24707,189.26855,465.2207,189.29736Zm-.041-.25537a.03076.03076,0,0,0-.02735-.01416h-.03222v.249h.03222a.03076.03076,0,0,0,.02735-.01416.25051.25051,0,0,0,.01172-.11084A.24525.24525,0,0,0,465.17969,189.042Z"/><path d="M465.2666,189.40088v-.0376h.22363v.0376Z"/><path d="M465.60742,189.19043h-.0332v.13574h-.05469v-.34765h.08789c.0625,0,.08887.03271.08887.10546C465.69629,189.1543,465.67285,189.19043,465.60742,189.19043Zm.001-.1626h-.03418v.11328h.03418c.0293,0,.0332-.02588.0332-.05664S465.6377,189.02783,465.6084,189.02783Z"/><path d="M464.69238,192.49365a.08357.08357,0,0,1-.05957.022.08659.08659,0,0,1-.06836-.0293.23681.23681,0,0,1-.02539-.148.24013.24013,0,0,1,.02539-.14893.08658.08658,0,0,1,.06836-.02929.08421.08421,0,0,1,.06055.02246.10617.10617,0,0,1,.02734.07324H464.666a.06155.06155,0,0,0-.00782-.03369.03233.03233,0,0,0-.05175.00049.52915.52915,0,0,0,0,.23047.02829.02829,0,0,0,.02636.01318.02738.02738,0,0,0,.02539-.0127.0633.0633,0,0,0,.00782-.03418h.05468A.1.1,0,0,1,464.69238,192.49365Z"/><path d="M464.91113,192.49365a.08357.08357,0,0,1-.05957.022.08659.08659,0,0,1-.06836-.0293.23681.23681,0,0,1-.02539-.148.24013.24013,0,0,1,.02539-.14893.08658.08658,0,0,1,.06836-.02929.08421.08421,0,0,1,.06055.02246.10617.10617,0,0,1,.02734.07324h-.05468a.06155.06155,0,0,0-.00782-.03369.03233.03233,0,0,0-.05175.00049.52915.52915,0,0,0,0,.23047.02829.02829,0,0,0,.02636.01318.02738.02738,0,0,0,.02539-.0127.0633.0633,0,0,0,.00782-.03418h.05468A.1.1,0,0,1,464.91113,192.49365Z"/><path d="M465.043,192.51172v-.28711l-.05274.04v-.0586l.05274-.042h.05176v.34766Z"/><path d="M516.3252,444.44922h-.2168l.14258.04687v.03125l-.13965.0459h.21387v.05469h-.34766v-.0498l.18262-.06641-.18262-.06738v-.04981h.34766Z" style="fill:#fff"/><path d="M516.30371,444.18555a.0825.0825,0,0,1,.02539.06445.08534.08534,0,0,1-.02539.06445.08626.08626,0,0,1-.06348.02344h-.26269v-.05469h.26562a.03385.03385,0,1,0,0-.06738h-.26562v-.05469h.26269A.08687.08687,0,0,1,516.30371,444.18555Z" style="fill:#fff"/><path d="M516.3252,444.10547h-.34766v-.05469h.34766Z" style="fill:#fff"/><path d="M516.30762,443.84766a.088.088,0,0,1,.02148.06054.083.083,0,0,1-.0293.06739c-.02929.02636-.0791.02539-.14746.02539s-.12011.001-.14941-.02539a.09246.09246,0,0,1-.00684-.12793.09952.09952,0,0,1,.07325-.02735v.05469a.05986.05986,0,0,0-.03321.00781.02638.02638,0,0,0-.01269.02539.02539.02539,0,0,0,.01269.02539.52915.52915,0,0,0,.23047,0,.02591.02591,0,0,0,.01367-.02539.02541.02541,0,0,0-.01269-.02539.07373.07373,0,0,0-.03418-.00879v-.05468A.1048.1048,0,0,1,516.30762,443.84766Z" style="fill:#fff"/><path d="M516.40039,443.80273h-.03809v-.22363h.03809Z" style="fill:#fff"/><path d="M516.29688,443.39453a.08191.08191,0,0,1,.02832.06641v.08886h-.34766v-.08886a.07951.07951,0,0,1,.0293-.06641c.02832-.02637.07812-.02539.14453-.02539C516.21875,443.36914,516.26758,443.36816,516.29688,443.39453Zm-.25586.041a.03028.03028,0,0,0-.01368.02734v.03223h.249v-.03223a.029.029,0,0,0-.01465-.02734.2464.2464,0,0,0-.11035-.01172A.249.249,0,0,0,516.041,443.43555Z" style="fill:#fff"/><path d="M516.40039,443.34766h-.03809V443.125h.03809Z" style="fill:#fff"/><path d="M516.3252,442.959l-.20606.082h.20606v.05468h-.34766v-.04882l.207-.082h-.207v-.05468h.34766Z" style="fill:#fff"/><path d="M518.45313,444.43848h-.2168l.14258.04785v.0293l-.14063.04687h.21485v.05469h-.34766v-.04883l.18262-.06836-.18262-.06641v-.0498h.34766Z"/><path d="M518.43164,444.17383a.09079.09079,0,0,1,.02539.06445.08985.08985,0,0,1-.02539.06543.0935.0935,0,0,1-.06445.02442h-.26172v-.05469h.26465a.03337.03337,0,0,0,.03711-.03516.03294.03294,0,0,0-.03711-.0332h-.26465v-.05469h.26172A.09291.09291,0,0,1,518.43164,444.17383Z"/><path d="M518.45313,444.09375h-.34766v-.05469h.34766Z"/><path d="M518.43457,443.83789a.08026.08026,0,0,1,.02246.05957.083.083,0,0,1-.0293.06738.44659.44659,0,0,1-.29687,0,.09246.09246,0,0,1-.00684-.12793.10942.10942,0,0,1,.07325-.02832v.05469a.0737.0737,0,0,0-.03418.00879.0274.0274,0,0,0-.0127.02539.031.031,0,0,0,.01367.02637.57237.57237,0,0,0,.23047,0,.03373.03373,0,0,0,0-.05274.0633.0633,0,0,0-.03418-.00781v-.05469A.1036.1036,0,0,1,518.43457,443.83789Z"/><path d="M518.52734,443.791h-.03711v-.22266h.03711Z"/><path d="M518.42383,443.38281a.08512.08512,0,0,1,.0293.06836v.08789h-.34766v-.08789a.08778.08778,0,0,1,.02832-.06836.23016.23016,0,0,1,.14551-.02539C518.3457,443.35742,518.39551,443.35742,518.42383,443.38281Zm-.25488.041a.03294.03294,0,0,0-.01465.02832v.03223h.249v-.03223a.03469.03469,0,0,0-.01367-.02832.27105.27105,0,0,0-.11133-.01172A.25673.25673,0,0,0,518.169,443.42383Z"/><path d="M518.52734,443.33789h-.03711v-.22363h.03711Z"/><path d="M518.31738,442.99707v.03223h.13575v.05468h-.34766v-.08691c0-.06348.03223-.08887.10547-.08887C518.28125,442.9082,518.31738,442.93164,518.31738,442.99707Zm-.16308-.001v.03321h.11328v-.03321c0-.02929-.02539-.0332-.05664-.0332C518.18066,442.96289,518.1543,442.9668,518.1543,442.99609Z"/><path d="M520.35059,451.5498l-.04493-.14257h-.03125v.14257h-.05468v-.34765h.08789c.06347,0,.08886.03125.08886.10254,0,.043-.00878.07422-.04.09082l.05175.15429Zm-.042-.29785h-.03418v.10645h.03418c.0293,0,.03321-.02442.03321-.05371C520.3418,451.27637,520.33789,451.252,520.30859,451.252Z"/><path d="M520.584,451.52637a.071.071,0,0,1-.06152.02734.06822.06822,0,0,1-.06055-.02734.12962.12962,0,0,1-.01757-.082.2527.2527,0,0,1,.01367-.082l.06152-.16015h.05371l-.05761.14062a.04183.04183,0,0,1,.02148-.00586.05474.05474,0,0,1,.0459.02149c.01269.0166.01758.03515.01758.08594A.12914.12914,0,0,1,520.584,451.52637Zm-.043-.1377a.02146.02146,0,0,0-.01856-.00879.02267.02267,0,0,0-.01855.00879.19854.19854,0,0,0,0,.11035.02267.02267,0,0,0,.01855.00879.02146.02146,0,0,0,.01856-.00879.10159.10159,0,0,0,.00781-.05468A.10373.10373,0,0,0,520.541,451.38867Z"/><path d="M520.77344,451.5332a.076.076,0,0,1-.05469.02051.07833.07833,0,0,1-.05566-.02051.07179.07179,0,0,1-.02246-.05761v-.19922a.07471.07471,0,0,1,.02246-.05762.08288.08288,0,0,1,.05566-.02051.08036.08036,0,0,1,.05469.02051.07474.07474,0,0,1,.02246.05762v.19922A.07182.07182,0,0,1,520.77344,451.5332Zm-.0293-.25879a.02608.02608,0,1,0-.05176,0v.20313c0,.02051.01172.03027.02637.03027.01367,0,.02539-.00976.02539-.03027Z"/><path d="M520.96973,451.53223a.07675.07675,0,0,1-.05469.02148.0822.0822,0,0,1-.05566-.01953.07549.07549,0,0,1-.02247-.05859V451.459h.05176v.02344c0,.02149.01172.03028.02637.03028a.0203.0203,0,0,0,.01855-.00879.14624.14624,0,0,0,.00782-.06641.1419.1419,0,0,0-.00684-.06152.02252.02252,0,0,0-.01953-.01075.02685.02685,0,0,0-.02637.03028v.00683h-.04883v-.20019h.14942v.04687h-.10254v.09278a.07533.07533,0,0,1,.01855-.0166.05014.05014,0,0,1,.02442-.00586.05481.05481,0,0,1,.04687.0205.15908.15908,0,0,1,.0166.09278C520.99316,451.47852,520.99316,451.50977,520.96973,451.53223Z"/><path d="M521.03613,451.5498v-.04394l.08692-.16895a.13342.13342,0,0,0,.01367-.06152c0-.02051-.01074-.03027-.02442-.03027a.026.026,0,0,0-.02636.02929v.02247h-.05176v-.02051a.07434.07434,0,0,1,.02148-.05762.08549.08549,0,0,1,.05664-.02051.08.08,0,0,1,.05372.01856.07865.07865,0,0,1,.02246.06054.18253.18253,0,0,1-.01856.07618l-.0791.15039h.09766v.04589Z"/><path d="M521.209,451.625v-.03809h.22266v.03809Z"/><path d="M521.45508,451.5498v-.04394l.08691-.16895a.13269.13269,0,0,0,.01465-.06152c0-.02051-.01074-.03027-.02539-.03027a.02582.02582,0,0,0-.02539.02929v.02247h-.05176v-.02051a.07431.07431,0,0,1,.02149-.05762.08475.08475,0,0,1,.05566-.02051.07656.07656,0,0,1,.05371.01856.079.079,0,0,1,.02344.06054.16962.16962,0,0,1-.01953.07618l-.07813.15039h.09766v.04589Z"/><path d="M521.65527,451.5498v-.05957h.06055v.05957Z"/><path d="M521.76563,451.5498v-.04394l.08691-.16895a.13269.13269,0,0,0,.01465-.06152c0-.02051-.01074-.03027-.02539-.03027a.02582.02582,0,0,0-.02539.02929v.02247h-.05176v-.02051a.07434.07434,0,0,1,.02148-.05762.08478.08478,0,0,1,.05567-.02051.07656.07656,0,0,1,.05371.01856.079.079,0,0,1,.02344.06054.16963.16963,0,0,1-.01954.07618l-.07812.15039h.09766v.04589Z"/><path d="M513.87988,447.51563l-.04492-.14258h-.03125v.14258H513.749V447.168h.08789c.06348,0,.08887.03027.08887.10254a.09138.09138,0,0,1-.04.09082l.05176.1543Zm-.042-.29883h-.03418v.10644h.03418c.0293,0,.0332-.02441.0332-.05273C513.87109,447.24121,513.86719,447.2168,513.83789,447.2168Z" style="fill:#fff"/><path d="M514.11328,447.49121a.07173.07173,0,0,1-.06152.02832.06877.06877,0,0,1-.06055-.02832.12637.12637,0,0,1-.01758-.08105.25259.25259,0,0,1,.01367-.082l.06153-.16016h.05371l-.05762.14062a.03423.03423,0,0,1,.02149-.00586.05473.05473,0,0,1,.04589.02149c.0127.01562.01758.03418.01758.08594A.12571.12571,0,0,1,514.11328,447.49121Zm-.043-.13769a.02143.02143,0,0,0-.01855-.00879.02269.02269,0,0,0-.01856.00879.10525.10525,0,0,0-.00781.05566.0999.0999,0,0,0,.00781.05469.02269.02269,0,0,0,.01856.00879.02143.02143,0,0,0,.01855-.00879.09989.09989,0,0,0,.00782-.05469A.10524.10524,0,0,0,514.07031,447.35352Z" style="fill:#fff"/><path d="M514.30273,447.499a.08033.08033,0,0,1-.05468.02051.08289.08289,0,0,1-.05567-.02051.07473.07473,0,0,1-.02246-.05761v-.19922a.07185.07185,0,0,1,.02246-.05762.07838.07838,0,0,1,.05567-.02051.076.076,0,0,1,.05468.02051.07183.07183,0,0,1,.02247.05762v.19922A.0747.0747,0,0,1,514.30273,447.499Zm-.02929-.25879c0-.0205-.01172-.03027-.02539-.03027-.01465,0-.02637.00977-.02637.03027v.20313a.02608.02608,0,1,0,.05176,0Z" style="fill:#fff"/><path d="M514.499,447.49805a.07671.07671,0,0,1-.05468.02148.07834.07834,0,0,1-.05567-.02051.07325.07325,0,0,1-.02246-.05761v-.01758h.05176v.02441c0,.02051.01172.03028.02637.03028a.02114.02114,0,0,0,.01855-.00977.14166.14166,0,0,0,.00781-.06543.1397.1397,0,0,0-.00683-.06152.02061.02061,0,0,0-.01953-.01075.02651.02651,0,0,0-.02637.0293v.00781h-.04883V447.168h.14941v.0459H514.416v.09375a.05969.05969,0,0,1,.01855-.0166.05073.05073,0,0,1,.02441-.00684.053.053,0,0,1,.04688.02148.15552.15552,0,0,1,.0166.09278C514.52246,447.44434,514.52246,447.47461,514.499,447.49805Z" style="fill:#fff"/><path d="M514.69531,447.499a.07833.07833,0,0,1-.05566.02051.08291.08291,0,0,1-.05567-.02051.07433.07433,0,0,1-.02148-.05761v-.02051h.05176v.02246a.02582.02582,0,0,0,.02539.0293.02268.02268,0,0,0,.01855-.00879.08927.08927,0,0,0,.00879-.05078.09806.09806,0,0,0-.00781-.05079.02329.02329,0,0,0-.01953-.00878h-.01758v-.04395h.01758a.02011.02011,0,0,0,.0166-.00684.07111.07111,0,0,0,.00781-.04394.07966.07966,0,0,0-.00683-.041.02148.02148,0,0,0-.01758-.00781c-.0127,0-.02344.00977-.02344.02832v.02442h-.05176v-.02149a.07584.07584,0,0,1,.02149-.05762.07721.07721,0,0,1,.05371-.01953.07237.07237,0,0,1,.05371.01953.09587.09587,0,0,1,.02246.07227.11292.11292,0,0,1-.00879.05469.04938.04938,0,0,1-.01953.0205.06153.06153,0,0,1,.02051.02149.12807.12807,0,0,1,.01074.06348A.1002.1002,0,0,1,514.69531,447.499Z" style="fill:#fff"/><path d="M514.73828,447.58984v-.03711h.22266v.03711Z" style="fill:#fff"/><path d="M514.98438,447.51563v-.04395l.08691-.16895a.13707.13707,0,0,0,.01465-.0625c0-.01953-.01074-.03027-.02539-.03027-.01367,0-.02539.00977-.02539.03027v.02247h-.05176v-.02051a.07153.07153,0,0,1,.02148-.05762.08.08,0,0,1,.05567-.02051.07238.07238,0,0,1,.05371.01856.0782.0782,0,0,1,.02344.05957.16955.16955,0,0,1-.01954.07617l-.07812.15039h.09766v.04688Z" style="fill:#fff"/><path d="M515.18457,447.51563v-.06055h.06055v.06055Z" style="fill:#fff"/><path d="M515.29492,447.51563v-.04395l.08692-.16895a.13707.13707,0,0,0,.01464-.0625c0-.01953-.01074-.03027-.02539-.03027-.01367,0-.02539.00977-.02539.03027v.02247H515.294v-.02051a.07153.07153,0,0,1,.02148-.05762.08.08,0,0,1,.05566-.02051.07237.07237,0,0,1,.05371.01856.07817.07817,0,0,1,.02344.05957.16954.16954,0,0,1-.01953.07617l-.07812.15039h.09765v.04688Z" style="fill:#fff"/><path d="M429.27539,184.89893a.086.086,0,0,1-.06055.022.083.083,0,0,1-.06738-.0293c-.02637-.0293-.02539-.07959-.02539-.148s-.001-.11963.02539-.14892a.09246.09246,0,0,1,.12793-.00684.09794.09794,0,0,1,.02734.07324h-.05468a.06157.06157,0,0,0-.00782-.03369.02636.02636,0,0,0-.02539-.01269.02566.02566,0,0,0-.02539.01318.52956.52956,0,0,0,0,.23047.02566.02566,0,0,0,.02539.01318.02539.02539,0,0,0,.02539-.01269.07361.07361,0,0,0,.00879-.03418h.05469A.104.104,0,0,1,429.27539,184.89893Z" style="fill:#fff"/><path d="M429.47266,184.917v-.15234h-.06836v.15234h-.05469v-.34765h.05469v.14648h.06836v-.14648h.05468v.34765Z" style="fill:#fff"/><path d="M429.66992,184.9209a.08659.08659,0,0,1-.06836-.0293.44659.44659,0,0,1,0-.29687.08659.08659,0,0,1,.06836-.0293.08393.08393,0,0,1,.06153.02344.10439.10439,0,0,1,.02636.07275h-.05468c0-.01953-.00391-.04687-.03321-.04687a.02832.02832,0,0,0-.02637.01318.52956.52956,0,0,0,0,.23047.02832.02832,0,0,0,.02637.01318c.02344,0,.03321-.02051.03321-.04443v-.0542h-.03321V184.728h.08789v.09619A.08593.08593,0,0,1,429.66992,184.9209Z" style="fill:#fff"/><path d="M429.7793,184.9917v-.0376h.22265v.0376Z" style="fill:#fff"/><path d="M430.03223,184.917v-.34765h.05468v.34765Z" style="fill:#fff"/><path d="M430.28223,184.917l-.082-.20654v.20654h-.05469v-.34765h.04883l.08105.20654v-.20654h.05469v.34765Z" style="fill:#fff"/><path d="M430.36035,184.9917v-.0376h.22363v.0376Z" style="fill:#fff"/><path d="M430.7373,184.89941a.079.079,0,0,1-.05566.02149.07782.07782,0,0,1-.05469-.02.07439.07439,0,0,1-.02246-.05811v-.01709h.05176v.02393c0,.021.01172.03027.02539.03027a.02132.02132,0,0,0,.01953-.00927.144.144,0,0,0,.00781-.06592.141.141,0,0,0-.00683-.06153.02309.02309,0,0,0-.02051-.01074.02653.02653,0,0,0-.02539.02979v.00732h-.04883v-.20019h.14942v.04638h-.10254v.09326a.08027.08027,0,0,1,.01758-.0166.05752.05752,0,0,1,.02539-.00634.05506.05506,0,0,1,.04687.021.15726.15726,0,0,1,.0166.09277C430.76074,184.8457,430.75977,184.87646,430.7373,184.89941Z" style="fill:#fff"/><path d="M430.91406,184.917h-.05664l-.07617-.34765h.06055l.04492.26367.04492-.26367h.05957Z" style="fill:#fff"/><path d="M405.09473,253.14844a.09185.09185,0,0,1-.00684.12744c-.0293.02588-.08008.02539-.14844.02539s-.11914.00049-.14843-.02539a.09246.09246,0,0,1-.00684-.12793.10243.10243,0,0,1,.07324-.02783v.05468a.06814.06814,0,0,0-.03418.00831.02687.02687,0,0,0-.01269.02539.02831.02831,0,0,0,.01367.02588.55033.55033,0,0,0,.23047,0,.03273.03273,0,0,0,0-.05176.068.068,0,0,0-.03418-.0083v-.05469A.10337.10337,0,0,1,405.09473,253.14844Z" style="fill:#fff"/><path d="M405.11328,252.95068h-.15234v.06787h.15234v.05469h-.34765v-.05469h.14648v-.06787h-.14648V252.896h.34765Z" style="fill:#fff"/><path d="M405.11719,252.75391a.083.083,0,0,1-.0293.06738c-.0293.02588-.08008.02539-.14844.02539s-.11914.00049-.14843-.02539a.083.083,0,0,1-.0293-.06738.08432.08432,0,0,1,.02344-.062.10659.10659,0,0,1,.07226-.02685v.05469c-.01953.00048-.04687.00488-.04687.03418a.02831.02831,0,0,0,.01367.02588.55033.55033,0,0,0,.23047,0,.02773.02773,0,0,0,.01269-.02588c0-.02344-.0205-.03418-.04394-.03418h-.05469v.03418h-.04492V252.665h.09668A.08639.08639,0,0,1,405.11719,252.75391Z" style="fill:#fff"/><path d="M405.1875,252.644h-.03711v-.22314h.03711Z" style="fill:#fff"/><path d="M405.11328,252.39111h-.34765v-.05468h.34765Z" style="fill:#fff"/><path d="M405.11328,252.14111l-.207.082h.207v.05469h-.34765V252.229l.20605-.08154h-.20605v-.05469h.34765Z" style="fill:#fff"/><path d="M405.1875,252.063h-.03711v-.22315h.03711Z" style="fill:#fff"/><path d="M405.0957,251.686a.08363.08363,0,0,1,.001.11084.07309.07309,0,0,1-.05762.022h-.01758v-.05176h.02442c.02051,0,.03027-.01123.03027-.02588a.02141.02141,0,0,0-.00976-.019.14166.14166,0,0,0-.06543-.00781.13978.13978,0,0,0-.06153.00683.02135.02135,0,0,0-.01074.02.02616.02616,0,0,0,.0293.02588h.00781v.04932h-.20019v-.14991h.04589v.10254h.09375a.05845.05845,0,0,1-.0166-.01806.05439.05439,0,0,1-.00683-.02491.05358.05358,0,0,1,.02148-.04687.15551.15551,0,0,1,.09277-.0166C405.042,251.6626,405.07227,251.66309,405.0957,251.686Z" style="fill:#fff"/><path d="M405.11328,251.50879v.05664l-.34765.07617v-.06006l.26367-.04443-.26367-.04492v-.06006Z" style="fill:#fff"/><path d="M405.50781,274.84375v.05664l-.34765.07617v-.06006l.26367-.04443-.26367-.04492v-.06006Z" style="fill:#fff"/><path d="M405.48584,274.58057a.08925.08925,0,0,1,.022.06836v.08642h-.34765v-.08691a.08989.08989,0,0,1,.02148-.06787.099.099,0,0,1,.07324-.02149.07587.07587,0,0,1,.0586.01807.0563.0563,0,0,1,.0122.01806.05028.05028,0,0,1,.0127-.01855.09507.09507,0,0,1,.06641-.01855A.109.109,0,0,1,405.48584,274.58057Zm-.27637.07422v.02587h.09424v-.02587c0-.02881-.01416-.041-.04736-.041C405.22119,274.61377,405.20947,274.62549,405.20947,274.65479Zm.14063-.00049v.02636h.1084v-.02636c0-.02979-.01368-.04151-.0542-.04151C405.36572,274.61279,405.3501,274.625,405.3501,274.6543Z" style="fill:#fff"/><path d="M405.48633,274.35449a.08646.08646,0,0,1,.02539.06446.08757.08757,0,0,1-.02539.06494.08984.08984,0,0,1-.064.02392h-.2622v-.05468h.26513a.03339.03339,0,0,0,.03711-.03418.033.033,0,0,0-.03711-.0337h-.26513v-.05468h.2622A.08984.08984,0,0,1,405.48633,274.35449Z" style="fill:#fff"/><path d="M405.48828,274.12891a.09586.09586,0,0,1,.023.06787.092.092,0,0,1-.023.06738.09606.09606,0,0,1-.07471.02246v-.05469a.05521.05521,0,0,0,.03907-.00976.03308.03308,0,0,0,.00927-.02539.03217.03217,0,0,0-.00976-.02637.05568.05568,0,0,0-.03858-.00928c-.03711,0-.04638.00586-.05712.03272l-.01709.0415c-.01465.03516-.0337.04834-.08741.04834a.095.095,0,0,1-.07373-.02832.08751.08751,0,0,1-.021-.05957.08621.08621,0,0,1,.021-.0625.0993.0993,0,0,1,.07569-.02441v.05468a.05759.05759,0,0,0-.03711.00831.02879.02879,0,0,0-.01026.02441.02927.02927,0,0,0,.00977.02344.052.052,0,0,0,.03418.00927c.02832,0,.03711-.00439.04687-.0288l.0166-.041c.01709-.0415.03907-.05273.09766-.05273A.09915.09915,0,0,1,405.48828,274.12891Z" style="fill:#fff"/><path d="M405.58252,274.0874h-.0376v-.22314h.0376Z" style="fill:#fff"/><path d="M405.50781,273.83447h-.34765v-.05468h.34765Z" style="fill:#fff"/><path d="M405.20947,273.6665h.09864v-.07861h.04931v.07861h.15039v.05469h-.34765v-.146h.04931Z" style="fill:#fff"/><path d="M405.58252,273.56006h-.0376v-.22315h.0376Z" style="fill:#fff"/><path d="M405.49023,273.18311a.07785.07785,0,0,1,.02149.05517.08027.08027,0,0,1-.02.05567.07421.07421,0,0,1-.05811.022h-.01709v-.05176h.02393c.021,0,.03027-.01123.03027-.02588a.021.021,0,0,0-.00927-.019.144.144,0,0,0-.06592-.00781.141.141,0,0,0-.06153.00683.0223.0223,0,0,0-.01074.02.02633.02633,0,0,0,.02979.02588h.00732v.04932h-.20019v-.14991h.04638v.10254h.09326a.0651.0651,0,0,1-.0166-.01806.059.059,0,0,1,.01465-.07178.15727.15727,0,0,1,.09278-.0166C405.43652,273.15967,405.46729,273.16016,405.49023,273.18311Z" style="fill:#fff"/><path d="M405.37207,273.02344v.03271h.13574v.05469h-.34765v-.0874c0-.063.03271-.08936.10547-.08936C405.33594,272.93408,405.37207,272.95752,405.37207,273.02344Zm-.1626-.001v.03369h.11328v-.03369c0-.0293-.02587-.03369-.05664-.03369S405.20947,272.99316,405.20947,273.02246Z" style="fill:#fff"/><path d="M405.49121,272.7627a.07934.07934,0,0,1,.02051.05517.0806.0806,0,0,1-.02051.05567.07307.07307,0,0,1-.05762.022h-.19921a.07307.07307,0,0,1-.05762-.022.08056.08056,0,0,1-.02051-.05567.0793.0793,0,0,1,.02051-.05517.073.073,0,0,1,.05762-.022h.19921A.073.073,0,0,1,405.49121,272.7627Zm-.25879.02978c-.02,0-.02978.01123-.02978.02539a.02607.02607,0,0,0,.02978.02588h.20313a.02607.02607,0,0,0,.02978-.02588c0-.01416-.00976-.02539-.02978-.02539Z" style="fill:#fff"/><path d="M493.09766,446.3916H493.041l-.07618-.34765h.06055l.04492.26367.04492-.26367h.05957Z" style="fill:#fff"/><path d="M493.36133,446.36914a.0875.0875,0,0,1-.06836.02246H493.207V446.044h.08594a.08971.08971,0,0,1,.06836.02148.09979.09979,0,0,1,.02148.07324.07561.07561,0,0,1-.01758.0586.04248.04248,0,0,1-.01855.01171.0653.0653,0,0,1,.01855.01368.09147.09147,0,0,1,.01856.0664A.10639.10639,0,0,1,493.36133,446.36914Zm-.07422-.27539h-.02539v.09375h.02539c.0293,0,.041-.01367.041-.04687C493.32813,446.10547,493.31641,446.09375,493.28711,446.09375Zm0,.14063h-.02539v.10742h.02539c.03027,0,.042-.01367.042-.05371C493.3291,446.25,493.31641,446.23438,493.28711,446.23438Z" style="fill:#fff"/><path d="M493.58789,446.37012a.09079.09079,0,0,1-.06445.02539.08985.08985,0,0,1-.06543-.02539.09284.09284,0,0,1-.02442-.06348V446.044h.05469v.26464a.03337.03337,0,0,0,.03516.03711.03294.03294,0,0,0,.0332-.03711V446.044h.05469v.26269A.09218.09218,0,0,1,493.58789,446.37012Z" style="fill:#fff"/><path d="M493.8125,446.37207a.09447.09447,0,0,1-.06738.02246.09185.09185,0,0,1-.06739-.02246.09661.09661,0,0,1-.02246-.07519H493.71a.05227.05227,0,0,0,.00977.03906.0308.0308,0,0,0,.02539.00976.03452.03452,0,0,0,.02636-.00976.05227.05227,0,0,0,.00977-.03906c0-.03711-.00586-.0459-.0332-.05665l-.041-.01757c-.03515-.01368-.04883-.03321-.04883-.08692a.09487.09487,0,0,1,.02832-.07324.08378.08378,0,0,1,.05957-.02148.08633.08633,0,0,1,.0625.02148.1.1,0,0,1,.02442.0752h-.05469a.0541.0541,0,0,0-.00879-.03711.02486.02486,0,0,0-.02344-.01075.02789.02789,0,0,0-.02343.00977.05209.05209,0,0,0-.00977.03516c0,.02734.00391.03711.0293.04687l.041.01563c.041.01757.05274.03906.05274.09765A.09914.09914,0,0,1,493.8125,446.37207Z" style="fill:#fff"/><path d="M493.85449,446.4668v-.03809h.22364v.03809Z" style="fill:#fff"/><path d="M494.10742,446.3916V446.044h.05469v.34765Z" style="fill:#fff"/><path d="M494.27539,446.09375v.09766h.07813v.0498h-.07813v.15039h-.05469V446.044h.14649v.0498Z" style="fill:#fff"/><path d="M494.38184,446.4668v-.03809h.22363v.03809Z" style="fill:#fff"/><path d="M494.75879,446.374a.079.079,0,0,1-.05566.02149.076.076,0,0,1-.05469-.02051.07185.07185,0,0,1-.02246-.05762v-.0166h.05175v.02344c0,.02148.01172.03027.0254.03027a.0233.0233,0,0,0,.01953-.00879.14636.14636,0,0,0,.00781-.0664.13959.13959,0,0,0-.00684-.06153.02419.02419,0,0,0-.0205-.01074.02635.02635,0,0,0-.0254.0293v.00781h-.04882V446.044h.14941v.04589h-.10254v.09375a.09357.09357,0,0,1,.01758-.0166.05807.05807,0,0,1,.02539-.00683.05673.05673,0,0,1,.04688.02148.15733.15733,0,0,1,.0166.09277C494.78223,446.32031,494.78125,446.35156,494.75879,446.374Z" style="fill:#fff"/><path d="M494.918,446.25586h-.03223v.13574h-.05469V446.044h.08692c.06348,0,.08984.03222.08984.10546C495.00781,446.21973,494.98438,446.25586,494.918,446.25586Zm.00195-.16211h-.03418v.11328h.03418c.0293,0,.03321-.02637.03321-.05664C494.95313,446.11914,494.94922,446.09375,494.91992,446.09375Z" style="fill:#fff"/><path d="M495.17969,446.375a.08579.08579,0,0,1-.11133,0,.07292.07292,0,0,1-.02148-.05762v-.19922a.07289.07289,0,0,1,.02148-.05761.08579.08579,0,0,1,.11133,0,.07289.07289,0,0,1,.02148.05761v.19922A.07292.07292,0,0,1,495.17969,446.375Zm-.03028-.25879c0-.02051-.01074-.03027-.02539-.03027s-.02636.00976-.02636.03027v.20313c0,.0205.01172.03027.02636.03027s.02539-.00977.02539-.03027Z" style="fill:#fff"/><path d="M464.69238,195.09473a.08356.08356,0,0,1-.05957.022.08659.08659,0,0,1-.06836-.0293.2368.2368,0,0,1-.02539-.148.24008.24008,0,0,1,.02539-.14892.08659.08659,0,0,1,.06836-.0293.08421.08421,0,0,1,.06055.02246.10617.10617,0,0,1,.02734.07324H464.666a.06157.06157,0,0,0-.00782-.03369.03235.03235,0,0,0-.05175.00049.52915.52915,0,0,0,0,.23047.02829.02829,0,0,0,.02636.01318.0274.0274,0,0,0,.02539-.01269.06332.06332,0,0,0,.00782-.03418h.05468A.1.1,0,0,1,464.69238,195.09473Z"/><path d="M464.91113,195.09473a.08356.08356,0,0,1-.05957.022.08659.08659,0,0,1-.06836-.0293.2368.2368,0,0,1-.02539-.148.24008.24008,0,0,1,.02539-.14892.08659.08659,0,0,1,.06836-.0293.08421.08421,0,0,1,.06055.02246.10617.10617,0,0,1,.02734.07324h-.05468a.06157.06157,0,0,0-.00782-.03369.03235.03235,0,0,0-.05175.00049.52915.52915,0,0,0,0,.23047.02829.02829,0,0,0,.02636.01318.0274.0274,0,0,0,.02539-.01269.06332.06332,0,0,0,.00782-.03418h.05468A.1.1,0,0,1,464.91113,195.09473Z"/><path d="M464.97949,195.11279v-.04394l.08692-.16895a.13567.13567,0,0,0,.01367-.062c0-.02-.00977-.03027-.02442-.03027a.02616.02616,0,0,0-.02636.02978v.02246h-.05078v-.0205A.0729.0729,0,0,1,465,194.78174a.08231.08231,0,0,1,.05566-.02051.076.076,0,0,1,.05372.01856.07858.07858,0,0,1,.02343.06005.16962.16962,0,0,1-.01953.07618l-.07812.15039h.09765v.04638Z"/><path d="M508.03125,439.624a.08547.08547,0,0,1,.02148.05957.08655.08655,0,0,1-.02929.06836.23516.23516,0,0,1-.14746.02539.2418.2418,0,0,1-.14942-.02539.08655.08655,0,0,1-.02929-.06836.08416.08416,0,0,1,.02246-.06054.10809.10809,0,0,1,.07324-.02735v.05469a.0598.0598,0,0,0-.0332.00781.02851.02851,0,0,0-.0127.02539.028.028,0,0,0,.0127.02637.5291.5291,0,0,0,.23046,0,.02856.02856,0,0,0,.01368-.02637.02743.02743,0,0,0-.0127-.02539.0633.0633,0,0,0-.03418-.00781v-.05469A.10083.10083,0,0,1,508.03125,439.624Z"/><path d="M508.03125,439.40527a.08547.08547,0,0,1,.02148.05957.08655.08655,0,0,1-.02929.06836.23516.23516,0,0,1-.14746.02539.2418.2418,0,0,1-.14942-.02539.08655.08655,0,0,1-.02929-.06836.08416.08416,0,0,1,.02246-.06054.10809.10809,0,0,1,.07324-.02735v.05469a.0598.0598,0,0,0-.0332.00781.02851.02851,0,0,0-.0127.02539.028.028,0,0,0,.0127.02637.5291.5291,0,0,0,.23046,0,.02856.02856,0,0,0,.01368-.02637.02743.02743,0,0,0-.0127-.02539.0633.0633,0,0,0-.03418-.00781V439.377A.10083.10083,0,0,1,508.03125,439.40527Z"/><path d="M508.04883,439.27344h-.28711l.04.05273h-.0586l-.042-.05273v-.05176h.34766Z"/><path d="M510.55176,439.624a.08547.08547,0,0,1,.02148.05957.08655.08655,0,0,1-.02929.06836.2352.2352,0,0,1-.14747.02539.24178.24178,0,0,1-.14941-.02539.08656.08656,0,0,1-.0293-.06836.08421.08421,0,0,1,.02246-.06054.10812.10812,0,0,1,.07325-.02735v.05469a.05986.05986,0,0,0-.03321.00781.02852.02852,0,0,0-.01269.02539.028.028,0,0,0,.01269.02637.52915.52915,0,0,0,.23047,0,.02857.02857,0,0,0,.01367-.02637.02742.02742,0,0,0-.01269-.02539.06332.06332,0,0,0-.03418-.00781v-.05469A.10083.10083,0,0,1,510.55176,439.624Z"/><path d="M510.55176,439.40527a.08547.08547,0,0,1,.02148.05957.08655.08655,0,0,1-.02929.06836.2352.2352,0,0,1-.14747.02539.24178.24178,0,0,1-.14941-.02539.08656.08656,0,0,1-.0293-.06836.08421.08421,0,0,1,.02246-.06054.10812.10812,0,0,1,.07325-.02735v.05469a.05986.05986,0,0,0-.03321.00781.02852.02852,0,0,0-.01269.02539.028.028,0,0,0,.01269.02637.52915.52915,0,0,0,.23047,0,.02857.02857,0,0,0,.01367-.02637.02742.02742,0,0,0-.01269-.02539.06332.06332,0,0,0-.03418-.00781V439.377A.10083.10083,0,0,1,510.55176,439.40527Z"/><path d="M510.56934,439.33691h-.04395l-.16894-.08691a.1335.1335,0,0,0-.06153-.01367c-.02051,0-.03027.00976-.03027.02441a.026.026,0,0,0,.0293.02637h.02246v.05078h-.02051a.07434.07434,0,0,1-.05762-.02148.08485.08485,0,0,1-.02051-.05567.07236.07236,0,0,1,.07911-.07715.16959.16959,0,0,1,.07617.01954l.15039.07812v-.09766h.0459Z"/><path d="M505.43359,457.04883a.08056.08056,0,0,1-.06152.02051h-.0791v-.31543h.0791a.08041.08041,0,0,1,.06152.01953.08745.08745,0,0,1,.01954.0664.0654.0654,0,0,1-.01661.05274.051.051,0,0,1-.0166.01172.04278.04278,0,0,1,.01758.01172.0834.0834,0,0,1,.0166.05957A.09819.09819,0,0,1,505.43359,457.04883Zm-.06738-.25h-.02344v.085h.02344c.02637,0,.03711-.0127.03711-.043C505.40332,456.80957,505.39258,456.79883,505.36621,456.79883Zm.001.12695h-.02442v.09863h.02442c.02636,0,.03711-.01269.03711-.04882C505.4043,456.94043,505.39355,456.92578,505.36719,456.92578Z" style="fill:#fff"/><path d="M505.626,456.92383l-.05469.14551h-.04883l.05176-.12793a.03527.03527,0,0,1-.01953.00586.05374.05374,0,0,1-.042-.01954c-.01172-.01464-.01563-.03125-.01563-.07812a.11512.11512,0,0,1,.01563-.07422.07456.07456,0,0,1,.11035,0,.1151.1151,0,0,1,.01562.07422A.21051.21051,0,0,1,505.626,456.92383Zm-.041-.12305a.01836.01836,0,0,0-.0166-.00781.02007.02007,0,0,0-.01758.00781.091.091,0,0,0-.00683.04883.097.097,0,0,0,.00683.05078.02007.02007,0,0,0,.01758.00781.01836.01836,0,0,0,.0166-.00781.097.097,0,0,0,.00684-.05078A.091.091,0,0,0,505.585,456.80078Z" style="fill:#fff"/><path d="M506.56836,457.06934l-.0127-.0625h-.07324l-.01269.0625H506.418l.07715-.31543h.04883l.07617.31543Zm-.04883-.23926-.02734.13183h.05371Z" style="fill:#fff"/><path d="M506.77344,456.92383l-.05567.14551H506.669l.05175-.12793a.03008.03008,0,0,1-.01855.00586.05234.05234,0,0,1-.042-.01954c-.01172-.01464-.01661-.03125-.01661-.07812a.12186.12186,0,0,1,.01563-.07422.06523.06523,0,0,1,.05566-.02441.06438.06438,0,0,1,.05567.02441.1151.1151,0,0,1,.01562.07422A.23533.23533,0,0,1,506.77344,456.92383Zm-.041-.12305a.0212.0212,0,0,0-.01758-.00781.01837.01837,0,0,0-.0166.00781.09018.09018,0,0,0-.00781.04883.09591.09591,0,0,0,.00781.05078.01943.01943,0,0,0,.0166.00781.0212.0212,0,0,0,.01758-.00781.108.108,0,0,0,.00684-.05078A.10151.10151,0,0,0,506.73242,456.80078Z" style="fill:#fff"/><path d="M511.18652,457.06934l-.01269-.0625h-.07324l-.0127.0625h-.05176l.07715-.31543h.04883l.07617.31543Zm-.04882-.23926-.02735.13183h.05371Z" style="fill:#fff"/><path d="M511.32324,457.06934h-.04687l.083-.27344h-.05567v.042h-.04492v-.084h.14746v.03906Z" style="fill:#fff"/><path d="M512.38184,457.04883a.083.083,0,0,1-.0625.02051h-.07813v-.31543h.0791a.08189.08189,0,0,1,.06153.01953.09163.09163,0,0,1,.01953.0664.069.069,0,0,1-.0166.05274.06439.06439,0,0,1-.01661.01172.03441.03441,0,0,1,.01661.01172.08344.08344,0,0,1,.0166.05957A.09846.09846,0,0,1,512.38184,457.04883Zm-.06739-.25H512.291v.085h.02343c.02539,0,.03711-.0127.03711-.043C512.35156,456.80957,512.34082,456.79883,512.31445,456.79883Zm0,.12695H512.291v.09863h.02343c.02735,0,.03809-.01269.03809-.04882C512.35254,456.94043,512.34082,456.92578,512.31445,456.92578Z" style="fill:#fff"/><path d="M512.50586,457.06934H512.459l.083-.27344h-.05566v.042h-.04492v-.084h.14746v.03906Z" style="fill:#fff"/><path d="M518.15527,457.04883a.08056.08056,0,0,1-.06152.02051h-.0791v-.31543h.0791a.08041.08041,0,0,1,.06152.01953.08745.08745,0,0,1,.01953.0664.0654.0654,0,0,1-.0166.05274.051.051,0,0,1-.0166.01172.04278.04278,0,0,1,.01758.01172.08344.08344,0,0,1,.0166.05957A.09819.09819,0,0,1,518.15527,457.04883Zm-.06738-.25h-.02344v.085h.02344c.02637,0,.03711-.0127.03711-.043C518.125,456.80957,518.11426,456.79883,518.08789,456.79883Zm.001.12695h-.02442v.09863h.02442c.02636,0,.03711-.01269.03711-.04882C518.126,456.94043,518.11523,456.92578,518.08887,456.92578Z" style="fill:#fff"/><path d="M518.33984,457.05469a.07471.07471,0,0,1-.05078.01758.07089.07089,0,0,1-.05078-.01856.06675.06675,0,0,1-.01953-.05176v-.01855h.04688v.02051a.02343.02343,0,0,0,.02343.02636.02146.02146,0,0,0,.01758-.00781.094.094,0,0,0,.00684-.0459.08757.08757,0,0,0-.00684-.04687.02143.02143,0,0,0-.01758-.00781h-.01562v-.03907h.01562a.01713.01713,0,0,0,.01465-.00586.06152.06152,0,0,0,.00781-.04.0664.0664,0,0,0-.00683-.03711.01613.01613,0,0,0-.01563-.00683c-.01172,0-.02051.00781-.02051.02441v.02246h-.04687v-.01855a.06712.06712,0,0,1,.01953-.05274.06572.06572,0,0,1,.04785-.01757.065.065,0,0,1,.04883.01757.08756.08756,0,0,1,.02051.06543.09711.09711,0,0,1-.00879.04981.05079.05079,0,0,1-.0166.01855.06357.06357,0,0,1,.01758.01856.11122.11122,0,0,1,.00976.05859A.09392.09392,0,0,1,518.33984,457.05469Z" style="fill:#fff"/><path d="M517.002,457.04883a.08056.08056,0,0,1-.06152.02051h-.0791v-.31543h.0791a.08041.08041,0,0,1,.06152.01953.08745.08745,0,0,1,.01953.0664.0654.0654,0,0,1-.0166.05274.051.051,0,0,1-.0166.01172.04278.04278,0,0,1,.01758.01172.08344.08344,0,0,1,.0166.05957A.09819.09819,0,0,1,517.002,457.04883Zm-.06738-.25h-.02344v.085h.02344c.02637,0,.03711-.0127.03711-.043C516.97168,456.80957,516.96094,456.79883,516.93457,456.79883Zm.001.12695h-.02442v.09863h.02442c.02636,0,.03711-.01269.03711-.04882C516.97266,456.94043,516.96191,456.92578,516.93555,456.92578Z" style="fill:#fff"/><path d="M517.19238,457.01953v.04981h-.04687v-.04981h-.08692v-.042l.08106-.22363h.04492l-.07812.22363h.03906v-.05566h.04687v.05566h.02246v.042Z" style="fill:#fff"/><path d="M508.96582,457.06934l-.01367-.0625h-.07227l-.01269.0625h-.05176l.07715-.31543h.04785l.07715.31543Zm-.0498-.23926-.02637.13183h.05371Z"/><path d="M509.16211,457.05273a.06929.06929,0,0,1-.04981.01954.07473.07473,0,0,1-.05078-.01758.06573.06573,0,0,1-.01953-.05274v-.01562h.04688v.02148c0,.01953.00976.02735.02343.02735a.02007.02007,0,0,0,.01758-.00782.13667.13667,0,0,0,.00684-.05957.12014.12014,0,0,0-.00684-.05664.02049.02049,0,0,0-.01758-.00976c-.01367,0-.02343.00976-.02343.02734v.00684H509.044v-.18164h.13574v.042h-.09278v.085a.06342.06342,0,0,1,.01661-.01563.05878.05878,0,0,1,.02246-.00585.04853.04853,0,0,1,.042.01953.13972.13972,0,0,1,.01562.084C509.18359,457.00488,509.18262,457.03223,509.16211,457.05273Z"/><path d="M510.03809,457.06934l-.01368-.0625h-.07226l-.0127.0625h-.05175l.07714-.31543h.04786l.07714.31543Zm-.04981-.23926-.02637.13183h.05372Z"/><path d="M510.24023,457.04785a.06592.06592,0,0,1-.05664.02442.06489.06489,0,0,1-.05468-.02442.12345.12345,0,0,1-.01563-.07422.21027.21027,0,0,1,.0127-.07422l.05566-.1455h.04883l-.05274.12793a.03768.03768,0,0,1,.01954-.00586.051.051,0,0,1,.042.01953c.01172.01465.01562.03125.01562.07812A.1235.1235,0,0,1,510.24023,457.04785Zm-.03906-.125a.01835.01835,0,0,0-.0166-.00781.02007.02007,0,0,0-.01758.00781.09482.09482,0,0,0-.00683.04981.09313.09313,0,0,0,.00683.0498.02007.02007,0,0,0,.01758.00781.01835.01835,0,0,0,.0166-.00781.09312.09312,0,0,0,.00684-.0498A.09481.09481,0,0,0,510.20117,456.92285Z"/><path d="M513.544,457.04883a.0806.0806,0,0,1-.06153.02051h-.0791v-.31543h.0791a.08045.08045,0,0,1,.06153.01953.08749.08749,0,0,1,.01953.0664.06543.06543,0,0,1-.0166.05274.05118.05118,0,0,1-.01661.01172.04278.04278,0,0,1,.01758.01172.0834.0834,0,0,1,.0166.05957A.09824.09824,0,0,1,513.544,457.04883Zm-.06739-.25h-.02343v.085h.02343c.02637,0,.03711-.0127.03711-.043C513.51367,456.80957,513.50293,456.79883,513.47656,456.79883Zm.001.12695h-.02441v.09863h.02441c.02637,0,.03711-.01269.03711-.04882C513.51465,456.94043,513.50391,456.92578,513.47754,456.92578Z"/><path d="M513.73438,457.04785a.066.066,0,0,1-.05665.02442.06489.06489,0,0,1-.05468-.02442.12345.12345,0,0,1-.01563-.07422.21027.21027,0,0,1,.0127-.07422l.05566-.1455h.04883l-.05273.12793a.03762.03762,0,0,1,.01953-.00586.051.051,0,0,1,.042.01953c.01172.01465.01562.03125.01562.07812A.1236.1236,0,0,1,513.73438,457.04785Zm-.03907-.125a.01835.01835,0,0,0-.0166-.00781.02008.02008,0,0,0-.01758.00781.09482.09482,0,0,0-.00683.04981.09313.09313,0,0,0,.00683.0498.02008.02008,0,0,0,.01758.00781.01835.01835,0,0,0,.0166-.00781.093.093,0,0,0,.00684-.0498A.09471.09471,0,0,0,513.69531,456.92285Z"/><path d="M514.82324,457.04883a.08056.08056,0,0,1-.06152.02051h-.0791v-.31543h.0791a.08041.08041,0,0,1,.06152.01953.08745.08745,0,0,1,.01953.0664.0654.0654,0,0,1-.0166.05274.051.051,0,0,1-.0166.01172.04278.04278,0,0,1,.01758.01172.08344.08344,0,0,1,.0166.05957A.09819.09819,0,0,1,514.82324,457.04883Zm-.06738-.25h-.02344v.085h.02344c.02637,0,.03711-.0127.03711-.043C514.793,456.80957,514.78223,456.79883,514.75586,456.79883Zm.001.12695h-.02442v.09863h.02442c.02636,0,.03711-.01269.03711-.04882C514.794,456.94043,514.7832,456.92578,514.75684,456.92578Z"/><path d="M515.00781,457.05273a.06926.06926,0,0,1-.0498.01954.07471.07471,0,0,1-.05078-.01758.0657.0657,0,0,1-.01953-.05274v-.01562h.04687v.02148c0,.01953.00977.02735.02344.02735a.02009.02009,0,0,0,.01758-.00782.13686.13686,0,0,0,.00683-.05957.1203.1203,0,0,0-.00683-.05664.02052.02052,0,0,0-.01758-.00976c-.01367,0-.02344.00976-.02344.02734v.00684h-.04492v-.18164h.13574v.042h-.09277v.085a.06323.06323,0,0,1,.0166-.01563.05883.05883,0,0,1,.02246-.00585.04852.04852,0,0,1,.042.01953.13971.13971,0,0,1,.01563.084C515.0293,457.00488,515.02832,457.03223,515.00781,457.05273Z"/></svg>