<svg xmlns="http://www.w3.org/2000/svg" viewBox="0 0 841.89001 595.276"><title>Micro USB 2.0</title><path d="M536.11,211.09994a.46337.46337,0,1,1-.46365-.46421.46332.46332,0,0,1,.46365.46421" fill="#c2c2c2"/><path d="M536.11,209.83086a.46337.46337,0,1,1-.46365-.46418.46367.46367,0,0,1,.46365.46418" fill="#c2c2c2"/><path d="M536.11,208.56181a.46337.46337,0,1,1-.46365-.46418.46367.46367,0,0,1,.46365.46418" fill="#c2c2c2"/><path d="M536.11,207.29276a.46337.46337,0,1,1-.46365-.46421.46368.46368,0,0,1,.46365.46421" fill="#c2c2c2"/><path d="M536.11,206.02315a.46337.46337,0,1,1-.46365-.46365.46378.46378,0,0,1,.46365.46365" fill="#c2c2c2"/><path d="M536.11,203.485a.46337.46337,0,1,1-.46365-.46368.46383.46383,0,0,1,.46365.46368" fill="#c2c2c2"/><path d="M536.11,202.21593a.46337.46337,0,1,1-.46365-.46365.4638.4638,0,0,1,.46365.46365" fill="#c2c2c2"/><path d="M536.11,200.94685a.46337.46337,0,1,1-.46365-.46365.4638.4638,0,0,1,.46365.46365" fill="#c2c2c2"/><path d="M536.91593,211.56359a.46365.46365,0,1,1,.46365-.46365.46332.46332,0,0,1-.46365.46365" fill="#c2c2c2"/><path d="M538.18445,211.56359a.46365.46365,0,1,1,.46475-.46365.46366.46366,0,0,1-.46475.46365" fill="#c2c2c2"/><path d="M539.4535,211.56359a.46365.46365,0,1,1,.46475-.46365.46368.46368,0,0,1-.46475.46365" fill="#c2c2c2"/><path d="M540.72258,211.56359a.46365.46365,0,1,1,.46475-.46365.464.464,0,0,1-.46475.46365" fill="#c2c2c2"/><path d="M541.99167,211.56359a.46365.46365,0,1,1,.46474-.46365.46357.46357,0,0,1-.46474.46365" fill="#c2c2c2"/><path d="M543.26181,211.56359a.46365.46365,0,1,1,.46365-.46365.4638.4638,0,0,1-.46365.46365" fill="#c2c2c2"/><path d="M544.5309,211.56359a.46365.46365,0,1,1,.46365-.46365.4638.4638,0,0,1-.46365.46365" fill="#c2c2c2"/><path d="M536.91593,210.29451a.46365.46365,0,1,1,.46365-.46365.46367.46367,0,0,1-.46365.46365" fill="#c2c2c2"/><path d="M538.18445,210.29451a.46365.46365,0,1,1,.46475-.46365.464.464,0,0,1-.46475.46365" fill="#c2c2c2"/><path d="M539.4535,210.29451a.46365.46365,0,1,1,.46475-.46365.464.464,0,0,1-.46475.46365" fill="#c2c2c2"/><path d="M540.72258,210.29451a.46365.46365,0,1,1,.46475-.46365.46437.46437,0,0,1-.46475.46365" fill="#c2c2c2"/><path d="M541.99167,210.29451a.46365.46365,0,1,1,.46474-.46365.46391.46391,0,0,1-.46474.46365" fill="#c2c2c2"/><path d="M543.26181,210.29451a.46365.46365,0,1,1,.46365-.46365.46414.46414,0,0,1-.46365.46365" fill="#c2c2c2"/><path d="M544.5309,210.29451a.46365.46365,0,1,1,.46365-.46365.46415.46415,0,0,1-.46365.46365" fill="#c2c2c2"/><path d="M536.91593,209.02546a.46365.46365,0,1,1,.46365-.46365.46367.46367,0,0,1-.46365.46365" fill="#c2c2c2"/><path d="M538.18445,209.02546a.46365.46365,0,1,1,.46475-.46365.464.464,0,0,1-.46475.46365" fill="#c2c2c2"/><path d="M539.4535,209.02546a.46365.46365,0,1,1,.46475-.46365.464.464,0,0,1-.46475.46365" fill="#c2c2c2"/><path d="M540.72258,209.02546a.46365.46365,0,1,1,.46475-.46365.46437.46437,0,0,1-.46475.46365" fill="#c2c2c2"/><path d="M541.99167,209.02546a.46365.46365,0,1,1,.46474-.46365.46391.46391,0,0,1-.46474.46365" fill="#c2c2c2"/><path d="M543.26181,209.02546a.46365.46365,0,1,1,.46365-.46365.46414.46414,0,0,1-.46365.46365" fill="#c2c2c2"/><path d="M544.5309,209.02546a.46365.46365,0,1,1,.46365-.46365.46415.46415,0,0,1-.46365.46365" fill="#c2c2c2"/><path d="M536.91593,207.75641a.46365.46365,0,1,1,.46365-.46365.464.464,0,0,1-.46365.46365" fill="#c2c2c2"/><path d="M538.18445,207.75641a.46365.46365,0,1,1,.46475-.46365.46436.46436,0,0,1-.46475.46365" fill="#c2c2c2"/><path d="M539.4535,207.75641a.46365.46365,0,1,1,.46475-.46365.46438.46438,0,0,1-.46475.46365" fill="#c2c2c2"/><path d="M540.72258,207.75641a.46365.46365,0,1,1,.46475-.46365.46473.46473,0,0,1-.46475.46365" fill="#c2c2c2"/><path d="M541.99167,207.75641a.46365.46365,0,1,1,.46474-.46365.46427.46427,0,0,1-.46474.46365" fill="#c2c2c2"/><path d="M543.26181,207.75641a.46365.46365,0,1,1,.46365-.46365.4645.4645,0,0,1-.46365.46365" fill="#c2c2c2"/><path d="M544.5309,207.75641a.46365.46365,0,1,1,.46365-.46365.46451.46451,0,0,1-.46365.46365" fill="#c2c2c2"/><path d="M536.91593,206.4868a.46339.46339,0,1,1,.46365-.46365.46369.46369,0,0,1-.46365.46365" fill="#c2c2c2"/><path d="M538.18445,206.4868a.46339.46339,0,1,1,.46475-.46365.464.464,0,0,1-.46475.46365" fill="#c2c2c2"/><path d="M539.4535,206.4868a.46339.46339,0,1,1,.46475-.46365.464.464,0,0,1-.46475.46365" fill="#c2c2c2"/><path d="M540.72258,206.4868a.46339.46339,0,1,1,.46475-.46365.4644.4644,0,0,1-.46475.46365" fill="#c2c2c2"/><path d="M541.99167,206.4868a.46339.46339,0,1,1,.46474-.46365.46394.46394,0,0,1-.46474.46365" fill="#c2c2c2"/><path d="M543.26181,206.4868a.46339.46339,0,1,1,.46365-.46365.46417.46417,0,0,1-.46365.46365" fill="#c2c2c2"/><path d="M544.5309,206.4868a.46339.46339,0,1,1,.46365-.46365.46417.46417,0,0,1-.46365.46365" fill="#c2c2c2"/><path d="M538.18445,205.21771a.46339.46339,0,1,1,.46475-.46365.464.464,0,0,1-.46475.46365" fill="#c2c2c2"/><path d="M539.4535,205.21771a.46339.46339,0,1,1,.46475-.46365.464.464,0,0,1-.46475.46365" fill="#c2c2c2"/><path d="M540.72258,205.21771a.46339.46339,0,1,1,.46475-.46365.46437.46437,0,0,1-.46475.46365" fill="#c2c2c2"/><path d="M541.99167,205.21771a.46339.46339,0,1,1,.46474-.46365.46391.46391,0,0,1-.46474.46365" fill="#c2c2c2"/><path d="M543.26181,205.21771a.46339.46339,0,1,1,.46365-.46365.46414.46414,0,0,1-.46365.46365" fill="#c2c2c2"/><path d="M544.5309,205.21771a.46339.46339,0,1,1,.46365-.46365.46415.46415,0,0,1-.46365.46365" fill="#c2c2c2"/><path d="M536.91593,203.94866a.46339.46339,0,1,1,.46365-.46418.4638.4638,0,0,1-.46365.46418" fill="#c2c2c2"/><path d="M538.18445,203.94866a.46339.46339,0,1,1,.46475-.46418.46414.46414,0,0,1-.46475.46418" fill="#c2c2c2"/><path d="M539.4535,203.94866a.46339.46339,0,1,1,.46475-.46418.46416.46416,0,0,1-.46475.46418" fill="#c2c2c2"/><path d="M540.72258,203.94866a.46339.46339,0,1,1,.46475-.46418.4645.4645,0,0,1-.46475.46418" fill="#c2c2c2"/><path d="M541.99167,203.94866a.46339.46339,0,1,1,.46474-.46418.464.464,0,0,1-.46474.46418" fill="#c2c2c2"/><path d="M543.26181,203.94866a.46339.46339,0,1,1,.46365-.46418.46428.46428,0,0,1-.46365.46418" fill="#c2c2c2"/><path d="M544.5309,203.94866a.46339.46339,0,1,1,.46365-.46418.46428.46428,0,0,1-.46365.46418" fill="#c2c2c2"/><path d="M536.91593,202.67961a.46367.46367,0,1,1,.46365-.46368.46371.46371,0,0,1-.46365.46368" fill="#c2c2c2"/><path d="M541.99167,202.67961a.46367.46367,0,1,1,.46474-.46368.464.464,0,0,1-.46474.46368" fill="#c2c2c2"/><path d="M543.26181,202.67961a.46367.46367,0,1,1,.46365-.46368.46419.46419,0,0,1-.46365.46368" fill="#c2c2c2"/><path d="M544.5309,202.67961a.46367.46367,0,1,1,.46365-.46368.46419.46419,0,0,1-.46365.46368" fill="#c2c2c2"/><path d="M536.91593,201.41053a.46367.46367,0,1,1,.46365-.46368.46369.46369,0,0,1-.46365.46368" fill="#c2c2c2"/><path d="M538.18445,201.41053a.46367.46367,0,1,1,.46475-.46368.464.464,0,0,1-.46475.46368" fill="#c2c2c2"/><path d="M539.4535,201.41053a.46367.46367,0,1,1,.46475-.46368.464.464,0,0,1-.46475.46368" fill="#c2c2c2"/><path d="M540.72258,201.41053a.46367.46367,0,1,1,.46475-.46368.4644.4644,0,0,1-.46475.46368" fill="#c2c2c2"/><path d="M541.99167,201.41053a.46367.46367,0,1,1,.46474-.46368.46394.46394,0,0,1-.46474.46368" fill="#c2c2c2"/><path d="M543.26181,201.41053a.46367.46367,0,1,1,.46365-.46368.46417.46417,0,0,1-.46365.46368" fill="#c2c2c2"/><path d="M544.5309,201.41053a.46367.46367,0,1,1,.46365-.46368.46417.46417,0,0,1-.46365.46368" fill="#c2c2c2"/><polyline points="535.704 212.245 534.501 212.245 534.501 211.043 534.888 211.043 534.888 211.859 535.704 211.859" fill="#c2c2c2"/><path d="M526.95716,213.65248a.46365.46365,0,1,1,.46365-.46365.46333.46333,0,0,1-.46365.46365" fill="#c2c2c2"/><path d="M528.22621,213.65248a.46365.46365,0,1,1,.46365-.46365.46333.46333,0,0,1-.46365.46365" fill="#c2c2c2"/><path d="M529.49526,213.65248a.46365.46365,0,1,1,.46421-.46365.46335.46335,0,0,1-.46421.46365" fill="#c2c2c2"/><path d="M530.76434,213.65248a.46365.46365,0,1,1,.46422-.46365.46335.46335,0,0,1-.46422.46365" fill="#c2c2c2"/><path d="M526.49351,214.45791a.46337.46337,0,1,1,.46365.46365.4638.4638,0,0,1-.46365-.46365" fill="#c2c2c2"/><path d="M526.49351,215.727a.46337.46337,0,1,1,.46365.46368.46335.46335,0,0,1-.46365-.46368" fill="#c2c2c2"/><path d="M527.76256,214.45791a.46339.46339,0,1,1,.46365.46365.4638.4638,0,0,1-.46365-.46365" fill="#c2c2c2"/><path d="M527.76256,215.727a.46339.46339,0,1,1,.46365.46368.46335.46335,0,0,1-.46365-.46368" fill="#c2c2c2"/><path d="M529.03161,214.45791a.46367.46367,0,1,1,.46365.46365.46382.46382,0,0,1-.46365-.46365" fill="#c2c2c2"/><path d="M529.03161,215.727a.46367.46367,0,1,1,.46365.46368.46336.46336,0,0,1-.46365-.46368" fill="#c2c2c2"/><path d="M530.30122,214.45791a.4634.4634,0,1,1,.46312.46365.46337.46337,0,0,1-.46312-.46365" fill="#c2c2c2"/><path d="M530.30122,215.727a.4634.4634,0,1,1,.46312.46368.46291.46291,0,0,1-.46312-.46368" fill="#c2c2c2"/><polyline points="525.812 213.246 525.812 212.043 527.014 212.043 527.014 212.43 526.198 212.43 526.198 213.246" fill="#c2c2c2"/><polyline points="524.207 460.697 524.207 441.123 494.401 441.123 494.401 218.238 527.657 218.238 527.657 217.217 528.226 216.803 528.226 216.042" fill="none" stroke="#c00" stroke-miterlimit="10" stroke-width="0.25"/><path d="M503.99474,441.12281a.44012.44012,0,0,0-.43153-.43153.42978.42978,0,0,0-.43156.43153.44022.44022,0,0,0,.43156.43211.45153.45153,0,0,0,.43153-.43211" fill="#c00"/><path d="M500.58721,441.12281a.44048.44048,0,0,0-.43153-.43153.43024.43024,0,0,0-.4321.43153.4407.4407,0,0,0,.4321.43211.45192.45192,0,0,0,.43153-.43211" fill="#c00"/><path d="M508.92377,441.12281a.44013.44013,0,0,0-.43156-.43153.42978.42978,0,0,0-.43153.43153.44021.44021,0,0,0,.43153.43211.45153.45153,0,0,0,.43156-.43211" fill="#c00"/><path d="M524.20676,460.2651a.44011.44011,0,0,0-.43153.43155.4299.4299,0,0,0,.43153.43209.44061.44061,0,0,0,.43157-.43209.45184.45184,0,0,0-.43157-.43155" fill="#c00"/><text transform="translate(524.05078 460.86765)" font-size="0.54052" fill="#fff" font-family="DINCond-Bold" font-weight="700">1</text><path d="M528.05752,218.23758a.44051.44051,0,0,0-.43156-.43157.43014.43014,0,0,0-.43156.43157.441.441,0,0,0,.43156.43206.45234.45234,0,0,0,.43156-.43206" fill="#c00"/><path d="M528.62448,215.727a.40653.40653,0,0,0-.39827-.39824.397.397,0,0,0-.39827.39824.40653.40653,0,0,0,.39827.39827.417.417,0,0,0,.39827-.39827" fill="#c00"/><path d="M528.624,213.18907a.40645.40645,0,0,0-.3981-.39859.39691.39691,0,0,0-.3981.39859.40633.40633,0,0,0,.3981.3981.41678.41678,0,0,0,.3981-.3981" fill="#c00"/><path d="M528.81471,209.83056a.44051.44051,0,0,0-.43157-.43153.43016.43016,0,0,0-.43156.43153.441.441,0,0,0,.43156.43213.45233.45233,0,0,0,.43157-.43213" fill="#c00"/><path d="M526.24341,210.57568a.44048.44048,0,0,0-.43153-.43157.43028.43028,0,0,0-.43209.43157.44058.44058,0,0,0,.43209.43153.45178.45178,0,0,0,.43153-.43153" fill="#c00"/><path d="M532.545,209.83056a.4405.4405,0,0,0-.43156-.43153.43028.43028,0,0,0-.4321.43153.44108.44108,0,0,0,.4321.43213.45232.45232,0,0,0,.43156-.43213" fill="#c00"/><path d="M531.68129,206.89741a.44048.44048,0,0,0-.43153-.43157.431.431,0,0,0-.43209.43157.44134.44134,0,0,0,.43209.43153.45178.45178,0,0,0,.43153-.43153" fill="#c00"/><polyline points="528.226 213.504 528.226 211.69 525.812 211.69 525.812 209.831 532.113 209.831 532.113 206.897 531.25 206.897 531.25 206.023 535.647 206.023" fill="none" stroke="#c00" stroke-miterlimit="10" stroke-width="0.25"/><line x1="525.76219" y1="210.57563" x2="523.96801" y2="210.57563" fill="none" stroke="#c00" stroke-miterlimit="10" stroke-width="0.25"/><path d="M535.64663,205.64045a.39036.39036,0,0,0-.38243.38246.3813.3813,0,0,0,.38243.38293.39057.39057,0,0,0,.38293-.38293.40051.40051,0,0,0-.38293-.38246" fill="#c00"/><text transform="translate(535.34375 206.13229)" font-size="0.33102" fill="#fff" font-family="DINCond-Bold" font-weight="700">VBUS</text><path d="M537.5042,432.95293a.44049.44049,0,0,0-.43156-.43155.43083.43083,0,0,0-.43153.43155.44012.44012,0,0,0,.43153.43154.4506.4506,0,0,0,.43156-.43154" fill="#b8ff00"/><path d="M536.64111,435.21624a.44011.44011,0,0,1,.43153-.43155.4299.4299,0,0,1,.4321.43155.44058.44058,0,0,1-.4321.43155.45182.45182,0,0,1-.43153-.43155" fill="lime"/><path d="M535.63864,432.95293a.44134.44134,0,0,0-.43209-.43155.43047.43047,0,0,0-.43153.43155.43973.43973,0,0,0,.43153.43154.4515.4515,0,0,0,.43209-.43154" fill="#b8ff00"/><path d="M534.775,435.21624a.44009.44009,0,0,1,.43153-.43155.43025.43025,0,0,1,.43209.43155.441.441,0,0,1-.43209.43155.4518.4518,0,0,1-.43153-.43155" fill="lime"/><path d="M533.19524,432.95293a.4418.4418,0,0,0-.43259-.43155.43035.43035,0,0,0-.431.43155.43962.43962,0,0,0,.431.43154.452.452,0,0,0,.43259-.43154" fill="#b8ff00"/><path d="M532.33165,435.21624a.44009.44009,0,0,1,.43153-.43155.43025.43025,0,0,1,.43206.43155.441.441,0,0,1-.43206.43155.4518.4518,0,0,1-.43153-.43155" fill="lime"/><polyline points="522.033 460.697 522.033 444.658 539.084 444.658 539.084 432.953 532.763 432.953 532.763 236.602 536.916 236.602 536.916 209.831 535.647 209.831" fill="none" stroke="#b8ff00" stroke-miterlimit="10" stroke-width="0.25"/><polyline points="520.392 460.697 520.392 443.569 537.073 443.569 537.073 435.216 531.674 435.216 531.674 235.471 535.646 235.471 535.646 211.1" fill="none" stroke="lime" stroke-miterlimit="10" stroke-width="0.25"/><path d="M522.03323,460.2651a.44011.44011,0,0,0-.43153.43155.4299.4299,0,0,0,.43153.43209.44061.44061,0,0,0,.43157-.43209.45184.45184,0,0,0-.43157-.43155" fill="#b8ff00"/><text transform="translate(521.87695 460.86765)" font-size="0.54052" font-family="DINCond-Bold" font-weight="700">2</text><path d="M520.39251,460.2651a.44011.44011,0,0,0-.43157.43155.42991.42991,0,0,0,.43157.43209.44063.44063,0,0,0,.43156-.43209.45186.45186,0,0,0-.43156-.43155" fill="lime"/><text transform="translate(520.23633 460.86765)" font-size="0.54052" font-family="DINCond-Bold" font-weight="700">3</text><polyline points="533.54 437.15 533.54 436.645 534.013 436.173" fill="none" stroke="lime" stroke-linejoin="round" stroke-width="0.14"/><polyline points="533.984 436.528 533.984 436.201 533.658 436.202 533.796 436.063 534.123 436.063 534.123 436.39" fill="lime"/><polyline points="533.662 430.805 533.662 431.31 534.134 431.782" fill="none" stroke="#b8ff00" stroke-linejoin="round" stroke-width="0.14"/><polyline points="533.78 431.754 534.106 431.754 534.106 431.427 534.244 431.566 534.244 431.892 533.917 431.892" fill="#b8ff00"/><path d="M536.02928,209.83083a.39057.39057,0,0,0-.38293-.38293.3813.3813,0,0,0-.38243.38293.39034.39034,0,0,0,.38243.38246.40049.40049,0,0,0,.38293-.38246" fill="#b8ff00"/><path d="M535.26445,211.09991a.39044.39044,0,0,1,.38243-.3829.38127.38127,0,0,1,.3824.3829.39031.39031,0,0,1-.3824.3824.40035.40035,0,0,1-.38243-.3824" fill="lime"/><polyline points="553.883 194.899 555.233 194.899 555.243 194.905 555.913 195.236 555.243 195.573 555.233 195.579 553.883 195.579" fill="red"/><path d="M536.97306,195.23879a.44012.44012,0,0,0-.43153-.43156.43049.43049,0,0,0-.43156.43156.441.441,0,0,0,.43156.4321.4515.4515,0,0,0,.43153-.4321" fill="red"/><path d="M534.20191,197.95433a.4405.4405,0,0,0-.43156-.43156.43028.43028,0,0,0-.4321.43156.44108.44108,0,0,0,.4321.4321.45233.45233,0,0,0,.43156-.4321" fill="red"/><path d="M542.839,195.23879a.44059.44059,0,0,0-.4321-.43156.43016.43016,0,0,0-.43153.43156.44061.44061,0,0,0,.43153.4321.452.452,0,0,0,.4321-.4321" fill="red"/><path d="M545.88811,195.28614a.44051.44051,0,0,0-.43156-.43156.43013.43013,0,0,0-.43153.43156.44058.44058,0,0,0,.43153.4321.45192.45192,0,0,0,.43156-.4321" fill="red"/><path d="M548.65966,195.23879a.44069.44069,0,0,0-.43263-.43156.43049.43049,0,0,0-.43156.43156.441.441,0,0,0,.43156.4321.45208.45208,0,0,0,.43263-.4321" fill="red"/><path d="M551.37029,195.23879a.44062.44062,0,0,0-.43213-.43156.43015.43015,0,0,0-.43153.43156.4406.4406,0,0,0,.43153.4321.452.452,0,0,0,.43213-.4321" fill="red"/><path d="M547.55228,198.09965a.44091.44091,0,0,0-.43157-.43157.43036.43036,0,0,0-.431.43157.44037.44037,0,0,0,.431.43153.45187.45187,0,0,0,.43157-.43153" fill="red"/><polyline points="543.262 200.947 547.121 200.947 547.121 198.1 550.938 198.1 550.938 195.239 533.77 195.239 533.77 202.216 535.647 202.216" fill="none" stroke="red" stroke-miterlimit="10" stroke-width="0.25"/><path d="M535.64663,201.83325a.39034.39034,0,0,0-.38243.38243.3816.3816,0,0,0,.38243.38293.3909.3909,0,0,0,.38293-.38293.40048.40048,0,0,0-.38293-.38243" fill="red"/><text transform="translate(535.50488 202.19055)" font-size="0.34048" fill="#fff" font-family="DINCond-Bold" font-weight="700" letter-spacing="0.00143em">LX</text><text transform="translate(535.41113 202.46594)" font-size="0.34048" fill="#fff" font-family="DINCond-Bold" font-weight="700">CHG</text><path d="M543.26178,200.56417a.39048.39048,0,0,0-.38293.38243.38169.38169,0,0,0,.38293.38292.39109.39109,0,0,0,.38243-.38292.40077.40077,0,0,0-.38243-.38243" fill="red"/><text transform="translate(542.96875 201.05917)" font-size="0.34048" fill="#fff" font-family="DINCond-Bold" font-weight="700">VSYS</text><line x1="551.09713" y1="195.23879" x2="553.92915" y2="195.23879" fill="none" stroke="red" stroke-miterlimit="10" stroke-width="0.25"/><path d="M590.98161,201.37894a.44058.44058,0,0,0-.43153-.43209.43084.43084,0,0,0-.43263.43209.44107.44107,0,0,0,.43263.43157.45179.45179,0,0,0,.43153-.43157" fill="red"/><path d="M549.27465,204.29094a.44048.44048,0,0,0-.43157-.43153.43037.43037,0,0,0-.43263.43153.44145.44145,0,0,0,.43263.43157.45265.45265,0,0,0,.43157-.43157" fill="red"/><path d="M595.66932,201.37894a.44069.44069,0,0,0-.4321-.43209.43027.43027,0,0,0-.43156.43209.44048.44048,0,0,0,.43156.43157.45188.45188,0,0,0,.4321-.43157" fill="red"/><path d="M602.50656,202.72952a.4402.4402,0,0,0-.43153-.43207.42992.42992,0,0,0-.43156.43207.44011.44011,0,0,0,.43156.43153.45139.45139,0,0,0,.43153-.43153" fill="red"/><path d="M605.44709,198.73363a.44058.44058,0,0,0-.43156-.43209.43038.43038,0,0,0-.43207.43209.44059.44059,0,0,0,.43207.43157.45179.45179,0,0,0,.43156-.43157" fill="red"/><path d="M404.663,208.72165a.44051.44051,0,0,0-.43155-.43156.43027.43027,0,0,0-.43209.43156.44063.44063,0,0,0,.43209.43157.45187.45187,0,0,0,.43155-.43157" fill="red"/><path d="M600.36138,198.73363a.44061.44061,0,0,0-.43156-.43209.43027.43027,0,0,0-.43153.43209.44048.44048,0,0,0,.43153.43157.45181.45181,0,0,0,.43156-.43157" fill="red"/><polyline points="592.644 209.423 590.55 209.423 590.55 201.379 595.337 201.379 595.337 202.729 605.015 202.729 605.015 198.733 565.5 198.733 565.5 204.29 546.433 204.29 546.433 202.216 544.53 202.216" fill="none" stroke="red" stroke-miterlimit="10" stroke-width="0.25"/><path d="M592.64349,208.99062a.44089.44089,0,0,0-.43156.43156.43026.43026,0,0,0,.43156.4321.44057.44057,0,0,0,.43153-.4321.45223.45223,0,0,0-.43153-.43156" fill="red"/><text transform="translate(592.4873 209.59265)" font-size="0.54052" fill="#fff" font-family="DINCond-Bold" font-weight="700">4</text><path d="M544.53035,201.80765a.39026.39026,0,0,0-.3827.38267.38121.38121,0,0,0,.3827.38313.391.391,0,0,0,.38266-.38313.401.401,0,0,0-.38266-.38267" fill="red"/><text transform="translate(544.2627 202.16835)" font-size="0.3014" fill="#fff" font-family="DINCond-Bold" font-weight="700">VBAT</text><text transform="translate(544.34619 202.41151)" font-size="0.3014" fill="#fff" font-family="DINCond-Bold" font-weight="700">CHG</text><polyline points="605.015 198.55 605.015 173.7 404.231 173.7 404.231 208.722" fill="none" stroke="red" stroke-miterlimit="10" stroke-width="0.25"/><polyline points="595.772 204.354 595.772 203.848 595.337 203.414" fill="none" stroke="red" stroke-linejoin="round" stroke-width="0.14"/><polyline points="595.692 203.443 595.365 203.443 595.365 203.769 595.227 203.631 595.227 203.304 595.553 203.304" fill="red"/><path d="M584.40742,192.49822a.44057.44057,0,0,0-.43156-.4321.43022.43022,0,0,0-.43153.4321.4405.4405,0,0,0,.43153.43156.45184.45184,0,0,0,.43156-.43156" fill="#ff8400"/><path d="M584.40742,190.8814a.44049.44049,0,0,0-.43156-.43156.43013.43013,0,0,0-.43153.43156.44048.44048,0,0,0,.43153.43157.45182.45182,0,0,0,.43156-.43157" fill="#ff8400"/><polyline points="584.972 209.423 584.972 190.881 583.976 190.881" fill="none" stroke="#ff8400" stroke-miterlimit="10" stroke-width="0.25"/><path d="M584.97187,208.99118a.44012.44012,0,0,0-.43157.43153.43024.43024,0,0,0,.43157.4321.441.441,0,0,0,.43156-.4321.45187.45187,0,0,0-.43156-.43153" fill="#ff8400"/><text transform="translate(584.81543 209.59282)" font-size="0.54052" font-family="DINCond-Bold" font-weight="700">3</text><polyline points="583.976 192.498 560.883 192.498 560.883 189.687 538.185 189.687 538.185 200.947" fill="none" stroke="#ff8400" stroke-miterlimit="10" stroke-width="0.25"/><polyline points="582.811 189.479 582.811 189.984 583.283 190.456" fill="none" stroke="#ff8400" stroke-linejoin="round" stroke-width="0.14"/><polyline points="582.929 190.427 583.255 190.427 583.255 190.101 583.394 190.24 583.394 190.566 583.068 190.566" fill="#ff8400"/><path d="M538.56777,200.94688a.391.391,0,0,0-.38326-.38226.38134.38134,0,0,0-.38229.38226.39093.39093,0,0,0,.38229.38276.40154.40154,0,0,0,.38326-.38276" fill="#ff8400"/><rect x="523.86611" y="446.37681" width="0.68025" height="6.71424" rx="0.34012" fill="#c00"/><rect x="521.69311" y="446.37681" width="0.68025" height="6.71424" rx="0.34012" fill="#b8ff00"/><rect x="520.05238" y="446.37681" width="0.68025" height="6.71424" rx="0.34012" fill="lime"/><text transform="translate(524.38595 450.98177) rotate(-90)" font-size="0.54052" fill="#fff" font-family="DINCond-Bold" font-weight="700">VBUS_IF_5P0</text><text transform="translate(522.21212 450.6175) rotate(-90)" font-size="0.54052" font-family="DINCond-Bold" font-weight="700">USB_D_N</text><text transform="translate(520.57192 450.60676) rotate(-90)" font-size="0.54052" font-family="DINCond-Bold" font-weight="700">USB_D_P</text><rect x="533.32153" y="426.5523" width="0.68025" height="4.25303" rx="0.34012" fill="#b8ff00"/><text transform="translate(533.84082 429.69761) rotate(-90)" font-size="0.54052" font-family="DINCond-Bold" font-weight="700">R4029 - 2.2</text><rect x="533.20031" y="437.15049" width="0.68025" height="4.25303" rx="0.34012" fill="lime"/><text transform="translate(533.71936 440.2958) rotate(-90)" font-size="0.54052" font-family="DINCond-Bold" font-weight="700">R4030 - 2.2</text><rect x="519.42304" y="214.88071" width="0.68025" height="6.71424" rx="0.34012" transform="matrix(0, 1, -1, 0, 738.001, -301.52533)" fill="#c00"/><rect x="523.28852" y="207.21851" width="0.68025" height="6.71424" rx="0.34012" fill="#c00"/><text transform="translate(518.51533 218.41666)" font-size="0.54052" fill="#fff" font-family="DINCond-Bold" font-weight="700">VBUS_IF_5P0</text><text transform="translate(523.80793 211.73548) rotate(-90)" font-size="0.54052" fill="#fff" font-family="DINCond-Bold" font-weight="700">CHG_IN_5P0</text><rect x="542.31586" y="186.31953" width="0.68025" height="6.71424" rx="0.34012" transform="translate(732.33262 -352.97933) rotate(90)" fill="#ff8400"/><text transform="translate(541.98231 189.85569)" font-size="0.54052" font-family="DINCond-Bold" font-weight="700">BAT_ID</text><rect x="556.15587" y="191.88194" width="0.68025" height="6.71424" rx="0.34012" fill="red"/><text transform="translate(556.67492 196.13159) rotate(-90)" font-size="0.54052" fill="#fff" font-family="DINCond-Bold" font-weight="700">PWR 3.7V</text><rect x="555.52969" y="200.92355" width="0.68025" height="6.71424" rx="0.34012" transform="translate(760.15051 -351.58913) rotate(90)" fill="red"/><text transform="translate(554.92753 204.45975)" font-size="0.54052" fill="#fff" font-family="DINCond-Bold" font-weight="700">VPH_PWR</text><rect x="590.20941" y="202.16835" width="0.68025" height="6.71424" rx="0.34012" fill="red"/><text transform="translate(590.72888 206.78874) rotate(-90)" font-size="0.54052" fill="#fff" font-family="DINCond-Bold" font-weight="700">VPH_PWR_IN</text><rect x="595.43119" y="204.26526" width="0.68025" height="4.25237" rx="0.34012" fill="red"/><rect x="582.47116" y="185.4927" width="0.68025" height="4.25237" rx="0.34012" fill="#ff8400"/><text transform="translate(595.95098 207.23871) rotate(-90)" font-size="0.54052" fill="#fff" font-family="DINCond-Bold" font-weight="700">R4000 - 0</text><rect x="584.63174" y="200.23479" width="0.68025" height="6.71424" rx="0.34012" fill="#ff8400"/><text transform="translate(585.15091 204.26526) rotate(-90)" font-size="0.54052" font-family="DINCond-Bold" font-weight="700">BAT_ID</text><text transform="translate(582.99044 188.68323) rotate(-90)" font-size="0.54052" font-family="DINCond-Bold" font-weight="700">R4019 - 100</text><rect x="604.67515" y="190.33352" width="0.68025" height="6.71424" rx="0.34012" fill="red"/><text transform="translate(605.19434 194.6344) rotate(-90)" font-size="0.54052" fill="#fff" font-family="DINCond-Bold" font-weight="700">VPH_PWR</text><rect x="403.8911" y="197.32649" width="0.68025" height="6.71424" rx="0.34012" fill="red"/><text transform="translate(404.41028 201.62854) rotate(-90)" font-size="0.54052" fill="#fff" font-family="DINCond-Bold" font-weight="700">VPH_PWR</text><rect x="536.57581" y="212.76811" width="0.68025" height="6.71424" rx="0.34012" fill="#b8ff00"/><rect x="535.30676" y="212.76811" width="0.68025" height="6.71424" rx="0.34012" fill="lime"/><text transform="translate(537.09482 217.0088) rotate(-90)" font-size="0.54052" font-family="DINCond-Bold" font-weight="700">USB_D_N</text><text transform="translate(535.8263 216.99806) rotate(-90)" font-size="0.54052" font-family="DINCond-Bold" font-weight="700">USB_D_P</text><path d="M646.38546,42.5799a21.29,21.29,0,0,0,0-42.5799H195.50466a21.29,21.29,0,1,0,0,42.5799Z" fill="#292c31"/><path d="M811.55994,520.90338l-.11188-.19379a49.19433,49.19433,0,0,0-42.60352-24.59716H225.50244V595.276H768.62085a49.58168,49.58168,0,0,0,42.939-24.79083l.00006-.00006A49.582,49.582,0,0,0,811.55994,520.90338Z" fill="#cfd1d2"/><path d="M175.79919,496.11243h-102.53a49.58146,49.58146,0,0,0-42.939,24.791h-.00006a49.58165,49.58165,0,0,0,0,49.58155h.00006a49.58146,49.58146,0,0,0,42.939,24.791H225.50244V496.11243Z" fill="#292c31"/><line x1="225.50247" y1="520.78351" x2="811.52747" y2="520.78351" fill="none" stroke="#fff" stroke-miterlimit="10" stroke-width="0.25"/><line x1="225.50247" y1="545.50626" x2="818.3022" y2="545.50626" fill="none" stroke="#fff" stroke-miterlimit="10" stroke-width="0.25"/><line x1="225.50247" y1="570.29747" x2="811.55994" y2="570.29747" fill="none" stroke="#fff" stroke-miterlimit="10" stroke-width="0.25"/><text transform="translate(36.65247 550.84631)" font-size="17" fill="#fff" font-family="DINCond-Bold" font-weight="700">• ELECTRICAL COLOR LEGEND •</text><text transform="translate(324.41553 26.58655)" font-size="16" fill="#fff" font-family="DINCond-Bold" font-weight="700">SAMSUNG SM-G532F &gt; <tspan x="123.13281" y="0" font-size="14">MIC</tspan><tspan x="141.01074" y="0" font-size="14" letter-spacing="-0.00105em">R</tspan><tspan x="147.68848" y="0" font-size="14">O USB 2.0</tspan></text><path d="M244.00645,516.80454h-.00009a8.504,8.504,0,0,1-8.50389-8.504h0a8.504,8.504,0,0,1,8.50389-8.504h.00009a8.50393,8.50393,0,0,1,8.50389,8.504h0A8.504,8.504,0,0,1,244.00645,516.80454Z" fill="lime" fill-rule="evenodd"/><text transform="translate(262.0605 511.62561)" font-size="9" font-family="DINCond-Bold" font-weight="700">USB_D_P</text><path d="M244.00645,542.03024h-.00009a8.504,8.504,0,0,1-8.50389-8.504h0a8.504,8.504,0,0,1,8.50389-8.504h.00009a8.50393,8.50393,0,0,1,8.50389,8.504h0A8.504,8.504,0,0,1,244.00645,542.03024Z" fill="#b8ff00" fill-rule="evenodd"/><text transform="translate(262.0605 536.8512)" font-size="9" font-family="DINCond-Bold" font-weight="700">USB_D_M</text><path d="M244.00645,566.61906h-.00009a8.504,8.504,0,0,1-8.50389-8.504h0a8.504,8.504,0,0,1,8.50389-8.504h.00009a8.50394,8.50394,0,0,1,8.50389,8.504h0A8.504,8.504,0,0,1,244.00645,566.61906Z" fill="#ff8400" fill-rule="evenodd"/><path d="M244.00645,590.98383h-.00009a8.504,8.504,0,0,1-8.50389-8.504h0a8.504,8.504,0,0,1,8.50389-8.504h.00009a8.50393,8.50393,0,0,1,8.50389,8.504h0A8.504,8.504,0,0,1,244.00645,590.98383Z" fill="#c00" fill-rule="evenodd"/><text transform="translate(262.0605 561.44006)" font-size="9" font-family="DINCond-Bold" font-weight="700">BAT_ID</text><text transform="translate(262.06045 585.96741)" font-size="9" font-family="DINCond-Bold" font-weight="700">VBUS_IF_5P0</text><rect x="0.00013" y="0.00021" width="841.88976" height="595.27559" fill="none"/></svg>